<?xml version="1.0" encoding="UTF-8"?>
<svg width="36px" height="36px" viewBox="0 0 36 36" version="1.1" xmlns="http://www.w3.org/2000/svg" xmlns:xlink="http://www.w3.org/1999/xlink">
    <!-- Generator: Sketch 55.2 (78181) - https://sketchapp.com -->
    <title>法人_slice</title>
    <desc>Created with Sketch.</desc>
    <g id="页面1" stroke="none" stroke-width="1" fill="none" fill-rule="evenodd">
        <g id="画板" transform="translate(-96.000000, -182.000000)">
            <g id="法人" transform="translate(96.000000, 182.000000)">
                <path d="M0,18.0001432 C0,27.9358672 8.06406871,36 18,36 C27.9359313,36 36,27.9358672 36,18.0001432 C36,8.06384654 27.9359313,0 18,0 C8.06406871,0 0,8.06384654 0,18.0001432" id="Fill-1" fill-opacity="0.06" fill="#0098E4"></path>
                <g id="编组-2" transform="translate(8.000000, 8.000000)" fill-rule="nonzero">
                    <g id="法人其他" fill="#A9D2FF">
                        <path d="M7.47134474,12.0188409 C7.47134474,12.0188409 7.47134474,12.0706057 7.47134474,12.0188409 L0.695336858,12.0706057 C0.438669892,12.0706057 0.23333632,11.8117819 0.23333632,11.552958 C0.23333632,11.3976637 0.23333632,11.1388399 0.284669713,10.8282513 C0.284669713,9.94825029 0.490003285,9.27530833 1.00333722,8.70589591 C1.36267097,8.34354254 2.18400526,8.08471871 3.15933972,7.92942441 C4.13467419,7.77413012 4.8533417,7.20471769 4.90467509,7.10118816 C5.00734188,6.99765862 5.00734188,6.89412909 5.00734188,6.68707003 C5.00734188,6.48001096 4.95600848,5.9623633 4.90467509,5.75530424 C4.8533417,5.60000994 4.8020083,5.49648041 4.69934152,5.28942134 C4.59667473,5.08236228 4.54534134,4.77177368 4.54534134,4.77177368 L4.44267455,4.77177368 C4.39134116,4.77177368 4.34000777,4.72000891 4.23734098,4.30589079 C4.13467419,3.89177266 4.18600759,3.63294883 4.18600759,3.47765453 C4.18600759,3.32236023 4.34000777,3.32236023 4.34000777,3.32236023 C4.34000777,3.32236023 4.28867437,2.80471257 4.28867437,2.54588874 C4.23734098,2.28706491 4.23734098,2.13177061 4.34000777,1.61412295 C4.39134116,1.09647529 5.00734188,0.837651456 5.21267545,0.578827625 C5.36667563,0.320003795 5.88000956,0.164709496 6.54734367,0.164709496 C7.21467778,0.164709496 7.57401153,0.320003795 7.98467867,0.475298093 C8.24134564,0.630592392 8.70334618,1.04471052 8.80601296,1.56235818 C8.85734636,2.08000584 8.85734636,2.23530014 8.85734636,2.49412397 C8.85734636,2.80471257 8.80601296,3.27059546 8.80601296,3.27059546 C8.80601296,3.27059546 8.96001314,3.27059546 8.96001314,3.42588976 C8.96001314,3.52941929 8.96001314,3.73647836 8.90867975,4.04706696 C8.549346,4.20236125 8.24134564,4.40942032 8.03601207,4.66824415 C7.98467867,4.72000891 7.88201189,4.77177368 7.83067849,4.82353845 C7.47134474,5.13412704 6.85534403,5.60000994 6.75267724,6.4282462 C6.65001045,7.10118816 6.65001045,7.36001199 6.65001045,7.82589488 C6.65001045,7.98118918 6.70134385,8.18824824 6.70134385,8.34354254 C6.59867706,8.49883684 6.54734367,8.60236637 6.54734367,8.75766067 C6.49601027,9.0164845 6.44467688,9.53413216 6.65001045,10.2588389 C6.75267724,10.672957 6.90667742,11.0353104 7.16334438,11.2941342 C7.21467778,11.3976637 7.26601117,11.552958 7.31734456,11.6564876 L7.36867796,11.7600171 C7.42001135,11.9153114 7.47134474,11.9153114 7.47134474,12.0188409 Z M19.9966927,8.70589591 C20.5100266,9.22354357 20.6640268,9.89648553 20.7153602,10.8282513 C20.7666935,11.1388399 20.7666935,11.3976637 20.8180269,11.6564876 C20.8693603,11.9670762 20.6126934,12.1741352 20.3560264,12.1741352 L13.5800185,12.1741352 L13.5800185,12.1223705 C13.5800185,12.0706057 13.5800185,12.0188409 13.6826853,11.8635466 L13.7340187,11.7600171 C13.7853521,11.6564876 13.8366855,11.5011933 13.8880189,11.3976637 C14.1960192,11.1388399 14.298686,10.7764866 14.4013528,10.3623684 C14.6066864,9.6376617 14.555353,9.12001403 14.5040196,8.8611902 C14.4526862,8.70589591 14.4013528,8.55060161 14.3500194,8.44707208 C14.4013528,8.24001301 14.4013528,8.08471871 14.4013528,7.92942441 C14.4013528,7.46354152 14.4013528,7.20471769 14.298686,6.53177573 C14.1446858,5.54824517 13.3746849,4.77177368 12.7586842,4.40942032 C12.604684,4.30589079 12.3993505,4.20236125 12.1426835,4.09883172 C12.0400167,3.78824312 12.0913501,3.58118406 12.0913501,3.47765453 C12.0913501,3.32236023 12.2453503,3.32236023 12.2453503,3.32236023 C12.2453503,3.32236023 12.1940169,2.80471257 12.1940169,2.54588874 C12.1426835,2.28706491 12.1426835,2.13177061 12.2453503,1.61412295 C12.2966837,1.09647529 12.9126844,0.837651456 13.118018,0.578827625 C13.3233516,0.320003795 13.7853521,0.164709496 14.4526862,0.164709496 C15.1200203,0.164709496 15.4793541,0.320003795 15.8386878,0.527062859 C16.0953548,0.682357158 16.5573553,1.09647529 16.6600221,1.61412295 C16.7113555,2.13177061 16.7113555,2.28706491 16.7113555,2.54588874 C16.7113555,2.85647733 16.6600221,3.32236023 16.6600221,3.32236023 C16.6600221,3.32236023 16.8140223,3.32236023 16.8140223,3.47765453 C16.8653557,3.63294883 16.8653557,3.89177266 16.7626889,4.30589079 C16.6600221,4.72000891 16.6086887,4.77177368 16.5573553,4.77177368 L16.4546885,4.77177368 C16.4546885,4.77177368 16.4033551,5.08236228 16.3006883,5.28942134 C16.1980216,5.44471564 16.1466882,5.54824517 16.0953548,5.75530424 C16.0440214,5.9623633 15.9413546,6.48001096 15.992688,6.68707003 C16.0440214,6.89412909 16.0440214,6.99765862 16.0953548,7.10118816 C16.1466882,7.15295292 16.8653557,7.77413012 17.8406901,7.92942441 C18.8160246,8.08471871 19.6373589,8.29177778 19.9966927,8.70589591 Z M17.2760228,15.5906098 C16.8140223,15.0729621 15.8386878,14.8141383 14.6580198,14.6070792 C13.4773517,14.4000202 12.604684,13.6753135 12.5020173,13.5200192 C12.3993505,13.4164896 12.3993505,13.2611953 12.3993505,13.0023715 C12.3993505,12.7435477 12.5020173,12.0706057 12.5020173,11.8117819 C12.5533507,11.552958 12.604684,11.4494285 12.7586842,11.1906047 C12.9126844,10.9317808 12.9640178,10.5694275 12.9640178,10.5694275 C12.9640178,10.5694275 13.0153512,10.6211923 13.0666846,10.5694275 C13.118018,10.5176627 13.1693514,10.465898 13.3233516,10.0000151 C13.4773517,9.4823674 13.4260183,9.12001403 13.4260183,8.96471974 C13.3746849,8.80942544 13.2206848,8.75766067 13.2206848,8.75766067 C13.2206848,8.75766067 13.2720182,8.13648348 13.3233516,7.77413012 C13.3233516,7.41177675 13.3233516,7.20471769 13.2206848,6.5835405 C13.118018,5.9623633 12.5533507,5.39295087 12.1940169,5.18589181 C11.7833498,5.03059751 11.3213492,4.82353845 10.5000149,4.82353845 C9.67868064,4.82353845 9.11401332,5.03059751 8.85734636,5.34118611 C8.60067939,5.6517747 7.88201189,6.01412807 7.7793451,6.63530526 C7.67667831,7.25648245 7.67667831,7.46354152 7.67667831,7.82589488 C7.67667831,8.18824824 7.7793451,8.80942544 7.7793451,8.80942544 C7.7793451,8.80942544 7.62534492,8.80942544 7.57401153,9.0164845 C7.52267814,9.1717788 7.52267814,9.53413216 7.67667831,10.0517798 C7.83067849,10.5694275 7.88201189,10.6211923 7.93334528,10.6211923 C7.98467867,10.672957 8.03601207,10.6211923 8.03601207,10.6211923 C8.03601207,10.6211923 8.13867885,10.9835456 8.24134564,11.2423694 C8.34401242,11.5011933 8.44667921,11.6047228 8.4980126,11.8635466 C8.549346,12.1223705 8.65201278,12.7953124 8.60067939,13.0541363 C8.549346,13.3129601 8.60067939,13.4682544 8.4980126,13.5717839 C8.39534582,13.6753135 7.57401153,14.4000202 6.34201009,14.658844 C5.16134205,14.8659031 4.18600759,15.1247269 3.72400705,15.6423746 C3.10800633,16.3153165 2.85133937,17.1953175 2.80000597,18.3341424 C2.80000597,18.6964958 2.74867258,19.0070844 2.74867258,19.2659082 C2.74867258,19.6282616 3.00533955,19.8870854 3.3646733,19.8870854 L17.5840232,19.8870854 C17.9433569,19.8870854 18.2000239,19.5764968 18.2000239,19.2659082 C18.2000239,19.0588491 18.2000239,18.7482605 18.1486905,18.3341424 C17.9714945,16.9046618 18.2317059,16.6614032 17.2760228,15.5906098 Z M11.167349,17.3506118 C11.2186824,17.5059061 11.2186824,17.7129652 11.1160157,17.8682595 L10.5000149,19.524732 L9.83268082,17.8682595 C9.73001404,17.7129652 9.73001404,17.5059061 9.78134743,17.3506118 L10.243348,15.8494336 C10.0893478,15.8494336 9.986681,15.7459041 9.93534761,15.5906098 L9.78134743,15.0729621 C9.73001404,14.9694326 9.83268082,14.8659031 9.93534761,14.8659031 C9.93534761,14.8659031 10.0380144,14.9694326 10.5000149,14.9694326 C10.9106821,14.9694326 11.1160157,14.8659031 11.1160157,14.8659031 C11.2186824,14.8659031 11.2700158,14.9694326 11.2700158,15.0729621 L11.1160157,15.5906098 C11.0646823,15.7459041 10.9620155,15.8494336 10.8080153,15.8494336 L11.167349,17.3506118 Z" id="形状"></path>
                    </g>
                    <g id="法人其他" transform="translate(2.210526, 4.444444)" fill="#72AEFD">
                        <path d="M15.1673916,11.0707912 C14.6984437,10.5442948 13.7084425,10.2810467 12.5100201,10.0704481 C11.3115976,9.85984958 10.4258071,9.12275471 10.3215965,8.96480581 C10.2173858,8.85950654 10.2173858,8.70155764 10.2173858,8.43830947 C10.2173858,8.1750613 10.3215965,7.49061606 10.3215965,7.22736789 C10.3737018,6.96411972 10.4258071,6.85882045 10.5821231,6.59557228 C10.7384391,6.33232411 10.7905444,5.96377667 10.7905444,5.96377667 C10.7905444,5.96377667 10.8426497,6.01642631 10.894755,5.96377667 C10.9468604,5.91112704 10.9989657,5.85847741 11.1552817,5.3846307 C11.3115976,4.85813436 11.2594923,4.48958692 11.2594923,4.33163802 C11.207387,4.17368912 11.051071,4.12103949 11.051071,4.12103949 C11.051071,4.12103949 11.1031763,3.48924388 11.1552817,3.12069644 C11.1552817,2.75214901 11.1552817,2.54155047 11.051071,1.90975486 C10.9468604,1.27795926 10.3737018,0.698813282 10.0089645,0.488214747 C9.59212194,0.330265845 9.12317402,0.119667309 8.28948884,0.119667309 C7.45580366,0.119667309 6.8826451,0.330265845 6.62211848,0.646163649 C6.36159186,0.962061452 5.63211733,1.33060889 5.52790668,1.9624045 C5.42369603,2.5942001 5.42369603,2.80479864 5.42369603,3.17334608 C5.42369603,3.54189351 5.52790668,4.17368912 5.52790668,4.17368912 C5.52790668,4.17368912 5.37159071,4.17368912 5.31948539,4.38428766 C5.26738006,4.54223656 5.26738006,4.910784 5.42369603,5.43728033 C5.58001201,5.96377667 5.63211733,6.01642631 5.68422265,6.01642631 C5.73632798,6.06907594 5.7884333,6.01642631 5.7884333,6.01642631 C5.7884333,6.01642631 5.89264395,6.38497375 5.9968546,6.64822191 C6.10106524,6.91147008 6.20527589,7.01676935 6.25738121,7.28001752 C6.30948654,7.54326569 6.41369719,8.22771093 6.36159186,8.4909591 C6.30948654,8.75420727 6.36159186,8.91215617 6.25738121,9.01745544 C6.15317057,9.12275471 5.31948539,9.85984958 4.06895762,10.1230978 C2.87053517,10.3336963 1.88053402,10.5969445 1.4115861,11.1234408 C0.786322216,11.807886 0.525795597,12.7029298 0.473690274,13.8612218 C0.473690274,14.2297692 0.42158495,14.545667 0.42158495,14.8089152 C0.42158495,15.1774626 0.682111569,15.4407108 1.04684884,15.4407108 L15.4800235,15.4407108 C15.8447608,15.4407108 16.1052874,15.124813 16.1052874,14.8089152 C16.1052874,14.5983166 16.1052874,14.2824188 16.0531821,13.8612218 C15.8733214,12.4073056 16.1374459,12.1598887 15.1673916,11.0707912 Z M8.96685805,12.8608787 C9.01896338,13.0188276 9.01896338,13.2294262 8.91475273,13.3873751 L8.28948884,15.0721633 L7.61211963,13.3873751 C7.50790899,13.2294262 7.50790899,13.0188276 7.56001431,12.8608787 L8.02896222,11.3340393 C7.87264625,11.3340393 7.7684356,11.2287401 7.71633028,11.0707912 L7.56001431,10.5442948 C7.50790899,10.4389956 7.61211963,10.3336963 7.71633028,10.3336963 C7.71633028,10.3336963 7.82054093,10.4389956 8.28948884,10.4389956 C8.70633143,10.4389956 8.91475273,10.3336963 8.91475273,10.3336963 C9.01896338,10.3336963 9.0710687,10.4389956 9.0710687,10.5442948 L8.91475273,11.0707912 C8.8626474,11.2287401 8.75843676,11.3340393 8.60212078,11.3340393 L8.96685805,12.8608787 Z" id="形状"></path>
                    </g>
                </g>
            </g>
        </g>
    </g>
</svg>