<?xml version="1.0" encoding="UTF-8"?>
<svg width="17px" height="17px" viewBox="0 0 17 17" version="1.1" xmlns="http://www.w3.org/2000/svg" xmlns:xlink="http://www.w3.org/1999/xlink">
    <!-- Generator: Sketch 55.2 (78181) - https://sketchapp.com -->
    <title>日历_slice</title>
    <desc>Created with Sketch.</desc>
    <g id="页面1" stroke="none" stroke-width="1" fill="none" fill-rule="evenodd">
        <g id="画板" transform="translate(-328.000000, -91.000000)" fill="#8D8D8D" fill-rule="nonzero">
            <g id="日历" transform="translate(328.000000, 91.000000)">
                <path d="M4.87288714,7.46999084 C4.38584023,7.46999084 3.99131108,7.06139745 3.99131108,6.55690384 C3.99131108,6.05241022 4.38584023,5.64381684 4.87288714,5.64381684 C5.3600096,5.64381684 5.75451357,6.05243631 5.75451357,6.55690384 C5.75451357,7.06144962 5.3600096,7.46999084 4.87288714,7.46999084 Z M8.24337462,7.46999084 C7.75632772,7.46999084 7.36179857,7.06139745 7.36179857,6.55690384 C7.36179857,6.05241022 7.75632772,5.64381684 8.24337462,5.64381684 C8.73049709,5.64381684 9.12500105,6.05243631 9.12500105,6.55690384 C9.12502624,7.06144962 8.73049709,7.46999084 8.24337462,7.46999084 Z M11.5118231,7.46999084 C11.0247762,7.46999084 10.630247,7.06139745 10.630247,6.55690384 C10.630247,6.05241022 11.0247762,5.64381684 11.5118231,5.64381684 C11.9989455,5.64381684 12.3934495,6.05243631 12.3934495,6.55690384 C12.3934495,7.06144962 11.9989203,7.46999084 11.5118231,7.46999084 Z M4.87288714,12.1658668 C4.38584023,12.1658668 3.99131108,11.7572734 3.99131108,11.2527798 C3.99131108,10.7482862 4.38584023,10.3396928 4.87288714,10.3396928 C5.3600096,10.3396928 5.75451357,10.7483123 5.75451357,11.2527798 C5.75451357,11.7573256 5.3600096,12.1658668 4.87288714,12.1658668 Z M8.24337462,12.1658668 C7.75632772,12.1658668 7.36179857,11.7572734 7.36179857,11.2527798 C7.36179857,10.7482862 7.75630253,10.3396928 8.24337462,10.3396928 C8.73049709,10.3396928 9.12500105,10.7483123 9.12500105,11.2527798 C9.12502624,11.7573256 8.73049709,12.1658668 8.24337462,12.1658668 Z M11.5118231,12.1658668 C11.0247762,12.1658668 10.630247,11.7572734 10.630247,11.2527798 C10.630247,10.7482862 11.0247762,10.3396928 11.5118231,10.3396928 C11.9989455,10.3396928 12.3934495,10.7483123 12.3934495,11.2527798 C12.3934495,11.7573256 11.9989203,12.1658668 11.5118231,12.1658668 Z M4.40649489,-1.49213975e-13 L5.66592524,-1.49213975e-13 L5.66592524,3.130584 L4.40649489,3.130584 L4.40649489,-1.49213975e-13 Z M11.9504827,-1.49213975e-13 L11.9504827,3.130584 L10.6910523,3.130584 L10.6910523,-1.49213975e-13 L11.9504827,-1.49213975e-13 Z M6.42916521,1.07838184 L9.95557018,1.07838184 L9.95557018,2.38279184 L6.42916521,2.38279184 L6.42916521,1.07838184 Z M15.1131641,1.07838184 L12.7202465,1.07838184 L12.7202465,2.38279184 L14.609392,2.38279184 C14.8876254,2.38279184 15.1131641,2.61638558 15.1131641,2.90455584 L15.1131641,14.9051278 C15.1131641,15.1932981 14.8876254,15.4268918 14.609392,15.4268918 L1.76320248,15.4268918 C1.48496913,15.4268918 1.25943034,15.1932981 1.25943034,14.9051278 L1.25943034,2.90455584 C1.25943034,2.61638558 1.48496913,2.38279184 1.76320248,2.38279184 L3.66453929,2.38279184 L3.66453929,1.07838184 L1.25943034,1.07838184 C0.563872154,1.07838184 -1.59872116e-14,1.66239228 -1.59872116e-14,2.38279184 L-1.59872116e-14,15.4268918 C-1.59872116e-14,16.1472914 0.563872154,16.7313018 1.25943034,16.7313018 L15.1131641,16.7313018 C15.8087223,16.7313018 16.3725945,16.1472914 16.3725945,15.4268918 L16.3725945,2.38279184 C16.3725945,1.66239228 15.8087223,1.07838184 15.1131641,1.07838184 Z" id="形状"></path>
            </g>
        </g>
    </g>
</svg>