<?xml version="1.0" encoding="UTF-8"?>
<svg width="26px" height="23px" viewBox="0 0 26 23" version="1.1" xmlns="http://www.w3.org/2000/svg" xmlns:xlink="http://www.w3.org/1999/xlink">
    <!-- Generator: Sketch 55.2 (78181) - https://sketchapp.com -->
    <title>相机_slice</title>
    <desc>Created with Sketch.</desc>
    <g id="页面1" stroke="none" stroke-width="1" fill="none" fill-rule="evenodd">
        <g id="画板" transform="translate(-229.000000, -182.000000)" fill="#4D94FF" fill-rule="nonzero">
            <g id="相机" transform="translate(229.000000, 182.000000)">
                <g id="形状">
                    <path d="M23.739231,23 L2.26094467,23 C1.01229424,23 0,21.9702589 0,20.6999791 L0,5.17498731 C0,3.90470749 1.01226496,2.87499627 2.26094467,2.87499627 L7.06533132,2.87499627 L8.47828633,0.575005227 C8.47828633,0.257353142 9.29661801,0 9.60874402,0 L16.3913731,0 C16.7034113,0 17.5217722,0.257353142 17.5217722,0.575005227 L18.9348443,2.87499627 L23.7391724,2.87499627 C24.9878229,2.87499627 26,3.90470749 26,5.17498731 L26,20.700009 C26,21.970229 24.9878814,23 23.739231,23 Z M13.0000586,5.17498731 C8.94201054,5.17498731 5.65222992,8.52168318 5.65222992,12.6500553 C5.65222992,16.7784273 8.94198127,20.1250336 13.0000586,20.1250336 C17.0580187,20.1250336 20.3477115,16.7784871 20.3478872,12.6504136 L20.3478872,12.6497566 C20.3477115,8.52147412 17.058048,5.17498731 13.0000586,5.17498731 L13.0000586,5.17498731 Z M13.0000586,17.8250127 C10.1906317,17.8250127 7.91314531,15.5082072 7.91314531,12.6500851 C7.91314531,9.79199286 10.1906317,7.47503808 13.0000586,7.47503808 C15.8095147,7.47503808 18.0869718,9.79199286 18.0869718,12.6500851 C18.0869718,15.5081774 15.8095147,17.8250127 13.0000586,17.8250127 Z"></path>
                </g>
            </g>
        </g>
    </g>
</svg>