<?xml version="1.0" encoding="UTF-8"?>
<svg width="85px" height="85px" viewBox="0 0 85 85" version="1.1" xmlns="http://www.w3.org/2000/svg" xmlns:xlink="http://www.w3.org/1999/xlink">
    <!-- Generator: Sketch 55.2 (78181) - https://sketchapp.com -->
    <title>是否撤销监管合格证_slice</title>
    <desc>Created with Sketch.</desc>
    <defs>
        <radialGradient cx="13.1486948%" cy="9.61685177%" fx="13.1486948%" fy="9.61685177%" r="141.066056%" gradientTransform="translate(0.131487,0.096169),scale(1.000000,0.813093),rotate(51.998779),translate(-0.131487,-0.096169)" id="radialGradient-1">
            <stop stop-color="#FFB900" offset="0%"></stop>
            <stop stop-color="#FFA200" offset="43.0482718%"></stop>
            <stop stop-color="#FF8500" offset="100%"></stop>
        </radialGradient>
        <path d="M80.5866243,23.6205892 C80.9375531,24.327226 80.6491948,25.1845523 79.942558,25.5354811 C79.2359212,25.88641 78.3785949,25.5980517 78.027666,24.8914148 C75.716478,20.2375635 72.5050129,16.0776681 68.5937128,12.655082 C67.9999612,12.1355192 67.9398192,11.2329994 68.4593821,10.6392477 C68.978945,10.045496 69.8814647,9.98535411 70.4752164,10.504917 C74.6669238,14.1728737 78.1088428,18.6312821 80.5866243,23.6205892 Z" id="path-2"></path>
        <filter x="-39.6%" y="-19.3%" width="179.2%" height="177.3%" filterUnits="objectBoundingBox" id="filter-3">
            <feOffset dx="0" dy="4" in="SourceAlpha" result="shadowOffsetOuter1"></feOffset>
            <feGaussianBlur stdDeviation="1" in="shadowOffsetOuter1" result="shadowBlurOuter1"></feGaussianBlur>
            <feColorMatrix values="0 0 0 0 0   0 0 0 0 0   0 0 0 0 0  0 0 0 0.05 0" type="matrix" in="shadowBlurOuter1"></feColorMatrix>
        </filter>
    </defs>
    <g id="页面1" stroke="none" stroke-width="1" fill="none" fill-rule="evenodd">
        <g id="画板" transform="translate(-115.000000, -40.000000)">
            <g id="是否撤销监管合格证" transform="translate(115.000000, 40.000000)">
                <g id="编组-2">
                    <g id="编组-3" transform="translate(-0.000000, -0.000000)">
                        <path d="M13.7281657,11.2197956 C9.98775203,17.944554 7.85714286,25.6877475 7.85714286,33.9285714 C7.85714286,59.7676079 28.8038206,80.7142857 54.6428571,80.7142857 C57.2745046,80.7142857 59.8554038,80.4970066 62.3685939,80.0794092 C56.4392678,83.2208099 49.67741,85 42.5,85 C19.0278981,85 -3.19744231e-14,65.9721019 -3.19744231e-14,42.5 C-3.19744231e-14,30.1258608 5.28830934,18.9868724 13.7281638,11.219799 Z" id="形状结合" fill="#EEEFFC"></path>
                        <path d="M62.7821867,5.14296595 C63.4752392,5.52001334 63.7314121,6.38750078 63.3543647,7.08055336 C62.9773173,7.77360594 62.1098298,8.02977876 61.4167773,7.65273136 C55.6602737,4.52097089 49.2020579,2.85714286 42.5,2.85714286 C20.6058546,2.85714286 2.85714286,20.6058546 2.85714286,42.5 C2.85714286,64.3941454 20.6058546,82.1428571 42.5,82.1428571 C64.3941454,82.1428571 82.1428571,64.3941454 82.1428571,42.5 C82.1428571,39.4024208 81.7878567,36.3522751 81.0916789,33.3910429 C80.911115,32.6230043 81.3873574,31.85401 82.155396,31.6734462 C82.9234346,31.4928823 83.6924289,31.9691247 83.8729927,32.7371634 C84.6194638,35.9123205 85,39.1818685 85,42.5 C85,65.9721019 65.9721019,85 42.5,85 C19.0278981,85 5.68434189e-14,65.9721019 5.68434189e-14,42.5 C5.68434189e-14,19.0278981 19.0278981,2.13162821e-14 42.5,2.13162821e-14 C49.6820562,2.13162821e-14 56.6092531,1.78465148 62.7821867,5.14296595 Z" id="形状" fill="#0579FF" fill-rule="nonzero"></path>
                        <g id="形状">
                            <use fill="black" fill-opacity="1" filter="url(#filter-3)" xlink:href="#path-2"></use>
                            <use fill="url(#radialGradient-1)" fill-rule="evenodd" xlink:href="#path-2"></use>
                        </g>
                        <path d="M65.0949721,43.5547795 L46.7953752,43.5547795 L51.158515,47.9174369 C51.3962254,48.1531316 51.6568481,48.6289105 51.6568481,49.056628 C51.6568481,49.4843455 51.5150805,49.842277 51.158515,50.1958191 C50.8415206,50.5101256 50.4346915,50.6645833 50.0292222,50.6645833 C49.6237528,50.6645833 49.2169238,50.5101256 48.8983896,50.1942874 L41.7546266,43.0646518 C41.1160524,41.935492 41.3919939,41.6976946 41.4317247,41.4051436 L48.8999293,33.8128747 C49.2195802,33.4959342 49.6319006,33.3354167 50.0400264,33.3354167 C50.4467996,33.3354167 50.8542967,33.4919404 51.1725977,33.8272675 C51.4833829,34.1546768 51.6336422,34.5699717 51.6336422,34.9635703 C51.6336422,35.3890354 51.4622188,35.7880791 51.1398681,36.0639801 L46.7906512,40.4309051 L65.0949721,40.4309051 C65.5169401,40.4309051 65.9110277,40.606345 66.1981584,40.891041 C66.487381,41.1778112 66.6645833,41.5717099 66.6645833,41.9928423 C66.6645833,42.4183368 66.4901259,42.8138304 66.2011705,43.1003356 C65.920381,43.3787442 65.5324367,43.5547795 65.0949721,43.5547795 Z M57.9422875,56.8098361 L57.9422875,50.3377049 C57.9422875,49.3278689 57.1804827,48.5704918 56.1647429,48.5704918 C55.1490031,48.5704918 54.3871983,49.3278689 54.3871983,50.3377049 L54.3871983,56.3967213 L28.4165792,56.3967213 L28.4165792,28.5344262 L54.4564533,28.5344262 L54.4564533,33.904918 C54.4564533,34.9147541 55.2182581,35.6721311 56.2339979,35.6721311 C57.2497377,35.6721311 58.0115425,34.9147541 58.0115425,33.904918 L58.0115425,28.1901639 C58.0115425,26.4229508 56.5802728,25 54.8027282,25 L28.2088143,25 C26.4312697,25 25,26.4229508 25,28.1901639 L25,56.8098361 C25,58.5770492 26.4312697,60 28.2088143,60 L54.7565582,60 C56.5110178,59.9770492 57.9422875,58.5770492 57.9422875,56.8098361 Z" id="形状" fill="#FF8500" fill-rule="nonzero"></path>
                    </g>
                </g>
            </g>
        </g>
    </g>
</svg>