<?xml version="1.0" encoding="UTF-8"?>
<svg width="65px" height="65px" viewBox="0 0 65 65" version="1.1" xmlns="http://www.w3.org/2000/svg" xmlns:xlink="http://www.w3.org/1999/xlink">
    <!-- Generator: Sketch 55.2 (78181) - https://sketchapp.com -->
    <title>车辆查看_slice</title>
    <desc>Created with Sketch.</desc>
    <g id="页面1" stroke="none" stroke-width="1" fill="none" fill-rule="evenodd">
        <g id="画板" transform="translate(-12.000000, 0.000000)">
            <g id="车辆查看" transform="translate(12.000000, 0.000000)">
                <path d="M64.3387372,55.3387372 C61.5995534,61.0535824 55.7606443,65 49,65 L17,65 C7.61115925,65 1.14980138e-15,57.3888407 0,48 L0,16 C-8.27940142e-16,9.23935568 3.9464176,3.40044658 9.66126276,0.661262759 C8.59640669,2.88290539 8,5.37180357 8,8 L8,40 C8,49.3888407 15.6111593,57 25,57 L57,57 C59.6281964,57 62.1170946,56.4035933 64.3387372,55.3387372 Z" id="形状结合" fill="#EEEFFC"></path>
                <path d="M65,25.4421387 L65,52 C65,59.1797017 59.1797017,65 52,65 L13,65 C5.82029825,65 0,59.1797017 0,52 L0,13 C0,5.82029825 5.82029825,0 13,0 L13,0 L40.759073,0" id="形状" stroke="#0579FF" stroke-width="3" stroke-linecap="round"></path>
                <path d="M46,0 L51.4786028,0 C58.9462643,0 65,5.68745129 65,12.703278 L65,19" id="路径" stroke="#8EDC86" stroke-width="3" stroke-linecap="round"></path>
                <path d="M48.9659828,44.9556699 C48.5205794,46.7162578 46.9401038,48 45.0698891,48 C43.3337602,48 41.8550408,46.9088809 41.2922757,45.3362253 L25.708987,45.3362253 C25.146193,46.9100811 23.6663261,48 21.9301429,48 C20.0599173,48 18.4818489,46.7162578 18.0352076,44.9556699 C16.0907119,44.1558255 14.8515124,42.1814652 15.0143187,39.9898171 L15.3962683,34.891302 C15.5459219,32.8558624 16.8522038,31.0565233 18.723653,30.2179384 L20.4047373,22.2700244 C21.0201687,19.3643186 23.9237067,17 26.8787274,17 L40.1224558,17 C43.0774837,17 45.9810217,19.3631255 46.5952151,22.2700244 L48.2762994,30.2179384 C50.1477485,31.0565197 51.4540289,32.8558801 51.604904,34.891302 L51.9856699,39.9898171 C52.1484736,42.1815043 50.9104604,44.155861 48.9659647,44.9556699 L48.9659647,44.9556699 L48.9659828,44.9556699 Z M49.3491559,35.0616041 C49.2498066,33.7379283 48.2572043,32.5364182 46.9329183,32.1394362 C46.4994788,32.00906 46.1845776,31.6320313 46.1319003,31.1810185 C46.1235286,31.1164479 46.1187501,31.053004 46.1151569,30.9907592 C46.1127491,30.9578744 46.1127491,30.9238269 46.1055999,30.889743 L44.383842,22.7445045 C43.9851104,20.8641512 42.0334654,19.2750335 40.1225337,19.2750335 L26.8787329,19.2750335 C24.966574,19.2750335 23.0161236,20.8641476 22.6174246,22.7445045 L20.8944468,30.8909148 C20.8872605,30.9214377 20.8872605,30.9555216 20.8848897,30.9895692 C20.8801112,31.0541761 20.8753327,31.119982 20.8681463,31.1845523 C20.8142858,31.6355651 20.5005317,32.0102331 20.0683157,32.1406086 C18.7428822,32.536426 17.7490922,33.7379005 17.6509306,35.0627765 L17.2701285,40.1613271 C17.1683346,41.517888 18.0028746,42.677103 19.299602,42.9789524 C19.7905332,43.0952301 20.1473315,43.5251298 20.1724828,44.0325383 C20.219194,44.9827072 20.9914665,45.7261239 21.930172,45.7261239 C22.8473173,45.7261239 23.5992527,45.0273316 23.6806757,44.0994731 C23.7333508,43.5133976 24.2218732,43.0635495 24.8073751,43.0635495 L42.1926646,43.0635495 C42.7781664,43.0635495 43.2690578,43.5133976 43.3193639,44.0994731 C43.4007845,45.0273316 44.1527187,45.7261239 45.0698676,45.7261239 C46.0085732,45.7261239 46.7808453,44.9815105 46.8275568,44.0325383 C46.8538944,43.5227684 47.2106938,43.0940696 47.7016213,42.9789524 C48.9971253,42.677103 49.8317036,41.5166878 49.7286876,40.1601269 L49.3491453,35.0616118 L49.3491453,35.0616118 L49.3491559,35.0616041 Z M45.3835958,39.5764192 C44.9094466,40.0521038 44.2449326,40.3292814 43.575604,40.3292814 C42.9062755,40.3292814 42.2417615,40.0520683 41.768796,39.5764192 C41.2958667,39.1007346 41.0204914,38.432466 41.0204914,37.7594711 C41.0204914,37.0864762 41.2958689,36.4170109 41.768796,35.9413263 C42.2417615,35.4656418 42.9062755,35.1884642 43.575604,35.1884642 C44.2449326,35.1884642 44.9094466,35.4656773 45.3835958,35.9413263 C45.8565251,36.4170109 46.1319003,37.0864798 46.1319003,37.7594711 C46.1319003,38.432466 45.8565229,39.1007346 45.3835958,39.5764192 L45.3835958,39.5764192 Z M43.2140274,30.8674369 C42.9925105,31.1364016 42.6320839,31.2926132 42.2118681,31.2926132 L24.7870128,31.2926132 C24.3679444,31.2926132 24.0075189,31.1364016 23.7704787,30.8509748 C23.5442205,30.5890594 23.4472049,30.2085036 23.5106594,29.7962633 C23.5166603,29.768066 23.5214389,29.7410678 23.5274398,29.7140333 L24.8959903,23.7322628 C25.0683883,22.7879422 25.9975384,22.0010338 26.9530223,22.0010338 L40.0458721,22.0010338 C41.0013597,22.0010338 41.930505,22.7902681 42.1017204,23.7322628 L43.4702709,29.7152051 C43.4774572,29.7422033 43.4822358,29.769238 43.4870143,29.7974351 C43.5492836,30.2096754 43.4534905,30.5902309 43.2140448,30.8674085 L43.2140448,30.8674085 L43.2140274,30.8674369 Z M39.9081668,24.2749439 L27.0942688,24.2749439 L26.008319,29.0176215 L40.99298,29.0176215 L39.9081777,24.2749439 L39.9081777,24.2749439 L39.9081668,24.2749439 Z M25.2324306,39.5764192 C24.7594651,40.0521038 24.0949511,40.3292814 23.4256225,40.3292814 C22.7563302,40.3292814 22.0918161,40.0520683 21.6188507,39.5764192 C21.1447015,39.1007346 20.8693226,38.432466 20.8693226,37.7594711 C20.8693226,37.0864762 21.1447,36.4170109 21.6188507,35.9413263 C22.0918161,35.4656418 22.7563302,35.1884642 23.4256225,35.1884642 C24.0949511,35.1884642 24.7594651,35.4656773 25.2324306,35.9413263 C25.7065798,36.4170109 25.9819587,37.0864798 25.9819587,37.7594711 C25.9819587,38.432466 25.7065812,39.1007346 25.2324306,39.5764192 L25.2324306,39.5764192 Z" id="形状" fill="#8EDC86" fill-rule="nonzero"></path>
            </g>
        </g>
    </g>
</svg>