<?xml version="1.0" encoding="UTF-8"?>
<svg width="18px" height="14px" viewBox="0 0 18 14" version="1.1" xmlns="http://www.w3.org/2000/svg" xmlns:xlink="http://www.w3.org/1999/xlink">
    <!-- Generator: Sketch 55.2 (78181) - https://sketchapp.com -->
    <title>汽车_slice</title>
    <desc>Created with Sketch.</desc>
    <g id="页面1" stroke="none" stroke-width="1" fill="none" fill-rule="evenodd">
        <g id="画板" transform="translate(-187.000000, -388.000000)" fill="#79B1FF" fill-rule="nonzero">
            <g id="汽车" transform="translate(187.387571, 388.258293)">
                <path d="M17.5091073,3.96666981 L15.8318323,3.96666981 C15.7500141,3.96666981 15.6681958,4.0055587 15.627286,4.0055587 L14.850012,1.82778294 C14.6045578,0.583337506 13.7045568,-2.39808173e-14 12.559105,-2.39808173e-14 L5.40000101,-2.39808173e-14 C4.09090906,-2.39808173e-14 3.31363335,0.816667161 3.10909405,1.82778294 L2.3318201,4.0055587 C2.25000192,3.96666981 2.16818356,3.92778092 2.0863659,3.92778075 L0.450000524,3.92778075 C0.204546332,3.92778075 4.61852778e-14,4.12222603 4.61852778e-14,4.35555903 L4.61852778e-14,4.74444791 C4.61852778e-14,4.97778091 0.204546332,5.17222619 0.450000524,5.17222619 L1.10454738,5.28889302 C0.900001047,5.67778191 0.777273951,6.10556018 0.777273951,6.57222785 L0.531819759,9.1388975 L0.531819759,12.6000081 C0.531819759,13.0277864 0.900002805,13.3777875 1.35000333,13.3777875 L2.61818742,13.3777875 C3.06818795,13.3777875 3.43637099,13.0277864 3.43637099,12.6000081 L3.43637099,11.7055621 L14.4409229,11.7055621 L14.4409229,12.7166746 C14.4409229,13.1444529 14.8091059,13.494454 15.2591064,13.494454 L16.5272905,13.494454 C16.977291,13.494454 17.3454741,13.1444529 17.3454741,12.7166746 L17.3454741,9.64444119 L17.3454741,9.48888547 L17.3454741,9.25555247 L17.2227466,6.64999844 C17.2227466,6.14444306 17.1000192,5.71666478 16.8954732,5.32777422 L17.5091105,5.21110739 C17.7545646,5.21110739 17.959111,5.01666211 17.959111,4.78332912 L17.959111,4.39444023 C17.959111,4.16110723 17.7545646,3.96666196 17.5091105,3.96666196 L17.5091073,3.96666981 Z M3.68182167,3.50000214 L4.25454929,2.10000082 L4.25454929,2.06111193 C4.29545838,1.78888954 4.41818582,1.71111076 4.62273233,1.51666716 L13.3772816,1.51666716 C13.5818279,1.75000015 13.6636454,1.78888954 13.7454646,2.06111193 L14.3181922,3.50000264 L14.5227386,4.27778209 C14.4818295,4.86111625 13.7454646,5.28889453 13.1318274,5.28889453 L4.86818301,5.28889453 C4.25454577,5.28889453 3.51818144,4.82222686 3.47727182,4.27778209 L3.68181815,3.50000264 L3.68182167,3.50000214 Z M4.09091257,10.2277847 C3.39545786,10.2277847 2.82272848,9.68333994 2.82272848,9.02222699 C2.82272848,8.36111572 3.3954561,7.81666928 4.09091257,7.81666928 C4.78636729,7.81666928 5.35909667,8.36111405 5.35909667,9.02222699 C5.35909667,9.68333827 4.78636905,10.2277847 4.09091257,10.2277847 L4.09091257,10.2277847 Z M11.1681903,9.33333877 C11.1681903,9.52778405 11.0045538,9.68333994 10.8000073,9.68333994 L7.24090745,9.68333994 C7.03636112,9.68333994 6.8727244,9.52778422 6.8727244,9.33333877 L6.8727244,8.32222633 C6.8727244,8.12778105 7.03636094,7.97222516 7.24090745,7.97222516 L10.8000073,7.97222516 C11.0045536,7.97222516 11.1681903,8.12778089 11.1681903,8.32222633 L11.1681903,9.33333877 Z M13.8681935,10.2277847 C13.1727388,10.2277847 12.6000094,9.68333994 12.6000094,9.02222699 C12.6000094,8.36111572 13.172737,7.81666928 13.8681935,7.81666928 C14.5636482,7.81666928 15.1363776,8.36111405 15.1363776,9.02222699 C15.1772867,9.68333827 14.6045596,10.2277847 13.8681935,10.2277847 Z" id="形状"></path>
            </g>
        </g>
    </g>
</svg>