<?xml version="1.0" encoding="UTF-8"?>
<svg width="40px" height="49px" viewBox="0 0 40 49" version="1.1" xmlns="http://www.w3.org/2000/svg" xmlns:xlink="http://www.w3.org/1999/xlink">
    <!-- Generator: Sketch 57.1 (83088) - https://sketch.com -->
    <title>车库定位图标</title>
    <desc>Created with Sketch.</desc>
    <g id="页面1" stroke="none" stroke-width="1" fill="none" fill-rule="evenodd">
        <g id="配置" transform="translate(-114.000000, -484.000000)" fill="#589EFF" fill-rule="nonzero">
            <g id="车库定位图标" transform="translate(114.000000, 484.000000)">
                <g id="weifagaofadi">
                    <path d="M19.9375232,-7.10542736e-14 C8.9267682,-7.10542736e-14 -1.42108547e-14,8.5830178 -1.42108547e-14,19.1694559 C-1.42108547e-14,36.9907657 19.9375232,48.125056 19.9375232,48.125056 C19.9375232,48.125056 39.8750464,35.4653733 39.8750464,19.1694559 C39.8750464,8.5830178 30.9482782,-7.10542736e-14 19.9375232,-7.10542736e-14 Z M19.9375232,35.7500416 C11.2041146,35.7500416 4.1250048,28.6709318 4.1250048,19.9375232 C4.1250048,11.2041146 11.2041146,4.1250048 19.9375232,4.1250048 C28.6709318,4.1250048 35.7500416,11.2041146 35.7500416,19.9375232 C35.7500416,28.6709318 28.6709318,35.7500416 19.9375232,35.7500416 Z" id="形状"></path>
                </g>
                <path d="M21.0675381,10 C21.416122,10.5585392 21.7429194,11.2030075 22.0697168,11.9119227 L29.8039216,11.9119227 L29.8039216,13.9097744 L13.8344227,13.9097744 L13.8344227,18.528464 C13.7690632,23.2975295 13.0718954,27.0998926 11.7211329,29.9785177 L10,28.453276 C11.1111111,26.0687433 11.6993464,22.7604726 11.7429194,18.528464 L11.7429194,11.9119227 L19.7603486,11.9119227 C19.4553377,11.3533835 19.1067538,10.8592911 18.7581699,10.386681 L21.0675381,10 Z M19.1285403,14.2105263 L21.1111111,14.6616541 C20.9368192,15.1557465 20.7843137,15.6283566 20.6318083,16.0794844 L28.8453159,16.0794844 L28.8453159,17.8625134 L19.9346405,17.8625134 C19.4117647,19.0655209 18.8453159,20.1611171 18.2352941,21.1278195 L21.6122004,21.1278195 L21.6122004,18.7647691 L23.6601307,18.7647691 L23.6601307,21.1278195 L28.3660131,21.1278195 L28.3660131,22.9538131 L23.6601307,22.9538131 L23.6601307,24.887218 L30,24.887218 L30,26.7346939 L23.6601307,26.7346939 L23.6601307,30 L21.6122004,30 L21.6122004,26.7346939 L13.9869281,26.7346939 L13.9869281,24.887218 L21.6122004,24.887218 L21.6122004,22.9538131 L16.1437908,22.9538131 L15.708061,21.1707841 C16.4270153,20.2900107 17.1023965,19.1944146 17.7124183,17.8625134 L14.7930283,17.8625134 L14.7930283,16.0794844 L18.4749455,16.0794844 C18.6928105,15.4779807 18.9106754,14.8549946 19.1285403,14.2105263 Z" id="库"></path>
            </g>
        </g>
    </g>
</svg>