<?xml version="1.0" encoding="UTF-8"?>
<svg width="69px" height="69px" viewBox="0 0 69 69" version="1.1" xmlns="http://www.w3.org/2000/svg" xmlns:xlink="http://www.w3.org/1999/xlink">
    <!-- Generator: Sketch 55.2 (78181) - https://sketchapp.com -->
    <title>编组 2</title>
    <desc>Created with Sketch.</desc>
    <g id="页面1" stroke="none" stroke-width="1" fill="none" fill-rule="evenodd">
        <g id="编组-2" transform="translate(2.000000, 2.000000)">
            <path d="M64.3387372,55.3387372 C61.5995534,61.0535824 55.7606443,65 49,65 L17,65 C7.61115925,65 1.14980138e-15,57.3888407 0,48 L0,16 C-8.27940142e-16,9.23935568 3.9464176,3.40044658 9.66126276,0.661262759 C8.59640669,2.88290539 8,5.37180357 8,8 L8,40 C8,49.3888407 15.6111593,57 25,57 L57,57 C59.6281964,57 62.1170946,56.4035933 64.3387372,55.3387372 Z" id="形状结合" fill="#EEEFFC"></path>
            <path d="M65,25.4421387 L65,52 C65,59.1797017 59.1797017,65 52,65 L13,65 C5.82029825,65 0,59.1797017 0,52 L0,13 C0,5.82029825 5.82029825,0 13,0 L13,0 L40.759073,0" id="形状" stroke="#0579FF" stroke-width="3" stroke-linecap="round"></path>
            <path d="M46,0 L51.4786028,0 C58.9462643,0 65,5.68745129 65,12.703278 L65,19" id="路径" stroke="#8EDC86" stroke-width="3" stroke-linecap="round"></path>
            <g id="车辆" transform="translate(15.000000, 17.000000)" fill="#8EDC86" fill-rule="nonzero">
                <path d="M33.9659828,27.9556699 C33.5205794,29.7162578 31.9401038,31 30.0698891,31 C28.3337602,31 26.8550408,29.9088809 26.2922757,28.3362253 L10.708987,28.3362253 C10.146193,29.9100811 8.6663261,31 6.93014287,31 C5.05991727,31 3.48184893,29.7162578 3.03520758,27.9556699 C1.09071189,27.1558255 -0.148487635,25.1814652 0.0143186841,22.9898171 L0.396268281,17.891302 C0.545921948,15.8558624 1.85220383,14.0565233 3.72365296,13.2179384 L5.40473725,5.27002443 C6.02016867,2.36431861 8.92370669,0 11.8787274,0 L25.1224558,0 C28.0774837,0 30.9810217,2.3631255 31.5952151,5.27002443 L33.2762994,13.2179384 C35.1477485,14.0565197 36.4540289,15.8558801 36.604904,17.891302 L36.9856699,22.9898171 C37.1484736,25.1815043 35.9104604,27.155861 33.9659647,27.9556699 L33.9659647,27.9556699 L33.9659828,27.9556699 Z M34.3491559,18.0616041 C34.2498066,16.7379283 33.2572043,15.5364182 31.9329183,15.1394362 C31.4994788,15.00906 31.1845776,14.6320313 31.1319003,14.1810185 C31.1235286,14.1164479 31.1187501,14.053004 31.1151569,13.9907592 C31.1127491,13.9578744 31.1127491,13.9238269 31.1055999,13.889743 L29.383842,5.74450453 C28.9851104,3.86415123 27.0334654,2.27503354 25.1225337,2.27503354 L11.8787329,2.27503354 C9.96657403,2.27503354 8.01612357,3.86414761 7.61742456,5.74450446 L5.89444682,13.8909148 C5.8872605,13.9214377 5.8872605,13.9555216 5.88488974,13.9895692 C5.88011122,14.0541761 5.87533266,14.119982 5.86814634,14.1845523 C5.81428577,14.6355651 5.50053166,15.0102331 5.06831573,15.1406086 C3.74288224,15.536426 2.7490922,16.7379005 2.65093058,18.0627765 L2.2701285,23.1613271 C2.16833464,24.517888 3.00287458,25.677103 4.29960203,25.9789524 C4.79053321,26.0952301 5.14733154,26.5251298 5.17248281,27.0325383 C5.21919402,27.9827072 5.99146647,28.7261239 6.93017204,28.7261239 C7.84731732,28.7261239 8.59925265,28.0273316 8.68067572,27.0994731 C8.73335076,26.5133976 9.22187324,26.0635495 9.80737508,26.0635495 L27.1926646,26.0635495 C27.7781664,26.0635495 28.2690578,26.5133976 28.3193639,27.0994731 C28.4007845,28.0273316 29.1527187,28.7261239 30.0698676,28.7261239 C31.0085732,28.7261239 31.7808453,27.9815105 31.8275568,27.0325383 C31.8538944,26.5227684 32.2106938,26.0940696 32.7016213,25.9789524 C33.9971253,25.677103 34.8317036,24.5166878 34.7286876,23.1601269 L34.3491453,18.0616118 L34.3491453,18.0616118 L34.3491559,18.0616041 Z M30.3835958,22.5764192 C29.9094466,23.0521038 29.2449326,23.3292814 28.575604,23.3292814 C27.9062755,23.3292814 27.2417615,23.0520683 26.768796,22.5764192 C26.2958667,22.1007346 26.0204914,21.432466 26.0204914,20.7594711 C26.0204914,20.0864762 26.2958689,19.4170109 26.768796,18.9413263 C27.2417615,18.4656418 27.9062755,18.1884642 28.575604,18.1884642 C29.2449326,18.1884642 29.9094466,18.4656773 30.3835958,18.9413263 C30.8565251,19.4170109 31.1319003,20.0864798 31.1319003,20.7594711 C31.1319003,21.432466 30.8565229,22.1007346 30.3835958,22.5764192 L30.3835958,22.5764192 Z M28.2140274,13.8674369 C27.9925105,14.1364016 27.6320839,14.2926132 27.2118681,14.2926132 L9.78701276,14.2926132 C9.36794441,14.2926132 9.00751892,14.1364016 8.77047871,13.8509748 C8.54422046,13.5890594 8.44720491,13.2085036 8.51065937,12.7962633 C8.51666034,12.768066 8.52143887,12.7410678 8.52743984,12.7140333 L9.8959903,6.73226277 C10.0683883,5.7879422 10.9975384,5.00103384 11.9530223,5.00103384 L25.0458721,5.00103384 C26.0013597,5.00103384 26.930505,5.79026806 27.1017204,6.73226277 L28.4702709,12.7152051 C28.4774572,12.7422033 28.4822358,12.769238 28.4870143,12.7974351 C28.5492836,13.2096754 28.4534905,13.5902309 28.2140448,13.8674085 L28.2140448,13.8674085 L28.2140274,13.8674369 Z M24.9081668,7.27494394 L12.0942688,7.27494394 L11.008319,12.0176215 L25.99298,12.0176215 L24.9081777,7.27494394 L24.9081777,7.27494394 L24.9081668,7.27494394 Z M10.2324306,22.5764192 C9.7594651,23.0521038 9.09495107,23.3292814 8.42562253,23.3292814 C7.75633018,23.3292814 7.09181615,23.0520683 6.61885067,22.5764192 C6.14470148,22.1007346 5.8693226,21.432466 5.8693226,20.7594711 C5.8693226,20.0864762 6.14470003,19.4170109 6.61885067,18.9413263 C7.09181615,18.4656418 7.75633018,18.1884642 8.42562253,18.1884642 C9.09495107,18.1884642 9.7594651,18.4656773 10.2324306,18.9413263 C10.7065798,19.4170109 10.9819587,20.0864798 10.9819587,20.7594711 C10.9819587,21.432466 10.7065812,22.1007346 10.2324306,22.5764192 L10.2324306,22.5764192 Z" id="形状"></path>
            </g>
        </g>
    </g>
</svg>