<?xml version="1.0" encoding="UTF-8"?>
<svg width="47px" height="45px" viewBox="0 0 47 45" version="1.1" xmlns="http://www.w3.org/2000/svg" xmlns:xlink="http://www.w3.org/1999/xlink">
    <!-- Generator: Sketch 55.2 (78181) - https://sketchapp.com -->
    <title>已停用_slice</title>
    <desc>Created with Sketch.</desc>
    <defs>
        <linearGradient x1="50%" y1="2.18108922%" x2="50%" y2="100.850367%" id="linearGradient-1">
            <stop stop-color="#B5C4E2" offset="0.0950168919%"></stop>
            <stop stop-color="#94A6B9" offset="51.2395893%"></stop>
            <stop stop-color="#98A7B5" offset="100%"></stop>
        </linearGradient>
        <path d="M26.621859,1.77635684e-15 L47,19.450741 L47,44.0660666 L0.832889008,7.10542736e-15 L26.621859,0 Z" id="path-2"></path>
        <filter x="-19.5%" y="-11.3%" width="139.0%" height="145.4%" filterUnits="objectBoundingBox" id="filter-3">
            <feOffset dx="0" dy="6" in="SourceAlpha" result="shadowOffsetOuter1"></feOffset>
            <feGaussianBlur stdDeviation="2" in="shadowOffsetOuter1" result="shadowBlurOuter1"></feGaussianBlur>
            <feColorMatrix values="0 0 0 0 0   0 0 0 0 0   0 0 0 0 0  0 0 0 0.06 0" type="matrix" in="shadowBlurOuter1"></feColorMatrix>
        </filter>
    </defs>
    <g id="页面1" stroke="none" stroke-width="1" fill="none" fill-rule="evenodd">
        <g id="画板" transform="translate(-313.000000, -528.000000)">
            <g id="已停用" transform="translate(313.000000, 528.000000)">
                <g id="形状结合备份-3">
                    <use fill="black" fill-opacity="1" filter="url(#filter-3)" xlink:href="#path-2"></use>
                    <use fill="url(#linearGradient-1)" fill-rule="evenodd" xlink:href="#path-2"></use>
                </g>
                <path d="M26.104,16.848 L21.168,16.848 L21.168,18.984 C21.168,19.272 21.312,19.416 21.6,19.416 L25.576,19.416 C25.704,19.416 25.824,19.368 25.936,19.272 C26.048,19.16 26.12,18.688 26.168,17.872 L26.984,18.128 C26.88,19.152 26.744,19.752 26.584,19.928 C26.392,20.104 26.128,20.2 25.808,20.216 L21.36,20.216 C20.672,20.216 20.336,19.856 20.336,19.136 L20.336,14.992 L21.168,14.992 L21.168,16.048 L25.256,16.048 L25.256,14.224 L20,14.224 L20,13.424 L26.104,13.424 L26.104,16.848 Z M29.128,13 L29.904,13.376 L29.824,13.64 L31.72,13.64 C31.656,13.464 31.592,13.304 31.52,13.152 L32.368,13.008 C32.432,13.2 32.496,13.408 32.56,13.64 L34.776,13.64 L34.776,14.376 L29.792,14.376 L29.792,13.736 C29.64,14.184 29.456,14.608 29.248,15.024 L29.248,20.488 L28.408,20.488 L28.408,16.376 C28.224,16.624 28.032,16.864 27.832,17.096 L27.552,16.2 C28.256,15.296 28.784,14.232 29.128,13 Z M30.256,14.68 L34.192,14.68 L34.192,16.312 L30.256,16.312 L30.256,14.68 Z M33.384,15.704 L33.384,15.296 L31.072,15.296 L31.072,15.704 L33.384,15.704 Z M34.824,16.624 L34.824,18.128 L34.352,18.128 L34.352,18.584 L32.728,18.584 L32.728,19.64 C32.728,20.152 32.448,20.416 31.888,20.416 L31,20.416 L30.816,19.608 C31.088,19.64 31.352,19.656 31.6,19.656 C31.784,19.656 31.88,19.576 31.88,19.432 L31.88,18.584 L30.232,18.584 L30.232,18.128 L29.664,18.128 L29.664,16.624 L34.824,16.624 Z M30.464,17.872 L34.024,17.872 L34.024,17.344 L30.464,17.344 L30.464,17.872 Z M37.176,16.024 L37.176,17.176 L38.936,17.176 L38.936,16.024 L37.176,16.024 Z M37.136,17.944 C37.032,18.936 36.736,19.768 36.248,20.424 L35.608,19.848 C36.08,19.176 36.32,18.32 36.336,17.28 L36.336,13.32 L42.536,13.32 L42.536,19.36 C42.536,19.976 42.216,20.288 41.584,20.288 L40.664,20.288 L40.44,19.472 C40.76,19.504 41.048,19.52 41.32,19.52 C41.56,19.52 41.688,19.36 41.688,19.056 L41.688,17.944 L39.784,17.944 L39.784,20.2 L38.936,20.2 L38.936,17.944 L37.136,17.944 Z M41.688,17.176 L41.688,16.024 L39.784,16.024 L39.784,17.176 L41.688,17.176 Z M41.688,15.256 L41.688,14.136 L39.784,14.136 L39.784,15.256 L41.688,15.256 Z M38.936,14.136 L37.176,14.136 L37.176,15.256 L38.936,15.256 L38.936,14.136 Z" fill="#FFFFFF" fill-rule="nonzero" transform="translate(31.268000, 16.744000) rotate(-315.000000) translate(-31.268000, -16.744000) "></path>
            </g>
        </g>
    </g>
</svg>