<?xml version="1.0" encoding="UTF-8"?>
<svg width="17px" height="17px" viewBox="0 0 17 17" version="1.1" xmlns="http://www.w3.org/2000/svg" xmlns:xlink="http://www.w3.org/1999/xlink">
    <!-- Generator: Sketch 55.2 (78181) - https://sketchapp.com -->
    <title>修改_slice</title>
    <desc>Created with Sketch.</desc>
    <g id="页面1" stroke="none" stroke-width="1" fill="none" fill-rule="evenodd">
        <g id="画板" transform="translate(-20.000000, -149.000000)" fill="#057AFF" fill-rule="nonzero">
            <g id="修改" transform="translate(20.000000, 149.000000)">
                <path d="M0.847312489,16.769831 C5.18460465,16.2374046 5.41450921,16.0064258 5.5673922,15.8524042 L16.4640006,4.95689149 L16.4640007,4.9568914 C16.9345735,4.49646137 16.943438,3.74193784 16.4838091,3.27058084 L13.7514231,0.537099146 L13.7514231,0.537099183 C13.2791509,0.0782482588 12.5247778,0.0875939728 12.0640169,0.558003419 L1.1674085,11.4535161 C1.02000403,11.603112 0.789003765,11.8319208 0.182907357,16.0900215 L0.182907356,16.0900215 C0.136121423,16.4159484 0.362410163,16.7180921 0.68833646,16.7648787 C0.716575985,16.7689324 0.745069886,16.7709539 0.773598805,16.7709276 L0.773598795,16.7709276 C0.797782925,16.7723737 0.822031938,16.7723737 0.846216067,16.7709276 L0.847312489,16.769831 Z M12.9055179,1.38190881 L15.6192125,4.1121034 L14.2420195,5.49041359 L11.520612,2.77010184 L12.9055179,1.38190881 Z M10.6769196,3.61488993 L13.3972099,6.3351802 L5.42000922,14.3146153 L2.70519746,11.6031121 L10.6769196,3.61488993 L10.6769196,3.61488993 Z M1.98690952,12.5765918 L4.43660377,15.0251903 C3.81731594,15.1528077 2.64141028,15.3309993 1.47869604,15.4849994 C1.65360054,14.3388067 1.85160077,13.1826882 1.98800522,12.5765918 L1.98690952,12.5765918 Z M16.0306173,15.608191 L7.77179906,15.608191 L7.77179904,15.608191 C7.44191467,15.608191 7.17448975,15.8756159 7.17448975,16.2055003 C7.17448975,16.5353847 7.44191467,16.8028096 7.77179904,16.8028096 L16.0306172,16.8028096 L16.0306172,16.8028096 C16.3605016,16.8028096 16.6279265,16.5353847 16.6279265,16.2055003 C16.6279265,15.8756159 16.3605016,15.608191 16.0306172,15.608191 L16.0306173,15.608191 Z" id="形状"></path>
            </g>
        </g>
    </g>
</svg>