<?xml version="1.0" encoding="UTF-8"?>
<svg width="193px" height="180px" viewBox="0 0 193 180" version="1.1" xmlns="http://www.w3.org/2000/svg" xmlns:xlink="http://www.w3.org/1999/xlink">
    <!-- Generator: Sketch 57.1 (83088) - https://sketch.com -->
    <title>审核通过_slice</title>
    <desc>Created with Sketch.</desc>
    <defs>
        <rect id="path-1" x="36.3322348" y="31.3068648" width="102.4" height="102.4" rx="4.8"></rect>
        <filter x="-14.2%" y="-12.2%" width="128.3%" height="128.3%" filterUnits="objectBoundingBox" id="filter-2">
            <feOffset dx="0" dy="2" in="SourceAlpha" result="shadowOffsetOuter1"></feOffset>
            <feGaussianBlur stdDeviation="4.5" in="shadowOffsetOuter1" result="shadowBlurOuter1"></feGaussianBlur>
            <feColorMatrix values="0 0 0 0 1   0 0 0 0 1   0 0 0 0 1  0 0 0 0.53 0" type="matrix" in="shadowBlurOuter1"></feColorMatrix>
        </filter>
        <linearGradient x1="19.214224%" y1="0%" x2="80.8642241%" y2="100%" id="linearGradient-3">
            <stop stop-color="#0193F9" offset="0%"></stop>
            <stop stop-color="#18CAFD" offset="51.1950796%"></stop>
            <stop stop-color="#23DBFF" offset="100%"></stop>
        </linearGradient>
        <rect id="path-4" x="10.4" y="8" width="102.4" height="125.6" rx="4.8"></rect>
        <filter x="-6.3%" y="-5.2%" width="116.6%" height="113.5%" filterUnits="objectBoundingBox" id="filter-5">
            <feOffset dx="2" dy="2" in="SourceAlpha" result="shadowOffsetOuter1"></feOffset>
            <feGaussianBlur stdDeviation="2.5" in="shadowOffsetOuter1" result="shadowBlurOuter1"></feGaussianBlur>
            <feColorMatrix values="0 0 0 0 0.133333333   0 0 0 0 0.854901961   0 0 0 0 1  0 0 0 0.38 0" type="matrix" in="shadowBlurOuter1"></feColorMatrix>
        </filter>
        <linearGradient x1="6.28742699%" y1="45.860991%" x2="93.4844049%" y2="55.2467648%" id="linearGradient-6">
            <stop stop-color="#00B6FF" offset="0%"></stop>
            <stop stop-color="#0066C1" offset="100%"></stop>
        </linearGradient>
    </defs>
    <g id="页面-1" stroke="none" stroke-width="1" fill="none" fill-rule="evenodd">
        <g id="画板" transform="translate(-87.000000, -163.000000)">
            <g id="审核通过" transform="translate(87.000000, 163.000000)">
                <rect id="矩形" fill="#89BCDE" x="54.1237466" y="14" width="92" height="125.6" rx="4.8"></rect>
                <g id="矩形" transform="translate(87.532235, 82.506865) rotate(-17.000000) translate(-87.532235, -82.506865) ">
                    <use fill="black" fill-opacity="1" filter="url(#filter-2)" xlink:href="#path-1"></use>
                    <use fill="#D6E2FF" fill-rule="evenodd" xlink:href="#path-1"></use>
                </g>
                <g id="编组-20">
                    <g id="编组-19" transform="translate(19.000000, 0.000000)" fill="#14B8F9">
                        <rect id="矩形" x="0" y="8" width="21" height="6" rx="3"></rect>
                        <rect id="矩形" transform="translate(10.500000, 11.000000) rotate(90.000000) translate(-10.500000, -11.000000) " x="0" y="8" width="21" height="6" rx="3"></rect>
                    </g>
                    <g id="编组-19备份" transform="translate(180.000000, 167.000000)" fill="#14B8F9">
                        <rect id="矩形" x="0" y="4.8" width="12.6" height="3.6" rx="1.8"></rect>
                        <rect id="矩形" transform="translate(6.300000, 6.600000) rotate(90.000000) translate(-6.300000, -6.600000) " x="0" y="4.8" width="12.6" height="3.6" rx="1.8"></rect>
                    </g>
                    <circle id="椭圆形" stroke="#15BEFC" stroke-width="3.5" cx="6.5" cy="103.5" r="4.75"></circle>
                    <circle id="椭圆形备份-5" stroke="#15BEFC" stroke-width="5" cx="184" cy="46" r="6.5"></circle>
                </g>
                <g id="编组-10" transform="translate(18.000000, 37.200000)">
                    <polygon id="路径-44" fill="#015CAE" points="22.8304263 84.8 0 94.2737459 13.8105444 102.906501 11.701276 119.2 36 110.007331"></polygon>
                    <polygon id="路径-45" fill="#015CAE" points="148.014855 90.4 172 99.5854512 158.296093 108.59699 160.007428 125.6 135.2 116.831925"></polygon>
                    <polygon id="路径-46" fill="#013969" points="25.6 108.135756 36 109.6 33.8628798 94.4"></polygon>
                    <polygon id="路径-47" fill="#003767" points="144.8 114.550692 135.816254 116.8 135.2 100.8"></polygon>
                    <g id="编组-11" transform="translate(30.400000, 0.000000)">
                        <g id="矩形" transform="translate(61.600000, 70.800000) rotate(10.000000) translate(-61.600000, -70.800000) ">
                            <use fill="black" fill-opacity="1" filter="url(#filter-5)" xlink:href="#path-4"></use>
                            <use fill="url(#linearGradient-3)" fill-rule="evenodd" xlink:href="#path-4"></use>
                        </g>
                        <g id="编组-8" transform="translate(71.846137, 81.647781) rotate(10.000000) translate(-71.846137, -81.647781) translate(42.346137, 45.647781)" fill="#8CDFFC">
                            <rect id="矩形" x="1.10127807" y="0.123414855" width="30.4" height="3.2" rx="0.8"></rect>
                            <rect id="矩形备份-20" x="1.38503191" y="13.9988617" width="56.8" height="4" rx="0.8"></rect>
                            <rect id="矩形备份-28" x="1.09950127" y="67.6637336" width="56.8" height="4" rx="0.8"></rect>
                            <rect id="矩形备份-21" x="1.24418998" y="27.0211566" width="56.8" height="4" rx="0.8"></rect>
                            <rect id="矩形备份-22" x="0.454420387" y="40.9702162" width="56.8" height="4" rx="0.8"></rect>
                        </g>
                        <g id="编组-9" transform="translate(39.075407, 27.755405) rotate(11.000000) translate(-39.075407, -27.755405) translate(25.575407, 11.255405)">
                            <ellipse id="椭圆形" fill="#D3A014" cx="12.8" cy="13.6" rx="12" ry="11.2"></ellipse>
                            <g id="奖牌03"></g>
                            <path d="M4.8,24 C6.98285772,25.9102554 9.78741567,27.0652353 12.8508633,27.0652353 C15.8680047,27.0652353 18.6342898,25.9503967 20.8,24.0917617 L20.8,32.8 L12.8000162,29.9326193 L4.8,32.8 L4.8,24 L4.8,24 Z" id="路径" fill="#0257B7" fill-rule="nonzero"></path>
                            <path d="M0,13.2 C0,5.90957202 5.90957202,0 13.2,0 C20.490428,0 26.4,5.90957202 26.4,13.2 C26.4,20.490428 20.490428,26.4 13.2,26.4 C5.90957202,26.4 0,20.490428 0,13.2 Z M8.03476848,22.1461614 L8.03476797,22.1461611 C12.9757351,24.9988335 19.2937225,23.3059319 22.1463884,18.3649712 C23.0530288,16.7946234 23.530404,15.0132935 23.530404,13.2000322 C23.530404,7.49476538 18.9052403,2.86960167 13.1999735,2.86960167 C7.49470665,2.86960167 2.86954295,7.49476538 2.86954295,13.2000322 L2.86954295,13.1997713 C2.86954295,16.8903973 4.83841425,20.3006847 8.03454692,22.1460627 L8.03476848,22.1461614 Z M4.01738424,13.2 C4.01738424,8.12832302 8.12832302,4.01738424 13.2,4.01738424 C18.271677,4.01738424 22.3826158,8.12832302 22.3826158,13.2 L22.3826158,13.2 C22.3826158,18.2714169 18.2714169,22.3826158 13.2,22.3826158 C8.12858307,22.3826158 4.01738424,18.2714169 4.01738424,13.2 Z M13.197692,6.8869537 L11.2486824,11.0443772 L6.8869537,11.7112638 L10.0423261,14.9452636 L9.29853498,19.5130528 L13.197692,17.3574365 L17.1014325,19.5130528 L16.3576414,14.944711 L19.5130138,11.7118586 L15.1512851,11.0449721 L13.1982576,6.8869537 L13.197692,6.8869537 Z" id="形状" fill="#F4C443" fill-rule="nonzero"></path>
                        </g>
                    </g>
                    <path d="M17.6,80.6091637 L25.346633,108.716777 C45.1144864,101.115833 65.6685208,97.8958328 87.008736,99.0567756 C108.348951,100.217718 127.519346,105.598793 144.519921,115.2 L158.4,88.9782079 C134.696982,75.3851416 111.787504,67.9313312 89.6715666,66.6167768 C67.5556295,65.3022224 43.5317739,69.9663514 17.6,80.6091637 Z" id="路径-43" fill="url(#linearGradient-6)"></path>
                    <g id="形状结合-2" transform="translate(44.620961, 86.785148) rotate(-14.000000) translate(-44.620961, -86.785148) translate(36.120961, 76.785148)" fill="#FFFFFF" fill-rule="nonzero">
                        <path d="M7.1980781,0.970295726 L9.1980781,1.05029573 L9.1980781,3.47029573 L15.6380781,3.47029573 L15.6380781,15.0702957 L9.1980781,15.0702957 L9.1980781,19.1102957 L7.1980781,19.1102957 L7.1980781,15.0702957 L0.758078104,15.0702957 L0.758078104,3.47029573 L7.1980781,3.47029573 L7.1980781,0.970295726 Z M7.1980781,10.1902957 L2.7780781,10.1902957 L2.7780781,13.1502957 L7.1980781,13.1502957 L7.1980781,10.1902957 Z M13.6180781,10.1902957 L9.1980781,10.1902957 L9.1980781,13.1502957 L13.6180781,13.1502957 L13.6180781,10.1902957 Z M7.1980781,5.39029573 L2.7780781,5.39029573 L2.7780781,8.31029573 L7.1980781,8.31029573 L7.1980781,5.39029573 Z M13.6180781,5.39029573 L9.1980781,5.39029573 L9.1980781,8.31029573 L13.6180781,8.31029573 L13.6180781,5.39029573 Z" id="形状结合" transform="translate(8.198078, 10.040296) rotate(-3.000000) translate(-8.198078, -10.040296) "></path>
                    </g>
                    <g id="编组-15" transform="translate(68.000000, 82.300000) rotate(-8.000000) translate(-68.000000, -82.300000) translate(59.000000, 72.800000)" fill="#FFFFFF" fill-rule="nonzero">
                        <polygon id="路径" points="11.92 6.5 17.46 6.5 17.46 7.88 4.94 7.88 4.94 6.5 10.08 6.5 10.08 5.48 6.1 5.48 6.1 4.08 10.08 4.08 10.08 3.12 5.56 3.12 5.56 1.72 10.08 1.72 10.08 4.54747351e-13 11.92 0.08 11.92 1.72 16.66 1.72 16.66 3.12 11.92 3.12 11.92 4.08 16.18 4.08 16.18 5.48 11.92 5.48"></polygon>
                        <path d="M4.88,3.64 L3.4,5 C2.7,3.82 1.72,2.22 1.02,1.36 L2.4,0.28 C3.1,1.1 4.24,2.58 4.88,3.64 Z" id="路径"></path>
                        <path d="M3.86,14.04 L5.26,12.82 L5.94,14.68 C5.46,15.1 3.92,16.46 2.8,17.64 L1.66,16.12 C2.04,15.78 2.04,15.4 2.04,14.9 L2.04,8.08 L9.09494702e-13,8.08 L9.09494702e-13,6.18 L3.86,6.18 L3.86,14.04 Z" id="路径"></path>
                        <path d="M15.78,8.9 L15.78,16 C15.78,17.38 15.44,17.74 13.84,17.9 L12.7,18.02 L12.14,16.42 L13.14,16.32 C13.84,16.24 14,16.16 14,15.58 L14,15.18 L8,15.18 L8,17.82 L6.2,17.82 L6.2,8.9 L15.78,8.9 Z M14,12.76 L8,12.76 L8,13.72 L14,13.72 L14,12.76 Z M14,10.4 L8,10.4 L8,11.34 L14,11.34 L14,10.4 Z" id="形状结合"></path>
                    </g>
                    <g id="编组-16" transform="translate(94.500000, 82.800000) rotate(8.000000) translate(-94.500000, -82.800000) translate(85.000000, 73.800000)" fill="#FFFFFF" fill-rule="nonzero">
                        <path d="M5.3,3.78 L3.72,4.98 C3.3,3.98 2.12,1.94 1.38,1.04 L2.9,4.54747351e-13 C3.58,0.9 4.7,2.64 5.3,3.78 Z" id="路径"></path>
                        <path d="M16.88,0.48 L16.88,2.08 C16.04,2.44 14.04,3.74 12.82,4.48 L16.72,4.48 L16.72,12.94 C16.72,14.36 16.36,14.76 14.76,14.92 L13.88,15.02 L13.28,13.2 L14.12,13.1 C14.82,13.02 14.96,12.88 14.96,12.22 L14.96,11.94 L12.24,11.94 L12.24,14.52 L10.5,14.52 L10.5,11.94 L7.9,11.94 L7.9,14.74 L6.12,14.74 L6.12,4.48 L10.04,4.48 L7.68,2.84 L8.22,2.12 L6.28,2.12 L6.28,0.48 L16.88,0.48 Z M10.5,9.06 L7.9,9.06 L7.9,10.32 L10.5,10.32 L10.5,9.06 Z M14.96,9.06 L12.24,9.06 L12.24,10.32 L14.96,10.32 L14.96,9.06 Z M10.5,6.12 L7.9,6.12 L7.9,7.44 L10.5,7.44 L10.5,6.12 Z M14.96,6.12 L12.24,6.12 L12.24,7.44 L14.96,7.44 L14.96,6.12 Z M13.72,2.12 L9.54,2.12 L11.42,3.36 C12.28,2.86 13.16,2.36 13.72,2.12 Z" id="形状结合"></path>
                        <path d="M8.9,15.56 C12.04,15.66 15.12,15.6 18.22,15.42 L17.84,17.3 C14.78,17.48 11.86,17.54 8.8,17.44 C6.26,17.38 4.88,16.98 3.46,15.14 C2.76,16 2.08,16.8 1.28,17.54 L9.07718345e-13,15.94 C0.88,15.14 1.72,14.32 2.5,13.38 L2.5,8.2 L0.64,8.2 L0.64,6.22 L4.34,6.22 L4.34,13.36 C5.46,15.16 6.46,15.5 8.9,15.56 Z" id="路径"></path>
                    </g>
                    <g id="编组-17" transform="translate(120.500000, 87.800000) rotate(20.000000) translate(-120.500000, -87.800000) translate(111.000000, 78.800000)" fill="#FFFFFF" fill-rule="nonzero">
                        <path d="M13.14,11.06 L13.14,5.16 L6.38,5.16 L6.38,3.22 L13.14,3.22 L13.14,8.8817842e-16 L15.08,0.08 L15.08,3.22 L17.56,3.22 L17.56,5.16 L15.08,5.16 L15.08,11.56 C15.08,13.96 14.56,14.34 12.12,14.56 L10.6,14.68 L9.98,12.6 L11.68,12.5 C13.02,12.44 13.14,12.22 13.14,11.06 Z" id="路径"></path>
                        <path d="M5.86,3.82 L4.36,5.3 C3.56,3.94 2.62,2.72 1.66,1.54 L3.06,0.32 C4.1,1.44 4.96,2.48 5.86,3.82 Z" id="路径"></path>
                        <path d="M6.86,6.82 L8.24,5.7 C9.42,7 10.26,8.16 11.2,9.6 L9.76,11.02 C8.9,9.56 7.98,8.18 6.86,6.82 Z" id="路径"></path>
                        <path d="M9.54,15.56 C12.4,15.62 15.28,15.58 18.14,15.44 L17.72,17.48 C14.88,17.62 12.06,17.66 9.24,17.6 C6.56,17.54 5.26,17.12 3.94,15.28 C3,16.24 2.1,17.1 1.14,17.88 L-1.77635684e-15,16.1 C0.98,15.32 2.02,14.46 2.96,13.48 L2.96,8.5 L0.62,8.5 L0.62,6.48 L4.9,6.48 L4.9,13.46 C5.92,15.08 6.88,15.5 9.54,15.56 Z" id="路径"></path>
                    </g>
                    <g id="编组-18" transform="translate(138.000000, 95.800000) rotate(28.000000) translate(-138.000000, -95.800000) translate(136.000000, 88.800000)" fill="#FFFFFF" fill-rule="nonzero">
                        <polygon id="路径" points="0.16 0 2.94 0 2.58 9.18 0.52 9.18"></polygon>
                        <path d="M1.54,14 C0.26,14 0,13.76 0,12.46 C0,11.16 0.26,10.94 1.54,10.94 C2.76,10.94 3.1,11.16 3.1,12.46 C3.1,13.76 2.76,14 1.54,14 Z" id="路径"></path>
                    </g>
                </g>
            </g>
        </g>
    </g>
</svg>