<?xml version="1.0" encoding="UTF-8"?>
<svg width="35px" height="35px" viewBox="0 0 35 35" version="1.1" xmlns="http://www.w3.org/2000/svg" xmlns:xlink="http://www.w3.org/1999/xlink">
    <!-- Generator: Sketch 57.1 (83088) - https://sketch.com -->
    <title>审核通过绿色_slice</title>
    <desc>Created with Sketch.</desc>
    <defs>
        <circle id="path-1" cx="17.5" cy="17.5" r="17.5"></circle>
        <filter x="-24.3%" y="-27.1%" width="171.4%" height="171.4%" filterUnits="objectBoundingBox" id="filter-2">
            <feOffset dx="4" dy="3" in="SourceAlpha" result="shadowOffsetOuter1"></feOffset>
            <feGaussianBlur stdDeviation="3.5" in="shadowOffsetOuter1" result="shadowBlurOuter1"></feGaussianBlur>
            <feComposite in="shadowBlurOuter1" in2="SourceAlpha" operator="out" result="shadowBlurOuter1"></feComposite>
            <feColorMatrix values="0 0 0 0 0.556862745   0 0 0 0 0.862745098   0 0 0 0 0.525490196  0 0 0 0.39 0" type="matrix" in="shadowBlurOuter1"></feColorMatrix>
        </filter>
    </defs>
    <g id="页面-1" stroke="none" stroke-width="1" fill="none" fill-rule="evenodd">
        <g id="画板" transform="translate(0.000000, -5.000000)">
            <g id="审核通过绿色" transform="translate(0.000000, 5.000000)">
                <g id="编组-4">
                    <g id="椭圆形">
                        <use fill="black" fill-opacity="1" filter="url(#filter-2)" xlink:href="#path-1"></use>
                        <circle stroke="#FFFFFF" stroke-width="1.4" stroke-linejoin="square" fill="#8EDC86" fill-rule="evenodd" cx="17.5" cy="17.5" r="16.8"></circle>
                    </g>
                    <path d="M15.9387259,25.2 C15.5523008,25.2 15.1674031,25.0477749 14.8726203,24.7448941 L8.84102864,18.5224975 C8.25299045,17.9151665 8.25299045,16.9296267 8.84102864,16.3222957 C9.43059419,15.7149647 10.3852016,15.7149647 10.9732398,16.3222957 L15.9387259,21.4445914 L25.4267602,11.6566753 C26.0147984,11.0477749 26.9694058,11.0477749 27.5589714,11.6566753 C28.1470095,12.2640063 28.1470095,13.2479767 27.5589714,13.8553077 L17.0048315,24.7448941 C16.7100487,25.0477749 16.3236236,25.2 15.9387259,25.2 Z" id="路径" fill="#FFFFFF" fill-rule="nonzero"></path>
                </g>
            </g>
        </g>
    </g>
</svg>