<?xml version="1.0" encoding="UTF-8"?>
<svg width="29px" height="22px" viewBox="0 0 29 22" version="1.1" xmlns="http://www.w3.org/2000/svg" xmlns:xlink="http://www.w3.org/1999/xlink">
    <!-- Generator: Sketch 55.2 (78181) - https://sketchapp.com -->
    <title>筛选_slice</title>
    <desc>Created with Sketch.</desc>
    <g id="页面1" stroke="none" stroke-width="1" fill="none" fill-rule="evenodd">
        <g id="画板" transform="translate(-331.000000, -126.000000)" fill="#4D94FF" fill-rule="nonzero">
            <g id="筛选" transform="translate(331.000000, 126.000000)">
                <path d="M20.4328183,8.87258735 L27.3036488,8.87258735 C27.8193938,8.87258735 28.2416816,9.29622789 28.2416816,9.82140212 C28.2416816,10.3430752 27.8228551,10.7702169 27.3036488,10.7702169 L20.4328183,10.7702169 C19.9170734,10.7702169 19.4947855,10.3465763 19.4947855,9.82140212 C19.4947855,9.29622789 19.9170734,8.87258735 20.4328183,8.87258735 Z M20.4328183,13.9247634 L27.3036488,13.9247634 C27.8193938,13.9247634 28.2416816,14.3484039 28.2416816,14.8735781 C28.2416816,15.3952512 27.8228551,15.8223929 27.3036488,15.8223929 L20.4328183,15.8223929 C19.9170734,15.8223929 19.4947855,15.3987524 19.4947855,14.8735781 C19.4947855,14.3484039 19.9170734,13.9247634 20.4328183,13.9247634 Z M20.4328183,18.9804406 L27.3036488,18.9804406 C27.8193938,18.9804406 28.2416816,19.4040811 28.2416816,19.9292553 C28.2416816,20.4509284 27.8228551,20.8780701 27.3036488,20.8780701 L20.4328183,20.8780701 C19.9170734,20.8780701 19.4947855,20.4544295 19.4947855,19.9292553 C19.4947855,19.4040811 19.9170734,18.9804406 20.4328183,18.9804406 Z" id="形状"></path>
                <path d="M20.4085887,0.721883425 C20.3220543,0.679869487 20.2216744,0.658862519 20.1247559,0.658862519 L1.33640938,0.658862519 C1.03180834,0.658862519 0.758359667,0.872433369 0.702977658,1.17353326 C0.671825278,1.34158901 0.709900409,1.51664708 0.806818924,1.65319238 L6.35194256,9.57281965 L6.35194256,10.3220682 C6.35194256,10.8437413 6.77076901,11.270883 7.28997534,11.270883 C7.8057203,11.270883 8.22800812,10.8472424 8.22800812,10.3220682 L8.22800812,9.57632081 C8.22800812,9.18419073 8.10685997,8.79906296 7.88187056,8.47695611 L3.73860402,2.5599932 C3.73514264,2.55649204 3.73860402,2.55299088 3.7420654,2.55299088 L17.7156385,2.55299088 C17.7190999,2.55299088 17.7190999,2.55649204 17.7190999,2.5599932 L13.572372,8.48045727 C13.3473826,8.80256412 13.2262344,9.18419073 13.2262344,9.57982197 L13.2262344,19.4706032 L8.23493087,17.7235236 L8.23146949,15.3497361 C8.23146949,14.828063 7.81264305,14.4009213 7.29343672,14.4009213 C6.77769176,14.4009213 6.35540394,14.8245619 6.35540394,15.3497361 L6.35540394,18.6198209 C6.35540394,18.8894104 6.52501134,19.1309905 6.77769176,19.2185195 L14.2715698,21.8478918 C14.2923381,21.8548941 14.3165677,21.8618965 14.3407973,21.8688988 C14.7457783,21.9564278 15.1023,21.6448244 15.1023,21.2526944 L15.1023,9.57982197 L15.1023,9.57632081 L20.6474236,1.65669354 C20.8654903,1.34158901 20.7651104,0.896941499 20.4085887,0.721883425 Z" id="路径"></path>
            </g>
        </g>
    </g>
</svg>