<?xml version="1.0" encoding="UTF-8"?>
<svg width="85px" height="85px" viewBox="0 0 85 85" version="1.1" xmlns="http://www.w3.org/2000/svg" xmlns:xlink="http://www.w3.org/1999/xlink">
    <!-- Generator: Sketch 55.2 (78181) - https://sketchapp.com -->
    <title>是否监管合格证_slice</title>
    <desc>Created with Sketch.</desc>
    <defs>
        <path d="M80.5866243,23.6205892 C80.9375531,24.327226 80.6491948,25.1845523 79.942558,25.5354811 C79.2359212,25.88641 78.3785949,25.5980517 78.027666,24.8914148 C75.716478,20.2375635 72.5050129,16.0776681 68.5937128,12.655082 C67.9999612,12.1355192 67.9398192,11.2329994 68.4593821,10.6392477 C68.978945,10.045496 69.8814647,9.98535411 70.4752164,10.504917 C74.6669238,14.1728737 78.1088428,18.6312821 80.5866243,23.6205892 Z" id="path-1"></path>
        <filter x="-39.6%" y="-19.3%" width="179.2%" height="177.3%" filterUnits="objectBoundingBox" id="filter-2">
            <feOffset dx="0" dy="4" in="SourceAlpha" result="shadowOffsetOuter1"></feOffset>
            <feGaussianBlur stdDeviation="1" in="shadowOffsetOuter1" result="shadowBlurOuter1"></feGaussianBlur>
            <feColorMatrix values="0 0 0 0 0   0 0 0 0 0   0 0 0 0 0  0 0 0 0.05 0" type="matrix" in="shadowBlurOuter1"></feColorMatrix>
        </filter>
    </defs>
    <g id="页面1" stroke="none" stroke-width="1" fill="none" fill-rule="evenodd">
        <g id="画板" transform="translate(-116.000000, -44.000000)">
            <g id="是否监管合格证" transform="translate(116.000000, 44.000000)">
                <g id="编组">
                    <g id="编组-2">
                        <path d="M13.7281657,11.2197956 C9.98775203,17.944554 7.85714286,25.6877475 7.85714286,33.9285714 C7.85714286,59.7676079 28.8038206,80.7142857 54.6428571,80.7142857 C57.2745046,80.7142857 59.8554038,80.4970066 62.3685939,80.0794092 C56.4392678,83.2208099 49.67741,85 42.5,85 C19.0278981,85 -2.06057393e-13,65.9721019 -2.06057393e-13,42.5 C-2.06057393e-13,30.1258608 5.28830934,18.9868724 13.7281638,11.219799 Z" id="形状结合" fill="#EEEFFC"></path>
                        <path d="M62.7821867,5.14296595 C63.4752392,5.52001334 63.7314121,6.38750078 63.3543647,7.08055336 C62.9773173,7.77360594 62.1098298,8.02977876 61.4167773,7.65273136 C55.6602737,4.52097089 49.2020579,2.85714286 42.5,2.85714286 C20.6058546,2.85714286 2.85714286,20.6058546 2.85714286,42.5 C2.85714286,64.3941454 20.6058546,82.1428571 42.5,82.1428571 C64.3941454,82.1428571 82.1428571,64.3941454 82.1428571,42.5 C82.1428571,39.4024208 81.7878567,36.3522751 81.0916789,33.3910429 C80.911115,32.6230043 81.3873574,31.85401 82.155396,31.6734462 C82.9234346,31.4928823 83.6924289,31.9691247 83.8729927,32.7371634 C84.6194638,35.9123205 85,39.1818685 85,42.5 C85,65.9721019 65.9721019,85 42.5,85 C19.0278981,85 0,65.9721019 0,42.5 C0,19.0278981 19.0278981,0 42.5,0 C49.6820562,0 56.6092531,1.78465148 62.7821867,5.14296595 Z" id="形状" fill="#0579FF" fill-rule="nonzero"></path>
                        <g id="形状">
                            <use fill="black" fill-opacity="1" filter="url(#filter-2)" xlink:href="#path-1"></use>
                            <use fill="#F25643" fill-rule="evenodd" xlink:href="#path-1"></use>
                        </g>
                    </g>
                </g>
                <g id="编组-3" transform="translate(26.000000, 22.000000)" fill="#F25643" fill-rule="nonzero">
                    <path d="M11.3691065,17.3358277 C10.8110976,16.8006061 9.92485911,16.8190788 9.38963744,17.3770876 C8.85441577,17.9350965 8.87288846,18.821335 9.43089735,19.3565567 L15.4682444,25.1473587 C15.9963836,25.6539305 16.8255619,25.6682802 17.3709131,25.1802861 L33.8400257,10.4433053 C34.4162199,9.92771205 34.4653467,9.04264345 33.9497535,8.46644924 C33.4341602,7.89025503 32.5490916,7.84112823 31.9728974,8.35672146 L16.4703724,22.2287751 L11.3691065,17.3358277 Z" id="路径-4"></path>
                    <path d="M6.77226009,30.4453353 C3.8907335,25.2765559 2.63325571,18.0398612 3.04783675,8.7313061 C8.29560198,9.11063213 12.9147804,7.44748793 16.8177416,3.77593978 C19.1878125,6.38349621 22.4057296,7.83972154 26.3923,8.13033995 C27.2105579,8.18999043 27.9211139,7.55915368 27.9793711,6.72132663 C28.0376283,5.88349959 27.421526,5.1559503 26.6032681,5.09629983 C22.8163062,4.82023275 20.0364233,3.34027887 18.1389986,0.633973209 C17.5935961,-0.14393687 16.4902172,-0.218372879 15.8498494,0.479542905 C11.9883963,4.68801305 7.37714438,6.35604108 1.86269174,5.54326174 C1.0053255,5.41689388 0.224676017,6.06545473 0.16881596,6.9505278 C-0.504169387,17.6136246 0.831800657,25.9742198 4.23394335,32.0276052 L4.31362392,32.154396 C7.46167271,36.6564895 11.3226101,39.9075495 15.8809808,41.8800365 C16.2405568,42.0356314 16.6455013,42.0400322 17.0082217,41.8922871 C24.075752,39.0135045 28.3107564,35.4503472 30.9080266,29.5450965 C32.8897226,25.5498802 33.9298327,21.0968563 33.9995168,16.2676187 C34.0116356,15.4277626 33.3565242,14.7368655 32.5362846,14.7244568 C31.7160449,14.7120482 31.0412851,15.3828269 31.0291662,16.2226831 C30.9660563,20.596319 30.0323981,24.5935907 28.2291175,28.2324064 C26.0253355,33.239137 22.5366945,36.2692954 16.4817626,38.8288334 C12.7016846,37.0700753 9.46958358,34.2834159 6.77226009,30.4453353 Z" id="路径-12"></path>
                </g>
            </g>
        </g>
    </g>
</svg>