<?xml version="1.0" encoding="UTF-8"?>
<svg width="69px" height="69px" viewBox="0 0 69 69" version="1.1" xmlns="http://www.w3.org/2000/svg" xmlns:xlink="http://www.w3.org/1999/xlink">
    <!-- Generator: Sketch 59.1 (86144) - https://sketch.com -->
    <title>编组 5@2x</title>
    <desc>Created with Sketch.</desc>
    <g id="页面-1" stroke="none" stroke-width="1" fill="none" fill-rule="evenodd">
        <g id="商用车授信申请-我参与的-更多" transform="translate(-88.000000, -276.000000)">
            <g id="编组-3" transform="translate(30.000000, 215.000000)">
                <g id="编组-2">
                    <g id="编组-12">
                        <g id="编组-4" transform="translate(60.000000, 63.000000)">
                            <g id="编组-7备份-2">
                                <g id="编组-5">
                                    <path d="M9.66130293,0.661178947 C8.59642169,2.88284279 8,5.37177052 8,8 L8,8 L8,40 C8,49.3888407 15.6111593,57 25,57 L25,57 L57,57 C59.6282295,57 62.1171572,56.4035783 64.3388211,55.3386971 C61.5994963,61.053621 55.7606113,65 49,65 L17,65 C7.61115925,65 1.14980138e-15,57.3888407 0,48 L0,16 C-8.19398682e-16,9.309102 3.86541104,3.52101912 9.48495787,0.747026609 Z" id="形状结合" fill="#EEEFFC"></path>
                                    <path d="M65,25.4421387 L65,52 C65,59.1797017 59.1797017,65 52,65 L13,65 C5.82029825,65 0,59.1797017 0,52 L0,13 C0,5.82029825 5.82029825,0 13,0 L13,0 L40.759073,0" id="形状" stroke="#0579FF" stroke-width="3" stroke-linecap="round"></path>
                                    <path d="M46,0 L51.4786028,0 C58.9462643,0 65,5.68745129 65,12.703278 L65,19" id="路径" stroke="#F25643" stroke-width="3" stroke-linecap="round"></path>
                                    <g id="探测" transform="translate(19.000000, 12.000000)" fill="#F25643" fill-rule="nonzero" stroke="#F25643" stroke-width="0.5">
                                        <path d="M13.4999997,6.3949875 C14.1739358,6.3949875 14.7202766,5.8577625 14.7202766,5.1949875 L14.7202766,1.2 C14.7202766,0.5372625 14.1739358,0 13.4999997,0 C12.8260637,0 12.2797228,0.5372625 12.2797228,1.2 L12.2797228,5.1949875 C12.2797228,5.8577625 12.8260637,6.3949875 13.4999997,6.3949875 Z M3.89340788,9.059175 C4.20572251,9.059175 4.51799899,8.942025 4.75625806,8.7076875 C5.23281433,8.23905 5.23281433,7.4792625 4.75625806,7.010625 L2.08312709,4.38195 C1.60660895,3.913275 0.834021135,3.913275 0.3573886,4.38195 C-0.119129533,4.85055 -0.119129533,5.610375 0.3573886,6.078975 L3.03055771,8.707725 C3.26881677,8.942025 3.5811314,9.059175 3.89340788,9.059175 Z M26.6493986,4.3887 C26.1766557,3.9163875 25.4039917,3.910275 24.9236983,4.3752 L22.2078195,7.00395 C21.7275261,7.4688 21.7214247,8.2285875 22.1941295,8.7009375 C22.4329987,8.9395875 22.7483259,9.059175 23.06392,9.059175 C23.372917,9.059175 23.6822191,8.944425 23.9198299,8.7144 L26.6357087,6.0856875 C27.1160402,5.6208 27.1221415,4.8610125 26.6494368,4.3887 L26.6493986,4.3887 Z M9.3947594,19.4549625 C8.72082334,19.4549625 8.17448249,19.992225 8.17448249,20.655 L8.17448249,24.692025 C8.17448249,25.3547625 8.72082334,25.892025 9.3947594,25.892025 C10.0686955,25.892025 10.6150363,25.3547625 10.6150363,24.692025 L10.6150363,20.6549625 C10.6150363,19.992225 10.0686955,19.4549625 9.3947594,19.4549625 L9.3947594,19.4549625 Z M3.04287488,29.139075 C3.04287488,30.0616125 3.80611995,30.812175 4.74424596,30.812175 L22.2557535,30.812175 C23.1938795,30.812175 23.9571246,30.0616125 23.9571246,29.139075 L23.9571246,19.09275 C23.9571246,17.6971875 23.6749355,16.338 23.118413,15.0529875 C22.5816056,13.8133875 21.8155767,12.700125 20.8416432,11.7440625 C18.8621634,9.8009625 16.2554613,8.731575 13.4996184,8.731575 L13.4808948,8.731575 C10.691685,8.7364875 8.07022508,9.80835 6.09943974,11.74965 C4.12838746,13.6912125 3.04287488,16.2714 3.04287488,19.0149 L3.04287488,29.139075 Z M5.4834287,19.0149 C5.4834287,16.9117125 6.31561942,14.9337 7.8266273,13.4452875 C9.33748265,11.957025 11.3470881,11.1353625 13.4852801,11.131575 L13.499504,11.131575 C15.6042529,11.131575 17.5989099,11.952 19.1174682,13.442625 C20.6645505,14.9613 21.5165708,16.9678875 21.5165708,19.09275 L21.5165708,28.412175 L5.4834287,28.412175 L5.4834287,19.0149 Z M24.2522791,33.6 L2.7477204,33.6 C2.07378434,33.6 1.52744349,34.1372625 1.52744349,34.8 C1.52744349,35.4627375 2.07378434,36 2.7477204,36 L24.2522791,36 C24.9262151,36 25.472556,35.4627375 25.472556,34.8 C25.472556,34.1372625 24.9262151,33.6 24.2522791,33.6 Z" id="形状"></path>
                                    </g>
                                </g>
                            </g>
                        </g>
                    </g>
                </g>
            </g>
        </g>
    </g>
</svg>