<?xml version="1.0" encoding="UTF-8"?>
<svg width="27px" height="27px" viewBox="0 0 27 27" version="1.1" xmlns="http://www.w3.org/2000/svg" xmlns:xlink="http://www.w3.org/1999/xlink">
    <!-- Generator: Sketch 55.2 (78181) - https://sketchapp.com -->
    <title>编组_slice</title>
    <desc>Created with Sketch.</desc>
    <g id="页面1" stroke="none" stroke-width="1" fill="none" fill-rule="evenodd">
        <g id="画板" transform="translate(-171.000000, -268.000000)">
            <g id="编组" transform="translate(171.000000, 268.000000)">
                <circle id="椭圆形备份-3" fill="#F25643" cx="13.5" cy="13.5" r="13.5"></circle>
                <g id="删-除" transform="translate(7.000000, 7.000000)" fill="#FFFFFF" fill-rule="nonzero">
                    <path d="M6.60144535,0 C5.18126705,0 4.02863149,1.05207865 3.97958317,2.37291275 L0.668821444,2.37291275 C0.30097319,2.37291275 0,2.65208129 0,2.99790944 C0,3.34166027 0.298750157,3.62291937 0.668835603,3.62291937 L1.40678346,3.62291937 L1.40678346,10.6145836 C1.40678346,11.927082 2.35876551,13 3.5359394,13 L9.53317286,13 C10.7081237,13 11.6623288,11.9333404 11.6623288,10.6145836 L11.6623288,3.62708725 L12.3311644,3.62708725 C12.6990268,3.62708725 13,3.34790548 13,3.00207732 C13,2.6583265 12.7012498,2.37708063 12.3311644,2.37708063 L9.21883315,2.37708063 C9.17646809,1.05209188 8.02160949,0 6.60144535,0 L6.60144535,0 Z M5.23255257,2.37291275 C5.28160089,1.69583741 5.87241794,1.17084337 6.60366839,1.17084337 C7.33491883,1.17084337 7.92573588,1.69791474 7.96810095,2.37291275 L5.23255257,2.37291275 Z M3.53370221,11.8312472 C3.11679147,11.8312472 2.65751567,11.3312472 2.65751567,10.6145836 L2.65751567,3.62708725 L10.4071364,3.62708725 L10.4071364,10.6208288 C10.4071364,11.3354151 9.94786056,11.8375056 9.53094983,11.8375056 L3.53370221,11.8375056 L3.53370221,11.8312472 Z" id="形状"></path>
                    <path d="M4.53034059,10 C4.8209474,10 5.06066771,9.71230918 5.06066771,9.35111857 L5.06066771,5.64889477 C5.06066771,5.28770415 4.82307609,5 4.53034059,5 C4.23970683,5 4,5.28770415 4,5.64889477 L4,9.35111857 C4,9.71020195 4.2333477,10 4.53034059,10 Z M6.45015089,10 C6.74077118,10 6.98047801,9.71230918 6.98047801,9.35111857 L6.98047801,5.64889477 C6.98047801,5.28770415 6.7428864,5 6.45015089,5 C6.15953061,5 5.9198103,5.28770415 5.9198103,5.64889477 L5.9198103,9.35111857 C5.9198103,9.71020195 6.15953061,10 6.45015089,10 L6.45015089,10 Z M8.46965941,10 C8.76027969,10 9,9.71230918 9,9.35111857 L9,5.64889477 C9,5.28770415 8.76240839,5 8.46965941,5 C8.17903912,5 7.93933229,5.28770415 7.93933229,5.64889477 L7.93933229,9.35111857 C7.93933229,9.71020195 8.1705513,10 8.46965941,10 Z" id="形状"></path>
                </g>
            </g>
        </g>
    </g>
</svg>