<?xml version="1.0" encoding="UTF-8"?>
<svg width="49px" height="49px" viewBox="0 0 49 49" version="1.1" xmlns="http://www.w3.org/2000/svg" xmlns:xlink="http://www.w3.org/1999/xlink">
    <!-- Generator: Sketch 59.1 (86144) - https://sketch.com -->
    <title>分组备份 25@2x</title>
    <desc>Created with Sketch.</desc>
    <g id="页面-1" stroke="none" stroke-width="1" fill="none" fill-rule="evenodd">
        <g id="状态角标" transform="translate(-1373.000000, -506.000000)">
            <g id="分组备份-25" transform="translate(1372.000000, 493.000000)">
                <g id="编组-3" transform="translate(31.353553, 31.646447) rotate(45.000000) translate(-31.353553, -31.646447) translate(-3.646447, 23.146447)">
                    <polygon id="矩形" fill="#64DC64" points="16.0683698 1.06157248 53.835396 0.965338282 69.375151 16.5050933 0.362011246 16.7679311"></polygon>
                    <path d="M24.208,10.965 C23.281,11.289 22.201,11.541 20.968,11.73 L21.085,12.648 C22.255,12.441 23.29,12.171 24.208,11.847 L24.208,10.965 Z M22.354,4.557 C22.039,5.52 21.67,6.402 21.238,7.203 C21.121,7.365 20.995,7.482 20.851,7.545 L21.076,8.4 L21.988,8.27666667 C22.136,8.257 22.282,8.238 22.426,8.22 L22.1606667,8.65123457 C21.8635556,9.11833333 21.61,9.459 21.4,9.669 C21.283,9.777 21.139,9.867 20.977,9.939 L21.229,10.785 C22.129,10.668 23.083,10.434 24.1,10.092 L24.1,9.255 C23.506,9.453 22.93,9.615 22.354,9.741 C22.858,9.093 23.488,8.094 24.226,6.735 L23.407,6.429 C23.227,6.762 23.065,7.077 22.912,7.374 C22.588,7.419 22.264,7.455 21.94,7.491 C22.381,6.816 22.813,5.952 23.236,4.899 L22.354,4.557 Z M24.064,5.628 L24.064,6.528 L26.107,6.528 L26.107,7.59 L24.361,7.59 L24.361,8.49 L28.834,8.49 L28.834,7.59 L27.052,7.59 L27.052,6.528 L29.095,6.528 L29.095,5.628 L27.052,5.628 L27.052,4.638 L26.107,4.638 L26.107,5.628 L24.064,5.628 Z M28.663,9.12 L24.55,9.12 L24.55,12.909 L25.468,12.909 L25.468,12.576 L27.754,12.576 L27.754,12.909 L28.663,12.909 L28.663,9.12 Z M25.468,11.694 L25.468,10.002 L27.754,10.002 L27.754,11.694 L25.468,11.694 Z M31.503,5.43 L31.503,6.339 L34.923,6.339 L34.923,6.978 L32.133,6.978 L32.133,9.75 L34.203,9.75 C33.546,10.596 32.547,11.298 31.197,11.856 L31.746,12.729 C33.195,11.973 34.257,11.01 34.923,9.84 L34.923,12.936 L35.877,12.936 L35.877,9.858 C36.507,10.911 37.533,11.865 38.973,12.729 L39.63,11.91 C38.235,11.28 37.218,10.56 36.588,9.75 L38.685,9.75 L38.685,6.978 L35.877,6.978 L35.877,6.339 L39.279,6.339 L39.279,5.43 L35.877,5.43 L35.877,4.629 L34.923,4.629 L34.923,5.43 L31.503,5.43 Z M37.74,8.895 L35.877,8.895 L35.877,7.851 L37.74,7.851 L37.74,8.895 Z M34.923,8.895 L33.078,8.895 L33.078,7.851 L34.923,7.851 L34.923,8.895 Z M45.314,4.566 L45.314,6.105 L42.128,6.105 L42.128,10.497 L43.073,10.497 L43.073,10.002 L45.314,10.002 L45.314,13.008 L46.286,13.008 L46.286,10.002 L48.536,10.002 L48.536,10.497 L49.481,10.497 L49.481,6.105 L46.286,6.105 L46.286,4.566 L45.314,4.566 Z M43.073,9.084 L43.073,7.023 L45.314,7.023 L45.314,9.084 L43.073,9.084 Z M46.286,9.084 L46.286,7.023 L48.536,7.023 L48.536,9.084 L46.286,9.084 Z" id="结束中" fill="#FFFFFF" fill-rule="nonzero"></path>
                </g>
            </g>
        </g>
    </g>
</svg>