<?xml version="1.0" encoding="UTF-8"?>
<svg width="49px" height="49px" viewBox="0 0 49 49" version="1.1" xmlns="http://www.w3.org/2000/svg" xmlns:xlink="http://www.w3.org/1999/xlink">
    <!-- Generator: Sketch 59.1 (86144) - https://sketch.com -->
    <title>分组备份 26@2x</title>
    <desc>Created with Sketch.</desc>
    <g id="页面-1" stroke="none" stroke-width="1" fill="none" fill-rule="evenodd">
        <g id="状态角标" transform="translate(-1373.000000, -402.000000)">
            <g id="分组备份-26" transform="translate(1372.000000, 389.000000)">
                <g id="编组-3" transform="translate(31.353553, 31.646447) rotate(45.000000) translate(-31.353553, -31.646447) translate(-3.646447, 23.146447)">
                    <polygon id="矩形" fill="#98A7B5" points="16.0683698 1.06157248 53.835396 0.965338282 69.375151 16.5050933 0.362011246 16.7679311"></polygon>
                    <path d="M28.123,8.859 L28.123,5.007 L21.256,5.007 L21.256,5.907 L27.169,5.907 L27.169,7.959 L22.57,7.959 L22.57,6.771 L21.634,6.771 L21.634,11.433 C21.634,12.243 22.012,12.648 22.786,12.648 L27.79,12.648 C28.15,12.63 28.447,12.522 28.663,12.324 C28.843,12.126 28.996,11.451 29.113,10.299 L28.195,10.011 L28.1680942,10.4071475 C28.1150118,11.0827988 28.0406154,11.4793846 27.934,11.586 C27.808,11.694 27.673,11.748 27.529,11.748 L23.056,11.748 C22.732,11.748 22.57,11.586 22.57,11.262 L22.57,8.859 L28.123,8.859 Z M34.608,10.965 C33.681,11.289 32.601,11.541 31.368,11.73 L31.485,12.648 C32.655,12.441 33.69,12.171 34.608,11.847 L34.608,10.965 Z M32.754,4.557 C32.439,5.52 32.07,6.402 31.638,7.203 C31.521,7.365 31.395,7.482 31.251,7.545 L31.476,8.4 L32.388,8.27666667 C32.536,8.257 32.682,8.238 32.826,8.22 L32.5606667,8.65123457 C32.2635556,9.11833333 32.01,9.459 31.8,9.669 C31.683,9.777 31.539,9.867 31.377,9.939 L31.629,10.785 C32.529,10.668 33.483,10.434 34.5,10.092 L34.5,9.255 C33.906,9.453 33.33,9.615 32.754,9.741 C33.258,9.093 33.888,8.094 34.626,6.735 L33.807,6.429 C33.627,6.762 33.465,7.077 33.312,7.374 C32.988,7.419 32.664,7.455 32.34,7.491 C32.781,6.816 33.213,5.952 33.636,4.899 L32.754,4.557 Z M34.464,5.628 L34.464,6.528 L36.507,6.528 L36.507,7.59 L34.761,7.59 L34.761,8.49 L39.234,8.49 L39.234,7.59 L37.452,7.59 L37.452,6.528 L39.495,6.528 L39.495,5.628 L37.452,5.628 L37.452,4.638 L36.507,4.638 L36.507,5.628 L34.464,5.628 Z M39.063,9.12 L34.95,9.12 L34.95,12.909 L35.868,12.909 L35.868,12.576 L38.154,12.576 L38.154,12.909 L39.063,12.909 L39.063,9.12 Z M35.868,11.694 L35.868,10.002 L38.154,10.002 L38.154,11.694 L35.868,11.694 Z M41.903,5.43 L41.903,6.339 L45.323,6.339 L45.323,6.978 L42.533,6.978 L42.533,9.75 L44.603,9.75 C43.946,10.596 42.947,11.298 41.597,11.856 L42.146,12.729 C43.595,11.973 44.657,11.01 45.323,9.84 L45.323,12.936 L46.277,12.936 L46.277,9.858 C46.907,10.911 47.933,11.865 49.373,12.729 L50.03,11.91 C48.635,11.28 47.618,10.56 46.988,9.75 L49.085,9.75 L49.085,6.978 L46.277,6.978 L46.277,6.339 L49.679,6.339 L49.679,5.43 L46.277,5.43 L46.277,4.629 L45.323,4.629 L45.323,5.43 L41.903,5.43 Z M48.14,8.895 L46.277,8.895 L46.277,7.851 L48.14,7.851 L48.14,8.895 Z M45.323,8.895 L43.478,8.895 L43.478,7.851 L45.323,7.851 L45.323,8.895 Z" id="已结束" fill="#FFFFFF" fill-rule="nonzero"></path>
                </g>
            </g>
        </g>
    </g>
</svg>