<?xml version="1.0" encoding="UTF-8"?>
<svg width="49px" height="49px" viewBox="0 0 49 49" version="1.1" xmlns="http://www.w3.org/2000/svg" xmlns:xlink="http://www.w3.org/1999/xlink">
    <!-- Generator: Sketch 59.1 (86144) - https://sketch.com -->
    <title>分组备份 28@2x</title>
    <desc>Created with Sketch.</desc>
    <g id="页面-1" stroke="none" stroke-width="1" fill="none" fill-rule="evenodd">
        <g id="状态角标" transform="translate(-1373.000000, -194.000000)">
            <g id="分组备份-28" transform="translate(1372.000000, 181.000000)">
                <g id="编组-3" transform="translate(31.353553, 31.646447) rotate(45.000000) translate(-31.353553, -31.646447) translate(-3.646447, 23.146447)">
                    <polygon id="矩形" fill="#4D94FF" points="16.0683698 1.06157248 53.835396 0.965338282 69.375151 16.5050933 0.362011246 16.7679311"></polygon>
                    <path d="M24.541,4.647 L24.541,5.889 L21.652,5.889 L21.652,11.163 L22.579,11.163 L22.579,10.641 L24.541,10.641 L24.541,12.891 L25.495,12.891 L25.495,10.641 L27.421,10.641 L27.421,11.1 L28.348,11.1 L28.348,5.889 L25.495,5.889 L25.495,4.647 L24.541,4.647 Z M22.579,9.759 L22.579,8.67 L24.541,8.67 L24.541,9.759 L22.579,9.759 Z M25.495,9.759 L25.495,8.67 L27.421,8.67 L27.421,9.759 L25.495,9.759 Z M22.579,7.833 L22.579,6.762 L24.541,6.762 L24.541,7.833 L22.579,7.833 Z M25.495,7.833 L25.495,6.762 L27.421,6.762 L27.421,7.833 L25.495,7.833 Z M36.282,4.611 L36.282,5.106 L34.212,5.106 L34.212,5.862 L36.282,5.862 L36.282,6.24 L34.59,6.24 L34.59,6.978 L36.282,6.978 L36.282,7.365 L33.96,7.365 L33.96,8.139 L39.54,8.139 L39.54,7.365 L37.191,7.365 L37.191,6.978 L39.009,6.978 L39.009,6.24 L37.191,6.24 L37.191,5.862 L39.324,5.862 L39.324,5.106 L37.191,5.106 L37.191,4.611 L36.282,4.611 Z M35.463,10.407 L38.037,10.407 L38.037,10.848 L35.463,10.848 L35.463,10.407 Z M38.037,9.705 L35.463,9.705 L35.463,9.255 L38.037,9.255 L38.037,9.705 Z M35.463,11.559 L38.037,11.559 L38.037,11.811 C38.037,12 37.956,12.099 37.794,12.099 L37.083,12.063 L37.308,12.882 L38.055,12.882 C38.64,12.882 38.937,12.585 38.937,12.009 L38.937,8.499 L34.581,8.499 L34.581,12.936 L35.463,12.936 L35.463,11.559 Z M32.502,4.674 L31.836,5.313 C32.475,5.781 32.97,6.213 33.312,6.627 L33.96,5.979 C33.555,5.547 33.069,5.106 32.502,4.674 Z M31.224,7.266 L31.224,8.166 L32.421,8.166 L32.421,11.343 C32.421,11.541 32.34,11.712 32.187,11.847 L32.538,12.693 C33.132,12.27 33.699,11.793 34.239,11.262 L33.987,10.272 L33.5463333,10.7253333 C33.474,10.798 33.402,10.869 33.33,10.938 L33.33,7.266 L31.224,7.266 Z M45.314,4.566 L45.314,6.105 L42.128,6.105 L42.128,10.497 L43.073,10.497 L43.073,10.002 L45.314,10.002 L45.314,13.008 L46.286,13.008 L46.286,10.002 L48.536,10.002 L48.536,10.497 L49.481,10.497 L49.481,6.105 L46.286,6.105 L46.286,4.566 L45.314,4.566 Z M43.073,9.084 L43.073,7.023 L45.314,7.023 L45.314,9.084 L43.073,9.084 Z M46.286,9.084 L46.286,7.023 L48.536,7.023 L48.536,9.084 L46.286,9.084 Z" id="申请中" fill="#FFFFFF" fill-rule="nonzero"></path>
                </g>
            </g>
        </g>
    </g>
</svg>