<?xml version="1.0" encoding="UTF-8"?>
<svg width="13px" height="13px" viewBox="0 0 13 13" version="1.1" xmlns="http://www.w3.org/2000/svg" xmlns:xlink="http://www.w3.org/1999/xlink">
    <!-- Generator: Sketch 55.2 (78181) - https://sketchapp.com -->
    <title>提醒备份_slice</title>
    <desc>Created with Sketch.</desc>
    <g id="页面1" stroke="none" stroke-width="1" fill="none" fill-rule="evenodd">
        <g id="画板" transform="translate(-155.000000, -227.000000)" fill="#FF5715" fill-rule="nonzero">
            <g id="提醒备份" transform="translate(155.000000, 227.000000)">
                <path d="M13.0000179,6.50082006 C12.9967651,10.0904492 10.0863867,13.0008276 6.49919506,13.0000153 C2.91281589,13.0000153 -0.00243750284,10.0863867 -1.52742119e-06,6.49999847 C0.00325000378,2.90794088 2.90062838,-0.00243750284 6.50407007,-1.52997696e-06 C10.1026368,0.00325000378 13.0032651,2.91525339 13.0000179,6.50082006 L13.0000179,6.50082006 Z M7.59525884,2.16856502 L5.40069378,2.16856502 C5.50550641,4.21687991 5.61031903,6.25788228 5.71431915,8.30132216 L7.28163347,8.30132216 C7.38563359,6.25706978 7.49044622,4.21525491 7.59525884,2.16856502 L7.59525884,2.16856502 Z M6.46019502,11.2230767 C7.11263328,11.2214506 7.5603213,10.7802625 7.5627588,10.1375743 C7.56763381,9.48676104 7.11669578,9.03176051 6.47238253,9.03176051 C5.83213179,9.03338551 5.36981875,9.49813605 5.37143948,10.1391993 C5.37225625,10.7770125 5.82238178,11.2238881 6.46019502,11.2230767 L6.46019502,11.2230767 Z" id="形状"></path>
            </g>
        </g>
    </g>
</svg>