<?xml version="1.0" encoding="UTF-8"?>
<svg width="166px" height="191px" viewBox="0 0 166 191" version="1.1" xmlns="http://www.w3.org/2000/svg" xmlns:xlink="http://www.w3.org/1999/xlink">
    <!-- Generator: Sketch 55.2 (78181) - https://sketchapp.com -->
    <title>失败界面_slice</title>
    <desc>Created with Sketch.</desc>
    <g id="页面1" stroke="none" stroke-width="1" fill="none" fill-rule="evenodd">
        <g id="画板" transform="translate(-105.000000, -159.000000)">
            <g id="失败界面" transform="translate(105.000000, 159.000000)">
                <g id="编组" transform="translate(0.000000, 9.612069)">
                    <path d="M41.2998844,63.4662607 L28.0405688,73.3164995 L28.0405688,63.4662607 L24.4888889,63.4662607 C21.1751804,63.4662607 18.4888889,60.7799692 18.4888889,57.4662607 L18.4888889,6 C18.4888889,2.6862915 21.1751804,-2.79460044e-16 24.4888889,0 L98.9043478,0 C102.218056,7.33259634e-15 104.904348,2.6862915 104.904348,6 L104.904348,57.4662607 C104.904348,60.7799692 102.218056,63.4662607 98.9043478,63.4662607 L41.2998844,63.4662607 Z" id="形状结合" fill="#DCEBFF"></path>
                    <rect id="矩形备份-2" fill="#DCEBFF" x="9.64830918" y="87.9855201" width="131.833816" height="92.1982759" rx="3.6"></rect>
                    <rect id="矩形备份-2" fill="#FFFFFF" x="32.9584541" y="7.63201869" width="62.2995169" height="27.3145932" rx="3.2"></rect>
                    <rect id="矩形备份-7" fill="#FFFFFF" x="17.6869565" y="98.4293351" width="45.8202899" height="32.9381859" rx="3.2"></rect>
                    <rect id="矩形备份-8" fill="#FFFFFF" x="68.3304348" y="98.4293351" width="65.5149758" height="8.03370389" rx="3.2"></rect>
                    <rect id="矩形备份-13" fill="#FFFFFF" x="17.6425121" y="141.905172" width="116.280193" height="8.03370389" rx="3.2"></rect>
                    <rect id="矩形备份-9" fill="#FFFFFF" x="68.3304348" y="110.078206" width="65.5149758" height="2.81179636" rx="1.40589818"></rect>
                    <rect id="矩形备份-14" fill="#FFFFFF" x="17.6425121" y="153.554043" width="55.3333333" height="2.81179636" rx="1.40589818"></rect>
                    <rect id="矩形备份-10" fill="#FFFFFF" x="68.3304348" y="116.505169" width="65.5149758" height="2.81179636" rx="1.40589818"></rect>
                    <rect id="矩形备份-15" fill="#FFFFFF" x="17.6425121" y="159.981006" width="30.47343" height="2.81179636" rx="1.40589818"></rect>
                    <rect id="矩形备份-17" fill="#FFFFFF" x="53.7294686" y="159.981006" width="31.2753623" height="2.81179636" rx="1.40589818"></rect>
                    <rect id="矩形备份-11" fill="#FFFFFF" x="68.3304348" y="122.932132" width="65.5149758" height="2.81179636" rx="1.40589818"></rect>
                    <rect id="矩形备份-16" fill="#FFFFFF" x="17.6425121" y="166.407969" width="100.241546" height="2.81179636" rx="1.40589818"></rect>
                    <rect id="矩形备份-4" fill="#FFFFFF" x="32.9584541" y="41.373575" width="62.2995169" height="1.60674078" rx="0.803370389"></rect>
                    <rect id="矩形备份-6" fill="#FFFFFF" x="32.9584541" y="52.6207605" width="62.2995169" height="4.82022233" rx="2.41011117"></rect>
                    <rect id="矩形备份-5" fill="#FFFFFF" x="32.9584541" y="46.9971677" width="47.4280193" height="1.60674078" rx="0.803370389"></rect>
                    <path d="M155.369516,128.95741 L155.369516,137.903702 C150.320696,133.826366 146.416202,130.844269 143.656034,128.95741 L85.5845411,128.95741 C82.2708326,128.95741 79.5845411,126.271118 79.5845411,122.95741 L79.5845411,80.7299087 C79.5845411,77.4162002 82.2708326,74.7299087 85.5845411,74.7299087 L160,74.7299087 C163.313708,74.7299087 166,77.4162002 166,80.7299087 L166,122.95741 C166,126.271118 163.313708,128.95741 160,128.95741 L155.369516,128.95741 Z" id="形状结合" fill="#B4D6FF"></path>
                    <ellipse id="椭圆形" fill="#98B8E3" cx="93.6521739" cy="85.1737237" rx="4.82318841" ry="4.82022233"></ellipse>
                    <rect id="矩形备份-2" fill="#FFFFFF" x="88.8289855" y="93.6091128" width="69.9362319" height="28.921334" rx="3.2"></rect>
                    <rect id="矩形备份-18" fill="#FFFFFF" x="102.494686" y="81.9602422" width="29.3410628" height="2.00842597" rx="1.00421299"></rect>
                    <rect id="矩形备份-19" fill="#FFFFFF" x="102.494686" y="85.9770941" width="47.026087" height="2.00842597" rx="1.00421299"></rect>
                    <polygon id="路径-22" fill="#B4D6FF" points="107.737218 117.990633 135.369578 117.990633 128.891946 108.06978 123.797101 113.030207 115.738165 100.286411"></polygon>
                    <ellipse id="椭圆形" fill="#B4D6FF" cx="138.0657" cy="101.843659" rx="3.41642512" ry="3.41432415"></ellipse>
                    <ellipse id="椭圆形" stroke="#EAEAEA" stroke-width="0.5" fill="#FFFFFF" cx="18.4888889" cy="34.5449267" rx="18.7388889" ry="18.7275189"></ellipse>
                    <ellipse id="椭圆形" stroke="#FFFFFF" stroke-width="0.5" fill="#FF765C" cx="18.4888889" cy="34.5449267" rx="13.5137681" ry="13.5056114"></ellipse>
                    <path d="M18.53611,34.993804 L12.8618357,29.3230192 L18.53611,34.993804 L24.2103842,29.3230192 L18.53611,34.993804 Z M18.53611,34.993804 L24.2103842,40.6645888 L18.53611,34.993804 L12.8618357,40.6645888 L18.53611,34.993804 Z" id="形状结合" stroke="#FFFFFF" stroke-width="2.4" stroke-linecap="round" stroke-linejoin="round"></path>
                </g>
                <g id="编组-2" transform="translate(39.793237, 4.004939)">
                    <polygon id="路径-35" fill="#FECAC5" points="39.528316 153.150194 36.8743211 157.874101 41.0673805 158.991718 43.1992622 153.150194"></polygon>
                    <polygon id="路径-36" fill="#FECAC5" points="17.8019936 110.958565 13.8864317 115.797439 16.7354349 117.648024 20.4722392 111.863"></polygon>
                    <path d="M82.5502551,70.075928 C62.6589523,71.7286 51.1279246,73.0434629 47.9571719,74.0205166 C44.7864193,74.9975704 41.6235872,77.7323047 38.4686757,82.2247196 L16.8137365,109.657226 L14.8334213,111.863 L18.3509022,115.310833 C37.2768689,98.2436799 47.4897607,88.2764598 48.9895776,85.4091732 C55.9178503,85.8580365 63.8179496,85.6540999 72.6898757,84.7973636 L52.4051977,109.657226 C50.9562824,110.823418 49.9751604,113.123437 49.4618315,116.557281 C48.4587251,120.95744 44.5980951,132.428007 37.8799416,150.968983 L36.6744529,154.260275 L42.2672749,156.320642 L44.2009909,152.959342 C56.1904973,132.240434 62.1852504,118.986748 62.1852504,113.198285 C74.0785126,105.431739 83.7893264,99.5426846 91.3176919,95.5311212 C98.405852,92.096262 101.949932,87.8956769 101.949932,82.9293659 C101.949932,77.963055 102.117547,73.6785757 102.452777,70.075928 L82.5502551,70.075928 Z" id="路径-34" fill="#303763"></path>
                    <path d="M76.3877063,67.0319382 C72.9640686,67.4661172 69.2741452,65.2737778 65.3179361,60.4549201 C61.361727,55.6360623 59.0513216,52.9325897 58.38672,52.3445022 L52.8195691,42.0834012 C57.4119463,42.836168 60.3315698,45.7123622 61.5784395,50.7119836 C62.8253092,55.7116051 65.8596556,58.9592506 70.6814786,60.4549201 L76.3877063,67.0319382 Z" id="路径-33" fill="#FDB0B0"></path>
                    <path d="M72.4032715,35.6357812 C70.8153203,46.3922072 70.4183325,53.9910816 71.2123081,58.4324045 C70.9437222,59.7226807 70.766779,60.678418 70.6814786,61.2996163 L76.3877063,67.0319382 L78.7126993,54.9401142 L72.4032715,35.6357812 Z" id="路径-32" fill="#E8AE05"></path>
                    <path d="M92.1218004,25.1471784 C81.421313,26.939921 75.2612757,28.9173812 73.6416886,31.0795589 C72.0221016,33.2417365 71.4553508,36.6262144 71.9414364,41.2329925 L79.1400619,68.1298023 L79.1400619,70.2365984 C86.8453608,73.564316 94.5213423,73.9134954 102.168006,71.2841366 C103.185262,67.6443522 103.452453,66.5929074 102.969578,68.1298023 C108.985276,50.6432566 111.168789,40.7984429 109.520117,38.595361 C107.168748,32.5132741 101.369309,28.0305465 92.1218004,25.1471784 Z" id="路径-29" fill="#FFC300"></path>
                    <path d="M53.2159045,42.8334268 L49.7130051,39.1950079 C49.549359,39.0250307 49.3190236,38.9359628 49.083594,38.9516223 L45.8881072,39.1641695 C45.4472536,39.1934928 45.1136423,39.5746466 45.1429656,40.0155002 C45.1545654,40.1898946 45.2229581,40.3556919 45.3376876,40.4875444 L52.8195691,49.0860754 L56.2427437,50.2106493 L53.2159045,42.8334268 Z" id="路径-42" fill="#5A64A2"></path>
                    <path d="M85.5139359,60.332037 L62.328093,50.7119836 L57.5234908,49.0860754 C57.1109779,46.3194162 55.6751158,44.2352 53.2159045,42.8334268 C53.3685849,44.5366961 53.8178882,46.0621011 54.5638145,47.4096417 C52.1298966,46.811705 50.3407312,45.8995184 49.1963184,44.6730817 C48.2640255,47.7274535 50.5901015,49.8412354 54.0567961,50.7119836 C55.7827279,51.5646792 59.5723737,53.7323281 65.4257336,57.2149301 C76.6275044,63.7596021 82.8564717,67.0319382 84.1126355,67.0319382 C85.9968811,67.0319382 87.4486126,67.4769437 88.940492,63.4970569 C89.9350782,60.8437991 88.7928928,59.7887924 85.5139359,60.332037 Z" id="路径-31" fill="#FECAC5"></path>
                    <path d="M88.1552948,25.1471784 L85.5139359,26.1291806 L80.9894737,31.0327066 L85.5139359,28.7048458 L89.0453443,30.2971435 C89.4280952,32.178319 89.6194707,33.1189067 89.6194707,33.1189067 C89.6194707,33.1189067 92.0434839,30.788998 96.8915102,26.1291806 L94.17218,25.1471784 L88.1552948,25.1471784 Z" id="路径-28" fill="#FFFFFF"></path>
                    <path d="M87.4606053,23.4777404 L87.4606053,28.7048458 L94.17218,25.6782425 C92.5099992,22.9068028 91.3973738,20.5773366 90.8343037,18.6898437 C90.2712336,16.8023509 89.1466674,18.3983165 87.4606053,23.4777404 Z" id="路径-27" fill="#FECAC5"></path>
                    <path d="M95.1319034,14.8951728 C96.2378054,17.0323944 95.9091314,18.6169091 94.1458815,19.6487167 C92.3826317,20.6805244 91.1447949,21.1964282 90.4323713,21.1964282 L90.4323713,15.5811044 L95.1319034,14.8951728 Z" id="路径-26" fill="#FECAC5"></path>
                    <path d="M77.4414039,8.43083678 C77.90206,19.9291073 80.592904,25.6782425 85.5139359,25.6782425 C89.6901011,24.8264027 92.169653,21.9518351 92.9525916,17.0545396 L90.6810394,5.05951182 L81.8239342,4.11210304 L77.4414039,8.43083678 Z" id="路径-24" fill="#FECAC5"></path>
                    <path d="M90.5627924,2.93237431 C87.9662848,-0.278027681 85.2678788,-0.852336905 82.4675743,1.20944664 C79.6672698,3.27123018 76.8512886,4.78533848 74.0196307,5.75177154 C72.8416395,9.17345486 74.4173707,10.8842965 78.7468242,10.8842965 C83.4247481,10.5561838 86.8973586,9.24753762 89.1646557,6.95835806 C88.2097214,8.87600476 89.1951133,10.6051993 92.1208313,12.1459415 C91.4543481,13.9633191 91.4543481,16.1446199 92.1208313,18.6898437 C93.713135,16.1155239 95.0239301,15.6229072 96.0532167,17.2119935 C97.8305053,12.4219054 97.8305053,8.03625098 96.0532167,4.05503022 C95.1449946,2.68706441 94.2760581,1.91825997 93.4464073,1.74861691 C92.6167565,1.57897385 91.6555515,1.97355965 90.5627924,2.93237431 Z" id="路径-23" fill="#391E15"></path>
                    <path d="" id="路径-25" stroke="#979797" stroke-width="0.5"></path>
                    <path d="M86.4590611,58.2276537 C92.8403638,44.0570308 97.5250522,36.3295839 100.513126,35.045313 C103.666987,33.9454956 105.950754,34.2343528 107.364427,35.9118846 C108.912155,38.6231711 108.912155,41.4966912 107.364427,44.5324448 C105.816699,47.5681985 100.17268,54.4324059 90.4323713,65.1250671 L86.4590611,67.0319382 C84.77631,63.345045 84.3556222,60.5923991 85.1969978,58.7740006 C85.5635466,58.3003851 85.9842344,58.1182695 86.4590611,58.2276537 Z" id="路径-30" fill="#FDD45B"></path>
                    <path d="M18.6106795,117.648024 L14.8334213,114.940955 L1.15486839,114.303294 C-0.384956129,115.491999 -0.384956129,116.346631 1.15486839,116.867188 C3.46460516,117.648024 13.0785192,120.763246 14.8334213,121.920183 C16.8181715,122.428773 18.0772576,121.00472 18.6106795,117.648024 Z" id="路径-37" fill="#303763"></path>
                    <path d="M35.7893734,157.037278 C35.7893734,157.037278 37.751716,157.303825 41.6764011,157.836919 C42.8267162,159.530225 42.6237094,160.730755 41.0673805,161.438508 C39.5110517,162.14626 35.7970711,164.040011 29.9254389,167.119761 C25.8852883,167.573646 25.4408176,166.608464 28.5920267,164.224215 C33.3188403,160.647842 35.7893734,157.037278 35.7893734,157.037278 Z" id="路径-38" fill="#303763"></path>
                    <path d="M90.4411775,65.1153997 C90.4382425,65.1186218 90.4353071,65.1218443 90.4323713,65.1250671 L86.4590611,67.0319382 C84.77631,63.345045 84.3556222,60.5923991 85.1969978,58.7740006 C85.5590162,58.3062388 85.9738436,58.1228157 86.4414799,58.2237315 C87.5473338,61.5826547 88.8805663,63.8798774 90.4411775,65.1153997 Z" id="形状结合" fill="#FFFFFF"></path>
                </g>
                <g id="wenhao" transform="translate(152.000000, 13.500000) rotate(32.000000) translate(-152.000000, -13.500000) translate(146.000000, 2.000000)" fill="#B4D6FF" fill-rule="nonzero">
                    <path d="M5.97855822,0.911308684 C4.16681157,0.911308684 2.74329635,1.55718024 1.70801255,2.90763896 C0.776257125,4.14066648 0.28449732,5.72598758 0.28449732,7.72231786 L1.83742302,7.72231786 C1.83742302,6.19571235 2.14800816,4.96268483 2.76917844,4.08195089 C3.46799501,3.02507015 4.50327881,2.49662978 5.90091194,2.49662978 C7.1173704,2.49662978 8.07500792,2.84892336 8.74794239,3.61222612 C9.36911267,4.34617107 9.7055799,5.34433621 9.7055799,6.60672153 C9.7055799,7.48745547 9.42087686,8.30947382 8.87735286,9.10213437 C8.6702961,9.39571235 8.25618258,9.86543712 7.68677649,10.5113087 C6.44443593,11.7443362 5.66797308,12.8305747 5.30562375,13.7113087 C4.99503861,14.4158958 4.83974604,15.2085564 4.83974604,16.0599325 L4.83974604,16.9113087 L6.41855384,16.9113087 L6.41855384,16.0599325 C6.41855384,15.2379142 6.5997285,14.5039692 6.96207783,13.7993821 C7.22089878,13.3002995 7.6350123,12.7425013 8.25618258,12.1259876 C9.34323057,11.0103913 10.016165,10.2764463 10.3008681,9.86543712 L10.300868,9.86543718 C10.9454182,8.91481505 11.2915735,7.74722904 11.2844973,6.54800599 C11.2844973,4.84525369 10.8185099,3.49479498 9.88675453,2.49662984 C8.90323492,1.43974911 7.60913017,0.911308684 5.97855818,0.911308684 L5.97855822,0.911308684 Z M6.27785766,19.2859285 C5.86609295,19.2859285 5.48374001,19.4059285 5.18962236,19.7059285 C4.89550471,19.9759285 4.77785766,20.3359285 4.77785766,20.7859285 C4.77785766,21.2059285 4.89550471,21.5359285 5.18962236,21.8359285 C5.48374001,22.1359285 5.86609295,22.2859285 6.27785766,22.2859285 C6.68962236,22.2859285 7.04256354,22.1359285 7.33668119,21.8659285 C7.63079883,21.5659285 7.77785766,21.2059285 7.77785766,20.7859285 C7.77785766,20.3359285 7.63079883,19.9759285 7.33668119,19.7059285 C7.04256354,19.4059285 6.68962236,19.2859285 6.27785766,19.2859285 L6.27785766,19.2859285 Z" id="形状"></path>
                </g>
            </g>
        </g>
    </g>
</svg>