<?xml version="1.0" encoding="UTF-8"?>
<svg width="30px" height="31px" viewBox="0 0 30 31" version="1.1" xmlns="http://www.w3.org/2000/svg" xmlns:xlink="http://www.w3.org/1999/xlink">
    <!-- Generator: Sketch 55.2 (78181) - https://sketchapp.com -->
    <title>女_slice</title>
    <desc>Created with Sketch.</desc>
    <g id="页面1" stroke="none" stroke-width="1" fill="none" fill-rule="evenodd">
        <g id="画板" transform="translate(-15.000000, -215.000000)">
            <g id="女" transform="translate(15.000000, 215.000000)">
                <circle id="椭圆形" fill="#F0F9FE" cx="15" cy="15" r="15"></circle>
                <path d="M7.03959946,22.1442277 C8.16888261,19.7198021 8.54531033,16.6871405 8.16888261,13.0462427 C7.8220956,7.16503995 9.58842169,4.4850371 11.9135797,3.38742786 C14.030734,2.45643853 17.4119951,2.03143782 20.0486281,5.45918531 C21.3274315,8.2092629 20.975451,8.80025526 21.21854,12.4661762 C21.4029081,15.9524343 19.7064656,20.0580354 22.3363198,20.6964821 C24.089556,21.1221133 24.9906492,21.9076695 25.0395995,23.0531506 C22.9322896,24.4654006 21.6586031,25.1715256 21.21854,25.1715256 C20.7784769,25.1715256 16.0521634,24.1624263 7.03959946,22.1442277 Z" id="路径-7" fill="#FF765C"></path>
                <g id="编组" transform="translate(8.727273, 6.545455)">
                    <path d="M2.91041271,9.88976109 C2.68646413,12.6835584 2.15119275,14.228134 1.30459856,14.5234881 C0.458004371,14.8188422 0.0524729343,15.7941869 0.0880042512,17.4495223 C0.633036297,17.7209548 1.25602031,18.0291796 1.95695629,18.3741967 C3.00836026,18.8917225 7.29074195,19.8100354 7.58644931,19.8100354 C7.88215668,19.8100354 9.01562588,19.0606981 9.67790136,18.7174474 C10.3401768,18.3741967 11.9757947,16.9247701 11.9757947,16.6672186 C11.9757947,16.4955175 11.9394359,15.7922366 11.8667181,14.5573759 C9.85075969,14.7747489 8.84278048,13.2552027 8.84278048,9.99873734 C8.84278048,6.74227196 6.86532455,6.70594654 2.91041271,9.88976109 Z" id="路径-4" fill="#FBF5F4"></path>
                    <path d="M3.60311699,12.1419321 C6.164014,9.86975397 9.13244681,7.59809744 9.13244681,10.6241672 C9.13244681,13.3794937 9.81606976,14.5956493 11.1833157,14.272634 C11.229791,14.2616541 11.2966926,14.3512676 11.374762,14.505939 C8.1680142,15.1140675 5.57746587,14.3260653 3.60311699,12.1419321 Z" id="形状结合" fill="#EAE4E1"></path>
                    <path d="M1.13151129,4.59236259 C1.33727431,7.50393993 1.16513408,9.73895445 3.54933287,12.1447774 C6.25700715,14.4288835 6.63809837,14.3761562 9.09992223,12.3348939 C11.1593746,10.1717946 11.9601983,5.58207471 11.3231182,4.52096763 C10.8983982,3.81356292 10.4821337,2.79635097 10.0743248,1.46933181 L5.26461962,0 L2.17763667,0 C1.31311427,0.457229366 0.964405814,1.9880169 1.13151129,4.59236259 Z" id="路径-2" fill="#FBF5F4"></path>
                </g>
                <path d="M9.45206734,11.0822333 L10.5445963,11.3470612 C11.6857957,9.39708128 12.488249,8.42209134 12.9519563,8.42209134 C13.5219476,9.12623046 16.4877721,12.2658368 18.7402529,12.2658368 C20.5025617,11.0431753 19.9705333,9.32040746 19.9705333,9.02384009 C19.9705333,8.72727273 19.6085612,6.01947668 19.1744071,5.73530234 C18.884971,5.54585278 17.1278476,5.14079331 13.9030369,4.52012394 C11.1798002,5.09041944 9.81818182,5.4954789 9.81818182,5.73530234 C9.81818182,5.97512577 9.58803451,7.07130502 9.12773991,9.02384009 L9.45206734,11.0822333 Z" id="路径-8" fill="#FF765C"></path>
                <path d="M20.7030674,12.6370652 L19.7692369,14.1818182 C19.1690597,16.5914145 18.630027,18.0275136 18.1521391,18.4901156 C17.6742511,18.9527176 18.2132837,19.2580588 19.7692369,19.4061392 C20.5849015,16.7748054 20.9927338,15.4591385 20.9927338,15.4591385 C20.9927338,15.4591385 20.8961783,14.5184474 20.7030674,12.6370652 Z" id="路径-9" fill="#FF765C"></path>
                <path d="M2.16795353,22.2444265 C4.90929697,20.9504807 7.73476968,20.1242841 10.6443716,19.7658368 C11.4215976,21.8104343 12.9537625,23.2014277 14.7168163,23.2014277 C16.4301208,23.2014277 17.9253829,21.8878279 18.7216759,19.9373408 C21.1788904,20.3268127 23.6903061,21.017637 26.2559229,22.0098137 C26.7569319,22.2035641 27.2129679,22.4014694 27.6267263,22.602927 C24.9586616,27.1303996 20.3003801,30.1294731 15,30.1294731 C9.560934,30.1294731 4.79800754,26.9714032 2.16795353,22.2444265 Z" id="形状结合" fill="#FF765C"></path>
            </g>
        </g>
    </g>
</svg>