<?xml version="1.0" encoding="UTF-8"?>
<svg width="18px" height="20px" viewBox="0 0 18 20" version="1.1" xmlns="http://www.w3.org/2000/svg" xmlns:xlink="http://www.w3.org/1999/xlink">
    <!-- Generator: Sketch 55.2 (78181) - https://sketchapp.com -->
    <title>功能图标_slice</title>
    <desc>Created with Sketch.</desc>
    <g id="页面1" stroke="none" stroke-width="1" fill="none" fill-rule="evenodd">
        <g id="画板" transform="translate(-337.000000, -42.000000)" fill="#FFFFFF" fill-rule="nonzero">
            <g id="功能图标" transform="translate(337.000000, 42.000000)">
                <path d="M6.44444444,3.81612903 C6.66666667,3.81612903 6.88888889,4.03548387 6.88888889,4.25483871 L6.88888889,8.97096774 C6.88888889,9.19032258 6.66666667,9.40967742 6.44444444,9.40967742 L1.66666667,9.40967742 C1.44444444,9.40967742 1.22222222,9.19032258 1.22222222,8.97096774 L1.22222222,4.25483871 C1.22222222,4.03548387 1.44444444,3.81612903 1.66666667,3.81612903 L6.44444444,3.81612903 Z M6.44444444,2.5 L1.66666667,2.5 C0.777777778,2.5 7.10542736e-15,3.26774194 7.10542736e-15,4.25483871 L7.10542736e-15,8.97096774 C7.10542736e-15,9.95806452 0.777777778,10.7258065 1.66666667,10.7258065 L6.44444444,10.7258065 C7.33333333,10.7258065 8.11111111,9.95806452 8.11111111,8.97096774 L8.11111111,4.25483871 C8.11111111,3.26774194 7.44444444,2.5 6.44444444,2.5 Z M6.44444444,12.5903226 C6.66666667,12.5903226 6.88888889,12.8096774 6.88888889,13.0290323 L6.88888889,17.7451613 C6.88888889,17.9645161 6.66666667,18.183871 6.44444444,18.183871 L1.66666667,18.183871 C1.44444444,18.183871 1.22222222,17.9645161 1.22222222,17.7451613 L1.22222222,13.0290323 C1.22222222,12.8096774 1.44444444,12.5903226 1.66666667,12.5903226 L6.44444444,12.5903226 L6.44444444,12.5903226 Z M6.44444444,11.383871 L1.66666667,11.383871 C1.22222222,11.383871 0.777777778,11.4935484 0.444444444,11.8225806 C0.222222222,12.1516129 0,12.5903226 0,13.0290323 L0,17.7451613 C0,18.7322581 0.777777778,19.5 1.66666667,19.5 L6.44444444,19.5 C7.33333333,19.5 8.11111111,18.7322581 8.11111111,17.7451613 L8.11111111,13.0290323 C8.11111111,12.5903226 7.88888889,12.1516129 7.66666667,11.8225806 C7.33333333,11.4935484 6.88888889,11.383871 6.44444444,11.383871 L6.44444444,11.383871 Z M15.3333333,12.5903226 C15.5555556,12.5903226 15.7777778,12.8096774 15.7777778,13.0290323 L15.7777778,17.7451613 C15.7777778,17.9645161 15.5555556,18.183871 15.3333333,18.183871 L10.5555556,18.183871 C10.3333333,18.183871 10.1111111,17.9645161 10.1111111,17.7451613 L10.1111111,13.0290323 C10.1111111,12.8096774 10.3333333,12.5903226 10.5555556,12.5903226 L15.3333333,12.5903226 L15.3333333,12.5903226 Z M15.3333333,11.383871 L10.5555556,11.383871 C10.1111111,11.383871 9.66666667,11.4935484 9.33333333,11.8225806 C9,12.1516129 8.88888889,12.5903226 8.88888889,13.0290323 L8.88888889,17.7451613 C8.88888889,18.7322581 9.55555556,19.5 10.5555556,19.5 L15.3333333,19.5 C16.2222222,19.5 17,18.7322581 17,17.7451613 L17,13.0290323 C17,12.5903226 16.7777778,12.1516129 16.5555556,11.8225806 C16.2222222,11.4935484 15.7777778,11.383871 15.3333333,11.383871 L15.3333333,11.383871 Z" id="形状"></path>
                <path d="M17.5149344,4.07403571 C17.7574672,4.43143928 18,4.90797738 18,5.38451547 C18,5.86105357 17.7574672,6.33759166 17.393668,6.69499524 L14.3620082,9.67335833 C13.6344098,10.3881655 12.5430123,10.3881655 11.8154139,9.67335833 L8.78375405,6.69499524 C8.54122126,6.33759166 8.29868848,5.86105357 8.29868848,5.38451547 C8.29868848,4.90797738 8.54122126,4.43143928 8.78375405,4.07403571 L11.8154139,1.09567262 C12.1792131,0.738269048 12.6642787,0.5 13.1493442,0.5 C13.6344098,0.5 14.1194754,0.738269048 14.4832746,1.09567262 L17.5149344,4.07403571 Z M3,16.5 L6.57253137,12.9078962 L3,16.5 Z" id="形状"></path>
            </g>
        </g>
    </g>
</svg>