<?xml version="1.0" encoding="UTF-8"?>
<svg width="85px" height="85px" viewBox="0 0 85 85" version="1.1" xmlns="http://www.w3.org/2000/svg" xmlns:xlink="http://www.w3.org/1999/xlink">
    <!-- Generator: Sketch 55.2 (78181) - https://sketchapp.com -->
    <title>领取任务_slice</title>
    <desc>Created with Sketch.</desc>
    <defs>
        <path d="M80.5866243,23.6205892 C80.9375531,24.327226 80.6491948,25.1845523 79.942558,25.5354811 C79.2359212,25.88641 78.3785949,25.5980517 78.027666,24.8914148 C75.716478,20.2375635 72.5050129,16.0776681 68.5937128,12.655082 C67.9999612,12.1355192 67.9398192,11.2329994 68.4593821,10.6392477 C68.978945,10.045496 69.8814647,9.98535411 70.4752164,10.504917 C74.6669238,14.1728737 78.1088428,18.6312821 80.5866243,23.6205892 Z" id="path-1"></path>
        <filter x="-39.6%" y="-19.3%" width="179.2%" height="177.3%" filterUnits="objectBoundingBox" id="filter-2">
            <feOffset dx="0" dy="4" in="SourceAlpha" result="shadowOffsetOuter1"></feOffset>
            <feGaussianBlur stdDeviation="1" in="shadowOffsetOuter1" result="shadowBlurOuter1"></feGaussianBlur>
            <feColorMatrix values="0 0 0 0 0   0 0 0 0 0   0 0 0 0 0  0 0 0 0.05 0" type="matrix" in="shadowBlurOuter1"></feColorMatrix>
        </filter>
    </defs>
    <g id="页面1" stroke="none" stroke-width="1" fill="none" fill-rule="evenodd">
        <g id="画板" transform="translate(-116.000000, -44.000000)">
            <g id="领取任务" transform="translate(116.000000, 44.000000)">
                <g id="编组-2">
                    <path d="M13.7281657,11.2197956 C9.98775203,17.944554 7.85714286,25.6877475 7.85714286,33.9285714 C7.85714286,59.7676079 28.8038206,80.7142857 54.6428571,80.7142857 C57.2745046,80.7142857 59.8554038,80.4970066 62.3685939,80.0794092 C56.4392678,83.2208099 49.67741,85 42.5,85 C19.0278981,85 -2.06057393e-13,65.9721019 -2.06057393e-13,42.5 C-2.06057393e-13,30.1258608 5.28830934,18.9868724 13.7281638,11.219799 Z" id="形状结合" fill="#EEEFFC"></path>
                    <path d="M62.7821867,5.14296595 C63.4752392,5.52001334 63.7314121,6.38750078 63.3543647,7.08055336 C62.9773173,7.77360594 62.1098298,8.02977876 61.4167773,7.65273136 C55.6602737,4.52097089 49.2020579,2.85714286 42.5,2.85714286 C20.6058546,2.85714286 2.85714286,20.6058546 2.85714286,42.5 C2.85714286,64.3941454 20.6058546,82.1428571 42.5,82.1428571 C64.3941454,82.1428571 82.1428571,64.3941454 82.1428571,42.5 C82.1428571,39.4024208 81.7878567,36.3522751 81.0916789,33.3910429 C80.911115,32.6230043 81.3873574,31.85401 82.155396,31.6734462 C82.9234346,31.4928823 83.6924289,31.9691247 83.8729927,32.7371634 C84.6194638,35.9123205 85,39.1818685 85,42.5 C85,65.9721019 65.9721019,85 42.5,85 C19.0278981,85 0,65.9721019 0,42.5 C0,19.0278981 19.0278981,0 42.5,0 C49.6820562,0 56.6092531,1.78465148 62.7821867,5.14296595 Z" id="形状" fill="#0579FF" fill-rule="nonzero"></path>
                    <path d="M27.799857,25.3372031 C27.175009,24.7122656 26.1616583,24.7122656 25.5374666,25.3372031 C24.9123373,25.9618594 24.9123373,26.974875 25.5374666,27.6000469 L27.799857,29.8624219 C28.4247988,30.4873594 29.4373995,30.4873594 30.0625287,29.8624219 C30.6871893,29.2377656 30.6871893,28.2249844 30.0625287,27.6000469 L27.799857,25.3372031 Z M58.1999086,25.3372031 L55.9372369,27.6000469 C55.3125764,28.2249844 55.3125764,29.2377656 55.9372369,29.8624219 C56.5614286,30.4873594 57.5746856,30.4873594 58.1999086,29.8624219 L60.4620178,27.6000469 C61.087194,26.974875 61.087194,25.9620938 60.4620178,25.3372031 C59.8374042,24.7125 58.8248035,24.7125 58.1998617,25.3372031 L58.1999086,25.3372031 Z M23.7999859,37.9998281 L20.6001828,37.9998281 C19.7165361,37.9998281 19,38.7161719 19,39.5994844 C19,40.4833125 19.7163486,41.1997031 20.6001828,41.1997031 L23.8000328,41.1997031 C24.6836326,41.1997031 25.3999812,40.4833125 25.3999812,39.5994844 C25.3999812,38.7161719 24.6836795,37.9998281 23.8000328,37.9998281 L23.7999859,37.9998281 Z M65.3996297,37.9998281 L62.1996859,37.9998281 C61.3160861,37.9998281 60.5994562,38.7161719 60.5994562,39.5994844 C60.5994562,40.4833125 61.3160393,41.1997031 62.1996859,41.1997031 L65.3995828,41.1997031 C66.2831826,41.1997031 67,40.4833125 67,39.5994844 C67,38.7161719 66.2831357,37.9998281 65.3995828,37.9998281 L65.3996297,37.9998281 Z M41.3998406,19.5999375 L41.3998406,22.7998125 C41.3998406,23.6836406 42.1161893,24.3996563 42.9997891,24.3996563 C43.8831076,24.3996563 44.5999719,23.6836406 44.5999719,22.7998125 L44.5999719,19.5999375 C44.5999719,18.7163438 43.8831076,18 42.9997891,18 C42.1161893,18 41.3998406,18.7163438 41.3998406,19.5999375 L41.3998406,19.5999375 Z M31.7999625,41.999625 C31.7999625,35.8142344 36.8140749,30.799875 42.9997891,30.799875 C49.1854563,30.799875 54.19985,35.8142344 54.19985,41.999625 C54.19985,48.18525 49.1854563,53.1997969 42.9997891,53.1997969 C36.8140749,53.1997969 31.7999625,48.1852031 31.7999625,41.999625 Z M28.6001125,41.999625 C28.6001125,49.9531875 35.0466409,56.4001875 42.9997422,56.4001875 C50.9528434,56.4001875 57.3997,49.9531875 57.3997,41.999625 C57.3997,34.0465781 50.9528903,27.6000937 42.9997891,27.6000937 C35.0466878,27.6000937 28.6001125,34.0465781 28.6001125,41.999625 Z M39.7998922,64.3997813 C39.7998922,65.2829063 40.5162408,66 41.3998406,66 L44.5999719,66 C45.4835717,66 46.1999203,65.2829531 46.1999203,64.3998281 C46.1999203,63.5157656 45.4835717,62.7998906 44.5999719,62.7998906 L41.3997937,62.7998906 C40.5162408,62.7998906 39.7998922,63.5157188 39.7998922,64.3998281 L39.7998922,64.3997813 Z M36.6000422,59.6000156 C36.6000422,60.4829063 37.316344,61.1999531 38.1997562,61.1999531 L47.7998219,61.1999531 C48.6834217,61.1999531 49.3997703,60.4829063 49.3997703,59.6000156 C49.3997703,58.7156719 48.6833748,57.9995625 47.7998219,57.9995625 L38.1997562,57.9995625 C37.3161096,57.9996094 36.6000422,58.7156719 36.6000422,59.6000156 Z" id="形状" fill="#FF765C" fill-rule="nonzero"></path>
                    <g id="形状">
                        <use fill="black" fill-opacity="1" filter="url(#filter-2)" xlink:href="#path-1"></use>
                        <use fill="#FF765C" fill-rule="evenodd" xlink:href="#path-1"></use>
                    </g>
                </g>
            </g>
        </g>
    </g>
</svg>