<?xml version="1.0" encoding="UTF-8"?>
<svg width="18px" height="18px" viewBox="0 0 18 18" version="1.1" xmlns="http://www.w3.org/2000/svg" xmlns:xlink="http://www.w3.org/1999/xlink">
    <!-- Generator: Sketch 55.2 (78181) - https://sketchapp.com -->
    <title>前进_slice</title>
    <desc>Created with Sketch.</desc>
    <g id="页面1" stroke="none" stroke-width="1" fill="none" fill-rule="evenodd">
        <g id="画板" transform="translate(-81.000000, -1000.000000)" fill="#409EFF" fill-rule="nonzero">
            <g id="前进" transform="translate(81.000000, 1000.000000)">
                <path d="M0,8.99817377 C0,13.9716078 4.02755709,18 9,18 C13.9724251,18 18,13.9679732 18,8.99817377 C18,4.02837434 13.9724429,0 9,0 C4.03120881,0 0,4.02472188 0,8.99817377 Z M10.26955,8.9835782 L6.2274039,5.03912127 C5.94284798,4.7618054 5.94284798,4.30934267 6.2274039,4.0283779 C6.51195981,3.74741314 6.97527521,3.74741314 7.25983113,4.0283779 L11.8200221,8.4800274 C12.104578,8.75734327 12.104578,9.209806 11.8200221,9.49077077 L7.25983113,13.9497252 C7.11755317,14.092032 6.92784923,14.1577121 6.74179344,14.1577121 C6.55573765,14.1577121 6.36968186,14.0883831 6.2274039,13.9497252 C5.94284798,13.6724093 5.94284798,13.2199466 6.2274039,12.9389818 L10.26955,8.98358533 L10.26955,8.9835782 Z" id="形状"></path>
            </g>
        </g>
    </g>
</svg>