<?xml version="1.0" encoding="UTF-8"?>
<svg width="85px" height="85px" viewBox="0 0 85 85" version="1.1" xmlns="http://www.w3.org/2000/svg" xmlns:xlink="http://www.w3.org/1999/xlink">
    <!-- Generator: Sketch 55.2 (78181) - https://sketchapp.com -->
    <title>编组_slice</title>
    <desc>Created with Sketch.</desc>
    <defs>
        <radialGradient cx="13.1486948%" cy="9.61685177%" fx="13.1486948%" fy="9.61685177%" r="141.066056%" gradientTransform="translate(0.131487,0.096169),scale(1.000000,0.813093),rotate(51.998779),translate(-0.131487,-0.096169)" id="radialGradient-1">
            <stop stop-color="#68ACFB" offset="0%"></stop>
            <stop stop-color="#0579FF" offset="100%"></stop>
        </radialGradient>
        <path d="M80.5866243,23.6205892 C80.9375531,24.327226 80.6491948,25.1845523 79.942558,25.5354811 C79.2359212,25.88641 78.3785949,25.5980517 78.027666,24.8914148 C75.716478,20.2375635 72.5050129,16.0776681 68.5937128,12.655082 C67.9999612,12.1355192 67.9398192,11.2329994 68.4593821,10.6392477 C68.978945,10.045496 69.8814647,9.98535411 70.4752164,10.504917 C74.6669238,14.1728737 78.1088428,18.6312821 80.5866243,23.6205892 Z" id="path-2"></path>
        <filter x="-39.6%" y="-19.3%" width="179.2%" height="177.3%" filterUnits="objectBoundingBox" id="filter-3">
            <feOffset dx="0" dy="4" in="SourceAlpha" result="shadowOffsetOuter1"></feOffset>
            <feGaussianBlur stdDeviation="1" in="shadowOffsetOuter1" result="shadowBlurOuter1"></feGaussianBlur>
            <feColorMatrix values="0 0 0 0 0   0 0 0 0 0   0 0 0 0 0  0 0 0 0.05 0" type="matrix" in="shadowBlurOuter1"></feColorMatrix>
        </filter>
    </defs>
    <g id="页面1" stroke="none" stroke-width="1" fill="none" fill-rule="evenodd">
        <g id="画板" transform="translate(-115.000000, -49.000000)">
            <g id="编组" transform="translate(115.000000, 49.000000)">
                <g id="编组-2">
                    <g id="编组-3" transform="translate(-0.000000, 0.000000)">
                        <path d="M13.7281657,11.2197956 C9.98775203,17.944554 7.85714286,25.6877475 7.85714286,33.9285714 C7.85714286,59.7676079 28.8038206,80.7142857 54.6428571,80.7142857 C57.2745046,80.7142857 59.8554038,80.4970066 62.3685939,80.0794092 C56.4392678,83.2208099 49.67741,85 42.5,85 C19.0278981,85 -3.19744231e-14,65.9721019 -3.19744231e-14,42.5 C-3.19744231e-14,30.1258608 5.28830934,18.9868724 13.7281638,11.219799 Z" id="形状结合" fill="#EEEFFC"></path>
                        <path d="M62.7821867,5.14296595 C63.4752392,5.52001334 63.7314121,6.38750078 63.3543647,7.08055336 C62.9773173,7.77360594 62.1098298,8.02977876 61.4167773,7.65273136 C55.6602737,4.52097089 49.2020579,2.85714286 42.5,2.85714286 C20.6058546,2.85714286 2.85714286,20.6058546 2.85714286,42.5 C2.85714286,64.3941454 20.6058546,82.1428571 42.5,82.1428571 C64.3941454,82.1428571 82.1428571,64.3941454 82.1428571,42.5 C82.1428571,39.4024208 81.7878567,36.3522751 81.0916789,33.3910429 C80.911115,32.6230043 81.3873574,31.85401 82.155396,31.6734462 C82.9234346,31.4928823 83.6924289,31.9691247 83.8729927,32.7371634 C84.6194638,35.9123205 85,39.1818685 85,42.5 C85,65.9721019 65.9721019,85 42.5,85 C19.0278981,85 5.68434189e-14,65.9721019 5.68434189e-14,42.5 C5.68434189e-14,19.0278981 19.0278981,2.13162821e-14 42.5,2.13162821e-14 C49.6820562,2.13162821e-14 56.6092531,1.78465148 62.7821867,5.14296595 Z" id="形状" fill="#0579FF" fill-rule="nonzero"></path>
                        <g id="形状">
                            <use fill="black" fill-opacity="1" filter="url(#filter-3)" xlink:href="#path-2"></use>
                            <use fill="url(#radialGradient-1)" fill-rule="evenodd" xlink:href="#path-2"></use>
                        </g>
                        <path d="M60.5206315,37.8839194 L50.1916345,48.0699543 C49.7284309,48.5267689 49.0543509,48.705179 48.4208632,48.5367895 C47.7924017,48.372456 47.2992961,47.8854172 47.1276954,47.2608558 C47.0428147,46.9486097 47.0454998,46.6256136 47.1270747,46.3239507 C47.2086497,46.0222874 47.3691148,45.7419574 47.6005654,45.5142833 L54.7828954,38.4271434 L45.8942285,38.4271434 L45.8942285,34.8204214 L54.7596058,34.8204214 L47.5982228,27.7596373 C47.2520914,27.4057699 47.0815411,26.9450766 47.085852,26.4861354 C47.0901571,26.0278101 47.2689135,25.5712 47.6209519,25.2252746 C47.9778001,24.8754396 48.4412594,24.6987528 48.9057978,24.6956665 C49.3703366,24.6929857 49.8359545,24.8639057 50.1894044,25.2017911 L60.4888465,35.3604044 C60.8416623,35.7066622 61.0207288,36.1631472 61.0250267,36.6212716 C61.0293246,37.079395 60.8588546,37.539158 60.5206315,37.8839194 Z M27.6958333,52.7953962 C27.6958333,47.8228658 29.7333227,43.3333548 33.025796,40.083418 C36.3220265,36.8297724 40.8758522,34.8182576 45.9046392,34.8182576 L45.9150067,34.8182576 L45.9150067,38.4315967 L45.9068392,38.4315967 C41.8886666,38.4315967 38.2536345,40.0369595 35.6224549,42.6305329 C32.9863793,45.2289323 31.3576069,48.8189766 31.3576069,52.7828288 L31.3576069,52.7953962 L27.6958333,52.7953962 Z M31.3594888,52.7724699 L31.3575554,58.1706436 C31.3575554,58.6694653 31.1535826,59.1194661 30.8245256,59.4450884 C30.4920784,59.7740658 30.0324315,59.9762447 29.523149,59.9762447 C29.0215236,59.97799 28.5665528,59.7764895 28.2363308,59.4491444 C27.9061101,59.1218006 27.7006373,58.6686132 27.6980161,58.1706436 L27.6980161,52.7724699 L31.3594888,52.7724699 Z" id="形状" fill="#0579FF" fill-rule="nonzero"></path>
                    </g>
                </g>
            </g>
        </g>
    </g>
</svg>