<?xml version="1.0" encoding="UTF-8"?>
<svg width="17px" height="19px" viewBox="0 0 17 19" version="1.1" xmlns="http://www.w3.org/2000/svg" xmlns:xlink="http://www.w3.org/1999/xlink">
    <!-- Generator: Sketch 55.2 (78181) - https://sketchapp.com -->
    <title>手势_slice</title>
    <desc>Created with Sketch.</desc>
    <g id="页面1" stroke="none" stroke-width="1" fill="none" fill-rule="evenodd">
        <g id="画板" transform="translate(-20.000000, -87.000000)" fill="#057AFF" fill-rule="nonzero">
            <g id="手势" transform="translate(20.000000, 87.000000)">
                <path d="M3.94141663,10.1410508 L3.59290357,9.2782809 C2.66061326,6.97035402 1.9853101,5.36125356 1.04867949,3.04253702 C0.390842611,1.41404698 0.965138729,0.487105143 1.84886717,0.138296069 C2.67367492,-0.199769983 3.66611402,0.0336982855 4.24776399,1.3796515 C4.56147529,2.09361524 4.83373283,2.79892393 5.15824127,3.69618467 C5.31722525,4.12110428 5.51785813,4.24197177 5.9215621,4.02010758 C6.55657593,3.68193342 7.20019317,3.55290903 7.8762426,3.91127978 C8.17937762,4.06672314 8.42602651,3.83182275 8.67915155,3.70689971 C9.38399194,3.3536709 10.114857,3.25273779 10.8301536,3.64562039 C11.2139745,3.84423043 11.5041851,3.71718168 11.8184218,3.55564291 C12.4905212,3.2153193 13.3391599,3.15545047 13.9736912,3.63024099 C14.6038565,4.09424927 14.845526,4.9116835 15.102511,5.61050568 C15.6034258,6.97582983 16.2221592,8.31964249 16.5812485,9.74095203 C16.9468569,11.2097043 16.9808481,12.7343083 16.9995667,14.2524492 C17.0097707,15.4363439 16.8478901,16.1629542 15.6412576,16.5892263 C13.6665633,17.3061619 11.7114603,18.1028796 9.76726603,18.8953089 C9.20429394,19.1300359 8.82918365,18.9529874 8.49567937,18.5344447 C7.20741557,16.8797076 5.59389493,15.5784176 3.72492685,14.615552 C2.84604972,14.1621934 2.0086671,13.6549311 1.08175929,13.270531 C0.170119742,12.8926174 -0.19127699,11.6847947 0.0971108645,10.9582586 C0.446678984,10.0700239 1.38282924,9.60045966 2.3971071,9.82534029 C2.86392131,9.91616377 3.31978612,10.0113258 3.94143593,10.1410639 L3.94141663,10.1410508 Z M3.77760492,6.85457188 L5.73366857,11.6969237 C5.83386481,11.9449692 6.03002079,12.2426684 5.58925527,12.4041423 C5.29033403,12.5096295 5.08520323,12.6281093 4.77781153,12.2742736 C4.19359684,11.5795511 3.34081086,11.2534363 2.47275447,10.9833726 C1.93839751,10.8191657 1.54573086,10.7865848 1.26616514,11.3471007 C0.953836999,11.9830609 1.49910048,12.1429514 1.85239774,12.3286331 C4.35381922,13.6045451 6.90979471,14.7963911 8.75399476,17.0444979 C8.92621109,17.2516112 9.17020498,17.7930161 9.85538534,17.4850572 C11.6381564,16.6688164 13.4775658,15.9927924 15.3169838,15.3167387 C15.7359153,15.1638766 15.8691823,14.8361793 15.8650853,14.5752476 C15.8506386,13.0678858 15.8843007,11.4915676 15.492513,10.0206342 C15.1877761,8.89049064 14.7695909,7.79262282 14.3295926,6.70335493 C14.0290052,5.9592183 13.746388,4.32015482 12.6381074,4.45751628 C11.6847289,4.57124626 11.9765413,5.41889598 12.1594217,5.99691851 C12.2813642,6.36142665 12.5756769,6.6828991 11.9167206,6.9305122 C11.3123184,7.15658415 11.29292,6.76409286 11.1622219,6.44055999 C11.0097553,6.06310003 10.8245489,5.6985495 10.7157068,5.30386636 C10.5371925,4.67408951 10.2275642,4.47120579 9.57729713,4.74037913 C8.50590482,5.18829196 9.2535135,6.25615859 9.5584692,7.01110395 C9.69351246,7.3454392 9.49055267,7.50057921 9.18941474,7.63194383 C8.68099452,7.84513178 8.58736063,7.58198771 8.45885634,7.23257599 C8.23015623,6.63511935 8.01236264,6.03334474 7.75531118,5.45957448 C7.49171923,4.83836576 6.88747138,4.81428723 6.64308056,4.89825578 C6.37687886,4.99083634 5.84669065,5.15009784 6.00563067,5.63753388 C6.232092,6.32340635 6.51530108,6.96188276 6.66774566,7.40188034 C6.77660965,7.73402586 7.04474304,8.05335098 6.44905141,8.30098316 C5.88173474,8.52490778 5.80558857,8.17983438 5.66181174,7.82395946 C4.83843002,5.78564684 3.98886925,3.74517205 3.1982178,1.69394999 C3.00436471,1.18276186 2.74274971,0.910898524 2.19724391,1.12621049 C1.70629213,1.32000504 1.70166233,1.74696558 1.88028597,2.18915077 C2.48148446,3.73991924 3.15683266,5.28648208 3.77760541,6.85458608 L3.77760492,6.85457188 Z" id="形状"></path>
            </g>
        </g>
    </g>
</svg>