<?xml version="1.0" encoding="UTF-8"?>
<svg width="203px" height="189px" viewBox="0 0 203 189" version="1.1" xmlns="http://www.w3.org/2000/svg" xmlns:xlink="http://www.w3.org/1999/xlink">
    <!-- Generator: Sketch 55.2 (78181) - https://sketchapp.com -->
    <title>敬请期待_slice</title>
    <desc>Created with Sketch.</desc>
    <defs>
        <linearGradient x1="44.4644728%" y1="39.7836381%" x2="55.8924298%" y2="57.3937795%" id="linearGradient-1">
            <stop stop-color="#EAF2FF" offset="0%"></stop>
            <stop stop-color="#FFFFFF" offset="100%"></stop>
        </linearGradient>
        <linearGradient x1="44.4644728%" y1="39.7756343%" x2="55.8924298%" y2="57.399572%" id="linearGradient-2">
            <stop stop-color="#EAF2FF" offset="0%"></stop>
            <stop stop-color="#FFFFFF" offset="100%"></stop>
        </linearGradient>
        <linearGradient x1="99.9441385%" y1="38.8619387%" x2="-19.1978731%" y2="105.274425%" id="linearGradient-3">
            <stop stop-color="#E9F0FF" offset="0%"></stop>
            <stop stop-color="#BCD6FF" offset="100%"></stop>
        </linearGradient>
        <linearGradient x1="62.5420157%" y1="7.69541669%" x2="73.2443893%" y2="81.1334437%" id="linearGradient-4">
            <stop stop-color="#FFFFFF" offset="0%"></stop>
            <stop stop-color="#FFFFFF" stop-opacity="0" offset="100%"></stop>
        </linearGradient>
        <path d="M53.9322896,29.2495913 C78.2159252,9.55547707 103.711183,-0.193417807 130.418064,0.00290667046 C129.262274,30.6884717 118.34317,56.415334 97.6607516,77.1834934 C97.9580275,80.2844135 98.0978912,83.6195173 98.0803425,87.188805 C96.2323282,105.774158 87.1890159,119.4867 70.9504055,128.32643 C59.008377,134.185273 54.2862411,128.150396 56.783998,110.221798 C57.0956983,103.289618 56.2690199,99.8260773 54.3039629,99.831177 C37.6588708,98.6446691 29.8484004,91.0954412 30.8725516,77.1834934 C30.8502684,72.1232308 25.2418388,70.1283319 14.047263,71.1987966 C-5.62976112,72.2954305 -4.63450492,62.5646322 17.0330316,42.0064018 C27.6991368,30.7398287 39.9988894,26.4875585 53.9322896,29.2495913 Z M89.2021628,53.582261 C96.8018794,53.582261 102.962667,47.4214734 102.962667,39.8217568 C102.962667,32.2220401 96.8018794,26.0612526 89.2021628,26.0612526 C81.6024462,26.0612526 75.4416586,32.2220401 75.4416586,39.8217568 C75.4416586,47.4214734 81.6024462,53.582261 89.2021628,53.582261 Z" id="path-5"></path>
        <filter x="-1.5%" y="-1.5%" width="105.4%" height="104.6%" filterUnits="objectBoundingBox" id="filter-6">
            <feMorphology radius="0.5" operator="dilate" in="SourceAlpha" result="shadowSpreadOuter1"></feMorphology>
            <feOffset dx="2" dy="1" in="shadowSpreadOuter1" result="shadowOffsetOuter1"></feOffset>
            <feGaussianBlur stdDeviation="0.5" in="shadowOffsetOuter1" result="shadowBlurOuter1"></feGaussianBlur>
            <feComposite in="shadowBlurOuter1" in2="SourceAlpha" operator="out" result="shadowBlurOuter1"></feComposite>
            <feColorMatrix values="0 0 0 0 0   0 0 0 0 0   0 0 0 0 0  0 0 0 0.03 0" type="matrix" in="shadowBlurOuter1"></feColorMatrix>
        </filter>
        <linearGradient x1="94.7170334%" y1="15.9656161%" x2="-22.6076594%" y2="125.434698%" id="linearGradient-7">
            <stop stop-color="#DBE8FF" offset="0%"></stop>
            <stop stop-color="#76ADFF" offset="100%"></stop>
        </linearGradient>
        <linearGradient x1="94.7170334%" y1="0%" x2="5.28296664%" y2="100%" id="linearGradient-8">
            <stop stop-color="#FFFFFF" offset="0%"></stop>
            <stop stop-color="#FFFFFF" stop-opacity="0" offset="100%"></stop>
        </linearGradient>
        <path d="M13.0806975,100.431649 C6.0160392,99.4901379 3.7749977,96.8921411 6.35757302,92.6376587 C8.94014834,88.3831763 12.3739658,84.9768783 16.6590254,82.4187647 C20.0094868,80.836462 22.0792961,82.0322957 22.8684532,86.0062657 C24.5938039,96.2804645 29.8774079,102.596514 38.7192652,104.954413 C43.3247205,106.025412 45.1406062,108.202507 44.1669224,111.485699 C42.0079075,115.444779 37.8502085,119.215478 31.6938254,122.797794 C29.6167042,123.812159 28.3038796,122.180401 27.7553515,117.90252 C27.2068235,113.624639 24.1223836,112.870845 18.5020318,115.641138 C10.0486376,120.785815 7.0317334,120.186503 9.45131904,113.8432 C13.6773514,105.784118 14.8871442,101.313602 13.0806975,100.431649 Z" id="path-9"></path>
        <filter x="-4.6%" y="-4.3%" width="116.8%" height="115.8%" filterUnits="objectBoundingBox" id="filter-10">
            <feMorphology radius="0.275" operator="dilate" in="SourceAlpha" result="shadowSpreadOuter1"></feMorphology>
            <feOffset dx="2" dy="2" in="shadowSpreadOuter1" result="shadowOffsetOuter1"></feOffset>
            <feGaussianBlur stdDeviation="0.5" in="shadowOffsetOuter1" result="shadowBlurOuter1"></feGaussianBlur>
            <feComposite in="shadowBlurOuter1" in2="SourceAlpha" operator="out" result="shadowBlurOuter1"></feComposite>
            <feColorMatrix values="0 0 0 0 0   0 0 0 0 0   0 0 0 0 0  0 0 0 0.078125 0" type="matrix" in="shadowBlurOuter1"></feColorMatrix>
        </filter>
        <linearGradient x1="100%" y1="14.2011834%" x2="0%" y2="85.7988166%" id="linearGradient-11">
            <stop stop-color="#FFFFFF" offset="0%"></stop>
            <stop stop-color="#FFFFFF" stop-opacity="0" offset="100%"></stop>
        </linearGradient>
        <linearGradient x1="100%" y1="19.7530864%" x2="0%" y2="80.2469136%" id="linearGradient-12">
            <stop stop-color="#FFFFFF" offset="0%"></stop>
            <stop stop-color="#FFFFFF" stop-opacity="0" offset="100%"></stop>
        </linearGradient>
        <filter x="-3.8%" y="-46.2%" width="107.5%" height="192.3%" filterUnits="objectBoundingBox" id="filter-13">
            <feGaussianBlur stdDeviation="2" in="SourceGraphic"></feGaussianBlur>
        </filter>
        <linearGradient x1="15.34426%" y1="0%" x2="82.9657068%" y2="100%" id="linearGradient-14">
            <stop stop-color="#99C0FF" offset="0%"></stop>
            <stop stop-color="#6E9DEA" offset="100%"></stop>
        </linearGradient>
    </defs>
    <g id="页面1" stroke="none" stroke-width="1" fill="none" fill-rule="evenodd">
        <g id="画板" transform="translate(-86.000000, -158.000000)">
            <g id="敬请期待" transform="translate(86.000000, 158.000000)">
                <path d="M28.7930361,35.2753496 C23.1655292,34.4346842 18,37.2696942 18,43.9454234 C18,48.3959094 28.8076763,51.5073472 50.4230288,53.2797366 C73.1954946,56.4180041 87.4861685,55.2624279 93.2950505,49.813008 C102.008373,41.6388781 95.0329958,34.713551 75.7342032,33.1314089 C73.2193526,32.9113507 71.0767411,32.9113507 69.3063687,33.1314089 C58.0367147,20.5409398 48.2638794,17.750646 39.9878628,24.7605275 C33.3957333,29.5037017 33.8389622,30.8726677 28.7930361,35.2753496 Z" id="路径-5" fill="url(#linearGradient-1)"></path>
                <path d="M127.265501,127.613438 C123.477257,127.047309 120,128.956488 120,133.452119 C120,136.449207 127.275356,138.54454 141.826068,139.738119 C157.155709,141.85152 166.7757,141.073321 170.686039,137.403523 C176.551549,131.898824 171.855964,127.235106 158.864681,126.169646 C157.17177,126.021452 155.729437,126.021452 154.537683,126.169646 C146.95134,117.690855 140.372603,115.81179 134.801473,120.532449 C130.363878,123.726642 130.662245,124.648543 127.265501,127.613438 Z" id="路径-5备份" fill="url(#linearGradient-2)" transform="translate(146.590042, 129.448297) scale(-1, 1) translate(-146.590042, -129.448297) "></path>
                <g id="编组-2" transform="translate(38.000000, 21.000000)">
                    <g id="形状结合">
                        <use fill="black" fill-opacity="1" filter="url(#filter-6)" xlink:href="#path-5"></use>
                        <use stroke="url(#linearGradient-4)" stroke-width="1" fill="url(#linearGradient-3)" fill-rule="evenodd" xlink:href="#path-5"></use>
                    </g>
                    <g id="路径-7">
                        <use fill="black" fill-opacity="1" filter="url(#filter-10)" xlink:href="#path-9"></use>
                        <use stroke="url(#linearGradient-8)" stroke-width="0.55" fill="url(#linearGradient-7)" fill-rule="evenodd" xlink:href="#path-9"></use>
                    </g>
                    <path d="M52.8403361,52.8403361 C55.6526704,67.0955811 65.1932867,75.1684102 81.4621849,77.0588235" id="路径-8" stroke="url(#linearGradient-11)" stroke-width="0.55" fill="#FFFFFF" transform="translate(67.151261, 64.949580) rotate(1.000000) translate(-67.151261, -64.949580) "></path>
                    <path d="M41.8319328,71.5546218 C43.7789334,80.6261413 50.3839754,85.7633962 61.6470588,86.9663866" id="路径-8备份" stroke="url(#linearGradient-12)" stroke-width="0.55" fill="#FFFFFF" transform="translate(51.739496, 79.260504) rotate(-355.000000) translate(-51.739496, -79.260504) "></path>
                    <path d="M48.4082684,32.0346683 C46.4145535,31.6529558 42.501286,32.0353831 39.6302521,33.0252101 M34.6544962,34.8697536 C33.1398121,35.3213946 29.0216443,37.5647778 26.8747636,39.6935189" id="形状" stroke="#FFFFFF" stroke-width="2.2" stroke-linecap="round"></path>
                </g>
                <ellipse id="椭圆形" fill="#F3F4F9" filter="url(#filter-13)" cx="102.5" cy="182.5" rx="79.5" ry="6.5"></ellipse>
                <circle id="椭圆形" fill="url(#linearGradient-14)" opacity="0.400000006" cx="195" cy="70" r="8"></circle>
                <circle id="椭圆形备份-2" fill="url(#linearGradient-14)" opacity="0.200000003" cx="97" cy="7" r="7"></circle>
                <circle id="椭圆形备份-6" fill="url(#linearGradient-14)" opacity="0.5" cx="120" cy="16" r="2"></circle>
                <polygon id="星形" fill="url(#linearGradient-14)" opacity="0.800000012" points="9 92.890346 3.70993273 94.2811529 3.39794807 88.820217 0.440491353 84.2188471 5.5377415 82.23461 9 78 12.4622585 82.23461 17.5595086 84.2188471 14.6020519 88.820217 14.2900673 94.2811529"></polygon>
                <polygon id="星形备份" fill="url(#linearGradient-14)" opacity="0.800000012" points="175 115.926897 171.473288 116.854102 171.265299 113.213478 169.293661 110.145898 172.691828 108.823073 175 106 177.308172 108.823073 180.706339 110.145898 178.734701 113.213478 178.526712 116.854102"></polygon>
            </g>
        </g>
    </g>
</svg>