<?xml version="1.0" encoding="UTF-8"?>
<svg width="49px" height="49px" viewBox="0 0 49 49" version="1.1" xmlns="http://www.w3.org/2000/svg" xmlns:xlink="http://www.w3.org/1999/xlink">
    <!-- Generator: Sketch 57.1 (83088) - https://sketch.com -->
    <title>编组_7_slice</title>
    <desc>Created with Sketch.</desc>
    <defs>
        <linearGradient x1="21.8670746%" y1="9.75985129%" x2="83.395685%" y2="88.2657006%" id="linearGradient-1">
            <stop stop-color="#3FD6FF" offset="0%"></stop>
            <stop stop-color="#4482E7" offset="100%"></stop>
        </linearGradient>
        <linearGradient x1="23.6179901%" y1="6.91284482%" x2="123.132689%" y2="131.772296%" id="linearGradient-2">
            <stop stop-color="#59BBDC" offset="0%"></stop>
            <stop stop-color="#4C8ADB" offset="100%"></stop>
        </linearGradient>
        <rect id="path-3" x="0.985772377" y="0.0387611385" width="48" height="48" rx="13"></rect>
    </defs>
    <g id="页面-1" stroke="none" stroke-width="1" fill="none" fill-rule="evenodd">
        <g id="画板" transform="translate(-49.000000, -358.000000)">
            <g id="编组-7" transform="translate(49.014228, 357.961239)">
                <mask id="mask-4" fill="white">
                    <use xlink:href="#path-3"></use>
                </mask>
                <use id="蒙版备份-2" stroke="url(#linearGradient-2)" stroke-width="0.58" fill="url(#linearGradient-1)" xlink:href="#path-3"></use>
                <path d="M31.0476908,26.8114038 L30.8160944,26.8693029 C29.9476081,27.1587984 29.0212226,26.7535047 28.6738281,25.8850184 L26.7631581,20.7898984 C25.2577818,16.7369621 20.6837537,14.7683931 16.6887164,16.4474667 C12.9252756,18.0107421 11.246202,22.411073 12.6357801,26.2324129 L14.4306519,31.1538356 C14.7201474,32.0223219 14.2569547,32.9487074 13.4463674,33.2382028 L13.214771,33.2961019 C12.2304865,33.6434965 11.7672938,34.8014783 12.1146883,35.7857628 L12.3462847,36.4226528 C12.4620829,36.7121482 12.8673765,36.9437446 13.214771,36.7700473 L33.1320581,29.4168629 C33.4794526,29.3010647 33.6531499,28.837872 33.5373517,28.4904774 L33.3057553,27.8535874 C33.1320581,26.927202 32.0319753,26.4061102 31.0476908,26.8114038 Z M26.1841672,34.1066892 L21.8417355,35.7278637 C21.55224,35.8436619 21.4364419,36.1910564 21.6101391,36.4226528 C22.3049282,37.5806346 23.7524054,38.0438273 25.0261854,37.5806346 C26.2999654,37.1174419 27.0526536,35.7857628 26.8789563,34.5119828 C26.7631581,34.2224874 26.4157636,34.0487901 26.1841672,34.1066892 Z M38.1113798,15.6947785 C36.316508,12.7419249 33.3636544,10.7154568 30.0055072,10.0785668 C27.8811252,9.57634854 27.0161344,11.6244589 29.7917876,12.1836315 C32.3972467,12.7047233 34.804493,14.4010628 36.2519703,16.7170265 C37.6994476,19.0329901 38.2246107,21.7922846 37.5298216,24.3977437 C36.7545193,26.9959427 38.8034319,27.9557994 39.4430589,25.4218257 C40.4273434,22.1215775 39.9062516,18.589733 38.1113798,15.6947785 Z M28.9054245,15.8684758 C26.7441484,15.3244619 26.4113676,17.5286852 28.8272471,18.0464994 C29.8115316,18.2780957 30.8612525,19.0681641 31.3823443,19.9366504 C31.9034361,20.8051368 32.0508717,21.8785384 31.7613763,22.8049239 C30.9493909,25.2103404 33.1718737,25.4215446 33.7110489,23.684853 C34.2321408,22.0057793 34.0005444,20.2109075 33.074159,18.7055312 C32.1477735,17.2001549 30.6423972,16.2158703 28.9054245,15.8684758 Z" id="形状" fill="#FFFFFF" fill-rule="nonzero" mask="url(#mask-4)"></path>
            </g>
        </g>
    </g>
</svg>