<?xml version="1.0" encoding="UTF-8"?>
<svg width="48px" height="48px" viewBox="0 0 48 48" version="1.1" xmlns="http://www.w3.org/2000/svg" xmlns:xlink="http://www.w3.org/1999/xlink">
    <!-- Generator: Sketch 57.1 (83088) - https://sketch.com -->
    <title>事件报告单维护_slice</title>
    <desc>Created with Sketch.</desc>
    <defs>
        <linearGradient x1="21.8670746%" y1="9.75985129%" x2="83.395685%" y2="88.2657006%" id="linearGradient-1">
            <stop stop-color="#6ED3A2" offset="0%"></stop>
            <stop stop-color="#64CEB1" offset="28.5526843%"></stop>
            <stop stop-color="#43BBAB" offset="74.1684665%"></stop>
            <stop stop-color="#31B6A7" offset="100%"></stop>
        </linearGradient>
        <linearGradient x1="23.6179901%" y1="6.91284482%" x2="123.132689%" y2="131.772296%" id="linearGradient-2">
            <stop stop-color="#5ECAB2" offset="0%"></stop>
            <stop stop-color="#449B8E" offset="100%"></stop>
        </linearGradient>
        <rect id="path-3" x="0" y="0" width="48" height="48" rx="13"></rect>
    </defs>
    <g id="页面-1" stroke="none" stroke-width="1" fill="none" fill-rule="evenodd">
        <g id="画板" transform="translate(-50.000000, -937.000000)">
            <g id="事件报告单维护" transform="translate(50.000000, 937.000000)">
                <mask id="mask-4" fill="white">
                    <use xlink:href="#path-3"></use>
                </mask>
                <use id="蒙版" stroke="url(#linearGradient-2)" stroke-width="0.58" fill="url(#linearGradient-1)" xlink:href="#path-3"></use>
                <path d="M20.0142365,10 C21.6418426,10 23.0878103,10.7776862 24.0008242,11.981743 C24.912262,10.7776862 26.3582297,10 27.9858358,10 L33,10 C35.7614237,10 38,12.2385763 38,15 C38,15.064982 37.9987332,15.1299577 37.9962003,15.1948903 L37.372077,31.1948903 C37.2673976,33.8784482 35.0614755,36 32.3758767,36 L28.795,36 L28.4261697,37 C28.2221932,37.5522847 27.6027646,38 27.0426372,38 L20.9574351,38 C20.3973077,38 19.7778791,37.5522847 19.5739027,37 L19.204,36 L15.6241956,36 C12.9385968,36 10.7326747,33.8784482 10.6279953,31.1948903 L10.003872,15.1948903 C9.89623704,12.4355651 12.0458568,10.1114346 14.805182,10.0037997 L14.9026086,10.00095 L20.0142365,10 Z M20.9716355,27 L14.8580326,27 C14.3057479,27 13.8580326,27.4477153 13.8580326,28 C13.8580326,28.5128358 14.2440728,28.9355072 14.7414115,28.9932723 L14.8580326,29 L20.9716355,29 C21.5239202,29 21.9716355,28.5522847 21.9716355,28 C21.9716355,27.4477153 21.5239202,27 20.9716355,27 Z M29.0000193,17 C28.355032,17 27.7385687,17.1221251 27.1724918,17.3445128 L27.1724918,17.3445128 L28.8284276,19 L28.9452603,19.1272148 C29.6073126,19.9130022 29.5683683,21.0884864 28.8284276,21.8284271 C28.047379,22.6094757 26.781049,22.6094757 26.0000004,21.8284271 L26.0000004,21.8284271 L24.3445145,20.1724794 C24.122126,20.7385541 24.0000004,21.3550152 24.0000004,22 C24.0000004,24.7614237 26.2385851,27 29.0000193,27 C30.0191303,27 30.9670299,26.6951083 31.7574775,26.1715651 L31.7574775,26.1715651 L34.12134,28.5355147 C34.5118688,28.9260315 35.1450308,28.9260298 35.5355574,28.5355108 C35.9260817,28.1449865 35.9260817,27.5118216 35.5355574,27.1212973 L35.5355574,27.1212973 L33.1716001,24.7574478 C33.6951453,23.9670032 34.0000381,23.0191072 34.0000381,22 C34.0000381,19.2385763 31.7614534,17 29.0000193,17 Z M20.9716355,22 L14.8580326,22 C14.3057479,22 13.8580326,22.4477153 13.8580326,23 C13.8580326,23.5128358 14.2440728,23.9355072 14.7414115,23.9932723 L14.8580326,24 L20.9716355,24 C21.5239202,24 21.9716355,23.5522847 21.9716355,23 C21.9716355,22.4477153 21.5239202,22 20.9716355,22 Z M20.9716355,17 L14.8580326,17 C14.3057479,17 13.8580326,17.4477153 13.8580326,18 C13.8580326,18.5128358 14.2440728,18.9355072 14.7414115,18.9932723 L14.8580326,19 L20.9716355,19 C21.5239202,19 21.9716355,18.5522847 21.9716355,18 C21.9716355,17.4477153 21.5239202,17 20.9716355,17 Z" id="形状结合" fill="#FFFFFF"></path>
            </g>
        </g>
    </g>
</svg>