<?xml version="1.0" encoding="UTF-8"?>
<svg width="50px" height="50px" viewBox="0 0 50 50" version="1.1" xmlns="http://www.w3.org/2000/svg" xmlns:xlink="http://www.w3.org/1999/xlink">
    <!-- Generator: Sketch 59.1 (86144) - https://sketch.com -->
    <title>编组 2@2x</title>
    <desc>Created with Sketch.</desc>
    <defs>
        <linearGradient x1="21.8670746%" y1="9.75985129%" x2="83.395685%" y2="88.2657006%" id="linearGradient-1">
            <stop stop-color="#FF832C" offset="0%"></stop>
            <stop stop-color="#FF693C" offset="37.6153856%"></stop>
            <stop stop-color="#FF5849" offset="67.2089585%"></stop>
            <stop stop-color="#FF4754" offset="80.922653%"></stop>
            <stop stop-color="#FF314B" offset="100%"></stop>
        </linearGradient>
        <linearGradient x1="23.6179901%" y1="6.91284482%" x2="85.4823362%" y2="86.6711008%" id="linearGradient-2">
            <stop stop-color="#FF740A" offset="0%"></stop>
            <stop stop-color="#E90334" offset="100%"></stop>
        </linearGradient>
        <rect id="path-3" x="0" y="0" width="48" height="48" rx="13"></rect>
    </defs>
    <g id="页面-1" stroke="none" stroke-width="1" fill="none" fill-rule="evenodd">
        <g id="首页" transform="translate(-275.000000, -704.000000)">
            <g id="编组-2" transform="translate(276.000000, 705.000000)">
                <g id="编组-2备份">
                    <g id="椭圆形备份-4">
                        <mask id="mask-4" fill="white">
                            <use xlink:href="#path-3"></use>
                        </mask>
                        <use id="蒙版" stroke="url(#linearGradient-2)" stroke-width="0.58" fill="url(#linearGradient-1)" xlink:href="#path-3"></use>
                    </g>
                </g>
                <g id="编组-16" transform="translate(12.000000, 10.000000)" fill="#FFFFFF">
                    <path d="M24,7 L24,23 C24,25.7614237 21.7614237,28 19,28 L5,28 C2.23857625,28 2.11453371e-15,25.7614237 0,23 L0,7 C-2.96228773e-16,4.5811085 1.71766536,2.56339924 3.99981203,2.10005628 L4,10.5148566 C5.03692722,10.4367276 5.55539084,9.91645541 5.55539084,8.95404008 C5.55539084,7.51041709 7.63655803,5.93926735 8.27712082,8.43435597 C8.70416269,10.0977484 9.35634778,11.0742773 10.2336761,11.3639428 C11.4290488,11.5963137 12.3802057,10.7930128 13.0871465,8.95404008 C13.7940874,7.11506736 14.687353,6.94183932 15.7669435,8.43435597 C15.8854679,9.19682817 16.3044559,10.0420499 17.0239075,10.9700213 C18.6108826,11.8158311 19.6029135,10.8068744 20,7.94315115 L20,7.94315115 L20.0011864,2.10025909 C22.2828356,2.56398776 24,4.58146126 24,7 Z M16.6101145,19.691446 C15.0101145,19.691446 15.0101145,20.8764002 13.4101145,20.8764002 C11.8101145,20.8764002 11.8101145,19.691446 10.2101145,19.691446 C8.6101145,19.691446 8.6101145,20.8764002 7.0101145,20.8764002 C5.4101145,20.8764002 5.4101145,19.691446 3.8101145,19.691446 L3.8101145,22.1979379 C5.4101145,22.1979379 5.4101145,23.3828921 7.0101145,23.3828921 C8.6101145,23.3828921 8.6101145,22.1979379 10.2101145,22.1979379 C11.8101145,22.1979379 11.8101145,23.3828921 13.4101145,23.3828921 C15.0101145,23.3828921 15.0101145,22.1979379 16.6101145,22.1979379 C18.2101145,22.1979379 18.2101145,23.3828921 19.8101145,23.3828921 L19.8101145,20.8764002 C18.2101145,20.8764002 18.2101145,19.691446 16.6101145,19.691446 Z M16.6101145,16 C15.0101145,16 15.0101145,17.1849542 13.4101145,17.1849542 C11.8101145,17.1849542 11.8101145,16 10.2101145,16 C8.6101145,16 8.6101145,17.1849542 7.0101145,17.1849542 C5.4101145,17.1849542 5.4101145,16 3.8101145,16 L3.8101145,18.5064919 C5.4101145,18.5064919 5.4101145,19.691446 7.0101145,19.691446 C8.6101145,19.691446 8.6101145,18.5064919 10.2101145,18.5064919 C11.8101145,18.5064919 11.8101145,19.691446 13.4101145,19.691446 C15.0101145,19.691446 15.0101145,18.5064919 16.6101145,18.5064919 C18.2101145,18.5064919 18.2101145,19.691446 19.8101145,19.691446 L19.8101145,17.1849542 C18.2101145,17.1849542 18.2101145,16 16.6101145,16 Z" id="形状结合"></path>
                    <rect id="矩形" x="6" y="0" width="12" height="5" rx="1"></rect>
                </g>
            </g>
        </g>
    </g>
</svg>