<?xml version="1.0" encoding="UTF-8"?>
<svg width="48px" height="48px" viewBox="0 0 48 48" version="1.1" xmlns="http://www.w3.org/2000/svg" xmlns:xlink="http://www.w3.org/1999/xlink">
    <!-- Generator: Sketch 57.1 (83088) - https://sketch.com -->
    <title>编组_3_slice</title>
    <desc>Created with Sketch.</desc>
    <defs>
        <linearGradient x1="21.8670746%" y1="9.75985129%" x2="83.395685%" y2="88.2657006%" id="linearGradient-1">
            <stop stop-color="#3FD6FF" offset="0%"></stop>
            <stop stop-color="#4482E7" offset="100%"></stop>
        </linearGradient>
        <linearGradient x1="23.6179901%" y1="6.91284482%" x2="123.132689%" y2="131.772296%" id="linearGradient-2">
            <stop stop-color="#59BBDC" offset="0%"></stop>
            <stop stop-color="#4C8ADB" offset="100%"></stop>
        </linearGradient>
        <rect id="path-3" x="0" y="0" width="48" height="48" rx="13"></rect>
    </defs>
    <g id="页面-1" stroke="none" stroke-width="1" fill="none" fill-rule="evenodd">
        <g id="画板" transform="translate(-277.000000, -502.000000)">
            <g id="编组-3" transform="translate(277.000000, 502.000000)">
                <mask id="mask-4" fill="white">
                    <use xlink:href="#path-3"></use>
                </mask>
                <use id="蒙版" stroke="url(#linearGradient-2)" stroke-width="0.58" fill="url(#linearGradient-1)" xlink:href="#path-3"></use>
                <g id="编组-20" transform="translate(10.000000, 10.000000)" fill="#FFFFFF">
                    <path d="M14.0004979,-0.105322374 L14.2042479,-0.0984004822 C14.8858857,-0.0521418332 15.554784,0.225973566 16.0832371,0.735945715 L16.0832371,0.735945715 L27.359,11.616 L27.4157734,11.6743961 C28.021638,12.3237978 28.1562746,12.8820754 27.8196831,13.349229 C27.4590494,13.8497506 27.1024481,14.2825255 26.7498791,14.6475535 C26.4632174,15.14723 25.9605544,15.1155991 25.2418901,14.5526606 L25.2418901,14.5526606 L15.9709412,5.6047384 L15.828286,5.47551962 C15.2998339,5.02650428 14.6530373,4.78984934 13.9998375,4.76555479 L14.0001625,4.76555479 C13.3469627,4.78984934 12.7001661,5.02650428 12.171714,5.47551962 L12.0290588,5.6047384 L2.75810992,14.5526606 C2.0394456,15.1155991 1.53678259,15.14723 1.2501209,14.6475535 C0.897551916,14.2825255 0.540950569,13.8497506 0.180316856,13.349229 C-0.156274609,12.8820754 -0.0216380228,12.3237978 0.584226614,11.6743961 L0.641,11.615 L11.9167629,0.735945715 C12.445216,0.225973566 13.1141143,-0.0521418332 13.7957521,-0.0984004822 L13.9995021,-0.105322374 L13.9995021,-0.105322374 L14.0004979,-0.105322374 Z" id="形状结合备份-5"></path>
                    <path d="M16.1213203,8.32233047 L25,17.2016508 L25,23 C25,25.7614238 22.7614237,28 20,28 L8,28 C5.23857625,28 3,25.7614238 3,23 L3,17.2006508 L11.8786797,8.32233047 C13.0502525,7.1507576 14.9497475,7.1507576 16.1213203,8.32233047 Z M14,14 C11.2385763,14 9,16.2385763 9,19 C9,21.7614238 11.2385763,24 14,24 C15.0191072,24 15.9670032,23.6951083 16.7574478,23.1715651 L16.7574478,23.1715651 L19.1213203,25.5355339 C19.5118446,25.9260582 20.1450096,25.9260582 20.5355339,25.5355339 C20.9260582,25.1450096 20.9260582,24.5118446 20.5355339,24.1213203 L20.5355339,24.1213203 L18.1715651,21.7574478 C18.6951083,20.9670032 19,20.0191072 19,19 C19,16.2385763 16.7614237,14 14,14 Z M14,16 C15.6568542,16 17,17.3431458 17,19 C17,20.6568543 15.6568542,22 14,22 C12.3431458,22 11,20.6568543 11,19 C11,17.3431458 12.3431458,16 14,16 Z" id="形状结合备份-6"></path>
                </g>
            </g>
        </g>
    </g>
</svg>