<?xml version="1.0" encoding="UTF-8"?>
<svg width="50px" height="50px" viewBox="0 0 50 50" version="1.1" xmlns="http://www.w3.org/2000/svg" xmlns:xlink="http://www.w3.org/1999/xlink">
    <!-- Generator: Sketch 59.1 (86144) - https://sketch.com -->
    <title>编组 7@2x</title>
    <desc>Created with Sketch.</desc>
    <defs>
        <linearGradient x1="21.8670746%" y1="9.75985129%" x2="83.395685%" y2="88.2657006%" id="linearGradient-1">
            <stop stop-color="#3FD6FF" offset="0%"></stop>
            <stop stop-color="#4482E7" offset="100%"></stop>
        </linearGradient>
        <linearGradient x1="23.6179901%" y1="6.91284482%" x2="123.132689%" y2="131.772296%" id="linearGradient-2">
            <stop stop-color="#59BBDC" offset="0%"></stop>
            <stop stop-color="#4C8ADB" offset="100%"></stop>
        </linearGradient>
        <rect id="path-3" x="0" y="0" width="48" height="48" rx="13"></rect>
    </defs>
    <g id="页面-1" stroke="none" stroke-width="1" fill="none" fill-rule="evenodd">
        <g id="首页" transform="translate(-163.000000, -1030.000000)">
            <g id="编组-7" transform="translate(164.000000, 1031.000000)">
                <mask id="mask-4" fill="white">
                    <use xlink:href="#path-3"></use>
                </mask>
                <use id="蒙版备份-4" stroke="url(#linearGradient-2)" stroke-width="0.58" fill="url(#linearGradient-1)" xlink:href="#path-3"></use>
                <path d="M9,16 C9,13.2385763 11.2385763,11 14,11 L25.7,11 C28.4614237,11 30.7,13.2385763 30.7,16 L30.7,17.691 L32.5830078,17.69175 C33.533128,17.69175 34.447135,18.0363214 35.1535906,18.6590027 L35.3257812,18.8204286 C38.4419271,22.3090714 40,24.3954167 40,25.0794643 L40,25.0794643 L40,30.24 C40,30.7711429 39.5640625,31.2057143 39.03125,31.2057143 L39.03125,31.2057143 L37.965625,31.2057143 C38.0261719,31.5195714 38.0625,31.8394643 38.0625,32.1714286 C38.0625,34.8392143 35.8949219,37 33.21875,37 C30.5425781,37 28.375,34.8392143 28.375,32.1714286 C28.375,31.8394643 28.4052734,31.5195714 28.471875,31.2057143 L28.471875,31.2057143 L18.590625,31.2057143 C18.6511719,31.5195714 18.6875,31.8394643 18.6875,32.1714286 C18.6875,34.8392143 16.6965688,37 13.84375,37 C11.1675859,37 9,34.8392143 9,32.1714286 L9,32.1714286 L9,16 Z M13.84375,30.24 C12.778125,30.24 11.90625,31.1091429 11.90625,32.1714286 C11.90625,33.2337143 12.778125,34.1028571 13.84375,34.1028571 C14.909375,34.1028571 15.78125,33.2337143 15.78125,32.1714286 C15.78125,31.1091429 14.909375,30.24 13.84375,30.24 Z M33.21875,30.24 C32.153125,30.24 31.28125,31.1091429 31.28125,32.1714286 C31.28125,33.2337143 32.153125,34.1028571 33.21875,34.1028571 C34.284375,34.1028571 35.15625,33.2337143 35.15625,32.1714286 C35.15625,31.1091429 34.284375,30.24 33.21875,30.24 Z M32.5830078,20.5828571 L30.7,20.582 L30.7,23.479 L35.8888672,23.48 L33.2671875,20.8665357 C33.0855469,20.6854643 32.8433594,20.5828571 32.5830078,20.5828571 L32.5830078,20.5828571 Z" id="形状结合" fill="#FFFFFF" fill-rule="nonzero" mask="url(#mask-4)"></path>
            </g>
        </g>
    </g>
</svg>