<?xml version="1.0" encoding="UTF-8"?>
<svg width="48px" height="48px" viewBox="0 0 48 48" version="1.1" xmlns="http://www.w3.org/2000/svg" xmlns:xlink="http://www.w3.org/1999/xlink">
    <!-- Generator: Sketch 57.1 (83088) - https://sketch.com -->
    <title>编组_2_slice</title>
    <desc>Created with Sketch.</desc>
    <defs>
        <linearGradient x1="21.8670746%" y1="9.75985129%" x2="83.395685%" y2="88.2657006%" id="linearGradient-1">
            <stop stop-color="#6ED3A2" offset="0%"></stop>
            <stop stop-color="#64CEB1" offset="28.5526843%"></stop>
            <stop stop-color="#43BBAB" offset="74.1684665%"></stop>
            <stop stop-color="#31B6A7" offset="100%"></stop>
        </linearGradient>
        <linearGradient x1="23.6179901%" y1="6.91284482%" x2="123.132689%" y2="131.772296%" id="linearGradient-2">
            <stop stop-color="#5ECAB2" offset="0%"></stop>
            <stop stop-color="#449B8E" offset="100%"></stop>
        </linearGradient>
        <rect id="path-3" x="0" y="0" width="48" height="48" rx="13"></rect>
    </defs>
    <g id="页面-1" stroke="none" stroke-width="1" fill="none" fill-rule="evenodd">
        <g id="画板" transform="translate(-50.000000, -120.000000)">
            <g id="编组-2" transform="translate(50.000000, 120.000000)">
                <mask id="mask-4" fill="white">
                    <use xlink:href="#path-3"></use>
                </mask>
                <use id="蒙版" stroke="url(#linearGradient-2)" stroke-width="0.58" fill="url(#linearGradient-1)" xlink:href="#path-3"></use>
                <g id="编组-11" transform="translate(10.000000, 10.000000)" fill="#FFFFFF">
                    <path d="M14,4 C20.627417,4 26,9.372583 26,16 C26,22.627417 20.627417,28 14,28 C7.372583,28 2,22.627417 2,16 C2,9.372583 7.372583,4 14,4 Z M14,10 C13.4477153,10 13,10.4477153 13,11 L13,11 L13,19 L20,19 C20.5522847,19 21,18.5522847 21,18 C21,17.4477153 20.5522847,17 20,17 L20,17 L15,16.999 L15,11 C15,10.4477153 14.5522847,10 14,10 Z" id="形状结合"></path>
                    <path d="M5.21688962,9.99538049 L5,10 C4.91279714,10 4.82611569,9.99776762 4.74000966,9.99335691 L5,10 L5,10 L5.21688962,9.99538049 L5.21688962,9.99538049 Z M4.52314793,9.97755652 L4.70299971,9.99132503 C4.64282955,9.98780022 4.58294526,9.9832114 4.52336538,9.97757709 L4.52314793,9.97755652 Z M4.26839274,9.94685647 L4.4023692,9.96465277 C4.35744429,9.95930182 4.31270219,9.9533552 4.26815104,9.94682103 L4.26839274,9.94685647 Z M4.00243083,9.90047469 L4.18717933,9.93426537 C4.12499611,9.92409946 4.06319855,9.91278644 4.00180909,9.90034876 L4.00243083,9.90047469 Z M3.7132749,9.83287585 L3.941029,9.88763894 C3.86457049,9.87115152 3.78876229,9.85291556 3.71364833,9.83297501 L3.7132749,9.83287585 Z M3.51141207,9.77466808 L3.65143741,9.81602638 C3.60455647,9.80292641 3.55795356,9.7891603 3.51163954,9.77473891 L3.51141207,9.77466808 Z M3.24787885,9.68440297 L3.39622966,9.73724771 C3.34650414,9.72041914 3.29712945,9.70282962 3.24811946,9.684493 L3.24787885,9.68440297 Z M3.01248772,9.58939207 L3.20525067,9.66822796 C3.14030003,9.643241 3.07600271,9.61693755 3.0123914,9.5893503 L3.01248772,9.58939207 Z M2.76475012,9.47376891 L2.97664891,9.57368236 C2.90514464,9.54200286 2.83452209,9.50869575 2.76482825,9.47380802 L2.76475012,9.47376891 Z M2.56100194,9.36580688 L2.72235536,9.45229229 C2.66798105,9.42442034 2.61418415,9.39558159 2.56098736,9.36579871 L2.56100194,9.36580688 Z M2.37479787,9.25620321 L2.47673654,9.31754805 C2.44251104,9.29750276 2.40854518,9.27706215 2.37484522,9.25623248 L2.37479787,9.25620321 Z M2.11295408,9.08277285 L2.28608345,9.2000733 C2.27288053,9.19152454 2.25972047,9.18291522 2.24660367,9.17424573 L2.11295408,9.08277285 L2.11295408,9.08277285 Z M5,1.61648472e-13 C6.95277875,1.61648472e-13 8.64409164,1.11946846 9.46719033,2.75165706 L9.23853641,2.8305194 C6.14211338,3.95025265 3.55345892,6.13095673 1.91290454,8.9334435 C0.747721568,8.01724397 3.46389584e-14,6.59594185 3.46389584e-14,5 C3.46389584e-14,2.23857625 2.23857625,1.61648472e-13 5,1.61648472e-13 Z M9.97120694,4.46025998 C9.97757467,4.51958653 9.98290474,4.57922369 9.98717862,4.63915294 L9.9872005,4.6394599 Z M9.92496607,4.13222807 C9.93909937,4.21299636 9.9512943,4.29443138 9.96150116,4.37648341 L9.96148148,4.37632527 Z M9.87314394,3.87593314 C9.88622249,3.93286403 9.89832905,3.99016601 9.90944523,4.04782069 L9.90948405,4.04802203 Z M9.79888371,3.59154239 C9.81813569,3.65724479 9.83607502,3.72350808 9.85267139,3.79030195 L9.85274404,3.79059436 Z M9.58789324,3.00903506 L9.64608094,3.14871612 C9.65843828,3.17970147 9.67049464,3.21083947 9.68224639,3.2421265 C9.61906056,3.07393452 9.54720075,2.91030461 9.46712473,2.75152699 Z M2.07982774,9.05910307 L1.95526235,8.96636912 C2.00703431,9.0061707 2.05960768,9.0449814 2.11295408,9.08277285 L2.07982774,9.05910307 L2.07982774,9.05910307 Z M9.99345909,4.74201223 C9.9978021,4.82745962 10,4.91347314 10,5 L10,5 Z M9.70365089,3.30021016 C9.7319661,3.37854931 9.7583799,3.45779818 9.78283657,3.53790107 Z M9.47887291,2.77497501 C9.50919523,2.83589483 9.53831124,2.89752068 9.56618967,2.95982128 L9.58789324,3.00903506 L9.58789324,3.00903506 Z" id="形状结合"></path>
                    <path d="M23.2591856,9.99339806 C23.1733442,9.99778151 23.0869312,10 23,10 L23,10 Z M23.4756311,9.97767189 C23.4151801,9.98337634 23.3544158,9.98800453 23.2933576,9.99153709 L23.2933726,9.99153616 Z M23.7344213,9.94644307 C23.690008,9.95298063 23.6454048,9.95893425 23.6006197,9.96429586 L23.6003903,9.96432266 Z M24.0011864,9.89974091 C23.9375685,9.91267079 23.8735117,9.92439274 23.8090411,9.93488178 L23.8094997,9.93480538 Z M24.2813207,9.83430776 C24.2078531,9.8537288 24.1337228,9.87151954 24.058971,9.88763894 Z M24.5072825,9.7688054 C24.4570485,9.78466798 24.4064717,9.79975877 24.3555661,9.81406385 L24.3554377,9.81408936 Z M24.7372888,9.6899263 C24.6856503,9.70906189 24.6336096,9.72736902 24.5811829,9.74483154 L24.5808975,9.74490814 Z M24.9517211,9.60474693 C24.9062983,9.62402351 24.8605316,9.64264763 24.8144328,9.66060754 L24.813893,9.66078696 Z M25.225025,9.47887291 C25.1618489,9.51031828 25.0979135,9.54046633 25.0332537,9.56928218 L25.032954,9.5693679 Z M25.4654235,9.35080302 L25.4056351,9.38431826 C25.367189,9.40545821 25.3284347,9.42610718 25.2893809,9.44625671 C25.3488301,9.41549809 25.4074881,9.38371275 25.4654235,9.35080302 Z M25.8418883,9.11439181 C25.7966981,9.1456647 25.7509677,9.17621225 25.7047139,9.20601764 L25.7045174,9.20599073 Z M26.0878108,8.93260258 C26.0237985,8.98306271 25.9645998,9.02739167 25.9044068,9.07041867 L26.0878108,8.93260258 L26.0878108,8.93260258 Z M18.0345213,4.4093454 L18.0107132,4.67005152 C18.0129227,4.63613462 18.0154704,4.60230996 18.018353,4.56858086 L18.0345213,4.4093454 L18.0345213,4.4093454 Z M18.2096616,3.56270365 L18.1473286,3.79030195 C18.1516848,3.77276989 18.1561336,3.75527437 18.1606743,3.73781596 L18.2096616,3.56270365 L18.2096616,3.56270365 Z M18.3878321,3.06585922 L18.3192555,3.23813322 C18.3410236,3.18033044 18.3638316,3.12303728 18.3876569,3.06627656 L18.3878321,3.06585922 Z M18.5211271,2.77497501 L18.413675,3.00543008 C18.4203132,2.99018747 18.4270251,2.97498439 18.4338103,2.95982128 L18.5211271,2.77497501 L18.5211271,2.77497501 Z M25.6526249,9.23913038 C25.6291539,9.25384827 25.6055521,9.26837663 25.5818214,9.28271333 L25.4654235,9.35080302 L25.4654235,9.35080302 Z M26.0878108,8.93260258 C24.4058119,6.0619759 21.7304722,3.84395004 18.5336283,2.75036168 L18.5336283,2.75036168 L18.6156817,2.59436492 C19.4659775,1.04797614 21.1106048,-1.47437618e-13 23,-1.47437618e-13 C25.7614237,-1.47437618e-13 28,2.23857625 28,5 C28,6.52604997 27.3163351,7.89242144 26.2385767,8.80954298 Z M18.0046195,4.78311038 C18.0053476,4.7660518 18.0061611,4.74901536 18.0070597,4.73200146 L18,5 L18,5 Z M18.0410128,4.35659905 C18.050033,4.28638391 18.0605096,4.21662466 18.0724114,4.14735256 L18.0769413,4.12139842 C18.0603797,4.21482871 18.0464127,4.30915546 18.0351174,4.40430155 Z M18.1123611,3.941029 L18.1255349,3.8817 C18.1074399,3.96089961 18.0912255,4.04081558 18.0769413,4.12139842 L18.1123611,3.941029 L18.1123611,3.941029 Z M18.2096616,3.56270365 L18.2171634,3.53790107 C18.240784,3.46053674 18.2662301,3.38396903 18.2934517,3.30824814 C18.2632179,3.39237494 18.2353226,3.47705654 18.2096616,3.56270365 Z" id="形状结合"></path>
                </g>
            </g>
        </g>
    </g>
</svg>