<?xml version="1.0" encoding="UTF-8"?>
<svg width="48px" height="48px" viewBox="0 0 48 48" version="1.1" xmlns="http://www.w3.org/2000/svg" xmlns:xlink="http://www.w3.org/1999/xlink">
    <!-- Generator: Sketch 57.1 (83088) - https://sketch.com -->
    <title>编组_10_slice</title>
    <desc>Created with Sketch.</desc>
    <defs>
        <linearGradient x1="21.8670746%" y1="9.75985129%" x2="83.395685%" y2="88.2657006%" id="linearGradient-1">
            <stop stop-color="#3FD6FF" offset="0%"></stop>
            <stop stop-color="#4482E7" offset="100%"></stop>
        </linearGradient>
        <linearGradient x1="23.6179901%" y1="6.91284482%" x2="123.132689%" y2="131.772296%" id="linearGradient-2">
            <stop stop-color="#59BBDC" offset="0%"></stop>
            <stop stop-color="#4C8ADB" offset="100%"></stop>
        </linearGradient>
        <rect id="path-3" x="0" y="0" width="48" height="48" rx="13"></rect>
    </defs>
    <g id="页面-1" stroke="none" stroke-width="1" fill="none" fill-rule="evenodd">
        <g id="画板" transform="translate(-163.000000, -937.000000)">
            <g id="编组-10" transform="translate(163.000000, 937.000000)">
                <mask id="mask-4" fill="white">
                    <use xlink:href="#path-3"></use>
                </mask>
                <use id="蒙版" stroke="url(#linearGradient-2)" stroke-width="0.58" fill="url(#linearGradient-1)" xlink:href="#path-3"></use>
                <path d="M20.0142365,10 C21.6418426,10 23.0878103,10.7776862 24.0008242,11.981743 C24.912262,10.7776862 26.3582297,10 27.9858358,10 L33,10 C35.7614237,10 38,12.2385763 38,15 C38,15.064982 37.9987332,15.1299577 37.9962003,15.1948903 L37.372077,31.1948903 C37.2673976,33.8784482 35.0614755,36 32.3758767,36 L28.795,36 L28.4261697,37 C28.2221932,37.5522847 27.6027646,38 27.0426372,38 L20.9574351,38 C20.3973077,38 19.7778791,37.5522847 19.5739027,37 L19.204,36 L15.6241956,36 C12.9385968,36 10.7326747,33.8784482 10.6279953,31.1948903 L10.003872,15.1948903 C9.89623703,12.4355651 12.0458567,10.1114346 14.805182,10.0037997 L14.9026086,10.00095 L20.0142365,10 Z M20.9716354,27 L14.8580326,27 C14.3057479,27 13.8580326,27.4477153 13.8580326,28 C13.8580326,28.5128358 14.2440728,28.9355072 14.7414115,28.9932723 L14.8580326,29 L20.9716354,29 C21.5239202,29 21.9716354,28.5522847 21.9716354,28 C21.9716354,27.4477153 21.5239202,27 20.9716354,27 Z M29.0699872,17 C26.2699106,17 24,19.2699106 24,22.0699872 C24,24.8700638 26.2699106,27.1399744 29.0699872,27.1399744 C30.1033282,27.1399744 31.0644654,26.8308336 31.8659597,26.2999915 L31.8659597,26.2999915 L34.2728906,28.7068995 C34.6634149,29.0974238 35.2965798,29.0974238 35.6871041,28.7068995 L35.6871041,28.7068995 L35.7068995,28.6871041 C36.0974238,28.2965798 36.0974238,27.6634149 35.7068995,27.2728906 L35.7068995,27.2728906 L33.2999915,24.8659597 C33.8308337,24.0644654 34.1399744,23.1033281 34.1399744,22.0699872 C34.1399744,19.2699106 31.8700638,17 29.0699872,17 Z M29.0699872,19.0279949 C30.7500332,19.0279949 32.1119795,20.3899412 32.1119795,22.0699872 C32.1119795,23.7500331 30.7500332,25.1119795 29.0699872,25.1119795 C27.3899412,25.1119795 26.0279949,23.7500331 26.0279949,22.0699872 C26.0279949,20.3899412 27.3899412,19.0279949 29.0699872,19.0279949 Z M20.9716354,22 L14.8580326,22 C14.3057479,22 13.8580326,22.4477153 13.8580326,23 C13.8580326,23.5128358 14.2440728,23.9355072 14.7414115,23.9932723 L14.8580326,24 L20.9716354,24 C21.5239202,24 21.9716354,23.5522847 21.9716354,23 C21.9716354,22.4477153 21.5239202,22 20.9716354,22 Z M20.9716354,17 L14.8580326,17 C14.3057479,17 13.8580326,17.4477153 13.8580326,18 C13.8580326,18.5128358 14.2440728,18.9355072 14.7414115,18.9932723 L14.8580326,19 L20.9716354,19 C21.5239202,19 21.9716354,18.5522847 21.9716354,18 C21.9716354,17.4477153 21.5239202,17 20.9716354,17 Z" id="形状结合" fill="#FFFFFF"></path>
            </g>
        </g>
    </g>
</svg>