<?xml version="1.0" encoding="UTF-8"?>
<svg width="48px" height="48px" viewBox="0 0 48 48" version="1.1" xmlns="http://www.w3.org/2000/svg" xmlns:xlink="http://www.w3.org/1999/xlink">
    <!-- Generator: Sketch 57.1 (83088) - https://sketch.com -->
    <title>车库管理审核_slice</title>
    <desc>Created with Sketch.</desc>
    <defs>
        <linearGradient x1="21.8670746%" y1="9.75985129%" x2="83.395685%" y2="88.2657006%" id="linearGradient-1">
            <stop stop-color="#FF832C" offset="0%"></stop>
            <stop stop-color="#FF693C" offset="37.6153856%"></stop>
            <stop stop-color="#FF5849" offset="67.2089585%"></stop>
            <stop stop-color="#FF4754" offset="80.922653%"></stop>
            <stop stop-color="#FF314B" offset="100%"></stop>
        </linearGradient>
        <linearGradient x1="23.6179901%" y1="6.91284482%" x2="85.4823362%" y2="86.6711008%" id="linearGradient-2">
            <stop stop-color="#FF740A" offset="0%"></stop>
            <stop stop-color="#E90334" offset="100%"></stop>
        </linearGradient>
        <rect id="path-3" x="0" y="0" width="48" height="48" rx="13"></rect>
    </defs>
    <g id="页面-1" stroke="none" stroke-width="1" fill="none" fill-rule="evenodd">
        <g id="画板" transform="translate(-164.000000, -502.000000)">
            <g id="车库管理审核" transform="translate(164.000000, 502.000000)">
                <mask id="mask-4" fill="white">
                    <use xlink:href="#path-3"></use>
                </mask>
                <use id="蒙版" stroke="url(#linearGradient-2)" stroke-width="0.58" fill="url(#linearGradient-1)" xlink:href="#path-3"></use>
                <g id="编组-18" transform="translate(10.000000, 10.000000)" fill="#FFFFFF">
                    <path d="M14.0004979,-0.105322374 L14.2042479,-0.0984004822 C14.8858857,-0.0521418332 15.554784,0.225973566 16.0832371,0.735945715 L16.0832371,0.735945715 L27.359,11.616 L27.4157734,11.6743961 C28.021638,12.3237978 28.1562746,12.8820754 27.8196831,13.349229 C27.4590494,13.8497506 27.1024481,14.2825255 26.7498791,14.6475535 C26.4632174,15.14723 25.9605544,15.1155991 25.2418901,14.5526606 L25.2418901,14.5526606 L15.9709412,5.6047384 L15.828286,5.47551962 C15.2998339,5.02650428 14.6530373,4.78984934 13.9998375,4.76555479 L14.0001625,4.76555479 C13.3469627,4.78984934 12.7001661,5.02650428 12.171714,5.47551962 L12.0290588,5.6047384 L2.75810992,14.5526606 C2.0394456,15.1155991 1.53678259,15.14723 1.2501209,14.6475535 C0.897551916,14.2825255 0.540950569,13.8497506 0.180316856,13.349229 C-0.156274609,12.8820754 -0.0216380228,12.3237978 0.584226614,11.6743961 L0.641,11.615 L11.9167629,0.735945715 C12.445216,0.225973566 13.1141143,-0.0521418332 13.7957521,-0.0984004822 L13.9995021,-0.105322374 L13.9995021,-0.105322374 L14.0004979,-0.105322374 Z" id="形状结合备份-2"></path>
                    <path d="M16.1213203,8.32233047 L25,17.2016508 L25,23 C25,25.7614238 22.7614237,28 20,28 L8,28 C5.23857625,28 3,25.7614238 3,23 L3,17.2006508 L11.8786797,8.32233047 C13.0502525,7.1507576 14.9497475,7.1507576 16.1213203,8.32233047 Z M9,21.5536528 C9,20.7982875 9.63726616,20.4374327 10.4215792,20.4374327 L12.5784374,20.4374327 L12.5784374,19.0987164 C11.7451046,18.6266135 11.1568693,17.7296181 11.1568693,16.7381966 C11.1568693,15.2274682 12.4313794,14 14,14 C15.5686317,14 16.8431418,15.2274682 16.8431418,16.7381966 C16.8431418,17.7768232 16.2549065,18.6266125 15.4215737,19.0987164 L15.4215737,20.4374327 L17.5784319,20.4374327 C18.362746,20.4374327 19,20.7982886 19,21.5536528 L19,22.2872968 L9,22.2872968 L9,21.5536528 Z M17.1274243,25 L11.7348485,25 C11.2285875,25 10.8181818,24.5895944 10.8181818,24.0833333 C10.8181818,23.5770723 11.2285875,23.1666667 11.7348485,23.1666667 L16.2651515,23.1666667 C16.7714125,23.1666667 17.1818182,23.5770723 17.1818182,24.0833333 L17.1818182,24.9728031 C17.1818182,24.9878235 17.1696417,25 17.1546213,25 L17.1274243,25 Z" id="形状结合备份-4"></path>
                </g>
            </g>
        </g>
    </g>
</svg>