<?xml version="1.0" encoding="UTF-8"?>
<svg width="48px" height="48px" viewBox="0 0 48 48" version="1.1" xmlns="http://www.w3.org/2000/svg" xmlns:xlink="http://www.w3.org/1999/xlink">
    <!-- Generator: Sketch 55.2 (78181) - https://sketchapp.com -->
    <title>抄送_slice</title>
    <desc>Created with Sketch.</desc>
    <defs>
        <linearGradient x1="14.9109105%" y1="4.10870533%" x2="83.395685%" y2="88.2657006%" id="linearGradient-1">
            <stop stop-color="#F8D98D" offset="0%"></stop>
            <stop stop-color="#E3C376" offset="100%"></stop>
        </linearGradient>
        <linearGradient x1="23.6179901%" y1="6.91284482%" x2="123.132689%" y2="131.772296%" id="linearGradient-2">
            <stop stop-color="#E4C477" offset="0%"></stop>
            <stop stop-color="#F7D88C" offset="100%"></stop>
        </linearGradient>
        <rect id="path-3" x="0" y="0" width="48" height="48" rx="13"></rect>
        <filter x="-19.4%" y="-11.0%" width="138.7%" height="142.9%" filterUnits="objectBoundingBox" id="filter-5">
            <feMorphology radius="0.29" operator="dilate" in="SourceAlpha" result="shadowSpreadOuter1"></feMorphology>
            <feOffset dx="0" dy="6" in="shadowSpreadOuter1" result="shadowOffsetOuter1"></feOffset>
            <feGaussianBlur stdDeviation="2" in="shadowOffsetOuter1" result="shadowBlurOuter1"></feGaussianBlur>
            <feComposite in="shadowBlurOuter1" in2="SourceAlpha" operator="out" result="shadowBlurOuter1"></feComposite>
            <feColorMatrix values="0 0 0 0 0   0 0 0 0 0   0 0 0 0 0  0 0 0 0.05 0" type="matrix" in="shadowBlurOuter1"></feColorMatrix>
        </filter>
    </defs>
    <g id="页面1" stroke="none" stroke-width="1" fill="none" fill-rule="evenodd">
        <g id="画板" transform="translate(-276.000000, -574.000000)">
            <g id="抄送" transform="translate(276.000000, 574.000000)">
                <g id="编组-3">
                    <mask id="mask-4" fill="white">
                        <use xlink:href="#path-3"></use>
                    </mask>
                    <g id="蒙版">
                        <use fill="black" fill-opacity="1" filter="url(#filter-5)" xlink:href="#path-3"></use>
                        <use stroke="url(#linearGradient-2)" stroke-width="0.58" fill="url(#linearGradient-1)" fill-rule="evenodd" xlink:href="#path-3"></use>
                    </g>
                </g>
                <g id="编组-5" transform="translate(11.000000, 10.000000)" fill="#FFFFFF" fill-rule="nonzero">
                    <path d="M21.6425116,18.2346803 L16.660226,21.031922 C15.5302515,21.6869251 15.2477579,22.3272231 15.8127452,22.9528159 C16.3777324,23.5784088 17.9427456,24.612378 20.5077846,26.0547235 L20.8766415,28 L1.29259125,28 C0.58008973,28 0.00315266157,27.4294964 0.00315266157,26.72494 L0.00315266157,26.68753 L6.92779167e-14,26.68753 C6.92779167e-14,26.681295 0.00315266157,26.6719424 0.00315266157,26.6657074 C0.00315266157,26.6189448 0.00945798472,26.5752998 0.0157633079,26.5285372 C0.540091086,21.6510625 3.81041655,17.5857291 8.26948194,15.8724297 C8.26298424,15.868701 8.25649024,15.8649631 8.24999996,15.8612159 C5.62009079,14.3428372 4,11.5367575 4,8.5 C4,5.4632425 5.62009079,2.65716283 8.24999996,1.13878407 C10.8799091,-0.379594691 14.1200909,-0.379594691 16.75,1.13878407 C19.3799092,2.65716283 21,5.4632425 21,8.5 C21,11.4004817 19.5220512,14.0905245 17.0978991,15.6491182 C18.7932298,16.2030079 20.3346648,17.0911299 21.6425116,18.2346803 Z" id="形状结合"></path>
                    <path d="M28.9931814,17.2737048 C29.0158868,17.1890201 28.9808489,17.1003539 28.9035455,17.0468742 C28.8262421,16.9933946 28.7209139,16.9849534 28.6340895,17.0252796 L18.3899684,21.7982431 C18.1592819,21.906295 18.0108849,22.1154022 18.0005735,22.3469418 C17.9902621,22.5784815 18.1195994,22.7973549 18.3399556,22.9212672 L20.6205391,24.2020569 C20.6676284,24.2286456 20.7288442,24.2242939 20.7705775,24.191391 L26.8506332,19.361543 C26.8986629,19.3210966 26.9739034,19.3210909 27.0219409,19.36153 C27.0699783,19.4019691 27.074036,19.46873 27.0311794,19.5135312 L22.1724362,24.9291116 C22.1503172,24.9538044 22.1410603,24.985691 22.1469766,25.0168102 C22.1528929,25.0479294 22.1734241,25.0753442 22.2034441,25.0922101 L25.4202672,26.9005144 C25.6188905,27.0117295 25.8657195,27.0308946 26.0830396,26.9519756 C26.3003598,26.8730566 26.4614339,26.705763 26.5155475,26.5027675 L28.9931814,17.2737048 Z M22.2027567,26.0160361 C22.1621316,25.9958875 22.1107878,25.9946402 22.0686553,26.0127784 C22.0265229,26.0309167 22.0002366,26.0655841 22,26.103324 L22,27.5863898 C22.0000455,27.7536829 22.1283568,27.9044874 22.3251192,27.9685029 C22.5218816,28.0325183 22.7483594,27.9971424 22.8989756,27.8788661 L23.9617365,27.0444606 C23.9898247,27.0221809 24.0035917,26.991124 23.9991948,26.9599588 C23.9947979,26.9287936 23.9727079,26.9008582 23.9390909,26.8839503 L22.2027567,26.0160361 Z" id="形状"></path>
                </g>
            </g>
        </g>
    </g>
</svg>