<?xml version="1.0" encoding="UTF-8"?>
<svg width="48px" height="48px" viewBox="0 0 48 48" version="1.1" xmlns="http://www.w3.org/2000/svg" xmlns:xlink="http://www.w3.org/1999/xlink">
    <!-- Generator: Sketch 57.1 (83088) - https://sketch.com -->
    <title>编组_9_slice</title>
    <desc>Created with Sketch.</desc>
    <defs>
        <linearGradient x1="21.8670746%" y1="9.75985129%" x2="83.395685%" y2="88.2657006%" id="linearGradient-1">
            <stop stop-color="#AB97F8" offset="0%"></stop>
            <stop stop-color="#7D73F4" offset="100%"></stop>
        </linearGradient>
        <linearGradient x1="23.6179901%" y1="6.91284482%" x2="85.4823362%" y2="86.6711008%" id="linearGradient-2">
            <stop stop-color="#9081F9" offset="0%"></stop>
            <stop stop-color="#AB98F9" offset="100%"></stop>
        </linearGradient>
        <rect id="path-3" x="0" y="0" width="48" height="48" rx="13"></rect>
    </defs>
    <g id="页面-1" stroke="none" stroke-width="1" fill="none" fill-rule="evenodd">
        <g id="画板" transform="translate(-50.000000, -793.000000)">
            <g id="编组-9" transform="translate(50.000000, 793.000000)">
                <mask id="mask-4" fill="white">
                    <use xlink:href="#path-3"></use>
                </mask>
                <use id="蒙版" stroke="url(#linearGradient-2)" stroke-width="0.58" fill="url(#linearGradient-1)" xlink:href="#path-3"></use>
                <g id="xitongquanxian" transform="translate(12.000000, 10.000000)" fill="#FFFFFF" fill-rule="nonzero">
                    <path d="M23.0873473,3.48624059 C22.365522,3.60958771 21.627103,3.67537284 20.8693247,3.67537284 C17.6778059,3.67537284 14.7545517,2.52687407 12.5005762,0.627328377 C12.2074211,0.380634131 11.7759853,0.380634131 11.4828301,0.627328377 C9.22885457,2.52961512 6.30560037,3.67537284 3.11408159,3.67537284 C2.36736575,3.67537284 1.63447799,3.61232876 0.923715142,3.49172268 C0.4480295,3.41223231 0.013828071,3.77679159 0.0110624568,4.25647485 C0.00553122839,7.24695732 0,10.7829082 0,10.9035143 C0,23.8138465 10.910348,27.1497009 11.9197972,27.4320288 C11.9695782,27.445734 12.0193593,27.445734 12.0691404,27.4320288 C13.0758239,27.152442 23.9197972,23.8357749 23.9889375,11.0268614 L24,4.25647485 C24,3.77405054 23.563033,3.40400917 23.0873473,3.48624059 Z M12.9403088,15.5002504 L12.9403088,19.7351683 C12.9403088,20.2504851 12.5199355,20.6671243 12,20.6671243 C11.4800645,20.6671243 11.0596912,20.2504851 11.0596912,19.7351683 L11.0596912,15.5002504 C9.17354229,15.0753881 7.76584466,13.4060903 7.76584466,11.4078669 C7.76584466,9.09168207 9.66029039,7.21132371 12,7.21132371 C14.3397096,7.21132371 16.2341553,9.08894103 16.2341553,11.4078669 C16.2341553,13.4060903 14.8264577,15.0781291 12.9403088,15.5002504 L12.9403088,15.5002504 Z" id="形状"></path>
                </g>
            </g>
        </g>
    </g>
</svg>