<?xml version="1.0" encoding="UTF-8"?>
<svg width="48px" height="48px" viewBox="0 0 48 48" version="1.1" xmlns="http://www.w3.org/2000/svg" xmlns:xlink="http://www.w3.org/1999/xlink">
    <!-- Generator: Sketch 55.2 (78181) - https://sketchapp.com -->
    <title>待办_slice</title>
    <desc>Created with Sketch.</desc>
    <defs>
        <linearGradient x1="15.3138713%" y1="0%" x2="83.395685%" y2="88.2657006%" id="linearGradient-1">
            <stop stop-color="#F29F90" offset="0%"></stop>
            <stop stop-color="#E47774" offset="100%"></stop>
        </linearGradient>
        <linearGradient x1="23.6179901%" y1="6.91284482%" x2="123.132689%" y2="131.772296%" id="linearGradient-2">
            <stop stop-color="#EA9790" offset="0%"></stop>
            <stop stop-color="#F29F90" offset="100%"></stop>
        </linearGradient>
        <rect id="path-3" x="0" y="0" width="48" height="48" rx="13"></rect>
        <filter x="-19.4%" y="-11.0%" width="138.7%" height="142.9%" filterUnits="objectBoundingBox" id="filter-5">
            <feMorphology radius="0.29" operator="dilate" in="SourceAlpha" result="shadowSpreadOuter1"></feMorphology>
            <feOffset dx="0" dy="6" in="shadowSpreadOuter1" result="shadowOffsetOuter1"></feOffset>
            <feGaussianBlur stdDeviation="2" in="shadowOffsetOuter1" result="shadowBlurOuter1"></feGaussianBlur>
            <feComposite in="shadowBlurOuter1" in2="SourceAlpha" operator="out" result="shadowBlurOuter1"></feComposite>
            <feColorMatrix values="0 0 0 0 0   0 0 0 0 0   0 0 0 0 0  0 0 0 0.05 0" type="matrix" in="shadowBlurOuter1"></feColorMatrix>
        </filter>
    </defs>
    <g id="页面1" stroke="none" stroke-width="1" fill="none" fill-rule="evenodd">
        <g id="画板" transform="translate(-50.000000, -574.000000)">
            <g id="待办" transform="translate(50.000000, 574.000000)">
                <mask id="mask-4" fill="white">
                    <use xlink:href="#path-3"></use>
                </mask>
                <g id="蒙版">
                    <use fill="black" fill-opacity="1" filter="url(#filter-5)" xlink:href="#path-3"></use>
                    <use stroke="url(#linearGradient-2)" stroke-width="0.58" fill="url(#linearGradient-1)" fill-rule="evenodd" xlink:href="#path-3"></use>
                </g>
                <path d="M31.0137018,28 C31.0061345,27.4477153 31.6715729,27 32.5,27 C33.3284271,27 33.9938655,27.4477153 33.9862982,28 C33.9851784,28.0817269 33.9695399,28.1611639 33.9410776,28.2371991 C35.7139363,28.8460249 36.9249674,30.5586216 36.8397589,32.575558 C36.8313491,32.7768973 36.8066401,32.9733259 36.7749846,33.1685268 L36.6888219,35.2506696 C36.6703802,35.696317 36.8451507,36.1137277 37.1572286,36.383817 C37.1868022,36.4095982 37.2438232,36.4329241 37.3485745,36.5520089 C37.5164886,36.7435268 37.5522602,37.0455357 37.4100854,37.3094866 C37.295997,37.5194196 37.0763329,37.6385045 36.8568117,37.6385045 L33.950126,37.6385045 C33.8338358,38.4082589 33.2273668,39 32.5023786,39 C31.7773905,39 31.1709504,38.4082589 31.0546977,37.6385045 L28.1187425,37.6385045 C27.7967781,37.6385045 27.520169,37.353683 27.5025289,37.002567 C27.4848888,36.6514509 27.7673957,36.4464286 27.775081,36.4402902 C28.1170273,36.1824777 28.3331769,35.7466518 28.3126596,35.2506696 L28.2270859,33.1820313 C28.1941044,32.9831473 28.1680114,32.781808 28.1593949,32.575558 C28.0751377,30.5587356 29.2862238,28.8462185 31.0589611,28.2373024 C31.0304743,28.1612358 31.0148221,28.0817639 31.0137018,28 Z" id="形状结合" fill="#FFFFFF"></path>
                <path d="M29.5045469,26.7145251 C27.5727565,27.7042089 26.2633598,29.6212954 26.2633598,31.8234375 C26.2633598,32.0859375 26.288865,32.3421875 26.3245724,32.5953125 L26.3245724,35.228125 C26.3245724,35.859375 25.9760007,36.4140625 25.4488923,36.7421875 C25.4369899,36.75 25,37.0109375 25,37.4578125 C25,37.6663315 25.0862608,37.8564795 25.2276874,38 L11.2925912,38 C10.5800897,38 10.0031527,37.4294964 10.0031527,36.72494 L10.0031527,36.68753 L10,36.68753 C10,36.681295 10.0031527,36.6719424 10.0031527,36.6657074 C10.0031527,36.6189448 10.009458,36.5752998 10.0157633,36.5285372 C10.5400911,31.6510625 13.8104166,27.5857291 18.2694819,25.8724297 C18.2629842,25.868701 18.2564902,25.8649631 18.25,25.8612159 C15.6200908,24.3428372 14,21.5367575 14,18.5 C14,15.4632425 15.6200908,12.6571628 18.25,11.1387841 C20.8799091,9.62040531 24.1200909,9.62040531 26.75,11.1387841 C29.3799092,12.6571628 31,15.4632425 31,18.5 C31,21.4004817 29.5220512,24.0905245 27.0978991,25.6491182 C27.9414932,25.9247329 28.746982,26.283105 29.5045469,26.7145251 Z" id="形状结合" fill="#FFFFFF" fill-rule="nonzero"></path>
            </g>
        </g>
    </g>
</svg>