<?xml version="1.0" encoding="UTF-8"?>
<svg width="50px" height="50px" viewBox="0 0 50 50" version="1.1" xmlns="http://www.w3.org/2000/svg" xmlns:xlink="http://www.w3.org/1999/xlink">
    <!-- Generator: Sketch 59.1 (86144) - https://sketch.com -->
    <title>法人还款计划查询@2x</title>
    <desc>Created with Sketch.</desc>
    <defs>
        <linearGradient x1="21.8670746%" y1="9.75985129%" x2="83.395685%" y2="88.2657006%" id="linearGradient-1">
            <stop stop-color="#3FD6FF" offset="0%"></stop>
            <stop stop-color="#4482E7" offset="100%"></stop>
        </linearGradient>
        <linearGradient x1="23.6179901%" y1="6.91284482%" x2="123.132689%" y2="131.772296%" id="linearGradient-2">
            <stop stop-color="#59BBDC" offset="0%"></stop>
            <stop stop-color="#4C8ADB" offset="100%"></stop>
        </linearGradient>
        <rect id="path-3" x="0" y="0" width="48" height="48" rx="13"></rect>
    </defs>
    <g id="页面-1" stroke="none" stroke-width="1" fill="none" fill-rule="evenodd">
        <g id="首页" transform="translate(-162.000000, -1404.000000)">
            <g id="法人还款计划查询" transform="translate(163.000000, 1405.000000)">
                <mask id="mask-4" fill="white">
                    <use xlink:href="#path-3"></use>
                </mask>
                <use id="蒙版备份-10" stroke="url(#linearGradient-2)" stroke-width="0.58" fill="url(#linearGradient-1)" xlink:href="#path-3"></use>
                <g id="wodecaogao" mask="url(#mask-4)" fill="#FFFFFF">
                    <g transform="translate(11.000000, 11.000000)">
                        <path d="M16.3691275,12.8408564 C16.6802013,12.652666 16.9308725,12.113187 16.4053691,11.8559935 C16.2271812,11.7713078 16.042953,11.6928951 15.8587248,11.617619 C17.1694631,10.3975181 18,8.63166508 18,6.65880267 C18,2.9828174 15.1278523,0 11.588255,0 C8.04865772,0 5.17651007,2.9828174 5.17651007,6.65880267 C5.17651007,8.63166508 6.00704698,10.3975181 7.31778523,11.617619 C3.43389262,13.2015546 0.567785235,16.8838129 0.00906040268,21.3219692 C0.00302013423,21.3752898 0,21.4286104 0,21.481931 C0,22.3193782 0.652348993,23 1.46174497,23 L13.6208054,23 C13.0620805,21.9273149 12.7419463,20.6978044 12.7419463,19.3930179 C12.7449664,16.5952543 14.2036913,14.1550525 16.3691275,12.8408564 Z" id="形状" fill-rule="nonzero"></path>
                        <path d="M21.5,13 C17.9176322,13 15,15.9143577 15,19.5 C15,23.0823678 17.9143577,26 21.5,26 C25.0856423,26 28,23.0856423 28,19.5 C28,15.9176322 25.0856423,13 21.5,13 Z M25.023496,22.5224181 C25.023496,23.0758186 24.5748111,23.5277078 24.018136,23.5277078 L18.981864,23.5277078 C18.4284635,23.5277078 17.9765743,23.0790932 17.9765743,22.5224181 L17.9765743,16.4775819 C17.9765743,15.9241814 18.4284635,15.4722922 18.981864,15.4722922 L24.0246851,15.4722922 C24.5780856,15.4722922 25.0299748,15.9241814 25.023496,16.4775819 L25.023496,22.5224181 L25.023496,22.5224181 Z" id="形状" fill-rule="nonzero"></path>
                        <path d="M23.5,21 C23.7761424,21 24,21.2238576 24,21.5 C24,21.7761424 23.7761424,22 23.5,22 L19.5,22 C19.2238576,22 19,21.7761424 19,21.5 C19,21.2238576 19.2238576,21 19.5,21 L23.5,21 Z M23.5,19 C23.7761424,19 24,19.2238576 24,19.5 C24,19.7761424 23.7761424,20 23.5,20 L19.5,20 C19.2238576,20 19,19.7761424 19,19.5 C19,19.2238576 19.2238576,19 19.5,19 L23.5,19 Z M23.5,17 C23.7761424,17 24,17.2238576 24,17.5 C24,17.7761424 23.7761424,18 23.5,18 L19.5,18 C19.2238576,18 19,17.7761424 19,17.5 C19,17.2238576 19.2238576,17 19.5,17 L23.5,17 Z" id="形状结合" fill-rule="evenodd"></path>
                    </g>
                </g>
            </g>
        </g>
    </g>
</svg>