<?xml version="1.0" encoding="UTF-8"?>
<svg width="50px" height="50px" viewBox="0 0 50 50" version="1.1" xmlns="http://www.w3.org/2000/svg" xmlns:xlink="http://www.w3.org/1999/xlink">
    <!-- Generator: Sketch 59.1 (86144) - https://sketch.com -->
    <title>编组 2@2x</title>
    <desc>Created with Sketch.</desc>
    <defs>
        <linearGradient x1="21.8670746%" y1="9.75985129%" x2="83.395685%" y2="88.2657006%" id="linearGradient-1">
            <stop stop-color="#3FD6FF" offset="0%"></stop>
            <stop stop-color="#4482E7" offset="100%"></stop>
        </linearGradient>
        <linearGradient x1="23.6179901%" y1="6.91284482%" x2="123.132689%" y2="131.772296%" id="linearGradient-2">
            <stop stop-color="#59BBDC" offset="0%"></stop>
            <stop stop-color="#4C8ADB" offset="100%"></stop>
        </linearGradient>
        <rect id="path-3" x="0" y="0" width="48" height="48" rx="13"></rect>
    </defs>
    <g id="页面-1" stroke="none" stroke-width="1" fill="none" fill-rule="evenodd">
        <g id="首页" transform="translate(-163.000000, -1209.000000)">
            <g id="编组-2" transform="translate(164.000000, 1210.000000)">
                <mask id="mask-4" fill="white">
                    <use xlink:href="#path-3"></use>
                </mask>
                <use id="蒙版备份-6" stroke="url(#linearGradient-2)" stroke-width="0.58" fill="url(#linearGradient-1)" xlink:href="#path-3"></use>
                <path d="M24.0004979,9 L24.2042479,9.00692189 C24.8177219,9.04855468 25.4208769,9.27799143 25.9206155,9.69523215 L26.0832371,9.84126809 L37.359,20.7213224 L37.4157734,20.7797184 C38.021638,21.4291202 38.1562746,21.9873978 37.8196831,22.4545514 C37.4590494,22.955073 37.1024481,23.3878478 36.7498791,23.7528758 C36.4811338,24.2213226 36.0225435,24.2227999 35.3741084,23.7573077 L35.2418901,23.657983 L35,23.4243224 L35,33.1073224 L37.7316031,36.0052148 C37.8773475,36.1598428 37.9692807,36.3559993 37.9958767,36.5646508 L38.0039016,36.6911088 C38.0039016,37.2039446 37.6178614,37.626616 37.1205227,37.6843811 L37.0039016,37.6911088 L11.25138,37.6911088 C11.0036529,37.6911088 10.7647436,37.5991582 10.5809392,37.4330719 C10.2026855,37.0912803 10.1463044,36.5261775 10.4310992,36.118962 L10.509417,36.020668 L13,33.2633224 L13,23.4233224 L12.7581099,23.657983 C12.0394456,24.2209214 11.5367826,24.2525524 11.2501209,23.7528758 C10.8975519,23.3878478 10.5409506,22.955073 10.1803169,22.4545514 C9.84372539,21.9873978 9.97836198,21.4291202 10.5842266,20.7797184 L10.641,20.7203224 L21.9167629,9.84126809 C22.445216,9.33129594 23.1141143,9.05318054 23.7957521,9.00692189 L23.9995021,9 L24.0004979,9 Z M24.674999,20.1053224 L23.2083299,20.1053224 L23.2083299,21.2969911 C22.3374963,21.3886586 21.741663,21.663659 21.237495,22.1219921 C20.6874944,22.5803253 20.3666614,23.3136609 20.3666614,24.0469943 C20.3666614,24.917828 20.5041615,25.6511614 20.9624947,26.1553294 C21.4208214,26.6594952 23.1624972,27.25533 23.9874982,27.4386635 C24.8124992,27.6219964 25.5916674,28.1261643 25.5916674,28.8594978 C25.5916674,29.7303336 24.8124992,30.0511666 24.1249984,30.0511666 C23.0249971,30.0511666 22.2458288,29.2261656 22.2458288,28.4928321 L22.2458288,28.4928321 L20,29.0428328 C20.1375002,29.8219989 20.3666678,30.4178344 21.1000013,31.0136677 C21.6500019,31.4720008 22.2916679,31.7470018 23.2083364,31.8386686 L23.2083364,31.8386686 L23.2083364,33.2595029 L24.6750054,33.2595029 L24.6750054,31.8845013 C25.5458477,31.8386686 26.2333485,31.5178335 26.8291818,31.0595004 C27.5166697,30.5553345 27.8833368,29.8678337 27.9291702,28.8594999 C27.9291702,28.0803338 27.7000047,27.392833 27.1958367,26.888665 C26.6916838,26.3386644 25.591676,25.7428289 24.1250069,25.2844958 C23.2541733,25.0094955 22.7500053,24.78033 22.7500053,24.1386618 C22.7500053,23.221994 23.300006,23.0386606 24.0333395,23.0386606 C24.5833401,23.0386606 25.4083411,23.7261614 25.4083411,24.276162 L25.4083411,24.276162 L27.6541698,23.771994 C27.6541698,23.3136609 27.3333369,22.6261601 26.6916687,22.0761594 C26.1416681,21.6178241 25.5,21.388658 24.674999,21.2969911 L24.674999,21.2969911 L24.674999,20.1053224 Z" id="形状结合" fill="#FFFFFF" mask="url(#mask-4)"></path>
            </g>
        </g>
    </g>
</svg>