<?xml version="1.0" encoding="UTF-8"?>
<svg width="15px" height="15px" viewBox="0 0 15 15" version="1.1" xmlns="http://www.w3.org/2000/svg" xmlns:xlink="http://www.w3.org/1999/xlink">
    <!-- Generator: Sketch 55.2 (78181) - https://sketchapp.com -->
    <title>投资蓝_slice</title>
    <desc>Created with Sketch.</desc>
    <g id="页面1" stroke="none" stroke-width="1" fill="none" fill-rule="evenodd">
        <g id="画板" transform="translate(-20.000000, -270.000000)" fill="#057AFF" fill-rule="nonzero">
            <g id="投资蓝" transform="translate(20.000000, 270.000000)">
                <path d="M14.2605634,3.10337012 L8.21505959,0.148200949 C7.81690141,-0.0441928773 7.16684724,-0.0518886304 6.76868906,0.140505196 L0.715059588,3.10337012 C0.316901408,3.29576395 0,3.76520489 0,4.14999254 L0.00812567714,10.8529935 C0.00812567714,11.2377811 0.357529794,11.6918305 0.755687974,11.8842244 L6.80119177,14.8393935 C7.19934995,15.0317874 7.83315276,15.0625704 8.23131094,14.8701765 L14.2768147,11.9303989 C14.6749729,11.7380051 15,11.2608684 15,10.8760807 L15,4.15768829 C14.9918743,3.78059639 14.6668472,3.3034597 14.2605634,3.10337012 Z M13.7707994,10.2741848 C13.7707994,10.5999492 13.5013526,10.9955202 13.1665855,11.1584024 L8.10425323,13.7102236 C7.76948609,13.8731058 7.24692276,13.8498369 6.91215563,13.6869547 L1.84982335,11.119621 C1.51505622,10.9567388 1.2292794,10.5766803 1.2292794,10.2509159 L1.21294929,4.69740847 C1.21294929,4.37164406 1.48239601,3.976073 1.80899809,3.8131908 L6.88766047,1.3466889 C7.22242761,1.1838067 7.76132104,1.19156299 8.09608817,1.3544452 L13.1584204,3.8131908 C13.4931876,3.976073 13.7707994,4.37940036 13.7626343,4.70516476 L13.7707994,10.2741848 Z M9.85644637,8.12100112 C10.2302275,8.12100112 10.4171181,7.95169455 10.4171181,7.62077717 C10.4171181,7.28216403 10.2302275,7.11285747 9.85644637,7.11285747 L8.66197183,7.11285747 L9.84019502,4.7964358 C9.94582882,4.63482498 9.99458288,4.49630143 9.99458288,4.38086513 C9.99458288,4.26542884 9.92145179,4.16538405 9.7751896,4.08073076 C9.63705309,3.99607748 9.4907909,3.94990296 9.35265439,3.94990296 C9.2063922,3.94990296 9.06825569,4.0576435 8.93011918,4.26542884 L7.48374865,6.98972542 L6.05362947,4.27312459 C5.92361863,4.06533926 5.77735645,3.96529447 5.6148429,3.96529447 C5.45232936,3.96529447 5.31419285,4.01146898 5.19230769,4.09612227 C5.07042254,4.1730798 5.0135428,4.27312459 5.0135428,4.40395239 C5.0135428,4.53478019 5.05417118,4.66560799 5.13542795,4.7964358 L6.31365114,7.10516171 L5.10292524,7.10516171 C4.92416035,7.10516171 4.79414951,7.14364048 4.70476706,7.21290226 C4.61538462,7.28216403 4.57475623,7.41299184 4.57475623,7.60538566 C4.57475623,7.9439988 4.7616468,8.11330536 5.13542795,8.11330536 L6.90682557,8.11330536 L6.90682557,8.92135944 L5.10292524,8.92135944 C4.92416035,8.92135944 4.79414951,8.9598382 4.70476706,9.02909998 C4.61538462,9.09836176 4.57475623,9.22918956 4.57475623,9.42158338 C4.57475623,9.76019652 4.7616468,9.92950309 5.13542795,9.92950309 L6.90682557,9.92950309 L6.90682557,11.2223896 C6.90682557,11.4532622 6.94745395,11.614873 7.02871073,11.707222 C7.1099675,11.7995711 7.26435536,11.8457456 7.49187432,11.8457456 C7.72751896,11.8457456 7.87378115,11.7995711 7.95503792,11.707222 C8.02816901,11.614873 8.0687974,11.4532622 8.0687974,11.2223896 L8.0687974,9.92950309 L9.86457205,9.92950309 C10.2383532,9.92950309 10.4252438,9.76019652 10.4252438,9.42927914 C10.4252438,9.090666 10.2383532,8.92135944 9.86457205,8.92135944 L8.0687974,8.92135944 L8.0687974,8.11330536 L9.85644637,8.12100112 L9.85644637,8.12100112 Z" id="形状"></path>
            </g>
        </g>
    </g>
</svg>