<?xml version="1.0" encoding="UTF-8"?>
<svg width="10px" height="10px" viewBox="0 0 10 10" version="1.1" xmlns="http://www.w3.org/2000/svg" xmlns:xlink="http://www.w3.org/1999/xlink">
    <!-- Generator: Sketch 57.1 (83088) - https://sketch.com -->
    <title>最后_slice</title>
    <desc>Created with Sketch.</desc>
    <g id="页面-1" stroke="none" stroke-width="1" fill="none" fill-rule="evenodd">
        <g id="画板" transform="translate(-217.000000, -141.000000)" fill="#666666" fill-rule="nonzero">
            <g id="最后" transform="translate(217.000000, 141.000000)">
                <path d="M7.80340907,0.392261097 L7.80340907,0.392262114 C7.80397133,0.301369137 7.87751532,0.227824814 7.96840819,0.227260848 L9.59641008,0.227260848 L9.59641008,0.227260848 C9.68730306,0.227823668 9.76084738,0.301368063 9.76141028,0.39226104 L9.76141028,9.68727186 L9.76141028,9.68727085 C9.76084801,9.77816382 9.68730403,9.85170815 9.59641116,9.85227211 L7.96840927,9.85227211 L7.96840927,9.85227211 C7.8775163,9.8517093 7.80397197,9.7781649 7.80340907,9.68727192 L7.80340907,0.392261106 L7.80340907,0.392261097 Z M0.136399516,9.55458426 L0.136399516,9.55458376 C0.136399516,9.64571081 0.21037191,9.71948515 0.301499175,9.71948515 C0.332334767,9.71948515 0.362548171,9.7108079 0.388712733,9.69449082 L7.61297114,5.17898556 L7.61297114,5.17898556 C7.69023935,5.13139654 7.71429898,5.03017924 7.66670996,4.95291167 C7.65324268,4.93104538 7.63483742,4.91264023 7.61297114,4.89917285 L0.388712732,0.383667591 L0.388712739,0.383667595 C0.310710295,0.33582291 0.208690654,0.360270654 0.16084597,0.438273098 C0.145093178,0.463955227 0.136641215,0.493446541 0.136399516,0.523574008 L0.136399516,9.55492827 L0.136399516,9.55458426 Z" id="形状"></path>
            </g>
        </g>
    </g>
</svg>