<?xml version="1.0" encoding="UTF-8"?>
<svg width="36px" height="36px" viewBox="0 0 36 36" version="1.1" xmlns="http://www.w3.org/2000/svg" xmlns:xlink="http://www.w3.org/1999/xlink">
    <!-- Generator: Sketch 55.2 (78181) - https://sketchapp.com -->
    <title>位置_slice</title>
    <desc>Created with Sketch.</desc>
    <g id="页面1" stroke="none" stroke-width="1" fill="none" fill-rule="evenodd">
        <g id="画板" transform="translate(-15.000000, -211.000000)">
            <g id="位置" transform="translate(15.000000, 211.000000)">
                <path d="M18,36 C27.9359313,36 36,27.9358672 36,18.0001432 C36,8.06384654 27.9359313,0 18,0 C8.06406871,0 0,8.06384654 0,18.0001432 C0,27.9358672 8.06406871,36 18,36 Z" id="Fill-1" fill-opacity="0.06" fill="#0098E4"></path>
                <path d="M17.3239324,26.7488368 C12.4788612,23.0651136 10,19.9395309 10,16.9255867 C10,12.5721021 13.4929537,9 18,9 C22.5070463,9 26,12.4604635 26,16.9255867 C25.887324,19.8279098 23.521121,23.1767523 18.4507117,26.7488368 C18.1126637,27.0837211 17.5492847,27.0837211 17.3239324,26.7488368 Z M18,20.7 C19.9616845,20.7 21.5555556,19.0862055 21.5555556,17.1 C21.5555556,15.1137945 19.9616845,13.5 18,13.5 C16.0383155,13.5 14.4444444,15.1137945 14.4444444,17.1 C14.4444444,19.0862055 16.1609213,20.7 18,20.7 Z" id="形状" fill="#A9D2FF" fill-rule="nonzero"></path>
            </g>
        </g>
    </g>
</svg>