<?xml version="1.0" encoding="UTF-8"?>
<svg width="30px" height="30px" viewBox="0 0 40 40" version="1.1" xmlns="http://www.w3.org/2000/svg" xmlns:xlink="http://www.w3.org/1999/xlink">
    <!-- Generator: Sketch 55.2 (78181) - https://sketchapp.com -->
    <title>男_slice</title>
    <desc>Created with Sketch.</desc>
    <g id="页面1" stroke="none" stroke-width="1" fill="none" fill-rule="evenodd">
        <g id="画板" transform="translate(-30.000000, -178.000000)">
            <g id="男" transform="translate(30.000000, 178.000000)">
                <circle id="椭圆形备份" fill="#E9F3FE" cx="20" cy="20" r="20"></circle>
                <g id="编组备份" transform="translate(10.731707, 2.926829)">
                    <path d="M3.3222731,19.1831357 C3.36270529,22.5495266 2.80751265,24.4322928 1.65669518,24.8314344 C0.50587771,25.2305759 -0.0453812839,26.548657 0.00291819728,28.7856775 C1.31592313,29.6142441 2.44883411,30.2616555 3.40165115,30.7279118 C4.83087671,31.4272961 10.6521305,32.6683044 11.0541002,32.6683044 C11.4560699,32.6683044 12.9968508,31.6556499 13.8971147,31.1917808 C14.7973786,30.7279118 18.1559763,28.1401077 18.1559763,27.7920525 C18.1559763,27.5600156 17.9341236,26.8141753 17.4904182,25.5545315 C15.0948825,25.4391422 13.8971147,23.1810536 13.8971147,18.7802657 C13.8971147,14.3794778 10.3721675,14.5137678 3.3222731,19.1831357 Z" id="路径-4" fill="#F0EBEB"></path>
                    <path d="M7.05389404,16.7278435 C7.62151863,16.4559539 8.15383115,16.2284837 8.65083161,16.045433 L13.8050857,17.6597597 C13.8664383,17.9946735 13.8971147,18.3681756 13.8971147,18.7802657 C13.8971147,21.9031805 14.4872616,23.9402582 15.6675555,24.8914986 C10.6179246,25.8465812 6.52696184,24.2565362 3.39466733,20.1213637 L7.05389404,16.7278435 Z" id="形状结合" fill="#EAE4E1"></path>
                    <path d="M14.9190247,17.3697694 C16.1510917,16.9239749 16.8831994,16.2224762 17.1153476,15.2652731 C17.3474958,14.30807 17.4635699,13.6401968 17.4635699,13.2616535 C18.2130351,11.6094312 17.7889443,10.8858337 16.1912973,11.0908609 C14.5936503,11.2958882 13.6453317,12.1651737 13.3463415,13.6987175 L13.3463415,15.6434072 L14.9190247,17.3697694 Z" id="路径-3" fill="#EAE4E1"></path>
                    <path d="M1.52231707,11.3669264 C1.80202095,15.3016325 1.56802221,18.3220316 4.80898185,21.5732611 C8.48965778,24.6600025 9.41943537,24.3318233 12.7659146,21.5732611 C16.1123939,18.8146988 16.6742537,12.0610609 15.8082391,10.6270806 C15.230896,9.67109378 14.6650471,8.29643338 14.1106923,6.50309944 L7.57262147,4.51744417 L3.37633244,4.51744417 C1.91316743,5.5642524 1.29516231,7.84741314 1.52231707,11.3669264 Z" id="路径-2" fill="#F0EBEB"></path>
                    <path d="M1.52786983,11.7657345 C0.1083123,7.39714395 0.61060797,4.17359955 3.03475684,2.09510127 C6.67098014,-1.02264616 13.0032744,-0.507143546 15.541012,2.62477312 C17.2334418,5.28575586 17.3834827,6.84688703 16.4622473,11.7657345 C14.7033919,10.3836757 13.9644169,9.07478198 14.2453224,7.83905344 C10.3425326,9.16429426 7.1157472,8.5382791 4.56496626,5.96100797 C3.15525597,7.20393493 2.1428905,9.13884376 1.52786983,11.7657345 Z" id="路径" fill="#4D94FF"></path>
                </g>
                <path d="M2.92682927,30.1162103 C5.89208731,28.8014004 8.9304832,27.8683547 12.0420169,27.3170735 C13.2562698,30.5457088 16.1205713,32.8138884 19.4605949,32.8138884 C22.7494212,32.8138884 25.5769976,30.6147112 26.8221762,27.4648617 C29.6159982,27.9806687 32.4611441,28.7643756 35.3576139,29.8159822 C35.9800932,30.0419826 36.5509944,30.2724566 37.0731707,30.5068054 C33.5041305,36.2148319 27.2446554,40 20.1191168,40 C12.832268,40 6.45113888,36.0415123 2.92682927,30.1162103 Z" id="形状结合" fill="#4D94FF"></path>
            </g>
        </g>
    </g>
</svg>