<?xml version="1.0" encoding="UTF-8"?>
<svg width="85px" height="85px" viewBox="0 0 85 85" version="1.1" xmlns="http://www.w3.org/2000/svg" xmlns:xlink="http://www.w3.org/1999/xlink">
    <!-- Generator: Sketch 55.2 (78181) - https://sketchapp.com -->
    <title>修改_原型_slice</title>
    <desc>Created with Sketch.</desc>
    <defs>
        <path d="M80.5866243,23.6207483 C80.9375531,24.3273851 80.6491948,25.1847115 79.942558,25.5356403 C79.2359212,25.8865691 78.3785949,25.5982108 78.027666,24.891574 C75.716478,20.2377226 72.5050129,16.0778272 68.5937128,12.6552411 C67.9999612,12.1356783 67.9398192,11.2331585 68.4593821,10.6394068 C68.978945,10.0456552 69.8814647,9.98551323 70.4752164,10.5050761 C74.6669238,14.1730329 78.1088428,18.6314412 80.5866243,23.6207483 Z" id="path-1"></path>
        <filter x="-55.4%" y="-25.8%" width="210.8%" height="203.0%" filterUnits="objectBoundingBox" id="filter-2">
            <feOffset dx="0" dy="5" in="SourceAlpha" result="shadowOffsetOuter1"></feOffset>
            <feGaussianBlur stdDeviation="1.5" in="shadowOffsetOuter1" result="shadowBlurOuter1"></feGaussianBlur>
            <feColorMatrix values="0 0 0 0 0   0 0 0 0 0   0 0 0 0 0  0 0 0 0.05 0" type="matrix" in="shadowBlurOuter1"></feColorMatrix>
        </filter>
    </defs>
    <g id="页面1" stroke="none" stroke-width="1" fill="none" fill-rule="evenodd">
        <g id="画板">
            <g id="修改-原型">
                <g id="编组-10" transform="translate(-0.000000, -0.000159)">
                    <path d="M13.7281657,11.2199547 C9.98775203,17.9447131 7.85714286,25.6879066 7.85714286,33.9287305 C7.85714286,59.7677671 28.8038206,80.7144448 54.6428571,80.7144448 C57.2745046,80.7144448 59.8554038,80.4971657 62.3685939,80.0795684 C56.4392678,83.220969 49.67741,85.0001591 42.5,85.0001591 C19.0278981,85.0001591 -7.10542736e-15,65.972261 -7.10542736e-15,42.5001591 C-7.10542736e-15,30.1260199 5.28830934,18.9870315 13.7281638,11.2199581 Z" id="形状结合" fill="#EEEFFC"></path>
                    <path d="M62.7821867,5.14312506 C63.4752392,5.52017246 63.7314121,6.38765989 63.3543647,7.08071248 C62.9773173,7.77376506 62.1098298,8.02993788 61.4167773,7.65289048 C55.6602737,4.52113001 49.2020579,2.85730197 42.5,2.85730197 C20.6058546,2.85730197 2.85714286,20.6060137 2.85714286,42.5001591 C2.85714286,64.3943046 20.6058546,82.1430163 42.5,82.1430163 C64.3941454,82.1430163 82.1428571,64.3943046 82.1428571,42.5001591 C82.1428571,39.4025799 81.7878567,36.3524342 81.0916789,33.391202 C80.911115,32.6231634 81.3873574,31.8541691 82.155396,31.6736053 C82.9234346,31.4930415 83.6924289,31.9692838 83.8729927,32.7373225 C84.6194638,35.9124796 85,39.1820276 85,42.5001591 C85,65.972261 65.9721019,85.0001591 42.5,85.0001591 C19.0278981,85.0001591 3.26849658e-13,65.972261 3.26849658e-13,42.5001591 C3.26849658e-13,19.0280572 19.0278981,0.000159115831 42.5,0.000159115831 C49.6820562,0.000159115831 56.6092531,1.78481059 62.7821867,5.14312506 Z" id="形状" fill="#0579FF" fill-rule="nonzero"></path>
                    <g id="形状">
                        <use fill="black" fill-opacity="1" filter="url(#filter-2)" xlink:href="#path-1"></use>
                        <use fill="#FF9000" fill-rule="evenodd" xlink:href="#path-1"></use>
                    </g>
                    <path d="M58.5656081,43.405402 C57.7772293,43.405402 57.1312261,44.0740598 57.1269761,44.8893908 L57.1269761,54.3627277 L57.1269761,54.3627256 C57.1352284,55.2655855 56.422668,56.0052409 55.5332216,56.017084 L30.466732,56.017084 C29.5869777,56.017084 28.8729743,55.2751233 28.8729743,54.362729 L28.8729743,29.6397487 L28.8729742,29.6397407 C28.8650197,28.7370022 29.5774151,27.9975254 30.4667386,27.9853925 L40.1312194,27.9853925 C40.9174732,27.9810785 41.5656014,27.3124208 41.5656014,26.4927758 C41.5656014,25.6731308 40.9280983,25.0001591 40.1312194,25.0001591 L30.2606458,25.0001591 C27.9125093,25.0001591 26,26.9867197 26,29.4283653 L26,54.5719866 C26,57.0135985 27.9125093,59.0001591 30.2606458,59.0001591 L55.7393874,59.0001591 C58.0875239,59.0001591 60,57.0135985 60,54.5741099 L60,44.8893909 C59.99575,44.0697459 59.3518718,43.405402 58.565618,43.405402 L58.5656081,43.405402 Z M36.0541552,41.4363007 L36.0541552,41.4363007 C36.0193065,41.4730938 35.9943764,41.5172684 35.9814783,41.5650805 L34.0434268,48.3986857 L34.0434267,48.3986859 C33.9245552,48.839231 34.0534057,49.3064959 34.3847881,49.6366012 L34.384788,49.6366011 C34.6316666,49.8698422 34.966933,50.0006604 35.3163741,50.0001591 L35.3163741,50.0001591 C35.4319621,50.0013075 35.5470711,49.9858985 35.6577355,49.9543964 L42.6765309,48.114124 L42.6765309,48.114124 C42.6871139,48.1176701 42.6983674,48.1190852 42.7095658,48.1182782 L42.7095659,48.1182782 C42.8239697,48.1184959 42.9335983,48.0750403 43.0134876,47.9978068 L59.1014488,32.5193707 C59.6828643,31.9606326 60,31.1962621 60,30.3675018 C60,29.4328097 59.5859617,28.4981177 58.8657994,27.8085551 L57.0863157,26.0907987 C56.3661534,25.3991266 55.3949597,25.0001591 54.4214948,25.0001591 L54.4214947,25.0001591 C53.5832564,24.9919251 52.7770346,25.3035709 52.1861628,25.8643955 L36.1048086,41.3469858 L36.1048086,41.3469858 C36.0778466,41.3706047 36.0600193,41.4020388 36.054155,41.4363008 L36.0541552,41.4363007 Z M54.4571544,28.1339281 L54.4571545,28.1339281 C54.5533406,28.043837 54.6828101,27.9956889 54.8159787,28.0004861 L54.8159787,28.0004861 C55.0023797,28.0017485 55.1806173,28.0753596 55.3114111,28.2050971 L56.7867797,29.6764894 L56.7867797,29.6764894 C56.9193767,29.8068819 56.9956533,29.9820325 56.99986,30.1657765 L56.99986,30.165777 C57.003019,30.2978242 56.9526041,30.4257364 56.8596086,30.5216222 L55.3824471,32.0001591 L53,29.5893077 L54.4571544,28.1339281 Z M41.2215984,40.9031255 L51.1718894,31.0001591 L54,33.8591487 L44.0020348,43.8064568 L43.9912074,43.8175423 L43.9912075,43.8175422 C43.7310699,44.0652063 43.3142833,44.0603495 43.06029,43.8066944 C43.0602107,43.8066152 43.0601314,43.8065361 43.0600522,43.8064568 L41.2237631,41.9842205 L41.223763,41.9842205 C40.9254123,41.6817629 40.9254123,41.2035048 41.2237631,40.9010469 L41.2215984,40.9031255 Z M38.0096787,46.6892749 L38.7423924,44.0001591 L41,46.2584336 L38.315507,46.991072 L38.315507,46.991072 C38.1833584,47.0273471 38.0462242,46.9517674 38.0092092,46.8222601 C37.9967727,46.7787476 37.9969353,46.7327021 38.0096787,46.6892749 L38.0096787,46.6892749 Z" id="形状" fill="#FF9000" fill-rule="nonzero"></path>
                </g>
            </g>
        </g>
    </g>
</svg>