<?xml version="1.0" encoding="UTF-8"?>
<svg width="69px" height="69px" viewBox="0 0 69 69" version="1.1" xmlns="http://www.w3.org/2000/svg" xmlns:xlink="http://www.w3.org/1999/xlink">
    <!-- Generator: Sketch 55.2 (78181) - https://sketchapp.com -->
    <title>bianji </title>
    <desc>Created with Sketch.</desc>
    <g id="页面1" stroke="none" stroke-width="1" fill="none" fill-rule="evenodd">
        <g id="bianji-" transform="translate(2.000000, 2.000000)">
            <g id="编组-3">
                <path d="M64.3387372,55.3387372 C61.5995534,61.0535824 55.7606443,65 49,65 L17,65 C7.61115925,65 1.14980138e-15,57.3888407 0,48 L0,16 C-8.27940142e-16,9.23935568 3.9464176,3.40044658 9.66126276,0.661262759 C8.59640669,2.88290539 8,5.37180357 8,8 L8,40 C8,49.3888407 15.6111593,57 25,57 L57,57 C59.6281964,57 62.1170946,56.4035933 64.3387372,55.3387372 Z" id="形状结合" fill="#EEEFFC"></path>
                <g id="编组">
                    <path d="M65,25.4421387 L65,52 C65,59.1797017 59.1797017,65 52,65 L13,65 C5.82029825,65 0,59.1797017 0,52 L0,13 C0,5.82029825 5.82029825,0 13,0 L13,0 L40.759073,0" id="形状" stroke="#0579FF" stroke-width="3" stroke-linecap="round"></path>
                    <path d="M46,0 L51.4786028,0 C58.9462643,0 65,5.68745129 65,12.703278 L65,19" id="路径" stroke="#FF9000" stroke-width="3" stroke-linecap="round"></path>
                    <g id="修改" transform="translate(17.000000, 16.000000)" fill="#FF9000" fill-rule="nonzero">
                        <path d="M30.6499841,17.3227343 C29.9079805,17.3227343 29.2999775,17.9520592 29.2959775,18.7194297 L29.2959775,27.6355114 L29.2959775,27.6355094 C29.3037444,28.4852599 28.6330993,29.1814062 27.7959733,29.1925526 L4.20398309,29.1925526 C3.37597905,29.1925526 2.70397577,28.4942367 2.70397577,27.6355126 L2.70397577,4.36682532 L2.7039757,4.3668178 C2.69648917,3.51718154 3.36697894,2.82120334 4.20398928,2.80978413 L13.2999712,2.80978413 C14.0399748,2.80572397 14.6499778,2.17639903 14.6499778,1.40496844 C14.6499778,0.633537861 14.0499749,0.000152751198 13.2999712,0.000152751198 L4.01001958,0.000152751198 C1.80000879,0.000152751198 0,1.86985687 0,4.16787626 L0,27.832461 C0,30.1304486 1.80000879,32.0001528 4.01001958,32.0001528 L27.9900117,32.0001528 C30.2000225,32.0001528 32,30.1304486 32,27.8344593 L32,18.7194297 C31.996,17.9479991 31.389997,17.3227343 30.6499934,17.3227343 L30.6499841,17.3227343 Z M9.89614331,15.7788486 L9.8961433,15.7788486 C9.86397518,15.81417 9.84096283,15.8565776 9.8290569,15.9024772 L8.04008626,22.4627383 L8.0400862,22.4627385 C7.93035865,22.8856617 8.04929759,23.334236 8.35518899,23.6511372 L8.35518891,23.6511371 C8.58307684,23.8750485 8.89255351,24.000634 9.21511458,24.0001528 L9.21511456,24.0001528 C9.32181115,24.0012552 9.42806559,23.9864626 9.53021734,23.9562206 L16.0091054,22.1895591 L16.0091054,22.1895591 C16.0188744,22.1929633 16.0292622,22.1943218 16.0395992,22.1935471 L16.0395992,22.1935471 C16.1452028,22.1937561 16.2463985,22.1520387 16.3201424,22.0778945 L31.1705682,7.2185959 C31.7072593,6.68220727 32,5.94841166 32,5.15280176 C32,4.25549735 31.6178108,3.35819295 30.9530456,2.69621286 L29.3104453,1.04716676 C28.64568,0.383161506 27.7491936,0.000152751198 26.8506106,0.000152751198 L26.8506105,0.000152751198 C26.0768521,-0.00775193212 25.3326473,0.291428019 24.7872272,0.829819697 L9.94290022,15.6931063 L9.94290022,15.6931063 C9.91801225,15.7157806 9.90155632,15.7459572 9.89614303,15.7788487 L9.89614331,15.7788486 Z M26.4571544,3.13392178 L26.4571545,3.13392174 C26.5533406,3.04383063 26.6828101,2.99568254 26.8159787,3.00047978 L26.8159787,3.00047978 C27.0023797,3.00174211 27.1806173,3.07535323 27.3114111,3.20509079 L28.7867797,4.67648299 L28.7867797,4.67648299 C28.9193767,4.80687552 28.9956533,4.98202616 28.99986,5.16577018 L28.99986,5.16577061 C29.003019,5.29781783 28.9526041,5.42573001 28.8596086,5.52161584 L27.3824471,7.00015275 L25,4.58930135 L26.4571544,3.13392178 Z M14.2045524,15.1413524 L23.3894363,6.00015275 L26,8.63922005 L16.771109,17.8213506 L16.7611146,17.8315833 L16.7611146,17.8315833 C16.5209876,18.0601963 16.1362615,18.0557131 15.9018061,17.8215699 C15.901733,17.8214969 15.9016598,17.8214238 15.9015867,17.8213507 L14.2065505,16.1392863 L14.2065505,16.1392863 C13.9311498,15.8600947 13.9311498,15.4186256 14.2065506,15.1394338 L14.2045524,15.1413524 Z M11.0096787,20.6892685 L11.7423924,18.0001528 L14,20.2584272 L11.315507,20.9910656 L11.315507,20.9910656 C11.1833584,21.0273407 11.0462242,20.9517611 11.0092092,20.8222537 C10.9967727,20.7787413 10.9969353,20.7326958 11.0096787,20.6892685 L11.0096787,20.6892685 Z" id="形状"></path>
                    </g>
                </g>
            </g>
        </g>
    </g>
</svg>