<?xml version="1.0" encoding="UTF-8"?>
<svg width="16px" height="16px" viewBox="0 0 16 16" version="1.1" xmlns="http://www.w3.org/2000/svg" xmlns:xlink="http://www.w3.org/1999/xlink">
    <!-- Generator: Sketch 57.1 (83088) - https://sketch.com -->
    <title>钱_slice</title>
    <desc>Created with Sketch.</desc>
    <g id="页面-1" stroke="none" stroke-width="1" fill="none" fill-rule="evenodd">
        <g id="画板" transform="translate(-20.000000, -213.000000)" fill="#4D94FF" fill-rule="nonzero">
            <g id="钱" transform="translate(20.000000, 213.000000)">
                <path d="M8.00001024,15.7000192 C3.76500531,15.7000192 0.30000128,12.2350152 0.30000128,8.00001024 C0.30000128,3.76500531 3.76500531,0.30000128 8.00001024,0.30000128 C12.2350152,0.30000128 15.7000192,3.76500531 15.7000192,8.00001024 C15.7000192,12.2350152 12.2350152,15.7000192 8.00001024,15.7000192 Z M8.00001024,1.40000256 C4.37000602,1.40000256 1.40000256,4.37000602 1.40000256,8.00001024 C1.40000256,11.6300145 4.37000602,14.6000179 8.00001024,14.6000179 C11.6300145,14.6000179 14.6000179,11.6300145 14.6000179,8.00001024 C14.6000179,4.37000602 11.6300145,1.40000256 8.00001024,1.40000256 Z M8.00001024,12.950016 C7.69750989,12.950016 7.4500096,12.7025157 7.4500096,12.400009 L7.4500096,7.4500096 C7.4500096,7.14750925 7.69750989,6.90000896 8.00001024,6.90000896 C8.30251059,6.90000896 8.55001088,7.14750925 8.55001088,7.4500096 L8.55001088,12.400009 C8.55001088,12.7025157 8.30251059,12.950016 8.00001024,12.950016 Z M10.7500134,10.7500134 L5.25000704,10.7500134 C4.94750669,10.7500134 4.7000064,10.5025132 4.7000064,10.2000128 C4.7000064,9.89751245 4.94750669,9.65001216 5.25000704,9.65001216 L10.7500134,9.65001216 C11.0525138,9.65001216 11.3000141,9.89751245 11.3000141,10.2000128 C11.3000141,10.5025132 11.0525138,10.7500134 10.7500134,10.7500134 Z M10.7500134,8.00001024 L5.25000704,8.00001024 C4.94750669,8.00001024 4.7000064,7.75250995 4.7000064,7.4500096 C4.7000064,7.14750925 4.94750669,6.90000896 5.25000704,6.90000896 L10.7500134,6.90000896 C11.0525138,6.90000896 11.3000141,7.14750925 11.3000141,7.4500096 C11.3000141,7.75250995 11.0525138,8.00001024 10.7500134,8.00001024 Z M8.00001024,8.00001024 C7.86251008,8.00001024 7.72500992,7.94501018 7.61500979,7.83501005 L4.89250662,5.11250688 C4.67250637,4.89250662 4.67250637,4.56250624 4.89250662,4.34250598 C5.11250688,4.12250573 5.44250726,4.12250573 5.66250752,4.34250598 L8.38501069,7.06500915 C8.60501094,7.28500941 8.60501094,7.61500979 8.38501069,7.83501005 C8.27501056,7.94501018 8.1375104,8.00001024 8.00001024,8.00001024 L8.00001024,8.00001024 Z M8.00001024,8.00001024 C7.86251008,8.00001024 7.72500992,7.94501018 7.61500979,7.83501005 C7.39500954,7.61500979 7.39500954,7.28500941 7.61500979,7.06500915 L10.337513,4.34250598 C10.5575132,4.12250573 10.8875136,4.12250573 11.1075139,4.34250598 C11.3275141,4.56250624 11.3275141,4.89250662 11.1075139,5.11250688 L8.38501069,7.83501005 C8.27501056,7.94501018 8.1375104,8.00001024 8.00001024,8.00001024 Z" id="形状"></path>
            </g>
        </g>
    </g>
</svg>