<?xml version="1.0" encoding="UTF-8"?>
<svg width="20px" height="15px" viewBox="0 0 20 15" version="1.1" xmlns="http://www.w3.org/2000/svg" xmlns:xlink="http://www.w3.org/1999/xlink">
    <!-- Generator: Sketch 55.2 (78181) - https://sketchapp.com -->
    <title>移动_slice</title>
    <desc>Created with Sketch.</desc>
    <g id="页面1" stroke="none" stroke-width="1" fill="none" fill-rule="evenodd">
        <g id="画板" transform="translate(-335.000000, -91.000000)" fill="#D6D6D6" fill-rule="nonzero">
            <g id="移动" transform="translate(335.000000, 91.000000)">
                <path d="M0.608629531,4.32268693 L8.88900356,4.32268693 C9.05066142,4.32014025 9.19291599,4.41416076 9.29814626,4.55448315 C9.42027944,4.71734521 9.49426068,4.94403424 9.49635575,5.19427994 C9.49317734,5.46493238 9.41947799,5.69497766 9.29672454,5.86186009 C9.19109393,6.00546414 9.04854597,6.10331701 8.88566816,6.10741547 L0.608629565,6.10741547 C0.444980535,6.10741547 0.301651435,6.0102487 0.196067648,5.86670264 C0.0734001741,5.69993051 2.31473828e-05,5.468956 2.31473828e-05,5.2150512 C2.31473828e-05,4.96114641 0.0734001736,4.73017189 0.196067643,4.56339977 C0.301651425,4.41985371 0.444980515,4.32268693 0.608629531,4.32268693 Z M0.608629531,0.0430613344 L8.88900356,0.0430613344 C9.05066142,0.0405146528 9.19291599,0.134535168 9.29814626,0.274857551 C9.42027944,0.43771961 9.49426068,0.664408639 9.49635575,0.914654344 C9.49317734,1.18530678 9.41947799,1.41535206 9.29672454,1.58223449 C9.19109393,1.72583855 9.04854597,1.82369141 8.88566816,1.82778988 L0.608629565,1.82778988 C0.444980535,1.82778988 0.301651435,1.7306231 0.196067648,1.58707704 C0.0734001741,1.42030492 2.31473828e-05,1.1893304 2.31473828e-05,0.935425605 C2.31473828e-05,0.68152081 0.0734001736,0.450546296 0.196067643,0.28377417 C0.301651425,0.14022811 0.444980515,0.0430613344 0.608629531,0.0430613344 Z M0.605334783,8.60231253 L8.88865278,8.60231253 C9.05040981,8.59976589 9.19276531,8.69378649 9.29806506,8.83413912 C9.42024678,8.9969935 9.49425969,9.22367168 9.49635575,9.47390562 C9.49317592,9.74454572 9.41944526,9.97458078 9.29664272,10.1414557 C9.19094376,10.2850887 9.04829631,10.3829427 8.88531956,10.3870411 L0.605335142,10.3870083 C0.44164058,10.385526 0.298680012,10.2871956 0.193612649,10.1428185 C0.0715253248,9.97505367 -0.00101384313,9.74343753 1.07101666e-05,9.48943114 C0.00105894581,9.23757336 0.0742856746,9.00863857 0.196147279,8.84303833 C0.301021638,8.70052241 0.443073252,8.60378209 0.605334783,8.60231253 Z M2.31473828e-05,13.7743024 C2.31473828e-05,13.5203976 0.0734001736,13.2894231 0.196067643,13.122651 C0.301651425,12.9791049 0.444980515,12.8819381 0.608629531,12.8819381 L8.88900356,12.8819381 C9.05066142,12.8793914 9.19291599,12.973412 9.29814626,13.1137343 C9.4202738,13.2765889 9.49425385,13.5032645 9.49635546,13.7534965 C9.49316872,14.0147506 9.41945853,14.2485008 9.29740381,14.4176067 C9.19180689,14.5639105 9.04903585,14.6625545 8.88566785,14.6666667 L0.608629565,14.6666667 C0.444980536,14.6666667 0.301651437,14.5694999 0.196067649,14.4259538 C0.0734001746,14.2591817 2.31473828e-05,14.0282072 2.31473828e-05,13.7743024 Z M17.8851187,2.60666229 L17.8851187,12.0993884 L18.9447869,10.9308176 C19.0635752,10.8062662 19.2200232,10.7429003 19.3771253,10.7410729 C19.5347914,10.739239 19.6931542,10.7993853 19.8148139,10.9220221 C19.9333834,11.0415433 19.995383,11.1987466 19.9997515,11.3576529 C20.0041104,11.5162089 19.95109,11.6764251 19.8397719,11.8025465 L17.3936566,14.4931637 C17.3862027,14.5494266 17.3389854,14.5842845 17.2865094,14.6113368 C17.2157457,14.6478168 17.1282388,14.6666667 17.0420788,14.6666667 C16.8643696,14.6699058 16.7015399,14.5963971 16.5897759,14.4643427 L14.1685654,11.8037183 C14.0515595,11.6760562 13.9957829,11.5115893 14.0002482,11.3488612 C14.0047138,11.1861201 14.0694288,11.0251573 14.1932571,10.9045112 C14.3172594,10.7836957 14.4770271,10.726176 14.635072,10.7307861 C14.7931045,10.7353959 14.9494523,10.8021278 15.0659523,10.9292339 L16.11488,12.0867784 L16.11488,2.54693333 L15.0543026,3.73002895 C14.9413293,3.85907511 14.7888304,3.92820352 14.6336073,3.93544141 C14.4787036,3.94266441 14.3212031,3.88824066 14.1977455,3.77067626 C14.0737578,3.65260706 14.0075761,3.49333459 14.0006139,3.33136422 C13.9936634,3.16966664 14.0457238,3.00516448 14.1586383,2.87610222 L16.566835,0.20308637 C16.681469,0.0753955737 16.8412163,0.00194887164 17.0090848,2.7426588e-15 C17.0564139,-0.000500469269 17.1032189,0.00466065156 17.1486624,0.0151530029 C17.262852,0.042825046 17.3671477,0.107276522 17.445766,0.201115937 L19.8371853,2.8557547 C19.9500128,2.9835422 20.0038408,3.14646913 19.9997871,3.30776759 C19.9958439,3.46466972 19.9371264,3.62013153 19.8242863,3.74027663 C19.6759516,3.84403158 19.5055521,3.90863433 19.3278049,3.92839643 C19.1599235,3.92836295 19.0041864,3.85553536 18.892063,3.73064124 L17.8851187,2.60666229 Z" id="形状"></path>
            </g>
        </g>
    </g>
</svg>