<?xml version="1.0" encoding="UTF-8"?>
<svg width="49px" height="49px" viewBox="0 0 49 49" version="1.1" xmlns="http://www.w3.org/2000/svg" xmlns:xlink="http://www.w3.org/1999/xlink">
    <!-- Generator: Sketch 59.1 (86144) - https://sketch.com -->
    <title>分组备份 44@2x</title>
    <desc>Created with Sketch.</desc>
    <g id="页面-1" stroke="none" stroke-width="1" fill="none" fill-rule="evenodd">
        <g id="状态角标" transform="translate(-3671.000000, -1026.000000)">
            <g id="分组备份-44" transform="translate(3670.000000, 1013.000000)">
                <g id="编组-3" transform="translate(31.353553, 31.646447) rotate(45.000000) translate(-31.353553, -31.646447) translate(-3.646447, 23.146447)">
                    <polygon id="矩形" fill="#FF9600" points="16.0683698 1.06157248 53.835396 0.965338282 69.375151 16.5050933 0.362011246 16.7679311"></polygon>
                    <path d="M20.0737864,8.193 C20.3527864,9.183 20.9197864,10.083 21.7657864,10.893 C21.0277864,11.406 20.1277864,11.838 19.0567864,12.198 L19.5697864,12.999 C20.7307864,12.603 21.7117864,12.099 22.5037864,11.505 C23.2327864,12.054 24.1417864,12.549 25.2217864,12.999 L25.7437864,12.162 C24.7537864,11.802 23.8987864,11.379 23.1967864,10.911 C24.0067864,10.137 24.5557864,9.21 24.8437864,8.139 L24.8437864,7.311 L19.5067864,7.311 L19.5067864,6.06 C21.5857864,6.006 23.4667864,5.799 25.1407864,5.457 L24.6997864,4.656 C22.9087864,5.016 20.8657864,5.205 18.5707864,5.241 L18.5707864,7.968 C18.5167864,9.786 18.1387864,11.208 17.4367864,12.234 L18.1117864,12.945 C18.9397864,11.757 19.4077864,10.173 19.4977864,8.193 L20.0737864,8.193 Z M22.4497864,10.344 C21.7207864,9.714 21.2257864,8.994 20.9737864,8.193 L23.9077864,8.193 C23.6197864,8.994 23.1337864,9.714 22.4497864,10.344 Z M29.9917864,5.061 L29.9917864,6.996 L31.6477864,6.996 L31.6477864,7.356 L29.5687864,7.356 L29.5687864,8.148 L34.6267864,8.148 L34.6267864,7.356 L32.5477864,7.356 L32.5477864,6.996 L34.2217864,6.996 L34.2217864,5.061 L32.5477864,5.061 L32.5477864,4.602 L31.6477864,4.602 L31.6477864,5.061 L29.9917864,5.061 Z M33.4027864,6.276 L32.5477864,6.276 L32.5477864,5.781 L33.4027864,5.781 L33.4027864,6.276 Z M31.6477864,6.276 L30.8107864,6.276 L30.8107864,5.781 L31.6477864,5.781 L31.6477864,6.276 Z M34.1407864,8.508 L29.9827864,8.508 L29.9827864,11.334 L30.8557864,11.334 L30.8557864,9.282 L33.2677864,9.282 L33.2677864,11.334 L34.1407864,11.334 L34.1407864,8.508 Z M32.7997864,11.253 L32.3317864,11.937 C32.9797864,12.189 33.6097864,12.531 34.2127864,12.981 L34.7257864,12.198 C34.1497864,11.82 33.5017864,11.505 32.7997864,11.253 Z M31.5757864,9.516 L31.5757864,10.398 C31.5397864,10.857 31.3777864,11.235 31.0807864,11.523 C30.7747864,11.793 30.1807864,12.009 29.3167864,12.189 L29.8207864,12.981 C30.7297864,12.774 31.3867864,12.477 31.7917864,12.081 C32.2057864,11.658 32.4397864,11.1 32.4757864,10.398 L32.4757864,9.516 L31.5757864,9.516 Z M27.8497864,6.906 L28.6867864,6.906 C28.5607864,7.167 28.4257864,7.392 28.2817864,7.59 L28.9567864,8.13 C29.2087864,7.77 29.4517864,7.311 29.6767864,6.771 L29.6767864,6.042 L28.1107864,6.042 C28.2007864,5.664 28.2817864,5.25 28.3537864,4.818 L27.4357864,4.665 C27.2467864,6.051 26.8777864,7.149 26.3377864,7.977 L26.9227864,8.697 C27.2917864,8.211 27.5977864,7.608 27.8497864,6.906 Z M27.5887864,7.95 L27.5887864,11.532 C27.5887864,11.748 27.5077864,11.901 27.3457864,12.009 L27.7147864,12.792 C28.4527864,12.504 29.0917864,12.144 29.6497864,11.712 L29.4787864,10.848 C29.1547864,11.154 28.8217864,11.406 28.4887864,11.604 L28.4887864,7.95 L27.5887864,7.95 Z M37.4167864,9.588 L39.1447864,9.588 L39.1447864,10.344 L37.4167864,10.344 L37.4167864,9.588 Z M39.1447864,11.199 L39.1447864,12.972 L40.0807864,12.972 L40.0807864,11.199 L41.8357864,11.199 L41.8357864,11.64 L42.7537864,11.64 L42.7537864,7.131 L40.0807864,7.131 L40.0807864,6.393 L39.1447864,6.393 L39.1447864,7.131 L36.4987864,7.131 L36.4987864,11.667 L37.4167864,11.667 L37.4167864,11.199 L39.1447864,11.199 Z M40.0807864,10.344 L40.0807864,9.588 L41.8357864,9.588 L41.8357864,10.344 L40.0807864,10.344 Z M41.8357864,8.769 L40.0807864,8.769 L40.0807864,7.995 L41.8357864,7.995 L41.8357864,8.769 Z M39.1447864,7.995 L39.1447864,8.769 L37.4167864,8.769 L37.4167864,7.995 L39.1447864,7.995 Z M43.4377864,5.196 L40.0177864,5.196 C39.9457864,4.944 39.8737864,4.719 39.8017864,4.521 L38.8027864,4.683 C38.8837864,4.845 38.9647864,5.016 39.0367864,5.196 L35.6977864,5.196 L35.6977864,6.987 L36.6157864,6.987 L36.6157864,6.051 L42.5197864,6.051 L42.5197864,6.942 L43.4377864,6.942 L43.4377864,5.196 Z M46.5787864,12.936 L46.5787864,8.697 L46.8304984,9.124104 C46.9639864,9.35652 47.1097864,9.6168 47.2717864,9.903 L47.8027864,9.093 C47.3887864,8.553 46.9747864,8.058 46.5787864,7.626 L46.5787864,7.167 L47.5417864,7.167 L47.5417864,6.276 L46.5787864,6.276 L46.5787864,4.62 L45.6697864,4.62 L45.6697864,6.276 L44.5267864,6.276 L44.5267864,7.167 L45.6337864,7.167 C45.3637864,8.211 44.9407864,9.147 44.3647864,9.957 L44.7607864,10.929 C45.1207864,10.317 45.4177864,9.66 45.6697864,8.949 L45.6697864,12.936 L46.5787864,12.936 Z M47.6857864,5.502 L47.6857864,6.357 L49.2067864,6.357 L48.9705781,6.74541667 C48.6265156,7.28954167 48.3288594,7.65985417 48.0814062,7.84876042 L48.0007864,7.905 C47.9647864,7.932 47.9107864,7.959 47.8297864,7.986 L48.0187864,8.742 L49.7647864,8.661 C49.0897864,9.345 48.2707864,9.849 47.3077864,10.182 L47.8207864,10.956 C49.5577864,10.308 50.8717864,9.093 51.7717864,7.302 L51.0157864,6.897 C50.8357864,7.239 50.6467864,7.563 50.4307864,7.869 C49.9807864,7.905 49.5217864,7.941 49.0627864,7.968 C49.3867864,7.608 49.7557864,7.077 50.1697864,6.357 L52.6357864,6.357 L52.6357864,5.502 L50.6917864,5.502 C50.5837864,5.169 50.4757864,4.863 50.3587864,4.593 L49.3957864,4.755 C49.5307864,4.98 49.6567864,5.232 49.7737864,5.502 L47.6857864,5.502 Z M50.6107864,11.244 C49.7737864,11.982 48.8017864,12.549 47.7037864,12.936 L47.1817864,12.135 C49.2607864,11.46 50.8177864,10.155 51.8437864,8.229 L52.6267864,8.634 C52.2127864,9.408 51.7357864,10.092 51.1957864,10.677 C51.7897864,11.199 52.3117864,11.73 52.7437864,12.252 L52.0597864,12.936 C51.6997864,12.396 51.2227864,11.838 50.6107864,11.244 Z" id="反馈审核" fill="#FFFFFF" fill-rule="nonzero"></path>
                </g>
            </g>
        </g>
    </g>
</svg>