<?xml version="1.0" encoding="UTF-8"?>
<svg width="49px" height="49px" viewBox="0 0 49 49" version="1.1" xmlns="http://www.w3.org/2000/svg" xmlns:xlink="http://www.w3.org/1999/xlink">
    <!-- Generator: Sketch 59.1 (86144) - https://sketch.com -->
    <title>分组备份 58@2x</title>
    <desc>Created with Sketch.</desc>
    <g id="页面-1" stroke="none" stroke-width="1" fill="none" fill-rule="evenodd">
        <g id="状态角标" transform="translate(-3669.000000, -612.000000)">
            <g id="分组备份-58" transform="translate(3668.000000, 594.000000)">
                <g id="编组-3备份" transform="translate(33.828427, 34.171573) rotate(45.000000) translate(-33.828427, -34.171573) translate(-1.171573, 22.171573)">
                    <polygon id="矩形" fill="#FF9600" points="22.9791847 1.1507576 46.7340187 0.863961031 69.3614357 23.491378 0.362011246 23.7679311"></polygon>
                    <path d="M26.5617568,4.63622292 L26.5617568,5.32022292 C26.5347568,7.85822292 25.8237568,9.70322292 24.4287568,10.8552229 L25.1487568,11.4942229 C26.6787568,10.1892229 27.4527568,8.12822292 27.4887568,5.32022292 L27.4887568,4.63622292 L28.9827568,4.63622292 L28.9633137,6.63054806 C28.9458211,7.92899797 28.921322,8.72222292 28.8837568,9.01022292 C28.8117568,9.98222292 28.5687568,10.4772229 28.1457568,10.4772229 C27.8307568,10.4772229 27.4527568,10.4592229 27.0117568,10.4232229 L27.2457568,11.2782229 L27.7510576,11.3111292 C27.9969756,11.3251917 28.1840068,11.3322229 28.3077568,11.3322229 C29.1407568,11.3322229 29.6285624,10.7702785 29.7711735,9.66155317 L29.8136564,9.26444974 C29.8910512,8.42595732 29.9367568,6.57554292 29.9367568,3.72722292 L25.3197568,3.72722292 L25.3197568,4.63622292 L26.5617568,4.63622292 Z M23.0877568,8.13722292 L23.0877568,11.4582229 L23.9967568,11.4582229 L23.9967568,7.93922292 C24.3297568,8.26322292 24.6627568,8.65022292 25.0047568,9.10022292 L25.4997568,8.31722292 C25.3107568,8.11922292 25.1127568,7.92122292 24.8967568,7.74122292 C25.1757568,7.53422292 25.4367568,7.27322292 25.6707568,6.94922292 L25.1127568,6.39122292 C24.8607568,6.76922292 24.5997568,7.06622292 24.3297568,7.28222292 C24.2217568,7.20122292 24.1137568,7.12022292 23.9967568,7.04822292 C24.4287568,6.43622292 24.7527568,5.82422292 24.9597568,5.20322292 L24.9597568,4.43822292 L24.0777568,4.43822292 C23.9607568,4.04222292 23.7987568,3.60122292 23.6007568,3.11522292 L22.6917568,3.35822292 C22.8627568,3.70922292 23.0157568,4.06922292 23.1507568,4.43822292 L22.0797568,4.43822292 L22.0797568,5.29322292 L24.0417568,5.29322292 C23.6637568,6.19322292 22.9347568,7.12922292 21.8637568,8.08322292 L22.1517568,9.03722292 C22.4847568,8.74022292 22.7997568,8.44322292 23.0877568,8.13722292 Z M32.8977568,8.11922292 L34.6257568,8.11922292 L34.6257568,8.87522292 L32.8977568,8.87522292 L32.8977568,8.11922292 Z M34.6257568,9.73022292 L34.6257568,11.5032229 L35.5617568,11.5032229 L35.5617568,9.73022292 L37.3167568,9.73022292 L37.3167568,10.1712229 L38.2347568,10.1712229 L38.2347568,5.66222292 L35.5617568,5.66222292 L35.5617568,4.92422292 L34.6257568,4.92422292 L34.6257568,5.66222292 L31.9797568,5.66222292 L31.9797568,10.1982229 L32.8977568,10.1982229 L32.8977568,9.73022292 L34.6257568,9.73022292 Z M35.5617568,8.87522292 L35.5617568,8.11922292 L37.3167568,8.11922292 L37.3167568,8.87522292 L35.5617568,8.87522292 Z M37.3167568,7.30022292 L35.5617568,7.30022292 L35.5617568,6.52622292 L37.3167568,6.52622292 L37.3167568,7.30022292 Z M34.6257568,6.52622292 L34.6257568,7.30022292 L32.8977568,7.30022292 L32.8977568,6.52622292 L34.6257568,6.52622292 Z M38.9187568,3.72722292 L35.4987568,3.72722292 C35.4267568,3.47522292 35.3547568,3.25022292 35.2827568,3.05222292 L34.2837568,3.21422292 C34.3647568,3.37622292 34.4457568,3.54722292 34.5177568,3.72722292 L31.1787568,3.72722292 L31.1787568,5.51822292 L32.0967568,5.51822292 L32.0967568,4.58222292 L38.0007568,4.58222292 L38.0007568,5.47322292 L38.9187568,5.47322292 L38.9187568,3.72722292 Z M43.5807568,3.09722292 L43.5807568,4.63622292 L40.3947568,4.63622292 L40.3947568,9.02822292 L41.3397568,9.02822292 L41.3397568,8.53322292 L43.5807568,8.53322292 L43.5807568,11.5392229 L44.5527568,11.5392229 L44.5527568,8.53322292 L46.8027568,8.53322292 L46.8027568,9.02822292 L47.7477568,9.02822292 L47.7477568,4.63622292 L44.5527568,4.63622292 L44.5527568,3.09722292 L43.5807568,3.09722292 Z M41.3397568,7.61522292 L41.3397568,5.55422292 L43.5807568,5.55422292 L43.5807568,7.61522292 L41.3397568,7.61522292 Z M44.5527568,7.61522292 L44.5527568,5.55422292 L46.8027568,5.55422292 L46.8027568,7.61522292 L44.5527568,7.61522292 Z M24.8427568,13.0882229 C24.4107568,13.6732229 24.0867568,14.2852229 23.8527568,14.9332229 C23.5737568,15.6892229 23.4387568,16.4722229 23.4387568,17.3002229 C23.4387568,18.1102229 23.5737568,18.9022229 23.8527568,19.6582229 C24.0867568,20.2882229 24.4107568,20.9002229 24.8427568,21.4942229 L25.6977568,21.4942229 C25.3197568,20.8642229 25.0317568,20.2432229 24.8337568,19.6312229 C24.5637568,18.8482229 24.4377568,18.0652229 24.4377568,17.2912229 C24.4377568,16.5082229 24.5637568,15.7252229 24.8337568,14.9512229 C25.0317568,14.3302229 25.3197568,13.7092229 25.6977568,13.0882229 L24.8427568,13.0882229 Z M34.0497568,13.4212229 L30.3507568,13.4212229 L30.3507568,20.2702229 L29.5947568,20.2702229 L29.5947568,21.1702229 L34.7247568,21.1702229 L34.7247568,20.2702229 L34.0497568,20.2702229 L34.0497568,13.4212229 Z M31.2597568,20.2702229 L31.2597568,18.8392229 L33.1137568,18.8392229 L33.1137568,20.2702229 L31.2597568,20.2702229 Z M31.2597568,17.9572229 L31.2597568,16.5352229 L33.1137568,16.5352229 L33.1137568,17.9572229 L31.2597568,17.9572229 Z M31.2597568,15.6532229 L31.2597568,14.3032229 L33.1137568,14.3032229 L33.1137568,15.6532229 L31.2597568,15.6532229 Z M26.5797568,15.4732229 L26.5797568,16.3642229 L27.7947568,16.3642229 C27.4797568,17.2642229 26.9847568,18.0652229 26.3187568,18.7762229 L26.7147568,19.7572229 C27.1827568,19.1452229 27.5787568,18.4792229 27.8937568,17.7412229 L27.8937568,21.4402229 L28.8297568,21.4402229 L28.8297568,17.6692229 L29.2347568,18.2271509 C29.3355568,18.3679829 29.4435568,18.5206229 29.5587568,18.6862229 L30.0807568,17.8942229 C29.6577568,17.4622229 29.2437568,17.0752229 28.8297568,16.7242229 L28.8297568,16.3642229 L29.9727568,16.3642229 L29.9727568,15.4732229 L28.8297568,15.4732229 L28.8297568,14.2852229 C29.2257568,14.2042229 29.5947568,14.1142229 29.9547568,14.0242229 L29.6307568,13.1602229 C28.7487568,13.4302229 27.7407568,13.6192229 26.6157568,13.7092229 L26.8047568,14.5552229 C27.1737568,14.5192229 27.5337568,14.4742229 27.8937568,14.4292229 L27.8937568,15.4732229 L26.5797568,15.4732229 Z M37.9017568,14.6542229 L37.9017568,15.4822229 L40.3227568,15.4822229 L40.3227568,15.9592229 L38.3337568,15.9592229 L38.3337568,16.7782229 L43.2297568,16.7782229 L43.2297568,15.9592229 L41.2497568,15.9592229 L41.2497568,15.4822229 L43.5627568,15.4822229 L43.5627568,14.6542229 L41.2497568,14.6542229 L41.2497568,14.1052229 C41.8977568,14.0332229 42.4827568,13.9342229 42.9867568,13.8082229 L42.5637568,13.0882229 C41.4297568,13.3492229 40.0347568,13.4842229 38.3787568,13.4842229 L38.6307568,14.2312229 C39.2337568,14.2312229 39.8007568,14.2132229 40.3227568,14.1862229 L40.3227568,14.6542229 L37.9017568,14.6542229 Z M36.4977568,15.2572229 L36.4977568,16.8862229 L37.4517568,16.8862229 L37.4517568,14.2942229 C37.7037568,13.9792229 37.9467568,13.6372229 38.1717568,13.2772229 L37.2177568,13.0612229 C36.6777568,13.8802229 36.0387568,14.5102229 35.3187568,14.9602229 L35.9307568,15.6892229 C36.1197568,15.5542229 36.3087568,15.4102229 36.4977568,15.2572229 Z M42.5817568,17.1742229 L36.5607568,17.1742229 L36.5607568,19.9372229 L37.5057568,19.9372229 L37.5057568,18.0382229 L41.6457568,18.0382229 L41.6457568,19.8922229 L42.5817568,19.8922229 L42.5817568,17.1742229 Z M40.1247568,19.7662229 L39.6477568,20.4772229 C40.8267568,20.7202229 41.9787568,21.0622229 43.0947568,21.4942229 L43.5987568,20.7112229 C42.5547568,20.3422229 41.3937568,20.0272229 40.1247568,19.7662229 Z M39.2427568,18.3262229 C39.1167568,18.9652229 38.7927568,19.4602229 38.2617568,19.8022229 C37.7217568,20.1442229 36.8487568,20.4052229 35.6247568,20.5942229 L36.0027568,21.4672229 C37.4427568,21.2152229 38.4417568,20.8642229 39.0087568,20.4142229 C39.6567568,19.9102229 40.0437568,19.2532229 40.1697568,18.4252229 L39.2427568,18.3262229 Z M44.4357568,13.0882229 L45.2907568,13.0882229 C45.7137568,13.6732229 46.0467568,14.2852229 46.2807568,14.9332229 C46.5507568,15.6892229 46.6947568,16.4722229 46.6947568,17.3002229 C46.6947568,18.1102229 46.5507568,18.9022229 46.2807568,19.6582229 C46.0467568,20.2882229 45.7137568,20.9002229 45.2907568,21.4942229 L44.4357568,21.4942229 C44.8047568,20.8642229 45.0927568,20.2432229 45.2997568,19.6312229 C45.5607568,18.8482229 45.6957568,18.0652229 45.6957568,17.2912229 C45.6957568,16.5082229 45.5607568,15.7252229 45.2997568,14.9512229 C45.0927568,14.3302229 44.8047568,13.7092229 44.4357568,13.0882229 Z" id="初审中(租赁)" fill="#FFFFFF" fill-rule="nonzero"></path>
                </g>
            </g>
        </g>
    </g>
</svg>