<?xml version="1.0" encoding="UTF-8"?>
<svg width="49px" height="49px" viewBox="0 0 49 49" version="1.1" xmlns="http://www.w3.org/2000/svg" xmlns:xlink="http://www.w3.org/1999/xlink">
    <!-- Generator: Sketch 59.1 (86144) - https://sketch.com -->
    <title>分组备份 55@2x</title>
    <desc>Created with Sketch.</desc>
    <g id="页面-1" stroke="none" stroke-width="1" fill="none" fill-rule="evenodd">
        <g id="状态角标" transform="translate(-3671.000000, -1233.000000)">
            <g id="分组备份-55" transform="translate(3670.000000, 1220.000000)">
                <g id="编组-3" transform="translate(31.353553, 31.646447) rotate(45.000000) translate(-31.353553, -31.646447) translate(-3.646447, 23.146447)">
                    <polygon id="矩形" fill="#FF9600" points="16.0683698 1.06157248 53.835396 0.965338282 69.375151 16.5050933 0.362011246 16.7679311"></polygon>
                    <path d="M21.2437864,4.584 C20.1997864,5.772 18.8947864,6.771 17.3197864,7.572 L17.8237864,8.49 C18.3097864,8.22 18.7687864,7.932 19.2007864,7.635 L19.2007864,8.265 L23.9707864,8.265 L23.9707864,7.644 C24.3847864,7.941 24.8347864,8.22 25.3117864,8.472 L25.8247864,7.563 C24.3487864,6.843 23.0527864,5.844 21.9277864,4.584 L21.2437864,4.584 Z M19.5877864,7.356 C20.3527864,6.78 21.0187864,6.141 21.5857864,5.439 C22.1707864,6.15 22.8367864,6.789 23.5747864,7.356 L19.5877864,7.356 Z M24.5557864,9.147 L18.6157864,9.147 L18.6157864,12.927 L19.5247864,12.927 L19.5247864,12.468 L23.6467864,12.468 L23.6467864,12.927 L24.5557864,12.927 L24.5557864,9.147 Z M19.5247864,11.577 L19.5247864,10.029 L23.6467864,10.029 L23.6467864,11.577 L19.5247864,11.577 Z M33.3937864,12.909 C34.0057864,12.909 34.3117864,12.549 34.3117864,11.847 L34.3117864,4.881 L26.8597864,4.881 L26.8597864,12.936 L27.8047864,12.936 L27.8047864,5.799 L33.3667864,5.799 L33.3667864,11.631 C33.3667864,11.883 33.2677864,12.009 33.0877864,12.009 L31.9627864,11.964 L32.2237864,12.909 L33.3937864,12.909 Z M28.2997864,6.573 L28.2997864,7.446 L32.8717864,7.446 L32.8717864,6.573 L28.2997864,6.573 Z M28.7497864,8.193 L28.7497864,11.262 L32.4307864,11.262 L32.4307864,8.193 L28.7497864,8.193 Z M31.5217864,10.425 L29.6587864,10.425 L29.6587864,9.03 L31.5217864,9.03 L31.5217864,10.425 Z M37.4167864,9.588 L39.1447864,9.588 L39.1447864,10.344 L37.4167864,10.344 L37.4167864,9.588 Z M39.1447864,11.199 L39.1447864,12.972 L40.0807864,12.972 L40.0807864,11.199 L41.8357864,11.199 L41.8357864,11.64 L42.7537864,11.64 L42.7537864,7.131 L40.0807864,7.131 L40.0807864,6.393 L39.1447864,6.393 L39.1447864,7.131 L36.4987864,7.131 L36.4987864,11.667 L37.4167864,11.667 L37.4167864,11.199 L39.1447864,11.199 Z M40.0807864,10.344 L40.0807864,9.588 L41.8357864,9.588 L41.8357864,10.344 L40.0807864,10.344 Z M41.8357864,8.769 L40.0807864,8.769 L40.0807864,7.995 L41.8357864,7.995 L41.8357864,8.769 Z M39.1447864,7.995 L39.1447864,8.769 L37.4167864,8.769 L37.4167864,7.995 L39.1447864,7.995 Z M43.4377864,5.196 L40.0177864,5.196 C39.9457864,4.944 39.8737864,4.719 39.8017864,4.521 L38.8027864,4.683 C38.8837864,4.845 38.9647864,5.016 39.0367864,5.196 L35.6977864,5.196 L35.6977864,6.987 L36.6157864,6.987 L36.6157864,6.051 L42.5197864,6.051 L42.5197864,6.942 L43.4377864,6.942 L43.4377864,5.196 Z M46.5787864,12.936 L46.5787864,8.697 L46.8304984,9.124104 C46.9639864,9.35652 47.1097864,9.6168 47.2717864,9.903 L47.8027864,9.093 C47.3887864,8.553 46.9747864,8.058 46.5787864,7.626 L46.5787864,7.167 L47.5417864,7.167 L47.5417864,6.276 L46.5787864,6.276 L46.5787864,4.62 L45.6697864,4.62 L45.6697864,6.276 L44.5267864,6.276 L44.5267864,7.167 L45.6337864,7.167 C45.3637864,8.211 44.9407864,9.147 44.3647864,9.957 L44.7607864,10.929 C45.1207864,10.317 45.4177864,9.66 45.6697864,8.949 L45.6697864,12.936 L46.5787864,12.936 Z M47.6857864,5.502 L47.6857864,6.357 L49.2067864,6.357 L48.9705781,6.74541667 C48.6265156,7.28954167 48.3288594,7.65985417 48.0814062,7.84876042 L48.0007864,7.905 C47.9647864,7.932 47.9107864,7.959 47.8297864,7.986 L48.0187864,8.742 L49.7647864,8.661 C49.0897864,9.345 48.2707864,9.849 47.3077864,10.182 L47.8207864,10.956 C49.5577864,10.308 50.8717864,9.093 51.7717864,7.302 L51.0157864,6.897 C50.8357864,7.239 50.6467864,7.563 50.4307864,7.869 C49.9807864,7.905 49.5217864,7.941 49.0627864,7.968 C49.3867864,7.608 49.7557864,7.077 50.1697864,6.357 L52.6357864,6.357 L52.6357864,5.502 L50.6917864,5.502 C50.5837864,5.169 50.4757864,4.863 50.3587864,4.593 L49.3957864,4.755 C49.5307864,4.98 49.6567864,5.232 49.7737864,5.502 L47.6857864,5.502 Z M50.6107864,11.244 C49.7737864,11.982 48.8017864,12.549 47.7037864,12.936 L47.1817864,12.135 C49.2607864,11.46 50.8177864,10.155 51.8437864,8.229 L52.6267864,8.634 C52.2127864,9.408 51.7357864,10.092 51.1957864,10.677 C51.7897864,11.199 52.3117864,11.73 52.7437864,12.252 L52.0597864,12.936 C51.6997864,12.396 51.2227864,11.838 50.6107864,11.244 Z" id="合同审核" fill="#FFFFFF" fill-rule="nonzero"></path>
                </g>
            </g>
        </g>
    </g>
</svg>