<?xml version="1.0" encoding="UTF-8"?>
<svg width="49px" height="49px" viewBox="0 0 49 49" version="1.1" xmlns="http://www.w3.org/2000/svg" xmlns:xlink="http://www.w3.org/1999/xlink">
    <!-- Generator: Sketch 59.1 (86144) - https://sketch.com -->
    <title>分组备份 54@2x</title>
    <desc>Created with Sketch.</desc>
    <g id="页面-1" stroke="none" stroke-width="1" fill="none" fill-rule="evenodd">
        <g id="状态角标" transform="translate(-3671.000000, -1130.000000)">
            <g id="分组备份-54" transform="translate(3670.000000, 1117.000000)">
                <g id="编组-3" transform="translate(31.353553, 31.646447) rotate(45.000000) translate(-31.353553, -31.646447) translate(-3.646447, 23.146447)">
                    <polygon id="矩形" fill="#FF9600" points="16.0683698 1.06157248 53.835396 0.965338282 69.375151 16.5050933 0.362011246 16.7679311"></polygon>
                    <path d="M21.2437864,4.584 C20.1997864,5.772 18.8947864,6.771 17.3197864,7.572 L17.8237864,8.49 C18.3097864,8.22 18.7687864,7.932 19.2007864,7.635 L19.2007864,8.265 L23.9707864,8.265 L23.9707864,7.644 C24.3847864,7.941 24.8347864,8.22 25.3117864,8.472 L25.8247864,7.563 C24.3487864,6.843 23.0527864,5.844 21.9277864,4.584 L21.2437864,4.584 Z M19.5877864,7.356 C20.3527864,6.78 21.0187864,6.141 21.5857864,5.439 C22.1707864,6.15 22.8367864,6.789 23.5747864,7.356 L19.5877864,7.356 Z M24.5557864,9.147 L18.6157864,9.147 L18.6157864,12.927 L19.5247864,12.927 L19.5247864,12.468 L23.6467864,12.468 L23.6467864,12.927 L24.5557864,12.927 L24.5557864,9.147 Z M19.5247864,11.577 L19.5247864,10.029 L23.6467864,10.029 L23.6467864,11.577 L19.5247864,11.577 Z M33.3937864,12.909 C34.0057864,12.909 34.3117864,12.549 34.3117864,11.847 L34.3117864,4.881 L26.8597864,4.881 L26.8597864,12.936 L27.8047864,12.936 L27.8047864,5.799 L33.3667864,5.799 L33.3667864,11.631 C33.3667864,11.883 33.2677864,12.009 33.0877864,12.009 L31.9627864,11.964 L32.2237864,12.909 L33.3937864,12.909 Z M28.2997864,6.573 L28.2997864,7.446 L32.8717864,7.446 L32.8717864,6.573 L28.2997864,6.573 Z M28.7497864,8.193 L28.7497864,11.262 L32.4307864,11.262 L32.4307864,8.193 L28.7497864,8.193 Z M31.5217864,10.425 L29.6587864,10.425 L29.6587864,9.03 L31.5217864,9.03 L31.5217864,10.425 Z M41.5297864,9.786 C41.2867864,10.578 41.0077864,11.253 40.7017864,11.82 L35.7607864,11.82 L35.7607864,12.693 L43.4287864,12.693 L43.4287864,11.82 L41.7097864,11.82 C41.9977864,11.289 42.2497864,10.695 42.4567864,10.047 L41.5297864,9.786 Z M37.5247864,9.858 L36.6697864,10.137 C36.9487864,10.641 37.1737864,11.163 37.3537864,11.703 L38.1997864,11.496 C38.0017864,10.884 37.7767864,10.335 37.5247864,9.858 Z M39.6037864,9.678 L38.7397864,9.957 C38.9737864,10.488 39.1627864,11.037 39.3157864,11.613 L40.1527864,11.406 C39.9907864,10.758 39.8107864,10.182 39.6037864,9.678 Z M37.2187864,8.931 L37.2187864,9.579 L41.9617864,9.579 L41.9617864,8.949 C42.3667864,9.129 42.7987864,9.3 43.2667864,9.462 L43.7257864,8.652 C42.2677864,8.202 40.9897864,7.581 39.8737864,6.798 L39.2977864,6.798 C38.2717864,7.527 36.9937864,8.139 35.4457864,8.634 L35.9047864,9.453 C36.3727864,9.291 36.8047864,9.111 37.2187864,8.931 Z M41.5747864,8.769 L37.5787864,8.769 C38.3527864,8.4 39.0187864,7.995 39.5857864,7.554 C40.1707864,8.004 40.8367864,8.409 41.5747864,8.769 Z M37.0387864,6.123 L37.5967864,6.123 C37.7317864,6.447 37.8487864,6.789 37.9567864,7.14 L38.8027864,6.825 C38.7307864,6.609 38.6317864,6.375 38.5237864,6.123 L39.5767864,6.123 L39.5767864,5.295 L37.3897864,5.295 C37.4437864,5.133 37.5067864,4.962 37.5607864,4.782 L36.6517864,4.584 C36.4267864,5.358 36.0397864,6.096 35.4817864,6.789 L36.3007864,7.302 C36.5707864,6.942 36.8227864,6.555 37.0387864,6.123 Z M40.8097864,6.123 L41.4757864,6.123 C41.6557864,6.483 41.8267864,6.852 41.9707864,7.23 L42.8257864,6.897 C42.7177864,6.654 42.5917864,6.393 42.4387864,6.123 L43.6357864,6.123 L43.6357864,5.295 L41.1607864,5.295 C41.2147864,5.133 41.2687864,4.962 41.3227864,4.782 L40.4317864,4.584 C40.2517864,5.232 39.9547864,5.844 39.5407864,6.411 L40.3327864,6.924 C40.5037864,6.672 40.6657864,6.411 40.8097864,6.123 Z M49.3147864,8.256 L48.5407864,8.742 C49.1437864,9.48 49.6207864,10.164 49.9627864,10.776 L50.7637864,10.218 C50.4307864,9.66 49.9447864,9.003 49.3147864,8.256 Z M49.1257864,4.593 C48.8647864,5.853 48.3607864,6.915 47.6227864,7.779 L48.2077864,8.553 C48.6397864,8.067 49.0087864,7.518 49.3147864,6.906 L51.5197864,6.906 L51.4981198,9.162 C51.4807864,10.424 51.4567864,11.202 51.4207864,11.496 C51.3667864,11.874 51.1597864,12.063 50.8087864,12.063 L50.3465464,12.05436 C50.1003064,12.04572 49.8313864,12.0306 49.5397864,12.009 L49.7737864,12.873 L50.4971614,12.9135 C50.6962864,12.9225 50.8537864,12.927 50.9707864,12.927 C51.7627864,12.927 52.2037864,12.594 52.3027864,11.937 L52.3321429,11.6260468 C52.4025719,10.7054645 52.4377864,8.81919231 52.4377864,5.961 L49.7197864,5.961 C49.8547864,5.565 49.9717864,5.151 50.0707864,4.71 L49.1257864,4.593 Z M47.8657864,10.965 C46.9207864,11.28 45.8137864,11.532 44.5447864,11.721 L44.6617864,12.657 C45.8587864,12.468 46.9297864,12.225 47.8657864,11.919 L47.8657864,10.965 Z M45.8767864,4.557 L46.7947864,4.908 C46.3897864,5.961 45.9757864,6.825 45.5617864,7.5 C45.8587864,7.464 46.1557864,7.419 46.4617864,7.365 L46.7385364,6.844125 C46.8330364,6.663 46.9297864,6.474 47.0287864,6.276 L47.9377864,6.618 C47.1457864,8.049 46.4797864,9.093 45.9397864,9.759 C46.5337864,9.633 47.1457864,9.471 47.7577864,9.273 L47.7577864,10.11 C46.7137864,10.452 45.7237864,10.677 44.7967864,10.794 L44.5537864,9.93 C44.7157864,9.858 44.8597864,9.759 44.9767864,9.651 C45.2467864,9.381 45.5797864,8.904 45.9757864,8.229 L45.1304531,8.373 C44.9857864,8.397 44.8387864,8.421 44.6887864,8.445 L44.4547864,7.572 C44.5987864,7.5 44.7337864,7.383 44.8597864,7.203 C45.2467864,6.393 45.5887864,5.511 45.8767864,4.557 Z" id="合同签约" fill="#FFFFFF" fill-rule="nonzero"></path>
                </g>
            </g>
        </g>
    </g>
</svg>