<?xml version="1.0" encoding="UTF-8"?>
<svg width="49px" height="49px" viewBox="0 0 49 49" version="1.1" xmlns="http://www.w3.org/2000/svg" xmlns:xlink="http://www.w3.org/1999/xlink">
    <!-- Generator: Sketch 59.1 (86144) - https://sketch.com -->
    <title>分组备份 56@2x</title>
    <desc>Created with Sketch.</desc>
    <g id="页面-1" stroke="none" stroke-width="1" fill="none" fill-rule="evenodd">
        <g id="状态角标" transform="translate(-3671.000000, -1336.000000)">
            <g id="分组备份-56" transform="translate(3670.000000, 1323.000000)">
                <g id="编组-3" transform="translate(31.353553, 31.646447) rotate(45.000000) translate(-31.353553, -31.646447) translate(-3.646447, 23.146447)">
                    <polygon id="矩形" fill="#64DC64" points="16.0683698 1.06157248 53.835396 0.965338282 69.375151 16.5050933 0.362011246 16.7679311"></polygon>
                    <path d="M19.4167864,9.588 L21.1447864,9.588 L21.1447864,10.344 L19.4167864,10.344 L19.4167864,9.588 Z M21.1447864,11.199 L21.1447864,12.972 L22.0807864,12.972 L22.0807864,11.199 L23.8357864,11.199 L23.8357864,11.64 L24.7537864,11.64 L24.7537864,7.131 L22.0807864,7.131 L22.0807864,6.393 L21.1447864,6.393 L21.1447864,7.131 L18.4987864,7.131 L18.4987864,11.667 L19.4167864,11.667 L19.4167864,11.199 L21.1447864,11.199 Z M22.0807864,10.344 L22.0807864,9.588 L23.8357864,9.588 L23.8357864,10.344 L22.0807864,10.344 Z M23.8357864,8.769 L22.0807864,8.769 L22.0807864,7.995 L23.8357864,7.995 L23.8357864,8.769 Z M21.1447864,7.995 L21.1447864,8.769 L19.4167864,8.769 L19.4167864,7.995 L21.1447864,7.995 Z M25.4377864,5.196 L22.0177864,5.196 C21.9457864,4.944 21.8737864,4.719 21.8017864,4.521 L20.8027864,4.683 C20.8837864,4.845 20.9647864,5.016 21.0367864,5.196 L17.6977864,5.196 L17.6977864,6.987 L18.6157864,6.987 L18.6157864,6.051 L24.5197864,6.051 L24.5197864,6.942 L25.4377864,6.942 L25.4377864,5.196 Z M29.1457864,8.445 C28.9027864,8.544 28.6597864,8.643 28.4167864,8.733 L28.4167864,7.077 L29.2087864,7.077 L29.2087864,6.168 L28.4167864,6.168 L28.4167864,4.611 L27.4987864,4.611 L27.4987864,6.168 L26.5897864,6.168 L26.5897864,7.077 L27.4987864,7.077 L27.4987864,9.021 C27.1567864,9.111 26.8147864,9.183 26.4727864,9.246 L26.6977864,10.146 C26.9677864,10.074 27.2287864,10.002 27.4987864,9.921 L27.4987864,11.703 C27.4987864,11.919 27.3907864,12.027 27.1927864,12.027 C26.9857864,12.027 26.7697864,12 26.5537864,11.964 L26.7517864,12.882 L27.5167864,12.882 C28.1107864,12.882 28.4167864,12.567 28.4167864,11.946 L28.4167864,9.615 C28.6597864,9.525 28.9027864,9.426 29.1457864,9.327 L29.1457864,8.445 Z M30.3877864,8.103 L31.4947864,8.103 L31.4947864,7.185 L30.3877864,7.185 L30.3877864,4.656 L29.4607864,4.656 L29.4607864,11.442 C29.4607864,11.721 29.3257864,11.901 29.0647864,11.982 L29.2987864,12.855 C30.1447864,12.657 30.9007864,12.432 31.5667864,12.162 L31.3957864,11.298 C31.0897864,11.442 30.7477864,11.568 30.3877864,11.676 L30.3877864,8.103 Z M33.5197864,12.846 C33.8617864,12.846 34.1227864,12.747 34.2847864,12.558 C34.4647864,12.36 34.5907864,11.73 34.6627864,10.677 L33.8077864,10.407 L33.7904356,10.7882322 C33.760555,11.3135455 33.7136955,11.6301818 33.6547864,11.748 C33.5827864,11.883 33.4837864,11.955 33.3487864,11.955 L32.9977864,11.955 C32.8177864,11.955 32.7277864,11.856 32.7277864,11.658 L32.7277864,8.058 C33.3217864,7.86 33.9517864,7.59 34.6177864,7.239 L34.0777864,6.465 C33.6457864,6.735 33.1957864,6.951 32.7277864,7.131 L32.7277864,4.638 L31.8007864,4.638 L31.8007864,11.865 C31.8007864,12.513 32.0977864,12.846 32.7097864,12.846 L33.5197864,12.846 Z M36.3367864,4.683 L35.6977864,5.286 C36.3457864,5.808 36.8497864,6.303 37.2007864,6.753 L37.8577864,6.105 C37.4437864,5.637 36.9307864,5.16 36.3367864,4.683 Z M41.4667864,12.792 L43.5277864,12.792 L43.7527864,11.865 L43.3072864,11.892 C43.1317864,11.901 42.9292864,11.91 42.6997864,11.919 L41.3317864,11.928 L41.3317864,11.928 L40.3507864,11.922375 C40.0470364,11.919 39.7657864,11.9145 39.5047864,11.91 C38.9737864,11.892 38.5777864,11.82 38.3167864,11.685 C38.1007864,11.568 37.8937864,11.388 37.6867864,11.154 L37.5877864,11.055 L37.5877864,7.635 L35.5267864,7.635 L35.5267864,8.499 L36.7147864,8.499 L36.7147864,10.965 C36.3547864,11.163 35.9587864,11.622 35.5087864,12.342 L36.2017864,12.981 L36.3858797,12.6591516 C36.7366436,12.0659388 36.9835007,11.775 37.1377864,11.775 C37.2367864,11.775 37.3447864,11.847 37.4707864,12 C37.7407864,12.306 38.0557864,12.513 38.4157864,12.621 C38.7937864,12.711 39.2707864,12.765 39.8557864,12.774 L41.0872396,12.7904531 C41.2164739,12.7914375 41.3430364,12.792 41.4667864,12.792 Z M39.8737864,5.637 L39.3967864,6.105 C39.7387864,6.294 40.0447864,6.483 40.3237864,6.663 L38.3257864,6.663 L38.3257864,11.55 L39.2077864,11.55 L39.2077864,10.083 L40.3777864,10.083 L40.3777864,11.541 L41.2417864,11.541 L41.2417864,10.083 L42.4477864,10.083 L42.4477864,10.461 C42.4477864,10.65 42.3487864,10.749 42.1507864,10.749 L41.5297864,10.722 L41.7367864,11.496 L42.4117864,11.496 C43.0237864,11.496 43.3297864,11.208 43.3297864,10.65 L43.3297864,6.663 L41.5117864,6.663 L41.4937864,6.645 C42.0877864,6.33 42.6367864,5.952 43.1497864,5.52 L43.1497864,4.863 L38.1727864,4.863 L38.1727864,5.637 L39.8737864,5.637 Z M40.9267864,6.213 C40.6747864,6.024 40.3867864,5.835 40.0807864,5.637 L41.8807864,5.637 C41.5837864,5.844 41.2687864,6.033 40.9267864,6.213 Z M39.2077864,8.76 L40.3777864,8.76 L40.3777864,9.327 L39.2077864,9.327 L39.2077864,8.76 Z M41.2417864,8.76 L42.4477864,8.76 L42.4477864,9.327 L41.2417864,9.327 L41.2417864,8.76 Z M42.4477864,8.004 L41.2417864,8.004 L41.2417864,7.437 L42.4477864,7.437 L42.4477864,8.004 Z M40.3777864,8.004 L39.2077864,8.004 L39.2077864,7.437 L40.3777864,7.437 L40.3777864,8.004 Z M45.2917864,4.683 L44.6527864,5.295 C45.3007864,5.817 45.7957864,6.312 46.1467864,6.762 L46.8307864,6.078 C46.4077864,5.61 45.8947864,5.151 45.2917864,4.683 Z M50.6647864,12.792 L52.5727864,12.792 L52.7977864,11.847 L52.3804114,11.874 C52.2150364,11.883 52.0237864,11.892 51.8077864,11.901 C51.3757864,11.91 50.9527864,11.919 50.5387864,11.919 L49.5139114,11.913375 C49.1955364,11.91 48.9007864,11.9055 48.6307864,11.901 C48.0727864,11.883 47.6587864,11.802 47.3797864,11.676 C47.1637864,11.559 46.9387864,11.379 46.7227864,11.145 L46.6147864,11.046 L46.6147864,11.046 L46.6147864,7.626 L44.5177864,7.626 L44.5177864,8.508 L45.7237864,8.508 L45.7237864,10.974 C45.3637864,11.172 44.9497864,11.64 44.4997864,12.378 L45.1927864,13.017 C45.6517864,12.189 45.9667864,11.775 46.1467864,11.775 C46.2547864,11.775 46.3807864,11.847 46.5067864,12 C46.7767864,12.306 47.1007864,12.513 47.4877864,12.621 C47.8747864,12.711 48.3787864,12.765 48.9907864,12.774 L50.2715989,12.7904531 C50.4054739,12.7914375 50.5365364,12.792 50.6647864,12.792 Z M50.4037864,11.568 C51.0517864,11.568 51.3757864,11.244 51.3757864,10.605 L51.3757864,6.897 L52.6267864,6.897 L52.6267864,5.979 L51.3757864,5.979 L51.3757864,4.629 L50.4397864,4.629 L50.4397864,5.979 L47.0737864,5.979 L47.0737864,6.897 L50.4397864,6.897 L50.4397864,10.371 C50.4397864,10.605 50.3137864,10.731 50.0797864,10.731 C49.7197864,10.731 49.3327864,10.704 48.9367864,10.668 L49.1437864,11.568 L50.4037864,11.568 Z M48.2617864,7.5 C48.8017864,8.148 49.2247864,8.724 49.5217864,9.21 L48.7657864,9.732 C48.4597864,9.21 48.0547864,8.616 47.5327864,7.95 L48.2617864,7.5 Z" id="审批通过" fill="#FFFFFF" fill-rule="nonzero"></path>
                </g>
            </g>
        </g>
    </g>
</svg>