<?xml version="1.0" encoding="UTF-8"?>
<svg width="49px" height="49px" viewBox="0 0 49 49" version="1.1" xmlns="http://www.w3.org/2000/svg" xmlns:xlink="http://www.w3.org/1999/xlink">
    <!-- Generator: Sketch 59.1 (86144) - https://sketch.com -->
    <title>分组备份 46@2x</title>
    <desc>Created with Sketch.</desc>
    <g id="页面-1" stroke="none" stroke-width="1" fill="none" fill-rule="evenodd">
        <g id="状态角标" transform="translate(-3669.000000, -1447.000000)">
            <g id="分组备份-46" transform="translate(3668.000000, 1429.000000)">
                <g id="编组-3备份" transform="translate(33.828427, 34.171573) rotate(45.000000) translate(-33.828427, -34.171573) translate(-1.171573, 22.171573)">
                    <polygon id="矩形" fill="#FF9600" points="22.9791847 1.1507576 46.7340187 0.863961031 69.3614357 23.491378 0.362011246 23.7679311"></polygon>
                    <path d="M26.9397568,6.07622292 L29.1267568,6.07622292 C28.5147568,7.92122292 27.6057568,9.37922292 26.3907568,10.4592229 L26.8857568,11.3322229 C27.8487568,10.5492229 28.6497568,9.50522292 29.2887568,8.20922292 C29.5767568,8.70422292 29.9907568,9.17222292 30.5397568,9.62222292 C29.9277568,9.99122292 29.1807568,10.3332229 28.3077568,10.6482229 L28.8027568,11.5302229 C29.8107568,11.1342229 30.6657568,10.6932229 31.3677568,10.2072229 C32.0967568,10.6662229 32.9967568,11.0892229 34.0677568,11.4852229 L34.5537568,10.5942229 C33.6267568,10.2882229 32.8257568,9.95522292 32.1507568,9.58622292 C32.7897568,8.99222292 33.2217568,8.34422292 33.4377568,7.64222292 L33.4377568,6.85022292 L29.8737568,6.85022292 L30.1257568,6.07622292 L30.1257568,6.07622292 L34.4547568,6.07622292 L34.4547568,5.18522292 L30.3597568,5.18522292 C30.5127568,4.57322292 30.6387568,3.92522292 30.7467568,3.23222292 L29.7837568,3.11522292 C29.6847568,3.83522292 29.5497568,4.52822292 29.3877568,5.18522292 L28.1457568,5.18522292 L28.5957568,3.55622292 L27.6597568,3.40322292 L26.9397568,6.07622292 Z M29.9727568,7.69622292 L32.4837568,7.69622292 C32.2407568,8.18222292 31.8537568,8.65022292 31.3227568,9.08222292 C30.7197568,8.65022292 30.2697568,8.19122292 29.9727568,7.69622292 Z M32.2587568,3.10622292 L31.6197568,3.71822292 C32.2857568,4.22222292 32.7897568,4.70822292 33.1407568,5.16722292 L33.8067568,4.49222292 C33.3927568,4.02422292 32.8707568,3.56522292 32.2587568,3.10622292 Z M37.7487568,5.60822292 L37.7487568,8.98322292 L41.3937568,8.98322292 L41.3937568,5.60822292 L37.7487568,5.60822292 Z M40.5117568,8.20022292 L38.6217568,8.20022292 L38.6217568,6.39122292 L40.5117568,6.39122292 L40.5117568,8.20022292 Z M43.2837568,3.62822292 L35.8497568,3.62822292 L35.8497568,11.2872229 L36.7587568,11.2872229 L36.7587568,10.9992229 L42.3747568,10.9992229 L42.3747568,11.2872229 L43.2837568,11.2872229 L43.2837568,3.62822292 Z M36.7587568,10.1712229 L36.7587568,4.45622292 L42.3747568,4.45622292 L42.3747568,10.1712229 L36.7587568,10.1712229 Z M18.8127568,18.0382229 L18.8127568,21.4762229 L19.7307568,21.4762229 L19.7307568,17.9482229 C20.1087568,18.2902229 20.4867568,18.7042229 20.8647568,19.1812229 L21.3777568,18.3712229 C21.1617568,18.1642229 20.9367568,17.9662229 20.7027568,17.7772229 C20.9547568,17.5882229 21.1887568,17.3452229 21.4047568,17.0572229 L20.8737568,16.5262229 C20.6217568,16.8682229 20.3697568,17.1292229 20.1087568,17.3182229 L19.7307568,17.0662229 L19.7307568,17.0302229 C20.2077568,16.4362229 20.5587568,15.8242229 20.7927568,15.2032229 L20.7927568,14.4382229 L19.8477568,14.4382229 C19.7217568,14.0422229 19.5597568,13.6012229 19.3527568,13.1152229 L18.4437568,13.3582229 C18.6147568,13.7092229 18.7677568,14.0692229 18.9117568,14.4382229 L17.6247568,14.4382229 L17.6247568,15.2932229 L19.8567568,15.2932229 C19.4247568,16.1932229 18.5967568,17.1292229 17.3817568,18.0832229 L17.6697568,19.0372229 C18.0837568,18.7132229 18.4617568,18.3802229 18.8127568,18.0382229 Z M22.3857568,13.1512229 L22.3857568,21.4672229 L23.3127568,21.4672229 L23.3127568,17.0662229 C23.8257568,17.4442229 24.4557568,17.9752229 25.2027568,18.6412229 L25.7607568,17.8132229 C24.9327568,17.1652229 24.1137568,16.5982229 23.3127568,16.0942229 L23.3127568,13.1512229 L22.3857568,13.1512229 Z M30.6927568,13.0792229 L29.6847568,13.2412229 C29.8467568,13.5112229 29.9997568,13.7992229 30.1437568,14.1142229 L26.8227568,14.1142229 L26.8227568,14.9872229 L29.2077568,14.9872229 C28.5597568,15.9052229 28.0377568,16.4812229 27.6237568,16.6972229 C27.5787568,16.7242229 27.5157568,16.7512229 27.4257568,16.7692229 L27.6417568,17.6152229 C29.4867568,17.5162229 31.1967568,17.3812229 32.7627568,17.2102229 C32.9697568,17.5162229 33.1587568,17.8222229 33.3297568,18.1192229 L34.1037568,17.5702229 C33.7077568,16.9132229 33.1317568,16.1392229 32.3937568,15.2482229 L31.6647568,15.7072229 C31.8537568,15.9502229 32.0427568,16.2022229 32.2317568,16.4542229 C31.0977568,16.5892229 29.9727568,16.6882229 28.8387568,16.7602229 C29.2347568,16.3642229 29.6757568,15.7792229 30.1797568,14.9872229 L34.3107568,14.9872229 L34.3107568,14.1142229 L31.0977568,14.1142229 C30.9717568,13.7362229 30.8367568,13.3852229 30.6927568,13.0792229 Z M28.8387568,17.8762229 C28.7847568,18.7312229 28.5957568,19.3432229 28.2807568,19.7212229 C27.9477568,20.0992229 27.3897568,20.4322229 26.6067568,20.7112229 L27.2007568,21.4672229 C28.1007568,21.0892229 28.7397568,20.6482229 29.1267568,20.1442229 C29.4687568,19.6672229 29.6757568,18.9112229 29.7477568,17.8762229 L28.8387568,17.8762229 Z M33.3837568,21.3232229 C33.7077568,21.3052229 33.9597568,21.2242229 34.1487568,21.0622229 C34.3107568,20.9092229 34.4367568,20.3602229 34.5357568,19.4062229 L33.6717568,19.1362229 L33.6445337,19.4847143 C33.5996824,19.9631072 33.5367568,20.2415866 33.4557568,20.3152229 C33.3477568,20.4052229 33.2487568,20.4502229 33.1497568,20.4502229 L32.1867568,20.4502229 C31.9437568,20.4502229 31.8267568,20.3242229 31.8267568,20.0812229 L31.8267568,17.7682229 L30.8907568,17.7682229 L30.8907568,20.2432229 C30.8907568,20.9632229 31.2327568,21.3232229 31.9257568,21.3232229 L33.3837568,21.3232229 Z M41.4027568,15.7252229 C40.7907568,17.2732229 39.8367568,18.5422229 38.5227568,19.5412229 L39.0357568,20.3872229 C40.2057568,19.3882229 41.1057568,18.1552229 41.7267568,16.6882229 L41.7267568,20.1712229 C41.7267568,20.4052229 41.6277568,20.5222229 41.4387568,20.5222229 C41.1507568,20.5222229 40.8537568,20.5042229 40.5387568,20.4682229 L40.7547568,21.3772229 L41.7717568,21.3772229 C42.3657568,21.3772229 42.6627568,21.0532229 42.6627568,20.4142229 L42.6627568,15.7252229 L43.5897568,15.7252229 L43.5897568,14.8162229 L42.6627568,14.8162229 L42.6627568,13.1422229 L41.7267568,13.1422229 L41.7267568,14.8162229 L39.2427568,14.8162229 L39.2427568,15.7252229 L41.4027568,15.7252229 Z M35.5527568,14.7982229 L35.5527568,15.7072229 L36.8397568,15.7072229 C36.5157568,16.7152229 36.0207568,17.6152229 35.3547568,18.3982229 L35.7777568,19.4782229 C36.2277568,18.7942229 36.5967568,18.0382229 36.8937568,17.2102229 L36.8937568,21.4402229 L37.8297568,21.4402229 L37.8297568,17.1112229 C38.0547568,17.4172229 38.3157568,17.7862229 38.6127568,18.2272229 L39.1527568,17.4082229 C38.7117568,16.9222229 38.2707568,16.4902229 37.8297568,16.0942229 L37.8297568,15.7072229 L38.9277568,15.7072229 L38.9277568,14.7982229 L37.8297568,14.7982229 L37.8297568,13.1422229 L36.8937568,13.1422229 L36.8937568,14.7982229 L35.5527568,14.7982229 Z M45.2997568,13.8802229 L44.5257568,14.1322229 C44.7417568,14.7082229 44.9127568,15.3202229 45.0477568,15.9502229 L45.7677568,15.7522229 C45.6327568,15.0502229 45.4797568,14.4202229 45.2997568,13.8802229 Z M47.5047568,13.7902229 C47.4597568,14.4922229 47.3517568,15.1222229 47.1807568,15.6622229 L47.8737568,15.8872229 C48.0897568,15.3112229 48.2337568,14.6452229 48.2877568,13.8982229 L47.5047568,13.7902229 Z M44.5077568,16.2112229 L44.5077568,17.1202229 L45.9477568,17.1202229 C45.6057568,17.8402229 45.0837568,18.5242229 44.3637568,19.1812229 L44.7597568,20.1622229 C45.2457568,19.5952229 45.6597568,18.9562229 46.0197568,18.2362229 L46.0197568,21.4492229 L46.9647568,21.4492229 L46.9647568,18.1642229 C47.1717568,18.4702229 47.4147568,18.8572229 47.6847568,19.3072229 L48.2427568,18.4702229 C47.8197568,18.0382229 47.3967568,17.6422229 46.9647568,17.2822229 L46.9647568,17.1202229 L48.2067568,17.1202229 L48.2067568,16.2112229 L46.9647568,16.2112229 L46.9647568,13.1692229 L46.0197568,13.1692229 L46.0197568,16.2112229 L44.5077568,16.2112229 Z M50.8617568,13.1782229 L50.8617568,18.2992229 L48.2877568,18.6862229 L48.4227568,19.6222229 L50.8617568,19.2532229 L50.8617568,21.4492229 L51.7887568,21.4492229 L51.7887568,19.1092229 L52.7697568,18.9652229 L52.6077568,18.0292229 L51.7887568,18.1552229 L51.7887568,13.1782229 L50.8617568,13.1782229 Z M49.2867568,13.7632229 L48.6657568,14.3662229 C49.2777568,14.8342229 49.7457568,15.2752229 50.0877568,15.6892229 L50.7267568,15.0502229 C50.3397568,14.6272229 49.8627568,14.1952229 49.2867568,13.7632229 Z M49.0707568,15.8782229 C49.6287568,16.3102229 50.0967568,16.7512229 50.4837568,17.1832229 L49.8447568,17.8312229 C49.5117568,17.4082229 49.0437568,16.9582229 48.4407568,16.4722229 L49.0707568,15.8782229 Z" id="发回补充材料" fill="#FFFFFF" fill-rule="nonzero"></path>
                </g>
            </g>
        </g>
    </g>
</svg>