<?xml version="1.0" encoding="UTF-8"?>
<svg width="49px" height="49px" viewBox="0 0 49 49" version="1.1" xmlns="http://www.w3.org/2000/svg" xmlns:xlink="http://www.w3.org/1999/xlink">
    <!-- Generator: Sketch 59.1 (86144) - https://sketch.com -->
    <title>分组备份 47@2x</title>
    <desc>Created with Sketch.</desc>
    <g id="页面-1" stroke="none" stroke-width="1" fill="none" fill-rule="evenodd">
        <g id="状态角标" transform="translate(-3671.000000, -922.000000)">
            <g id="分组备份-47" transform="translate(3670.000000, 909.000000)">
                <g id="编组-3" transform="translate(31.353553, 31.646447) rotate(45.000000) translate(-31.353553, -31.646447) translate(-3.646447, 23.146447)">
                    <polygon id="矩形" fill="#FF9600" points="16.0683698 1.06157248 53.835396 0.965338282 69.375151 16.5050933 0.362011246 16.7679311"></polygon>
                    <path d="M20.0737864,8.193 C20.3527864,9.183 20.9197864,10.083 21.7657864,10.893 C21.0277864,11.406 20.1277864,11.838 19.0567864,12.198 L19.5697864,12.999 C20.7307864,12.603 21.7117864,12.099 22.5037864,11.505 C23.2327864,12.054 24.1417864,12.549 25.2217864,12.999 L25.7437864,12.162 C24.7537864,11.802 23.8987864,11.379 23.1967864,10.911 C24.0067864,10.137 24.5557864,9.21 24.8437864,8.139 L24.8437864,7.311 L19.5067864,7.311 L19.5067864,6.06 C21.5857864,6.006 23.4667864,5.799 25.1407864,5.457 L24.6997864,4.656 C22.9087864,5.016 20.8657864,5.205 18.5707864,5.241 L18.5707864,7.968 C18.5167864,9.786 18.1387864,11.208 17.4367864,12.234 L18.1117864,12.945 C18.9397864,11.757 19.4077864,10.173 19.4977864,8.193 L20.0737864,8.193 Z M22.4497864,10.344 C21.7207864,9.714 21.2257864,8.994 20.9737864,8.193 L23.9077864,8.193 C23.6197864,8.994 23.1337864,9.714 22.4497864,10.344 Z M29.9917864,5.061 L29.9917864,6.996 L31.6477864,6.996 L31.6477864,7.356 L29.5687864,7.356 L29.5687864,8.148 L34.6267864,8.148 L34.6267864,7.356 L32.5477864,7.356 L32.5477864,6.996 L34.2217864,6.996 L34.2217864,5.061 L32.5477864,5.061 L32.5477864,4.602 L31.6477864,4.602 L31.6477864,5.061 L29.9917864,5.061 Z M33.4027864,6.276 L32.5477864,6.276 L32.5477864,5.781 L33.4027864,5.781 L33.4027864,6.276 Z M31.6477864,6.276 L30.8107864,6.276 L30.8107864,5.781 L31.6477864,5.781 L31.6477864,6.276 Z M34.1407864,8.508 L29.9827864,8.508 L29.9827864,11.334 L30.8557864,11.334 L30.8557864,9.282 L33.2677864,9.282 L33.2677864,11.334 L34.1407864,11.334 L34.1407864,8.508 Z M32.7997864,11.253 L32.3317864,11.937 C32.9797864,12.189 33.6097864,12.531 34.2127864,12.981 L34.7257864,12.198 C34.1497864,11.82 33.5017864,11.505 32.7997864,11.253 Z M31.5757864,9.516 L31.5757864,10.398 C31.5397864,10.857 31.3777864,11.235 31.0807864,11.523 C30.7747864,11.793 30.1807864,12.009 29.3167864,12.189 L29.8207864,12.981 C30.7297864,12.774 31.3867864,12.477 31.7917864,12.081 C32.2057864,11.658 32.4397864,11.1 32.4757864,10.398 L32.4757864,9.516 L31.5757864,9.516 Z M27.8497864,6.906 L28.6867864,6.906 C28.5607864,7.167 28.4257864,7.392 28.2817864,7.59 L28.9567864,8.13 C29.2087864,7.77 29.4517864,7.311 29.6767864,6.771 L29.6767864,6.042 L28.1107864,6.042 C28.2007864,5.664 28.2817864,5.25 28.3537864,4.818 L27.4357864,4.665 C27.2467864,6.051 26.8777864,7.149 26.3377864,7.977 L26.9227864,8.697 C27.2917864,8.211 27.5977864,7.608 27.8497864,6.906 Z M27.5887864,7.95 L27.5887864,11.532 C27.5887864,11.748 27.5077864,11.901 27.3457864,12.009 L27.7147864,12.792 C28.4527864,12.504 29.0917864,12.144 29.6497864,11.712 L29.4787864,10.848 C29.1547864,11.154 28.8217864,11.406 28.4887864,11.604 L28.4887864,7.95 L27.5887864,7.95 Z M36.5977864,4.872 L36.5977864,5.718 L41.0077864,5.718 L41.0077864,6.348 L36.9037864,6.348 L36.9037864,7.158 L41.0077864,7.158 L41.0077864,7.779 L35.6977864,7.779 L35.6977864,8.634 L39.0637864,8.634 L39.0637864,9.624 C38.0737864,10.47 36.9127864,11.19 35.5627864,11.802 L35.9407864,12.675 C37.1377864,12.054 38.1817864,11.361 39.0637864,10.587 L39.0637864,11.766 C39.0637864,12 38.9917864,12.126 38.8567864,12.126 C38.5507864,12.126 38.2357864,12.099 37.9117864,12.063 L38.1187864,12.945 L39.1717864,12.945 C39.7207864,12.945 39.9997864,12.621 39.9997864,11.991 L39.9997864,10.551 C40.7737864,11.388 41.7907864,12.099 43.0507864,12.693 L43.5277864,11.865 C42.6457864,11.487 41.8717864,11.064 41.2057864,10.578 C41.7997864,10.254 42.3307864,9.795 42.7987864,9.219 L42.0877864,8.634 L43.4827864,8.634 L43.4827864,7.779 L41.9617864,7.779 L41.9617864,4.872 L36.5977864,4.872 Z M36.8227864,8.769 L36.2017864,9.363 C36.7777864,9.759 37.2187864,10.119 37.5337864,10.461 L38.1457864,9.849 C37.7857864,9.489 37.3447864,9.129 36.8227864,8.769 Z M42.0697864,8.634 C41.6467864,9.246 41.1427864,9.723 40.5667864,10.065 C40.3597864,9.885 40.1707864,9.705 39.9997864,9.516 L39.9997864,8.634 L42.0697864,8.634 Z M48.0547864,6.789 C47.6497864,6.06 47.1727864,5.502 46.6147864,5.106 L47.3977864,4.602 C48.1357864,5.124 48.8017864,6.141 49.3957864,7.644 C50.2507864,9.732 51.3487864,11.208 52.6987864,12.072 L52.1137864,12.819 C50.7187864,11.991 49.5397864,10.362 48.5767864,7.95 L48.5497864,7.869 C47.9377864,10.002 46.7407864,11.658 44.9407864,12.828 L44.3647864,12.018 C46.2277864,10.794 47.4607864,9.057 48.0547864,6.789 Z" id="反馈录入" fill="#FFFFFF" fill-rule="nonzero"></path>
                </g>
            </g>
        </g>
    </g>
</svg>