<?xml version="1.0" encoding="UTF-8"?>
<svg width="49px" height="49px" viewBox="0 0 49 49" version="1.1" xmlns="http://www.w3.org/2000/svg" xmlns:xlink="http://www.w3.org/1999/xlink">
    <!-- Generator: Sketch 59.1 (86144) - https://sketch.com -->
    <title>分组备份 48@2x</title>
    <desc>Created with Sketch.</desc>
    <g id="页面-1" stroke="none" stroke-width="1" fill="none" fill-rule="evenodd">
        <g id="状态角标" transform="translate(-3671.000000, -716.000000)">
            <g id="分组备份-48" transform="translate(3670.000000, 703.000000)">
                <g id="编组-3" transform="translate(31.353553, 31.646447) rotate(45.000000) translate(-31.353553, -31.646447) translate(-3.646447, 23.146447)">
                    <polygon id="矩形" fill="#FF9600" points="16.0683698 1.06157248 53.835396 0.965338282 69.375151 16.5050933 0.362011246 16.7679311"></polygon>
                    <path d="M25.5817864,7.293 L24.6097864,7.293 C24.8437864,6.915 25.0777864,6.474 25.3117864,5.952 L24.4297864,5.619 C24.2137864,6.213 23.9617864,6.771 23.6557864,7.293 L20.1637864,7.293 L20.1637864,9.147 L20.6407864,9.147 L20.6407864,9.651 L21.0187864,9.651 C21.2437864,10.254 21.6127864,10.794 22.1257864,11.28 C21.4777864,11.586 20.7037864,11.838 19.8037864,12.036 L20.2987864,12.927 C21.3247864,12.657 22.2067864,12.315 22.9267864,11.901 C23.5477864,12.315 24.3217864,12.657 25.2487864,12.945 L25.8067864,12.09 C25.0147864,11.874 24.3397864,11.613 23.7727864,11.307 C24.3487864,10.821 24.7717864,10.245 25.0327864,9.597 L25.0327864,9.147 L25.5817864,9.147 L25.5817864,7.293 Z M21.9457864,9.651 L24.0427864,9.651 C23.7817864,10.074 23.4217864,10.452 22.9537864,10.785 C22.5217864,10.452 22.1797864,10.074 21.9457864,9.651 Z M21.0547864,8.805 L21.0547864,8.193 L24.6727864,8.193 L24.6727864,8.805 L21.0547864,8.805 Z M22.8547864,5.754 L22.0627864,5.97 C22.2967864,6.375 22.5037864,6.789 22.6657864,7.203 L23.4217864,6.915 C23.2957864,6.564 23.1067864,6.177 22.8547864,5.754 Z M21.2797864,5.79 L20.4877864,6.006 C20.7217864,6.402 20.9197864,6.798 21.0817864,7.212 L21.8377864,6.924 C21.7117864,6.582 21.5227864,6.204 21.2797864,5.79 Z M25.0777864,4.602 C23.7277864,4.791 22.0717864,4.89 20.1277864,4.89 L20.4067864,5.727 C22.5397864,5.727 24.2407864,5.601 25.5187864,5.367 L25.0777864,4.602 Z M18.5257864,12.837 C19.0567864,12.837 19.3267864,12.567 19.3267864,12.036 L19.3267864,9.525 C19.5517864,9.417 19.7767864,9.3 20.0017864,9.183 L20.0017864,8.238 C19.7767864,8.364 19.5517864,8.49 19.3267864,8.598 L19.3267864,7.068 L20.0647864,7.068 L20.0647864,6.159 L19.3267864,6.159 L19.3267864,4.62 L18.3997864,4.62 L18.3997864,6.159 L17.4997864,6.159 L17.4997864,7.068 L18.3997864,7.068 L18.3997864,8.985 C18.0757864,9.093 17.7427864,9.192 17.4097864,9.273 L17.6437864,10.2 L18.3997864,9.93 L18.3997864,11.802 C18.3997864,11.928 18.3277864,12 18.2017864,12 C17.9947864,12 17.7787864,11.982 17.5537864,11.946 L17.7607864,12.837 L18.5257864,12.837 Z M27.3277864,8.31 L27.3277864,12.954 L28.2547864,12.954 L28.2547864,6.852 C28.5787864,6.24 28.8397864,5.601 29.0377864,4.926 L28.1557864,4.512 C27.7597864,5.898 27.1477864,7.104 26.3377864,8.13 L26.6527864,9.138 C26.8867864,8.868 27.1117864,8.598 27.3277864,8.31 Z M28.8307864,5.655 L28.8307864,6.537 L34.7617864,6.537 L34.7617864,5.655 L32.3407864,5.655 C32.2507864,5.331 32.1157864,4.971 31.9357864,4.584 L31.0357864,4.827 C31.1707864,5.097 31.2967864,5.367 31.4137864,5.655 L28.8307864,5.655 Z M29.6407864,7.014 L29.6407864,7.851 L34.0057864,7.851 L34.0057864,7.014 L29.6407864,7.014 Z M29.6407864,8.283 L29.6407864,9.129 L34.0057864,9.129 L34.0057864,8.283 L29.6407864,8.283 Z M34.2037864,9.624 L29.4337864,9.624 L29.4337864,12.936 L30.3517864,12.936 L30.3517864,12.486 L33.2947864,12.486 L33.2947864,12.936 L34.2037864,12.936 L34.2037864,9.624 Z M30.3517864,11.595 L30.3517864,10.497 L33.2947864,10.497 L33.2947864,11.595 L30.3517864,11.595 Z M39.5857864,6.564 L39.5857864,7.302 L40.4767864,7.302 L40.4767864,7.914 L39.4687864,7.914 L39.4687864,8.688 L42.3847864,8.688 L42.3847864,7.914 L41.3677864,7.914 L41.3677864,7.302 L42.2677864,7.302 L42.2677864,6.564 L41.3677864,6.564 L41.3677864,5.961 L40.4767864,5.961 L40.4767864,6.564 L39.5857864,6.564 Z M39.7027864,9.129 L39.7027864,11.586 L42.1417864,11.586 L42.1417864,9.129 L39.7027864,9.129 Z M41.3497864,10.83 L40.5037864,10.83 L40.5037864,9.885 L41.3497864,9.885 L41.3497864,10.83 Z M43.4827864,4.881 L38.3887864,4.881 L38.3887864,9.993 C38.3707864,10.929 38.1637864,11.694 37.7677864,12.306 L38.4607864,12.945 C38.9827864,12.171 39.2527864,11.172 39.2707864,9.93 L39.2707864,5.727 L42.5917864,5.727 L42.5917864,11.631 C42.5917864,11.928 42.4747864,12.081 42.2407864,12.081 C42.0067864,12.081 41.7457864,12.063 41.4757864,12.036 L41.6917864,12.891 L42.5107864,12.891 C43.1587864,12.891 43.4827864,12.576 43.4827864,11.955 L43.4827864,4.881 Z M36.6877864,4.674 L36.0307864,5.313 C36.6247864,5.781 37.0927864,6.213 37.4257864,6.627 L38.0647864,5.979 C37.6867864,5.547 37.2277864,5.106 36.6877864,4.674 Z M35.4097864,7.266 L35.4097864,8.166 L36.5797864,8.166 L36.5797864,11.208 C36.5797864,11.397 36.4987864,11.55 36.3367864,11.676 L36.6967864,12.513 C37.2187864,12.135 37.7137864,11.712 38.1817864,11.244 L37.9477864,10.317 L37.4797864,10.776 L37.4797864,10.776 L37.4797864,7.266 L35.4097864,7.266 Z M45.8227864,7.932 L45.8227864,11.379 L51.3847864,11.379 L51.3847864,7.932 L45.8227864,7.932 Z M50.4667864,10.551 L46.7407864,10.551 L46.7407864,10.065 L50.4667864,10.065 L50.4667864,10.551 Z M46.7407864,9.273 L46.7407864,8.76 L50.4667864,8.76 L50.4667864,9.273 L46.7407864,9.273 Z M44.8687864,5.322 L44.8687864,6.186 L47.3437864,6.186 C46.6687864,6.672 45.6967864,7.077 44.4187864,7.419 L44.9317864,8.247 C46.3627864,7.716 47.4337864,7.05 48.1447864,6.249 L48.1447864,7.671 L49.0627864,7.671 L49.0627864,6.249 C49.7377864,7.068 50.8267864,7.734 52.3297864,8.247 L52.7347864,7.401 C51.4927864,7.095 50.5477864,6.69 49.8817864,6.186 L52.3387864,6.186 L52.3387864,5.322 L49.0627864,5.322 L49.0627864,4.593 L48.1447864,4.593 L48.1447864,5.322 L44.8687864,5.322 Z M44.6887864,11.847 L52.4917864,11.847 L52.4917864,12.702 L44.6887864,12.702 L44.6887864,11.847 Z" id="授信调查" fill="#FFFFFF" fill-rule="nonzero"></path>
                </g>
            </g>
        </g>
    </g>
</svg>