<?xml version="1.0" encoding="UTF-8"?>
<svg width="49px" height="49px" viewBox="0 0 49 49" version="1.1" xmlns="http://www.w3.org/2000/svg" xmlns:xlink="http://www.w3.org/1999/xlink">
    <!-- Generator: Sketch 59.1 (86144) - https://sketch.com -->
    <title>分组备份 49@2x</title>
    <desc>Created with Sketch.</desc>
    <g id="页面-1" stroke="none" stroke-width="1" fill="none" fill-rule="evenodd">
        <g id="状态角标" transform="translate(-3671.000000, -298.000000)">
            <g id="分组备份-49" transform="translate(3670.000000, 285.000000)">
                <g id="编组-3" transform="translate(31.353553, 31.646447) rotate(45.000000) translate(-31.353553, -31.646447) translate(-3.646447, 23.146447)">
                    <polygon id="矩形" fill="#FF4831" points="16.0683698 1.06157248 53.835396 0.965338282 69.375151 16.5050933 0.362011246 16.7679311"></polygon>
                    <path d="M24.7385,4.926 L24.7385,5.844 L28.1495,5.844 C27.3305,6.708 26.0435,7.455 24.2885,8.085 L24.8825,8.859 C26.1065,8.364 27.1235,7.806 27.9335,7.176 L27.9335,9.219 L28.8695,9.219 L28.8695,6.312 C29.0045,6.159 29.1305,6.006 29.2565,5.844 L32.1095,5.844 L32.1095,4.926 L24.7385,4.926 Z M31.4885,9.435 L25.3325,9.435 L25.3325,12.909 L26.2865,12.909 L26.2865,12.504 L30.5345,12.504 L30.5345,12.909 L31.4885,12.909 L31.4885,9.435 Z M26.2865,11.604 L26.2865,10.335 L30.5345,10.335 L30.5345,11.604 L26.2865,11.604 Z M29.8325,6.429 L29.2025,7.041 C30.3095,7.707 31.1645,8.319 31.7675,8.895 L32.4515,8.211 C31.7405,7.617 30.8675,7.023 29.8325,6.429 Z M41.8845,5.88 L41.8845,6.771 L43.5945,6.771 L43.5945,7.311 C43.5945,7.725 43.5585,8.121 43.5045,8.499 L41.5065,8.499 L41.5065,9.39 L43.2975,9.39 C42.9015,10.65 42.1005,11.568 40.8945,12.144 L41.4975,12.936 C42.7845,12.252 43.6575,11.19 44.1255,9.768 C44.7015,11.019 45.5925,12.063 46.7805,12.909 L47.4015,12.189 C46.2135,11.469 45.3495,10.542 44.7915,9.39 L47.2665,9.39 L47.2665,8.499 L46.5285,8.499 L46.5285,5.88 L44.5035,5.88 L44.5035,4.611 L43.5945,4.611 L43.5945,5.88 L41.8845,5.88 Z M44.5035,6.771 L45.6195,6.771 L45.6195,8.499 L44.4135,8.499 C44.4675,8.067 44.5035,7.599 44.5035,7.104 L44.5035,6.771 Z M39.8865,4.836 L39.1125,5.322 C39.6615,6.114 40.0935,6.843 40.4085,7.491 L41.1825,6.951 C40.8855,6.348 40.4535,5.646 39.8865,4.836 Z M40.4535,8.607 L41.2815,8.931 C40.8945,10.263 40.4535,11.523 39.9675,12.702 L39.0765,12.315 C39.6075,11.109 40.0665,9.867 40.4535,8.607 Z" id="否决" fill="#FFFFFF" fill-rule="nonzero"></path>
                </g>
            </g>
        </g>
    </g>
</svg>