<?xml version="1.0" encoding="UTF-8"?>
<svg width="49px" height="49px" viewBox="0 0 49 49" version="1.1" xmlns="http://www.w3.org/2000/svg" xmlns:xlink="http://www.w3.org/1999/xlink">
    <!-- Generator: Sketch 59.1 (86144) - https://sketch.com -->
    <title>分组备份 50@2x</title>
    <desc>Created with Sketch.</desc>
    <g id="页面-1" stroke="none" stroke-width="1" fill="none" fill-rule="evenodd">
        <g id="状态角标" transform="translate(-3671.000000, -194.000000)">
            <g id="分组备份-50" transform="translate(3670.000000, 181.000000)">
                <g id="编组-3" transform="translate(31.353553, 31.646447) rotate(45.000000) translate(-31.353553, -31.646447) translate(-3.646447, 23.146447)">
                    <polygon id="矩形" fill="#4D94FF" points="16.0683698 1.06157248 53.835396 0.965338282 69.375151 16.5050933 0.362011246 16.7679311"></polygon>
                    <path d="M26.996,7.293 L26.024,7.293 C26.258,6.915 26.492,6.474 26.726,5.952 L25.844,5.619 C25.628,6.213 25.376,6.771 25.07,7.293 L21.578,7.293 L21.578,9.147 L22.055,9.147 L22.055,9.651 L22.433,9.651 C22.658,10.254 23.027,10.794 23.54,11.28 C22.892,11.586 22.118,11.838 21.218,12.036 L21.713,12.927 C22.739,12.657 23.621,12.315 24.341,11.901 C24.962,12.315 25.736,12.657 26.663,12.945 L27.221,12.09 C26.429,11.874 25.754,11.613 25.187,11.307 C25.763,10.821 26.186,10.245 26.447,9.597 L26.447,9.147 L26.996,9.147 L26.996,7.293 Z M23.36,9.651 L25.457,9.651 C25.196,10.074 24.836,10.452 24.368,10.785 C23.936,10.452 23.594,10.074 23.36,9.651 Z M22.469,8.805 L22.469,8.193 L26.087,8.193 L26.087,8.805 L22.469,8.805 Z M24.269,5.754 L23.477,5.97 C23.711,6.375 23.918,6.789 24.08,7.203 L24.836,6.915 C24.71,6.564 24.521,6.177 24.269,5.754 Z M22.694,5.79 L21.902,6.006 C22.136,6.402 22.334,6.798 22.496,7.212 L23.252,6.924 C23.126,6.582 22.937,6.204 22.694,5.79 Z M26.492,4.602 C25.142,4.791 23.486,4.89 21.542,4.89 L21.821,5.727 C23.954,5.727 25.655,5.601 26.933,5.367 L26.492,4.602 Z M19.94,12.837 C20.471,12.837 20.741,12.567 20.741,12.036 L20.741,9.525 C20.966,9.417 21.191,9.3 21.416,9.183 L21.416,8.238 C21.191,8.364 20.966,8.49 20.741,8.598 L20.741,7.068 L21.479,7.068 L21.479,6.159 L20.741,6.159 L20.741,4.62 L19.814,4.62 L19.814,6.159 L18.914,6.159 L18.914,7.068 L19.814,7.068 L19.814,8.985 C19.49,9.093 19.157,9.192 18.824,9.273 L19.058,10.2 L19.814,9.93 L19.814,11.802 C19.814,11.928 19.742,12 19.616,12 C19.409,12 19.193,11.982 18.968,11.946 L19.175,12.837 L19.94,12.837 Z M28.742,8.31 L28.742,12.954 L29.669,12.954 L29.669,6.852 C29.993,6.24 30.254,5.601 30.452,4.926 L29.57,4.512 C29.174,5.898 28.562,7.104 27.752,8.13 L28.067,9.138 C28.301,8.868 28.526,8.598 28.742,8.31 Z M30.245,5.655 L30.245,6.537 L36.176,6.537 L36.176,5.655 L33.755,5.655 C33.665,5.331 33.53,4.971 33.35,4.584 L32.45,4.827 C32.585,5.097 32.711,5.367 32.828,5.655 L30.245,5.655 Z M31.055,7.014 L31.055,7.851 L35.42,7.851 L35.42,7.014 L31.055,7.014 Z M31.055,8.283 L31.055,9.129 L35.42,9.129 L35.42,8.283 L31.055,8.283 Z M35.618,9.624 L30.848,9.624 L30.848,12.936 L31.766,12.936 L31.766,12.486 L34.709,12.486 L34.709,12.936 L35.618,12.936 L35.618,9.624 Z M31.766,11.595 L31.766,10.497 L34.709,10.497 L34.709,11.595 L31.766,11.595 Z M40.541,4.647 L40.541,5.889 L37.652,5.889 L37.652,11.163 L38.579,11.163 L38.579,10.641 L40.541,10.641 L40.541,12.891 L41.495,12.891 L41.495,10.641 L43.421,10.641 L43.421,11.1 L44.348,11.1 L44.348,5.889 L41.495,5.889 L41.495,4.647 L40.541,4.647 Z M38.579,9.759 L38.579,8.67 L40.541,8.67 L40.541,9.759 L38.579,9.759 Z M41.495,9.759 L41.495,8.67 L43.421,8.67 L43.421,9.759 L41.495,9.759 Z M38.579,7.833 L38.579,6.762 L40.541,6.762 L40.541,7.833 L38.579,7.833 Z M41.495,7.833 L41.495,6.762 L43.421,6.762 L43.421,7.833 L41.495,7.833 Z M50.882,4.611 L50.882,5.106 L48.812,5.106 L48.812,5.862 L50.882,5.862 L50.882,6.24 L49.19,6.24 L49.19,6.978 L50.882,6.978 L50.882,7.365 L48.56,7.365 L48.56,8.139 L54.14,8.139 L54.14,7.365 L51.791,7.365 L51.791,6.978 L53.609,6.978 L53.609,6.24 L51.791,6.24 L51.791,5.862 L53.924,5.862 L53.924,5.106 L51.791,5.106 L51.791,4.611 L50.882,4.611 Z M50.063,10.407 L52.637,10.407 L52.637,10.848 L50.063,10.848 L50.063,10.407 Z M52.637,9.705 L50.063,9.705 L50.063,9.255 L52.637,9.255 L52.637,9.705 Z M50.063,11.559 L52.637,11.559 L52.637,11.811 C52.637,12 52.556,12.099 52.394,12.099 L51.683,12.063 L51.908,12.882 L52.655,12.882 C53.24,12.882 53.537,12.585 53.537,12.009 L53.537,8.499 L49.181,8.499 L49.181,12.936 L50.063,12.936 L50.063,11.559 Z M47.102,4.674 L46.436,5.313 C47.075,5.781 47.57,6.213 47.912,6.627 L48.56,5.979 C48.155,5.547 47.669,5.106 47.102,4.674 Z M45.824,7.266 L47.93,7.266 L47.93,10.938 C48.146,10.731 48.362,10.506 48.587,10.272 L48.839,11.262 C48.299,11.793 47.732,12.27 47.138,12.693 L46.787,11.847 C46.94,11.712 47.021,11.541 47.021,11.343 L47.021,8.166 L45.824,8.166 L45.824,7.266 Z" id="授信申请" fill="#FFFFFF" fill-rule="nonzero"></path>
                </g>
            </g>
        </g>
    </g>
</svg>