<?xml version="1.0" encoding="UTF-8"?>
<svg width="49px" height="49px" viewBox="0 0 49 49" version="1.1" xmlns="http://www.w3.org/2000/svg" xmlns:xlink="http://www.w3.org/1999/xlink">
    <!-- Generator: Sketch 59.1 (86144) - https://sketch.com -->
    <title>分组备份 51@2x</title>
    <desc>Created with Sketch.</desc>
    <g id="页面-1" stroke="none" stroke-width="1" fill="none" fill-rule="evenodd">
        <g id="状态角标" transform="translate(-3669.000000, -403.000000)">
            <g id="分组备份-51" transform="translate(3668.000000, 385.000000)">
                <g id="编组-3备份" transform="translate(33.828427, 34.171573) rotate(45.000000) translate(-33.828427, -34.171573) translate(-1.171573, 22.171573)">
                    <polygon id="矩形" fill="#FF9600" points="22.9791847 1.1507576 46.7340187 0.863961031 69.3614357 23.491378 0.362011246 23.7679311"></polygon>
                    <path d="M29.1897568,4.89722292 L28.5057568,5.55422292 C29.3247568,6.17522292 30.0717568,6.78722292 30.7467568,7.39022292 C30.0627568,8.09222292 29.2527568,8.64122292 28.3347568,9.01922292 L28.8837568,9.86522292 C29.8557568,9.45122292 30.7197568,8.84822292 31.4757568,8.06522292 C32.0967568,8.65022292 32.6457568,9.22622292 33.1137568,9.80222292 L33.8427568,9.06422292 C33.3117568,8.48822292 32.7267568,7.91222292 32.0967568,7.32722292 C32.5917568,6.67922292 33.0237568,5.92322292 33.4017568,5.06822292 L32.5467568,4.61822292 C32.2137568,5.38322292 31.8177568,6.06722292 31.3677568,6.67022292 C30.7017568,6.08522292 29.9727568,5.49122292 29.1897568,4.89722292 Z M26.9847568,3.47522292 L26.9847568,11.1162229 L34.5177568,11.1162229 L34.5177568,10.2162229 L27.8937568,10.2162229 L27.8937568,4.37522292 L34.2387568,4.37522292 L34.2387568,3.47522292 L26.9847568,3.47522292 Z M37.9107568,4.26722292 L37.9107568,5.14922292 L41.0067568,5.14922292 L41.0361889,6.00379082 C41.0711519,6.82482786 41.1230037,7.54497601 41.1944111,8.1615686 L41.2317568,8.46122292 C41.2587568,8.71322292 41.2947568,8.94722292 41.3487568,9.18122292 C40.8987568,9.84722292 40.3497568,10.3512229 39.7197568,10.7112229 L40.2957568,11.4672229 C40.7907568,11.1612229 41.2407568,10.7652229 41.6457568,10.2702229 C41.6997568,10.4142229 41.7537568,10.5582229 41.8257568,10.7022229 C42.0777568,11.1702229 42.3567568,11.4132229 42.6627568,11.4132229 C43.0947568,11.4132229 43.4817568,10.8642229 43.8057568,9.77522292 L43.1037568,9.19922292 L43.0302329,9.5484983 C42.8976622,10.1362348 42.7769876,10.4349922 42.6627568,10.4502229 C42.5097568,10.4052229 42.3657568,10.0542229 42.2397568,9.40622292 C42.7527568,8.51522292 43.1577568,7.39922292 43.4637568,6.06722292 L42.6537568,5.71622292 C42.5007568,6.51722292 42.2937568,7.23722292 42.0327568,7.86722292 C41.9697568,7.11122292 41.9337568,6.21122292 41.9157568,5.14922292 L43.6977568,5.14922292 L43.6977568,4.26722292 L43.3287568,4.26722292 L43.1993818,3.76772292 C43.1577568,3.61022292 43.1172568,3.46172292 43.0767568,3.32222292 L42.2487568,3.45722292 C42.3567568,3.70922292 42.4557568,3.97922292 42.5457568,4.26722292 L41.9067568,4.26722292 C41.8977568,3.90722292 41.8977568,3.53822292 41.8977568,3.16022292 L40.9797568,3.16022292 C40.9797568,3.53822292 40.9797568,3.90722292 40.9887568,4.26722292 L37.9107568,4.26722292 Z M38.2437568,5.84222292 L38.2437568,8.51522292 L40.6557568,8.51522292 L40.6557568,5.84222292 L38.2437568,5.84222292 Z M39.8457568,7.75022292 L39.0447568,7.75022292 L39.0447568,6.60722292 L39.8457568,6.60722292 L39.8457568,7.75022292 Z M40.6557568,8.87522292 C39.6657568,9.24422292 38.6487568,9.50522292 37.6047568,9.66722292 L37.8387568,10.5672229 C38.8377568,10.3332229 39.7737568,10.0542229 40.6557568,9.72122292 L40.6557568,8.87522292 Z M35.5167568,5.43722292 L35.5167568,6.33722292 L36.2997568,6.33722292 L36.2997568,9.03722292 C36.0117568,9.12722292 35.7237568,9.19922292 35.4267568,9.26222292 L35.6607568,10.2162229 C36.4707568,9.95522292 37.2357568,9.64022292 37.9557568,9.27122292 L37.9557568,8.32622292 C37.7217568,8.45222292 37.4787568,8.56922292 37.2267568,8.68622292 L37.2267568,6.33722292 L37.9737568,6.33722292 L37.9737568,5.43722292 L37.2267568,5.43722292 L37.2267568,3.17822292 L36.2997568,3.17822292 L36.2997568,5.43722292 L35.5167568,5.43722292 Z M14.5647568,14.6362229 L14.5647568,15.3202229 C14.5377568,17.8582229 13.8267568,19.7032229 12.4317568,20.8552229 L13.1517568,21.4942229 C14.6817568,20.1892229 15.4557568,18.1282229 15.4917568,15.3202229 L15.4917568,14.6362229 L16.9857568,14.6362229 L16.9663137,16.6305481 C16.9488211,17.928998 16.924322,18.7222229 16.8867568,19.0102229 C16.8147568,19.9822229 16.5717568,20.4772229 16.1487568,20.4772229 C15.8337568,20.4772229 15.4557568,20.4592229 15.0147568,20.4232229 L15.2487568,21.2782229 L15.7540576,21.3111292 C15.9999756,21.3251917 16.1870068,21.3322229 16.3107568,21.3322229 C17.1437568,21.3322229 17.6315624,20.7702785 17.7741735,19.6615532 L17.8166564,19.2644497 C17.8940512,18.4259573 17.9397568,16.5755429 17.9397568,13.7272229 L13.3227568,13.7272229 L13.3227568,14.6362229 L14.5647568,14.6362229 Z M11.0907568,18.1372229 L11.0907568,21.4582229 L11.9997568,21.4582229 L11.9997568,17.9392229 C12.3327568,18.2632229 12.6657568,18.6502229 13.0077568,19.1002229 L13.5027568,18.3172229 C13.3137568,18.1192229 13.1157568,17.9212229 12.8997568,17.7412229 C13.1787568,17.5342229 13.4397568,17.2732229 13.6737568,16.9492229 L13.1157568,16.3912229 C12.8637568,16.7692229 12.6027568,17.0662229 12.3327568,17.2822229 C12.2247568,17.2012229 12.1167568,17.1202229 11.9997568,17.0482229 C12.4317568,16.4362229 12.7557568,15.8242229 12.9627568,15.2032229 L12.9627568,14.4382229 L12.0807568,14.4382229 C11.9637568,14.0422229 11.8017568,13.6012229 11.6037568,13.1152229 L10.6947568,13.3582229 C10.8657568,13.7092229 11.0187568,14.0692229 11.1537568,14.4382229 L10.0827568,14.4382229 L10.0827568,15.2932229 L12.0447568,15.2932229 C11.6667568,16.1932229 10.9377568,17.1292229 9.86675683,18.0832229 L10.1547568,19.0372229 C10.4877568,18.7402229 10.8027568,18.4432229 11.0907568,18.1372229 Z M20.9007568,18.1192229 L22.6287568,18.1192229 L22.6287568,18.8752229 L20.9007568,18.8752229 L20.9007568,18.1192229 Z M22.6287568,19.7302229 L22.6287568,21.5032229 L23.5647568,21.5032229 L23.5647568,19.7302229 L25.3197568,19.7302229 L25.3197568,20.1712229 L26.2377568,20.1712229 L26.2377568,15.6622229 L23.5647568,15.6622229 L23.5647568,14.9242229 L22.6287568,14.9242229 L22.6287568,15.6622229 L19.9827568,15.6622229 L19.9827568,20.1982229 L20.9007568,20.1982229 L20.9007568,19.7302229 L22.6287568,19.7302229 Z M23.5647568,18.8752229 L23.5647568,18.1192229 L25.3197568,18.1192229 L25.3197568,18.8752229 L23.5647568,18.8752229 Z M25.3197568,17.3002229 L23.5647568,17.3002229 L23.5647568,16.5262229 L25.3197568,16.5262229 L25.3197568,17.3002229 Z M22.6287568,16.5262229 L22.6287568,17.3002229 L20.9007568,17.3002229 L20.9007568,16.5262229 L22.6287568,16.5262229 Z M26.9217568,13.7272229 L23.5017568,13.7272229 C23.4297568,13.4752229 23.3577568,13.2502229 23.2857568,13.0522229 L22.2867568,13.2142229 C22.3677568,13.3762229 22.4487568,13.5472229 22.5207568,13.7272229 L19.1817568,13.7272229 L19.1817568,15.5182229 L20.0997568,15.5182229 L20.0997568,14.5822229 L26.0037568,14.5822229 L26.0037568,15.4732229 L26.9217568,15.4732229 L26.9217568,13.7272229 Z M29.3427568,13.0882229 C28.9107568,13.6732229 28.5867568,14.2852229 28.3527568,14.9332229 C28.0737568,15.6892229 27.9387568,16.4722229 27.9387568,17.3002229 C27.9387568,18.1102229 28.0737568,18.9022229 28.3527568,19.6582229 C28.5867568,20.2882229 28.9107568,20.9002229 29.3427568,21.4942229 L30.1977568,21.4942229 C29.8197568,20.8642229 29.5317568,20.2432229 29.3337568,19.6312229 C29.0637568,18.8482229 28.9377568,18.0652229 28.9377568,17.2912229 C28.9377568,16.5082229 29.0637568,15.7252229 29.3337568,14.9512229 C29.5317568,14.3302229 29.8197568,13.7092229 30.1977568,13.0882229 L29.3427568,13.0882229 Z M33.2667568,18.1642229 L33.2667568,20.4412229 L36.8577568,20.4412229 L36.8577568,18.1102229 C36.9657568,18.2182229 37.0647568,18.3262229 37.1637568,18.4432229 L37.8207568,17.7952229 L37.8207568,20.1352229 C37.8207568,20.4502229 37.7127568,20.6122229 37.5147568,20.6122229 L36.6507568,20.5762229 L36.8847568,21.4222229 L37.8027568,21.4222229 C38.4147568,21.4222229 38.7297568,21.0532229 38.7297568,20.3332229 L38.7297568,15.5182229 L36.8037568,15.5182229 C36.9477568,15.2572229 37.0827568,14.9692229 37.2087568,14.6632229 L39.0897568,14.6632229 L39.0897568,13.7632229 L35.5707568,13.7632229 C35.4987568,13.5022229 35.4177568,13.2592229 35.3277568,13.0432229 L34.3017568,13.2052229 C34.3827568,13.3762229 34.4637568,13.5652229 34.5357568,13.7632229 L31.0437568,13.7632229 L31.0437568,14.6632229 L32.8527568,14.6632229 C32.9967568,14.9332229 33.1227568,15.2122229 33.2397568,15.5182229 L31.3857568,15.5182229 L31.3857568,21.4042229 L32.2947568,21.4042229 L32.2947568,17.7862229 L32.8167568,18.4612229 C32.9607568,18.3712229 33.1137568,18.2722229 33.2667568,18.1642229 Z M37.8207568,17.6872229 C37.3527568,17.2552229 36.7857568,16.8052229 36.1377568,16.3462229 L37.8207568,16.3462229 L37.8207568,17.6872229 Z M36.0027568,16.3462229 L35.4267568,16.9042229 C35.9487568,17.2822229 36.3897568,17.6512229 36.7587568,18.0112229 L33.4737568,18.0112229 C33.9237568,17.6782229 34.3197568,17.3002229 34.6707568,16.8862229 L34.0677568,16.3462229 L36.0027568,16.3462229 Z M33.9687568,16.3462229 C33.5187568,16.8322229 32.9607568,17.2642229 32.2947568,17.6332229 L32.2947568,16.3462229 L33.9687568,16.3462229 Z M35.9487568,19.6132229 L34.1757568,19.6132229 L34.1757568,18.8392229 L35.9487568,18.8392229 L35.9487568,19.6132229 Z M34.2027568,15.5182229 C34.0947568,15.2122229 33.9867568,14.9332229 33.8787568,14.6632229 L36.1827568,14.6632229 C36.0567568,14.9512229 35.9307568,15.2392229 35.7867568,15.5182229 L34.2027568,15.5182229 Z M41.6457568,16.4632229 L43.6257568,16.4632229 L43.6257568,17.7592229 L41.6457568,17.7592229 L41.6457568,16.4632229 Z M41.6007568,18.6232229 L43.6257568,18.6232229 L43.6257568,21.1612229 L44.5797568,21.1612229 L44.5797568,18.6232229 L46.7217568,18.6232229 L46.7217568,19.8742229 C46.7217568,20.2162229 46.5777568,20.3962229 46.3077568,20.3962229 C46.0017568,20.3962229 45.6777568,20.3782229 45.3177568,20.3422229 L45.5697568,21.2602229 L46.6047568,21.2602229 C47.3157568,21.2602229 47.6757568,20.9092229 47.6757568,20.2162229 L47.6757568,13.4212229 L40.7007568,13.4212229 L40.7007568,17.8762229 C40.6827568,19.0462229 40.4127568,20.0092229 39.8817568,20.7652229 L40.6017568,21.4132229 C41.1507568,20.6752229 41.4837568,19.7392229 41.6007568,18.6232229 Z M46.7217568,17.7592229 L44.5797568,17.7592229 L44.5797568,16.4632229 L46.7217568,16.4632229 L46.7217568,17.7592229 Z M46.7217568,15.5992229 L44.5797568,15.5992229 L44.5797568,14.3392229 L46.7217568,14.3392229 L46.7217568,15.5992229 Z M43.6257568,14.3392229 L43.6257568,15.5992229 L41.6457568,15.5992229 L41.6457568,14.3392229 L43.6257568,14.3392229 Z M49.2957568,14.1952229 L49.2957568,15.1132229 L50.8887568,15.1132229 C50.4927568,15.8152229 50.0787568,16.3912229 49.6287568,16.8502229 L49.8447568,17.7142229 L52.6977568,17.7142229 L52.6977568,18.7762229 L49.1787568,18.7762229 L49.1787568,19.6942229 L52.6977568,19.6942229 L52.6977568,21.5302229 L53.6607568,21.5302229 L53.6607568,19.6942229 L56.9637568,19.6942229 L56.9637568,18.7762229 L53.6607568,18.7762229 L53.6607568,17.7142229 L56.3427568,17.7142229 L56.3427568,16.8502229 L53.6607568,16.8502229 L53.6607568,15.6892229 L52.6977568,15.6892229 L52.6977568,16.8502229 L50.8167568,16.8502229 C51.2127568,16.3462229 51.5817568,15.7612229 51.9327568,15.1132229 L56.8287568,15.1132229 L56.8287568,14.1952229 L52.3827568,14.1952229 C52.5087568,13.8982229 52.6347568,13.5922229 52.7607568,13.2772229 L51.8247568,13.0612229 C51.6717568,13.4572229 51.5187568,13.8352229 51.3567568,14.1952229 L49.2957568,14.1952229 Z M57.9357568,13.0882229 L58.7907568,13.0882229 C59.2137568,13.6732229 59.5467568,14.2852229 59.7807568,14.9332229 C60.0507568,15.6892229 60.1947568,16.4722229 60.1947568,17.3002229 C60.1947568,18.1102229 60.0507568,18.9022229 59.7807568,19.6582229 C59.5467568,20.2882229 59.2137568,20.9002229 58.7907568,21.4942229 L57.9357568,21.4942229 C58.3047568,20.8642229 58.5927568,20.2432229 58.7997568,19.6312229 C59.0607568,18.8482229 59.1957568,18.0652229 59.1957568,17.2912229 C59.1957568,16.5082229 59.0607568,15.7252229 58.7997568,14.9512229 C58.5927568,14.3302229 58.3047568,13.7092229 57.9357568,13.0882229 Z" id="区域初审(商用车)" fill="#FFFFFF" fill-rule="nonzero"></path>
                </g>
            </g>
        </g>
    </g>
</svg>