<?xml version="1.0" encoding="UTF-8"?>
<svg width="49px" height="49px" viewBox="0 0 49 49" version="1.1" xmlns="http://www.w3.org/2000/svg" xmlns:xlink="http://www.w3.org/1999/xlink">
    <!-- Generator: Sketch 59.1 (86144) - https://sketch.com -->
    <title>分组备份 53@2x</title>
    <desc>Created with Sketch.</desc>
    <g id="页面-1" stroke="none" stroke-width="1" fill="none" fill-rule="evenodd">
        <g id="状态角标" transform="translate(-3671.000000, -820.000000)">
            <g id="分组备份-53" transform="translate(3670.000000, 807.000000)">
                <g id="编组-3" transform="translate(31.353553, 31.646447) rotate(45.000000) translate(-31.353553, -31.646447) translate(-3.646447, 23.146447)">
                    <polygon id="矩形" fill="#FF9600" points="16.0683698 1.06157248 53.835396 0.965338282 69.375151 16.5050933 0.362011246 16.7679311"></polygon>
                    <path d="M25.5817864,7.293 L24.6097864,7.293 C24.8437864,6.915 25.0777864,6.474 25.3117864,5.952 L24.4297864,5.619 C24.2137864,6.213 23.9617864,6.771 23.6557864,7.293 L20.1637864,7.293 L20.1637864,9.147 L20.6407864,9.147 L20.6407864,9.651 L21.0187864,9.651 C21.2437864,10.254 21.6127864,10.794 22.1257864,11.28 C21.4777864,11.586 20.7037864,11.838 19.8037864,12.036 L20.2987864,12.927 C21.3247864,12.657 22.2067864,12.315 22.9267864,11.901 C23.5477864,12.315 24.3217864,12.657 25.2487864,12.945 L25.8067864,12.09 C25.0147864,11.874 24.3397864,11.613 23.7727864,11.307 C24.3487864,10.821 24.7717864,10.245 25.0327864,9.597 L25.0327864,9.147 L25.5817864,9.147 L25.5817864,7.293 Z M21.9457864,9.651 L24.0427864,9.651 C23.7817864,10.074 23.4217864,10.452 22.9537864,10.785 C22.5217864,10.452 22.1797864,10.074 21.9457864,9.651 Z M21.0547864,8.805 L21.0547864,8.193 L24.6727864,8.193 L24.6727864,8.805 L21.0547864,8.805 Z M22.8547864,5.754 L22.0627864,5.97 C22.2967864,6.375 22.5037864,6.789 22.6657864,7.203 L23.4217864,6.915 C23.2957864,6.564 23.1067864,6.177 22.8547864,5.754 Z M21.2797864,5.79 L20.4877864,6.006 C20.7217864,6.402 20.9197864,6.798 21.0817864,7.212 L21.8377864,6.924 C21.7117864,6.582 21.5227864,6.204 21.2797864,5.79 Z M25.0777864,4.602 C23.7277864,4.791 22.0717864,4.89 20.1277864,4.89 L20.4067864,5.727 C22.5397864,5.727 24.2407864,5.601 25.5187864,5.367 L25.0777864,4.602 Z M18.5257864,12.837 C19.0567864,12.837 19.3267864,12.567 19.3267864,12.036 L19.3267864,9.525 C19.5517864,9.417 19.7767864,9.3 20.0017864,9.183 L20.0017864,8.238 C19.7767864,8.364 19.5517864,8.49 19.3267864,8.598 L19.3267864,7.068 L20.0647864,7.068 L20.0647864,6.159 L19.3267864,6.159 L19.3267864,4.62 L18.3997864,4.62 L18.3997864,6.159 L17.4997864,6.159 L17.4997864,7.068 L18.3997864,7.068 L18.3997864,8.985 C18.0757864,9.093 17.7427864,9.192 17.4097864,9.273 L17.6437864,10.2 L18.3997864,9.93 L18.3997864,11.802 C18.3997864,11.928 18.3277864,12 18.2017864,12 C17.9947864,12 17.7787864,11.982 17.5537864,11.946 L17.7607864,12.837 L18.5257864,12.837 Z M27.3277864,8.31 L27.3277864,12.954 L28.2547864,12.954 L28.2547864,6.852 C28.5787864,6.24 28.8397864,5.601 29.0377864,4.926 L28.1557864,4.512 C27.7597864,5.898 27.1477864,7.104 26.3377864,8.13 L26.6527864,9.138 C26.8867864,8.868 27.1117864,8.598 27.3277864,8.31 Z M28.8307864,5.655 L28.8307864,6.537 L34.7617864,6.537 L34.7617864,5.655 L32.3407864,5.655 C32.2507864,5.331 32.1157864,4.971 31.9357864,4.584 L31.0357864,4.827 C31.1707864,5.097 31.2967864,5.367 31.4137864,5.655 L28.8307864,5.655 Z M29.6407864,7.014 L29.6407864,7.851 L34.0057864,7.851 L34.0057864,7.014 L29.6407864,7.014 Z M29.6407864,8.283 L29.6407864,9.129 L34.0057864,9.129 L34.0057864,8.283 L29.6407864,8.283 Z M34.2037864,9.624 L29.4337864,9.624 L29.4337864,12.936 L30.3517864,12.936 L30.3517864,12.486 L33.2947864,12.486 L33.2947864,12.936 L34.2037864,12.936 L34.2037864,9.624 Z M30.3517864,11.595 L30.3517864,10.497 L33.2947864,10.497 L33.2947864,11.595 L30.3517864,11.595 Z M38.5507864,4.944 L38.5507864,5.826 L40.5577864,5.826 L40.5577864,8.949 L38.2897864,8.949 L38.2897864,9.84 L40.5577864,9.84 L40.5577864,12.945 L41.4757864,12.945 L41.4757864,9.84 L43.7797864,9.84 L43.7797864,8.949 L41.4757864,8.949 L41.4757864,5.826 L43.5007864,5.826 L43.5007864,4.944 L38.5507864,4.944 Z M42.5197864,6.132 C42.3307864,7.014 42.1147864,7.752 41.8627864,8.328 L42.6457864,8.607 C42.9247864,7.959 43.1587864,7.212 43.3387864,6.348 L42.5197864,6.132 Z M39.4327864,6.159 L38.6317864,6.429 C38.8927864,7.131 39.1087864,7.86 39.2707864,8.625 L40.0717864,8.427 C39.8827864,7.572 39.6667864,6.816 39.4327864,6.159 Z M36.6877864,4.665 L36.0217864,5.313 C36.6607864,5.781 37.1557864,6.222 37.4977864,6.636 L38.1457864,5.979 C37.7407864,5.547 37.2547864,5.106 36.6877864,4.665 Z M35.4097864,7.266 L35.4097864,8.166 L36.6427864,8.166 L36.6427864,11.361 C36.6427864,11.55 36.5617864,11.712 36.4087864,11.847 L36.7597864,12.693 C37.3897864,12.27 37.9747864,11.793 38.5327864,11.262 L38.2717864,10.272 C38.0197864,10.524 37.7767864,10.758 37.5517864,10.965 L37.5517864,7.266 L35.4097864,7.266 Z M46.4167864,9.588 L48.1447864,9.588 L48.1447864,10.344 L46.4167864,10.344 L46.4167864,9.588 Z M48.1447864,11.199 L48.1447864,12.972 L49.0807864,12.972 L49.0807864,11.199 L50.8357864,11.199 L50.8357864,11.64 L51.7537864,11.64 L51.7537864,7.131 L49.0807864,7.131 L49.0807864,6.393 L48.1447864,6.393 L48.1447864,7.131 L45.4987864,7.131 L45.4987864,11.667 L46.4167864,11.667 L46.4167864,11.199 L48.1447864,11.199 Z M49.0807864,10.344 L49.0807864,9.588 L50.8357864,9.588 L50.8357864,10.344 L49.0807864,10.344 Z M50.8357864,8.769 L49.0807864,8.769 L49.0807864,7.995 L50.8357864,7.995 L50.8357864,8.769 Z M48.1447864,7.995 L48.1447864,8.769 L46.4167864,8.769 L46.4167864,7.995 L48.1447864,7.995 Z M52.4377864,5.196 L52.4377864,6.942 L51.5197864,6.942 L51.5197864,6.051 L45.6157864,6.051 L45.6157864,6.987 L44.6977864,6.987 L44.6977864,5.196 L48.0367864,5.196 C47.9647864,5.016 47.8837864,4.845 47.8027864,4.683 L48.8017864,4.521 C48.8737864,4.719 48.9457864,4.944 49.0177864,5.196 L52.4377864,5.196 Z" id="授信评审" fill="#FFFFFF" fill-rule="nonzero"></path>
                </g>
            </g>
        </g>
    </g>
</svg>