<?xml version="1.0" encoding="UTF-8"?>
<svg width="216px" height="185px" viewBox="0 0 216 185" version="1.1" xmlns="http://www.w3.org/2000/svg" xmlns:xlink="http://www.w3.org/1999/xlink">
    <!-- Generator: Sketch 55.2 (78181) - https://sketchapp.com -->
    <title>空记录页面_slice</title>
    <desc>Created with Sketch.</desc>
    <defs>
        <linearGradient x1="50%" y1="2.79244088%" x2="50%" y2="100%" id="linearGradient-1">
            <stop stop-color="#E6F0FF" offset="0%"></stop>
            <stop stop-color="#AAC9FF" offset="100%"></stop>
        </linearGradient>
        <filter x="-3.8%" y="-46.2%" width="107.5%" height="192.3%" filterUnits="objectBoundingBox" id="filter-2">
            <feGaussianBlur stdDeviation="2" in="SourceGraphic"></feGaussianBlur>
        </filter>
        <linearGradient x1="50%" y1="0%" x2="50%" y2="100%" id="linearGradient-3">
            <stop stop-color="#BED7FF" offset="0%"></stop>
            <stop stop-color="#89B6FF" offset="100%"></stop>
        </linearGradient>
        <linearGradient x1="50%" y1="0%" x2="50%" y2="100%" id="linearGradient-4">
            <stop stop-color="#BED7FF" offset="0%"></stop>
            <stop stop-color="#89B6FF" offset="100%"></stop>
        </linearGradient>
        <linearGradient x1="32.1557234%" y1="0%" x2="50%" y2="100%" id="linearGradient-5">
            <stop stop-color="#3E6FC1" offset="0%"></stop>
            <stop stop-color="#81A1DA" offset="100%"></stop>
        </linearGradient>
        <linearGradient x1="6.20246624%" y1="0%" x2="93.7975338%" y2="100%" id="linearGradient-6">
            <stop stop-color="#CEDEFF" offset="0%"></stop>
            <stop stop-color="#9DC1FF" offset="100%"></stop>
        </linearGradient>
        <linearGradient x1="57.6623765%" y1="0%" x2="50%" y2="196.16776%" id="linearGradient-7">
            <stop stop-color="#3E6FC1" offset="0%"></stop>
            <stop stop-color="#81A1DA" offset="100%"></stop>
        </linearGradient>
        <linearGradient x1="31.5773858%" y1="41.8903283%" x2="74.9839154%" y2="56.3627529%" id="linearGradient-8">
            <stop stop-color="#B9D1FD" offset="0%"></stop>
            <stop stop-color="#E5ECFF" offset="100%"></stop>
        </linearGradient>
        <linearGradient x1="15.34426%" y1="0%" x2="82.9657068%" y2="100%" id="linearGradient-9">
            <stop stop-color="#99C0FF" offset="0%"></stop>
            <stop stop-color="#6E9DEA" offset="100%"></stop>
        </linearGradient>
        <path d="M41.1051103,0.848408012 L41.1051107,0.848408109 C38.9991103,0.280522128 36.8314955,1.52741396 36.2636277,3.63341432 C36.2621881,3.63875289 36.2607598,3.64409446 36.2593427,3.64943901 L36.2593427,3.64943898 C36.077127,4.41300524 36.1308446,5.21388811 36.4133991,5.9462847 L29.9850175,12.094538 L29.9850176,12.094538 C29.1508448,11.8509873 28.2595192,11.8903828 27.4500864,12.2065792 L20.349491,5.4981055 L20.3494912,5.49810513 C21.196806,3.47978939 20.2475211,1.15675027 18.2292072,0.309442718 C16.4456534,-0.439314322 14.3821452,0.208754905 13.3469136,1.84278017 L13.3469137,1.84278005 C12.8250899,2.72958248 12.6741127,3.78641907 12.9267574,4.78386294 L5.15391206,13.1869517 L5.153912,13.1869517 C4.83805852,13.1475739 4.5191852,13.1381947 4.20156266,13.1589399 L4.20156251,13.1589399 C1.88111483,13.15894 -7.10542736e-14,15.0400366 -7.10542736e-14,17.3605024 C-7.10542736e-14,19.6809501 1.88109671,21.5620649 4.20156251,21.5620649 C6.5220102,21.5620649 8.40312503,19.6809682 8.40312503,17.3605024 L8.4031251,17.3605081 C8.39827339,16.9412072 8.32737882,16.5252878 8.19304951,16.1280558 L15.9238883,7.72496699 L15.9238882,7.72496698 C16.1647362,7.76757084 16.4079314,7.79563188 16.652153,7.80899787 L24.9432122,15.5818432 L24.9432121,15.5818442 C24.7736886,17.7487124 26.3928554,19.6427445 28.55972,19.8122567 C30.7265882,19.9817802 32.6206203,18.3626135 32.7901326,16.1957489 C32.813466,15.8974983 32.8027154,15.5975595 32.7580892,15.3017448 L39.6486155,8.63527772 L39.6486153,8.6352777 C41.820206,8.8400211 43.746593,7.24557443 43.9513342,5.07398366 C44.131907,3.15875616 42.9062914,1.39201226 41.0491119,0.890434314 L41.1051103,0.848408012 Z M3.50144297,24.363059 L3.50144287,24.363059 C2.34121721,24.3628272 1.40048039,25.3031872 1.40024839,26.4634128 C1.40024839,26.4775591 1.40038566,26.4917051 1.40066858,26.5058485 L1.40066858,34.9089373 L1.40066858,34.9089376 C1.40066876,36.0691633 2.34121694,37.0097116 3.50144259,37.0097116 C4.66166825,37.0097116 5.6022166,36.0691633 5.6022166,34.9089376 L5.6022166,26.5058488 L5.60221657,26.5058502 C5.62542185,25.3458565 4.70387412,24.3866861 3.54388043,24.3634792 C3.52973698,24.3631962 3.51559102,24.363059 3.50144474,24.363059 L3.50144297,24.363059 Z M28.7107093,24.363059 L28.7107093,24.363059 C27.5504836,24.3628272 26.6097468,25.3031872 26.6095148,26.4634128 C26.6095148,26.4775591 26.6096521,26.4917051 26.609935,26.5058485 L26.609935,34.9089373 L26.609935,34.9089376 C26.6099352,36.0691633 27.5504833,37.0097116 28.710709,37.0097116 C29.8709346,37.0097116 30.811483,36.0691633 30.811483,34.9089376 L30.811483,26.5058488 L30.811483,26.5058502 C30.8346882,25.3458565 29.9131405,24.3866861 28.7531468,24.3634792 C28.7390034,24.3631962 28.7248574,24.363059 28.7107111,24.363059 L28.7107093,24.363059 Z M16.106058,13.1589405 L16.106058,13.1589405 C14.9458323,13.1589405 14.0050955,14.0990688 14.0048635,15.2592945 C14.0048635,15.2734407 14.0050008,15.2875867 14.0052837,15.3017301 L14.0052837,34.9089373 L14.0052837,34.9089376 C14.0052839,36.0691633 14.945832,37.0097116 16.1060577,37.0097116 C17.2662833,37.0097116 18.2068317,36.0691633 18.2068317,34.9089376 L18.2068317,15.3017305 L18.2068317,15.3017318 C18.2300369,14.1417381 17.3084892,13.1825677 16.1484955,13.1593608 C16.134352,13.1589405 16.1202061,13.1589405 16.1060598,13.1589405 L16.106058,13.1589405 Z M41.3153244,11.7584258 L41.3153243,11.7584258 C40.1550987,11.7584258 39.2143618,12.698554 39.2141298,13.8587797 C39.2141298,13.8729259 39.2142671,13.8870719 39.21455,13.9012153 L39.21455,34.9089554 L39.21455,34.9089558 C39.2145502,36.0691814 40.1550984,37.0097298 41.315324,37.0097298 C42.4755497,37.0097298 43.4160981,36.0691814 43.4160981,34.9089558 L43.4160981,13.9012157 L43.416098,13.901217 C43.4393033,12.7412233 42.5177556,11.7820529 41.3577619,11.758846 C41.3436184,11.7584258 41.3294725,11.7584258 41.3153262,11.7584258 L41.3153244,11.7584258 Z" id="path-10"></path>
        <filter x="-22.7%" y="-21.6%" width="145.5%" height="154.0%" filterUnits="objectBoundingBox" id="filter-11">
            <feOffset dx="0" dy="2" in="SourceAlpha" result="shadowOffsetOuter1"></feOffset>
            <feGaussianBlur stdDeviation="3" in="shadowOffsetOuter1" result="shadowBlurOuter1"></feGaussianBlur>
            <feColorMatrix values="0 0 0 0 0.643137255   0 0 0 0 0.780392157   0 0 0 0 1  0 0 0 1 0" type="matrix" in="shadowBlurOuter1"></feColorMatrix>
        </filter>
    </defs>
    <g id="页面1" stroke="none" stroke-width="1" fill="none" fill-rule="evenodd">
        <g id="画板" transform="translate(-79.000000, -162.000000)">
            <g id="空记录页面" transform="translate(79.000000, 162.000000)">
                <path d="M41,62 L178.170305,62 C173.451575,116.618466 170.608277,143.9277 169.640409,143.9277 C168.672542,143.9277 128.313082,143.9277 48.5620281,143.9277 L41,62 Z" id="路径-13" fill="url(#linearGradient-1)" opacity="0.800000012"></path>
                <ellipse id="椭圆形" fill="#F3F4F9" filter="url(#filter-2)" cx="110.5" cy="178.5" rx="79.5" ry="6.5"></ellipse>
                <polygon id="路径-15" fill="url(#linearGradient-3)" opacity="0.800000012" points="160.240338 31.9977173 58.6106608 31 41 61.5782726 177.672803 61.5782726"></polygon>
                <path d="M92.6941109,61.5782726 L41.8184468,61.5782726 L41.3976774,60.8877655 L58.6106608,31 L99.8786003,31.405135 L92.6941109,61.5782726 Z" id="形状结合" fill="url(#linearGradient-4)" style="mix-blend-mode: multiply;" opacity="0.229999989"></path>
                <path d="M160,61.5782726 L160,33.4494175 L160,31.9953579 L160.240338,31.9977173 L177.672803,61.5782726 L160,61.5782726 Z" id="形状结合" fill="url(#linearGradient-5)"></path>
                <polygon id="路径-16" fill="url(#linearGradient-6)" opacity="0.800000012" points="161 32 191.269821 54.830812 206.713183 80.8429222 178.432465 61.5805553"></polygon>
                <path d="" id="路径-18" stroke="#979797"></path>
                <path d="M58.8644775,61.5782726 L41,61.5782726 L58.6106608,31 L58.8644775,61.5782726 Z" id="形状结合" fill="url(#linearGradient-7)"></path>
                <polygon id="路径-14" fill="url(#linearGradient-8)" opacity="0.900000036" points="41 61.207067 88.0890021 46.160802 105.227488 15 58.6106608 30.6287944"></polygon>
                <circle id="椭圆形" fill="url(#linearGradient-9)" opacity="0.400000006" cx="208" cy="58" r="8"></circle>
                <circle id="椭圆形备份-2" fill="url(#linearGradient-9)" opacity="0.200000003" cx="34" cy="22" r="7"></circle>
                <circle id="椭圆形备份-6" fill="url(#linearGradient-9)" opacity="0.5" cx="180" cy="21" r="2"></circle>
                <g id="编组-7" opacity="0.5" transform="translate(0.000000, 78.000000)" stroke="#9BBDF6" stroke-linecap="round" stroke-width="4.032">
                    <path d="M0,9.5 L19,9.5" id="路径-12"></path>
                    <path d="M0,9.5 L19,9.5" id="路径-12" transform="translate(9.500000, 9.500000) rotate(-270.000000) translate(-9.500000, -9.500000) "></path>
                </g>
                <polygon id="星形备份" fill="url(#linearGradient-9)" opacity="0.800000012" points="142 9.92689732 138.473288 10.854102 138.265299 7.21347801 136.293661 4.14589803 139.691828 2.82307333 142 0 144.308172 2.82307333 147.706339 4.14589803 145.734701 7.21347801 145.526712 10.854102"></polygon>
                <g id="数据" transform="translate(88.000000, 84.000000)" fill-rule="nonzero">
                    <g id="形状">
                        <use fill="black" fill-opacity="1" filter="url(#filter-11)" xlink:href="#path-10"></use>
                        <use fill="#FFFFFF" xlink:href="#path-10"></use>
                    </g>
                </g>
                <g id="编组-7" opacity="0.800000012" transform="translate(192.000000, 103.000000)" stroke="#9BBDF6" stroke-linecap="round" stroke-width="1.6128">
                    <path d="M0,4 L8,4" id="路径-12"></path>
                    <path d="M0,4 L8,4" id="路径-12" transform="translate(4.000000, 4.000000) rotate(-270.000000) translate(-4.000000, -4.000000) "></path>
                </g>
            </g>
        </g>
    </g>
</svg>