<?xml version="1.0" encoding="UTF-8"?>
<svg width="19px" height="13px" viewBox="0 0 19 13" version="1.1" xmlns="http://www.w3.org/2000/svg" xmlns:xlink="http://www.w3.org/1999/xlink">
    <!-- Generator: Sketch 55.2 (78181) - https://sketchapp.com -->
    <title>添加担保人_slice</title>
    <desc>Created with Sketch.</desc>
    <g id="页面1" stroke="none" stroke-width="1" fill="none" fill-rule="evenodd">
        <g id="画板" transform="translate(-233.000000, -275.000000)" fill="#FFAD3A" fill-rule="nonzero">
            <g id="添加担保人" transform="translate(233.000000, 275.000000)">
                <path d="M11.4573045,9.63717885 C10.4179738,9.37481327 9.24224169,9.30624891 8.41999786,8.24489886 C8.41999786,8.24489886 8.00023047,7.78141447 8.9492695,6.64967325 C9.9050323,5.5133619 9.98379806,3.71428036 9.74269653,2.32199417 C9.50735793,0.929714175 8.15680331,1.687539e-14 6.7543889,1.687539e-14 C5.35388532,1.687539e-14 4.00333722,0.929710037 3.76510303,2.32199417 C3.52304065,3.71335972 3.60372811,5.51334742 4.55853006,6.64967325 C5.50852994,7.78141447 5.0897234,8.24489886 5.0897234,8.24489886 C4.27132297,9.29527977 3.10615582,9.37206995 2.07354678,9.63169221 C1.66434657,9.73590751 1.27243513,9.86754732 0.934316047,10.1015756 C-0.263509127,10.9261561 0.0323456105,12.8047794 0.0323456105,12.8047794 L13.4783278,12.8047794 C13.4783278,12.8047794 13.7722608,10.9261623 12.5773182,10.1025066 C12.2468838,9.87213607 11.8616983,9.74415175 11.4601805,9.63628096 L11.4572988,9.63628096 L11.4573045,9.63717885 Z" id="路径"></path>
                <path d="M17.9603436,10.1033983 C17.6231854,9.87302775 17.2466432,9.74687231 16.8432059,9.64357165 C15.7942689,9.37571943 13.3861254,7.78598046 14.3274754,6.64785057 C15.2832382,5.51976711 15.3639257,3.7151886 15.1209025,2.31835089 C14.8932485,0.937042106 13.5340484,0.000928921798 12.1345078,0.000928921798 C11.5149424,0.000928921798 10.89634,0.193818602 10.385318,0.538460175 C10.7349629,1.00011569 10.9645386,1.53856138 11.0711625,2.11540113 C11.2315768,3.06065251 11.4601914,5.35338667 10.263327,7.09487712 L10.263327,7.09761963 L10.2633271,7.09761958 C10.15244,7.21138437 10.0898096,7.3602355 10.0875436,7.5153944 C10.0875436,7.88928853 10.5313257,8.11143325 10.8483104,8.18273679 L11.20564,8.26135523 C11.4073586,8.31254875 11.6090772,8.3500296 11.7973473,8.40030889 C12.2958804,8.53012085 12.8472451,8.70746961 13.3707538,9.06673891 C14.945119,10.1555139 14.8922896,12.1538833 14.8384973,12.8056802 L18.8613487,12.8056802 C18.8613487,12.804766 19.1572034,10.9243198 17.9603391,10.1034074 L17.9603436,10.1033983 Z" id="路径"></path>
            </g>
        </g>
    </g>
</svg>