<?xml version="1.0" encoding="UTF-8"?>
<svg width="20px" height="20px" viewBox="0 0 20 20" version="1.1" xmlns="http://www.w3.org/2000/svg" xmlns:xlink="http://www.w3.org/1999/xlink">
    <!-- Generator: Sketch 57.1 (83088) - https://sketch.com -->
    <title>违规_slice</title>
    <desc>Created with Sketch.</desc>
    <g id="页面-1" stroke="none" stroke-width="1" fill="none" fill-rule="evenodd">
        <g id="画板" transform="translate(-222.000000, -177.000000)">
            <g id="违规" transform="translate(222.000000, 177.000000)">
                <rect id="矩形" fill="#FF765C" x="0" y="0" width="20" height="20" rx="2"></rect>
                <path d="M4.01956522,3.25869565 C5.03913043,4.05 5.90652174,4.82608696 6.60652174,5.6173913 L5.81521739,6.39347826 C5.20652174,5.64782609 4.35434783,4.84130435 3.27391304,3.97391304 L4.01956522,3.25869565 Z M12.8608696,16.6956522 C12.0391304,16.6956522 11.1413043,16.6804348 10.1826087,16.6652174 C9.20869565,16.65 8.4326087,16.5586957 7.82391304,16.3913043 C7.23043478,16.2086957 6.69782609,15.8282609 6.22608696,15.2804348 C6.02826087,15.0217391 5.83043478,14.9 5.64782609,14.9 C5.2826087,14.9 4.68913043,15.6 3.85217391,17 L3.03043478,16.2543478 C3.83695652,14.976087 4.55217391,14.2 5.17608696,13.926087 L5.17608696,9.3 L3,9.3 L3,8.29565217 L6.19565217,8.29565217 L6.19565217,13.9869565 C6.3173913,14.0782609 6.43913043,14.2 6.56086957,14.3369565 C6.92608696,14.7782609 7.30652174,15.0978261 7.7326087,15.2956522 C8.18913043,15.5086957 8.87391304,15.6304348 9.75652174,15.6608696 C10.5478261,15.676087 11.5369565,15.6913043 12.7086957,15.6913043 C13.423913,15.6913043 14.1543478,15.676087 14.9,15.6608696 C15.6304348,15.6456522 16.2086957,15.6304348 16.6043478,15.6 L16.3456522,16.6956522 L12.8608696,16.6956522 Z M7.3673913,4.71956522 L10.973913,4.71956522 L10.973913,3 L12.0391304,3 L12.0391304,4.71956522 L15.7826087,4.71956522 L15.7826087,5.70869565 L12.0391304,5.70869565 L12.0391304,7.23043478 L15.3869565,7.23043478 L15.3869565,8.18913043 L12.0391304,8.18913043 L12.0391304,9.71086957 L15.95,9.71086957 C15.9195652,11.323913 15.7978261,12.373913 15.6,12.8456522 C15.3565217,13.4543478 14.7326087,13.773913 13.7282609,13.8043478 C13.5456522,13.8043478 13.3173913,13.7891304 13.073913,13.7586957 L12.7543478,12.8152174 C13.0891304,12.8456522 13.3630435,12.876087 13.6065217,12.876087 C14.2152174,12.8608696 14.5956522,12.6478261 14.7326087,12.2521739 C14.823913,11.9934783 14.8695652,11.476087 14.8847826,10.7 L12.0391304,10.7 L12.0391304,14.9304348 L10.973913,14.9304348 L10.973913,10.7 L7.24565217,10.7 L7.24565217,9.71086957 L10.973913,9.71086957 L10.973913,8.18913043 L7.96086957,8.18913043 L7.96086957,7.23043478 L10.973913,7.23043478 L10.973913,5.70869565 L7.3673913,5.70869565 L7.3673913,4.71956522 Z" id="违" fill="#FFFFFF" fill-rule="nonzero"></path>
            </g>
        </g>
    </g>
</svg>