<?xml version="1.0" encoding="UTF-8"?>
<svg width="85px" height="85px" viewBox="0 0 85 85" version="1.1" xmlns="http://www.w3.org/2000/svg" xmlns:xlink="http://www.w3.org/1999/xlink">
    <!-- Generator: Sketch 55.2 (78181) - https://sketchapp.com -->
    <title>通过_slice</title>
    <desc>Created with Sketch.</desc>
    <defs>
        <radialGradient cx="50%" cy="0%" fx="50%" fy="0%" r="142.282262%" gradientTransform="translate(0.500000,0.000000),scale(1.000000,0.813093),rotate(90.000000),translate(-0.500000,-0.000000)" id="radialGradient-1">
            <stop stop-color="#3EE899" offset="0%"></stop>
            <stop stop-color="#00C955" offset="100%"></stop>
        </radialGradient>
        <path d="M80.5866243,23.6205892 C80.9375531,24.327226 80.6491948,25.1845523 79.942558,25.5354811 C79.2359212,25.88641 78.3785949,25.5980517 78.027666,24.8914148 C75.716478,20.2375635 72.5050129,16.0776681 68.5937128,12.655082 C67.9999612,12.1355192 67.9398192,11.2329994 68.4593821,10.6392477 C68.978945,10.045496 69.8814647,9.98535411 70.4752164,10.504917 C74.6669238,14.1728737 78.1088428,18.6312821 80.5866243,23.6205892 Z" id="path-2"></path>
        <filter x="-39.6%" y="-19.3%" width="179.2%" height="177.3%" filterUnits="objectBoundingBox" id="filter-3">
            <feOffset dx="0" dy="4" in="SourceAlpha" result="shadowOffsetOuter1"></feOffset>
            <feGaussianBlur stdDeviation="1" in="shadowOffsetOuter1" result="shadowBlurOuter1"></feGaussianBlur>
            <feColorMatrix values="0 0 0 0 0   0 0 0 0 0   0 0 0 0 0  0 0 0 0.05 0" type="matrix" in="shadowBlurOuter1"></feColorMatrix>
        </filter>
    </defs>
    <g id="页面1" stroke="none" stroke-width="1" fill="none" fill-rule="evenodd">
        <g id="画板" transform="translate(-116.000000, -49.000000)">
            <g id="通过" transform="translate(116.000000, 49.000000)">
                <g id="编组-2">
                    <path d="M13.7281657,11.2197956 C9.98775203,17.944554 7.85714286,25.6877475 7.85714286,33.9285714 C7.85714286,59.7676079 28.8038206,80.7142857 54.6428571,80.7142857 C57.2745046,80.7142857 59.8554038,80.4970066 62.3685939,80.0794092 C56.4392678,83.2208099 49.67741,85 42.5,85 C19.0278981,85 -2.06057393e-13,65.9721019 -2.06057393e-13,42.5 C-2.06057393e-13,30.1258608 5.28830934,18.9868724 13.7281638,11.219799 Z" id="形状结合" fill="#EEEFFC"></path>
                    <path d="M62.7821867,5.14296595 C63.4752392,5.52001334 63.7314121,6.38750078 63.3543647,7.08055336 C62.9773173,7.77360594 62.1098298,8.02977876 61.4167773,7.65273136 C55.6602737,4.52097089 49.2020579,2.85714286 42.5,2.85714286 C20.6058546,2.85714286 2.85714286,20.6058546 2.85714286,42.5 C2.85714286,64.3941454 20.6058546,82.1428571 42.5,82.1428571 C64.3941454,82.1428571 82.1428571,64.3941454 82.1428571,42.5 C82.1428571,39.4024208 81.7878567,36.3522751 81.0916789,33.3910429 C80.911115,32.6230043 81.3873574,31.85401 82.155396,31.6734462 C82.9234346,31.4928823 83.6924289,31.9691247 83.8729927,32.7371634 C84.6194638,35.9123205 85,39.1818685 85,42.5 C85,65.9721019 65.9721019,85 42.5,85 C19.0278981,85 0,65.9721019 0,42.5 C0,19.0278981 19.0278981,0 42.5,0 C49.6820562,0 56.6092531,1.78465148 62.7821867,5.14296595 Z M80.5866243,23.6205892 C80.9375531,24.327226 80.6491948,25.1845523 79.942558,25.5354811 C79.2359212,25.88641 78.3785949,25.5980517 78.027666,24.8914148 C75.716478,20.2375635 72.5050129,16.0776681 68.5937128,12.655082 C67.9999612,12.1355192 67.9398192,11.2329994 68.4593821,10.6392477 C68.978945,10.045496 69.8814647,9.98535411 70.4752164,10.504917 C74.6669238,14.1728737 78.1088428,18.6312821 80.5866243,23.6205892 Z" id="形状" fill="#0579FF" fill-rule="nonzero"></path>
                    <g id="形状">
                        <use fill="black" fill-opacity="1" filter="url(#filter-3)" xlink:href="#path-2"></use>
                        <use fill="url(#radialGradient-1)" fill-rule="evenodd" xlink:href="#path-2"></use>
                    </g>
                </g>
                <polyline id="路径-5" stroke="#31E18A" stroke-width="3" stroke-linecap="round" stroke-linejoin="round" points="22.5 40.8625461 36.9490277 55 62.5 30"></polyline>
            </g>
        </g>
    </g>
</svg>