<?xml version="1.0" encoding="UTF-8"?>
<svg width="20px" height="21px" viewBox="0 0 20 21" version="1.1" xmlns="http://www.w3.org/2000/svg" xmlns:xlink="http://www.w3.org/1999/xlink">
    <!-- Generator: Sketch 55.2 (78181) - https://sketchapp.com -->
    <title>人物头像_slice</title>
    <desc>Created with Sketch.</desc>
    <g id="页面1" stroke="none" stroke-width="1" fill="none" fill-rule="evenodd">
        <g id="画板" transform="translate(-20.000000, -117.000000)" fill="#FFFFFF" fill-rule="nonzero">
            <g id="人物头像" transform="translate(20.000000, 117.000000)">
                <path d="M10.0397459,12.1332978 C13.4661258,12.1332978 16.2548679,9.41107301 16.2548679,6.06664891 C16.2548679,2.722266 13.466168,0 10.0397459,0 C6.61351373,0 3.82458174,2.72224541 3.82458174,6.06664891 C3.82458174,9.41107301 6.61349264,12.1332978 10.0397459,12.1332978 Z M13.8645386,13.0666606 C12.8286336,13.9221908 11.4740195,14.3888032 10.0397881,14.3888032 C8.52585101,14.3888032 7.17138874,13.8444282 6.13548585,13.0666606 C2.54983367,14.233276 0,17.033284 0,20.2221994 C0,20.4554891 0,20.7667123 0.0796308815,21 L19.9202987,21 C19.9202987,20.7667103 20,20.4554521 20,20.2221994 C19.9202987,17.0333046 17.4501663,14.2332842 13.8645563,13.0666606 L13.8645386,13.0666606 Z" id="形状"></path>
            </g>
        </g>
    </g>
</svg>