<?xml version="1.0" encoding="UTF-8"?>
<svg width="18px" height="18px" viewBox="0 0 17 17" version="1.1" xmlns="http://www.w3.org/2000/svg" xmlns:xlink="http://www.w3.org/1999/xlink">
    <!-- Generator: Sketch 55.2 (78181) - https://sketchapp.com -->
    <title>app右角标关闭_slice</title>
    <desc>Created with Sketch.</desc>
    <g id="页面1" stroke="none" stroke-width="1" fill="none" fill-rule="evenodd">
        <g id="画板" transform="translate(-88.000000, -128.000000)">
            <g id="app右角标关闭" transform="translate(88.000000, 128.000000)">
                <rect id="矩形" stroke="#FFFFFF" fill="#FF765C" x="0.5" y="0.5" width="16" height="16" rx="8"></rect>
                <g id="x" transform="translate(4.500000, 4.500000)" fill="#FFFFFF" fill-rule="nonzero">
                    <path d="M0.615388554,7.94873483 C0.446157588,7.94873483 0.333337384,7.89232446 0.220515859,7.77950386 C-0.00512587013,7.55386213 -0.00512587013,7.2154002 0.220515859,6.98975979 L6.9897545,0.220521147 C7.21539623,-0.00512058166 7.55385817,-0.00512058166 7.77949857,0.220521147 C8.0051403,0.446162876 8.0051403,0.784624808 7.77949857,1.01026522 L1.01025993,7.77950386 C0.897439327,7.89232446 0.784618198,7.94873483 0.615387232,7.94873483 L0.615388554,7.94873483 Z M7.3846272,7.94873483 C7.21539623,7.94873483 7.10257603,7.89232446 6.9897545,7.77950386 L0.220515859,1.01026522 C-0.00512587013,0.784623486 -0.00512587013,0.446161554 0.220515859,0.220521147 C0.446157588,-0.00512058166 0.78461952,-0.00512058166 1.01025993,0.220521147 L7.77949857,6.98975979 C8.0051403,7.21540152 8.0051403,7.55386345 7.77949857,7.77950386 C7.66667797,7.89232446 7.55385684,7.94873483 7.38462588,7.94873483 L7.3846272,7.94873483 Z" id="形状"></path>
                </g>
            </g>
        </g>
    </g>
</svg>