<?xml version="1.0" encoding="UTF-8"?>
<svg width="49px" height="49px" viewBox="0 0 49 49" version="1.1" xmlns="http://www.w3.org/2000/svg" xmlns:xlink="http://www.w3.org/1999/xlink">
    <!-- Generator: Sketch 59.1 (86144) - https://sketch.com -->
    <title>分组备份 40@2x</title>
    <desc>Created with Sketch.</desc>
    <g id="页面-1" stroke="none" stroke-width="1" fill="none" fill-rule="evenodd">
        <g id="状态角标" transform="translate(-2911.000000, -922.000000)">
            <g id="分组备份-40" transform="translate(2910.000000, 909.000000)">
                <g id="编组-3" transform="translate(31.353553, 31.646447) rotate(45.000000) translate(-31.353553, -31.646447) translate(-3.646447, 23.146447)">
                    <polygon id="矩形" fill="#FF9600" points="16.0683698 1.06157248 53.835396 0.965338282 69.375151 16.5050933 0.362011246 16.7679311"></polygon>
                    <path d="M21.623,8.859 L21.623,5.007 L14.756,5.007 L14.756,5.907 L20.669,5.907 L20.669,7.959 L16.07,7.959 L16.07,6.771 L15.134,6.771 L15.134,11.433 C15.134,12.243 15.512,12.648 16.286,12.648 L21.29,12.648 C21.65,12.63 21.947,12.522 22.163,12.324 C22.343,12.126 22.496,11.451 22.613,10.299 L21.695,10.011 L21.6680942,10.4071475 C21.6150118,11.0827988 21.5406154,11.4793846 21.434,11.586 C21.308,11.694 21.173,11.748 21.029,11.748 L16.556,11.748 C16.232,11.748 16.07,11.586 16.07,11.262 L16.07,8.859 L21.623,8.859 Z M25.475,4.611 L25.475,8.562 C25.457,10.29 24.827,11.541 23.603,12.324 L24.314,12.945 C25.682,12.027 26.375,10.56 26.411,8.562 L26.411,4.611 L25.475,4.611 Z M23.621,5.484 L23.621,9.912 L24.557,9.912 L24.557,5.484 L23.621,5.484 Z M26.834,5.223 L26.834,6.141 L30.353,6.141 L30.353,8.238 L27.077,8.238 L27.077,9.138 L30.353,9.138 L30.353,11.361 L26.672,11.361 L26.672,12.279 L30.353,12.279 L30.353,12.72 L31.307,12.72 L31.307,5.223 L26.834,5.223 Z M33.26,4.683 L32.612,5.295 C33.26,5.817 33.755,6.303 34.097,6.753 L34.772,6.087 C34.358,5.619 33.854,5.151 33.26,4.683 Z M38.381,12.792 L40.442,12.792 L40.667,11.865 L40.2215,11.892 C40.046,11.901 39.8435,11.91 39.614,11.919 L38.246,11.928 L38.246,11.928 L37.464656,11.924256 C37.094,11.9208 36.7538,11.9154 36.446,11.91 C35.924,11.892 35.537,11.82 35.276,11.685 C35.069,11.568 34.862,11.388 34.664,11.154 L34.574,11.064 L34.574,7.635 L32.513,7.635 L32.513,8.499 L33.701,8.499 L33.701,10.965 C33.341,11.163 32.945,11.622 32.495,12.342 L33.188,12.981 C33.638,12.171 33.944,11.775 34.115,11.775 C34.223,11.775 34.331,11.847 34.448,12 C34.709,12.306 35.015,12.513 35.375,12.621 C35.753,12.711 36.221,12.765 36.797,12.774 L38.0082031,12.7904531 C38.1351875,12.7914375 38.2595,12.792 38.381,12.792 Z M35.06,4.989 L35.06,5.907 L37.409,5.907 C36.869,7.113 35.96,8.148 34.7,9.012 L35.294,9.786 C35.996,9.264 36.608,8.688 37.121,8.058 L37.121,11.586 L38.057,11.586 L38.057,6.591 C38.165,6.375 38.264,6.141 38.354,5.907 L40.343,5.907 L40.343,4.989 L35.06,4.989 Z M38.831,6.753 L38.111,7.275 C38.849,8.202 39.443,9.048 39.875,9.813 L40.676,9.264 C40.244,8.544 39.623,7.707 38.831,6.753 Z M42.881,6.456 L42.035,6.762 C42.206,7.104 42.359,7.473 42.485,7.851 L41.414,7.851 L41.414,8.751 L45.95,8.751 L45.95,7.851 L45.032,7.851 C45.203,7.518 45.365,7.14 45.509,6.708 L44.654,6.411 C44.501,6.924 44.321,7.401 44.114,7.851 L43.376,7.851 C43.223,7.311 43.061,6.843 42.881,6.456 Z M46.283,4.89 L46.283,12.918 L47.192,12.918 L47.192,5.754 L48.434,5.754 C48.146,6.681 47.858,7.473 47.561,8.139 C48.263,8.958 48.623,9.624 48.632,10.137 L48.6196667,10.407 C48.609,10.563 48.593,10.671 48.569,10.731 C48.515,10.83 48.416,10.884 48.272,10.893 C48.029,10.893 47.732,10.866 47.381,10.83 L47.678,11.82 C48.443,11.82 48.956,11.694 49.208,11.451 C49.442,11.208 49.568,10.767 49.568,10.137 C49.559,9.615 49.226,8.949 48.56,8.139 C48.884,7.365 49.19,6.51 49.469,5.592 L49.469,4.89 L46.283,4.89 Z M41.585,5.394 L41.585,6.294 L45.869,6.294 L45.869,5.394 L44.114,5.394 C44.042,5.088 43.97,4.8 43.898,4.548 L42.935,4.71 C43.025,4.917 43.106,5.142 43.187,5.394 L41.585,5.394 Z M45.617,9.345 L41.882,9.345 L41.882,12.918 L42.8,12.918 L42.8,12.477 L44.681,12.477 L44.681,12.918 L45.617,12.918 L45.617,9.345 Z M42.8,11.586 L42.8,10.236 L44.681,10.236 L44.681,11.586 L42.8,11.586 Z M53.105,4.764 C52.736,5.448 52.349,6.015 51.944,6.483 C51.44,7.05 50.9,7.482 50.342,7.788 L50.855,8.625 C51.647,8.058 52.241,7.545 52.655,7.077 C53.078,6.609 53.501,5.997 53.915,5.259 L53.105,4.764 Z M53.348,8.994 C53.168,9.714 52.916,10.299 52.601,10.749 C52.187,11.271 51.575,11.748 50.765,12.18 L51.377,12.963 C52.295,12.441 52.988,11.847 53.456,11.19 C53.816,10.641 54.095,9.912 54.302,8.994 L56.246,8.994 L56.2267668,9.49983673 C56.1807959,10.4586122 56.0904286,11.1 55.967,11.424 C55.823,11.784 55.535,11.973 55.094,11.973 C54.626,11.973 54.122,11.955 53.591,11.937 L53.843,12.864 L55.571,12.864 C56.03,12.837 56.363,12.684 56.57,12.414 C56.786,12.126 56.93,11.631 57.02,10.911 C57.11,10.191 57.164,9.255 57.2,8.085 L51.728,8.085 L51.728,8.994 L53.348,8.994 Z M55.922,4.656 C56.408,5.997 57.317,7.059 58.649,7.833 L58.01,8.58 C56.624,7.689 55.652,6.537 55.103,5.115 L55.922,4.656 Z" id="已归还部分" fill="#FFFFFF" fill-rule="nonzero"></path>
                </g>
            </g>
        </g>
    </g>
</svg>