<?xml version="1.0" encoding="UTF-8"?>
<svg width="49px" height="49px" viewBox="0 0 49 49" version="1.1" xmlns="http://www.w3.org/2000/svg" xmlns:xlink="http://www.w3.org/1999/xlink">
    <!-- Generator: Sketch 59.1 (86144) - https://sketch.com -->
    <title>分组备份 36@2x</title>
    <desc>Created with Sketch.</desc>
    <g id="页面-1" stroke="none" stroke-width="1" fill="none" fill-rule="evenodd">
        <g id="状态角标" transform="translate(-2909.000000, -715.000000)">
            <g id="分组备份-36" transform="translate(2908.000000, 697.000000)">
                <g id="编组-3备份" transform="translate(33.828427, 34.171573) rotate(45.000000) translate(-33.828427, -34.171573) translate(-1.171573, 22.171573)">
                    <polygon id="矩形" fill="#64DC64" points="22.9791847 1.1507576 46.7340187 0.863961031 69.3614357 23.491378 0.362011246 23.7679311"></polygon>
                    <path d="M28.1007568,5.65322292 L28.1007568,6.87722292 L27.4527568,6.87722292 C27.6597568,6.36422292 27.8577568,5.77922292 28.0467568,5.12222292 L29.8737568,5.12222292 L29.8737568,4.22222292 L28.2807568,4.22222292 C28.3527568,3.91622292 28.4157568,3.60122292 28.4877568,3.27722292 L27.5967568,3.14222292 C27.5247568,3.52022292 27.4437568,3.88022292 27.3717568,4.22222292 L26.3817568,4.22222292 L26.3817568,5.12222292 L27.1467568,5.12222292 C26.9487568,5.83322292 26.7327568,6.42722292 26.4987568,6.89522292 L26.6967568,7.72322292 L28.1007568,7.72322292 L28.1007568,8.82122292 C27.5607568,8.91122292 26.9937568,8.98322292 26.3907568,9.05522292 L26.5167568,9.97322292 C27.0657568,9.90122292 27.5967568,9.82922292 28.1007568,9.73922292 L28.1007568,11.4582229 L29.0097568,11.4582229 L29.0097568,9.55922292 C29.3877568,9.47822292 29.7567568,9.38822292 30.1167568,9.29822292 L30.1167568,8.41622292 C29.7657568,8.50622292 29.3967568,8.58722292 29.0097568,8.65922292 L29.0097568,7.72322292 L29.9187568,7.72322292 L29.9187568,6.87722292 L29.0097568,6.87722292 L29.0097568,5.65322292 L28.1007568,5.65322292 Z M30.1977568,4.22222292 L30.1977568,5.12222292 L31.3587568,5.12222292 L31.1877568,5.88722292 L31.1877568,5.88722292 L29.9457568,5.88722292 L29.9457568,6.77822292 L30.9627568,6.77822292 C30.8007568,7.37222292 30.6387568,7.94822292 30.4587568,8.49722292 L33.4377568,8.49722292 C33.1677568,8.89322292 32.8167568,9.28022292 32.3757568,9.67622292 C31.9797568,9.46022292 31.5747568,9.26222292 31.1607568,9.08222292 L30.6567568,9.82922292 C31.6287568,10.2432229 32.5647568,10.8102229 33.4827568,11.5212229 L34.0137568,10.7112229 C33.7347568,10.5042229 33.4377568,10.3062229 33.1317568,10.1172229 C33.7077568,9.55022292 34.1307568,8.99222292 34.4007568,8.44322292 L34.4007568,7.66922292 L31.6287568,7.66922292 C31.7187568,7.39022292 31.8087568,7.09322292 31.8987568,6.77822292 L34.7607568,6.77822292 L34.7607568,5.88722292 L32.1237568,5.88722292 L32.3037568,5.12222292 L32.3037568,5.12222292 L34.5267568,5.12222292 L34.5267568,4.22222292 L32.4837568,4.22222292 L32.5944235,3.56888959 C32.6137568,3.45822292 32.6337568,3.34622292 32.6547568,3.23222292 L31.7277568,3.14222292 L31.5387568,4.22222292 L30.1977568,4.22222292 Z M36.3177568,3.21422292 L35.6787568,3.81722292 C36.3267568,4.33922292 36.8307568,4.83422292 37.1817568,5.28422292 L37.8387568,4.63622292 C37.4247568,4.16822292 36.9117568,3.69122292 36.3177568,3.21422292 Z M41.4477568,11.3232229 L43.5087568,11.3232229 L43.7337568,10.3962229 L43.2882568,10.4232229 C43.1127568,10.4322229 42.9102568,10.4412229 42.6807568,10.4502229 L41.3127568,10.4592229 L41.3127568,10.4592229 L40.3407568,10.4535979 C40.0392568,10.4502229 39.7602568,10.4457229 39.5037568,10.4412229 C38.9817568,10.4232229 38.5857568,10.3512229 38.3247568,10.2162229 C38.1177568,10.0992229 37.9107568,9.91922292 37.7037568,9.68522292 L37.6137568,9.59522292 L37.6137568,6.16622292 L35.5077568,6.16622292 L35.5077568,7.03022292 L36.7407568,7.03022292 L36.7407568,9.49622292 C36.3627568,9.69422292 35.9487568,10.1532229 35.4987568,10.8732229 L36.1827568,11.5212229 C36.6507568,10.7112229 36.9747568,10.3062229 37.1547568,10.3062229 C37.2411568,10.3062229 37.3275568,10.3523029 37.4231728,10.4490709 L37.4967568,10.5312229 C37.7487568,10.8372229 38.0637568,11.0442229 38.4237568,11.1522229 C38.8017568,11.2422229 39.2787568,11.2962229 39.8547568,11.3052229 L41.0748193,11.321676 C41.2019443,11.3226604 41.3262568,11.3232229 41.4477568,11.3232229 Z M40.0347568,10.1982229 C40.5117568,10.1982229 40.7547568,9.93722292 40.7547568,9.43322292 L40.7547568,5.93222292 L38.4687568,5.93222292 L38.4687568,10.1532229 L39.2517568,10.1532229 L39.2517568,8.83022292 L39.9807568,8.83022292 L39.9807568,9.26222292 C39.9807568,9.41522292 39.9087568,9.49622292 39.7827568,9.49622292 L39.4047568,9.46022292 L39.6117568,10.1982229 L40.0347568,10.1982229 Z M39.2517568,8.18222292 L39.2517568,7.74122292 L39.9807568,7.74122292 L39.9807568,8.18222292 L39.2517568,8.18222292 Z M39.2517568,7.09322292 L39.2517568,6.68822292 L39.9807568,6.68822292 L39.9807568,7.09322292 L39.2517568,7.09322292 Z M39.2607568,5.19422292 L39.2607568,5.50922292 L42.1407568,5.50922292 L42.1407568,5.05922292 C42.4827568,5.30222292 42.8427568,5.52722292 43.2207568,5.74322292 L43.7157568,4.99622292 C42.8517568,4.53722292 42.0147568,3.92522292 41.2047568,3.15122292 L40.5117568,3.15122292 C39.7287568,3.85322292 38.8467568,4.47422292 37.8567568,4.99622292 L38.3427568,5.74322292 C38.6487568,5.57222292 38.9547568,5.39222292 39.2607568,5.19422292 Z M41.7087568,4.73522292 L39.9357568,4.73522292 C40.2507568,4.50122292 40.5567568,4.25822292 40.8627568,3.99722292 C41.1237568,4.24922292 41.4027568,4.50122292 41.7087568,4.73522292 Z M41.1777568,6.13022292 L41.1777568,8.95622292 L41.9157568,8.95622292 L41.9157568,6.13022292 L41.1777568,6.13022292 Z M42.3747568,10.1712229 C42.8967568,10.1712229 43.1577568,9.90122292 43.1577568,9.37022292 L43.1577568,5.86022292 L42.3567568,5.86022292 L42.3567568,9.17222292 C42.3567568,9.35222292 42.2667568,9.45122292 42.0957568,9.45122292 C41.8617568,9.45122292 41.6277568,9.43322292 41.3757568,9.39722292 L41.5557568,10.1712229 L42.3747568,10.1712229 Z M18.0567568,13.1872229 L18.0567568,14.0872229 L17.5977568,14.0872229 L17.5977568,14.9602229 L18.0567568,14.9602229 L18.0567568,18.4792229 L17.4987568,18.4792229 L17.4987568,19.3522229 L21.8277568,19.3522229 L21.8277568,18.4792229 L21.3417568,18.4792229 L21.3417568,14.9602229 L21.7827568,14.9602229 L21.7827568,14.0872229 L21.3417568,14.0872229 L21.3417568,13.2052229 L20.4417568,13.2052229 L20.4417568,14.0872229 L18.9567568,14.0872229 L18.9567568,13.1872229 L18.0567568,13.1872229 Z M18.9567568,18.4792229 L18.9567568,17.8582229 L20.4417568,17.8582229 L20.4417568,18.4792229 L18.9567568,18.4792229 Z M20.4417568,14.9602229 L20.4417568,15.5902229 L18.9567568,15.5902229 L18.9567568,14.9602229 L20.4417568,14.9602229 Z M18.9567568,17.0392229 L18.9567568,16.4092229 L20.4417568,16.4092229 L20.4417568,17.0392229 L18.9567568,17.0392229 Z M20.5677568,19.4062229 L19.8387568,19.8652229 C20.2167568,20.4052229 20.5227568,20.8912229 20.7387568,21.3232229 L21.2787568,20.9452229 L21.9357568,21.5392229 C22.5207568,20.7562229 22.8807568,19.7752229 23.0157568,18.5962229 L24.4557568,18.5962229 L24.4557568,20.1442229 C24.4557568,20.3872229 24.3657568,20.5132229 24.1857568,20.5132229 C23.9157568,20.5132229 23.6187568,20.4952229 23.2947568,20.4682229 L23.5467568,21.3862229 L24.4827568,21.3862229 C25.0947568,21.3862229 25.4007568,21.0802229 25.4007568,20.4862229 L25.4007568,13.4122229 L22.1337568,13.4122229 L22.1337568,17.7502229 C22.1247568,18.8662229 21.8817568,19.8112229 21.4047568,20.5942229 C21.1977568,20.2522229 20.9187568,19.8562229 20.5677568,19.4062229 Z M18.5337568,19.4332229 C18.2187568,20.0092229 17.8407568,20.5042229 17.4087568,20.9182229 L18.1647568,21.4582229 C18.5877568,20.9902229 18.9567568,20.4412229 19.2807568,19.7932229 L18.5337568,19.4332229 Z M23.0697568,16.4452229 L24.4557568,16.4452229 L24.4557568,17.7412229 L23.0697568,17.7412229 L23.0697568,16.4452229 Z M24.4557568,15.5902229 L23.0697568,15.5902229 L23.0697568,14.2942229 L24.4557568,14.2942229 L24.4557568,15.5902229 Z M33.6897568,17.3902229 L33.6897568,13.5382229 L26.8227568,13.5382229 L26.8227568,14.4382229 L32.7357568,14.4382229 L32.7357568,16.4902229 L28.1367568,16.4902229 L28.1367568,15.3022229 L27.2007568,15.3022229 L27.2007568,19.9642229 C27.2007568,20.7742229 27.5787568,21.1792229 28.3527568,21.1792229 L33.3567568,21.1792229 C33.7167568,21.1612229 34.0137568,21.0532229 34.2297568,20.8552229 C34.4097568,20.6572229 34.5627568,19.9822229 34.6797568,18.8302229 L33.7617568,18.5422229 L33.734851,18.9383704 C33.6817687,19.6140217 33.6073722,20.0106075 33.5007568,20.1172229 C33.3747568,20.2252229 33.2397568,20.2792229 33.0957568,20.2792229 L28.6227568,20.2792229 C28.2987568,20.2792229 28.1367568,20.1172229 28.1367568,19.7932229 L28.1367568,17.3902229 L33.6897568,17.3902229 Z M37.5417568,13.1422229 L37.5417568,17.0932229 C37.5237568,18.8212229 36.8937568,20.0722229 35.6697568,20.8552229 L36.3807568,21.4762229 C37.7487568,20.5582229 38.4417568,19.0912229 38.4777568,17.0932229 L38.4777568,13.1422229 L37.5417568,13.1422229 Z M35.6877568,14.0152229 L35.6877568,18.4432229 L36.6237568,18.4432229 L36.6237568,14.0152229 L35.6877568,14.0152229 Z M38.9007568,13.7542229 L38.9007568,14.6722229 L42.4197568,14.6722229 L42.4197568,16.7692229 L39.1437568,16.7692229 L39.1437568,17.6692229 L42.4197568,17.6692229 L42.4197568,19.8922229 L38.7387568,19.8922229 L38.7387568,20.8102229 L42.4197568,20.8102229 L42.4197568,21.2512229 L43.3737568,21.2512229 L43.3737568,13.7542229 L38.9007568,13.7542229 Z M45.3267568,13.2142229 L44.6787568,13.8262229 C45.3267568,14.3482229 45.8217568,14.8342229 46.1637568,15.2842229 L46.8387568,14.6182229 C46.4247568,14.1502229 45.9207568,13.6822229 45.3267568,13.2142229 Z M50.4477568,21.3232229 L52.5087568,21.3232229 L52.7337568,20.3962229 L52.2882568,20.4232229 C52.1127568,20.4322229 51.9102568,20.4412229 51.6807568,20.4502229 L50.3127568,20.4592229 L50.3127568,20.4592229 L49.5314128,20.4554789 C49.1607568,20.4520229 48.8205568,20.4466229 48.5127568,20.4412229 C47.9907568,20.4232229 47.6037568,20.3512229 47.3427568,20.2162229 C47.1357568,20.0992229 46.9287568,19.9192229 46.7307568,19.6852229 L46.6407568,19.5952229 L46.6407568,16.1662229 L44.5797568,16.1662229 L44.5797568,17.0302229 L45.7677568,17.0302229 L45.7677568,19.4962229 C45.4077568,19.6942229 45.0117568,20.1532229 44.5617568,20.8732229 L45.2547568,21.5122229 C45.7047568,20.7022229 46.0107568,20.3062229 46.1817568,20.3062229 C46.2897568,20.3062229 46.3977568,20.3782229 46.5147568,20.5312229 C46.7757568,20.8372229 47.0817568,21.0442229 47.4417568,21.1522229 C47.8197568,21.2422229 48.2877568,21.2962229 48.8637568,21.3052229 L50.07496,21.321676 C50.2019443,21.3226604 50.3262568,21.3232229 50.4477568,21.3232229 Z M47.1267568,13.5202229 L47.1267568,14.4382229 L49.4757568,14.4382229 C48.9357568,15.6442229 48.0267568,16.6792229 46.7667568,17.5432229 L47.3607568,18.3172229 C48.0627568,17.7952229 48.6747568,17.2192229 49.1877568,16.5892229 L49.1877568,20.1172229 L50.1237568,20.1172229 L50.1237568,15.1222229 C50.2317568,14.9062229 50.3307568,14.6722229 50.4207568,14.4382229 L52.4097568,14.4382229 L52.4097568,13.5202229 L47.1267568,13.5202229 Z M50.8977568,15.2842229 C51.6897568,16.2382229 52.3107568,17.0752229 52.7427568,17.7952229 L51.9417568,18.3442229 C51.5097568,17.5792229 50.9157568,16.7332229 50.1777568,15.8062229 L50.8977568,15.2842229 Z" id="转逾期已归还" fill="#FFFFFF" fill-rule="nonzero"></path>
                </g>
            </g>
        </g>
    </g>
</svg>