<?xml version="1.0" encoding="UTF-8"?>
<svg width="49px" height="49px" viewBox="0 0 49 49" version="1.1" xmlns="http://www.w3.org/2000/svg" xmlns:xlink="http://www.w3.org/1999/xlink">
    <!-- Generator: Sketch 59.1 (86144) - https://sketch.com -->
    <title>分组备份 41@2x</title>
    <desc>Created with Sketch.</desc>
    <g id="页面-1" stroke="none" stroke-width="1" fill="none" fill-rule="evenodd">
        <g id="状态角标" transform="translate(-2911.000000, -1026.000000)">
            <g id="分组备份-41" transform="translate(2910.000000, 1013.000000)">
                <g id="编组-3" transform="translate(31.353553, 31.646447) rotate(45.000000) translate(-31.353553, -31.646447) translate(-3.646447, 23.146447)">
                    <polygon id="矩形" fill="#4D94FF" points="16.0683698 1.06157248 53.835396 0.965338282 69.375151 16.5050933 0.362011246 16.7679311"></polygon>
                    <path d="M22.534,7.122 L22.534,8.346 L21.886,8.346 C22.093,7.833 22.291,7.248 22.48,6.591 L24.307,6.591 L24.307,5.691 L22.714,5.691 L22.921,4.746 L22.921,4.746 L22.03,4.611 C21.958,4.989 21.877,5.349 21.805,5.691 L20.815,5.691 L20.815,6.591 L21.58,6.591 C21.382,7.302 21.166,7.896 20.932,8.364 L21.13,9.192 L22.534,9.192 L22.534,10.29 C21.994,10.38 21.427,10.452 20.824,10.524 L20.95,11.442 C21.499,11.37 22.03,11.298 22.534,11.208 L22.534,12.927 L23.443,12.927 L23.443,11.028 C23.821,10.947 24.19,10.857 24.55,10.767 L24.55,9.885 C24.199,9.975 23.83,10.056 23.443,10.128 L23.443,9.192 L24.352,9.192 L24.352,8.346 L23.443,8.346 L23.443,7.122 L22.534,7.122 Z M24.631,5.691 L24.631,6.591 L25.792,6.591 L25.621,7.356 L25.621,7.356 L24.379,7.356 L24.379,8.247 L25.396,8.247 C25.234,8.841 25.072,9.417 24.892,9.966 L27.871,9.966 C27.601,10.362 27.25,10.749 26.809,11.145 C26.413,10.929 26.008,10.731 25.594,10.551 L25.09,11.298 C26.062,11.712 26.998,12.279 27.916,12.99 L28.447,12.18 C28.168,11.973 27.871,11.775 27.565,11.586 C28.141,11.019 28.564,10.461 28.834,9.912 L28.834,9.138 L26.062,9.138 C26.152,8.859 26.242,8.562 26.332,8.247 L29.194,8.247 L29.194,7.356 L26.557,7.356 C26.611,7.113 26.674,6.861 26.737,6.591 L28.96,6.591 L28.96,5.691 L26.917,5.691 L27.0276667,5.03766667 C27.047,4.927 27.067,4.815 27.088,4.701 L26.161,4.611 L25.972,5.691 L24.631,5.691 Z M32.484,4.953 L32.484,8.22 L38.298,8.22 L38.298,4.953 L32.484,4.953 Z M37.371,7.329 L33.411,7.329 L33.411,5.853 L37.371,5.853 L37.371,7.329 Z M31.467,9.102 L31.467,9.984 L34.113,9.984 C33.483,10.767 32.538,11.424 31.278,11.946 L31.827,12.819 C33.231,12.099 34.257,11.181 34.923,10.083 L34.923,12.963 L35.877,12.963 L35.877,10.083 C36.489,11.082 37.488,11.991 38.874,12.81 L39.531,11.973 C38.226,11.388 37.272,10.722 36.66,9.984 L39.333,9.984 L39.333,9.102 L35.877,9.102 L35.877,8.4 L34.923,8.4 L34.923,9.102 L31.467,9.102 Z M43.982,5.664 L43.982,6.546 L44.711,6.546 L44.711,7.401 L45.62,7.401 L45.62,6.546 L46.475,6.546 L46.475,7.401 L47.393,7.401 L47.393,6.546 L48.23,6.546 L48.23,7.401 L49.139,7.401 L49.139,6.546 L49.949,6.546 L49.949,5.664 L49.139,5.664 L49.139,4.638 L48.23,4.638 L48.23,5.664 L47.393,5.664 L47.393,4.629 L46.475,4.629 L46.475,5.664 L45.62,5.664 L45.62,4.638 L44.711,4.638 L44.711,5.664 L43.982,5.664 Z M49.76,7.68 L44.126,7.68 L44.126,9.354 L44.567,9.354 L44.567,12.261 L45.485,12.261 L45.485,10.173 L46.484,10.173 L46.484,12.945 L47.402,12.945 L47.402,10.173 L48.455,10.173 L48.455,11.226 C48.455,11.334 48.383,11.397 48.248,11.397 L47.627,11.352 L47.87,12.243 L48.563,12.243 C49.094,12.243 49.364,11.964 49.364,11.424 L49.364,9.354 L49.76,9.354 L49.76,7.68 Z M45.026,9.327 L45.026,8.526 L46.484,8.526 L46.484,9.327 L45.026,9.327 Z M47.402,8.526 L48.869,8.526 L48.869,9.327 L47.402,9.327 L47.402,8.526 Z M43.019,9.372 C42.686,10.416 42.29,11.433 41.831,12.432 L42.695,12.819 C43.127,11.847 43.505,10.803 43.847,9.696 L43.019,9.372 Z M42.587,4.674 L41.912,5.322 C42.488,5.754 42.938,6.168 43.253,6.546 L43.919,5.88 C43.55,5.475 43.109,5.07 42.587,4.674 Z M42.371,6.825 C42.929,7.257 43.406,7.698 43.784,8.13 L43.118,8.796 C42.785,8.391 42.317,7.95 41.705,7.473 L42.371,6.825 Z" id="转呆滞" fill="#FFFFFF" fill-rule="nonzero"></path>
                </g>
            </g>
        </g>
    </g>
</svg>