<?xml version="1.0" encoding="UTF-8"?>
<svg width="49px" height="49px" viewBox="0 0 49 49" version="1.1" xmlns="http://www.w3.org/2000/svg" xmlns:xlink="http://www.w3.org/1999/xlink">
    <!-- Generator: Sketch 59.1 (86144) - https://sketch.com -->
    <title>分组备份 37@2x</title>
    <desc>Created with Sketch.</desc>
    <g id="页面-1" stroke="none" stroke-width="1" fill="none" fill-rule="evenodd">
        <g id="状态角标" transform="translate(-2911.000000, -610.000000)">
            <g id="分组备份-37" transform="translate(2910.000000, 597.000000)">
                <g id="编组-3" transform="translate(31.353553, 31.646447) rotate(45.000000) translate(-31.353553, -31.646447) translate(-3.646447, 23.146447)">
                    <polygon id="矩形" fill="#4D94FF" points="16.0683698 1.06157248 53.835396 0.965338282 69.375151 16.5050933 0.362011246 16.7679311"></polygon>
                    <path d="M22.534,7.122 L22.534,8.346 L21.886,8.346 C22.093,7.833 22.291,7.248 22.48,6.591 L24.307,6.591 L24.307,5.691 L22.714,5.691 L22.921,4.746 L22.921,4.746 L22.03,4.611 C21.958,4.989 21.877,5.349 21.805,5.691 L20.815,5.691 L20.815,6.591 L21.58,6.591 C21.382,7.302 21.166,7.896 20.932,8.364 L21.13,9.192 L22.534,9.192 L22.534,10.29 C21.994,10.38 21.427,10.452 20.824,10.524 L20.95,11.442 C21.499,11.37 22.03,11.298 22.534,11.208 L22.534,12.927 L23.443,12.927 L23.443,11.028 C23.821,10.947 24.19,10.857 24.55,10.767 L24.55,9.885 C24.199,9.975 23.83,10.056 23.443,10.128 L23.443,9.192 L24.352,9.192 L24.352,8.346 L23.443,8.346 L23.443,7.122 L22.534,7.122 Z M24.631,5.691 L24.631,6.591 L25.792,6.591 L25.621,7.356 L25.621,7.356 L24.379,7.356 L24.379,8.247 L25.396,8.247 C25.234,8.841 25.072,9.417 24.892,9.966 L27.871,9.966 C27.601,10.362 27.25,10.749 26.809,11.145 C26.413,10.929 26.008,10.731 25.594,10.551 L25.09,11.298 C26.062,11.712 26.998,12.279 27.916,12.99 L28.447,12.18 C28.168,11.973 27.871,11.775 27.565,11.586 C28.141,11.019 28.564,10.461 28.834,9.912 L28.834,9.138 L26.062,9.138 C26.152,8.859 26.242,8.562 26.332,8.247 L29.194,8.247 L29.194,7.356 L26.557,7.356 C26.611,7.113 26.674,6.861 26.737,6.591 L28.96,6.591 L28.96,5.691 L26.917,5.691 L27.0276667,5.03766667 C27.047,4.927 27.067,4.815 27.088,4.701 L26.161,4.611 L25.972,5.691 L24.631,5.691 Z M32.151,4.683 L31.512,5.286 C32.16,5.808 32.664,6.303 33.015,6.753 L33.672,6.105 C33.258,5.637 32.745,5.16 32.151,4.683 Z M37.281,12.792 L39.342,12.792 L39.567,11.865 L39.1215,11.892 C38.946,11.901 38.7435,11.91 38.514,11.919 L37.146,11.928 L37.146,11.928 L36.174,11.922375 C35.8725,11.919 35.5935,11.9145 35.337,11.91 C34.815,11.892 34.419,11.82 34.158,11.685 C33.951,11.568 33.744,11.388 33.537,11.154 L33.447,11.064 L33.447,7.635 L31.341,7.635 L31.341,8.499 L32.574,8.499 L32.574,10.965 C32.196,11.163 31.782,11.622 31.332,12.342 L32.016,12.99 L32.2077551,12.6676531 C32.5736327,12.072551 32.8337143,11.775 32.988,11.775 C33.0744,11.775 33.1608,11.82108 33.256416,11.917848 L33.33,12 C33.582,12.306 33.897,12.513 34.257,12.621 C34.635,12.711 35.112,12.765 35.688,12.774 L36.9080625,12.7904531 C37.0351875,12.7914375 37.1595,12.792 37.281,12.792 Z M35.868,11.667 C36.345,11.667 36.588,11.406 36.588,10.902 L36.588,7.401 L34.302,7.401 L34.302,11.622 L35.085,11.622 L35.085,10.299 L35.814,10.299 L35.814,10.731 C35.814,10.884 35.742,10.965 35.616,10.965 L35.238,10.929 L35.445,11.667 L35.868,11.667 Z M35.085,9.651 L35.085,9.21 L35.814,9.21 L35.814,9.651 L35.085,9.651 Z M35.085,8.562 L35.085,8.157 L35.814,8.157 L35.814,8.562 L35.085,8.562 Z M35.094,6.663 L35.094,6.978 L37.974,6.978 L37.974,6.528 C38.316,6.771 38.676,6.996 39.054,7.212 L39.549,6.465 C38.685,6.006 37.848,5.394 37.038,4.62 L36.345,4.62 C35.562,5.322 34.68,5.943 33.69,6.465 L34.176,7.212 C34.482,7.041 34.788,6.861 35.094,6.663 Z M37.542,6.204 L35.769,6.204 C36.084,5.97 36.39,5.727 36.696,5.466 C36.957,5.718 37.236,5.97 37.542,6.204 Z M37.011,7.599 L37.011,10.425 L37.749,10.425 L37.749,7.599 L37.011,7.599 Z M38.208,11.64 C38.73,11.64 38.991,11.37 38.991,10.839 L38.991,7.329 L38.19,7.329 L38.19,10.641 C38.19,10.821 38.1,10.92 37.929,10.92 C37.695,10.92 37.461,10.902 37.209,10.866 L37.389,11.64 L38.208,11.64 Z M42.29,4.656 L42.29,5.556 L41.831,5.556 L41.831,6.429 L42.29,6.429 L42.29,9.948 L41.732,9.948 L41.732,10.821 L46.061,10.821 L46.061,9.948 L45.575,9.948 L45.575,6.429 L46.016,6.429 L46.016,5.556 L45.575,5.556 L45.575,4.674 L44.675,4.674 L44.675,5.556 L43.19,5.556 L43.19,4.656 L42.29,4.656 Z M43.19,9.948 L43.19,9.327 L44.675,9.327 L44.675,9.948 L43.19,9.948 Z M44.675,6.429 L44.675,7.059 L43.19,7.059 L43.19,6.429 L44.675,6.429 Z M43.19,8.508 L43.19,7.878 L44.675,7.878 L44.675,8.508 L43.19,8.508 Z M44.801,10.875 L44.072,11.334 C44.45,11.874 44.756,12.36 44.972,12.792 L45.512,12.414 L46.169,13.008 C46.754,12.225 47.114,11.244 47.249,10.065 L48.689,10.065 L48.689,11.613 C48.689,11.856 48.599,11.982 48.419,11.982 C48.149,11.982 47.852,11.964 47.528,11.937 L47.78,12.855 L48.716,12.855 C49.328,12.855 49.634,12.549 49.634,11.955 L49.634,4.881 L46.367,4.881 L46.367,9.219 C46.358,10.335 46.115,11.28 45.638,12.063 C45.431,11.721 45.152,11.325 44.801,10.875 Z M42.767,10.902 C42.452,11.478 42.074,11.973 41.642,12.387 L42.398,12.927 C42.821,12.459 43.19,11.91 43.514,11.262 L42.767,10.902 Z M47.303,7.914 L48.689,7.914 L48.689,9.21 L47.303,9.21 L47.303,7.914 Z M48.689,7.059 L47.303,7.059 L47.303,5.763 L48.689,5.763 L48.689,7.059 Z" id="转逾期" fill="#FFFFFF" fill-rule="nonzero"></path>
                </g>
            </g>
        </g>
    </g>
</svg>