<?xml version="1.0" encoding="UTF-8"?>
<svg width="49px" height="49px" viewBox="0 0 49 49" version="1.1" xmlns="http://www.w3.org/2000/svg" xmlns:xlink="http://www.w3.org/1999/xlink">
    <!-- Generator: Sketch 59.1 (86144) - https://sketch.com -->
    <title>分组备份 38@2x</title>
    <desc>Created with Sketch.</desc>
    <g id="页面-1" stroke="none" stroke-width="1" fill="none" fill-rule="evenodd">
        <g id="状态角标" transform="translate(-2909.000000, -820.000000)">
            <g id="分组备份-38" transform="translate(2908.000000, 802.000000)">
                <g id="编组-3备份" transform="translate(33.828427, 34.171573) rotate(45.000000) translate(-33.828427, -34.171573) translate(-1.171573, 22.171573)">
                    <polygon id="矩形" fill="#FF9600" points="22.9791847 1.1507576 46.7340187 0.863961031 69.3614357 23.491378 0.362011246 23.7679311"></polygon>
                    <path d="M23.6007568,5.65322292 L23.6007568,6.87722292 L22.9527568,6.87722292 C23.1597568,6.36422292 23.3577568,5.77922292 23.5467568,5.12222292 L25.3737568,5.12222292 L25.3737568,4.22222292 L23.7807568,4.22222292 C23.8527568,3.91622292 23.9157568,3.60122292 23.9877568,3.27722292 L23.0967568,3.14222292 C23.0247568,3.52022292 22.9437568,3.88022292 22.8717568,4.22222292 L21.8817568,4.22222292 L21.8817568,5.12222292 L22.6467568,5.12222292 C22.4487568,5.83322292 22.2327568,6.42722292 21.9987568,6.89522292 L22.1967568,7.72322292 L23.6007568,7.72322292 L23.6007568,8.82122292 C23.0607568,8.91122292 22.4937568,8.98322292 21.8907568,9.05522292 L22.0167568,9.97322292 C22.5657568,9.90122292 23.0967568,9.82922292 23.6007568,9.73922292 L23.6007568,11.4582229 L24.5097568,11.4582229 L24.5097568,9.55922292 C24.8877568,9.47822292 25.2567568,9.38822292 25.6167568,9.29822292 L25.6167568,8.41622292 C25.2657568,8.50622292 24.8967568,8.58722292 24.5097568,8.65922292 L24.5097568,7.72322292 L25.4187568,7.72322292 L25.4187568,6.87722292 L24.5097568,6.87722292 L24.5097568,5.65322292 L23.6007568,5.65322292 Z M25.6977568,4.22222292 L25.6977568,5.12222292 L26.8587568,5.12222292 L26.6877568,5.88722292 L26.6877568,5.88722292 L25.4457568,5.88722292 L25.4457568,6.77822292 L26.4627568,6.77822292 C26.3007568,7.37222292 26.1387568,7.94822292 25.9587568,8.49722292 L28.9377568,8.49722292 C28.6677568,8.89322292 28.3167568,9.28022292 27.8757568,9.67622292 C27.4797568,9.46022292 27.0747568,9.26222292 26.6607568,9.08222292 L26.1567568,9.82922292 C27.1287568,10.2432229 28.0647568,10.8102229 28.9827568,11.5212229 L29.5137568,10.7112229 C29.2347568,10.5042229 28.9377568,10.3062229 28.6317568,10.1172229 C29.2077568,9.55022292 29.6307568,8.99222292 29.9007568,8.44322292 L29.9007568,7.66922292 L27.1287568,7.66922292 C27.2187568,7.39022292 27.3087568,7.09322292 27.3987568,6.77822292 L30.2607568,6.77822292 L30.2607568,5.88722292 L27.6237568,5.88722292 L27.8037568,5.12222292 L27.8037568,5.12222292 L30.0267568,5.12222292 L30.0267568,4.22222292 L27.9837568,4.22222292 L28.0944235,3.56888959 C28.1137568,3.45822292 28.1337568,3.34622292 28.1547568,3.23222292 L27.2277568,3.14222292 L27.0387568,4.22222292 L25.6977568,4.22222292 Z M31.8177568,3.21422292 L31.1787568,3.81722292 C31.8267568,4.33922292 32.3307568,4.83422292 32.6817568,5.28422292 L33.3387568,4.63622292 C32.9247568,4.16822292 32.4117568,3.69122292 31.8177568,3.21422292 Z M36.9477568,11.3232229 L39.0087568,11.3232229 L39.2337568,10.3962229 L38.7882568,10.4232229 C38.6127568,10.4322229 38.4102568,10.4412229 38.1807568,10.4502229 L36.8127568,10.4592229 L36.8127568,10.4592229 L35.8407568,10.4535979 C35.5392568,10.4502229 35.2602568,10.4457229 35.0037568,10.4412229 C34.4817568,10.4232229 34.0857568,10.3512229 33.8247568,10.2162229 C33.6177568,10.0992229 33.4107568,9.91922292 33.2037568,9.68522292 L33.1137568,9.59522292 L33.1137568,6.16622292 L31.0077568,6.16622292 L31.0077568,7.03022292 L32.2407568,7.03022292 L32.2407568,9.49622292 C31.8627568,9.69422292 31.4487568,10.1532229 30.9987568,10.8732229 L31.6827568,11.5212229 C32.1507568,10.7112229 32.4747568,10.3062229 32.6547568,10.3062229 C32.7411568,10.3062229 32.8275568,10.3523029 32.9231728,10.4490709 L32.9967568,10.5312229 C33.2487568,10.8372229 33.5637568,11.0442229 33.9237568,11.1522229 C34.3017568,11.2422229 34.7787568,11.2962229 35.3547568,11.3052229 L36.5748193,11.321676 C36.7019443,11.3226604 36.8262568,11.3232229 36.9477568,11.3232229 Z M35.5347568,10.1982229 C36.0117568,10.1982229 36.2547568,9.93722292 36.2547568,9.43322292 L36.2547568,5.93222292 L33.9687568,5.93222292 L33.9687568,10.1532229 L34.7517568,10.1532229 L34.7517568,8.83022292 L35.4807568,8.83022292 L35.4807568,9.26222292 C35.4807568,9.41522292 35.4087568,9.49622292 35.2827568,9.49622292 L34.9047568,9.46022292 L35.1117568,10.1982229 L35.5347568,10.1982229 Z M34.7517568,8.18222292 L34.7517568,7.74122292 L35.4807568,7.74122292 L35.4807568,8.18222292 L34.7517568,8.18222292 Z M34.7517568,7.09322292 L34.7517568,6.68822292 L35.4807568,6.68822292 L35.4807568,7.09322292 L34.7517568,7.09322292 Z M34.7607568,5.19422292 L34.7607568,5.50922292 L37.6407568,5.50922292 L37.6407568,5.05922292 C37.9827568,5.30222292 38.3427568,5.52722292 38.7207568,5.74322292 L39.2157568,4.99622292 C38.3517568,4.53722292 37.5147568,3.92522292 36.7047568,3.15122292 L36.0117568,3.15122292 C35.2287568,3.85322292 34.3467568,4.47422292 33.3567568,4.99622292 L33.8427568,5.74322292 C34.1487568,5.57222292 34.4547568,5.39222292 34.7607568,5.19422292 Z M37.2087568,4.73522292 L35.4357568,4.73522292 C35.7507568,4.50122292 36.0567568,4.25822292 36.3627568,3.99722292 C36.6237568,4.24922292 36.9027568,4.50122292 37.2087568,4.73522292 Z M36.6777568,6.13022292 L36.6777568,8.95622292 L37.4157568,8.95622292 L37.4157568,6.13022292 L36.6777568,6.13022292 Z M37.8747568,10.1712229 C38.3967568,10.1712229 38.6577568,9.90122292 38.6577568,9.37022292 L38.6577568,5.86022292 L37.8567568,5.86022292 L37.8567568,9.17222292 C37.8567568,9.35222292 37.7667568,9.45122292 37.5957568,9.45122292 C37.3617568,9.45122292 37.1277568,9.43322292 36.8757568,9.39722292 L37.0557568,10.1712229 L37.8747568,10.1712229 Z M40.5567568,3.18722292 L40.5567568,4.08722292 L40.0977568,4.08722292 L40.0977568,4.96022292 L40.5567568,4.96022292 L40.5567568,8.47922292 L39.9987568,8.47922292 L39.9987568,9.35222292 L44.3277568,9.35222292 L44.3277568,8.47922292 L43.8417568,8.47922292 L43.8417568,4.96022292 L44.2827568,4.96022292 L44.2827568,4.08722292 L43.8417568,4.08722292 L43.8417568,3.20522292 L42.9417568,3.20522292 L42.9417568,4.08722292 L41.4567568,4.08722292 L41.4567568,3.18722292 L40.5567568,3.18722292 Z M41.4567568,8.47922292 L41.4567568,7.85822292 L42.9417568,7.85822292 L42.9417568,8.47922292 L41.4567568,8.47922292 Z M42.9417568,4.96022292 L42.9417568,5.59022292 L41.4567568,5.59022292 L41.4567568,4.96022292 L42.9417568,4.96022292 Z M41.4567568,7.03922292 L41.4567568,6.40922292 L42.9417568,6.40922292 L42.9417568,7.03922292 L41.4567568,7.03922292 Z M43.0677568,9.40622292 L42.3387568,9.86522292 C42.7167568,10.4052229 43.0227568,10.8912229 43.2387568,11.3232229 L43.7787568,10.9452229 L44.4357568,11.5392229 C45.0207568,10.7562229 45.3807568,9.77522292 45.5157568,8.59622292 L46.9557568,8.59622292 L46.9557568,10.1442229 C46.9557568,10.3872229 46.8657568,10.5132229 46.6857568,10.5132229 C46.4157568,10.5132229 46.1187568,10.4952229 45.7947568,10.4682229 L46.0467568,11.3862229 L46.9827568,11.3862229 C47.5947568,11.3862229 47.9007568,11.0802229 47.9007568,10.4862229 L47.9007568,3.41222292 L44.6337568,3.41222292 L44.6337568,7.75022292 C44.6247568,8.86622292 44.3817568,9.81122292 43.9047568,10.5942229 C43.6977568,10.2522229 43.4187568,9.85622292 43.0677568,9.40622292 Z M41.0337568,9.43322292 C40.7187568,10.0092229 40.3407568,10.5042229 39.9087568,10.9182229 L40.6647568,11.4582229 C41.0877568,10.9902229 41.4567568,10.4412229 41.7807568,9.79322292 L41.0337568,9.43322292 Z M45.5697568,6.44522292 L46.9557568,6.44522292 L46.9557568,7.74122292 L45.5697568,7.74122292 L45.5697568,6.44522292 Z M46.9557568,5.59022292 L45.5697568,5.59022292 L45.5697568,4.29422292 L46.9557568,4.29422292 L46.9557568,5.59022292 Z M20.1897568,17.3902229 L20.1897568,13.5382229 L13.3227568,13.5382229 L13.3227568,14.4382229 L19.2357568,14.4382229 L19.2357568,16.4902229 L14.6367568,16.4902229 L14.6367568,15.3022229 L13.7007568,15.3022229 L13.7007568,19.9642229 C13.7007568,20.7742229 14.0787568,21.1792229 14.8527568,21.1792229 L19.8567568,21.1792229 C20.2167568,21.1612229 20.5137568,21.0532229 20.7297568,20.8552229 C20.9097568,20.6572229 21.0627568,19.9822229 21.1797568,18.8302229 L20.2617568,18.5422229 L20.234851,18.9383704 C20.1817687,19.6140217 20.1073722,20.0106075 20.0007568,20.1172229 C19.8747568,20.2252229 19.7397568,20.2792229 19.5957568,20.2792229 L15.1227568,20.2792229 C14.7987568,20.2792229 14.6367568,20.1172229 14.6367568,19.7932229 L14.6367568,17.3902229 L20.1897568,17.3902229 Z M24.0417568,13.1422229 L24.0417568,17.0932229 C24.0237568,18.8212229 23.3937568,20.0722229 22.1697568,20.8552229 L22.8807568,21.4762229 C24.2487568,20.5582229 24.9417568,19.0912229 24.9777568,17.0932229 L24.9777568,13.1422229 L24.0417568,13.1422229 Z M22.1877568,14.0152229 L22.1877568,18.4432229 L23.1237568,18.4432229 L23.1237568,14.0152229 L22.1877568,14.0152229 Z M25.4007568,13.7542229 L25.4007568,14.6722229 L28.9197568,14.6722229 L28.9197568,16.7692229 L25.6437568,16.7692229 L25.6437568,17.6692229 L28.9197568,17.6692229 L28.9197568,19.8922229 L25.2387568,19.8922229 L25.2387568,20.8102229 L28.9197568,20.8102229 L28.9197568,21.2512229 L29.8737568,21.2512229 L29.8737568,13.7542229 L25.4007568,13.7542229 Z M31.8267568,13.2142229 L31.1787568,13.8262229 C31.8267568,14.3482229 32.3217568,14.8342229 32.6637568,15.2842229 L33.3387568,14.6182229 C32.9247568,14.1502229 32.4207568,13.6822229 31.8267568,13.2142229 Z M36.9477568,21.3232229 L39.0087568,21.3232229 L39.2337568,20.3962229 L38.7882568,20.4232229 C38.6127568,20.4322229 38.4102568,20.4412229 38.1807568,20.4502229 L36.8127568,20.4592229 L36.8127568,20.4592229 L36.0314128,20.4554789 C35.6607568,20.4520229 35.3205568,20.4466229 35.0127568,20.4412229 C34.4907568,20.4232229 34.1037568,20.3512229 33.8427568,20.2162229 C33.6357568,20.0992229 33.4287568,19.9192229 33.2307568,19.6852229 L33.1407568,19.5952229 L33.1407568,16.1662229 L31.0797568,16.1662229 L31.0797568,17.0302229 L32.2677568,17.0302229 L32.2677568,19.4962229 C31.9077568,19.6942229 31.5117568,20.1532229 31.0617568,20.8732229 L31.7547568,21.5122229 C32.2047568,20.7022229 32.5107568,20.3062229 32.6817568,20.3062229 C32.7897568,20.3062229 32.8977568,20.3782229 33.0147568,20.5312229 C33.2757568,20.8372229 33.5817568,21.0442229 33.9417568,21.1522229 C34.3197568,21.2422229 34.7877568,21.2962229 35.3637568,21.3052229 L36.57496,21.321676 C36.7019443,21.3226604 36.8262568,21.3232229 36.9477568,21.3232229 Z M33.6267568,13.5202229 L33.6267568,14.4382229 L35.9757568,14.4382229 C35.4357568,15.6442229 34.5267568,16.6792229 33.2667568,17.5432229 L33.8607568,18.3172229 C34.5627568,17.7952229 35.1747568,17.2192229 35.6877568,16.5892229 L35.6877568,20.1172229 L36.6237568,20.1172229 L36.6237568,15.1222229 C36.7317568,14.9062229 36.8307568,14.6722229 36.9207568,14.4382229 L38.9097568,14.4382229 L38.9097568,13.5202229 L33.6267568,13.5202229 Z M37.3977568,15.2842229 L36.6777568,15.8062229 C37.4157568,16.7332229 38.0097568,17.5792229 38.4417568,18.3442229 L39.2427568,17.7952229 C38.8107568,17.0752229 38.1897568,16.2382229 37.3977568,15.2842229 Z M41.4477568,14.9872229 L40.6017568,15.2932229 C40.7727568,15.6352229 40.9257568,16.0042229 41.0517568,16.3822229 L39.9807568,16.3822229 L39.9807568,17.2822229 L44.5167568,17.2822229 L44.5167568,16.3822229 L43.5987568,16.3822229 C43.7697568,16.0492229 43.9317568,15.6712229 44.0757568,15.2392229 L43.2207568,14.9422229 C43.0677568,15.4552229 42.8877568,15.9322229 42.6807568,16.3822229 L41.9427568,16.3822229 C41.7897568,15.8422229 41.6277568,15.3742229 41.4477568,14.9872229 Z M44.8497568,13.4212229 L44.8497568,21.4492229 L45.7587568,21.4492229 L45.7587568,14.2852229 L47.0007568,14.2852229 C46.7127568,15.2122229 46.4247568,16.0042229 46.1277568,16.6702229 C46.8297568,17.4892229 47.1897568,18.1552229 47.1987568,18.6682229 L47.1864235,18.9382229 C47.1757568,19.0942229 47.1597568,19.2022229 47.1357568,19.2622229 C47.0817568,19.3612229 46.9827568,19.4152229 46.8387568,19.4242229 C46.5957568,19.4242229 46.2987568,19.3972229 45.9477568,19.3612229 L46.2447568,20.3512229 C47.0097568,20.3512229 47.5227568,20.2252229 47.7747568,19.9822229 C48.0087568,19.7392229 48.1347568,19.2982229 48.1347568,18.6682229 C48.1257568,18.1462229 47.7927568,17.4802229 47.1267568,16.6702229 C47.4507568,15.8962229 47.7567568,15.0412229 48.0357568,14.1232229 L48.0357568,13.4212229 L44.8497568,13.4212229 Z M40.1517568,13.9252229 L40.1517568,14.8252229 L44.4357568,14.8252229 L44.4357568,13.9252229 L42.6807568,13.9252229 C42.6087568,13.6192229 42.5367568,13.3312229 42.4647568,13.0792229 L41.5017568,13.2412229 C41.5917568,13.4482229 41.6727568,13.6732229 41.7537568,13.9252229 L40.1517568,13.9252229 Z M44.1837568,17.8762229 L40.4487568,17.8762229 L40.4487568,21.4492229 L41.3667568,21.4492229 L41.3667568,21.0082229 L43.2477568,21.0082229 L43.2477568,21.4492229 L44.1837568,21.4492229 L44.1837568,17.8762229 Z M41.3667568,20.1172229 L41.3667568,18.7672229 L43.2477568,18.7672229 L43.2477568,20.1172229 L41.3667568,20.1172229 Z M51.6717568,13.2952229 C51.3027568,13.9792229 50.9157568,14.5462229 50.5107568,15.0142229 C50.0067568,15.5812229 49.4667568,16.0132229 48.9087568,16.3192229 L49.4217568,17.1562229 C50.2137568,16.5892229 50.8077568,16.0762229 51.2217568,15.6082229 C51.6447568,15.1402229 52.0677568,14.5282229 52.4817568,13.7902229 L51.6717568,13.2952229 Z M51.9147568,17.5252229 C51.7347568,18.2452229 51.4827568,18.8302229 51.1677568,19.2802229 C50.7537568,19.8022229 50.1417568,20.2792229 49.3317568,20.7112229 L49.9437568,21.4942229 C50.8617568,20.9722229 51.5547568,20.3782229 52.0227568,19.7212229 C52.3827568,19.1722229 52.6617568,18.4432229 52.8687568,17.5252229 L54.8127568,17.5252229 C54.7767568,18.7672229 54.6777568,19.5772229 54.5337568,19.9552229 C54.3897568,20.3152229 54.1017568,20.5042229 53.6607568,20.5042229 C53.1927568,20.5042229 52.6887568,20.4862229 52.1577568,20.4682229 L52.4097568,21.3952229 L54.1377568,21.3952229 C54.5967568,21.3682229 54.9297568,21.2152229 55.1367568,20.9452229 C55.3527568,20.6572229 55.4967568,20.1622229 55.5867568,19.4422229 C55.6767568,18.7222229 55.7307568,17.7862229 55.7667568,16.6162229 L50.2947568,16.6162229 L50.2947568,17.5252229 L51.9147568,17.5252229 Z M54.4887568,13.1872229 C54.9747568,14.5282229 55.8837568,15.5902229 57.2157568,16.3642229 L56.5767568,17.1112229 C55.1907568,16.2202229 54.2187568,15.0682229 53.6697568,13.6462229 L54.4887568,13.1872229 Z" id="转逾期已归还部分" fill="#FFFFFF" fill-rule="nonzero"></path>
                </g>
            </g>
        </g>
    </g>
</svg>