<?xml version="1.0" encoding="UTF-8"?>
<svg width="49px" height="49px" viewBox="0 0 49 49" version="1.1" xmlns="http://www.w3.org/2000/svg" xmlns:xlink="http://www.w3.org/1999/xlink">
    <!-- Generator: Sketch 59.1 (86144) - https://sketch.com -->
    <title>分组备份 45@2x</title>
    <desc>Created with Sketch.</desc>
    <g id="页面-1" stroke="none" stroke-width="1" fill="none" fill-rule="evenodd">
        <g id="状态角标" transform="translate(-2911.000000, -1442.000000)">
            <g id="分组备份-45" transform="translate(2910.000000, 1429.000000)">
                <g id="编组-3" transform="translate(31.353553, 31.646447) rotate(45.000000) translate(-31.353553, -31.646447) translate(-3.646447, 23.146447)">
                    <polygon id="矩形" fill="#64DC64" points="16.0683698 1.06157248 53.835396 0.965338282 69.375151 16.5050933 0.362011246 16.7679311"></polygon>
                    <path d="M14.3317864,9.507 L14.3317864,12.945 L15.2497864,12.945 L15.2497864,9.417 C15.6277864,9.759 16.0057864,10.173 16.3837864,10.65 L16.8967864,9.84 C16.6807864,9.633 16.4557864,9.435 16.2217864,9.246 C16.4737864,9.057 16.7077864,8.814 16.9237864,8.526 L16.3927864,7.995 C16.1407864,8.337 15.8887864,8.598 15.6277864,8.787 L15.2497864,8.535 L15.2497864,8.499 C15.7267864,7.905 16.0777864,7.293 16.3117864,6.672 L16.3117864,5.907 L15.3667864,5.907 C15.2407864,5.511 15.0787864,5.07 14.8717864,4.584 L13.9627864,4.827 C14.1337864,5.178 14.2867864,5.538 14.4307864,5.907 L13.1437864,5.907 L13.1437864,6.762 L15.3757864,6.762 C14.9437864,7.662 14.1157864,8.598 12.9007864,9.552 L13.1887864,10.506 C13.6027864,10.182 13.9807864,9.849 14.3317864,9.507 Z M17.9047864,4.62 L17.9047864,12.936 L18.8317864,12.936 L18.8317864,8.535 C19.3447864,8.913 19.9747864,9.444 20.7217864,10.11 L21.2797864,9.282 C20.4517864,8.634 19.6327864,8.067 18.8317864,7.563 L18.8317864,4.62 L17.9047864,4.62 Z M29.8117864,5.34 L25.5187864,5.34 L25.5187864,12.648 L26.4277864,12.648 L26.4277864,12.099 L28.9027864,12.099 L28.9027864,12.648 L29.8117864,12.648 L29.8117864,5.34 Z M26.4277864,11.208 L26.4277864,6.222 L28.9027864,6.222 L28.9027864,11.208 L26.4277864,11.208 Z M25.1227864,8.103 C24.8167864,8.265 24.5107864,8.409 24.1867864,8.553 L24.1867864,7.068 L25.1587864,7.068 L25.1587864,6.159 L24.1867864,6.159 L24.1867864,4.647 L23.2777864,4.647 L23.2777864,6.159 L22.1077864,6.159 L22.1077864,7.068 L23.2777864,7.068 L23.2777864,8.904 C22.8547864,9.048 22.4227864,9.165 21.9817864,9.255 L22.2067864,10.155 C22.5667864,10.038 22.9267864,9.921 23.2777864,9.795 L23.2777864,11.694 C23.2777864,11.91 23.1697864,12.027 22.9537864,12.027 C22.6927864,12.027 22.4227864,12.009 22.1437864,11.973 L22.3507864,12.855 L23.2777864,12.855 C23.8807864,12.855 24.1867864,12.54 24.1867864,11.919 L24.1867864,9.435 C24.5017864,9.3 24.8167864,9.156 25.1227864,9.003 L25.1227864,8.103 Z M38.2087864,8.859 L38.2087864,5.007 L31.3417864,5.007 L31.3417864,5.907 L37.2547864,5.907 L37.2547864,7.959 L32.6557864,7.959 L32.6557864,6.771 L31.7197864,6.771 L31.7197864,11.433 C31.7197864,12.243 32.0977864,12.648 32.8717864,12.648 L37.8757864,12.648 C38.2357864,12.63 38.5327864,12.522 38.7487864,12.324 C38.9287864,12.126 39.0817864,11.451 39.1987864,10.299 L38.2807864,10.011 L38.2538807,10.4071475 C38.2007983,11.0827988 38.1264018,11.4793846 38.0197864,11.586 C37.8937864,11.694 37.7587864,11.748 37.6147864,11.748 L33.1417864,11.748 C32.8177864,11.748 32.6557864,11.586 32.6557864,11.262 L32.6557864,8.859 L38.2087864,8.859 Z M42.0607864,4.611 L42.0607864,8.562 C42.0427864,10.29 41.4127864,11.541 40.1887864,12.324 L40.8997864,12.945 C42.2677864,12.027 42.9607864,10.56 42.9967864,8.562 L42.9967864,4.611 L42.0607864,4.611 Z M40.2067864,5.484 L40.2067864,9.912 L41.1427864,9.912 L41.1427864,5.484 L40.2067864,5.484 Z M43.4197864,5.223 L43.4197864,6.141 L46.9387864,6.141 L46.9387864,8.238 L43.6627864,8.238 L43.6627864,9.138 L46.9387864,9.138 L46.9387864,11.361 L43.2577864,11.361 L43.2577864,12.279 L46.9387864,12.279 L46.9387864,12.72 L47.8927864,12.72 L47.8927864,5.223 L43.4197864,5.223 Z M49.8457864,4.683 L49.1977864,5.295 C49.8457864,5.817 50.3407864,6.303 50.6827864,6.753 L51.3577864,6.087 C50.9437864,5.619 50.4397864,5.151 49.8457864,4.683 Z M54.5939896,12.7904531 L57.0277864,12.792 L57.2527864,11.865 L56.8072864,11.892 C56.6317864,11.901 56.4292864,11.91 56.1997864,11.919 L54.8317864,11.928 L54.8317864,11.928 L54.0504424,11.924256 C53.6797864,11.9208 53.3395864,11.9154 53.0317864,11.91 C52.5097864,11.892 52.1227864,11.82 51.8617864,11.685 C51.6547864,11.568 51.4477864,11.388 51.2497864,11.154 L51.1597864,11.064 L51.1597864,7.635 L49.0987864,7.635 L49.0987864,8.499 L50.2867864,8.499 L50.2867864,10.965 C49.9267864,11.163 49.5307864,11.622 49.0807864,12.342 L49.7737864,12.981 L49.9578535,12.6591516 C50.3084599,12.0659388 50.554215,11.775 50.7007864,11.775 C50.8087864,11.775 50.9167864,11.847 51.0337864,12 C51.2947864,12.306 51.6007864,12.513 51.9607864,12.621 C52.3387864,12.711 52.8067864,12.765 53.3827864,12.774 L54.2051614,12.786375 C54.3373489,12.7880625 54.4670052,12.7894687 54.5939896,12.7904531 L54.5939896,12.7904531 Z M51.6457864,4.989 L51.6457864,5.907 L53.9947864,5.907 C53.4547864,7.113 52.5457864,8.148 51.2857864,9.012 L51.8797864,9.786 C52.5817864,9.264 53.1937864,8.688 53.7067864,8.058 L53.7067864,11.586 L54.6427864,11.586 L54.6427864,6.591 C54.7507864,6.375 54.8497864,6.141 54.9397864,5.907 L56.9287864,5.907 L56.9287864,4.989 L51.6457864,4.989 Z M55.4167864,6.753 C56.2087864,7.707 56.8297864,8.544 57.2617864,9.264 L56.4607864,9.813 C56.0287864,9.048 55.4347864,8.202 54.6967864,7.275 L55.4167864,6.753 Z" id="补扣已归还" fill="#FFFFFF" fill-rule="nonzero"></path>
                </g>
            </g>
        </g>
    </g>
</svg>