<?xml version="1.0" encoding="UTF-8"?>
<svg width="49px" height="49px" viewBox="0 0 49 49" version="1.1" xmlns="http://www.w3.org/2000/svg" xmlns:xlink="http://www.w3.org/1999/xlink">
    <!-- Generator: Sketch 59.1 (86144) - https://sketch.com -->
    <title>分组备份 42@2x</title>
    <desc>Created with Sketch.</desc>
    <g id="页面-1" stroke="none" stroke-width="1" fill="none" fill-rule="evenodd">
        <g id="状态角标" transform="translate(-2909.000000, -1234.000000)">
            <g id="分组备份-42" transform="translate(2908.000000, 1216.000000)">
                <g id="编组-3备份" transform="translate(33.828427, 34.171573) rotate(45.000000) translate(-33.828427, -34.171573) translate(-1.171573, 22.171573)">
                    <polygon id="矩形" fill="#FF9600" points="22.9791847 1.1507576 46.7340187 0.863961031 69.3614357 23.491378 0.362011246 23.7679311"></polygon>
                    <path d="M23.6007568,5.65322292 L23.6007568,6.87722292 L22.9527568,6.87722292 C23.1597568,6.36422292 23.3577568,5.77922292 23.5467568,5.12222292 L25.3737568,5.12222292 L25.3737568,4.22222292 L23.7807568,4.22222292 C23.8527568,3.91622292 23.9157568,3.60122292 23.9877568,3.27722292 L23.0967568,3.14222292 C23.0247568,3.52022292 22.9437568,3.88022292 22.8717568,4.22222292 L21.8817568,4.22222292 L21.8817568,5.12222292 L22.6467568,5.12222292 C22.4487568,5.83322292 22.2327568,6.42722292 21.9987568,6.89522292 L22.1967568,7.72322292 L23.6007568,7.72322292 L23.6007568,8.82122292 C23.0607568,8.91122292 22.4937568,8.98322292 21.8907568,9.05522292 L22.0167568,9.97322292 C22.5657568,9.90122292 23.0967568,9.82922292 23.6007568,9.73922292 L23.6007568,11.4582229 L24.5097568,11.4582229 L24.5097568,9.55922292 C24.8877568,9.47822292 25.2567568,9.38822292 25.6167568,9.29822292 L25.6167568,8.41622292 C25.2657568,8.50622292 24.8967568,8.58722292 24.5097568,8.65922292 L24.5097568,7.72322292 L25.4187568,7.72322292 L25.4187568,6.87722292 L24.5097568,6.87722292 L24.5097568,5.65322292 L23.6007568,5.65322292 Z M25.6977568,4.22222292 L25.6977568,5.12222292 L26.8587568,5.12222292 L26.6877568,5.88722292 L26.6877568,5.88722292 L25.4457568,5.88722292 L25.4457568,6.77822292 L26.4627568,6.77822292 C26.3007568,7.37222292 26.1387568,7.94822292 25.9587568,8.49722292 L28.9377568,8.49722292 C28.6677568,8.89322292 28.3167568,9.28022292 27.8757568,9.67622292 C27.4797568,9.46022292 27.0747568,9.26222292 26.6607568,9.08222292 L26.1567568,9.82922292 C27.1287568,10.2432229 28.0647568,10.8102229 28.9827568,11.5212229 L29.5137568,10.7112229 C29.2347568,10.5042229 28.9377568,10.3062229 28.6317568,10.1172229 C29.2077568,9.55022292 29.6307568,8.99222292 29.9007568,8.44322292 L29.9007568,7.66922292 L27.1287568,7.66922292 C27.2187568,7.39022292 27.3087568,7.09322292 27.3987568,6.77822292 L30.2607568,6.77822292 L30.2607568,5.88722292 L27.6237568,5.88722292 L27.8037568,5.12222292 L27.8037568,5.12222292 L30.0267568,5.12222292 L30.0267568,4.22222292 L27.9837568,4.22222292 L28.0944235,3.56888959 C28.1137568,3.45822292 28.1337568,3.34622292 28.1547568,3.23222292 L27.2277568,3.14222292 L27.0387568,4.22222292 L25.6977568,4.22222292 Z M32.1507568,3.48422292 L32.1507568,6.75122292 L37.9647568,6.75122292 L37.9647568,3.48422292 L32.1507568,3.48422292 Z M37.0377568,5.86022292 L33.0777568,5.86022292 L33.0777568,4.38422292 L37.0377568,4.38422292 L37.0377568,5.86022292 Z M31.1337568,7.63322292 L31.1337568,8.51522292 L33.7797568,8.51522292 C33.1497568,9.29822292 32.2047568,9.95522292 30.9447568,10.4772229 L31.4937568,11.3502229 C32.8977568,10.6302229 33.9237568,9.71222292 34.5897568,8.61422292 L34.5897568,11.4942229 L35.5437568,11.4942229 L35.5437568,8.61422292 C36.1557568,9.61322292 37.1547568,10.5222229 38.5407568,11.3412229 L39.1977568,10.5042229 C37.8927568,9.91922292 36.9387568,9.25322292 36.3267568,8.51522292 L38.9997568,8.51522292 L38.9997568,7.63322292 L35.5437568,7.63322292 L35.5437568,6.93122292 L34.5897568,6.93122292 L34.5897568,7.63322292 L31.1337568,7.63322292 Z M42.2487568,4.19522292 L42.2487568,5.07722292 L42.9777568,5.07722292 L42.9777568,5.93222292 L43.8867568,5.93222292 L43.8867568,5.07722292 L44.7417568,5.07722292 L44.7417568,5.93222292 L45.6597568,5.93222292 L45.6597568,5.07722292 L46.4967568,5.07722292 L46.4967568,5.93222292 L47.4057568,5.93222292 L47.4057568,5.07722292 L48.2157568,5.07722292 L48.2157568,4.19522292 L47.4057568,4.19522292 L47.4057568,3.16922292 L46.4967568,3.16922292 L46.4967568,4.19522292 L45.6597568,4.19522292 L45.6597568,3.16022292 L44.7417568,3.16022292 L44.7417568,4.19522292 L43.8867568,4.19522292 L43.8867568,3.16922292 L42.9777568,3.16922292 L42.9777568,4.19522292 L42.2487568,4.19522292 Z M48.0267568,6.21122292 L42.3927568,6.21122292 L42.3927568,7.88522292 L42.8337568,7.88522292 L42.8337568,10.7922229 L43.7517568,10.7922229 L43.7517568,8.70422292 L44.7507568,8.70422292 L44.7507568,11.4762229 L45.6687568,11.4762229 L45.6687568,8.70422292 L46.7217568,8.70422292 L46.7217568,9.75722292 C46.7217568,9.86522292 46.6497568,9.92822292 46.5147568,9.92822292 L45.8937568,9.88322292 L46.1367568,10.7742229 L46.8297568,10.7742229 C47.3607568,10.7742229 47.6307568,10.4952229 47.6307568,9.95522292 L47.6307568,7.88522292 L48.0267568,7.88522292 L48.0267568,6.21122292 Z M43.2927568,7.85822292 L43.2927568,7.05722292 L44.7507568,7.05722292 L44.7507568,7.85822292 L43.2927568,7.85822292 Z M45.6687568,7.05722292 L47.1357568,7.05722292 L47.1357568,7.85822292 L45.6687568,7.85822292 L45.6687568,7.05722292 Z M41.2857568,7.90322292 C40.9527568,8.94722292 40.5567568,9.96422292 40.0977568,10.9632229 L40.9617568,11.3502229 C41.3937568,10.3782229 41.7717568,9.33422292 42.1137568,8.22722292 L41.2857568,7.90322292 Z M40.8537568,3.20522292 L40.1787568,3.85322292 C40.7547568,4.28522292 41.2047568,4.69922292 41.5197568,5.07722292 L42.1857568,4.41122292 C41.8167568,4.00622292 41.3757568,3.60122292 40.8537568,3.20522292 Z M40.6377568,5.35622292 L39.9717568,6.00422292 C40.5837568,6.48122292 41.0517568,6.92222292 41.3847568,7.32722292 L42.0507568,6.66122292 C41.6727568,6.22922292 41.1957568,5.78822292 40.6377568,5.35622292 Z M20.1897568,17.3902229 L20.1897568,13.5382229 L13.3227568,13.5382229 L13.3227568,14.4382229 L19.2357568,14.4382229 L19.2357568,16.4902229 L14.6367568,16.4902229 L14.6367568,15.3022229 L13.7007568,15.3022229 L13.7007568,19.9642229 C13.7007568,20.7742229 14.0787568,21.1792229 14.8527568,21.1792229 L19.8567568,21.1792229 C20.2167568,21.1612229 20.5137568,21.0532229 20.7297568,20.8552229 C20.9097568,20.6572229 21.0627568,19.9822229 21.1797568,18.8302229 L20.2617568,18.5422229 L20.234851,18.9383704 C20.1817687,19.6140217 20.1073722,20.0106075 20.0007568,20.1172229 C19.8747568,20.2252229 19.7397568,20.2792229 19.5957568,20.2792229 L15.1227568,20.2792229 C14.7987568,20.2792229 14.6367568,20.1172229 14.6367568,19.7932229 L14.6367568,17.3902229 L20.1897568,17.3902229 Z M24.0417568,13.1422229 L24.0417568,17.0932229 C24.0237568,18.8212229 23.3937568,20.0722229 22.1697568,20.8552229 L22.8807568,21.4762229 C24.2487568,20.5582229 24.9417568,19.0912229 24.9777568,17.0932229 L24.9777568,13.1422229 L24.0417568,13.1422229 Z M22.1877568,14.0152229 L22.1877568,18.4432229 L23.1237568,18.4432229 L23.1237568,14.0152229 L22.1877568,14.0152229 Z M25.4007568,13.7542229 L25.4007568,14.6722229 L28.9197568,14.6722229 L28.9197568,16.7692229 L25.6437568,16.7692229 L25.6437568,17.6692229 L28.9197568,17.6692229 L28.9197568,19.8922229 L25.2387568,19.8922229 L25.2387568,20.8102229 L28.9197568,20.8102229 L28.9197568,21.2512229 L29.8737568,21.2512229 L29.8737568,13.7542229 L25.4007568,13.7542229 Z M31.8267568,13.2142229 L31.1787568,13.8262229 C31.8267568,14.3482229 32.3217568,14.8342229 32.6637568,15.2842229 L33.3387568,14.6182229 C32.9247568,14.1502229 32.4207568,13.6822229 31.8267568,13.2142229 Z M36.9477568,21.3232229 L39.0087568,21.3232229 L39.2337568,20.3962229 L38.7882568,20.4232229 C38.6127568,20.4322229 38.4102568,20.4412229 38.1807568,20.4502229 L36.8127568,20.4592229 L36.8127568,20.4592229 L36.0314128,20.4554789 C35.6607568,20.4520229 35.3205568,20.4466229 35.0127568,20.4412229 C34.4907568,20.4232229 34.1037568,20.3512229 33.8427568,20.2162229 C33.6357568,20.0992229 33.4287568,19.9192229 33.2307568,19.6852229 L33.1407568,19.5952229 L33.1407568,16.1662229 L31.0797568,16.1662229 L31.0797568,17.0302229 L32.2677568,17.0302229 L32.2677568,19.4962229 C31.9077568,19.6942229 31.5117568,20.1532229 31.0617568,20.8732229 L31.7547568,21.5122229 C32.2047568,20.7022229 32.5107568,20.3062229 32.6817568,20.3062229 C32.7897568,20.3062229 32.8977568,20.3782229 33.0147568,20.5312229 C33.2757568,20.8372229 33.5817568,21.0442229 33.9417568,21.1522229 C34.3197568,21.2422229 34.7877568,21.2962229 35.3637568,21.3052229 L36.57496,21.321676 C36.7019443,21.3226604 36.8262568,21.3232229 36.9477568,21.3232229 Z M33.6267568,13.5202229 L33.6267568,14.4382229 L35.9757568,14.4382229 C35.4357568,15.6442229 34.5267568,16.6792229 33.2667568,17.5432229 L33.8607568,18.3172229 C34.5627568,17.7952229 35.1747568,17.2192229 35.6877568,16.5892229 L35.6877568,20.1172229 L36.6237568,20.1172229 L36.6237568,15.1222229 C36.7317568,14.9062229 36.8307568,14.6722229 36.9207568,14.4382229 L38.9097568,14.4382229 L38.9097568,13.5202229 L33.6267568,13.5202229 Z M37.3977568,15.2842229 L36.6777568,15.8062229 C37.4157568,16.7332229 38.0097568,17.5792229 38.4417568,18.3442229 L39.2427568,17.7952229 C38.8107568,17.0752229 38.1897568,16.2382229 37.3977568,15.2842229 Z M41.4477568,14.9872229 L40.6017568,15.2932229 C40.7727568,15.6352229 40.9257568,16.0042229 41.0517568,16.3822229 L39.9807568,16.3822229 L39.9807568,17.2822229 L44.5167568,17.2822229 L44.5167568,16.3822229 L43.5987568,16.3822229 C43.7697568,16.0492229 43.9317568,15.6712229 44.0757568,15.2392229 L43.2207568,14.9422229 C43.0677568,15.4552229 42.8877568,15.9322229 42.6807568,16.3822229 L41.9427568,16.3822229 C41.7897568,15.8422229 41.6277568,15.3742229 41.4477568,14.9872229 Z M44.8497568,13.4212229 L44.8497568,21.4492229 L45.7587568,21.4492229 L45.7587568,14.2852229 L47.0007568,14.2852229 C46.7127568,15.2122229 46.4247568,16.0042229 46.1277568,16.6702229 C46.8297568,17.4892229 47.1897568,18.1552229 47.1987568,18.6682229 L47.1864235,18.9382229 C47.1757568,19.0942229 47.1597568,19.2022229 47.1357568,19.2622229 C47.0817568,19.3612229 46.9827568,19.4152229 46.8387568,19.4242229 C46.5957568,19.4242229 46.2987568,19.3972229 45.9477568,19.3612229 L46.2447568,20.3512229 C47.0097568,20.3512229 47.5227568,20.2252229 47.7747568,19.9822229 C48.0087568,19.7392229 48.1347568,19.2982229 48.1347568,18.6682229 C48.1257568,18.1462229 47.7927568,17.4802229 47.1267568,16.6702229 C47.4507568,15.8962229 47.7567568,15.0412229 48.0357568,14.1232229 L48.0357568,13.4212229 L44.8497568,13.4212229 Z M40.1517568,13.9252229 L40.1517568,14.8252229 L44.4357568,14.8252229 L44.4357568,13.9252229 L42.6807568,13.9252229 C42.6087568,13.6192229 42.5367568,13.3312229 42.4647568,13.0792229 L41.5017568,13.2412229 C41.5917568,13.4482229 41.6727568,13.6732229 41.7537568,13.9252229 L40.1517568,13.9252229 Z M44.1837568,17.8762229 L40.4487568,17.8762229 L40.4487568,21.4492229 L41.3667568,21.4492229 L41.3667568,21.0082229 L43.2477568,21.0082229 L43.2477568,21.4492229 L44.1837568,21.4492229 L44.1837568,17.8762229 Z M41.3667568,20.1172229 L41.3667568,18.7672229 L43.2477568,18.7672229 L43.2477568,20.1172229 L41.3667568,20.1172229 Z M51.6717568,13.2952229 C51.3027568,13.9792229 50.9157568,14.5462229 50.5107568,15.0142229 C50.0067568,15.5812229 49.4667568,16.0132229 48.9087568,16.3192229 L49.4217568,17.1562229 C50.2137568,16.5892229 50.8077568,16.0762229 51.2217568,15.6082229 C51.6447568,15.1402229 52.0677568,14.5282229 52.4817568,13.7902229 L51.6717568,13.2952229 Z M51.9147568,17.5252229 C51.7347568,18.2452229 51.4827568,18.8302229 51.1677568,19.2802229 C50.7537568,19.8022229 50.1417568,20.2792229 49.3317568,20.7112229 L49.9437568,21.4942229 C50.8617568,20.9722229 51.5547568,20.3782229 52.0227568,19.7212229 C52.3827568,19.1722229 52.6617568,18.4432229 52.8687568,17.5252229 L54.8127568,17.5252229 C54.7767568,18.7672229 54.6777568,19.5772229 54.5337568,19.9552229 C54.3897568,20.3152229 54.1017568,20.5042229 53.6607568,20.5042229 C53.1927568,20.5042229 52.6887568,20.4862229 52.1577568,20.4682229 L52.4097568,21.3952229 L54.1377568,21.3952229 C54.5967568,21.3682229 54.9297568,21.2152229 55.1367568,20.9452229 C55.3527568,20.6572229 55.4967568,20.1622229 55.5867568,19.4422229 C55.6767568,18.7222229 55.7307568,17.7862229 55.7667568,16.6162229 L50.2947568,16.6162229 L50.2947568,17.5252229 L51.9147568,17.5252229 Z M54.4887568,13.1872229 C54.9747568,14.5282229 55.8837568,15.5902229 57.2157568,16.3642229 L56.5767568,17.1112229 C55.1907568,16.2202229 54.2187568,15.0682229 53.6697568,13.6462229 L54.4887568,13.1872229 Z" id="转呆滞已归还部分" fill="#FFFFFF" fill-rule="nonzero"></path>
                </g>
            </g>
        </g>
    </g>
</svg>