<?xml version="1.0" encoding="UTF-8"?>
<svg width="49px" height="49px" viewBox="0 0 49 49" version="1.1" xmlns="http://www.w3.org/2000/svg" xmlns:xlink="http://www.w3.org/1999/xlink">
    <!-- Generator: Sketch 59.1 (86144) - https://sketch.com -->
    <title>分组备份 43@2x</title>
    <desc>Created with Sketch.</desc>
    <g id="页面-1" stroke="none" stroke-width="1" fill="none" fill-rule="evenodd">
        <g id="状态角标" transform="translate(-2909.000000, -1337.000000)">
            <g id="分组备份-43" transform="translate(2908.000000, 1319.000000)">
                <g id="编组-3备份" transform="translate(33.828427, 34.171573) rotate(45.000000) translate(-33.828427, -34.171573) translate(-1.171573, 22.171573)">
                    <polygon id="矩形" fill="#4D94FF" points="22.9791847 1.1507576 46.7340187 0.863961031 69.3614357 23.491378 0.362011246 23.7679311"></polygon>
                    <path d="M27.0657568,8.65022292 L27.0657568,10.2612229 L25.0317568,10.2612229 L25.0317568,11.1792229 L30.0717568,11.1792229 L30.0717568,10.2612229 L28.0197568,10.2612229 L28.0197568,8.65022292 L29.6667568,8.65022292 L29.6667568,7.74122292 L25.4367568,7.74122292 L25.4367568,8.65022292 L27.0657568,8.65022292 Z M27.8667568,6.14822292 C28.5687568,6.62522292 29.1267568,7.08422292 29.5407568,7.52522292 L30.2337568,6.83222292 C29.7477568,6.40922292 29.1627568,5.98622292 28.4877568,5.55422292 C28.8477568,5.14022292 29.1357568,4.68122292 29.3427568,4.18622292 L29.3427568,3.44822292 L25.3377568,3.44822292 L25.3377568,4.34822292 L28.2087568,4.34822292 C27.5787568,5.35622292 26.4807568,6.13922292 24.8967568,6.70622292 L25.4997568,7.48022292 C26.4447568,7.12022292 27.2367568,6.67022292 27.8667568,6.14822292 Z M24.9867568,9.28922292 C24.1137568,9.73022292 23.0967568,10.0812229 21.9357568,10.3422229 L22.0617568,11.2512229 C23.1507568,10.9812229 24.1227568,10.6122229 24.9867568,10.1622229 L24.9867568,9.28922292 Z M23.3757568,3.08822292 C23.0697568,4.04222292 22.7187568,4.92422292 22.3047568,5.73422292 C22.1877568,5.89622292 22.0617568,6.01322292 21.9177568,6.07622292 L22.1427568,6.93122292 L23.0187568,6.80788959 C23.1607568,6.78822292 23.3007568,6.76922292 23.4387568,6.75122292 C23.0427568,7.44422292 22.7097568,7.93022292 22.4487568,8.20022292 C22.3317568,8.30822292 22.1877568,8.39822292 22.0257568,8.47022292 L22.2687568,9.31622292 C23.1327568,9.19022292 24.0417568,8.94722292 25.0047568,8.58722292 L25.0047568,7.74122292 C24.4647568,7.94822292 23.9337568,8.11922292 23.4117568,8.25422292 C23.9157568,7.61522292 24.5277568,6.62522292 25.2477568,5.27522292 L24.3837568,4.95122292 L23.8977568,5.90522292 L23.8977568,5.90522292 C23.6097568,5.95022292 23.3127568,5.98622292 23.0067568,6.02222292 C23.4387568,5.35622292 23.8617568,4.49222292 24.2757568,3.43922292 L23.3757568,3.08822292 Z M36.3177568,3.16922292 L36.3177568,5.56322292 L34.6527568,5.56322292 L34.6527568,11.4312229 L35.5887568,11.4312229 L35.5887568,9.53222292 L37.9647568,9.53222292 L37.9647568,10.1172229 C37.9647568,10.4142229 37.8657568,10.5672229 37.6677568,10.5672229 L36.8667568,10.5222229 L37.1097568,11.4132229 L37.9647568,11.4132229 C38.5857568,11.4132229 38.9007568,11.0442229 38.9007568,10.3242229 L38.9007568,5.56322292 L37.2447568,5.56322292 L37.2447568,3.16922292 L36.3177568,3.16922292 Z M35.5887568,7.99322292 L37.9647568,7.99322292 L37.9647568,8.74022292 L35.5887568,8.74022292 L35.5887568,7.99322292 Z M37.9647568,7.20122292 L35.5887568,7.20122292 L35.5887568,6.45422292 L37.9647568,6.45422292 L37.9647568,7.20122292 Z M35.2017568,3.51122292 L34.4187568,3.88922292 C34.7067568,4.32122292 34.9767568,4.81622292 35.2287568,5.35622292 L35.9847568,4.97822292 C35.7327568,4.43822292 35.4717568,3.95222292 35.2017568,3.51122292 Z M38.3607568,3.41222292 C38.1627568,3.92522292 37.8927568,4.43822292 37.5507568,4.96022292 L38.3067568,5.35622292 C38.6487568,4.85222292 38.9187568,4.33022292 39.1347568,3.79022292 L38.3607568,3.41222292 Z M31.9887568,3.16022292 C31.7637568,4.18622292 31.3767568,5.15822292 30.8187568,6.06722292 L31.5837568,6.55322292 C31.6737568,6.40922292 31.7637568,6.25622292 31.8537568,6.09422292 L31.8537568,6.72422292 L32.2857568,6.72422292 L32.2857568,7.57022292 L31.1517568,7.57022292 L31.1517568,8.43422292 L32.2857568,8.43422292 L32.2857568,10.1082229 C32.2857568,10.2702229 32.1687568,10.3962229 31.9437568,10.4772229 L32.3307568,11.2872229 C33.1317568,11.0712229 33.8427568,10.8012229 34.4637568,10.4772229 L34.3017568,9.65822292 C33.9417568,9.87422292 33.5727568,10.0452229 33.2037568,10.1892229 L33.2037568,8.43422292 L34.3377568,8.43422292 L34.3377568,7.57022292 L33.2037568,7.57022292 L33.2037568,6.72422292 L34.0317568,6.72422292 L34.0317568,5.88722292 L31.9617568,5.88722292 C32.1057568,5.59922292 32.2497568,5.28422292 32.3847568,4.95122292 L34.1847568,4.95122292 L34.1847568,4.06022292 L32.6907568,4.06022292 C32.7627568,3.83522292 32.8257568,3.60122292 32.8887568,3.34922292 L31.9887568,3.16022292 Z M42.2667568,8.16422292 L42.2667568,10.4412229 L45.8577568,10.4412229 L45.8577568,8.11022292 C45.9657568,8.21822292 46.0647568,8.32622292 46.1637568,8.44322292 L46.8207568,7.79522292 L46.8207568,10.1352229 C46.8207568,10.4502229 46.7127568,10.6122229 46.5147568,10.6122229 L45.6507568,10.5762229 L45.8847568,11.4222229 L46.8027568,11.4222229 C47.4147568,11.4222229 47.7297568,11.0532229 47.7297568,10.3332229 L47.7297568,5.51822292 L45.8037568,5.51822292 C45.9477568,5.25722292 46.0827568,4.96922292 46.2087568,4.66322292 L48.0897568,4.66322292 L48.0897568,3.76322292 L44.5707568,3.76322292 C44.4987568,3.50222292 44.4177568,3.25922292 44.3277568,3.04322292 L43.3017568,3.20522292 C43.3827568,3.37622292 43.4637568,3.56522292 43.5357568,3.76322292 L40.0437568,3.76322292 L40.0437568,4.66322292 L41.8527568,4.66322292 C41.9967568,4.93322292 42.1227568,5.21222292 42.2397568,5.51822292 L40.3857568,5.51822292 L40.3857568,11.4042229 L41.2947568,11.4042229 L41.2947568,7.78622292 L41.8167568,8.46122292 C41.9607568,8.37122292 42.1137568,8.27222292 42.2667568,8.16422292 Z M46.8207568,7.68722292 C46.3527568,7.25522292 45.7857568,6.80522292 45.1377568,6.34622292 L46.8207568,6.34622292 L46.8207568,7.68722292 Z M45.0027568,6.34622292 L44.4267568,6.90422292 C44.9487568,7.28222292 45.3897568,7.65122292 45.7587568,8.01122292 L42.4737568,8.01122292 C42.9237568,7.67822292 43.3197568,7.30022292 43.6707568,6.88622292 L43.0677568,6.34622292 L45.0027568,6.34622292 Z M42.9687568,6.34622292 C42.5187568,6.83222292 41.9607568,7.26422292 41.2947568,7.63322292 L41.2947568,6.34622292 L42.9687568,6.34622292 Z M44.9487568,9.61322292 L43.1757568,9.61322292 L43.1757568,8.83922292 L44.9487568,8.83922292 L44.9487568,9.61322292 Z M43.2027568,5.51822292 C43.0947568,5.21222292 42.9867568,4.93322292 42.8787568,4.66322292 L45.1827568,4.66322292 C45.0567568,4.95122292 44.9307568,5.23922292 44.7867568,5.51822292 L43.2027568,5.51822292 Z M10.1997568,14.1052229 L10.1997568,14.9242229 L11.5407568,14.9242229 L11.5407568,15.7252229 C11.0817568,15.7792229 10.5867568,15.8242229 10.0557568,15.8782229 L10.1637568,16.7242229 L11.5407568,16.5622229 L11.5407568,17.1022229 C11.5407568,17.2822229 11.4597568,17.3812229 11.2977568,17.3812229 C11.0637568,17.3812229 10.8117568,17.3632229 10.5597568,17.3272229 L10.7577568,18.1642229 L11.6037568,18.1642229 C12.1617568,18.1642229 12.4497568,17.8762229 12.4497568,17.3092229 L12.4497568,16.4182229 L13.3497568,16.2472229 L13.3497568,16.2472229 L13.3497568,15.4552229 L12.4497568,15.6082229 L12.4497568,15.6082229 L12.4497568,14.9242229 L13.4217568,14.9242229 L13.4217568,14.1052229 L12.4497568,14.1052229 L12.4497568,13.1782229 L11.5407568,13.1782229 L11.5407568,14.1052229 L10.1997568,14.1052229 Z M17.4267568,18.2002229 C17.5887568,18.1822229 17.7327568,18.0742229 17.8497568,17.8672229 C18.0117568,17.5792229 18.1467568,17.1472229 18.2727568,16.5532229 L17.5347568,16.1482229 L17.4987568,16.4827646 C17.4387568,16.9904729 17.3787568,17.2492229 17.3187568,17.2642229 C17.2467568,17.2082229 17.188979,16.9957785 17.1517445,16.6332106 L17.119872,16.2857914 C17.0886444,15.8561756 17.0757568,15.1256845 17.0757568,14.1052229 L15.7797568,14.1052229 L15.8062058,13.2635786 C15.8065732,13.2324066 15.8067568,13.2039372 15.8067568,13.1782229 L14.9247568,13.1782229 L14.9162554,13.466564 C14.9093283,13.6306107 14.8990425,13.8429372 14.8887568,14.1052229 L13.8087568,14.1052229 L13.8087568,14.9422229 L14.8167568,14.9422229 C14.7807568,15.2122229 14.7177568,15.4822229 14.6367568,15.7432229 C14.3937568,15.5992229 14.1507568,15.4732229 13.8987568,15.3472229 L13.4577568,16.0042229 C13.7277568,16.1392229 13.9977568,16.2922229 14.2767568,16.4632229 C14.0607568,16.7782229 13.7637568,17.1202229 13.3677568,17.4892229 L13.9077568,17.9932229 L13.6017568,17.9932229 L13.6017568,18.7222229 L10.8837568,18.7222229 L10.8837568,19.5862229 L13.6017568,19.5862229 L13.6017568,20.3692229 L10.0827568,20.3692229 L10.0827568,21.2332229 L18.0567568,21.2332229 L18.0567568,20.3692229 L14.5377568,20.3692229 L14.5377568,19.5862229 L17.2107568,19.5862229 L17.2107568,18.7222229 L14.5377568,18.7222229 L14.5377568,17.9932229 L14.1417568,17.9932229 C14.4747568,17.6872229 14.7627568,17.3452229 15.0057568,16.9762229 C15.2667568,17.1742229 15.5367568,17.3902229 15.8067568,17.6332229 L16.2747568,16.9042229 C15.9957568,16.6702229 15.7077568,16.4452229 15.4017568,16.2292229 C15.5637568,15.8422229 15.6717568,15.4102229 15.7257568,14.9422229 L16.2117568,14.9422229 C16.2297568,15.8332229 16.3107568,16.5352229 16.4547568,17.0482229 C16.6887568,17.7772229 17.0127568,18.1642229 17.4267568,18.2002229 Z M19.8297568,13.2142229 L19.1817568,13.8262229 C19.8297568,14.3482229 20.3247568,14.8342229 20.6667568,15.2842229 L21.3417568,14.6182229 C20.9277568,14.1502229 20.4237568,13.6822229 19.8297568,13.2142229 Z M24.9507568,21.3232229 L27.0117568,21.3232229 L27.2367568,20.3962229 L26.7912568,20.4232229 C26.6157568,20.4322229 26.4132568,20.4412229 26.1837568,20.4502229 L24.8157568,20.4592229 L24.8157568,20.4592229 L24.0344128,20.4554789 C23.6637568,20.4520229 23.3235568,20.4466229 23.0157568,20.4412229 C22.4937568,20.4232229 22.1067568,20.3512229 21.8457568,20.2162229 C21.6387568,20.0992229 21.4317568,19.9192229 21.2337568,19.6852229 L21.1437568,19.5952229 L21.1437568,16.1662229 L19.0827568,16.1662229 L19.0827568,17.0302229 L20.2707568,17.0302229 L20.2707568,19.4962229 C19.9107568,19.6942229 19.5147568,20.1532229 19.0647568,20.8732229 L19.7577568,21.5122229 C20.2077568,20.7022229 20.5137568,20.3062229 20.6847568,20.3062229 C20.7927568,20.3062229 20.9007568,20.3782229 21.0177568,20.5312229 C21.2787568,20.8372229 21.5847568,21.0442229 21.9447568,21.1522229 C22.3227568,21.2422229 22.7907568,21.2962229 23.3667568,21.3052229 L24.57796,21.321676 C24.7049443,21.3226604 24.8292568,21.3232229 24.9507568,21.3232229 Z M21.6297568,13.5202229 L21.6297568,14.4382229 L23.9787568,14.4382229 C23.4387568,15.6442229 22.5297568,16.6792229 21.2697568,17.5432229 L21.8637568,18.3172229 C22.5657568,17.7952229 23.1777568,17.2192229 23.6907568,16.5892229 L23.6907568,20.1172229 L24.6267568,20.1172229 L24.6267568,15.1222229 C24.7347568,14.9062229 24.8337568,14.6722229 24.9237568,14.4382229 L26.9127568,14.4382229 L26.9127568,13.5202229 L21.6297568,13.5202229 Z M25.4007568,15.2842229 L24.6807568,15.8062229 C25.4187568,16.7332229 26.0127568,17.5792229 26.4447568,18.3442229 L27.2457568,17.7952229 C26.8137568,17.0752229 26.1927568,16.2382229 25.4007568,15.2842229 Z M29.3427568,13.0882229 C28.9107568,13.6732229 28.5867568,14.2852229 28.3527568,14.9332229 C28.0737568,15.6892229 27.9387568,16.4722229 27.9387568,17.3002229 C27.9387568,18.1102229 28.0737568,18.9022229 28.3527568,19.6582229 C28.5867568,20.2882229 28.9107568,20.9002229 29.3427568,21.4942229 L30.1977568,21.4942229 C29.8197568,20.8642229 29.5317568,20.2432229 29.3337568,19.6312229 C29.0637568,18.8482229 28.9377568,18.0652229 28.9377568,17.2912229 C28.9377568,16.5082229 29.0637568,15.7252229 29.3337568,14.9512229 C29.5317568,14.3302229 29.8197568,13.7092229 30.1977568,13.0882229 L29.3427568,13.0882229 Z M31.0437568,17.3542229 L31.0437568,18.1462229 L34.4097568,18.1462229 L34.2027568,18.5872229 L31.7817568,18.5872229 L31.7817568,21.4942229 L32.6727568,21.4942229 L32.6727568,19.3792229 L33.7257568,19.3792229 L33.7257568,21.3682229 L34.6167568,21.3682229 L34.6167568,19.3792229 L35.6337568,19.3792229 L35.6337568,21.3682229 L36.5337568,21.3682229 L36.5337568,19.3792229 L37.6677568,19.3792229 L37.6677568,20.3962229 C37.6677568,20.5942229 37.5777568,20.6932229 37.3977568,20.6932229 L36.8127568,20.6572229 L37.0287568,21.4582229 L37.6587568,21.4582229 C38.2617568,21.4582229 38.5677568,21.1612229 38.5677568,20.5852229 L38.5677568,18.5872229 L35.1567568,18.5872229 L35.3637568,18.1462229 L39.0897568,18.1462229 L39.0897568,17.3542229 L31.0437568,17.3542229 Z M31.5927568,13.3852229 L31.5927568,14.1412229 L34.6077568,14.1412229 L34.6077568,14.5012229 L31.1877568,14.5012229 L31.1877568,16.4722229 L32.0877568,16.4722229 L32.0877568,15.2122229 L34.6077568,15.2122229 L34.6077568,17.0842229 L35.5257568,17.0842229 L35.5257568,15.2122229 L38.0457568,15.2122229 L38.0457568,16.4722229 L38.9457568,16.4722229 L38.9457568,14.5012229 L35.5257568,14.5012229 L35.5257568,14.1412229 L38.5497568,14.1412229 L38.5497568,13.3852229 L31.5927568,13.3852229 Z M32.3937568,15.5452229 L32.3937568,16.1302229 L34.2837568,16.1302229 L34.2837568,15.5452229 L32.3937568,15.5452229 Z M32.3937568,16.4272229 L32.3937568,17.0122229 L34.2837568,17.0122229 L34.2837568,16.4272229 L32.3937568,16.4272229 Z M35.8407568,15.5452229 L35.8407568,16.1302229 L37.7217568,16.1302229 L37.7217568,15.5452229 L35.8407568,15.5452229 Z M35.8497568,16.4272229 L35.8497568,17.0122229 L37.7487568,17.0122229 L37.7487568,16.4272229 L35.8497568,16.4272229 Z M41.3127568,18.0382229 L41.3127568,21.4762229 L42.2307568,21.4762229 L42.2307568,17.9482229 C42.6087568,18.2902229 42.9867568,18.7042229 43.3647568,19.1812229 L43.8777568,18.3712229 C43.6617568,18.1642229 43.4367568,17.9662229 43.2027568,17.7772229 C43.4547568,17.5882229 43.6887568,17.3452229 43.9047568,17.0572229 L43.3737568,16.5262229 C43.1217568,16.8682229 42.8697568,17.1292229 42.6087568,17.3182229 L42.2307568,17.0662229 L42.2307568,17.0302229 C42.7077568,16.4362229 43.0587568,15.8242229 43.2927568,15.2032229 L43.2927568,14.4382229 L42.3477568,14.4382229 C42.2217568,14.0422229 42.0597568,13.6012229 41.8527568,13.1152229 L40.9437568,13.3582229 C41.1147568,13.7092229 41.2677568,14.0692229 41.4117568,14.4382229 L40.1247568,14.4382229 L40.1247568,15.2932229 L42.3567568,15.2932229 C41.9247568,16.1932229 41.0967568,17.1292229 39.8817568,18.0832229 L40.1697568,19.0372229 C40.5837568,18.7132229 40.9617568,18.3802229 41.3127568,18.0382229 Z M44.8857568,13.1512229 L44.8857568,21.4672229 L45.8127568,21.4672229 L45.8127568,17.0662229 C46.3257568,17.4442229 46.9557568,17.9752229 47.7027568,18.6412229 L48.2607568,17.8132229 C47.4327568,17.1652229 46.6137568,16.5982229 45.8127568,16.0942229 L45.8127568,13.1512229 L44.8857568,13.1512229 Z M56.7927568,13.8712229 L52.4997568,13.8712229 L52.4997568,21.1792229 L53.4087568,21.1792229 L53.4087568,20.6302229 L55.8837568,20.6302229 L55.8837568,21.1792229 L56.7927568,21.1792229 L56.7927568,13.8712229 Z M53.4087568,19.7392229 L53.4087568,14.7532229 L55.8837568,14.7532229 L55.8837568,19.7392229 L53.4087568,19.7392229 Z M52.1037568,16.6342229 C51.7977568,16.7962229 51.4917568,16.9402229 51.1677568,17.0842229 L51.1677568,15.5992229 L52.1397568,15.5992229 L52.1397568,14.6902229 L51.1677568,14.6902229 L51.1677568,13.1782229 L50.2587568,13.1782229 L50.2587568,14.6902229 L49.0887568,14.6902229 L49.0887568,15.5992229 L50.2587568,15.5992229 L50.2587568,17.4352229 C49.8357568,17.5792229 49.4037568,17.6962229 48.9627568,17.7862229 L49.1877568,18.6862229 C49.5477568,18.5692229 49.9077568,18.4522229 50.2587568,18.3262229 L50.2587568,20.2252229 C50.2587568,20.4412229 50.1507568,20.5582229 49.9347568,20.5582229 C49.6737568,20.5582229 49.4037568,20.5402229 49.1247568,20.5042229 L49.3317568,21.3862229 L50.2587568,21.3862229 C50.8617568,21.3862229 51.1677568,21.0712229 51.1677568,20.4502229 L51.1677568,17.9662229 C51.4827568,17.8312229 51.7977568,17.6872229 52.1037568,17.5342229 L52.1037568,16.6342229 Z M57.9357568,13.0882229 L58.7907568,13.0882229 C59.2137568,13.6732229 59.5467568,14.2852229 59.7807568,14.9332229 C60.0507568,15.6892229 60.1947568,16.4722229 60.1947568,17.3002229 C60.1947568,18.1102229 60.0507568,18.9022229 59.7807568,19.6582229 C59.5467568,20.2882229 59.2137568,20.9002229 58.7907568,21.4942229 L57.9357568,21.4942229 C58.3047568,20.8642229 58.5927568,20.2432229 58.7997568,19.6312229 C59.0607568,18.8482229 59.1957568,18.0652229 59.1957568,17.2912229 C59.1957568,16.5082229 59.0607568,15.7252229 58.7997568,14.9512229 C58.5927568,14.3302229 58.3047568,13.7092229 57.9357568,13.0882229 Z" id="经销商垫还(需补扣)" fill="#FFFFFF" fill-rule="nonzero"></path>
                </g>
            </g>
        </g>
    </g>
</svg>