<?xml version="1.0" encoding="UTF-8"?>
<svg width="49px" height="49px" viewBox="0 0 49 49" version="1.1" xmlns="http://www.w3.org/2000/svg" xmlns:xlink="http://www.w3.org/1999/xlink">
    <!-- Generator: Sketch 59.1 (86144) - https://sketch.com -->
    <title>分组备份 24@2x</title>
    <desc>Created with Sketch.</desc>
    <g id="页面-1" stroke="none" stroke-width="1" fill="none" fill-rule="evenodd">
        <g id="状态角标" transform="translate(-2909.000000, -403.000000)">
            <g id="分组备份-24" transform="translate(2908.000000, 385.000000)">
                <g id="编组-3备份" transform="translate(33.828427, 34.171573) rotate(45.000000) translate(-33.828427, -34.171573) translate(-1.171573, 22.171573)">
                    <polygon id="矩形" fill="#FF9600" points="22.9791847 1.1507576 46.7340187 0.863961031 69.3614357 23.491378 0.362011246 23.7679311"></polygon>
                    <path d="M31.8267568,3.14222292 L31.8267568,7.04822292 L30.6207568,7.04822292 L30.6207568,11.4402229 L31.4937568,11.4402229 L31.4937568,11.1252229 L33.4827568,11.1252229 L33.4827568,11.4402229 L34.3827568,11.4402229 L34.3827568,7.04822292 L32.7537568,7.04822292 L32.7537568,5.55422292 L34.6977568,5.55422292 L34.6977568,4.67222292 L32.7537568,4.67222292 L32.7537568,3.14222292 L31.8267568,3.14222292 Z M31.4937568,10.2432229 L31.4937568,7.92122292 L33.4827568,7.92122292 L33.4827568,10.2432229 L31.4937568,10.2432229 Z M30.1437568,3.42122292 L26.7057568,3.42122292 L26.7057568,9.19022292 L27.5517568,9.19022292 L27.5517568,4.28522292 L29.3157568,4.28522292 L29.3157568,9.19022292 L30.1437568,9.19022292 L30.1437568,3.42122292 Z M28.0197568,4.81622292 L28.0197568,7.76822292 C27.9927568,8.51522292 27.8757568,9.12722292 27.6687568,9.60422292 C27.4527568,10.0362229 27.0387568,10.3962229 26.4267568,10.6932229 L26.9397568,11.4852229 C27.5877568,11.1792229 28.0557568,10.7472229 28.3437568,10.1892229 C28.6317568,9.58622292 28.7937568,8.77622292 28.8297568,7.76822292 L28.8297568,4.81622292 L28.0197568,4.81622292 Z M29.1537568,9.39722292 L28.5417568,9.98222292 C29.0187568,10.4952229 29.3877568,10.9722229 29.6487568,11.4222229 L30.3327568,10.7472229 C30.0087568,10.3062229 29.6127568,9.85622292 29.1537568,9.39722292 Z M36.6957568,3.72722292 L36.6957568,8.32622292 L42.5097568,8.32622292 L42.5097568,3.72722292 L39.7017568,3.72722292 C39.7917568,3.55622292 39.8637568,3.37622292 39.9177568,3.18722292 L38.9277568,3.05222292 C38.8737568,3.28622292 38.7927568,3.51122292 38.6847568,3.72722292 L36.6957568,3.72722292 Z M41.6007568,7.53422292 L37.6047568,7.53422292 L37.6047568,7.01222292 L41.6007568,7.01222292 L41.6007568,7.53422292 Z M37.6047568,6.27422292 L37.6047568,5.77022292 L41.6007568,5.77022292 L41.6007568,6.27422292 L37.6047568,6.27422292 Z M37.6047568,5.03222292 L37.6047568,4.52822292 L41.6007568,4.52822292 L41.6007568,5.03222292 L37.6047568,5.03222292 Z M36.2007568,8.82122292 C36.0567568,9.46922292 35.7957568,10.0902229 35.4267568,10.6662229 L36.2187568,11.1792229 C36.5877568,10.5672229 36.8757568,9.83822292 37.0827568,9.00122292 L36.2007568,8.82122292 Z M40.7457568,11.3322229 C41.1057568,11.3322229 41.3757568,11.2602229 41.5557568,11.1252229 C41.7447568,10.9812229 41.8797568,10.5222229 41.9607568,9.74822292 L41.0607568,9.45122292 C41.0337568,9.95522292 40.9797568,10.2612229 40.8897568,10.3602229 C40.8177568,10.4502229 40.7097568,10.5042229 40.5657568,10.5042229 L38.7297568,10.5042229 C38.5497568,10.5042229 38.4687568,10.4052229 38.4687568,10.2252229 L38.4687568,8.81222292 L37.5147568,8.81222292 L37.5147568,10.4322229 C37.5147568,11.0262229 37.8297568,11.3322229 38.4597568,11.3322229 L40.7457568,11.3322229 Z M39.6747568,8.44322292 L38.9817568,8.87522292 C39.3867568,9.32522292 39.7107568,9.73922292 39.9447568,10.0992229 L40.6557568,9.61322292 C40.4217568,9.28022292 40.0887568,8.89322292 39.6747568,8.44322292 Z M42.5367568,8.62322292 L41.7987568,9.08222292 C42.3027568,9.78422292 42.6987568,10.4142229 42.9867568,10.9812229 L43.7427568,10.4592229 C43.4547568,9.93722292 43.0587568,9.32522292 42.5367568,8.62322292 Z M14.4477568,14.9872229 L13.6017568,15.2932229 C13.7727568,15.6352229 13.9257568,16.0042229 14.0517568,16.3822229 L12.9807568,16.3822229 L12.9807568,17.2822229 L17.5167568,17.2822229 L17.5167568,16.3822229 L16.5987568,16.3822229 C16.7697568,16.0492229 16.9317568,15.6712229 17.0757568,15.2392229 L16.2207568,14.9422229 C16.0677568,15.4552229 15.8877568,15.9322229 15.6807568,16.3822229 L14.9427568,16.3822229 C14.7897568,15.8422229 14.6277568,15.3742229 14.4477568,14.9872229 Z M17.8497568,13.4212229 L17.8497568,21.4492229 L18.7587568,21.4492229 L18.7587568,14.2852229 L20.0007568,14.2852229 C19.7127568,15.2122229 19.4247568,16.0042229 19.1277568,16.6702229 C19.8297568,17.4892229 20.1897568,18.1552229 20.1987568,18.6682229 L20.1864235,18.9382229 C20.1757568,19.0942229 20.1597568,19.2022229 20.1357568,19.2622229 C20.0817568,19.3612229 19.9827568,19.4152229 19.8387568,19.4242229 C19.5957568,19.4242229 19.2987568,19.3972229 18.9477568,19.3612229 L19.2447568,20.3512229 C20.0097568,20.3512229 20.5227568,20.2252229 20.7747568,19.9822229 C21.0087568,19.7392229 21.1347568,19.2982229 21.1347568,18.6682229 C21.1257568,18.1462229 20.7927568,17.4802229 20.1267568,16.6702229 C20.4507568,15.8962229 20.7567568,15.0412229 21.0357568,14.1232229 L21.0357568,13.4212229 L17.8497568,13.4212229 Z M13.1517568,13.9252229 L13.1517568,14.8252229 L17.4357568,14.8252229 L17.4357568,13.9252229 L15.6807568,13.9252229 C15.6087568,13.6192229 15.5367568,13.3312229 15.4647568,13.0792229 L14.5017568,13.2412229 C14.5917568,13.4482229 14.6727568,13.6732229 14.7537568,13.9252229 L13.1517568,13.9252229 Z M17.1837568,17.8762229 L13.4487568,17.8762229 L13.4487568,21.4492229 L14.3667568,21.4492229 L14.3667568,21.0082229 L16.2477568,21.0082229 L16.2477568,21.4492229 L17.1837568,21.4492229 L17.1837568,17.8762229 Z M14.3667568,20.1172229 L14.3667568,18.7672229 L16.2477568,18.7672229 L16.2477568,20.1172229 L14.3667568,20.1172229 Z M24.6717568,13.2952229 C24.3027568,13.9792229 23.9157568,14.5462229 23.5107568,15.0142229 C23.0067568,15.5812229 22.4667568,16.0132229 21.9087568,16.3192229 L22.4217568,17.1562229 C23.2137568,16.5892229 23.8077568,16.0762229 24.2217568,15.6082229 C24.6447568,15.1402229 25.0677568,14.5282229 25.4817568,13.7902229 L24.6717568,13.2952229 Z M24.9147568,17.5252229 C24.7347568,18.2452229 24.4827568,18.8302229 24.1677568,19.2802229 C23.7537568,19.8022229 23.1417568,20.2792229 22.3317568,20.7112229 L22.9437568,21.4942229 C23.8617568,20.9722229 24.5547568,20.3782229 25.0227568,19.7212229 C25.3827568,19.1722229 25.6617568,18.4432229 25.8687568,17.5252229 L27.8127568,17.5252229 C27.7767568,18.7672229 27.6777568,19.5772229 27.5337568,19.9552229 C27.3897568,20.3152229 27.1017568,20.5042229 26.6607568,20.5042229 C26.1927568,20.5042229 25.6887568,20.4862229 25.1577568,20.4682229 L25.4097568,21.3952229 L27.1377568,21.3952229 C27.5967568,21.3682229 27.9297568,21.2152229 28.1367568,20.9452229 C28.3527568,20.6572229 28.4967568,20.1622229 28.5867568,19.4422229 C28.6767568,18.7222229 28.7307568,17.7862229 28.7667568,16.6162229 L23.2947568,16.6162229 L23.2947568,17.5252229 L24.9147568,17.5252229 Z M27.4887568,13.1872229 L26.6697568,13.6462229 C27.2187568,15.0682229 28.1907568,16.2202229 29.5767568,17.1112229 L30.2157568,16.3642229 C28.8837568,15.5902229 27.9747568,14.5282229 27.4887568,13.1872229 Z M38.1897568,17.3902229 L38.1897568,13.5382229 L31.3227568,13.5382229 L31.3227568,14.4382229 L37.2357568,14.4382229 L37.2357568,16.4902229 L32.6367568,16.4902229 L32.6367568,15.3022229 L31.7007568,15.3022229 L31.7007568,19.9642229 C31.7007568,20.7742229 32.0787568,21.1792229 32.8527568,21.1792229 L37.8567568,21.1792229 C38.2167568,21.1612229 38.5137568,21.0532229 38.7297568,20.8552229 C38.9097568,20.6572229 39.0627568,19.9822229 39.1797568,18.8302229 L38.2617568,18.5422229 L38.234851,18.9383704 C38.1817687,19.6140217 38.1073722,20.0106075 38.0007568,20.1172229 C37.8747568,20.2252229 37.7397568,20.2792229 37.5957568,20.2792229 L33.1227568,20.2792229 C32.7987568,20.2792229 32.6367568,20.1172229 32.6367568,19.7932229 L32.6367568,17.3902229 L38.1897568,17.3902229 Z M42.0417568,13.1422229 L42.0417568,17.0932229 C42.0237568,18.8212229 41.3937568,20.0722229 40.1697568,20.8552229 L40.8807568,21.4762229 C42.2487568,20.5582229 42.9417568,19.0912229 42.9777568,17.0932229 L42.9777568,13.1422229 L42.0417568,13.1422229 Z M40.1877568,14.0152229 L40.1877568,18.4432229 L41.1237568,18.4432229 L41.1237568,14.0152229 L40.1877568,14.0152229 Z M43.4007568,13.7542229 L43.4007568,14.6722229 L46.9197568,14.6722229 L46.9197568,16.7692229 L43.6437568,16.7692229 L43.6437568,17.6692229 L46.9197568,17.6692229 L46.9197568,19.8922229 L43.2387568,19.8922229 L43.2387568,20.8102229 L46.9197568,20.8102229 L46.9197568,21.2512229 L47.8737568,21.2512229 L47.8737568,13.7542229 L43.4007568,13.7542229 Z M49.8267568,13.2142229 L49.1787568,13.8262229 C49.8267568,14.3482229 50.3217568,14.8342229 50.6637568,15.2842229 L51.3387568,14.6182229 C50.9247568,14.1502229 50.4207568,13.6822229 49.8267568,13.2142229 Z M54.9477568,21.3232229 L57.0087568,21.3232229 L57.2337568,20.3962229 L56.7882568,20.4232229 C56.6127568,20.4322229 56.4102568,20.4412229 56.1807568,20.4502229 L54.8127568,20.4592229 L54.8127568,20.4592229 L54.0314128,20.4554789 C53.6607568,20.4520229 53.3205568,20.4466229 53.0127568,20.4412229 C52.4907568,20.4232229 52.1037568,20.3512229 51.8427568,20.2162229 C51.6357568,20.0992229 51.4287568,19.9192229 51.2307568,19.6852229 L51.1407568,19.5952229 L51.1407568,16.1662229 L49.0797568,16.1662229 L49.0797568,17.0302229 L50.2677568,17.0302229 L50.2677568,19.4962229 C49.9077568,19.6942229 49.5117568,20.1532229 49.0617568,20.8732229 L49.7547568,21.5122229 C50.2047568,20.7022229 50.5107568,20.3062229 50.6817568,20.3062229 C50.7897568,20.3062229 50.8977568,20.3782229 51.0147568,20.5312229 C51.2757568,20.8372229 51.5817568,21.0442229 51.9417568,21.1522229 C52.3197568,21.2422229 52.7877568,21.2962229 53.3637568,21.3052229 L54.57496,21.321676 C54.7019443,21.3226604 54.8262568,21.3232229 54.9477568,21.3232229 Z M51.6267568,13.5202229 L51.6267568,14.4382229 L53.9757568,14.4382229 C53.4357568,15.6442229 52.5267568,16.6792229 51.2667568,17.5432229 L51.8607568,18.3172229 C52.5627568,17.7952229 53.1747568,17.2192229 53.6877568,16.5892229 L53.6877568,20.1172229 L54.6237568,20.1172229 L54.6237568,15.1222229 C54.7317568,14.9062229 54.8307568,14.6722229 54.9207568,14.4382229 L56.9097568,14.4382229 L56.9097568,13.5202229 L51.6267568,13.5202229 Z M55.3977568,15.2842229 C56.1897568,16.2382229 56.8107568,17.0752229 57.2427568,17.7952229 L56.4417568,18.3442229 C56.0097568,17.5792229 55.4157568,16.7332229 54.6777568,15.8062229 L55.3977568,15.2842229 Z" id="贴息部分已归还" fill="#FFFFFF" fill-rule="nonzero"></path>
                </g>
            </g>
        </g>
    </g>
</svg>