<?xml version="1.0" encoding="UTF-8"?>
<svg width="49px" height="49px" viewBox="0 0 49 49" version="1.1" xmlns="http://www.w3.org/2000/svg" xmlns:xlink="http://www.w3.org/1999/xlink">
    <!-- Generator: Sketch 59.1 (86144) - https://sketch.com -->
    <title>分组备份 33@2x</title>
    <desc>Created with Sketch.</desc>
    <g id="页面-1" stroke="none" stroke-width="1" fill="none" fill-rule="evenodd">
        <g id="状态角标" transform="translate(-2911.000000, -194.000000)">
            <g id="分组备份-33" transform="translate(2910.000000, 181.000000)">
                <g id="编组-3" transform="translate(31.353553, 31.646447) rotate(45.000000) translate(-31.353553, -31.646447) translate(-3.646447, 23.146447)">
                    <polygon id="矩形" fill="#4D94FF" points="16.0683698 1.06157248 53.835396 0.965338282 69.375151 16.5050933 0.362011246 16.7679311"></polygon>
                    <path d="M24.523,4.638 L24.523,5.772 L21.598,5.772 L21.598,6.69 L24.523,6.69 L24.523,7.995 L21.058,7.995 L21.058,8.913 L23.767,8.913 C23.137,10.011 22.165,10.911 20.869,11.631 L21.409,12.522 C22.84,11.577 23.875,10.371 24.514,8.913 L24.523,8.913 L24.523,12.918 L25.477,12.918 L25.477,8.913 L25.495,8.913 C26.08,10.227 27.079,11.433 28.501,12.513 L29.167,11.667 C27.808,10.857 26.827,9.939 26.233,8.913 L28.942,8.913 L28.942,7.995 L25.477,7.995 L25.477,6.69 L28.465,6.69 L28.465,5.772 L25.477,5.772 L25.477,4.638 L24.523,4.638 Z M33.375,4.611 L33.375,8.562 C33.357,10.29 32.727,11.541 31.503,12.324 L32.214,12.945 C33.582,12.027 34.275,10.56 34.311,8.562 L34.311,4.611 L33.375,4.611 Z M31.521,5.484 L31.521,9.912 L32.457,9.912 L32.457,5.484 L31.521,5.484 Z M34.734,5.223 L34.734,6.141 L38.253,6.141 L38.253,8.238 L34.977,8.238 L34.977,9.138 L38.253,9.138 L38.253,11.361 L34.572,11.361 L34.572,12.279 L38.253,12.279 L38.253,12.72 L39.207,12.72 L39.207,5.223 L34.734,5.223 Z M42.56,4.683 L41.912,5.295 C42.56,5.817 43.055,6.303 43.397,6.753 L44.072,6.087 C43.658,5.619 43.154,5.151 42.56,4.683 Z M47.681,12.792 L49.742,12.792 L49.967,11.865 L49.5215,11.892 C49.346,11.901 49.1435,11.91 48.914,11.919 L47.546,11.928 L47.546,11.928 L46.764656,11.924256 C46.394,11.9208 46.0538,11.9154 45.746,11.91 C45.224,11.892 44.837,11.82 44.576,11.685 C44.369,11.568 44.162,11.388 43.964,11.154 L43.874,11.064 L43.874,7.635 L41.813,7.635 L41.813,8.499 L43.001,8.499 L43.001,10.965 C42.641,11.163 42.245,11.622 41.795,12.342 L42.488,12.981 C42.938,12.171 43.244,11.775 43.415,11.775 C43.523,11.775 43.631,11.847 43.748,12 C44.009,12.306 44.315,12.513 44.675,12.621 C45.053,12.711 45.521,12.765 46.097,12.774 L47.3082031,12.7904531 C47.4351875,12.7914375 47.5595,12.792 47.681,12.792 Z M44.36,4.989 L44.36,5.907 L46.709,5.907 C46.169,7.113 45.26,8.148 44,9.012 L44.594,9.786 C45.296,9.264 45.908,8.688 46.421,8.058 L46.421,11.586 L47.357,11.586 L47.357,6.591 C47.465,6.375 47.564,6.141 47.654,5.907 L49.643,5.907 L49.643,4.989 L44.36,4.989 Z M48.131,6.753 C48.923,7.707 49.544,8.544 49.976,9.264 L49.175,9.813 C48.743,9.048 48.149,8.202 47.411,7.275 L48.131,6.753 Z" id="未归还" fill="#FFFFFF" fill-rule="nonzero"></path>
                </g>
            </g>
        </g>
    </g>
</svg>