<?xml version="1.0" encoding="UTF-8"?>
<svg width="206px" height="182px" viewBox="0 0 206 182" version="1.1" xmlns="http://www.w3.org/2000/svg" xmlns:xlink="http://www.w3.org/1999/xlink">
    <!-- Generator: Sketch 55.2 (78181) - https://sketchapp.com -->
    <title>无搜索结果_slice</title>
    <desc>Created with Sketch.</desc>
    <defs>
        <linearGradient x1="44.4644728%" y1="39.7756343%" x2="55.8924298%" y2="57.399572%" id="linearGradient-1">
            <stop stop-color="#EAF2FF" offset="0%"></stop>
            <stop stop-color="#FFFFFF" offset="100%"></stop>
        </linearGradient>
        <linearGradient x1="19.4856147%" y1="0%" x2="79.0263108%" y2="100%" id="linearGradient-2">
            <stop stop-color="#99C0FF" offset="0%"></stop>
            <stop stop-color="#6E9DEA" offset="100%"></stop>
        </linearGradient>
        <linearGradient x1="101.634881%" y1="7.45155379%" x2="6.99969768%" y2="84.294283%" id="linearGradient-3">
            <stop stop-color="#E9F0FF" offset="0%"></stop>
            <stop stop-color="#CEE0FF" offset="100%"></stop>
        </linearGradient>
        <linearGradient x1="93.0003023%" y1="0%" x2="6.99969768%" y2="100%" id="linearGradient-4">
            <stop stop-color="#FFFFFF" offset="0%"></stop>
            <stop stop-color="#FFFFFF" stop-opacity="0" offset="100%"></stop>
        </linearGradient>
        <polygon id="path-5" points="49.2227655 9.87813111 170.840559 9.87813111 170.840559 139.820269 49.2227655 141.02151"></polygon>
        <filter x="-1.4%" y="-1.3%" width="105.3%" height="105.0%" filterUnits="objectBoundingBox" id="filter-6">
            <feMorphology radius="0.25" operator="dilate" in="SourceAlpha" result="shadowSpreadOuter1"></feMorphology>
            <feOffset dx="2" dy="2" in="shadowSpreadOuter1" result="shadowOffsetOuter1"></feOffset>
            <feGaussianBlur stdDeviation="0.5" in="shadowOffsetOuter1" result="shadowBlurOuter1"></feGaussianBlur>
            <feComposite in="shadowBlurOuter1" in2="SourceAlpha" operator="out" result="shadowBlurOuter1"></feComposite>
            <feColorMatrix values="0 0 0 0 0   0 0 0 0 0   0 0 0 0 0  0 0 0 0.078125 0" type="matrix" in="shadowBlurOuter1"></feColorMatrix>
        </filter>
        <linearGradient x1="100%" y1="28.5000476%" x2="0%" y2="71.4999524%" id="linearGradient-7">
            <stop stop-color="#FFFFFF" offset="0%"></stop>
            <stop stop-color="#FFFFFF" stop-opacity="0" offset="100%"></stop>
        </linearGradient>
        <linearGradient x1="50%" y1="0%" x2="50%" y2="100%" id="linearGradient-8">
            <stop stop-color="#F6FAFE" offset="0%"></stop>
            <stop stop-color="#D3E3FF" offset="100%"></stop>
        </linearGradient>
        <linearGradient x1="78.3449634%" y1="34.2079221%" x2="59.62854%" y2="58.9110876%" id="linearGradient-9">
            <stop stop-color="#FFFFFF" offset="0%"></stop>
            <stop stop-color="#FFFFFF" stop-opacity="0" offset="100%"></stop>
        </linearGradient>
        <linearGradient x1="50%" y1="0%" x2="50%" y2="100%" id="linearGradient-10">
            <stop stop-color="#F6FAFE" offset="0%"></stop>
            <stop stop-color="#D3E3FF" offset="100%"></stop>
        </linearGradient>
        <linearGradient x1="84.3732513%" y1="0%" x2="17.0955502%" y2="86.0611459%" id="linearGradient-11">
            <stop stop-color="#FFFFFF" offset="0%"></stop>
            <stop stop-color="#FFFFFF" stop-opacity="0" offset="100%"></stop>
        </linearGradient>
        <linearGradient x1="15.8940515%" y1="11.1527871%" x2="93.3894973%" y2="100%" id="linearGradient-12">
            <stop stop-color="#98C0FF" offset="0%"></stop>
            <stop stop-color="#75ACFF" offset="100%"></stop>
        </linearGradient>
        <linearGradient x1="95.1691967%" y1="19.1488097%" x2="27.4280608%" y2="82.8602698%" id="linearGradient-13">
            <stop stop-color="#FFFFFF" offset="0%"></stop>
            <stop stop-color="#FFFFFF" stop-opacity="0" offset="100%"></stop>
        </linearGradient>
        <path d="M165.890228,136.650876 C157.810017,141.558833 147.133417,140.521481 140.150758,133.538822 C131.949747,125.337812 131.949747,112.041347 140.150758,103.840337 C148.351768,95.639327 161.648232,95.639327 169.849242,103.840337 C176.831902,110.822997 177.869253,121.499597 172.961296,129.579808 L183.991378,140.60989 C185.943999,142.562511 185.943999,145.728336 183.991378,147.680958 C182.038757,149.633579 178.872932,149.633579 176.92031,147.680958 L165.890228,136.650876 Z M163.485281,127.174861 C168.171573,122.488569 168.171573,114.89059 163.485281,110.204298 C158.79899,105.518007 151.20101,105.518007 146.514719,110.204298 C141.828427,114.89059 141.828427,122.488569 146.514719,127.174861 C151.20101,131.861152 158.79899,131.861152 163.485281,127.174861 Z" id="path-14"></path>
        <filter x="-3.4%" y="-3.4%" width="112.6%" height="112.6%" filterUnits="objectBoundingBox" id="filter-15">
            <feMorphology radius="0.25" operator="dilate" in="SourceAlpha" result="shadowSpreadOuter1"></feMorphology>
            <feOffset dx="2" dy="2" in="shadowSpreadOuter1" result="shadowOffsetOuter1"></feOffset>
            <feGaussianBlur stdDeviation="0.5" in="shadowOffsetOuter1" result="shadowBlurOuter1"></feGaussianBlur>
            <feComposite in="shadowBlurOuter1" in2="SourceAlpha" operator="out" result="shadowBlurOuter1"></feComposite>
            <feColorMatrix values="0 0 0 0 0   0 0 0 0 0   0 0 0 0 0  0 0 0 0.0823590472 0" type="matrix" in="shadowBlurOuter1"></feColorMatrix>
        </filter>
        <filter x="-3.8%" y="-46.2%" width="107.5%" height="192.3%" filterUnits="objectBoundingBox" id="filter-16">
            <feGaussianBlur stdDeviation="2" in="SourceGraphic"></feGaussianBlur>
        </filter>
    </defs>
    <g id="页面1" stroke="none" stroke-width="1" fill="none" fill-rule="evenodd">
        <g id="画板" transform="translate(-76.000000, -151.000000)">
            <g id="无搜索结果" transform="translate(76.000000, 151.000000)">
                <path d="M7.26550085,93.3030177 C3.47725666,92.736889 -2.48689958e-14,94.6460677 -2.48689958e-14,99.141699 C-2.48689958e-14,102.138787 7.27535609,104.23412 21.8260683,105.427699 C37.1557093,107.5411 46.7756996,106.762901 50.6860393,103.093102 C56.5515487,97.5884039 51.8559643,92.924686 38.8646807,91.8592252 C37.1717697,91.7110316 35.7294373,91.7110316 34.5376834,91.8592252 C26.9513398,83.380435 20.3726031,81.5013695 14.8014732,86.2220288 C10.3638783,89.4162211 10.6622448,90.3381229 7.26550085,93.3030177 Z" id="路径-5" fill="url(#linearGradient-1)"></path>
                <path d="M159.265501,62.3030177 C155.477257,61.736889 152,63.6460677 152,68.141699 C152,71.1387865 159.275356,73.2341197 173.826068,74.4276986 C189.155709,76.5410998 198.7757,75.762901 202.686039,72.0931021 C208.551549,66.5884039 203.855964,61.924686 190.864681,60.8592252 C189.17177,60.7110316 187.729437,60.7110316 186.537683,60.8592252 C178.95134,52.380435 172.372603,50.5013695 166.801473,55.2220288 C162.363878,58.4162211 162.662245,59.3381229 159.265501,62.3030177 Z" id="路径-5备份" fill="url(#linearGradient-1)" transform="translate(178.590042, 64.137877) scale(-1, 1) translate(-178.590042, -64.137877) "></path>
                <polygon id="路径-2" fill="url(#linearGradient-2)" opacity="0.5" points="64.303232 0 184.201603 21.2523041 160.934315 149.99928 43.4498218 126.083885"></polygon>
                <g id="路径">
                    <use fill="black" fill-opacity="1" filter="url(#filter-6)" xlink:href="#path-5"></use>
                    <use stroke="url(#linearGradient-4)" stroke-width="0.5" fill="url(#linearGradient-3)" fill-rule="evenodd" xlink:href="#path-5"></use>
                </g>
                <polygon id="路径-3" stroke="url(#linearGradient-7)" stroke-width="0.5" fill="#C3D9FF" points="62 21.6895796 158.97814 21.6895796 158.97814 85.2823282 62 85.2823282"></polygon>
                <polygon id="路径-3备份" fill="#C3D9FF" points="79.9781399 94.5034793 158.97814 94.5034793 158.97814 104.503479 79.9781399 104.503479"></polygon>
                <polygon id="路径-3备份-3" fill="#C3D9FF" points="62.2166097 94.5034793 71.2166097 94.5034793 71.2166097 104.503479 62.2166097 104.503479"></polygon>
                <polygon id="路径-3备份-2" fill="#C3D9FF" points="79.9781399 113.503479 158.97814 113.503479 158.97814 123.503479 79.9781399 123.503479"></polygon>
                <polygon id="路径-3备份-4" fill="#C3D9FF" points="62.2166097 113.503479 71.2166097 113.503479 71.2166097 123.503479 62.2166097 123.503479"></polygon>
                <path d="M78,76.6895796 L142.772671,76.6895796 C136.734332,63.7560597 131.775227,57.2892998 127.895356,57.2892998 C124.749491,57.3702572 121.818829,60.6036371 119.103367,66.9894397 C109.065865,52.3809911 102.903965,45.5041718 100.617667,46.3589815 C97.7864493,47.5727155 90.2472271,57.6829148 78,76.6895796 Z" id="路径-4" stroke="url(#linearGradient-9)" stroke-width="0.5" fill="url(#linearGradient-8)"></path>
                <circle id="椭圆形" stroke="url(#linearGradient-11)" stroke-width="0.5" fill="url(#linearGradient-10)" cx="134.276987" cy="38.6895796" r="8"></circle>
                <g id="形状结合">
                    <use fill="black" fill-opacity="1" filter="url(#filter-15)" xlink:href="#path-14"></use>
                    <use stroke="url(#linearGradient-13)" stroke-width="0.5" fill="url(#linearGradient-12)" fill-rule="evenodd" xlink:href="#path-14"></use>
                </g>
                <ellipse id="椭圆形" fill="#F3F4F9" filter="url(#filter-16)" cx="111.5" cy="175.18958" rx="79.5" ry="6.5"></ellipse>
                <circle id="椭圆形" fill="#FFFFFF" opacity="0.5" cx="155" cy="118.68958" r="12"></circle>
            </g>
        </g>
    </g>
</svg>