<?xml version="1.0" encoding="UTF-8"?>
<svg width="14px" height="14px" viewBox="0 0 14 14" version="1.1" xmlns="http://www.w3.org/2000/svg" xmlns:xlink="http://www.w3.org/1999/xlink">
    <!-- Generator: Sketch 55.2 (78181) - https://sketchapp.com -->
    <title>search_slice</title>
    <desc>Created with Sketch.</desc>
    <g id="页面1" stroke="none" stroke-width="1" fill="none" fill-rule="evenodd">
        <g id="画板" transform="translate(-255.000000, 0.000000)" fill="#4D94FF">
            <path d="M264.910095,8.73955572 C265.597165,7.80245935 265.965226,6.66953223 265.960095,5.50755572 C265.946985,2.47441147 263.493717,0.0175744397 260.460595,5.57178262e-05 C259.009075,-0.00651157295 257.615216,0.567712287 256.589531,1.59480646 C255.563845,2.62190064 254.991535,4.01654626 255.000095,5.46805572 C255.013204,8.50147611 257.466697,10.958537 260.500095,10.9760557 C261.666805,10.9811124 262.803871,10.6087552 263.741595,9.91455572 L263.745595,9.91155572 L267.575095,13.7430557 C267.782144,13.9602692 268.09066,14.0481921 268.38111,13.9727584 C268.671559,13.8973248 268.898302,13.6703873 268.973487,13.3798737 C269.048672,13.0893602 268.960485,12.7809186 268.743095,12.5740557 L264.910095,8.73955572 Z M260.496095,9.87805572 C258.069509,9.86409673 256.106747,7.89865842 256.096095,5.47205572 C256.089545,4.31099854 256.547431,3.19550612 257.367825,2.37389147 C258.188219,1.55227681 259.303029,1.09273279 260.464095,1.09755572 C262.890681,1.1115147 264.853442,3.07695301 264.864095,5.50355572 C264.870644,6.6646129 264.412758,7.78010532 263.592364,8.60171997 C262.771971,9.42333462 261.65716,9.88287864 260.496095,9.87805572 Z" id="Search"></path>
        </g>
    </g>
</svg>