<?xml version="1.0" encoding="UTF-8"?>
<svg width="16px" height="15px" viewBox="0 0 16 15" version="1.1" xmlns="http://www.w3.org/2000/svg" xmlns:xlink="http://www.w3.org/1999/xlink">
    <!-- Generator: Sketch 55.2 (78181) - https://sketchapp.com -->
    <title>客服_slice</title>
    <desc>Created with Sketch.</desc>
    <g id="页面1" stroke="none" stroke-width="1" fill="none" fill-rule="evenodd">
        <g id="画板" transform="translate(-20.000000, -150.000000)" fill="#666666" fill-rule="nonzero">
            <g id="客服" transform="translate(20.000000, 150.000000)">
                <path d="M7.85409805,14.9999851 L7.85409846,14.9999851 C6.09160499,15.0033299 4.37901096,14.4424002 2.99098608,13.4071456 L0.863029595,13.7947316 L0.8630296,13.7947316 C0.66923016,13.8305293 0.470025845,13.7658947 0.339395983,13.6248313 L0.339395956,13.6248313 C0.205181541,13.4794849 0.16462346,13.276027 0.233555063,13.0938917 L0.95215915,11.0922454 L0.952159706,11.0922463 C-1.1149708,7.46398401 0.295269861,2.92553621 4.10200187,0.95533768 C4.9240593,0.529875043 5.81934457,0.248003171 6.74554997,0.123040888 L6.7455496,0.123040952 C11.0067798,-0.619017996 15.0923401,2.07186902 15.8709065,6.13331168 C16.6494683,10.1947543 13.8262131,14.0887633 9.56498283,14.8308266 C9.35804694,14.8668629 9.14967416,14.8949496 8.94036856,14.9150189 L8.94036906,14.9150189 C8.58075966,14.9670891 8.21781236,14.9954732 7.85410742,14.9999851 L7.85409805,14.9999851 Z M3.31089869,12.2216902 L3.31089866,12.2216902 C3.44204486,12.2214511 3.56914123,12.2640662 3.67012238,12.3421378 L3.67012252,12.3421379 C6.52701237,14.5919313 10.7977374,14.2549354 13.2090739,11.5894435 C15.6204104,8.92394583 15.2592171,4.93933024 12.4023334,2.68953686 C9.54544356,0.439743483 5.2747185,0.776739343 2.86338201,3.44223126 C1.61807014,4.81880142 1.06204513,6.62600854 1.33516373,8.40925783 L1.33516375,8.40925793 C1.45722096,9.22878516 1.75297028,10.0174358 2.20516033,10.7291926 L2.20516033,10.7291926 C2.28724627,10.8610677 2.30364196,11.0197767 2.25006345,11.1638516 L1.76174323,12.4887759 L3.20425434,12.2321701 L3.20425435,12.2321701 C3.23893764,12.2232028 3.27497476,12.2196636 3.31089914,12.2216964 L3.31089869,12.2216902 Z" id="形状"></path>
                <path d="M8.02666159,11.4472872 L8.02666182,11.4472872 C6.23878295,11.4579801 4.59310531,10.4122158 3.75479126,8.73268036 L3.75479121,8.73268026 C3.61692746,8.45659303 3.71478115,8.11391986 3.97372483,7.96600037 L3.97372482,7.96600038 C4.23168313,7.81398578 4.55667033,7.91315668 4.69960223,8.18750437 C4.70541299,8.19865764 4.71086892,8.2100159 4.71596075,8.22155971 L4.71596096,8.22156012 C5.67934374,10.1633627 7.94042141,10.9069161 9.76621865,9.88232308 C10.2234988,9.62570871 10.6257502,9.27098897 10.9475436,8.84059 L10.9475436,8.84059005 C11.1322387,8.59606926 11.4683451,8.5570828 11.698258,8.7535121 C11.6989934,8.75414045 11.6997273,8.75477087 11.7004596,8.75540334 L11.7004596,8.75540334 C11.927796,8.95213893 11.963543,9.30698558 11.7805571,9.5504786 L11.7805571,9.55047866 C10.8642968,10.7552454 9.48360867,11.4528937 8.0266537,11.4473005 L8.02666159,11.4472872 Z" id="路径"></path>
            </g>
        </g>
    </g>
</svg>