<?xml version="1.0" encoding="UTF-8"?>
<svg width="69px" height="69px" viewBox="0 0 69 69" version="1.1" xmlns="http://www.w3.org/2000/svg" xmlns:xlink="http://www.w3.org/1999/xlink">
    <!-- Generator: Sketch 57.1 (83088) - https://sketch.com -->
    <title>编组 7备份</title>
    <desc>Created with Sketch.</desc>
    <g id="页面1" stroke="none" stroke-width="1" fill="none" fill-rule="evenodd">
        <g id="9-车库管理维护-已通过-更多" transform="translate(-218.000000, -276.000000)">
            <g id="编组-7备份" transform="translate(220.000000, 278.000000)">
                <g id="停用-方">
                    <path d="M9.66130293,0.661178947 C8.59642169,2.88284279 8,5.37177052 8,8 L8,8 L8,40 C8,49.3888407 15.6111593,57 25,57 L25,57 L57,57 C59.6282295,57 62.1171572,56.4035783 64.3388211,55.3386971 C61.5994963,61.053621 55.7606113,65 49,65 L17,65 C7.61115925,65 1.14980138e-15,57.3888407 0,48 L0,16 C-8.19398682e-16,9.309102 3.86541104,3.52101912 9.48495787,0.747026609 Z" id="形状结合" fill="#EEEFFC"></path>
                    <path d="M65,25.4421387 L65,52 C65,59.1797017 59.1797017,65 52,65 L13,65 C5.82029825,65 0,59.1797017 0,52 L0,13 C0,5.82029825 5.82029825,0 13,0 L13,0 L40.759073,0" id="形状" stroke="#0579FF" stroke-width="3" stroke-linecap="round"></path>
                    <path d="M46,0 L51.4786028,0 C58.9462643,0 65,5.68745129 65,12.703278 L65,19" id="路径" stroke="#F25643" stroke-width="3" stroke-linecap="round"></path>
                    <path d="M33.3361411,48.4846036 L18.4833972,39.9264835 L18.4833972,22.8102433 L33.3361411,14.2521232 L38.5929697,17.2810969 C39.2000571,17.6308994 39.9763367,17.423311 40.3268387,16.8174354 C40.6773408,16.2115597 40.4693373,15.4368295 39.8622499,15.087027 L35.3331449,12.4773662 C34.0970644,11.7651391 32.5752178,11.7651391 31.3391372,12.4773662 L17.9478329,20.1934078 C16.7085404,20.9074856 15.9448367,22.2289394 15.9448367,23.6592376 L15.9448367,39.0774892 C15.9448367,40.5077873 16.7085404,41.8292412 17.9478329,42.5433189 L31.3391372,50.2593606 C32.5752178,50.9715876 34.0970644,50.9715876 35.3331449,50.2593606 L48.7244493,42.5433189 C49.9637417,41.8292412 50.7274454,40.5077873 50.7274454,39.0774892 L50.7274454,33.9255119 L50.7274454,33.9255119 C50.7274454,33.2259069 50.1591693,32.6587651 49.4581652,32.6587651 C48.7571611,32.6587651 48.188885,33.2259069 48.188885,33.9255119 L48.188885,39.9264835 L33.3361411,48.4846036 Z" id="路径" fill="#F25643" fill-rule="nonzero" transform="translate(33.336141, 31.368363) rotate(-330.000000) translate(-33.336141, -31.368363) "></path>
                    <path d="M26.7,36.12 C25.776,36.12 24.888,35.988 24.3,35.844 L24.3,33.792 C24.852,33.948 25.824,34.104 26.568,34.104 C27.564,34.104 27.696,33.936 27.696,33.42 C27.696,33.072 27.54,32.868 26.496,32.616 C24.672,32.196 24.24,31.62 24.24,30.144 C24.24,28.176 25.512,27.552 27.504,27.552 C28.548,27.552 29.196,27.696 29.664,27.852 L29.664,29.76 C29.316,29.628 28.272,29.472 27.612,29.472 C26.844,29.472 26.544,29.652 26.544,30.048 C26.544,30.432 26.724,30.516 27.756,30.78 C29.832,31.32 30.084,31.98 30.084,33.492 C30.084,35.148 29.28,36.12 26.7,36.12 Z M36.716,27.672 L36.716,29.76 L34.724,29.76 L34.724,36 L32.348,36 L32.348,29.76 L30.368,29.76 L30.368,27.672 L36.716,27.672 Z M41.104,36.12 C38.632,36.12 37.18,35.268 37.18,31.836 C37.18,28.416 38.632,27.552 41.104,27.552 C43.588,27.552 45.028,28.416 45.028,31.836 C45.028,35.268 43.588,36.12 41.104,36.12 Z M41.104,34.152 C42.244,34.152 42.52,33.624 42.52,31.836 C42.52,30.024 42.244,29.484 41.104,29.484 C39.964,29.484 39.7,30.024 39.7,31.836 C39.7,33.624 39.964,34.152 41.104,34.152 Z M46.296,36 L46.296,27.672 L49.536,27.672 C52.164,27.672 52.98,28.488 52.98,30.636 C52.98,32.976 52.032,33.732 49.536,33.732 L48.684,33.732 L48.684,36 L46.296,36 Z M48.684,31.836 L49.188,31.836 C50.184,31.836 50.544,31.572 50.544,30.696 C50.544,29.772 50.16,29.508 49.188,29.508 L48.684,29.508 L48.684,31.836 Z" id="STOP" fill="#F25643" fill-rule="nonzero"></path>
                </g>
            </g>
        </g>
    </g>
</svg>