<?xml version="1.0" encoding="UTF-8"?>
<svg width="85px" height="85px" viewBox="0 0 85 85" version="1.1" xmlns="http://www.w3.org/2000/svg" xmlns:xlink="http://www.w3.org/1999/xlink">
    <!-- Generator: Sketch 55.2 (78181) - https://sketchapp.com -->
    <title>停用_slice</title>
    <desc>Created with Sketch.</desc>
    <defs>
        <radialGradient cx="50%" cy="0%" fx="50%" fy="0%" r="163.421813%" gradientTransform="translate(0.500000,0.000000),scale(1.000000,0.813093),rotate(90.000000),translate(-0.500000,-0.000000)" id="radialGradient-1">
            <stop stop-color="#FF5F46" offset="0%"></stop>
            <stop stop-color="#F02D2D" offset="100%"></stop>
        </radialGradient>
        <path d="M80.5866243,23.6205892 C80.9375531,24.327226 80.6491948,25.1845523 79.942558,25.5354811 C79.2359212,25.88641 78.3785949,25.5980517 78.027666,24.8914148 C75.716478,20.2375635 72.5050129,16.0776681 68.5937128,12.655082 C67.9999612,12.1355192 67.9398192,11.2329994 68.4593821,10.6392477 C68.978945,10.045496 69.8814647,9.98535411 70.4752164,10.504917 C74.6669238,14.1728737 78.1088428,18.6312821 80.5866243,23.6205892 Z" id="path-2"></path>
        <filter x="-55.4%" y="-25.8%" width="210.8%" height="203.0%" filterUnits="objectBoundingBox" id="filter-3">
            <feOffset dx="0" dy="5" in="SourceAlpha" result="shadowOffsetOuter1"></feOffset>
            <feGaussianBlur stdDeviation="1.5" in="shadowOffsetOuter1" result="shadowBlurOuter1"></feGaussianBlur>
            <feColorMatrix values="0 0 0 0 0   0 0 0 0 0   0 0 0 0 0  0 0 0 0.05 0" type="matrix" in="shadowBlurOuter1"></feColorMatrix>
        </filter>
    </defs>
    <g id="页面1" stroke="none" stroke-width="1" fill="none" fill-rule="evenodd">
        <g id="画板" transform="translate(-115.000000, -49.000000)">
            <g id="停用" transform="translate(115.000000, 49.000000)">
                <g id="编组-2">
                    <g id="编组-6">
                        <g id="编组备份">
                            <g id="编组-9">
                                <g id="编组-2" transform="translate(0.000000, 0.000000)">
                                    <path d="M13.7281657,11.2197956 C9.98775203,17.944554 7.85714286,25.6877475 7.85714286,33.9285714 C7.85714286,59.7676079 28.8038206,80.7142857 54.6428571,80.7142857 C57.2745046,80.7142857 59.8554038,80.4970066 62.3685939,80.0794092 C56.4392678,83.2208099 49.67741,85 42.5,85 C19.0278981,85 -2.06057393e-13,65.9721019 -2.06057393e-13,42.5 C-2.06057393e-13,30.1258608 5.28830934,18.9868724 13.7281638,11.219799 Z" id="形状结合" fill="#EEEFFC"></path>
                                    <path d="M62.7821867,5.14296595 C63.4752392,5.52001334 63.7314121,6.38750078 63.3543647,7.08055336 C62.9773173,7.77360594 62.1098298,8.02977876 61.4167773,7.65273136 C55.6602737,4.52097089 49.2020579,2.85714286 42.5,2.85714286 C20.6058546,2.85714286 2.85714286,20.6058546 2.85714286,42.5 C2.85714286,64.3941454 20.6058546,82.1428571 42.5,82.1428571 C64.3941454,82.1428571 82.1428571,64.3941454 82.1428571,42.5 C82.1428571,39.4024208 81.7878567,36.3522751 81.0916789,33.3910429 C80.911115,32.6230043 81.3873574,31.85401 82.155396,31.6734462 C82.9234346,31.4928823 83.6924289,31.9691247 83.8729927,32.7371634 C84.6194638,35.9123205 85,39.1818685 85,42.5 C85,65.9721019 65.9721019,85 42.5,85 C19.0278981,85 0,65.9721019 0,42.5 C0,19.0278981 19.0278981,0 42.5,0 C49.6820562,0 56.6092531,1.78465148 62.7821867,5.14296595 Z" id="形状" fill="#0579FF" fill-rule="nonzero"></path>
                                    <g id="形状">
                                        <use fill="black" fill-opacity="1" filter="url(#filter-3)" xlink:href="#path-2"></use>
                                        <use fill="url(#radialGradient-1)" fill-rule="evenodd" xlink:href="#path-2"></use>
                                    </g>
                                </g>
                                <g id="编组-3" transform="translate(15.000000, 14.000000)" fill="#F25643">
                                    <path d="M28.0442236,46.8303824 L11.8176009,37.3309912 L11.8176009,18.3322087 L28.0442236,8.83281742 L33.7873089,12.194935 C34.4505518,12.5832108 35.2986373,12.3527907 35.6815608,11.6802774 C36.0644843,11.007764 35.8372405,10.1478245 35.1739975,9.75954877 L30.4692512,7.00529565 C28.9714583,6.1284576 27.1169889,6.1284576 25.6191961,7.00529565 L11.4191961,15.3182612 C9.94819145,16.1794169 9.04422361,17.7560965 9.04422361,19.4606327 L9.04422361,36.2025672 C9.04422361,37.9071034 9.94819145,39.483783 11.4191961,40.3449386 L25.6191961,48.6579042 C27.1169889,49.5347422 28.9714583,49.5347422 30.4692512,48.6579042 L44.6692512,40.3449386 C46.1402558,39.483783 47.0442236,37.9071034 47.0442236,36.2025672 L47.0442236,30.6699983 C47.0442236,29.8934468 46.423382,29.2639274 45.657535,29.2639274 C44.891688,29.2639274 44.2708463,29.8934468 44.2708463,30.6699983 L44.2708463,37.3309912 L28.0442236,46.8303824 Z" id="路径" fill-rule="nonzero" transform="translate(28.000000, 28.500000) rotate(-330.000000) translate(-28.000000, -28.500000) "></path>
                                    <text id="STOP" font-family="AlibabaPuHuiTiH, Alibaba PuHuiTi" font-size="14.4" font-weight="600" letter-spacing="-0.120000002">
                                        <tspan x="16.1968" y="33">STOP</tspan>
                                    </text>
                                </g>
                            </g>
                        </g>
                    </g>
                </g>
            </g>
        </g>
    </g>
</svg>