<?xml version="1.0" encoding="UTF-8"?>
<svg width="179px" height="198px" viewBox="0 0 179 198" version="1.1" xmlns="http://www.w3.org/2000/svg" xmlns:xlink="http://www.w3.org/1999/xlink">
    <!-- Generator: Sketch 55.2 (78181) - https://sketchapp.com -->
    <title>成功界面_slice</title>
    <desc>Created with Sketch.</desc>
    <g id="页面1" stroke="none" stroke-width="1" fill="none" fill-rule="evenodd">
        <g id="画板" transform="translate(-95.000000, -163.000000)">
            <g id="成功界面" transform="translate(95.000000, 163.000000)">
                <g id="编组-2" transform="translate(42.200000, 0.000000)">
                    <rect id="矩形备份-3" fill="#A1CCFF" opacity="0.800000012" x="22" y="74.8" width="114.8" height="96" rx="6"></rect>
                    <path d="M131.196959,74.8 C130.948063,74.8270578 130.658878,74.8405867 130.329406,74.8405867 C127.469415,75.0827785 125.804111,76.7503784 125.333494,79.8433865 L125.2,84.1194513 L125.2,90.2 C125.2,93.4032515 122.603252,96 119.4,96 C116.196748,96 113.6,93.4032515 113.6,90.2 L113.6,74.8 L120.702214,74.8 L131.196959,74.8 Z M119.4,0 C122.603252,-5.88427763e-16 125.2,2.59674845 125.2,5.8 L125.2,12 L113.6,12 L113.6,5.8 C113.6,2.59674845 116.196748,5.88427763e-16 119.4,0 Z" id="形状结合" fill="#98B8E3"></path>
                    <path d="M120.2,0 L120,0 C116.686292,1.4968968e-15 114,2.6862915 114,6 L114,90 C114,93.3137085 116.686292,96 120,96 L120.4,96 L6,96 C2.6862915,96 1.29399067e-15,93.3137085 0,90 L0,6 C4.82366169e-16,2.6862915 2.6862915,1.4968968e-15 6,0 L120.2,0 Z" id="形状结合" fill="#DBEAFF" opacity="0.98999995"></path>
                    <rect id="矩形" fill="#FFFFFF" x="10" y="18.8" width="90.4" height="26" rx="2.4"></rect>
                    <rect id="矩形备份-5" fill="#FFFFFF" x="10" y="52" width="90.4" height="26" rx="2.4"></rect>
                    <rect id="矩形备份-7" fill="#FFFFFF" x="62.8" y="115.6" width="50.8" height="13.6" rx="2.4"></rect>
                    <rect id="矩形备份-9" fill="#FFFFFF" x="62.8" y="142" width="50.8" height="13.6" rx="2.4"></rect>
                    <rect id="矩形备份-8" fill="#FFFFFF" x="62.8" y="109.2" width="38" height="3.2" rx="1.6"></rect>
                    <rect id="矩形备份-10" fill="#FFFFFF" x="62.8" y="135.6" width="38" height="3.2" rx="1.6"></rect>
                    <circle id="椭圆形" fill="#A1CCFE" cx="86.2" cy="31.8" r="9.8"></circle>
                    <circle id="椭圆形备份" fill="#A1CCFE" cx="86.2" cy="65" r="9.8"></circle>
                    <ellipse id="椭圆形备份-2" fill="#98B8E3" cx="46" cy="115.4" rx="7.2" ry="7"></ellipse>
                    <ellipse id="椭圆形备份-3" fill="#98B8E3" cx="46" cy="139.8" rx="7.2" ry="7"></ellipse>
                    <polyline id="路径" stroke="#FFFFFF" stroke-width="2" stroke-linecap="round" stroke-linejoin="round" points="81.6 30.8015748 85.5723379 34.8 90.8 29.2"></polyline>
                    <polyline id="路径备份" stroke="#FFFFFF" stroke-width="2" stroke-linecap="round" stroke-linejoin="round" points="81.6 64.0015748 85.5723379 68 90.8 62.4"></polyline>
                </g>
                <g id="编组" transform="translate(0.000000, 81.200000)">
                    <polygon id="路径-14" fill="#FDCAC6" points="11.7361772 104.00017 5.86003552 103.407237 4.90040554 107.569004 10.8229931 108.160439"></polygon>
                    <polygon id="路径-16" fill="#FDCAC6" points="57.5905338 104.991637 55.6652808 111.774221 60.3645461 111.774221 61.7444356 104.991637"></polygon>
                    <polygon id="路径-18" fill="#E8AE05" points="49.5190787 51.9796642 56.8782266 60.1198368 61.0140673 58.4839024 58.6313925 43.3167998 53.6341601 41.5003087"></polygon>
                    <path d="M19.2932975,66.5053868 C14.8241449,75.9897436 17.0836574,84.8362495 26.071835,93.0449044 C30.2292055,96.3330702 33.3628439,99.9917864 35.4727504,104.021053 C24.573218,103.082292 15.8407905,102.612911 9.27546787,102.612911 C7.90037691,106.090847 7.40705123,108.178443 7.79549083,108.875701 L10.7297743,109.515978 C31.0570958,114.641753 42.3705582,116.921133 44.6701613,116.354118 C48.4624714,115.364322 50.2121106,113.084942 49.9190787,109.515978 L43.2717024,85.7986497 L41.6095778,78.4057054 C53.5120591,78.328628 60.3382427,78.6272712 62.0881288,79.3016349 C61.2552858,82.8469412 59.6379322,91.8513883 57.2360679,106.314976 L62.0881288,107.49365 C72.4813683,88.442303 77.3649724,76.251481 76.7389411,70.9211841 C75.6491734,66.1919892 72.3450954,63.8419317 66.826707,63.8710118 L35.4727504,62.3589024 L19.2932975,66.5053868 Z" id="路径-13" fill="#303763"></path>
                    <path d="M35.997985,25.3491368 C28.2841829,27.9223139 24.0416048,34.3737462 23.2702506,44.7034337 C21.6863964,53.9326004 20.3607454,61.2768712 19.2932975,66.7362462 C24.9021194,72.1130691 32.8606741,73.8990066 43.1689614,72.0940587 C44.1875292,69.6909337 49.5140006,59.1070795 59.1483756,40.3424962 C61.5371576,32.7177566 57.5050562,27.9741368 47.0520715,26.1116368 C41.5477846,25.7496577 37.8630892,25.495491 35.997985,25.3491368 Z" id="路径-8" fill="#FFC300"></path>
                    <path d="M38.6194694,25.1491368 L37.8119724,25.2004599 L35.4727504,25.3491368 L42.0641959,33.1940587 C43.2869824,28.5924962 46.2206412,27.9212722 50.8651725,31.1803868 C47.8998079,26.7556472 44.7840527,23.7635899 41.5179069,22.2042149 L38.6194694,25.1491368 Z" id="路径-7" fill="#FFFFFF"></path>
                    <path d="M40.8218131,19.2499181 C40.0317089,23.0493972 39.2975944,25.0158035 38.6194694,25.1491368 C39.8996777,26.0254389 42.0099642,27.2908035 44.9503287,28.9452306 L45.5089225,21.8417149 L40.8218131,19.2499181 Z" id="路径-6" fill="#FECAC5"></path>
                    <path d="M41.5179069,20.5221837 C37.7616569,19.9943191 36.3395214,18.489241 37.2515006,16.0069493 C38.1634798,13.5246577 39.2876985,13.3145014 40.6241569,15.3764806 L41.5179069,20.5221837 Z" id="路径-5" fill="#FECAC5"></path>
                    <path d="M55.1597037,8.63741807 C55.3464024,18.304866 52.6438583,24.1296056 47.0520715,26.1116368 C44.4881492,26.1074702 42.1975944,24.2355952 40.1804069,20.4960118 L38.6194694,14.3893712 L43.5436881,2.90499619 L55.1597037,8.63741807 Z" id="路径-4" fill="#FECAC5"></path>
                    <path d="M42.1640006,2.97023057 C39.4832714,1.25252223 37.6391308,1.56020453 36.6315787,3.89327744 C35.1202506,7.39288682 35.0530631,13.3846837 36.6315787,16.5506993 C37.4581412,15.3577306 38.623636,16.0631993 40.1280631,18.6671056 L40.1280631,13.8549962 C40.0981152,12.6365086 41.1440787,11.4423034 43.2659537,10.2723805 C43.9373079,8.82485346 44.1190787,7.76619411 43.8112662,7.09640244 C48.5432975,10.446144 52.6481152,11.5048034 56.1257194,10.2723805 C58.8468131,8.48761388 59.3516308,6.95851182 57.6401725,5.68507432 L50.0311881,1.38585557 C48.3455318,0.245465088 46.8392818,-0.191123453 45.5124381,0.0760899432 C44.1855945,0.34330334 43.0694486,1.30801688 42.1640006,2.97023057 Z" id="路径-3" fill="#391E15"></path>
                    <path d="" id="路径-9" stroke="#979797" stroke-width="0.5"></path>
                    <path d="M50.8651725,58.8839024 C46.4578808,54.0815587 42.9442089,49.9006993 40.3241569,46.3413243 C36.3327506,39.6565587 33.9569694,33.6171056 28.8151725,34.8100743 C25.0643912,35.0418452 23.4188183,37.4391108 23.8784537,42.0018712 C24.4414936,44.2607254 27.1443582,47.2139806 31.9870475,50.8616368 C36.8297368,54.5092931 41.3370285,58.8457514 45.5089225,63.8710118 C46.208221,62.0825414 46.9535335,60.8199112 47.74486,60.0831212 C48.5361864,59.3463312 49.5762906,58.9465916 50.8651725,58.8839024 Z" id="路径-10" fill="#FDD45B"></path>
                    <path d="M45.5089225,63.8710118 L48.7034537,66.2339024 C49.1813183,62.9831212 50.2500683,60.3997879 51.9097037,58.4839024 C51.2137409,58.6572115 49.4685781,58.4561565 47.8561881,59.9405431 C46.7812614,60.9301341 45.9988395,62.2402903 45.5089225,63.8710118 Z" id="路径-11" fill="#FFFFFF"></path>
                    <path d="M6.44360441,111.925919 C5.15760535,110.324039 4.83610559,108.276678 5.47910512,105.783838 C6.43099413,102.036212 5.73156047,100.364038 3.38080413,100.767318 C1.12693471,100.720123 -1.95399252e-14,102.392296 -1.95399252e-14,105.783838 C-1.95399252e-14,110.87115 0.690881145,114.064673 2.94818406,114.064673 C4.45305266,114.064673 5.29669302,114.064673 5.47910512,114.064673 C6.33742021,113.912951 6.82797266,113.700949 6.95076249,113.428665 C7.07355231,113.156382 6.90449962,112.655466 6.44360441,111.925919 Z" id="路径-15" fill="#303763"></path>
                    <path d="M55.1232884,110.331031 L59.8149053,109.570668 C60.5509012,109.115449 61.6534168,109.368904 63.1224523,110.331031 C64.5914877,111.293158 67.2226667,112.299733 71.0159894,113.350756 C72.6665629,114.565078 72.6665629,115.594437 71.0159894,116.438832 C67.6179554,116.575303 63.1364359,116.575303 57.5714311,116.438832 C55.1008146,116.443207 53.7888459,116.080071 53.6355248,115.349423 C53.604561,113.732061 54.1004822,112.059263 55.1232884,110.331031 Z" id="路径-17" fill="#303763"></path>
                    <circle id="椭圆形" fill="#FFFFFF" cx="69.1382194" cy="39.5491368" r="18.2"></circle>
                    <circle id="椭圆形" fill="#8EDC86" cx="69.1382194" cy="39.5491368" r="14"></circle>
                    <path d="M51.9097037,58.4839024 L78.1007194,47.4596837 C79.4350944,44.3844233 80.6794954,42.3979649 81.8339225,41.5003087 C81.7755892,42.4031733 81.5412142,43.9418452 81.1307975,46.1163243 C84.0097037,45.5671056 85.7413444,44.6604649 86.3257194,43.3964024 C86.7626985,46.1292149 85.0310579,48.0853446 81.1307975,49.2647914 C77.6235058,52.4447196 74.0968131,54.6758295 70.5507194,55.9581212 C66.2442089,58.4948399 60.2843131,61.6525222 52.6710319,65.4311681 C51.1145214,66.8634597 49.5317089,66.8634597 47.9225944,65.4311681 C46.3134798,63.9988764 47.6425162,61.6831212 51.9097037,58.4839024 Z" id="路径-12" fill="#FDCAC6"></path>
                    <path d="" id="路径-40" stroke="#979797" stroke-width="0.5"></path>
                    <polyline id="路径-41" stroke="#FFFFFF" stroke-width="2.8" stroke-linecap="round" stroke-linejoin="round" points="61.2 39.7207675 68.2118017 45.7207675 78.1773853 34.8"></polyline>
                </g>
            </g>
        </g>
    </g>
</svg>