<?xml version="1.0" encoding="UTF-8"?>
<svg width="17px" height="16px" viewBox="0 0 17 16" version="1.1" xmlns="http://www.w3.org/2000/svg" xmlns:xlink="http://www.w3.org/1999/xlink">
    <!-- Generator: Sketch 55.2 (78181) - https://sketchapp.com -->
    <title>齿轮_slice</title>
    <desc>Created with Sketch.</desc>
    <g id="页面1" stroke="none" stroke-width="1" fill="none" fill-rule="evenodd">
        <g id="画板" transform="translate(-20.000000, -90.000000)" fill="#666666" fill-rule="nonzero">
            <g id="齿轮" transform="translate(20.000000, 90.000000)">
                <path d="M11.0480536,16 C10.7387302,16 10.4381847,15.8725319 10.2440609,15.6590771 C9.97948545,15.3699631 9.14148819,14.6182971 8.45544293,14.6182971 C7.77418732,14.6182971 6.92319504,15.3743376 6.67875135,15.6391258 C6.48510462,15.8488718 6.18661997,15.9742097 5.88034977,15.9742097 C5.73456133,15.9742097 5.59680653,15.9462512 5.47116896,15.891228 L5.44928161,15.8815852 L3.36404903,14.7193663 L3.34344019,14.7049496 C2.96376055,14.4399902 2.81946053,13.9220347 3.00743983,13.5 C3.00890917,13.4966847 3.19971264,13.0577928 3.19971264,12.6574533 C3.19971264,11.4427409 2.20833221,10.4545496 0.989319549,10.4545496 L0.915566631,10.4545496 L0.901980065,10.4547398 C0.552984689,10.4547398 0.268678161,10.1455603 0.177808459,9.667032 C0.170690778,9.62916436 0,8.72176747 0,8.00682797 C0,7.29185042 0.170690778,6.38447256 0.177808459,6.34611041 C0.269746767,5.86164808 0.560216864,5.5504145 0.915566631,5.55899226 L0.989319549,5.55899226 C2.2082368,5.55899226 3.19971264,4.57059172 3.19971264,3.35578416 C3.19971264,2.95574897 3.00908091,2.51664792 3.00703911,2.51246366 C2.8191743,2.09061321 2.96454292,1.57286691 3.34567282,1.30876343 L3.36727393,1.29387123 L5.56789691,0.088991805 L5.59075745,0.0793489657 C5.71463946,0.0266652085 5.85044787,0 5.99415634,0 C6.29977775,0 6.59864404,0.122484981 6.79414175,0.327875556 C7.05461454,0.599662881 7.87793754,1.30653816 8.54446166,1.30653816 C9.20423065,1.30653816 10.0224778,0.613585087 10.2822636,0.346571633 C10.4765019,0.145479444 10.7736126,0.0250105201 11.0760854,0.0250105201 C11.222828,0.0250105201 11.3610789,0.0526837572 11.4869264,0.107307494 L11.5091954,0.116950333 L13.6346915,1.29396633 L13.655682,1.30847814 C14.0359341,1.57305711 14.1805395,2.09101262 13.9926747,2.51345266 C13.9909954,2.51657185 13.8002874,2.95574897 13.8002874,3.35587926 C13.8002874,4.57068681 14.7916678,5.55908735 16.0104896,5.55908735 L16.0844334,5.55908735 C16.4391916,5.55100411 16.7299479,5.86164808 16.8219816,6.34620551 C16.8292329,6.38447256 17,7.29185042 17,8.00680895 C17,8.72157728 16.8292138,9.62916436 16.8219816,9.66724121 C16.7300433,10.1518937 16.4391916,10.461853 16.0844525,10.4547398 L16.0104896,10.4547398 C14.7916678,10.4547398 13.8002874,11.4429501 13.8002874,12.6576626 C13.8002874,13.0578879 13.9909954,13.4966847 13.9929609,13.5011542 C14.1805395,13.9224341 14.0357433,14.4404847 13.6551096,14.7048545 L13.6336993,14.7195565 L11.472443,15.9102284 L11.4499832,15.9198712 C11.326292,15.9731256 11.1909797,16 11.0480536,16 Z M10.9144142,14.6395324 L10.917488,14.6395324 L12.8310647,13.5846969 C12.7848662,13.4775722 12.5735103,12.9583601 12.5735103,12.416641 C12.5735103,10.7964252 13.8530372,9.46851191 15.4571291,9.38558946 C15.4800927,9.25844653 15.6054345,8.54321791 15.6054345,8.00645831 C15.6054345,7.46980691 15.4800927,6.75484881 15.4571291,6.62732715 C13.8530372,6.54431453 12.5735103,5.21652748 12.5735103,3.59629364 C12.5735103,3.05381711 12.7853363,2.53388365 12.8312455,2.42767872 L10.9488596,1.38456561 C10.9468345,1.3844574 10.9439595,1.38427706 10.9409941,1.38427706 C10.9089716,1.38427706 10.8789742,1.39581911 10.8691559,1.402564 C10.8374046,1.43497192 10.5645712,1.71088111 10.1727789,1.98594268 C9.59250389,2.39316077 9.0439802,2.59952909 8.54221555,2.59952909 C8.03535189,2.59952909 7.48219931,2.38899481 6.8983984,1.97375139 C6.50429165,1.69342376 6.22988516,1.41226654 6.19842316,1.37929955 C6.18833362,1.37244645 6.15804692,1.36054371 6.12564468,1.36054371 L6.11879175,1.36072405 L4.1691061,2.42879686 C4.21575665,2.53718396 4.42638931,3.05549432 4.42638931,3.59629364 C4.42638931,5.21650945 3.14704315,6.54431453 1.54286089,6.62741732 C1.51971643,6.75466846 1.39437472,7.46980691 1.39437472,8.00656651 C1.39437472,8.54312774 1.51971643,9.25797763 1.54286089,9.38569767 C3.14706124,9.46862011 4.42638931,10.796317 4.42638931,12.4165508 C4.42638931,12.9602176 4.21374959,13.4811791 4.16836476,13.5859953 L6.01371952,14.6151678 C6.03660813,14.6158555 6.05926637,14.6104393 6.07935576,14.5994779 C6.11389163,14.5625433 6.38958193,14.2715934 6.78665406,13.981455 C7.37832047,13.5488624 7.94064042,13.3295634 8.45786485,13.3295634 C8.98009788,13.3295634 9.5467755,13.5530103 10.1418593,13.9937364 C10.5411555,14.2895016 10.8180573,14.5859881 10.8522134,14.6233014 C10.8615616,14.629397 10.8872917,14.6395324 10.9144142,14.6395324 Z M8.4625797,10.9295592 C6.8395766,10.9295592 5.51914175,9.61337825 5.51914175,7.99572063 C5.51914175,6.378044 6.8395766,5.06197711 8.4625797,5.06197711 C10.0858881,5.06197711 11.4062085,6.378044 11.4062085,7.99572063 C11.4062085,9.61339727 10.0859072,10.9295592 8.46259878,10.9295592 L8.4625797,10.9295592 Z M8.46259193,6.22508421 C7.48325058,6.22508421 6.68634035,7.01941479 6.68634035,7.99562472 C6.68634035,8.97190424 7.48314587,9.76614785 8.46259193,9.76614785 C9.4422125,9.76614785 10.2391053,8.97190424 10.2391053,7.99562472 C10.2391053,7.01943218 9.4422125,6.22508421 8.46259193,6.22508421 Z" id="形状"></path>
            </g>
        </g>
    </g>
</svg>