<?xml version="1.0" encoding="UTF-8"?>
<svg width="69px" height="69px" viewBox="0 0 69 69" version="1.1" xmlns="http://www.w3.org/2000/svg" xmlns:xlink="http://www.w3.org/1999/xlink">
    <!-- Generator: Sketch 59.1 (86144) - https://sketch.com -->
    <title>task_log@2x</title>
    <desc>Created with Sketch.</desc>
    <g id="页面-1" stroke="none" stroke-width="1" fill="none" fill-rule="evenodd">
        <g id="鼎佳汽车金融外包服务系统" transform="translate(-655.000000, -473.000000)">
            <g id="task_log" transform="translate(657.000000, 475.000000)">
                <path d="M64.3387372,55.3387372 C61.5995534,61.0535824 55.7606443,65 49,65 L17,65 C7.61115925,65 0,57.3888407 0,48 L0,16 C0,9.23935568 3.9464176,3.40044658 9.66126276,0.661262759 C8.59640669,2.88290539 8,5.37180357 8,8 L8,40 C8,49.3888407 15.6111593,57 25,57 L57,57 C59.6281964,57 62.1170946,56.4035933 64.3387372,55.3387372 Z" id="形状结合" fill="#EEEFFC" fill-rule="nonzero"></path>
                <path d="M65,25.4421387 L65,52 C65,59.1797017 59.1797017,65 52,65 L13,65 C5.82029825,65 0,59.1797017 0,52 L0,13 C0,5.82029825 5.82029825,0 13,0 L13,0 L40.759073,0" id="形状" stroke="#0579FF" stroke-width="3" stroke-linecap="round"></path>
                <g id="信息" transform="translate(16.000000, 18.000000)">
                    <g id="编组-12">
                        <path d="M17,29.023657 L23.0501887,23.9 L31,23.9 C32.3807119,23.9 33.5,22.7807119 33.5,21.4 L33.5,3 C33.5,1.61928813 32.3807119,0.5 31,0.5 L3,0.5 C1.61928813,0.5 0.5,1.61928813 0.5,3 L0.5,21.4 C0.5,22.7807119 1.61928813,23.9 3,23.9 L10.9498113,23.9 L17,29.023657 Z" id="矩形" stroke="#0CCF61" stroke-width="3"></path>
                        <rect id="矩形" fill="#0CCF61" fill-rule="nonzero" x="6" y="6" width="21.6" height="3" rx="1.2"></rect>
                        <rect id="矩形备份" fill="#0CCF61" fill-rule="nonzero" x="6" y="10.8" width="16" height="3" rx="1.2"></rect>
                        <rect id="矩形备份-2" fill="#0CCF61" fill-rule="nonzero" x="6" y="15.6" width="11.2" height="3" rx="1.2"></rect>
                    </g>
                </g>
                <path d="M46,0 L51.4786028,0 C58.9462643,0 65,5.68745129 65,12.703278 L65,19" id="路径" stroke="#0CCF61" stroke-width="3" stroke-linecap="round"></path>
            </g>
        </g>
    </g>
</svg>