<?xml version="1.0" encoding="UTF-8"?>
<svg width="27px" height="27px" viewBox="0 0 27 27" version="1.1" xmlns="http://www.w3.org/2000/svg" xmlns:xlink="http://www.w3.org/1999/xlink">
    <!-- Generator: Sketch 55.2 (78181) - https://sketchapp.com -->
    <title>蓝3_slice</title>
    <desc>Created with Sketch.</desc>
    <g id="页面1" stroke="none" stroke-width="1" fill="none" fill-rule="evenodd">
        <g id="画板" transform="translate(-110.000000, -73.000000)">
            <g id="蓝3" transform="translate(110.000000, 73.000000)">
                <circle id="椭圆形备份-5" fill="#589EFF" opacity="0.800000012" cx="13.5" cy="13.5" r="13.5"></circle>
                <path d="M13.224,8 C14.376,8 15.288,8.272 15.992,8.832 C16.664,9.392 17.016,10.16 17.016,11.136 C17.016,12.384 16.376,13.232 15.128,13.648 C15.8,13.856 16.312,14.176 16.664,14.592 C17.048,15.024 17.24,15.584 17.24,16.256 C17.24,17.312 16.872,18.176 16.152,18.848 C15.384,19.52 14.376,19.872 13.16,19.872 C11.992,19.872 11.048,19.568 10.344,18.976 C9.544,18.304 9.096,17.328 9,16.048 L10.76,16.048 C10.792,16.816 11.032,17.408 11.512,17.824 C11.928,18.208 12.472,18.4 13.144,18.4 C13.88,18.4 14.472,18.176 14.92,17.76 C15.304,17.376 15.512,16.912 15.512,16.336 C15.512,15.664 15.304,15.168 14.888,14.848 C14.504,14.528 13.928,14.368 13.176,14.368 L12.344,14.368 L12.344,13.056 L13.16,13.056 C13.864,13.056 14.392,12.896 14.744,12.592 C15.096,12.288 15.288,11.84 15.288,11.264 C15.288,10.688 15.112,10.256 14.792,9.952 C14.44,9.632 13.912,9.488 13.24,9.488 C12.552,9.488 12.008,9.664 11.624,10.016 C11.24,10.368 11,10.896 10.936,11.6 L9.224,11.6 C9.32,10.464 9.736,9.584 10.488,8.944 C11.192,8.304 12.104,8 13.224,8 Z" id="3" fill="#FFFFFF" fill-rule="nonzero"></path>
            </g>
        </g>
    </g>
</svg>