<?xml version="1.0" encoding="UTF-8"?>
<svg width="17px" height="17px" viewBox="0 0 17 17" version="1.1" xmlns="http://www.w3.org/2000/svg" xmlns:xlink="http://www.w3.org/1999/xlink">
    <!-- Generator: Sketch 55.2 (78181) - https://sketchapp.com -->
    <title>时间_slice</title>
    <desc>Created with Sketch.</desc>
    <g id="页面1" stroke="none" stroke-width="1" fill="none" fill-rule="evenodd">
        <g id="画板" transform="translate(-20.000000, -149.000000)" fill="#999999" fill-rule="nonzero">
            <g id="时间" transform="translate(20.000000, 149.000000)">
                <path d="M8.7349299,4.93882549 L7.51007848,4.93882549 L7.51007848,9.83706244 L11.7958897,12.4083154 L12.4083154,11.404358 L8.7349299,9.22463672 L8.7349299,4.93882549 Z M8.50001088,1.48750272 C12.3662404,1.48750272 15.512519,4.63378138 15.512519,8.50001088 C15.512519,12.3662404 12.3662404,15.512519 8.50001088,15.512519 C4.63378138,15.512519 1.48750272,12.3662404 1.48750272,8.50001088 C1.48750272,4.63378138 4.63378138,1.48750272 8.50001088,1.48750272 L8.50001088,1.48750272 Z M0.31875136,8.50001088 C0.31875136,13.0184036 3.98161812,16.6812704 8.50001088,16.6812704 C13.0184036,16.6812704 16.6812704,13.0184036 16.6812704,8.50001088 C16.6812704,3.98161812 13.0184036,0.31875136 8.50001088,0.31875136 C3.98161812,0.31875136 0.31875136,3.98161812 0.31875136,8.50001088 Z" id="形状"></path>
            </g>
        </g>
    </g>
</svg>