<?xml version="1.0" encoding="UTF-8"?>
<svg width="50px" height="23px" viewBox="0 0 50 23" version="1.1" xmlns="http://www.w3.org/2000/svg" xmlns:xlink="http://www.w3.org/1999/xlink">
    <!-- Generator: Sketch 57.1 (83088) - https://sketch.com -->
    <title>编组_8_slice</title>
    <desc>Created with Sketch.</desc>
    <g id="页面-1" stroke="none" stroke-width="1" fill="none" fill-rule="evenodd">
        <g id="画板" transform="translate(-182.000000, -80.000000)">
            <g id="编组-8" transform="translate(181.500000, 80.000000)">
                <path d="M25.8393716,0.35349449 L23.0147356,3.17681778 L22.838,3.25 L5,3.25 C2.37664744,3.25 0.25,5.37664744 0.25,8 L0.25,18 C0.25,20.6233526 2.37664744,22.75 5,22.75 L45,22.75 C47.6233526,22.75 49.75,20.6233526 49.75,18 L49.75,8 C49.75,5.37664744 47.6233526,3.25 45,3.25 L28.84,3.25 L28.6632411,3.17679452 L25.8393716,0.35349449 Z" id="形状结合" stroke="#E3E4E4" stroke-width="0.5" fill="#F8F9FB"></path>
                <path d="M11.596,7.903 L12.498,8.321 C11.948,9.531 11.002,10.631 9.682,11.599 L9.385,10.598 C10.375,9.828 11.112,8.926 11.596,7.903 Z M11.992,10.444 L12.883,10.862 C12.63,11.434 12.311,11.973 11.937,12.479 L11.937,18.067 L10.936,18.067 L10.936,13.623 C10.573,13.975 10.188,14.305 9.781,14.624 L9.484,13.634 C10.606,12.721 11.442,11.654 11.992,10.444 Z M15.71,7.958 L16.711,7.958 L16.711,9.069 L19.098,9.069 L19.098,10.026 L16.711,10.026 L16.711,11.159 L19.549,11.159 L19.549,12.127 L12.949,12.127 L12.949,11.159 L15.71,11.159 L15.71,10.026 L13.345,10.026 L13.345,9.069 L15.71,9.069 L15.71,7.958 Z M12.982,13.227 L17.162,13.227 L17.162,12.501 L18.196,12.501 L18.196,13.227 L19.395,13.227 L19.395,14.206 L18.196,14.206 L18.196,16.802 C18.196,17.616 17.8,18.023 17.019,18.023 L15.457,18.023 L15.215,17.022 C15.721,17.066 16.194,17.088 16.645,17.088 C16.986,17.088 17.162,16.901 17.162,16.549 L17.162,14.206 L12.982,14.206 L12.982,13.227 Z M14.412,14.481 C15.017,15.097 15.479,15.625 15.809,16.076 L14.995,16.648 C14.643,16.153 14.181,15.603 13.598,14.998 L14.412,14.481 Z M22.816,7.881 L23.795,8.343 C23.553,9.091 23.234,9.817 22.86,10.51 L22.86,18.155 L21.815,18.155 L21.815,12.127 C21.463,12.589 21.078,13.04 20.66,13.48 L20.33,12.391 C21.452,11.104 22.288,9.597 22.816,7.881 Z M23.916,10.279 L27.942,10.279 L27.942,8.024 L28.987,8.024 L28.987,10.279 L30.505,10.279 L30.505,11.291 L28.987,11.291 L28.987,16.879 C28.987,17.671 28.602,18.078 27.832,18.078 L26.193,18.078 L25.962,17.055 C26.479,17.099 26.985,17.121 27.469,17.121 C27.777,17.121 27.942,16.945 27.942,16.615 L27.942,11.291 L23.916,11.291 L23.916,10.279 Z M25.049,12.325 C25.863,13.282 26.49,14.118 26.93,14.844 L26.039,15.46 C25.577,14.679 24.961,13.81 24.191,12.853 L25.049,12.325 Z M31.506,8.915 L33.75,8.915 L33.75,7.98 L34.74,7.98 L34.74,8.915 L36.676,8.915 L36.676,9.817 L34.74,9.817 L34.74,10.565 L36.423,10.565 L36.423,11.445 L31.891,11.445 L31.891,10.565 L33.75,10.565 L33.75,9.817 L31.506,9.817 L31.506,8.915 Z M32.254,12.116 L36.082,12.116 L36.082,13.018 L32.254,13.018 L32.254,12.116 Z M31.583,13.645 L36.797,13.645 L36.797,14.558 L34.729,14.558 L34.729,17.121 C34.729,17.781 34.366,18.111 33.662,18.111 L32.76,18.111 L32.551,17.165 C32.815,17.209 33.079,17.231 33.332,17.231 C33.596,17.231 33.739,17.11 33.739,16.879 L33.739,14.558 L31.583,14.558 L31.583,13.645 Z M32.32,14.954 L33.156,15.119 C32.914,15.966 32.584,16.692 32.144,17.308 L31.363,16.813 C31.814,16.241 32.133,15.614 32.32,14.954 Z M35.983,14.855 C36.236,15.35 36.467,15.878 36.665,16.45 L35.851,16.813 C35.642,16.175 35.411,15.603 35.158,15.119 L35.983,14.855 Z M37.622,8.024 L38.579,8.178 C38.513,8.706 38.447,9.19 38.359,9.63 L41.208,9.63 L41.208,10.257 C41.065,11.181 40.878,12.105 40.658,13.029 L39.69,12.754 C39.888,12.127 40.064,11.401 40.196,10.565 L38.139,10.565 C37.886,11.467 37.567,12.193 37.171,12.743 L36.379,12.171 C37.017,11.181 37.435,9.795 37.622,8.024 Z M38.381,11.335 L39.327,11.335 C39.327,12.061 39.294,12.732 39.228,13.348 C39.69,15.02 40.493,16.351 41.615,17.341 L40.922,18.133 C40.064,17.275 39.393,16.241 38.92,15.042 C38.579,16.307 37.82,17.352 36.632,18.188 L35.994,17.429 C37.017,16.703 37.688,15.823 38.007,14.767 C38.249,13.887 38.381,12.743 38.381,11.335 Z" id="待付款" fill="#999999" fill-rule="nonzero"></path>
            </g>
        </g>
    </g>
</svg>