<?xml version="1.0" encoding="UTF-8"?>
<svg width="60px" height="23px" viewBox="0 0 60 23" version="1.1" xmlns="http://www.w3.org/2000/svg" xmlns:xlink="http://www.w3.org/1999/xlink">
    <!-- Generator: Sketch 57.1 (83088) - https://sketch.com -->
    <title>编组_9_slice</title>
    <desc>Created with Sketch.</desc>
    <g id="页面-1" stroke="none" stroke-width="1" fill="none" fill-rule="evenodd">
        <g id="画板" transform="translate(-309.000000, -80.000000)">
            <g id="编组-9" transform="translate(309.000000, 80.000000)">
                <path d="M30.8393716,0.35349449 L28.0147356,3.17681778 L27.838,3.25 L5,3.25 C2.37664744,3.25 0.25,5.37664744 0.25,8 L0.25,18 C0.25,20.6233526 2.37664744,22.75 5,22.75 L55,22.75 C57.6233526,22.75 59.75,20.6233526 59.75,18 L59.75,8 C59.75,5.37664744 57.6233526,3.25 55,3.25 L33.84,3.25 L33.6632411,3.17679452 L30.8393716,0.35349449 Z" id="形状结合" stroke="#E3E4E4" stroke-width="0.5" fill="#F8F9FB"></path>
                <path d="M17.526,18.067 C16.998,18.056 16.602,17.748 16.349,17.132 C16.096,16.516 15.975,15.262 15.975,13.37 L15.975,10.774 L14.666,10.774 L14.666,11.863 C14.655,12.457 14.611,13.007 14.545,13.524 C15.029,13.876 15.502,14.25 15.942,14.646 L15.337,15.548 C14.996,15.218 14.655,14.932 14.325,14.668 C13.951,16.142 13.258,17.297 12.268,18.144 L11.476,17.462 C12.455,16.648 13.104,15.482 13.412,13.986 C12.972,13.689 12.543,13.425 12.114,13.205 L12.686,12.358 C12.994,12.512 13.28,12.688 13.566,12.864 C13.599,12.534 13.621,12.204 13.621,11.863 L13.621,10.774 L12.301,10.774 L12.301,9.762 L13.621,9.762 L13.621,8.002 L14.666,8.002 L14.666,9.762 L16.998,9.762 L16.998,13.37 C16.998,14.844 17.031,15.779 17.119,16.186 C17.174,16.593 17.273,16.802 17.416,16.802 C17.504,16.802 17.581,16.604 17.647,16.219 C17.691,15.889 17.746,15.515 17.801,15.086 L18.67,15.504 C18.516,16.527 18.351,17.209 18.153,17.55 C17.966,17.891 17.757,18.067 17.526,18.067 Z M9.826,18.034 L8.748,18.034 L8.517,17.022 C8.847,17.055 9.155,17.077 9.463,17.077 C9.727,17.077 9.87,16.945 9.87,16.681 L9.87,14.305 C9.452,14.459 9.023,14.591 8.605,14.712 L8.352,13.722 C8.858,13.612 9.364,13.469 9.87,13.293 L9.87,11.005 L8.561,11.005 L8.561,10.004 L9.87,10.004 L9.87,8.013 L10.915,8.013 L10.915,10.004 L11.861,10.004 L11.861,11.005 L10.915,11.005 L10.915,12.897 C11.267,12.743 11.597,12.578 11.927,12.413 L11.927,13.458 C11.597,13.612 11.256,13.766 10.915,13.909 L10.915,16.945 C10.915,17.671 10.552,18.034 9.826,18.034 Z M23.62,8.596 L28.988,8.596 L28.988,9.619 L23.62,9.619 L23.62,8.596 Z M23.345,11.346 L29.461,11.346 L29.461,12.369 L27.745,12.369 L27.745,17.033 C27.745,17.737 27.349,18.089 26.568,18.089 L24.973,18.089 L24.742,17.066 C25.248,17.11 25.743,17.132 26.205,17.132 C26.524,17.132 26.689,17.011 26.689,16.78 L26.689,12.369 L23.345,12.369 L23.345,11.346 Z M21.75,8.057 L22.707,8.497 C22.113,9.707 21.123,10.785 19.715,11.753 L19.396,10.708 C20.463,9.949 21.244,9.069 21.75,8.057 Z M22.267,10.576 L23.213,11.016 C22.916,11.61 22.542,12.171 22.091,12.699 L22.091,18.133 L21.068,18.133 L21.068,13.722 C20.672,14.063 20.254,14.393 19.792,14.712 L19.484,13.678 C20.738,12.798 21.673,11.764 22.267,10.576 Z M34.532,15.779 L34.532,16.769 C33.41,17.165 32.145,17.495 30.715,17.748 L30.583,16.736 C32.09,16.494 33.41,16.175 34.532,15.779 Z M32.332,7.925 L33.311,8.299 C32.783,9.63 32.255,10.708 31.705,11.544 C32.123,11.5 32.552,11.445 32.992,11.379 C33.19,11.005 33.388,10.62 33.608,10.213 L34.521,10.543 C33.586,12.259 32.805,13.524 32.167,14.316 C32.904,14.162 33.652,13.953 34.4,13.689 L34.4,14.624 C33.168,15.042 32.013,15.317 30.913,15.46 L30.638,14.525 C30.825,14.448 30.979,14.349 31.111,14.228 C31.463,13.854 31.914,13.227 32.453,12.325 C31.903,12.402 31.32,12.479 30.726,12.567 L30.473,11.61 C30.627,11.544 30.77,11.412 30.902,11.225 C31.452,10.235 31.936,9.135 32.332,7.925 Z M34.367,9.256 L36.908,9.256 L36.908,8.013 L37.953,8.013 L37.953,9.256 L40.483,9.256 L40.483,10.268 L37.953,10.268 L37.953,11.654 L40.164,11.654 L40.164,12.666 L34.73,12.666 L34.73,11.654 L36.908,11.654 L36.908,10.268 L34.367,10.268 L34.367,9.256 Z M39.933,13.524 L39.933,18.1 L38.921,18.1 L38.921,17.66 L36.017,17.66 L36.017,18.1 L34.994,18.1 L34.994,13.524 L39.933,13.524 Z M36.017,16.67 L38.921,16.67 L38.921,14.514 L36.017,14.514 L36.017,16.67 Z M41.759,9.025 L45.972,9.025 L45.972,8.013 L47.028,8.013 L47.028,9.025 L51.219,9.025 L51.219,10.026 L47.028,10.026 L47.028,10.895 L50.471,10.895 L50.471,14.206 L47.842,14.206 C48.612,15.229 49.877,16.142 51.637,16.945 L50.922,17.858 C49.074,16.78 47.776,15.581 47.028,14.261 L47.028,18.122 L45.972,18.122 L45.972,14.261 C45.147,15.724 43.816,16.923 41.99,17.869 L41.385,16.901 C43.079,16.186 44.333,15.284 45.147,14.206 L42.551,14.206 L42.551,10.895 L45.972,10.895 L45.972,10.026 L41.759,10.026 L41.759,9.025 Z M49.426,13.249 L49.426,11.874 L47.028,11.874 L47.028,13.249 L49.426,13.249 Z M45.972,13.249 L45.972,11.874 L43.596,11.874 L43.596,13.249 L45.972,13.249 Z" id="执行结束" fill="#999999" fill-rule="nonzero"></path>
            </g>
        </g>
    </g>
</svg>