<?xml version="1.0" encoding="UTF-8"?>
<svg width="50px" height="23px" viewBox="0 0 50 23" version="1.1" xmlns="http://www.w3.org/2000/svg" xmlns:xlink="http://www.w3.org/1999/xlink">
    <!-- Generator: Sketch 57.1 (83088) - https://sketch.com -->
    <title>编组_7_slice</title>
    <desc>Created with Sketch.</desc>
    <g id="页面-1" stroke="none" stroke-width="1" fill="none" fill-rule="evenodd">
        <g id="画板" transform="translate(-118.000000, -80.000000)">
            <g id="编组-7" transform="translate(117.750000, 80.000000)">
                <path d="M25.8393716,0.35349449 L23.0147356,3.17681778 L22.838,3.25 L5,3.25 C2.37664744,3.25 0.25,5.37664744 0.25,8 L0.25,18 C0.25,20.6233526 2.37664744,22.75 5,22.75 L45,22.75 C47.6233526,22.75 49.75,20.6233526 49.75,18 L49.75,8 C49.75,5.37664744 47.6233526,3.25 45,3.25 L28.84,3.25 L28.6632411,3.17679452 L25.8393716,0.35349449 Z" id="形状结合" stroke="#E3E4E4" stroke-width="0.5" fill="#F8F9FB"></path>
                <path d="M11.805,14.008 L11.805,15.031 L14.016,15.031 L14.016,14.008 L11.805,14.008 Z M14.016,15.988 L11.805,15.988 L11.805,16.582 L10.782,16.582 L10.782,11.093 L14.016,11.093 L14.016,10.136 L15.05,10.136 L15.05,11.093 L18.317,11.093 L18.317,16.549 L17.294,16.549 L17.294,15.988 L15.05,15.988 L15.05,18.166 L14.016,18.166 L14.016,15.988 Z M15.05,15.031 L17.294,15.031 L17.294,14.008 L15.05,14.008 L15.05,15.031 Z M17.294,13.095 L17.294,12.061 L15.05,12.061 L15.05,13.095 L17.294,13.095 Z M14.016,12.061 L11.805,12.061 L11.805,13.095 L14.016,13.095 L14.016,12.061 Z M19.164,8.728 L19.164,10.807 L18.152,10.807 L18.152,9.685 L10.804,9.685 L10.804,10.862 L9.792,10.862 L9.792,8.728 L13.906,8.728 C13.807,8.486 13.708,8.266 13.598,8.057 L14.709,7.881 C14.797,8.134 14.896,8.42 14.984,8.728 L19.164,8.728 Z M22.992,12.809 L22.992,18.133 L21.991,18.133 L21.991,13.051 C21.672,13.997 21.276,14.877 20.792,15.669 L20.363,14.591 C21.089,13.557 21.606,12.369 21.936,11.049 L20.561,11.049 L20.561,10.048 L21.991,10.048 L21.991,7.991 L22.992,7.991 L22.992,10.048 L24.202,10.048 L24.202,11.049 L22.992,11.049 L22.992,11.643 C23.498,12.204 24.004,12.831 24.521,13.524 L23.938,14.415 C23.575,13.777 23.256,13.238 22.992,12.809 Z M24.411,9.102 L27.018,9.102 C26.875,8.75 26.721,8.431 26.545,8.145 L27.612,7.969 C27.766,8.299 27.909,8.684 28.041,9.102 L30.439,9.102 L30.439,10.059 L27.425,10.059 C26.886,10.994 26.413,11.676 26.006,12.105 C26.6,12.083 27.194,12.039 27.788,11.984 C28.052,11.599 28.294,11.203 28.514,10.785 L29.361,11.236 C28.261,13.425 26.655,14.91 24.532,15.702 L23.96,14.833 C25.181,14.404 26.215,13.744 27.062,12.864 C26.358,12.908 25.61,12.941 24.829,12.974 L24.62,12.127 C24.708,12.105 24.774,12.072 24.818,12.039 C25.214,11.786 25.72,11.126 26.347,10.059 L24.411,10.059 L24.411,9.102 Z M27.975,16.021 C26.941,16.934 25.742,17.627 24.378,18.111 L23.806,17.22 C26.358,16.384 28.261,14.789 29.537,12.413 L30.406,12.864 C29.9,13.81 29.306,14.657 28.624,15.383 C29.372,16.043 30.021,16.692 30.56,17.352 L29.79,18.122 C29.339,17.462 28.734,16.758 27.975,16.021 Z M35.961,7.936 L37.039,7.936 L37.039,9.839 L40.955,9.839 L40.955,15.152 L39.91,15.152 L39.91,14.525 L37.039,14.525 L37.039,18.21 L35.961,18.21 L35.961,14.525 L33.101,14.525 L33.101,15.152 L32.056,15.152 L32.056,9.839 L35.961,9.839 L35.961,7.936 Z M33.101,13.502 L35.961,13.502 L35.961,10.862 L33.101,10.862 L33.101,13.502 Z M37.039,13.502 L39.91,13.502 L39.91,10.862 L37.039,10.862 L37.039,13.502 Z" id="审核中" fill="#999999" fill-rule="nonzero"></path>
            </g>
        </g>
    </g>
</svg>