<?xml version="1.0" encoding="UTF-8"?>
<svg width="50px" height="23px" viewBox="0 0 50 23" version="1.1" xmlns="http://www.w3.org/2000/svg" xmlns:xlink="http://www.w3.org/1999/xlink">
    <!-- Generator: Sketch 57.1 (83088) - https://sketch.com -->
    <title>编组_4_slice</title>
    <desc>Created with Sketch.</desc>
    <g id="页面-1" stroke="none" stroke-width="1" fill="none" fill-rule="evenodd">
        <g id="画板" transform="translate(-245.000000, -80.000000)">
            <g id="编组-4" transform="translate(245.250000, 80.000000)">
                <path d="M25.8393716,0.35349449 L23.0147356,3.17681778 L22.838,3.25 L5,3.25 C2.37664744,3.25 0.25,5.37664744 0.25,8 L0.25,18 C0.25,20.6233526 2.37664744,22.75 5,22.75 L45,22.75 C47.6233526,22.75 49.75,20.6233526 49.75,18 L49.75,8 C49.75,5.37664744 47.6233526,3.25 45,3.25 L28.84,3.25 L28.6632411,3.17679452 L25.8393716,0.35349449 Z" id="形状结合" stroke="#E3E4E4" stroke-width="0.5" fill="#F8F9FB"></path>
                <path d="M18.526,18.067 C17.998,18.056 17.602,17.748 17.349,17.132 C17.096,16.516 16.975,15.262 16.975,13.37 L16.975,10.774 L15.666,10.774 L15.666,11.863 C15.655,12.457 15.611,13.007 15.545,13.524 C16.029,13.876 16.502,14.25 16.942,14.646 L16.337,15.548 C15.996,15.218 15.655,14.932 15.325,14.668 C14.951,16.142 14.258,17.297 13.268,18.144 L12.476,17.462 C13.455,16.648 14.104,15.482 14.412,13.986 C13.972,13.689 13.543,13.425 13.114,13.205 L13.686,12.358 C13.994,12.512 14.28,12.688 14.566,12.864 C14.599,12.534 14.621,12.204 14.621,11.863 L14.621,10.774 L13.301,10.774 L13.301,9.762 L14.621,9.762 L14.621,8.002 L15.666,8.002 L15.666,9.762 L17.998,9.762 L17.998,13.37 C17.998,14.844 18.031,15.779 18.119,16.186 C18.174,16.593 18.273,16.802 18.416,16.802 C18.504,16.802 18.581,16.604 18.647,16.219 C18.691,15.889 18.746,15.515 18.801,15.086 L19.67,15.504 C19.516,16.527 19.351,17.209 19.153,17.55 C18.966,17.891 18.757,18.067 18.526,18.067 Z M10.826,18.034 L9.748,18.034 L9.517,17.022 C9.847,17.055 10.155,17.077 10.463,17.077 C10.727,17.077 10.87,16.945 10.87,16.681 L10.87,14.305 C10.452,14.459 10.023,14.591 9.605,14.712 L9.352,13.722 C9.858,13.612 10.364,13.469 10.87,13.293 L10.87,11.005 L9.561,11.005 L9.561,10.004 L10.87,10.004 L10.87,8.013 L11.915,8.013 L11.915,10.004 L12.861,10.004 L12.861,11.005 L11.915,11.005 L11.915,12.897 C12.267,12.743 12.597,12.578 12.927,12.413 L12.927,13.458 C12.597,13.612 12.256,13.766 11.915,13.909 L11.915,16.945 C11.915,17.671 11.552,18.034 10.826,18.034 Z M24.62,8.596 L29.988,8.596 L29.988,9.619 L24.62,9.619 L24.62,8.596 Z M24.345,11.346 L30.461,11.346 L30.461,12.369 L28.745,12.369 L28.745,17.033 C28.745,17.737 28.349,18.089 27.568,18.089 L25.973,18.089 L25.742,17.066 C26.248,17.11 26.743,17.132 27.205,17.132 C27.524,17.132 27.689,17.011 27.689,16.78 L27.689,12.369 L24.345,12.369 L24.345,11.346 Z M22.75,8.057 L23.707,8.497 C23.113,9.707 22.123,10.785 20.715,11.753 L20.396,10.708 C21.463,9.949 22.244,9.069 22.75,8.057 Z M23.267,10.576 L24.213,11.016 C23.916,11.61 23.542,12.171 23.091,12.699 L23.091,18.133 L22.068,18.133 L22.068,13.722 C21.672,14.063 21.254,14.393 20.792,14.712 L20.484,13.678 C21.738,12.798 22.673,11.764 23.267,10.576 Z M35.961,7.936 L37.039,7.936 L37.039,9.839 L40.955,9.839 L40.955,15.152 L39.91,15.152 L39.91,14.525 L37.039,14.525 L37.039,18.21 L35.961,18.21 L35.961,14.525 L33.101,14.525 L33.101,15.152 L32.056,15.152 L32.056,9.839 L35.961,9.839 L35.961,7.936 Z M33.101,13.502 L35.961,13.502 L35.961,10.862 L33.101,10.862 L33.101,13.502 Z M37.039,13.502 L39.91,13.502 L39.91,10.862 L37.039,10.862 L37.039,13.502 Z" id="执行中" fill="#999999" fill-rule="nonzero"></path>
            </g>
        </g>
    </g>
</svg>