<?xml version="1.0" encoding="UTF-8"?>
<svg width="50px" height="23px" viewBox="0 0 50 23" version="1.1" xmlns="http://www.w3.org/2000/svg" xmlns:xlink="http://www.w3.org/1999/xlink">
    <!-- Generator: Sketch 57.1 (83088) - https://sketch.com -->
    <title>编组_3_slice</title>
    <desc>Created with Sketch.</desc>
    <g id="页面-1" stroke="none" stroke-width="1" fill="none" fill-rule="evenodd">
        <g id="画板" transform="translate(-54.000000, -80.000000)">
            <g id="编组-3" transform="translate(54.000000, 80.000000)">
                <path d="M25.8393716,0.35349449 L23.0147356,3.17681778 L22.838,3.25 L5,3.25 C2.37664744,3.25 0.25,5.37664744 0.25,8 L0.25,18 C0.25,20.6233526 2.37664744,22.75 5,22.75 L45,22.75 C47.6233526,22.75 49.75,20.6233526 49.75,18 L49.75,8 C49.75,5.37664744 47.6233526,3.25 45,3.25 L28.84,3.25 L28.6632411,3.17679452 L25.8393716,0.35349449 Z" id="形状结合" stroke="#E3E4E4" stroke-width="0.5" fill="#F8F9FB"></path>
                <path d="M13.994,8.024 L15.05,8.024 L15.05,9.575 L18.537,9.575 L18.537,15.878 L17.514,15.878 L17.514,15.295 L15.05,15.295 L15.05,18.078 L13.994,18.078 L13.994,15.295 L11.486,15.295 L11.486,15.955 L10.463,15.955 L10.463,9.575 L13.994,9.575 L13.994,8.024 Z M11.486,14.305 L13.994,14.305 L13.994,12.886 L11.486,12.886 L11.486,14.305 Z M15.05,14.305 L17.514,14.305 L17.514,12.886 L15.05,12.886 L15.05,14.305 Z M11.486,11.951 L13.994,11.951 L13.994,10.554 L11.486,10.554 L11.486,11.951 Z M15.05,11.951 L17.514,11.951 L17.514,10.554 L15.05,10.554 L15.05,11.951 Z M26.633,7.98 L27.634,7.98 L27.634,8.618 L30.274,8.618 L30.274,9.465 L27.634,9.465 L27.634,10.004 L29.889,10.004 L29.889,10.829 L27.634,10.829 L27.634,11.379 L30.549,11.379 L30.549,12.248 L23.751,12.248 L23.751,11.379 L26.633,11.379 L26.633,10.829 L24.521,10.829 L24.521,10.004 L26.633,10.004 L26.633,9.465 L24.059,9.465 L24.059,8.618 L26.633,8.618 L26.633,7.98 Z M25.522,15.02 L25.522,15.636 L28.789,15.636 L28.789,15.02 L25.522,15.02 Z M28.789,14.228 L28.789,13.601 L25.522,13.601 L25.522,14.228 L28.789,14.228 Z M25.522,16.428 L25.522,18.133 L24.532,18.133 L24.532,12.754 L29.79,12.754 L29.79,17.044 C29.79,17.726 29.438,18.067 28.745,18.067 L27.832,18.067 L27.59,17.143 L28.448,17.198 C28.668,17.198 28.789,17.077 28.789,16.835 L28.789,16.428 L25.522,16.428 Z M21.914,8.068 C22.618,8.607 23.223,9.146 23.707,9.685 L22.992,10.411 C22.563,9.905 21.958,9.355 21.177,8.783 L21.914,8.068 Z M20.418,11.258 L22.915,11.258 L22.915,15.856 C23.201,15.581 23.487,15.284 23.795,14.965 L24.07,16.065 C23.432,16.725 22.75,17.308 22.035,17.814 L21.639,16.868 C21.815,16.714 21.914,16.516 21.914,16.285 L21.914,12.259 L20.418,12.259 L20.418,11.258 Z M35.961,7.936 L37.039,7.936 L37.039,9.839 L40.955,9.839 L40.955,15.152 L39.91,15.152 L39.91,14.525 L37.039,14.525 L37.039,18.21 L35.961,18.21 L35.961,14.525 L33.101,14.525 L33.101,15.152 L32.056,15.152 L32.056,9.839 L35.961,9.839 L35.961,7.936 Z M33.101,13.502 L35.961,13.502 L35.961,10.862 L33.101,10.862 L33.101,13.502 Z M37.039,13.502 L39.91,13.502 L39.91,10.862 L37.039,10.862 L37.039,13.502 Z" id="申请中" fill="#999999" fill-rule="nonzero"></path>
            </g>
        </g>
    </g>
</svg>