<?xml version="1.0" encoding="UTF-8"?>
<svg width="50px" height="48px" viewBox="0 0 50 48" version="1.1" xmlns="http://www.w3.org/2000/svg" xmlns:xlink="http://www.w3.org/1999/xlink">
    <!-- Generator: Sketch 55.2 (78181) - https://sketchapp.com -->
    <title>反馈通知书录入中_slice</title>
    <desc>Created with Sketch.</desc>
    <defs>
        <linearGradient x1="50%" y1="2.83548885%" x2="50%" y2="100.850367%" id="linearGradient-1">
            <stop stop-color="#8EDC86" offset="0.0950168919%"></stop>
            <stop stop-color="#6BD0AC" offset="100%"></stop>
        </linearGradient>
        <path d="M34.6263055,1.77635684e-15 L50,14.6740446 L50,47.6254616 L0.103784151,0 L34.6263055,0 Z" id="path-2"></path>
        <filter x="-18.0%" y="-10.5%" width="136.1%" height="142.0%" filterUnits="objectBoundingBox" id="filter-3">
            <feOffset dx="0" dy="6" in="SourceAlpha" result="shadowOffsetOuter1"></feOffset>
            <feGaussianBlur stdDeviation="2" in="shadowOffsetOuter1" result="shadowBlurOuter1"></feGaussianBlur>
            <feColorMatrix values="0 0 0 0 0   0 0 0 0 0   0 0 0 0 0  0 0 0 0.06 0" type="matrix" in="shadowBlurOuter1"></feColorMatrix>
        </filter>
    </defs>
    <g id="页面1" stroke="none" stroke-width="1" fill="none" fill-rule="evenodd">
        <g id="画板" transform="translate(-826.000000, -662.000000)">
            <g id="反馈通知书录入中" transform="translate(826.000000, 662.000000)">
                <g>
                    <g id="形状结合备份-3">
                        <use fill="black" fill-opacity="1" filter="url(#filter-3)" xlink:href="#path-2"></use>
                        <use fill="url(#linearGradient-1)" fill-rule="evenodd" xlink:href="#path-2"></use>
                    </g>
                    <g id="反馈通知-书录入中-2" transform="translate(19.000000, 1.000000)"></g>
                </g>
                <path d="M21.208571,11.0428016 L20.7006767,11.0428016 C20.6391137,12.770428 20.2389545,14.155642 19.5155898,15.1828794 L19,14.6303502 C19.6002388,13.7431907 19.9311397,12.5058366 19.9773119,10.9338521 L19.9773119,8.56031128 C21.9319358,8.53696498 23.6710893,8.36575875 25.2101632,8.05447471 L25.5487595,8.692607 C24.1097254,8.98054475 22.4936978,9.15175097 20.708372,9.19844358 L20.708372,10.3501946 L25.2948123,10.3501946 L25.2948123,11.0038911 C25.0254743,11.9610895 24.5329707,12.7782101 23.8249967,13.4552529 C24.4406262,13.8832685 25.1870771,14.2568093 26.0643492,14.5836576 L25.66419,15.229572 C24.7253549,14.8404669 23.9327319,14.3968872 23.2940162,13.9143969 C22.6014329,14.4435798 21.7472469,14.8793774 20.7468489,15.2373541 L20.3466897,14.6070039 C21.2855247,14.2879377 22.0704524,13.8988327 22.7168635,13.4319066 C21.9627173,12.7315175 21.4548229,11.9299611 21.208571,11.0428016 Z M23.2401486,13.0038911 C23.8557782,12.4357977 24.2944142,11.7821012 24.5560568,11.0428016 L21.9011543,11.0428016 C22.1320154,11.7743191 22.5783468,12.4280156 23.2401486,13.0038911 Z M29.4464641,8.40466926 L30.8701075,8.40466926 L30.8701075,8 L31.5780815,8 L31.5780815,8.40466926 L33.0171156,8.40466926 L33.0171156,10.0389105 L31.5780815,10.0389105 L31.5780815,10.4046693 L33.3787979,10.4046693 L33.3787979,11.0272374 L29.069391,11.0272374 L29.069391,10.4046693 L30.8701075,10.4046693 L30.8701075,10.0389105 L29.4464641,10.0389105 L29.4464641,8.40466926 Z M32.3783999,9.47081712 L32.3783999,8.98054475 L31.5780815,8.98054475 L31.5780815,9.47081712 L32.3783999,9.47081712 Z M30.8701075,9.47081712 L30.8701075,8.98054475 L30.0851798,8.98054475 L30.0851798,9.47081712 L30.8701075,9.47081712 Z M32.9401619,11.4007782 L32.9401619,13.8054475 L32.255274,13.8054475 L32.255274,12.0077821 L30.131352,12.0077821 L30.131352,13.8054475 L29.4464641,13.8054475 L29.4464641,11.4007782 L32.9401619,11.4007782 Z M31.8089426,13.7587549 C32.4091814,13.9922179 32.9555526,14.2723735 33.4557516,14.6070039 L33.0555924,15.2217899 C32.5323073,14.8326848 32.0013268,14.5214008 31.4472602,14.3035019 L31.8089426,13.7587549 Z M30.8085445,12.2412451 L31.5165185,12.2412451 L31.5165185,13.0038911 C31.485737,13.6031128 31.2933528,14.0856031 30.9393658,14.4513619 C30.5930742,14.7859922 30.0313122,15.0428016 29.2540799,15.229572 L28.861616,14.6070039 C29.6003715,14.4513619 30.1082659,14.2568093 30.3852992,14.0077821 C30.6469418,13.7431907 30.7854584,13.4085603 30.8085445,13.0038911 L30.8085445,12.2412451 Z M27.5687939,9.95330739 C27.3533236,10.5758755 27.091681,11.0972763 26.7684755,11.5175097 L26.3144487,10.9494163 C26.7915616,10.233463 27.1147671,9.26848249 27.2840653,8.06225681 L27.9920393,8.17898833 C27.9304763,8.56809339 27.8535226,8.92607004 27.7688736,9.26848249 L29.130954,9.26848249 L29.130954,9.84435798 C28.9462651,10.311284 28.7384901,10.7081712 28.507629,11.0194553 L27.9843439,10.5992218 C28.1228606,10.4124514 28.2459865,10.2023346 28.361417,9.95330739 L27.5687939,9.95330739 Z M27.3994958,10.8871595 L28.0997744,10.8871595 L28.0997744,14.1167315 C28.3921985,13.9455253 28.6923179,13.7198444 28.9847419,13.4396887 L29.1155632,14.1245136 C28.6538411,14.4980545 28.1074698,14.8093385 27.4918403,15.0505837 L27.2071116,14.4357977 C27.3302375,14.3501946 27.3994958,14.2178988 27.3994958,14.0466926 L27.3994958,10.8871595 Z M34.5292557,8.08560311 C35.0525408,8.49805447 35.4911769,8.91050584 35.8451639,9.3151751 L35.3295741,9.82879377 C35.0217593,9.43968872 34.5908186,9.01945525 34.0290567,8.56809339 L34.5292557,8.08560311 Z M38.9540931,15.0583658 C38.5308478,15.0583658 38.0691256,15.0505837 37.576622,15.0428016 C37.076423,15.0350195 36.6685684,14.9883268 36.3453629,14.9105058 C36.0375481,14.8171206 35.7682102,14.6303502 35.5373491,14.3657588 C35.4296139,14.233463 35.3372695,14.1712062 35.244925,14.1712062 C35.0833223,14.1712062 34.806289,14.5214008 34.4138251,15.2217899 L33.8751493,14.7159533 C34.2599177,14.0856031 34.6062094,13.688716 34.9140241,13.5330739 L34.9140241,11.3307393 L33.8828446,11.3307393 L33.8828446,10.6459144 L35.598912,10.6459144 L35.598912,13.5875486 C35.6373889,13.618677 35.6758657,13.6575875 35.7143426,13.7042802 C35.8913361,13.9143969 36.0760249,14.0700389 36.2684092,14.1712062 C36.4992703,14.2801556 36.8378665,14.3501946 37.2918933,14.3657588 C37.7305294,14.3735409 38.2461191,14.381323 38.846358,14.381323 C39.2234311,14.381323 39.6081995,14.3735409 39.992968,14.3657588 C40.3777365,14.3579767 40.6778559,14.3424125 40.8856309,14.3268482 L40.7086374,15.0583658 L38.9540931,15.0583658 Z M37.6227942,8.85603113 L36.1375879,8.85603113 L36.1375879,8.24124514 L40.3623458,8.24124514 L40.3623458,8.76264591 C39.9160143,9.15175097 39.4389014,9.47859922 38.931007,9.75875486 C38.9463978,9.77431907 38.9617885,9.78210117 38.9771792,9.79766537 L40.5239485,9.79766537 L40.5239485,13.2529183 C40.5239485,13.7120623 40.2700013,13.9455253 39.7698023,13.9455253 L39.1772589,13.9455253 L39.0233515,13.3307393 L39.5697227,13.3618677 C39.7390208,13.3618677 39.8313653,13.2762646 39.8313653,13.1050584 L39.8313653,12.7081712 L38.7232321,12.7081712 L38.7232321,13.9844358 L38.0537349,13.9844358 L38.0537349,12.7081712 L36.9686878,12.7081712 L36.9686878,14 L36.2761046,14 L36.2761046,9.79766537 L38.0460395,9.79766537 C37.7920923,9.62645914 37.5073637,9.44747082 37.1918535,9.27626459 L37.6227942,8.85603113 Z M38.4846756,9.40856031 C38.8078811,9.24513619 39.1080005,9.05836576 39.3850338,8.85603113 L37.6612711,8.85603113 C37.9536951,9.04280156 38.2307284,9.22178988 38.4846756,9.40856031 Z M36.9686878,11.5642023 L36.9686878,12.1089494 L38.0537349,12.1089494 L38.0537349,11.5642023 L36.9686878,11.5642023 Z M38.7232321,11.5642023 L38.7232321,12.1089494 L39.8313653,12.1089494 L39.8313653,11.5642023 L38.7232321,11.5642023 Z M39.8313653,10.9571984 L39.8313653,10.4124514 L38.7232321,10.4124514 L38.7232321,10.9571984 L39.8313653,10.9571984 Z M38.0537349,10.9571984 L38.0537349,10.4124514 L36.9686878,10.4124514 L36.9686878,10.9571984 L38.0537349,10.9571984 Z M48,8.77042802 L48,14.8404669 L47.292026,14.8404669 L47.292026,14.3968872 L45.9453363,14.3968872 L45.9453363,14.848249 L45.2373623,14.848249 L45.2373623,8.77042802 L48,8.77042802 Z M45.9453363,13.7042802 L47.292026,13.7042802 L47.292026,9.46303502 L45.9453363,9.46303502 L45.9453363,13.7042802 Z M42.4747247,9.69649805 C42.2977312,10.0856031 42.0976516,10.4435798 41.8821812,10.770428 L41.2434656,10.3579767 C41.7359692,9.62645914 42.0899562,8.84046693 42.2977312,8 L43.0210959,8.15564202 C42.9441422,8.45136187 42.8517978,8.72373541 42.7594534,8.98832685 L44.8602892,8.98832685 L44.8602892,9.69649805 L43.813719,9.69649805 C43.7983282,10.1789883 43.7752421,10.6303502 43.7290699,11.0428016 L44.9295476,11.0428016 L44.9295476,11.7509728 L43.6290301,11.7509728 C43.5982486,11.922179 43.5597718,12.0933852 43.5289903,12.2490272 C43.9984079,12.7315175 44.4755208,13.2684825 44.9680244,13.8599222 L44.521693,14.5447471 C44.0445801,13.8599222 43.6444209,13.3229572 43.3212153,12.9338521 C42.9980098,13.7509728 42.4516386,14.4435798 41.6667109,15.0038911 L41.189598,14.4124514 C41.9899164,13.8132296 42.5132015,13.0817121 42.7671487,12.2101167 C42.7979302,12.0622568 42.8364071,11.9066148 42.8671885,11.7509728 L41.3512007,11.7509728 L41.3512007,11.0428016 L42.9749237,11.0428016 C43.0210959,10.6303502 43.044182,10.1789883 43.0595728,9.69649805 L42.4747247,9.69649805 Z M21.7395515,16.7315175 L22.4706116,16.7315175 L22.4706116,18.0311284 L24.7330503,18.0311284 L24.7330503,18.3891051 L24.5868383,20.1245136 L25.6564946,20.1245136 C25.6487993,21.6809339 25.517978,22.5836576 25.2717262,22.848249 C25.1716863,22.9571984 25.017779,23.0428016 24.8023086,23.0894942 C24.6176197,23.1284047 24.4252355,23.151751 24.2405466,23.151751 L23.748043,23.151751 L23.5479634,22.459144 C23.8403874,22.459144 24.1097254,22.4669261 24.3636725,22.4669261 C24.5560568,22.4513619 24.6945734,22.3968872 24.7792225,22.2957198 C24.8638716,22.1867704 24.9177392,21.6964981 24.9408253,20.8326848 L22.4706116,20.8326848 L22.4706116,23.9533074 L21.7395515,23.9533074 L21.7395515,20.8326848 L19.0846491,20.8326848 L19.0846491,20.1245136 L21.7395515,20.1245136 L21.7395515,18.7392996 L19.5232851,18.7392996 L19.5232851,18.0311284 L21.7395515,18.0311284 L21.7395515,16.7315175 Z M22.4706116,20.1245136 L23.8711689,20.1245136 L24.0019902,18.7392996 L22.4706116,18.7392996 L22.4706116,20.1245136 Z M24.3867587,16.7470817 C24.9485206,17.0194553 25.456415,17.3463035 25.9181372,17.7198444 L25.5333687,18.3268482 C25.0408651,17.8910506 24.5329707,17.5564202 24.0096856,17.307393 L24.3867587,16.7470817 Z M27.3841051,17.0116732 L31.9320685,17.0116732 L31.9320685,19.5252918 L33.255672,19.5252918 L33.255672,20.2023346 L30.2467825,20.2023346 L30.2467825,20.9961089 C30.4083853,21.1750973 30.5776834,21.3463035 30.7623723,21.5097276 C31.2779621,21.2140078 31.7242935,20.7937743 32.0936712,20.2412451 L32.6554332,20.7159533 C32.2475786,21.229572 31.7858564,21.6342412 31.2625713,21.922179 C31.8474194,22.3579767 32.5169165,22.7392996 33.2864535,23.07393 L32.9170758,23.7276265 C31.8089426,23.1984436 30.9239751,22.5603113 30.2467825,21.8132296 L30.2467825,23.1595331 C30.2467825,23.688716 30.0159215,23.9533074 29.56959,23.9533074 L28.6769272,23.9533074 L28.5153244,23.2529183 C28.8000531,23.2840467 29.069391,23.307393 29.3233382,23.307393 C29.4541595,23.307393 29.5234178,23.1984436 29.5234178,22.9883268 L29.5234178,21.8521401 C28.7538809,22.536965 27.8458273,23.151751 26.799257,23.7042802 L26.506833,23.0194553 C27.6688338,22.4824903 28.6769272,21.8365759 29.5234178,21.0817121 L29.5234178,20.2023346 L26.6145681,20.2023346 L26.6145681,19.5252918 L31.1856176,19.5252918 L31.1856176,18.92607 L27.6457476,18.92607 L27.6457476,18.2879377 L31.1856176,18.2879377 L31.1856176,17.6731518 L27.3841051,17.6731518 L27.3841051,17.0116732 Z M27.5380125,20.3657588 C27.9920393,20.6848249 28.3768077,21.0038911 28.6846225,21.3151751 L28.2075096,21.7976654 C27.9304763,21.5019455 27.5457078,21.1828794 27.0532042,20.8404669 L27.5380125,20.3657588 Z M36.9148202,18.6225681 C36.576224,17.9922179 36.160674,17.5019455 35.6758657,17.151751 L36.2837999,16.7626459 C36.930211,17.2217899 37.4996683,18.0933852 37.9998673,19.385214 C38.7309274,21.2062257 39.6774579,22.4902724 40.847154,23.2529183 L40.3931272,23.8365759 C39.1849542,23.1050584 38.1768608,21.7042802 37.3611517,19.6264591 C37.3380655,19.5719844 37.3226748,19.5252918 37.3072841,19.4785992 C36.7839989,21.3618677 35.7451241,22.8171206 34.1906594,23.844358 L33.7520234,23.2140078 C35.3526602,22.1478599 36.4069258,20.614786 36.9148202,18.6225681 Z M44.3677856,16.7315175 L45.1219318,16.7315175 L45.1219318,18.077821 L47.8614833,18.077821 L47.8614833,21.8365759 L47.1304232,21.8365759 L47.1304232,21.3929961 L45.1219318,21.3929961 L45.1219318,24 L44.3677856,24 L44.3677856,21.3929961 L42.3669895,21.3929961 L42.3669895,21.8365759 L41.6359294,21.8365759 L41.6359294,18.077821 L44.3677856,18.077821 L44.3677856,16.7315175 Z M42.3669895,20.6692607 L44.3677856,20.6692607 L44.3677856,18.8015564 L42.3669895,18.8015564 L42.3669895,20.6692607 Z M45.1219318,20.6692607 L47.1304232,20.6692607 L47.1304232,18.8015564 L45.1219318,18.8015564 L45.1219318,20.6692607 Z" fill="#FFFFFF" fill-rule="nonzero" transform="translate(33.500000, 16.000000) rotate(-315.000000) translate(-33.500000, -16.000000) "></path>
            </g>
        </g>
    </g>
</svg>