<?xml version="1.0" encoding="UTF-8"?>
<svg width="47px" height="45px" viewBox="0 0 47 45" version="1.1" xmlns="http://www.w3.org/2000/svg" xmlns:xlink="http://www.w3.org/1999/xlink">
    <!-- Generator: Sketch 55.2 (78181) - https://sketchapp.com -->
    <title>调查中_slice</title>
    <desc>Created with Sketch.</desc>
    <defs>
        <linearGradient x1="50%" y1="2.83548885%" x2="50%" y2="100.850367%" id="linearGradient-1">
            <stop stop-color="#8EDC86" offset="0.0950168919%"></stop>
            <stop stop-color="#6BD0AC" offset="100%"></stop>
        </linearGradient>
        <path d="M26.621859,-1.77635684e-15 L47,19.450741 L47,44.0660666 L0.832889008,-1.42108547e-14 L26.621859,0 Z" id="path-2"></path>
        <filter x="-19.5%" y="-11.3%" width="139.0%" height="145.4%" filterUnits="objectBoundingBox" id="filter-3">
            <feOffset dx="0" dy="6" in="SourceAlpha" result="shadowOffsetOuter1"></feOffset>
            <feGaussianBlur stdDeviation="2" in="shadowOffsetOuter1" result="shadowBlurOuter1"></feGaussianBlur>
            <feColorMatrix values="0 0 0 0 0   0 0 0 0 0   0 0 0 0 0  0 0 0 0.06 0" type="matrix" in="shadowBlurOuter1"></feColorMatrix>
        </filter>
    </defs>
    <g id="页面1" stroke="none" stroke-width="1" fill="none" fill-rule="evenodd">
        <g id="画板" transform="translate(-829.000000, -417.000000)">
            <g id="调查中" transform="translate(829.000000, 417.000000)">
                <g id="形状结合备份-3">
                    <use fill="black" fill-opacity="1" filter="url(#filter-3)" xlink:href="#path-2"></use>
                    <use fill="url(#linearGradient-1)" fill-rule="evenodd" xlink:href="#path-2"></use>
                </g>
                <path d="M22.95,14.168 L23.742,14.168 L23.742,13.632 L24.534,13.632 L24.534,14.168 L25.334,14.168 L25.334,14.824 L24.534,14.824 L24.534,15.368 L25.438,15.368 L25.438,16.056 L22.846,16.056 L22.846,15.368 L23.742,15.368 L23.742,14.824 L22.95,14.824 L22.95,14.168 Z M23.054,16.448 L25.222,16.448 L25.222,18.632 L23.054,18.632 L23.054,16.448 Z M24.518,17.96 L24.518,17.12 L23.766,17.12 L23.766,17.96 L24.518,17.96 Z M26.414,12.672 L26.414,18.96 C26.414,19.512 26.126,19.792 25.55,19.792 L24.822,19.792 L24.63,19.032 C24.87,19.056 25.102,19.072 25.31,19.072 C25.518,19.072 25.622,18.936 25.622,18.672 L25.622,13.424 L22.67,13.424 L22.67,17.16 C22.654,18.264 22.414,19.152 21.95,19.84 L21.334,19.272 C21.686,18.728 21.87,18.048 21.886,17.216 L21.886,12.672 L26.414,12.672 Z M20.374,12.488 C20.854,12.872 21.262,13.264 21.598,13.648 L21.03,14.224 C20.734,13.856 20.318,13.472 19.79,13.056 L20.374,12.488 Z M19.238,14.792 L21.078,14.792 L21.078,17.912 C21.206,17.784 21.35,17.648 21.494,17.504 L21.702,18.328 C21.286,18.744 20.846,19.12 20.382,19.456 L20.062,18.712 C20.206,18.6 20.278,18.464 20.278,18.296 L20.278,15.592 L19.238,15.592 L19.238,14.792 Z M28.194,15.384 L33.138,15.384 L33.138,18.448 L28.194,18.448 L28.194,15.384 Z M32.322,17.712 L32.322,17.28 L29.01,17.28 L29.01,17.712 L32.322,17.712 Z M29.01,16.576 L32.322,16.576 L32.322,16.12 L29.01,16.12 L29.01,16.576 Z M27.346,13.064 L30.258,13.064 L30.258,12.416 L31.074,12.416 L31.074,13.064 L33.986,13.064 L33.986,13.832 L31.802,13.832 C32.394,14.28 33.234,14.64 34.338,14.912 L33.978,15.664 C32.642,15.208 31.674,14.616 31.074,13.888 L31.074,15.152 L30.258,15.152 L30.258,13.888 C29.626,14.6 28.674,15.192 27.402,15.664 L26.946,14.928 C28.082,14.624 28.946,14.264 29.546,13.832 L27.346,13.832 L27.346,13.064 Z M27.186,18.864 L34.122,18.864 L34.122,19.624 L27.186,19.624 L27.186,18.864 Z M37.918,12.392 L38.782,12.392 L38.782,13.76 L41.622,13.76 L41.622,17.664 L40.782,17.664 L40.782,17.224 L38.782,17.224 L38.782,19.896 L37.918,19.896 L37.918,17.224 L35.926,17.224 L35.926,17.664 L35.086,17.664 L35.086,13.76 L37.918,13.76 L37.918,12.392 Z M35.926,16.408 L37.918,16.408 L37.918,14.576 L35.926,14.576 L35.926,16.408 Z M38.782,16.408 L40.782,16.408 L40.782,14.576 L38.782,14.576 L38.782,16.408 Z" fill="#FFFFFF" fill-rule="nonzero" transform="translate(30.430000, 16.144000) rotate(-315.000000) translate(-30.430000, -16.144000) "></path>
            </g>
        </g>
    </g>
</svg>