<?xml version="1.0" encoding="UTF-8"?>
<svg width="47px" height="45px" viewBox="0 0 47 45" version="1.1" xmlns="http://www.w3.org/2000/svg" xmlns:xlink="http://www.w3.org/1999/xlink">
    <!-- Generator: Sketch 55.2 (78181) - https://sketchapp.com -->
    <title>申请中_slice</title>
    <desc>Created with Sketch.</desc>
    <defs>
        <linearGradient x1="50%" y1="1.42785228%" x2="50%" y2="100.850367%" id="linearGradient-1">
            <stop stop-color="#86B5FC" offset="0.0950168919%"></stop>
            <stop stop-color="#609FFE" offset="51.2395893%"></stop>
            <stop stop-color="#4D94FF" offset="100%"></stop>
        </linearGradient>
        <path d="M26.621859,-1.77635684e-15 L47,19.450741 L47,44.0660666 L0.832889008,-1.42108547e-14 L26.621859,0 Z" id="path-2"></path>
        <filter x="-19.5%" y="-11.3%" width="139.0%" height="145.4%" filterUnits="objectBoundingBox" id="filter-3">
            <feOffset dx="0" dy="6" in="SourceAlpha" result="shadowOffsetOuter1"></feOffset>
            <feGaussianBlur stdDeviation="2" in="shadowOffsetOuter1" result="shadowBlurOuter1"></feGaussianBlur>
            <feColorMatrix values="0 0 0 0 0   0 0 0 0 0   0 0 0 0 0  0 0 0 0.06 0" type="matrix" in="shadowBlurOuter1"></feColorMatrix>
        </filter>
    </defs>
    <g id="页面1" stroke="none" stroke-width="1" fill="none" fill-rule="evenodd">
        <g id="画板" transform="translate(-326.000000, -49.000000)">
            <g id="申请中" transform="translate(326.000000, 49.000000)">
                <g id="形状结合备份-3">
                    <use fill="black" fill-opacity="1" filter="url(#filter-3)" xlink:href="#path-2"></use>
                    <use fill="url(#linearGradient-1)" fill-rule="evenodd" xlink:href="#path-2"></use>
                </g>
                <path d="M22.092,12.464 L22.94,12.464 L22.94,13.568 L25.476,13.568 L25.476,18.2 L24.652,18.2 L24.652,17.792 L22.94,17.792 L22.94,19.792 L22.092,19.792 L22.092,17.792 L20.348,17.792 L20.348,18.256 L19.524,18.256 L19.524,13.568 L22.092,13.568 L22.092,12.464 Z M20.348,17.008 L22.092,17.008 L22.092,16.04 L20.348,16.04 L20.348,17.008 Z M22.94,17.008 L24.652,17.008 L24.652,16.04 L22.94,16.04 L22.94,17.008 Z M20.348,15.296 L22.092,15.296 L22.092,14.344 L20.348,14.344 L20.348,15.296 Z M22.94,15.296 L24.652,15.296 L24.652,14.344 L22.94,14.344 L22.94,15.296 Z M31.284,12.432 L32.092,12.432 L32.092,12.872 L33.988,12.872 L33.988,13.544 L32.092,13.544 L32.092,13.88 L33.708,13.88 L33.708,14.536 L32.092,14.536 L32.092,14.88 L34.18,14.88 L34.18,15.568 L29.22,15.568 L29.22,14.88 L31.284,14.88 L31.284,14.536 L29.78,14.536 L29.78,13.88 L31.284,13.88 L31.284,13.544 L29.444,13.544 L29.444,12.872 L31.284,12.872 L31.284,12.432 Z M30.556,17.584 L30.556,17.976 L32.844,17.976 L32.844,17.584 L30.556,17.584 Z M32.844,16.96 L32.844,16.56 L30.556,16.56 L30.556,16.96 L32.844,16.96 Z M30.556,18.608 L30.556,19.832 L29.772,19.832 L29.772,15.888 L33.644,15.888 L33.644,19.008 C33.644,19.52 33.38,19.784 32.86,19.784 L32.196,19.784 L31.996,19.056 L32.628,19.088 C32.772,19.088 32.844,19 32.844,18.832 L32.844,18.608 L30.556,18.608 Z M27.924,12.488 C28.428,12.872 28.86,13.264 29.22,13.648 L28.644,14.224 C28.34,13.856 27.9,13.472 27.332,13.056 L27.924,12.488 Z M26.788,14.792 L28.66,14.792 L28.66,18.056 C28.852,17.872 29.044,17.672 29.244,17.464 L29.468,18.344 C28.988,18.816 28.484,19.24 27.956,19.616 L27.644,18.864 C27.78,18.744 27.852,18.592 27.852,18.416 L27.852,15.592 L26.788,15.592 L26.788,14.792 Z M38.068,12.392 L38.932,12.392 L38.932,13.76 L41.772,13.76 L41.772,17.664 L40.932,17.664 L40.932,17.224 L38.932,17.224 L38.932,19.896 L38.068,19.896 L38.068,17.224 L36.076,17.224 L36.076,17.664 L35.236,17.664 L35.236,13.76 L38.068,13.76 L38.068,12.392 Z M36.076,16.408 L38.068,16.408 L38.068,14.576 L36.076,14.576 L36.076,16.408 Z M38.932,16.408 L40.932,16.408 L40.932,14.576 L38.932,14.576 L38.932,16.408 Z" fill="#FFFFFF" fill-rule="nonzero" transform="translate(30.648000, 16.144000) rotate(-315.000000) translate(-30.648000, -16.144000) "></path>
            </g>
        </g>
    </g>
</svg>