<?xml version="1.0" encoding="UTF-8"?>
<svg width="47px" height="45px" viewBox="0 0 47 45" version="1.1" xmlns="http://www.w3.org/2000/svg" xmlns:xlink="http://www.w3.org/1999/xlink">
    <!-- Generator: Sketch 55.2 (78181) - https://sketchapp.com -->
    <title>审批否决_slice</title>
    <desc>Created with Sketch.</desc>
    <defs>
        <linearGradient x1="50%" y1="4.54024414%" x2="50%" y2="100.850367%" id="linearGradient-1">
            <stop stop-color="#FF866F" offset="0%"></stop>
            <stop stop-color="#FF4E4E" offset="100%"></stop>
        </linearGradient>
        <path d="M26.621859,-1.77635684e-15 L47,19.450741 L47,44.0660666 L0.832889008,-1.42108547e-14 L26.621859,0 Z" id="path-2"></path>
        <filter x="-19.5%" y="-11.3%" width="139.0%" height="145.4%" filterUnits="objectBoundingBox" id="filter-3">
            <feOffset dx="0" dy="6" in="SourceAlpha" result="shadowOffsetOuter1"></feOffset>
            <feGaussianBlur stdDeviation="2" in="shadowOffsetOuter1" result="shadowBlurOuter1"></feGaussianBlur>
            <feColorMatrix values="0 0 0 0 0   0 0 0 0 0   0 0 0 0 0  0 0 0 0.06 0" type="matrix" in="shadowBlurOuter1"></feColorMatrix>
        </filter>
    </defs>
    <g id="页面1" stroke="none" stroke-width="1" fill="none" fill-rule="evenodd">
        <g id="画板" transform="translate(-326.000000, -907.000000)">
            <g id="审批否决" transform="translate(326.000000, 907.000000)">
                <g id="形状结合备份-3">
                    <use fill="black" fill-opacity="1" filter="url(#filter-3)" xlink:href="#path-2"></use>
                    <use fill="url(#linearGradient-1)" fill-rule="evenodd" xlink:href="#path-2"></use>
                </g>
                <path d="M17.172,16.856 L17.172,17.528 L18.708,17.528 L18.708,16.856 L17.172,16.856 Z M18.708,18.288 L17.172,18.288 L17.172,18.704 L16.356,18.704 L16.356,14.672 L18.708,14.672 L18.708,14.016 L19.54,14.016 L19.54,14.672 L21.916,14.672 L21.916,18.68 L21.1,18.68 L21.1,18.288 L19.54,18.288 L19.54,19.864 L18.708,19.864 L18.708,18.288 Z M19.54,17.528 L21.1,17.528 L21.1,16.856 L19.54,16.856 L19.54,17.528 Z M21.1,16.128 L21.1,15.44 L19.54,15.44 L19.54,16.128 L21.1,16.128 Z M18.708,15.44 L17.172,15.44 L17.172,16.128 L18.708,16.128 L18.708,15.44 Z M22.524,12.952 L22.524,14.504 L21.708,14.504 L21.708,13.712 L16.46,13.712 L16.46,14.544 L15.644,14.544 L15.644,12.952 L18.612,12.952 C18.548,12.792 18.476,12.64 18.404,12.496 L19.292,12.352 C19.356,12.528 19.42,12.728 19.484,12.952 L22.524,12.952 Z M25.52,15.84 L25.52,16.624 C25.304,16.712 25.088,16.8 24.872,16.88 L24.872,18.952 C24.872,19.504 24.6,19.784 24.072,19.784 L23.392,19.784 L23.216,18.968 C23.408,19 23.6,19.024 23.784,19.024 C23.96,19.024 24.056,18.928 24.056,18.736 L24.056,17.152 C23.816,17.224 23.584,17.288 23.344,17.352 L23.144,16.552 C23.448,16.496 23.752,16.432 24.056,16.352 L24.056,14.624 L23.248,14.624 L23.248,13.816 L24.056,13.816 L24.056,12.432 L24.872,12.432 L24.872,13.816 L25.576,13.816 L25.576,14.624 L24.872,14.624 L24.872,16.096 C25.088,16.016 25.304,15.928 25.52,15.84 Z M26.624,15.536 L26.624,18.712 C26.944,18.616 27.248,18.504 27.52,18.376 L27.672,19.144 C27.08,19.384 26.408,19.584 25.656,19.76 L25.448,18.984 C25.68,18.912 25.8,18.752 25.8,18.504 L25.8,12.472 L26.624,12.472 L26.624,14.72 L27.608,14.72 L27.608,15.536 L26.624,15.536 Z M29.408,19.752 L28.688,19.752 C28.144,19.752 27.88,19.456 27.88,18.88 L27.88,12.456 L28.704,12.456 L28.704,14.672 C29.12,14.512 29.52,14.32 29.904,14.08 L30.384,14.768 C29.792,15.08 29.232,15.32 28.704,15.496 L28.704,18.696 C28.704,18.872 28.784,18.96 28.944,18.96 L29.256,18.96 C29.376,18.96 29.464,18.896 29.528,18.776 C29.592,18.648 29.64,18.256 29.664,17.584 L30.424,17.824 C30.36,18.76 30.248,19.32 30.088,19.496 C29.944,19.664 29.712,19.752 29.408,19.752 Z M31.244,12.712 L37.796,12.712 L37.796,13.528 L35.26,13.528 C35.148,13.672 35.036,13.808 34.916,13.944 L34.916,16.528 L34.084,16.528 L34.084,14.712 C33.364,15.272 32.46,15.768 31.372,16.208 L30.844,15.52 C32.404,14.96 33.548,14.296 34.276,13.528 L31.244,13.528 L31.244,12.712 Z M37.244,16.72 L37.244,19.808 L36.396,19.808 L36.396,19.448 L32.62,19.448 L32.62,19.808 L31.772,19.808 L31.772,16.72 L37.244,16.72 Z M32.62,18.648 L36.396,18.648 L36.396,17.52 L32.62,17.52 L32.62,18.648 Z M35.772,14.048 C36.692,14.576 37.468,15.104 38.1,15.632 L37.492,16.24 C36.956,15.728 36.196,15.184 35.212,14.592 L35.772,14.048 Z M41.032,13.56 L42.552,13.56 L42.552,12.432 L43.36,12.432 L43.36,13.56 L45.16,13.56 L45.16,15.888 L45.816,15.888 L45.816,16.68 L43.616,16.68 C44.112,17.704 44.88,18.528 45.936,19.168 L45.384,19.808 C44.328,19.056 43.536,18.128 43.024,17.016 C42.608,18.28 41.832,19.224 40.688,19.832 L40.152,19.128 C41.224,18.616 41.936,17.8 42.288,16.68 L40.696,16.68 L40.696,15.888 L42.472,15.888 C42.52,15.552 42.552,15.2 42.552,14.832 L42.552,14.352 L41.032,14.352 L41.032,13.56 Z M43.36,14.352 L43.36,14.648 C43.36,15.088 43.328,15.504 43.28,15.888 L44.352,15.888 L44.352,14.352 L43.36,14.352 Z M39.256,12.632 C39.76,13.352 40.144,13.976 40.408,14.512 L39.72,14.992 C39.44,14.416 39.056,13.768 38.568,13.064 L39.256,12.632 Z M39.76,15.984 L40.496,16.272 C40.152,17.456 39.76,18.576 39.328,19.624 L38.536,19.28 C39.008,18.208 39.416,17.104 39.76,15.984 Z" fill="#FFFFFF" fill-rule="nonzero" transform="translate(30.790000, 16.108000) rotate(-315.000000) translate(-30.790000, -16.108000) "></path>
            </g>
        </g>
    </g>
</svg>