<?xml version="1.0" encoding="UTF-8"?>
<svg width="47px" height="45px" viewBox="0 0 47 45" version="1.1" xmlns="http://www.w3.org/2000/svg" xmlns:xlink="http://www.w3.org/1999/xlink">
    <!-- Generator: Sketch 55.2 (78181) - https://sketchapp.com -->
    <title>区域初审中_slice</title>
    <desc>Created with Sketch.</desc>
    <defs>
        <linearGradient x1="50%" y1="3.71383611%" x2="50%" y2="100.494001%" id="linearGradient-1">
            <stop stop-color="#FFB753" offset="0%"></stop>
            <stop stop-color="#FF973A" offset="100%"></stop>
        </linearGradient>
        <path d="M26.621859,-1.77635684e-15 L47,19.450741 L47,44.0660666 L0.832889008,-1.42108547e-14 L26.621859,0 Z" id="path-2"></path>
        <filter x="-19.5%" y="-11.3%" width="139.0%" height="145.4%" filterUnits="objectBoundingBox" id="filter-3">
            <feOffset dx="0" dy="6" in="SourceAlpha" result="shadowOffsetOuter1"></feOffset>
            <feGaussianBlur stdDeviation="2" in="shadowOffsetOuter1" result="shadowBlurOuter1"></feGaussianBlur>
            <feColorMatrix values="0 0 0 0 0   0 0 0 0 0   0 0 0 0 0  0 0 0 0.06 0" type="matrix" in="shadowBlurOuter1"></feColorMatrix>
        </filter>
    </defs>
    <g id="页面1" stroke="none" stroke-width="1" fill="none" fill-rule="evenodd">
        <g id="画板" transform="translate(-326.000000, -409.000000)">
            <g id="区域初审中" transform="translate(326.000000, 409.000000)">
                <g id="形状结合备份-3">
                    <use fill="black" fill-opacity="1" filter="url(#filter-3)" xlink:href="#path-2"></use>
                    <use fill="url(#linearGradient-1)" fill-rule="evenodd" xlink:href="#path-2"></use>
                </g>
                <path d="M14.026,13.992 C14.722,14.52 15.37,15.048 15.962,15.568 C16.362,15.032 16.714,14.424 17.01,13.744 L17.77,14.144 C17.434,14.904 17.05,15.576 16.61,16.152 C17.17,16.672 17.69,17.184 18.162,17.696 L17.514,18.352 C17.098,17.84 16.61,17.328 16.058,16.808 C15.386,17.504 14.618,18.04 13.754,18.408 L13.266,17.656 C14.082,17.32 14.802,16.832 15.41,16.208 C14.81,15.672 14.146,15.128 13.418,14.576 L14.026,13.992 Z M12.066,12.728 L18.514,12.728 L18.514,13.528 L12.874,13.528 L12.874,18.72 L18.762,18.72 L18.762,19.52 L12.066,19.52 L12.066,12.728 Z M21.478,13.432 L24.214,13.432 C24.206,13.112 24.206,12.784 24.206,12.448 L25.022,12.448 C25.022,12.784 25.022,13.112 25.03,13.432 L25.598,13.432 C25.518,13.176 25.43,12.936 25.334,12.712 L26.07,12.592 C26.142,12.84 26.214,13.12 26.294,13.432 L26.622,13.432 L26.622,14.216 L25.038,14.216 C25.054,15.16 25.086,15.96 25.142,16.632 C25.374,16.072 25.558,15.432 25.694,14.72 L26.414,15.032 C26.142,16.216 25.782,17.208 25.326,18 C25.438,18.576 25.566,18.888 25.702,18.928 C25.822,18.912 25.95,18.544 26.094,17.816 L26.718,18.328 C26.43,19.296 26.086,19.784 25.702,19.784 C25.43,19.784 25.182,19.568 24.958,19.152 C24.894,19.024 24.846,18.896 24.798,18.768 C24.438,19.208 24.038,19.56 23.598,19.832 L23.086,19.16 C23.646,18.84 24.134,18.392 24.534,17.8 C24.486,17.592 24.454,17.384 24.43,17.16 C24.326,16.384 24.262,15.4 24.23,14.216 L21.478,14.216 L21.478,13.432 Z M21.774,14.832 L23.918,14.832 L23.918,17.208 L21.774,17.208 L21.774,14.832 Z M23.198,16.528 L23.198,15.512 L22.486,15.512 L22.486,16.528 L23.198,16.528 Z M23.918,17.528 L23.918,18.28 C23.134,18.576 22.302,18.824 21.414,19.032 L21.206,18.232 C22.134,18.088 23.038,17.856 23.918,17.528 Z M19.35,14.472 L20.046,14.472 L20.046,12.464 L20.87,12.464 L20.87,14.472 L21.534,14.472 L21.534,15.272 L20.87,15.272 L20.87,17.36 C21.094,17.256 21.31,17.152 21.518,17.04 L21.518,17.88 C20.878,18.208 20.198,18.488 19.478,18.72 L19.27,17.872 C19.534,17.816 19.79,17.752 20.046,17.672 L20.046,15.272 L19.35,15.272 L19.35,14.472 Z M31.09,13.76 L29.986,13.76 L29.986,12.952 L34.09,12.952 C34.09,15.704 34.042,17.408 33.962,18.048 C33.866,19.152 33.426,19.712 32.642,19.712 C32.466,19.712 32.146,19.696 31.698,19.664 L31.49,18.904 C31.882,18.936 32.218,18.952 32.498,18.952 C32.874,18.952 33.09,18.512 33.154,17.648 C33.202,17.28 33.226,15.984 33.242,13.76 L31.914,13.76 L31.914,14.368 C31.882,16.864 31.194,18.696 29.834,19.856 L29.194,19.288 C30.434,18.264 31.066,16.624 31.09,14.368 L31.09,13.76 Z M28.002,16.872 C27.746,17.144 27.466,17.408 27.17,17.672 L26.914,16.824 C27.866,15.976 28.514,15.144 28.85,14.344 L27.106,14.344 L27.106,13.584 L28.058,13.584 C27.938,13.256 27.802,12.936 27.65,12.624 L28.458,12.408 C28.634,12.84 28.778,13.232 28.882,13.584 L29.666,13.584 L29.666,14.264 C29.482,14.816 29.194,15.36 28.81,15.904 C28.914,15.968 29.01,16.04 29.106,16.112 C29.346,15.92 29.578,15.656 29.802,15.32 L30.298,15.816 C30.09,16.104 29.858,16.336 29.61,16.52 C29.802,16.68 29.978,16.856 30.146,17.032 L29.706,17.728 C29.402,17.328 29.106,16.984 28.81,16.696 L28.81,19.824 L28.002,19.824 L28.002,16.872 Z M36.422,16.856 L36.422,17.528 L37.958,17.528 L37.958,16.856 L36.422,16.856 Z M37.958,18.288 L36.422,18.288 L36.422,18.704 L35.606,18.704 L35.606,14.672 L37.958,14.672 L37.958,14.016 L38.79,14.016 L38.79,14.672 L41.166,14.672 L41.166,18.68 L40.35,18.68 L40.35,18.288 L38.79,18.288 L38.79,19.864 L37.958,19.864 L37.958,18.288 Z M38.79,17.528 L40.35,17.528 L40.35,16.856 L38.79,16.856 L38.79,17.528 Z M40.35,16.128 L40.35,15.44 L38.79,15.44 L38.79,16.128 L40.35,16.128 Z M37.958,15.44 L36.422,15.44 L36.422,16.128 L37.958,16.128 L37.958,15.44 Z M41.774,12.952 L41.774,14.504 L40.958,14.504 L40.958,13.712 L35.71,13.712 L35.71,14.544 L34.894,14.544 L34.894,12.952 L37.862,12.952 C37.798,12.792 37.726,12.64 37.654,12.496 L38.542,12.352 C38.606,12.528 38.67,12.728 38.734,12.952 L41.774,12.952 Z M45.618,12.392 L46.482,12.392 L46.482,13.76 L49.322,13.76 L49.322,17.664 L48.482,17.664 L48.482,17.224 L46.482,17.224 L46.482,19.896 L45.618,19.896 L45.618,17.224 L43.626,17.224 L43.626,17.664 L42.786,17.664 L42.786,13.76 L45.618,13.76 L45.618,12.392 Z M43.626,16.408 L45.618,16.408 L45.618,14.576 L43.626,14.576 L43.626,16.408 Z M46.482,16.408 L48.482,16.408 L48.482,14.576 L46.482,14.576 L46.482,16.408 Z" fill="#FFFFFF" fill-rule="nonzero" transform="translate(30.694000, 16.124000) rotate(-315.000000) translate(-30.694000, -16.124000) "></path>
            </g>
        </g>
    </g>
</svg>