<?xml version="1.0" encoding="UTF-8"?>
<svg width="50px" height="48px" viewBox="0 0 50 48" version="1.1" xmlns="http://www.w3.org/2000/svg" xmlns:xlink="http://www.w3.org/1999/xlink">
    <!-- Generator: Sketch 55.2 (78181) - https://sketchapp.com -->
    <title>授信_协议执行中_slice</title>
    <desc>Created with Sketch.</desc>
    <defs>
        <linearGradient x1="50%" y1="2.83548885%" x2="50%" y2="100.850367%" id="linearGradient-1">
            <stop stop-color="#8EDC86" offset="0.0950168919%"></stop>
            <stop stop-color="#6BD0AC" offset="100%"></stop>
        </linearGradient>
        <path d="M34.6263055,1.77635684e-15 L50,14.6740446 L50,47.6254616 L0.103784151,0 L34.6263055,0 Z" id="path-2"></path>
        <filter x="-18.0%" y="-10.5%" width="136.1%" height="142.0%" filterUnits="objectBoundingBox" id="filter-3">
            <feOffset dx="0" dy="6" in="SourceAlpha" result="shadowOffsetOuter1"></feOffset>
            <feGaussianBlur stdDeviation="2" in="shadowOffsetOuter1" result="shadowBlurOuter1"></feGaussianBlur>
            <feColorMatrix values="0 0 0 0 0   0 0 0 0 0   0 0 0 0 0  0 0 0 0.06 0" type="matrix" in="shadowBlurOuter1"></feColorMatrix>
        </filter>
    </defs>
    <g id="页面1" stroke="none" stroke-width="1" fill="none" fill-rule="evenodd">
        <g id="画板" transform="translate(-826.000000, -1152.000000)">
            <g id="授信-协议执行中" transform="translate(826.000000, 1152.000000)">
                <g id="形状结合备份-3">
                    <use fill="black" fill-opacity="1" filter="url(#filter-3)" xlink:href="#path-2"></use>
                    <use fill="url(#linearGradient-1)" fill-rule="evenodd" xlink:href="#path-2"></use>
                </g>
                <path d="M37.925246,10.22748 L37.925246,11.84348 L37.445246,11.84348 L37.445246,12.22748 C37.205246,12.81948 36.805246,13.33948 36.261246,13.78748 C36.789246,14.07548 37.413246,14.32348 38.133246,14.52348 L37.685246,15.21148 C36.845246,14.95548 36.141246,14.63548 35.581246,14.25948 C34.933246,14.64348 34.149246,14.95548 33.229246,15.19548 L32.829246,14.47548 C33.653246,14.29148 34.357246,14.05148 34.941246,13.76348 C34.461246,13.32348 34.109246,12.82748 33.901246,12.26748 L33.565246,12.26748 L33.565246,11.84348 L33.149246,11.84348 L33.149246,10.22748 L36.261246,10.22748 C36.533246,9.75548002 36.773246,9.25948002 36.965246,8.73148002 L37.677246,8.99548002 C37.469246,9.47548002 37.253246,9.89148002 37.037246,10.22748 L37.925246,10.22748 Z" id="路径" fill="#FFFFFF" fill-rule="nonzero" transform="translate(35.481246, 11.971480) rotate(-315.000000) translate(-35.481246, -11.971480) "></path>
                <path d="M33.9935849,12.1334152 C34.2175849,12.5414152 34.5375849,12.9094152 34.9615849,13.2294152 C35.4095849,12.9094152 35.7535849,12.5494152 36.0015849,12.1334152 L33.9935849,12.1334152 Z" id="路径" fill="#7FD797" fill-rule="nonzero" transform="translate(34.997585, 12.681415) rotate(-315.000000) translate(-34.997585, -12.681415) "></path>
                <polygon id="路径" fill="#7FD797" fill-rule="nonzero" transform="translate(36.015819, 11.510446) rotate(-315.000000) translate(-36.015819, -11.510446) " points="34.3598187 11.8224464 37.6718187 11.8224464 37.6718187 11.1984464 34.3598187 11.1984464"></polygon>
                <path d="M37.2717581,9.53377194 C37.4957581,9.91777194 37.6637581,10.2617719 37.7837581,10.5737719 L37.1677581,10.8057719 C37.0237581,10.4377719 36.8397581,10.0697719 36.6237581,9.70977194 L37.2717581,9.53377194 Z" id="路径" fill="#FFFFFF" fill-rule="nonzero" transform="translate(37.203758, 10.169772) rotate(-315.000000) translate(-37.203758, -10.169772) "></path>
                <path d="M36.268838,8.56713616 C36.492838,8.93513616 36.660838,9.27913616 36.772838,9.58313616 L36.156838,9.81513616 C36.012838,9.44713616 35.836838,9.09513616 35.620838,8.74313616 L36.268838,8.56713616 Z" id="路径" fill="#FFFFFF" fill-rule="nonzero" transform="translate(36.196838, 9.191136) rotate(-315.000000) translate(-36.196838, -9.191136) "></path>
                <path d="M40.1033989,8.91995448 L40.4633989,9.54395448 C39.3273989,9.75195448 37.8153989,9.86395448 35.9273989,9.86395448 L35.7033989,9.18395448 C37.4473989,9.18395448 38.9113989,9.09595448 40.1033989,8.91995448 Z" id="路径" fill="#FFFFFF" fill-rule="nonzero" transform="translate(38.083399, 9.391954) rotate(-315.000000) translate(-38.083399, -9.391954) "></path>
                <path d="M33.0830728,12.7135138 L32.4030728,12.7135138 L32.2350728,11.9855138 C32.4350728,12.0175138 32.6270728,12.0335138 32.8190728,12.0335138 C32.9470728,12.0335138 33.0110728,11.9695138 33.0110728,11.8495138 L33.0110728,10.0815138 C32.7710728,10.1695138 32.5390728,10.2575138 32.2990728,10.3375138 L32.1150728,9.59351379 C32.4190728,9.52151379 32.7150728,9.43351379 33.0110728,9.32151379 L33.0110728,7.55351379 L32.1870728,7.55351379 L32.1870728,6.82551379 L33.0110728,6.82551379 L33.0110728,5.42551379 L33.7550728,5.42551379 L33.7550728,6.82551379 L34.4350728,6.82551379 L34.4350728,7.55351379 L33.7550728,7.55351379 L33.7550728,9.00951379 C33.9630728,8.90551379 34.1790728,8.79351379 34.3870728,8.67351379 L34.3870728,9.44151379 C34.1790728,9.55351379 33.9630728,9.65751379 33.7550728,9.76151379 L33.7550728,12.0335138 C33.7550728,12.4815138 33.5310728,12.7135138 33.0830728,12.7135138 Z" id="路径" fill="#FFFFFF" fill-rule="nonzero" transform="translate(33.275073, 9.069514) rotate(-315.000000) translate(-33.275073, -9.069514) "></path>
                <path d="M38.4037118,13.9854665 C38.1957118,14.2574665 37.9797118,14.5294665 37.7397118,14.8014665 L37.4917118,13.9854665 C38.2277118,13.0574665 38.7797118,11.9694665 39.1397118,10.7374665 L39.8517118,11.0734665 C39.6677118,11.6654665 39.4357118,12.2414665 39.1477118,12.7934665 L39.1477118,18.2174665 L38.4037118,18.2174665 L38.4037118,13.9854665 Z" id="路径" fill="#FFFFFF" fill-rule="nonzero" transform="translate(38.671712, 14.477466) rotate(-315.000000) translate(-38.671712, -14.477466) "></path>
                <path d="M40.6370774,15.2057793 L42.9810774,15.2057793 C42.8770774,14.9337793 42.7570774,14.6697793 42.6210774,14.4137793 L43.3490774,14.2137793 C43.5170774,14.5737793 43.6450774,14.9017793 43.7330774,15.2057793 L45.8930774,15.2057793 L45.8930774,15.9177793 L40.6370774,15.9177793 L40.6370774,15.2057793 Z" id="路径" fill="#FFFFFF" fill-rule="nonzero" transform="translate(43.265077, 15.065779) rotate(-315.000000) translate(-43.265077, -15.065779) "></path>
                <polygon id="路径" fill="#FFFFFF" fill-rule="nonzero" transform="translate(42.094109, 16.270689) rotate(-315.000000) translate(-42.094109, -16.270689) " points="40.1701086 15.9306893 44.0181086 15.9306893 44.0181086 16.6106893 40.1701086 16.6106893"></polygon>
                <polygon id="路径" fill="#FFFFFF" fill-rule="nonzero" transform="translate(41.293664, 17.071134) rotate(-315.000000) translate(-41.293664, -17.071134) " points="39.3696637 16.7271341 43.2176637 16.7271341 43.2176637 17.4151341 39.3696637 17.4151341"></polygon>
                <polygon id="路径" fill="#FFFFFF" fill-rule="nonzero" transform="translate(39.667318, 18.691823) rotate(-315.000000) translate(-39.667318, -18.691823) " points="41.7633181 17.2438229 41.7633181 20.1398229 41.0273181 20.1398229 41.0273181 19.7238229 38.3073181 19.7238229 38.3073181 20.1398229 37.5713181 20.1398229 37.5713181 17.2438229"></polygon>
                <polygon id="路径" fill="#7FD797" fill-rule="nonzero" transform="translate(39.817225, 18.541916) rotate(-315.000000) translate(-39.817225, -18.541916) " points="38.4572247 19.0739162 41.1772247 19.0739162 41.1772247 18.0099162 38.4572247 18.0099162"></polygon>
                <path d="M23.2632697,9.26276985 C23.4952697,9.83876985 23.7032697,10.4627698 23.8872697,11.1187698 L23.3192697,11.3827698 C23.1432697,10.7587698 22.9672697,10.1987698 22.7832697,9.70276985 C22.7592697,11.1507698 22.7192697,12.0947698 22.6712697,12.5347698 C22.5912697,13.1827698 22.1992697,13.5107698 21.4952697,13.5107698 C21.3672697,13.5107698 21.1592697,13.4947698 20.8712697,13.4707698 L20.6872697,12.7747698 C20.9432697,12.7907698 21.1752697,12.8067698 21.3672697,12.8067698 C21.7032697,12.8067698 21.8952697,12.5987698 21.9512697,12.1827698 C21.9992697,11.7987698 22.0232697,10.5107698 22.0392697,8.31076985 L21.1832697,8.31076985 L21.1832697,8.35876985 C21.1512697,10.7507698 20.5192697,12.4947698 19.2712697,13.5987698 L18.7032697,13.0947698 C19.8392697,12.1107698 20.4232697,10.5347698 20.4472697,8.35876985 L20.4472697,8.31076985 L19.1512697,8.31076985 L19.1512697,7.57476985 L20.4472697,7.57476985 L20.4472697,6.26276985 L21.1832697,6.26276985 L21.1832697,7.57476985 L22.7912697,7.57476985 C22.7912697,8.25476985 22.7832697,8.87076985 22.7832697,9.42276985 L23.2632697,9.26276985 Z" id="路径" fill="#FFFFFF" fill-rule="nonzero" transform="translate(21.295270, 9.930770) rotate(-315.000000) translate(-21.295270, -9.930770) "></path>
                <path d="M19.543052,7.54537461 L20.143052,7.69737461 C19.919052,8.64937461 19.591052,9.37737461 19.175052,9.88937461 L18.663052,9.40937461 C19.071052,8.88937461 19.367052,8.26537461 19.543052,7.54537461 Z" id="路径" fill="#FFFFFF" fill-rule="nonzero" transform="translate(19.403052, 8.717375) rotate(-315.000000) translate(-19.403052, -8.717375) "></path>
                <polygon id="路径" fill="#FFFFFF" fill-rule="nonzero" transform="translate(18.729886, 7.342759) rotate(-315.000000) translate(-18.729886, -7.342759) " points="17.5178863 5.45075903 18.3818863 5.45075903 18.3818863 3.67475903 19.1098863 3.67475903 19.1098863 5.45075903 19.9418863 5.45075903 19.9418863 6.16275903 19.1098863 6.16275903 19.1098863 11.010759 18.3818863 11.010759 18.3818863 6.16275903 17.5178863 6.16275903"></polygon>
                <path d="M28.218102,12.234255 C28.714102,12.890255 29.090102,13.458255 29.354102,13.954255 L28.754102,14.370255 C28.474102,13.842255 28.106102,13.274255 27.650102,12.650255 L28.218102,12.234255 Z" id="路径" fill="#FFFFFF" fill-rule="nonzero" transform="translate(28.502102, 13.302255) rotate(-315.000000) translate(-28.502102, -13.302255) "></path>
                <path d="M28.0273401,11.9907713 L28.7473401,12.1427713 C28.4913401,14.0067713 27.9633401,15.5267713 27.1633401,16.6947713 C27.7713401,17.3907713 28.4673401,17.9427713 29.2593401,18.3587713 L28.8113401,19.0147713 C28.0113401,18.5827713 27.3153401,18.0067713 26.7073401,17.3027713 C26.0753401,18.0387713 25.3153401,18.6147713 24.4273401,19.0147713 L24.0113401,18.3667713 C24.8833401,17.9667713 25.6193401,17.4067713 26.2113401,16.6787713 C25.4593401,15.6307713 24.8673401,14.3427713 24.4273401,12.8227713 L25.0833401,12.4547713 C25.4513401,13.8787713 25.9793401,15.0787713 26.6673401,16.0547713 C27.3553401,14.9747713 27.8033401,13.6227713 28.0273401,11.9907713 Z" id="路径" fill="#FFFFFF" fill-rule="nonzero" transform="translate(26.635340, 15.502771) rotate(-315.000000) translate(-26.635340, -15.502771) "></path>
                <path d="M25.969669,10.1524006 C26.473669,10.5524006 26.905669,10.9444006 27.257669,11.3364006 L26.737669,11.8644006 C26.425669,11.4804006 25.993669,11.0804006 25.441669,10.6564006 L25.969669,10.1524006 Z" id="路径" fill="#FFFFFF" fill-rule="nonzero" transform="translate(26.349669, 11.008401) rotate(-315.000000) translate(-26.349669, -11.008401) "></path>
                <path d="M22.2154673,11.285181 L24.0634673,11.285181 L24.0634673,14.565181 C24.2794673,14.373181 24.5034673,14.157181 24.7434673,13.917181 L24.9514673,14.725181 C24.4714673,15.189181 23.9594673,15.605181 23.4154673,15.981181 L23.1274673,15.285181 C23.2634673,15.181181 23.3354673,15.045181 23.3354673,14.885181 L23.3354673,12.013181 L22.2154673,12.013181 L22.2154673,11.285181 Z" id="路径" fill="#FFFFFF" fill-rule="nonzero" transform="translate(23.583467, 13.633181) rotate(-315.000000) translate(-23.583467, -13.633181) "></path>
                <path d="M33.9771994,24.4211016 C33.5931994,24.4131016 33.3051994,24.1891016 33.1211994,23.7411016 C32.9371994,23.2931016 32.8491994,22.3811016 32.8491994,21.0051016 L32.8491994,19.1171016 L31.8971994,19.1171016 L31.8971994,19.9091016 C31.8891994,20.3411016 31.8571994,20.7411016 31.8091994,21.1171016 C32.1611994,21.3731016 32.5051994,21.6451016 32.8251994,21.9331016 L32.3851994,22.5891016 C32.1371994,22.3491016 31.8891994,22.1411016 31.6491994,21.9491016 C31.3771994,23.0211016 30.8731994,23.8611016 30.1531994,24.4771016 L29.5771994,23.9811016 C30.2891994,23.3891016 30.7611994,22.5411016 30.9851994,21.4531016 C30.6651994,21.2371016 30.3531994,21.0451016 30.0411994,20.8851016 L30.4571994,20.2691016 C30.6811994,20.3811016 30.8891994,20.5091016 31.0971994,20.6371016 C31.1211994,20.3971016 31.1371994,20.1571016 31.1371994,19.9091016 L31.1371994,19.1171016 L30.1771994,19.1171016 L30.1771994,18.3811016 L31.1371994,18.3811016 L31.1371994,17.1011016 L31.8971994,17.1011016 L31.8971994,18.3811016 L33.5931994,18.3811016 L33.5931994,21.0051016 C33.5931994,22.0771016 33.6171994,22.7571016 33.6811994,23.0531016 C33.7211994,23.3491016 33.7931994,23.5011016 33.8971994,23.5011016 C33.9611994,23.5011016 34.0171994,23.3571016 34.0651994,23.0771016 C34.0971994,22.8371016 34.1371994,22.5651016 34.1771994,22.2531016 L34.8091994,22.5571016 C34.6971994,23.3011016 34.5771994,23.7971016 34.4331994,24.0451016 C34.2971994,24.2931016 34.1451994,24.4211016 33.9771994,24.4211016 Z" id="路径" fill="#FFFFFF" fill-rule="nonzero" transform="translate(32.193199, 20.789102) rotate(-315.000000) translate(-32.193199, -20.789102) "></path>
                <path d="M29.4535561,21.8705466 L28.6695561,21.8705466 L28.5015561,21.1345466 C28.7415561,21.1585466 28.9655561,21.1745466 29.1895561,21.1745466 C29.3815561,21.1745466 29.4855561,21.0785466 29.4855561,20.8865466 L29.4855561,19.1585466 C29.1815561,19.2705466 28.8695561,19.3665466 28.5655561,19.4545466 L28.3815561,18.7345466 C28.7495561,18.6545466 29.1175561,18.5505466 29.4855561,18.4225466 L29.4855561,16.7585466 L28.5335561,16.7585466 L28.5335561,16.0305466 L29.4855561,16.0305466 L29.4855561,14.5825466 L30.2455561,14.5825466 L30.2455561,16.0305466 L30.9335561,16.0305466 L30.9335561,16.7585466 L30.2455561,16.7585466 L30.2455561,18.1345466 C30.5015561,18.0225466 30.7415561,17.9025466 30.9815561,17.7825466 L30.9815561,18.5425466 C30.7415561,18.6545466 30.4935561,18.7665466 30.2455561,18.8705466 L30.2455561,21.0785466 C30.2455561,21.6065466 29.9815561,21.8705466 29.4535561,21.8705466 Z" id="路径" fill="#FFFFFF" fill-rule="nonzero" transform="translate(29.681556, 18.226547) rotate(-315.000000) translate(-29.681556, -18.226547) "></path>
                <polygon id="路径" fill="#FFFFFF" fill-rule="nonzero" transform="translate(39.796012, 24.313322) rotate(-315.000000) translate(-39.796012, -24.313322) " points="37.8440115 23.9413218 41.7480115 23.9413218 41.7480115 24.6853218 37.8440115 24.6853218"></polygon>
                <path d="M34.7379276,24.7972291 L39.1859276,24.7972291 L39.1859276,25.5412291 L37.9379276,25.5412291 L37.9379276,28.9332291 C37.9379276,29.4452291 37.6499276,29.7012291 37.0819276,29.7012291 L35.9219276,29.7012291 L35.7539276,28.9572291 C36.1219276,28.9892291 36.4819276,29.0052291 36.8179276,29.0052291 C37.0499276,29.0052291 37.1699276,28.9172291 37.1699276,28.7492291 L37.1699276,25.5412291 L34.7379276,25.5412291 L34.7379276,24.7972291 Z" id="路径" fill="#FFFFFF" fill-rule="nonzero" transform="translate(36.961928, 27.249229) rotate(-315.000000) translate(-36.961928, -27.249229) "></path>
                <path d="M37.1927417,20.6782958 L37.8887417,20.9982958 C37.4567417,21.8782958 36.7367417,22.6622958 35.7127417,23.3662958 L35.4807417,22.6062958 C36.2567417,22.0542958 36.8247417,21.4142958 37.1927417,20.6782958 Z" id="路径" fill="#FFFFFF" fill-rule="nonzero" transform="translate(36.684742, 22.022296) rotate(-315.000000) translate(-36.684742, -22.022296) "></path>
                <path d="M35.2172792,21.7152284 L35.9052792,22.0352284 C35.6892792,22.4672284 35.4172792,22.8752284 35.0892792,23.2592284 L35.0892792,27.2112284 L34.3452792,27.2112284 L34.3452792,24.0032284 C34.0572792,24.2512284 33.7532792,24.4912284 33.4172792,24.7232284 L33.1932792,23.9712284 C34.1052792,23.3312284 34.7852792,22.5792284 35.2172792,21.7152284 Z" id="路径" fill="#FFFFFF" fill-rule="nonzero" transform="translate(34.549279, 24.463228) rotate(-315.000000) translate(-34.549279, -24.463228) "></path>
                <polygon id="路径" fill="#FFFFFF" fill-rule="nonzero" transform="translate(42.276542, 30.872444) rotate(-315.000000) translate(-42.276542, -30.872444) " points="41.8805421 27.1364443 42.6645421 27.1364443 42.6645421 28.5204443 45.5125421 28.5204443 45.5125421 32.3844443 44.7525421 32.3844443 44.7525421 31.9284443 42.6645421 31.9284443 42.6645421 34.6084443 41.8805421 34.6084443 41.8805421 31.9284443 39.8005421 31.9284443 39.8005421 32.3844443 39.0405421 32.3844443 39.0405421 28.5204443 41.8805421 28.5204443"></polygon>
                <polygon id="路径" fill="#7FD797" fill-rule="nonzero" transform="translate(41.719342, 29.398834) rotate(-315.000000) translate(-41.719342, -29.398834) " points="40.679342 30.3588337 42.759342 30.3588337 42.759342 28.4388337 40.679342 28.4388337"></polygon>
                <polygon id="路径" fill="#7FD797" fill-rule="nonzero" transform="translate(43.747324, 31.426816) rotate(-315.000000) translate(-43.747324, -31.426816) " points="42.7033242 32.386816 44.7913242 32.386816 44.7913242 30.466816 42.7033242 30.466816"></polygon>
            </g>
        </g>
    </g>
</svg>