<?xml version="1.0" encoding="UTF-8"?>
<svg width="50px" height="48px" viewBox="0 0 50 48" version="1.1" xmlns="http://www.w3.org/2000/svg" xmlns:xlink="http://www.w3.org/1999/xlink">
    <!-- Generator: Sketch 55.2 (78181) - https://sketchapp.com -->
    <title>调查_区域审核_slice</title>
    <desc>Created with Sketch.</desc>
    <defs>
        <linearGradient x1="50%" y1="2.83548885%" x2="50%" y2="100.850367%" id="linearGradient-1">
            <stop stop-color="#8EDC86" offset="0.0950168919%"></stop>
            <stop stop-color="#6BD0AC" offset="100%"></stop>
        </linearGradient>
        <path d="M34.6263055,1.77635684e-15 L50,14.6740446 L50,47.6254616 L0.103784151,0 L34.6263055,0 Z" id="path-2"></path>
        <filter x="-18.0%" y="-10.5%" width="136.1%" height="142.0%" filterUnits="objectBoundingBox" id="filter-3">
            <feOffset dx="0" dy="6" in="SourceAlpha" result="shadowOffsetOuter1"></feOffset>
            <feGaussianBlur stdDeviation="2" in="shadowOffsetOuter1" result="shadowBlurOuter1"></feGaussianBlur>
            <feColorMatrix values="0 0 0 0 0   0 0 0 0 0   0 0 0 0 0  0 0 0 0.06 0" type="matrix" in="shadowBlurOuter1"></feColorMatrix>
        </filter>
    </defs>
    <g id="页面1" stroke="none" stroke-width="1" fill="none" fill-rule="evenodd">
        <g id="画板" transform="translate(-826.000000, -295.000000)">
            <g id="调查-区域审核" transform="translate(826.000000, 295.000000)">
                <g id="形状结合备份-3">
                    <use fill="black" fill-opacity="1" filter="url(#filter-3)" xlink:href="#path-2"></use>
                    <use fill="url(#linearGradient-1)" fill-rule="evenodd" xlink:href="#path-2"></use>
                </g>
                <polygon id="路径" fill="#FFFFFF" fill-rule="nonzero" transform="translate(36.961539, 10.460129) rotate(-315.000000) translate(-36.961539, -10.460129) " points="35.7655386 9.82812937 36.5975386 9.82812937 36.5975386 9.26012937 37.3175386 9.26012937 37.3175386 9.82812937 38.1495386 9.82812937 38.1495386 10.4281294 37.3175386 10.4281294 37.3175386 11.0361294 38.2695386 11.0361294 38.2695386 11.6601294 35.6535386 11.6601294 35.6535386 11.0361294 36.5975386 11.0361294 36.5975386 10.4281294 35.7655386 10.4281294"></polygon>
                <polygon id="路径" fill="#FFFFFF" fill-rule="nonzero" transform="translate(35.035380, 12.374975) rotate(-315.000000) translate(-35.035380, -12.374975) " points="33.9593797 11.2989745 36.1113797 11.2989745 36.1113797 13.4509745 33.9593797 13.4509745"></polygon>
                <polygon id="路径" fill="#80D796" fill-rule="nonzero" transform="translate(35.035380, 12.380631) rotate(-315.000000) translate(-35.035380, -12.380631) " points="35.4673797 12.8366314 35.4673797 11.9246314 34.6033797 11.9246314 34.6033797 12.8366314"></polygon>
                <path d="M38.2681434,7.72320167 L38.2681434,14.0032017 C38.2681434,14.5312017 37.9881434,14.8032017 37.4441434,14.8032017 L36.7001434,14.8032017 L36.5241434,14.1072017 C36.7721434,14.1232017 37.0041434,14.1392017 37.2201434,14.1392017 C37.4361434,14.1392017 37.5481434,14.0032017 37.5481434,13.7472017 L37.5481434,8.41120167 L34.5081434,8.41120167 L34.5081434,12.1792017 C34.4921434,13.2752017 34.2521434,14.1632017 33.7881434,14.8432017 L33.2281434,14.3312017 C33.5961434,13.7712017 33.7801434,13.0752017 33.7961434,12.2272017 L33.7961434,7.72320167 L38.2681434,7.72320167 Z" id="路径" fill="#FFFFFF" fill-rule="nonzero" transform="translate(35.748143, 11.283202) rotate(-315.000000) translate(-35.748143, -11.283202) "></path>
                <path d="M35.2066387,6.12916401 C35.6946387,6.52116401 36.1106387,6.91316401 36.4466387,7.30516401 L35.9266387,7.83316401 C35.6226387,7.46516401 35.2066387,7.06516401 34.6706387,6.64916401 L35.2066387,6.12916401 Z" id="路径" fill="#FFFFFF" fill-rule="nonzero" transform="translate(35.558639, 6.981164) rotate(-315.000000) translate(-35.558639, -6.981164) "></path>
                <path d="M31.5203538,7.19397887 L33.3123538,7.19397887 L33.3123538,10.3779789 C33.4563538,10.2339789 33.6163538,10.0899789 33.7763538,9.92997887 L33.9683538,10.6739789 C33.5603538,11.0899789 33.1283538,11.4579789 32.6643538,11.7859789 L32.3763538,11.1139789 C32.5043538,11.0099789 32.5763538,10.8819789 32.5763538,10.7219789 L32.5763538,7.92197887 L31.5203538,7.92197887 L31.5203538,7.19397887 Z" id="路径" fill="#FFFFFF" fill-rule="nonzero" transform="translate(32.744354, 9.489979) rotate(-315.000000) translate(-32.744354, -9.489979) "></path>
                <polygon id="路径" fill="#FFFFFF" fill-rule="nonzero" transform="translate(40.089779, 16.552561) rotate(-315.000000) translate(-40.089779, -16.552561) " points="37.641779 15.0405614 42.537779 15.0405614 42.537779 18.0645614 37.641779 18.0645614"></polygon>
                <polygon id="路径" fill="#80D796" fill-rule="nonzero" transform="translate(39.674000, 16.968340) rotate(-315.000000) translate(-39.674000, -16.968340) " points="41.3860002 17.2203402 41.3860002 16.7163402 37.9620002 16.7163402 37.9620002 17.2203402"></polygon>
                <polygon id="路径" fill="#80D796" fill-rule="nonzero" transform="translate(40.494244, 16.148096) rotate(-315.000000) translate(-40.494244, -16.148096) " points="38.7822441 16.4160963 42.2062441 16.4160963 42.2062441 15.8800963 38.7822441 15.8800963"></polygon>
                <path d="M38.8241044,13.5562949 L41.7681044,13.5562949 L41.7681044,12.8842949 L42.5041044,12.8842949 L42.5041044,13.5562949 L45.4481044,13.5562949 L45.4481044,14.2602949 L43.1841044,14.2602949 C43.7761044,14.7402949 44.6481044,15.1322949 45.7921044,15.4202949 L45.4641044,16.1082949 C44.0881044,15.6362949 43.1041044,15.0202949 42.5041044,14.2682949 L42.5041044,15.6282949 L41.7681044,15.6282949 L41.7681044,14.2762949 C41.1441044,15.0122949 40.1681044,15.6282949 38.8401044,16.1082949 L38.4321044,15.4362949 C39.6081044,15.1162949 40.4961044,14.7242949 41.1041044,14.2602949 L38.8241044,14.2602949 L38.8241044,13.5562949 Z" id="路径" fill="#FFFFFF" fill-rule="nonzero" transform="translate(42.112104, 14.496295) rotate(-315.000000) translate(-42.112104, -14.496295) "></path>
                <polygon id="路径" fill="#FFFFFF" fill-rule="nonzero" transform="translate(38.426664, 18.198706) rotate(-315.000000) translate(-38.426664, -18.198706) " points="34.9666638 17.850706 41.8866638 17.850706 41.8866638 18.546706 34.9666638 18.546706"></polygon>
                <path d="M22.0311271,9.68092158 C22.7351271,10.2169216 23.3991271,10.7529216 24.0071271,11.2889216 C24.4231271,10.7369216 24.7831271,10.1129216 25.0871271,9.40892158 L25.7751271,9.77692158 C25.4391271,10.5529216 25.0471271,11.2329216 24.5991271,11.8169216 C25.1751271,12.3449216 25.7111271,12.8809216 26.1911271,13.4089216 L25.5991271,14.0009216 C25.1671271,13.4889216 24.6631271,12.9529216 24.0871271,12.4089216 C23.4151271,13.1289216 22.6311271,13.6729216 21.7431271,14.0569216 L21.3031271,13.3689216 C22.1431271,13.0249216 22.8791271,12.5289216 23.5031271,11.8729216 C22.8951271,11.3289216 22.2151271,10.7769216 21.4791271,10.2169216 L22.0311271,9.68092158 Z" id="路径" fill="#FFFFFF" fill-rule="nonzero" transform="translate(23.747127, 11.732922) rotate(-315.000000) translate(-23.747127, -11.732922) "></path>
                <polygon id="路径" fill="#FFFFFF" fill-rule="nonzero" transform="translate(23.520853, 11.585843) rotate(-315.000000) translate(-23.520853, -11.585843) " points="20.1888529 8.20584337 26.6048529 8.20584337 26.6048529 8.93384337 20.9168529 8.93384337 20.9168529 14.2378434 26.8528529 14.2378434 26.8528529 14.9658434 20.1888529 14.9658434"></polygon>
                <path d="M27.0250839,15.0430449 L29.7930839,15.0430449 C29.7850839,14.7150449 29.7850839,14.3790449 29.7850839,14.0350449 L30.5210839,14.0350449 C30.5210839,14.3870449 30.5210839,14.7230449 30.5290839,15.0430449 L31.1690839,15.0430449 C31.0810839,14.7710449 30.9850839,14.5230449 30.8810839,14.2990449 L31.5610839,14.1870449 C31.6410839,14.4350449 31.7210839,14.7230449 31.8010839,15.0430449 L32.1530839,15.0430449 L32.1530839,15.7630449 L30.5370839,15.7630449 C30.5530839,16.7790449 30.6010839,17.6430449 30.6650839,18.3470449 C30.9210839,17.7470449 31.1210839,17.0670449 31.2650839,16.3150449 L31.9210839,16.5950449 C31.6570839,17.7870449 31.2970839,18.7790449 30.8330839,19.5710449 C30.9610839,20.2030449 31.0970839,20.5390449 31.2570839,20.5790449 C31.3850839,20.5630449 31.5290839,20.1790449 31.6730839,19.4350449 L32.2410839,19.8990449 C31.9610839,20.8670449 31.6330839,21.3550449 31.2570839,21.3550449 C30.9850839,21.3550449 30.7370839,21.1390449 30.5210839,20.7230449 C30.4570839,20.5870449 30.3930839,20.4430449 30.3450839,20.2830449 C29.9770839,20.7470449 29.5610839,21.1150449 29.1050839,21.3950449 L28.6410839,20.7870449 C29.2170839,20.4590449 29.7050839,19.9950449 30.1050839,19.4030449 C30.0650839,19.1870449 30.0330839,18.9630449 30.0010839,18.7390449 C29.8970839,17.9550449 29.8330839,16.9630449 29.8090839,15.7630449 L27.0250839,15.7630449 L27.0250839,15.0430449 Z" id="路径" fill="#FFFFFF" fill-rule="nonzero" transform="translate(29.633084, 17.715045) rotate(-315.000000) translate(-29.633084, -17.715045) "></path>
                <polygon id="路径" fill="#FFFFFF" fill-rule="nonzero" transform="translate(28.835467, 16.747723) rotate(-315.000000) translate(-28.835467, -16.747723) " points="27.7794675 15.5797229 29.8914675 15.5797229 29.8914675 17.9157229 27.7794675 17.9157229"></polygon>
                <polygon id="路径" fill="#80D796" fill-rule="nonzero" transform="translate(28.829811, 16.747723) rotate(-315.000000) translate(-28.829811, -16.747723) " points="29.2338106 17.2957229 29.2338106 16.1997229 28.4258106 16.1997229 28.4258106 17.2957229"></polygon>
                <path d="M28.3942447,17.4362796 L28.3942447,18.1242796 C27.6102447,18.4202796 26.7702447,18.6682796 25.8742447,18.8762796 L25.6902447,18.1482796 C26.6182447,18.0042796 27.5142447,17.7642796 28.3942447,17.4362796 Z" id="路径" fill="#FFFFFF" fill-rule="nonzero" transform="translate(27.042245, 18.156280) rotate(-315.000000) translate(-27.042245, -18.156280) "></path>
                <path d="M26.3784255,13.6380838 L27.0984255,13.6380838 L27.0984255,11.6060838 L27.8424255,11.6060838 L27.8424255,13.6380838 L28.5384255,13.6380838 L28.5384255,14.3740838 L27.8424255,14.3740838 L27.8424255,16.5500838 C28.0744255,16.4460838 28.2984255,16.3340838 28.5224255,16.2220838 L28.5224255,16.9820838 C27.8824255,17.3180838 27.2024255,17.5980838 26.4824255,17.8220838 L26.2984255,17.0540838 C26.5704255,16.9900838 26.8344255,16.9180838 27.0984255,16.8380838 L27.0984255,14.3740838 L26.3784255,14.3740838 L26.3784255,13.6380838 Z" id="路径" fill="#FFFFFF" fill-rule="nonzero" transform="translate(27.418425, 14.714084) rotate(-315.000000) translate(-27.418425, -14.714084) "></path>
                <polygon id="路径" fill="#FFFFFF" fill-rule="nonzero" transform="translate(33.734303, 22.936321) rotate(-315.000000) translate(-33.734303, -22.936321) " points="33.3463032 24.2723214 31.7383032 24.2723214 31.7383032 24.7043214 30.9943032 24.7043214 30.9943032 20.7123214 33.3463032 20.7123214 33.3463032 20.0163214 34.0983032 20.0163214 34.0983032 20.7123214 36.4743032 20.7123214 36.4743032 24.6803214 35.7303032 24.6803214 35.7303032 24.2723214 34.0983032 24.2723214 34.0983032 25.8563214 33.3463032 25.8563214"></polygon>
                <polygon id="路径" fill="#80D796" fill-rule="nonzero" transform="translate(32.701927, 22.282955) rotate(-315.000000) translate(-32.701927, -22.282955) " points="31.8979273 21.9109548 31.8979273 22.6549548 33.5059273 22.6549548 33.5059273 21.9109548"></polygon>
                <polygon id="路径" fill="#80D796" fill-rule="nonzero" transform="translate(34.379185, 23.960212) rotate(-315.000000) translate(-34.379185, -23.960212) " points="33.5631846 24.332212 35.1951846 24.332212 35.1951846 23.588212 33.5631846 23.588212"></polygon>
                <polygon id="路径" fill="#80D796" fill-rule="nonzero" transform="translate(35.377619, 22.961777) rotate(-315.000000) translate(-35.377619, -22.961777) " points="36.1936194 23.3377773 36.1936194 22.5857773 34.5616194 22.5857773 34.5616194 23.3377773"></polygon>
                <polygon id="路径" fill="#80D796" fill-rule="nonzero" transform="translate(33.700362, 21.284520) rotate(-315.000000) translate(-33.700362, -21.284520) " points="34.5043621 20.90852 32.8963621 20.90852 32.8963621 21.66052 34.5043621 21.66052"></polygon>
                <path d="M39.5634369,19.9736487 L39.5634369,21.4856487 L38.8274369,21.4856487 L38.8274369,20.6696487 L33.4834369,20.6696487 L33.4834369,21.5256487 L32.7474369,21.5256487 L32.7474369,19.9736487 L35.7394369,19.9736487 C35.6674369,19.7976487 35.5954369,19.6376487 35.5154369,19.4856487 L36.3234369,19.3576487 C36.3874369,19.5416487 36.4594369,19.7496487 36.5234369,19.9736487 L39.5634369,19.9736487 Z" id="路径" fill="#FFFFFF" fill-rule="nonzero" transform="translate(36.155437, 20.441649) rotate(-315.000000) translate(-36.155437, -20.441649) "></path>
                <path d="M38.5409927,26.0389537 L38.5409927,29.9109537 L37.8129927,29.9109537 L37.8129927,26.2149537 C37.5809927,26.9029537 37.2929927,27.5429537 36.9409927,28.1189537 L36.6289927,27.3349537 C37.1569927,26.5829537 37.5329927,25.7189537 37.7729927,24.7589537 L36.7729927,24.7589537 L36.7729927,24.0309537 L37.8129927,24.0309537 L37.8129927,22.5349537 L38.5409927,22.5349537 L38.5409927,24.0309537 L39.4209927,24.0309537 L39.4209927,24.7589537 L38.5409927,24.7589537 L38.5409927,25.1909537 C38.9089927,25.5989537 39.2769927,26.0549537 39.6529927,26.5589537 L39.2289927,27.2069537 C38.9649927,26.7429537 38.7329927,26.3509537 38.5409927,26.0389537 Z" id="路径" fill="#FFFFFF" fill-rule="nonzero" transform="translate(38.140993, 26.222954) rotate(-315.000000) translate(-38.140993, -26.222954) "></path>
                <path d="M39.1903214,26.050804 L41.0863214,26.050804 C40.9823214,25.794804 40.8703214,25.562804 40.7423214,25.354804 L41.5183214,25.226804 C41.6303214,25.466804 41.7343214,25.746804 41.8303214,26.050804 L43.5743214,26.050804 L43.5743214,26.746804 L41.3823214,26.746804 C40.9903214,27.426804 40.6463214,27.922804 40.3503214,28.234804 C40.7823214,28.218804 41.2143214,28.186804 41.6463214,28.146804 C41.8383214,27.866804 42.0143214,27.578804 42.1743214,27.274804 L42.7903214,27.602804 C41.9903214,29.194804 40.8223214,30.274804 39.2783214,30.850804 L38.8623214,30.218804 C39.7503214,29.906804 40.5023214,29.426804 41.1183214,28.786804 C40.6063214,28.818804 40.0623214,28.842804 39.4943214,28.866804 L39.3423214,28.250804 C39.4063214,28.234804 39.4543214,28.210804 39.4863214,28.186804 C39.7743214,28.002804 40.1423214,27.522804 40.5983214,26.746804 L39.1903214,26.746804 L39.1903214,26.050804 Z" id="路径" fill="#FFFFFF" fill-rule="nonzero" transform="translate(41.218321, 28.038804) rotate(-315.000000) translate(-41.218321, -28.038804) "></path>
                <path d="M40.0208976,30.3432572 C39.2688976,31.0072572 38.3968976,31.5112572 37.4048976,31.8632572 L36.9888976,31.2152572 C38.8448976,30.6072572 40.2288976,29.4472572 41.1568976,27.7192572 L41.7888976,28.0472572 C41.4208976,28.7352572 40.9888976,29.3512572 40.4928976,29.8792572 C41.0368976,30.3592572 41.5088976,30.8312572 41.9008976,31.3112572 L41.3408976,31.8712572 C41.0128976,31.3912572 40.5728976,30.8792572 40.0208976,30.3432572 Z" id="路径" fill="#FFFFFF" fill-rule="nonzero" transform="translate(39.444898, 29.795257) rotate(-315.000000) translate(-39.444898, -29.795257) "></path>
            </g>
        </g>
    </g>
</svg>