<?xml version="1.0" encoding="UTF-8"?>
<svg width="47px" height="45px" viewBox="0 0 47 45" version="1.1" xmlns="http://www.w3.org/2000/svg" xmlns:xlink="http://www.w3.org/1999/xlink">
    <!-- Generator: Sketch 55.2 (78181) - https://sketchapp.com -->
    <title>合同审核中_slice</title>
    <desc>Created with Sketch.</desc>
    <defs>
        <linearGradient x1="50%" y1="2.83548885%" x2="50%" y2="100.850367%" id="linearGradient-1">
            <stop stop-color="#8EDC86" offset="0.0950168919%"></stop>
            <stop stop-color="#6BD0AC" offset="100%"></stop>
        </linearGradient>
        <path d="M26.621859,-1.77635684e-15 L47,19.450741 L47,44.0660666 L0.832889008,-1.42108547e-14 L26.621859,0 Z" id="path-2"></path>
        <filter x="-19.5%" y="-11.3%" width="139.0%" height="145.4%" filterUnits="objectBoundingBox" id="filter-3">
            <feOffset dx="0" dy="6" in="SourceAlpha" result="shadowOffsetOuter1"></feOffset>
            <feGaussianBlur stdDeviation="2" in="shadowOffsetOuter1" result="shadowBlurOuter1"></feGaussianBlur>
            <feColorMatrix values="0 0 0 0 0   0 0 0 0 0   0 0 0 0 0  0 0 0 0.06 0" type="matrix" in="shadowBlurOuter1"></feColorMatrix>
        </filter>
    </defs>
    <g id="页面1" stroke="none" stroke-width="1" fill="none" fill-rule="evenodd">
        <g id="画板" transform="translate(-829.000000, -1029.000000)">
            <g id="合同审核中" transform="translate(829.000000, 1029.000000)">
                <g id="形状结合备份-3">
                    <use fill="black" fill-opacity="1" filter="url(#filter-3)" xlink:href="#path-2"></use>
                    <use fill="url(#linearGradient-1)" fill-rule="evenodd" xlink:href="#path-2"></use>
                </g>
                <path d="M14.946,12.408 L15.554,12.408 C16.554,13.528 17.706,14.416 19.018,15.056 L18.562,15.864 C18.138,15.64 17.738,15.392 17.37,15.128 L17.37,15.68 L13.13,15.68 L13.13,15.12 C12.746,15.384 12.338,15.64 11.906,15.88 L11.458,15.064 C12.858,14.352 14.018,13.464 14.946,12.408 Z M13.474,14.872 L17.018,14.872 C16.362,14.368 15.77,13.8 15.25,13.168 C14.746,13.792 14.154,14.36 13.474,14.872 Z M17.89,16.464 L17.89,19.824 L17.082,19.824 L17.082,19.416 L13.418,19.416 L13.418,19.824 L12.61,19.824 L12.61,16.464 L17.89,16.464 Z M13.418,18.624 L17.082,18.624 L17.082,17.248 L13.418,17.248 L13.418,18.624 Z M25.446,19.808 L24.406,19.808 L24.174,18.968 L25.174,19.008 C25.334,19.008 25.422,18.896 25.422,18.672 L25.422,13.488 L20.478,13.488 L20.478,19.832 L19.638,19.832 L19.638,12.672 L26.262,12.672 L26.262,18.864 C26.262,19.488 25.99,19.808 25.446,19.808 Z M20.918,14.176 L24.982,14.176 L24.982,14.952 L20.918,14.952 L20.918,14.176 Z M21.318,15.616 L24.59,15.616 L24.59,18.344 L21.318,18.344 L21.318,15.616 Z M23.782,17.6 L23.782,16.36 L22.126,16.36 L22.126,17.6 L23.782,17.6 Z M28.722,16.856 L28.722,17.528 L30.258,17.528 L30.258,16.856 L28.722,16.856 Z M30.258,18.288 L28.722,18.288 L28.722,18.704 L27.906,18.704 L27.906,14.672 L30.258,14.672 L30.258,14.016 L31.09,14.016 L31.09,14.672 L33.466,14.672 L33.466,18.68 L32.65,18.68 L32.65,18.288 L31.09,18.288 L31.09,19.864 L30.258,19.864 L30.258,18.288 Z M31.09,17.528 L32.65,17.528 L32.65,16.856 L31.09,16.856 L31.09,17.528 Z M32.65,16.128 L32.65,15.44 L31.09,15.44 L31.09,16.128 L32.65,16.128 Z M30.258,15.44 L28.722,15.44 L28.722,16.128 L30.258,16.128 L30.258,15.44 Z M34.074,12.952 L34.074,14.504 L33.258,14.504 L33.258,13.712 L28.01,13.712 L28.01,14.544 L27.194,14.544 L27.194,12.952 L30.162,12.952 C30.098,12.792 30.026,12.64 29.954,12.496 L30.842,12.352 C30.906,12.528 30.97,12.728 31.034,12.952 L34.074,12.952 Z M36.566,16.064 L36.566,19.832 L35.758,19.832 L35.758,16.288 C35.534,16.92 35.27,17.504 34.95,18.048 L34.598,17.184 C35.11,16.464 35.486,15.632 35.726,14.704 L34.742,14.704 L34.742,13.912 L35.758,13.912 L35.758,12.44 L36.566,12.44 L36.566,13.912 L37.422,13.912 L37.422,14.704 L36.566,14.704 L36.566,15.112 C36.918,15.496 37.286,15.936 37.654,16.416 L37.182,17.136 C36.942,16.712 36.742,16.352 36.566,16.064 Z M37.55,13.224 L39.406,13.224 C39.302,12.984 39.19,12.76 39.07,12.56 L39.926,12.416 C40.03,12.656 40.126,12.928 40.222,13.224 L41.95,13.224 L41.95,13.984 L39.758,13.984 C39.39,14.624 39.062,15.096 38.774,15.416 C39.182,15.392 39.59,15.36 39.99,15.328 C40.182,15.056 40.35,14.768 40.51,14.464 L41.182,14.824 C40.382,16.416 39.214,17.496 37.67,18.072 L37.214,17.384 C38.07,17.088 38.798,16.64 39.398,16.032 L37.846,16.104 L37.678,15.432 C37.75,15.408 37.798,15.384 37.83,15.36 C38.11,15.184 38.47,14.72 38.902,13.984 L37.55,13.984 L37.55,13.224 Z M40.15,18.328 C39.406,18.984 38.542,19.488 37.566,19.832 L37.102,19.12 C38.95,18.52 40.334,17.36 41.246,15.648 L41.942,16.008 C41.574,16.696 41.15,17.304 40.67,17.824 C41.198,18.288 41.662,18.76 42.046,19.224 L41.438,19.832 C41.118,19.352 40.694,18.856 40.15,18.328 Z M45.618,12.392 L46.482,12.392 L46.482,13.76 L49.322,13.76 L49.322,17.664 L48.482,17.664 L48.482,17.224 L46.482,17.224 L46.482,19.896 L45.618,19.896 L45.618,17.224 L43.626,17.224 L43.626,17.664 L42.786,17.664 L42.786,13.76 L45.618,13.76 L45.618,12.392 Z M43.626,16.408 L45.618,16.408 L45.618,14.576 L43.626,14.576 L43.626,16.408 Z M46.482,16.408 L48.482,16.408 L48.482,14.576 L46.482,14.576 L46.482,16.408 Z" fill="#FFFFFF" fill-rule="nonzero" transform="translate(30.390000, 16.124000) rotate(-315.000000) translate(-30.390000, -16.124000) "></path>
            </g>
        </g>
    </g>
</svg>