<?xml version="1.0" encoding="UTF-8"?>
<svg width="47px" height="45px" viewBox="0 0 47 45" version="1.1" xmlns="http://www.w3.org/2000/svg" xmlns:xlink="http://www.w3.org/1999/xlink">
    <!-- Generator: Sketch 55.2 (78181) - https://sketchapp.com -->
    <title>合同签订中_slice</title>
    <desc>Created with Sketch.</desc>
    <defs>
        <linearGradient x1="50%" y1="2.83548885%" x2="50%" y2="100.850367%" id="linearGradient-1">
            <stop stop-color="#8EDC86" offset="0.0950168919%"></stop>
            <stop stop-color="#6BD0AC" offset="100%"></stop>
        </linearGradient>
        <path d="M25.78897,-1.24344979e-14 L46.167111,19.450741 L46.167111,44.0660666 L-3.90798505e-13,-2.48689958e-14 L25.78897,-1.0658141e-14 Z" id="path-2"></path>
        <filter x="-19.5%" y="-11.3%" width="139.0%" height="145.4%" filterUnits="objectBoundingBox" id="filter-3">
            <feOffset dx="0" dy="6" in="SourceAlpha" result="shadowOffsetOuter1"></feOffset>
            <feGaussianBlur stdDeviation="2" in="shadowOffsetOuter1" result="shadowBlurOuter1"></feGaussianBlur>
            <feColorMatrix values="0 0 0 0 0   0 0 0 0 0   0 0 0 0 0  0 0 0 0.06 0" type="matrix" in="shadowBlurOuter1"></feColorMatrix>
        </filter>
    </defs>
    <g id="页面1" stroke="none" stroke-width="1" fill="none" fill-rule="evenodd">
        <g id="画板" transform="translate(-830.000000, -907.000000)">
            <g id="合同签订中" transform="translate(829.832889, 907.000000)">
                <g id="形状结合备份-3">
                    <use fill="black" fill-opacity="1" filter="url(#filter-3)" xlink:href="#path-2"></use>
                    <use fill="url(#linearGradient-1)" fill-rule="evenodd" xlink:href="#path-2"></use>
                </g>
                <g id="编组-2" transform="translate(14.167111, 0.000000)" fill-rule="nonzero">
                    <path d="M6.17125555,3 L6.73125555,3 C7.73925555,4.136 8.89125555,5.032 10.2032556,5.688 L9.79525555,6.416 C9.35525555,6.176 8.93925555,5.92 8.55525555,5.648 L8.55525555,6.216 L4.34725555,6.216 L4.34725555,5.632 C3.94725555,5.92 3.52325555,6.184 3.07525555,6.432 L2.67525555,5.696 C4.07525555,4.976 5.24325555,4.072 6.17125555,3 Z" id="路径" fill="#FFFFFF" transform="translate(6.439256, 4.716000) rotate(-315.000000) translate(-6.439256, -4.716000) "></path>
                    <path d="M4.63659365,5.52831876 L8.42859365,5.52831876 C7.72459365,5.00031876 7.09259365,4.40031876 6.54059365,3.72831876 C6.00459365,4.38431876 5.37259365,4.98431876 4.63659365,5.52831876 Z" id="路径" fill="#85D990" transform="translate(6.532594, 4.628319) rotate(-315.000000) translate(-6.532594, -4.628319) "></path>
                    <polygon id="路径" fill="#FFFFFF" transform="translate(3.608000, 7.564226) rotate(-315.000000) translate(-3.608000, -7.564226) " points="6.216 5.90422611 6.216 9.22422611 5.48 9.22422611 5.48 8.79222611 1.736 8.79222611 1.736 9.22422611 1 9.22422611 1 5.90422611"></polygon>
                    <polygon id="路径" fill="#85D990" transform="translate(3.763563, 7.408663) rotate(-315.000000) translate(-3.763563, -7.408663) " points="1.89156349 8.13666262 5.63556349 8.13666262 5.63556349 6.68066262 1.89156349 6.68066262"></polygon>
                    <path d="M12.8973967,15.2002739 L11.8493967,15.2002739 L11.6413967,14.4402739 L12.6493967,14.4722739 C12.8253967,14.4722739 12.9133967,14.3602739 12.9133967,14.1362739 L12.9133967,8.84827387 L7.87339667,8.84827387 L7.87339667,15.2242739 L7.11339667,15.2242739 L7.11339667,8.11227387 L13.6733967,8.11227387 L13.6733967,14.3042739 C13.6733967,14.8962739 13.4093967,15.2002739 12.8973967,15.2002739 Z" id="路径" fill="#FFFFFF" transform="translate(10.393397, 11.668274) rotate(-315.000000) translate(-10.393397, -11.668274) "></path>
                    <polygon id="路径" fill="#FFFFFF" transform="translate(11.601135, 10.460535) rotate(-315.000000) translate(-11.601135, -10.460535) " points="9.56113505 10.1085355 13.6411351 10.1085355 13.6411351 10.8125355 9.56113505 10.8125355"></polygon>
                    <polygon id="路径" fill="#FFFFFF" transform="translate(9.892765, 12.174562) rotate(-315.000000) translate(-9.892765, -12.174562) " points="8.26476507 10.8345623 11.5207651 10.8345623 11.5207651 13.5145623 8.26476507 13.5145623"></polygon>
                    <polygon id="路径" fill="#85D990" transform="translate(9.892765, 12.174562) rotate(-315.000000) translate(-9.892765, -12.174562) " points="10.7847651 12.8345623 10.7847651 11.5145623 9.00076507 11.5145623 9.00076507 12.8345623"></polygon>
                    <path d="M16.1499642,17.2964645 L16.9019642,17.4964645 C16.7099642,18.1044645 16.4779642,18.6564645 16.2059642,19.1444645 L17.7899642,19.1444645 L17.7899642,19.8484645 L10.9899642,19.8484645 L10.9899642,19.1444645 L15.3899642,19.1444645 C15.6779642,18.6244645 15.9259642,18.0084645 16.1499642,17.2964645 Z" id="路径" fill="#FFFFFF" transform="translate(14.389964, 18.572464) rotate(-315.000000) translate(-14.389964, -18.572464) "></path>
                    <path d="M13.3506766,16.1261189 C13.5746766,16.5501189 13.7746766,17.0381189 13.9586766,17.5901189 L13.2706766,17.7661189 C13.1106766,17.2701189 12.9106766,16.7981189 12.6546766,16.3501189 L13.3506766,16.1261189 Z" id="路径" fill="#FFFFFF" transform="translate(13.306677, 16.946119) rotate(-315.000000) translate(-13.306677, -16.946119) "></path>
                    <path d="M14.7610079,17.2627446 C14.9450079,17.7107446 15.1050079,18.2307446 15.2490079,18.8147446 L14.5690079,18.9827446 C14.4330079,18.4627446 14.2650079,17.9667446 14.0570079,17.4867446 L14.7610079,17.2627446 Z" id="路径" fill="#FFFFFF" transform="translate(14.653008, 18.122745) rotate(-315.000000) translate(-14.653008, -18.122745) "></path>
                    <path d="M14.2031525,17.2919625 C13.8191525,17.4519625 13.4191525,17.6119625 13.0031525,17.7639625 L12.6351525,17.0999625 C14.0111525,16.6519625 15.1471525,16.0999625 16.0591525,15.4439625 L16.5391525,15.4439625 C17.5311525,16.1479625 18.6671525,16.7079625 19.9631525,17.1159625 L19.5951525,17.7719625 C19.1711525,17.6279625 18.7711525,17.4679625 18.4031525,17.2999625 L18.4031525,17.8599625 L14.2031525,17.8599625 L14.2031525,17.2919625 Z" id="路径" fill="#FFFFFF" transform="translate(16.299153, 16.651962) rotate(-315.000000) translate(-16.299153, -16.651962) "></path>
                    <path d="M18.1972946,17.2001635 C17.4932946,16.8641635 16.8612946,16.4881635 16.3172946,16.0641635 C15.7892946,16.4801635 15.1572946,16.8561635 14.4292946,17.2001635 L18.1972946,17.2001635 Z" id="路径" fill="#85D990" transform="translate(16.313295, 16.632163) rotate(-315.000000) translate(-16.313295, -16.632163) "></path>
                    <path d="M15.9419464,14.0799861 C15.7419464,14.4639861 15.5179464,14.8239861 15.2699464,15.1439861 L14.6139464,14.7279861 C15.1099464,14.1119861 15.4539464,13.4559861 15.6619464,12.7519861 L16.3979464,12.9119861 C16.3419464,13.0879861 16.2859464,13.2479861 16.2299464,13.4079861 L18.2219464,13.4079861 L18.2219464,14.0799861 L17.2219464,14.0799861 C17.3339464,14.3199861 17.4219464,14.5439861 17.4939464,14.7519861 L16.8059464,14.9999861 C16.7099464,14.6799861 16.5979464,14.3759861 16.4699464,14.0799861 L15.9419464,14.0799861 Z" id="路径" fill="#FFFFFF" transform="translate(16.417946, 13.947986) rotate(-315.000000) translate(-16.417946, -13.947986) "></path>
                    <path d="M18.2598151,16.6406 C18.1318151,16.8966 17.9878151,17.1446 17.8278151,17.3686 L17.1878151,16.9606 C17.5558151,16.4486 17.8278151,15.9046 17.9878151,15.3126 L18.7078151,15.4726 C18.6598151,15.6486 18.6038151,15.8086 18.5478151,15.9686 L20.7958151,15.9686 L20.7958151,16.6406 L19.6678151,16.6406 C19.8198151,16.9046 19.9398151,17.1526 20.0358151,17.3766 L19.3398151,17.6406 C19.2118151,17.2886 19.0598151,16.9606 18.8918151,16.6406 L18.2598151,16.6406 Z" id="路径" fill="#FFFFFF" transform="translate(18.991815, 16.476600) rotate(-315.000000) translate(-18.991815, -16.476600) "></path>
                    <path d="M19.8903642,20.1051236 L24.5703642,20.1051236 L24.5703642,20.8411236 L22.9543642,20.8411236 L22.9543642,26.2251236 C22.9543642,26.7691236 22.6823642,27.0411236 22.1383642,27.0411236 L21.0743642,27.0411236 L20.9063642,26.2971236 C21.2423642,26.3291236 21.5703642,26.3531236 21.8743642,26.3531236 C22.0823642,26.3531236 22.1863642,26.2411236 22.1863642,26.0331236 L22.1863642,20.8411236 L19.8903642,20.8411236 L19.8903642,20.1051236 Z" id="路径" fill="#FFFFFF" transform="translate(22.230364, 23.573124) rotate(-315.000000) translate(-22.230364, -23.573124) "></path>
                    <path d="M21.3813306,18.0756747 C21.8933306,18.4756747 22.3333306,18.8676747 22.6933306,19.2596747 L22.1733306,19.7876747 C21.8533306,19.4196747 21.4133306,19.0196747 20.8453306,18.5956747 L21.3813306,18.0756747 Z" id="路径" fill="#FFFFFF" transform="translate(21.769331, 18.931675) rotate(-315.000000) translate(-21.769331, -18.931675) "></path>
                    <path d="M17.5912121,19.2811069 L19.4392121,19.2811069 L19.4392121,22.7211069 C19.7112121,22.4971069 20.0072121,22.2491069 20.3112121,21.9691069 L20.5112121,22.7691069 C19.9752121,23.2491069 19.3992121,23.6731069 18.7912121,24.0411069 L18.5032121,23.3611069 C18.6392121,23.2491069 18.7112121,23.1131069 18.7112121,22.9531069 L18.7112121,20.0091069 L17.5912121,20.0091069 L17.5912121,19.2811069 Z" id="路径" fill="#FFFFFF" transform="translate(19.051212, 21.661107) rotate(-315.000000) translate(-19.051212, -21.661107) "></path>
                    <polygon id="路径" fill="#FFFFFF" transform="translate(26.812416, 27.923245) rotate(-315.000000) translate(-26.812416, -27.923245) " points="26.4164161 24.1872446 27.2004161 24.1872446 27.2004161 25.5712446 30.0484161 25.5712446 30.0484161 29.4352446 29.2884161 29.4352446 29.2884161 28.9792446 27.2004161 28.9792446 27.2004161 31.6592446 26.4164161 31.6592446 26.4164161 28.9792446 24.3364161 28.9792446 24.3364161 29.4352446 23.5764161 29.4352446 23.5764161 25.5712446 26.4164161 25.5712446"></polygon>
                    <polygon id="路径" fill="#77D49F" transform="translate(26.255216, 26.449634) rotate(-315.000000) translate(-26.255216, -26.449634) " points="25.215216 27.409634 27.295216 27.409634 27.295216 25.489634 25.215216 25.489634"></polygon>
                    <polygon id="路径" fill="#77D49F" transform="translate(28.283198, 28.477616) rotate(-315.000000) translate(-28.283198, -28.477616) " points="27.2391982 29.4376163 29.3271982 29.4376163 29.3271982 27.5176163 27.2391982 27.5176163"></polygon>
                </g>
            </g>
        </g>
    </g>
</svg>