<?xml version="1.0" encoding="UTF-8"?>
<svg width="50px" height="48px" viewBox="0 0 50 48" version="1.1" xmlns="http://www.w3.org/2000/svg" xmlns:xlink="http://www.w3.org/1999/xlink">
    <!-- Generator: Sketch 55.2 (78181) - https://sketchapp.com -->
    <title>业务部_初审中_slice</title>
    <desc>Created with Sketch.</desc>
    <defs>
        <linearGradient x1="50%" y1="2.83548885%" x2="50%" y2="100.850367%" id="linearGradient-1">
            <stop stop-color="#8EDC86" offset="0.0950168919%"></stop>
            <stop stop-color="#6BD0AC" offset="100%"></stop>
        </linearGradient>
        <path d="M34.6263055,1.77635684e-15 L50,14.6740446 L50,47.6254616 L0.103784151,0 L34.6263055,0 Z" id="path-2"></path>
        <filter x="-18.0%" y="-10.5%" width="136.1%" height="142.0%" filterUnits="objectBoundingBox" id="filter-3">
            <feOffset dx="0" dy="6" in="SourceAlpha" result="shadowOffsetOuter1"></feOffset>
            <feGaussianBlur stdDeviation="2" in="shadowOffsetOuter1" result="shadowBlurOuter1"></feGaussianBlur>
            <feColorMatrix values="0 0 0 0 0   0 0 0 0 0   0 0 0 0 0  0 0 0 0.06 0" type="matrix" in="shadowBlurOuter1"></feColorMatrix>
        </filter>
    </defs>
    <g id="页面1" stroke="none" stroke-width="1" fill="none" fill-rule="evenodd">
        <g id="画板" transform="translate(-826.000000, -47.000000)">
            <g id="业务部-初审中" transform="translate(826.000000, 47.000000)">
                <g id="形状结合备份-3">
                    <use fill="black" fill-opacity="1" filter="url(#filter-3)" xlink:href="#path-2"></use>
                    <use fill="url(#linearGradient-1)" fill-rule="evenodd" xlink:href="#path-2"></use>
                </g>
                <path d="M25.702,8.504 L26.462,8.504 L26.462,14.792 L27.422,14.792 L27.422,8.504 L28.182,8.504 L28.182,14.792 L30.518,14.792 L30.518,15.536 L23.382,15.536 L23.382,14.792 L25.702,14.792 L25.702,8.504 Z M29.678,9.992 L30.35,10.184 C30.046,11.56 29.654,12.76 29.174,13.792 L28.494,13.552 C28.942,12.624 29.342,11.432 29.678,9.992 Z M24.19,9.976 C24.598,11.048 24.958,12.272 25.278,13.648 L24.582,13.824 C24.31,12.568 23.958,11.352 23.542,10.184 L24.19,9.976 Z M33.298,8.408 L34.074,8.52 C33.994,8.712 33.906,8.896 33.81,9.064 L37.234,9.064 L37.234,9.68 C36.754,10.232 36.17,10.712 35.49,11.112 C36.346,11.432 37.298,11.648 38.354,11.744 L38.01,12.456 C36.77,12.312 35.65,12.008 34.658,11.536 C33.698,11.968 32.578,12.28 31.314,12.472 L30.962,11.76 C32.034,11.624 32.994,11.4 33.826,11.088 C33.442,10.864 33.09,10.608 32.762,10.336 C32.49,10.568 32.194,10.784 31.866,10.984 L31.402,10.376 C32.338,9.84 32.97,9.184 33.298,8.408 Z M34.65,10.736 C35.202,10.464 35.69,10.144 36.122,9.776 L33.314,9.776 C33.29,9.8 33.274,9.816 33.266,9.832 C33.682,10.176 34.146,10.48 34.65,10.736 Z M34.074,12.024 L34.826,12.024 C34.826,12.312 34.802,12.584 34.762,12.84 L37.522,12.84 C37.506,14.24 37.386,15.08 37.162,15.352 C36.938,15.624 36.538,15.768 35.978,15.768 C35.706,15.768 35.37,15.752 34.986,15.728 L34.794,15.04 C35.21,15.056 35.546,15.072 35.802,15.088 C36.21,15.08 36.466,14.992 36.57,14.832 C36.674,14.664 36.738,14.224 36.762,13.52 L34.594,13.52 C34.522,13.712 34.442,13.896 34.346,14.064 C33.946,14.784 33.01,15.376 31.53,15.848 L31.026,15.232 C32.33,14.848 33.186,14.384 33.586,13.832 C33.65,13.728 33.714,13.624 33.762,13.52 L31.514,13.52 L31.514,12.84 L33.994,12.84 C34.042,12.584 34.074,12.312 34.074,12.024 Z M39.974,10.08 C40.142,10.432 40.294,10.856 40.438,11.352 L41.15,11.352 C41.342,10.936 41.518,10.496 41.662,10.032 L42.358,10.272 C42.214,10.672 42.062,11.032 41.894,11.352 L42.758,11.352 L42.758,12.08 L38.734,12.08 L38.734,11.352 L39.726,11.352 C39.598,10.992 39.454,10.648 39.286,10.328 L39.974,10.08 Z M43.07,8.712 L45.846,8.712 L45.846,9.288 C45.598,10.104 45.326,10.864 45.038,11.568 C45.63,12.304 45.934,12.904 45.942,13.368 C45.942,13.912 45.83,14.288 45.622,14.496 C45.398,14.704 44.942,14.816 44.27,14.816 L44.03,14.016 C44.318,14.048 44.558,14.064 44.758,14.064 C44.934,14.056 45.054,14.008 45.102,13.912 C45.15,13.832 45.174,13.648 45.182,13.368 C45.174,12.912 44.854,12.312 44.23,11.568 C44.494,10.968 44.75,10.248 45.006,9.416 L43.806,9.416 L43.806,15.808 L43.07,15.808 L43.07,8.712 Z M38.886,9.16 L40.358,9.16 C40.278,8.928 40.198,8.712 40.118,8.52 L40.894,8.392 C40.966,8.624 41.038,8.88 41.102,9.16 L42.686,9.16 L42.686,9.888 L38.886,9.888 L38.886,9.16 Z M42.438,12.664 L42.438,15.8 L41.678,15.8 L41.678,15.384 L39.902,15.384 L39.902,15.8 L39.158,15.8 L39.158,12.664 L42.438,12.664 Z M39.902,14.664 L41.678,14.664 L41.678,13.384 L39.902,13.384 L39.902,14.664 Z M27.422,18.72 L26.294,18.72 L26.294,17.992 L30.366,17.992 C30.366,20.744 30.318,22.44 30.238,23.08 C30.142,24.152 29.702,24.696 28.926,24.696 C28.75,24.696 28.438,24.68 27.99,24.656 L27.806,23.96 C28.19,23.984 28.526,24 28.798,24 C29.198,24 29.438,23.576 29.502,22.736 C29.55,22.336 29.574,20.992 29.59,18.72 L28.174,18.72 L28.174,19.336 C28.142,21.848 27.454,23.68 26.094,24.832 L25.51,24.32 C26.758,23.28 27.398,21.624 27.422,19.336 L27.422,18.72 Z M24.342,21.792 C24.07,22.072 23.774,22.36 23.454,22.648 L23.23,21.88 C24.206,21 24.862,20.144 25.198,19.312 L23.414,19.312 L23.414,18.624 L24.406,18.624 C24.278,18.28 24.134,17.944 23.974,17.616 L24.71,17.424 C24.902,17.864 25.054,18.264 25.158,18.624 L25.942,18.624 L25.942,19.24 C25.75,19.8 25.462,20.352 25.07,20.904 L25.07,20.92 C25.182,21 25.294,21.072 25.398,21.152 C25.646,20.96 25.886,20.688 26.126,20.336 L26.582,20.792 C26.358,21.096 26.118,21.344 25.862,21.528 C26.062,21.704 26.254,21.88 26.43,22.072 L26.022,22.712 C25.702,22.296 25.39,21.936 25.07,21.632 L25.07,24.816 L24.342,24.816 L24.342,21.792 Z M32.69,21.824 L32.69,22.568 L34.298,22.568 L34.298,21.824 L32.69,21.824 Z M34.298,23.264 L32.69,23.264 L32.69,23.696 L31.946,23.696 L31.946,19.704 L34.298,19.704 L34.298,19.008 L35.05,19.008 L35.05,19.704 L37.426,19.704 L37.426,23.672 L36.682,23.672 L36.682,23.264 L35.05,23.264 L35.05,24.848 L34.298,24.848 L34.298,23.264 Z M35.05,22.568 L36.682,22.568 L36.682,21.824 L35.05,21.824 L35.05,22.568 Z M36.682,21.16 L36.682,20.408 L35.05,20.408 L35.05,21.16 L36.682,21.16 Z M34.298,20.408 L32.69,20.408 L32.69,21.16 L34.298,21.16 L34.298,20.408 Z M38.042,17.984 L38.042,19.496 L37.306,19.496 L37.306,18.68 L31.962,18.68 L31.962,19.536 L31.226,19.536 L31.226,17.984 L34.218,17.984 C34.146,17.808 34.074,17.648 33.994,17.496 L34.802,17.368 C34.866,17.552 34.938,17.76 35.002,17.984 L38.042,17.984 Z M41.958,17.408 L42.742,17.408 L42.742,18.792 L45.59,18.792 L45.59,22.656 L44.83,22.656 L44.83,22.2 L42.742,22.2 L42.742,24.88 L41.958,24.88 L41.958,22.2 L39.878,22.2 L39.878,22.656 L39.118,22.656 L39.118,18.792 L41.958,18.792 L41.958,17.408 Z M39.878,21.456 L41.958,21.456 L41.958,19.536 L39.878,19.536 L39.878,21.456 Z M42.742,21.456 L44.83,21.456 L44.83,19.536 L42.742,19.536 L42.742,21.456 Z" id="业务部初审中" fill="#FFFFFF" fill-rule="nonzero" transform="translate(34.586000, 16.636000) rotate(-315.000000) translate(-34.586000, -16.636000) "></path>
            </g>
        </g>
    </g>
</svg>