<?xml version="1.0" encoding="UTF-8"?>
<svg width="47px" height="45px" viewBox="0 0 47 45" version="1.1" xmlns="http://www.w3.org/2000/svg" xmlns:xlink="http://www.w3.org/1999/xlink">
    <!-- Generator: Sketch 55.2 (78181) - https://sketchapp.com -->
    <title>评审中_slice</title>
    <desc>Created with Sketch.</desc>
    <defs>
        <linearGradient x1="50%" y1="2.83548885%" x2="50%" y2="100.850367%" id="linearGradient-1">
            <stop stop-color="#8EDC86" offset="0.0950168919%"></stop>
            <stop stop-color="#6BD0AC" offset="100%"></stop>
        </linearGradient>
        <path d="M26.621859,-1.77635684e-15 L47,19.450741 L47,44.0660666 L0.832889008,-1.42108547e-14 L26.621859,0 Z" id="path-2"></path>
        <filter x="-19.5%" y="-11.3%" width="139.0%" height="145.4%" filterUnits="objectBoundingBox" id="filter-3">
            <feOffset dx="0" dy="6" in="SourceAlpha" result="shadowOffsetOuter1"></feOffset>
            <feGaussianBlur stdDeviation="2" in="shadowOffsetOuter1" result="shadowBlurOuter1"></feGaussianBlur>
            <feColorMatrix values="0 0 0 0 0   0 0 0 0 0   0 0 0 0 0  0 0 0 0.06 0" type="matrix" in="shadowBlurOuter1"></feColorMatrix>
        </filter>
    </defs>
    <g id="页面1" stroke="none" stroke-width="1" fill="none" fill-rule="evenodd">
        <g id="画板" transform="translate(-829.000000, -539.000000)">
            <g id="评审中" transform="translate(829.000000, 539.000000)">
                <g id="形状结合备份-3">
                    <use fill="black" fill-opacity="1" filter="url(#filter-3)" xlink:href="#path-2"></use>
                    <use fill="url(#linearGradient-1)" fill-rule="evenodd" xlink:href="#path-2"></use>
                </g>
                <path d="M22.03,12.728 L26.43,12.728 L26.43,13.512 L24.63,13.512 L24.63,16.288 L26.678,16.288 L26.678,17.08 L24.63,17.08 L24.63,19.84 L23.814,19.84 L23.814,17.08 L21.798,17.08 L21.798,16.288 L23.814,16.288 L23.814,13.512 L22.03,13.512 L22.03,12.728 Z M25.558,13.784 L26.286,13.976 C26.126,14.744 25.918,15.408 25.67,15.984 L24.974,15.736 C25.198,15.224 25.39,14.568 25.558,13.784 Z M22.814,13.808 C23.022,14.392 23.214,15.064 23.382,15.824 L22.67,16 C22.526,15.32 22.334,14.672 22.102,14.048 L22.814,13.808 Z M20.374,12.48 C20.878,12.872 21.31,13.264 21.67,13.648 L21.094,14.232 C20.79,13.864 20.35,13.472 19.782,13.056 L20.374,12.48 Z M19.238,14.792 L21.142,14.792 L21.142,18.08 C21.342,17.896 21.558,17.688 21.782,17.464 L22.014,18.344 C21.518,18.816 20.998,19.24 20.438,19.616 L20.126,18.864 C20.262,18.744 20.334,18.6 20.334,18.432 L20.334,15.592 L19.238,15.592 L19.238,14.792 Z M28.722,16.856 L28.722,17.528 L30.258,17.528 L30.258,16.856 L28.722,16.856 Z M30.258,18.288 L28.722,18.288 L28.722,18.704 L27.906,18.704 L27.906,14.672 L30.258,14.672 L30.258,14.016 L31.09,14.016 L31.09,14.672 L33.466,14.672 L33.466,18.68 L32.65,18.68 L32.65,18.288 L31.09,18.288 L31.09,19.864 L30.258,19.864 L30.258,18.288 Z M31.09,17.528 L32.65,17.528 L32.65,16.856 L31.09,16.856 L31.09,17.528 Z M32.65,16.128 L32.65,15.44 L31.09,15.44 L31.09,16.128 L32.65,16.128 Z M30.258,15.44 L28.722,15.44 L28.722,16.128 L30.258,16.128 L30.258,15.44 Z M34.074,12.952 L34.074,14.504 L33.258,14.504 L33.258,13.712 L28.01,13.712 L28.01,14.544 L27.194,14.544 L27.194,12.952 L30.162,12.952 C30.098,12.792 30.026,12.64 29.954,12.496 L30.842,12.352 C30.906,12.528 30.97,12.728 31.034,12.952 L34.074,12.952 Z M37.918,12.392 L38.782,12.392 L38.782,13.76 L41.622,13.76 L41.622,17.664 L40.782,17.664 L40.782,17.224 L38.782,17.224 L38.782,19.896 L37.918,19.896 L37.918,17.224 L35.926,17.224 L35.926,17.664 L35.086,17.664 L35.086,13.76 L37.918,13.76 L37.918,12.392 Z M35.926,16.408 L37.918,16.408 L37.918,14.576 L35.926,14.576 L35.926,16.408 Z M38.782,16.408 L40.782,16.408 L40.782,14.576 L38.782,14.576 L38.782,16.408 Z" fill="#FFFFFF" fill-rule="nonzero" transform="translate(30.430000, 16.124000) rotate(-315.000000) translate(-30.430000, -16.124000) "></path>
            </g>
        </g>
    </g>
</svg>