<?xml version="1.0" encoding="UTF-8"?>
<svg width="47px" height="45px" viewBox="0 0 47 45" version="1.1" xmlns="http://www.w3.org/2000/svg" xmlns:xlink="http://www.w3.org/1999/xlink">
    <!-- Generator: Sketch 55.2 (78181) - https://sketchapp.com -->
    <title>已撤销_slice</title>
    <desc>Created with Sketch.</desc>
    <defs>
        <linearGradient x1="50%" y1="4.54024414%" x2="50%" y2="100.850367%" id="linearGradient-1">
            <stop stop-color="#FF866F" offset="0%"></stop>
            <stop stop-color="#FF4E4E" offset="100%"></stop>
        </linearGradient>
        <path d="M26.621859,-1.77635684e-15 L47,19.450741 L47,44.0660666 L0.832889008,-1.42108547e-14 L26.621859,0 Z" id="path-2"></path>
        <filter x="-19.5%" y="-11.3%" width="139.0%" height="145.4%" filterUnits="objectBoundingBox" id="filter-3">
            <feOffset dx="0" dy="6" in="SourceAlpha" result="shadowOffsetOuter1"></feOffset>
            <feGaussianBlur stdDeviation="2" in="shadowOffsetOuter1" result="shadowBlurOuter1"></feGaussianBlur>
            <feColorMatrix values="0 0 0 0 0   0 0 0 0 0   0 0 0 0 0  0 0 0 0.06 0" type="matrix" in="shadowBlurOuter1"></feColorMatrix>
        </filter>
    </defs>
    <g id="页面1" stroke="none" stroke-width="1" fill="none" fill-rule="evenodd">
        <g id="画板" transform="translate(-326.000000, -1153.000000)">
            <g id="已撤销" transform="translate(326.000000, 1153.000000)">
                <g id="形状结合备份-3">
                    <use fill="black" fill-opacity="1" filter="url(#filter-3)" xlink:href="#path-2"></use>
                    <use fill="url(#linearGradient-1)" fill-rule="evenodd" xlink:href="#path-2"></use>
                </g>
                <path d="M25.726,16.208 L20.79,16.208 L20.79,18.344 C20.79,18.632 20.934,18.776 21.222,18.776 L25.198,18.776 C25.326,18.776 25.446,18.728 25.558,18.632 C25.67,18.52 25.742,18.048 25.79,17.232 L26.606,17.488 C26.502,18.512 26.366,19.112 26.206,19.288 C26.014,19.464 25.75,19.56 25.43,19.576 L20.982,19.576 C20.294,19.576 19.958,19.216 19.958,18.496 L19.958,14.352 L20.79,14.352 L20.79,15.408 L24.878,15.408 L24.878,13.584 L19.622,13.584 L19.622,12.784 L25.726,12.784 L25.726,16.208 Z M29.97,17.368 L29.97,17.832 L31.01,17.832 L31.01,17.368 L29.97,17.368 Z M31.01,16.76 L31.01,16.304 L29.97,16.304 L29.97,16.76 L31.01,16.76 Z M29.97,18.44 L29.97,19.768 L29.25,19.768 L29.25,15.648 L31.642,15.648 L31.538,15.52 C31.602,15.4 31.658,15.28 31.722,15.16 L31.306,15.352 C31.274,15.272 31.25,15.192 31.226,15.128 C30.762,15.24 30.074,15.336 29.162,15.424 L29.066,14.776 C29.218,14.76 29.354,14.656 29.474,14.472 C29.554,14.328 29.666,14.12 29.794,13.848 L29.042,13.848 L29.042,13.096 L30.13,13.096 C30.05,12.88 29.962,12.68 29.874,12.504 L30.69,12.376 C30.762,12.592 30.834,12.832 30.906,13.096 L32.018,13.096 L32.018,13.848 L30.578,13.848 C30.418,14.152 30.25,14.44 30.09,14.712 L31.002,14.576 C30.922,14.408 30.85,14.256 30.778,14.12 L31.354,13.928 C31.53,14.248 31.69,14.576 31.826,14.92 C32.114,14.216 32.314,13.36 32.434,12.352 L33.178,12.48 C33.122,12.864 33.058,13.232 32.986,13.576 L34.226,13.576 L34.226,14.352 L33.994,14.352 C33.962,15.656 33.778,16.768 33.458,17.688 C33.73,18.272 34.042,18.736 34.394,19.072 L33.922,19.76 C33.61,19.448 33.33,19.04 33.082,18.544 C32.826,19.024 32.522,19.432 32.17,19.768 L31.746,19.088 C32.146,18.72 32.466,18.248 32.706,17.672 C32.506,17.12 32.33,16.488 32.186,15.784 C32.122,15.888 32.066,15.992 32.002,16.088 L31.73,15.752 L31.73,19.008 C31.73,19.488 31.466,19.736 30.954,19.736 L30.49,19.736 L30.306,19.024 L30.73,19.056 C30.914,19.056 31.01,18.984 31.01,18.848 L31.01,18.44 L29.97,18.44 Z M32.65,14.76 C32.754,15.432 32.89,16.04 33.05,16.584 C33.194,15.928 33.282,15.184 33.306,14.352 L32.786,14.352 C32.738,14.496 32.698,14.632 32.65,14.76 Z M27.762,19.744 L27.162,19.744 L26.986,18.976 C27.162,19.008 27.33,19.032 27.49,19.032 C27.642,19.032 27.722,18.92 27.722,18.704 L27.722,17.104 C27.514,17.2 27.306,17.288 27.098,17.368 L26.882,16.52 C27.17,16.448 27.45,16.36 27.722,16.248 L27.722,14.608 L27.034,14.608 L27.034,13.816 L27.722,13.816 L27.722,12.44 L28.514,12.44 L28.514,13.816 L28.994,13.816 L28.994,14.608 L28.514,14.608 L28.514,15.872 C28.674,15.776 28.842,15.68 29.002,15.576 L29.002,16.424 C28.842,16.52 28.674,16.616 28.514,16.712 L28.514,18.912 C28.514,19.464 28.258,19.744 27.762,19.744 Z M39.462,12.456 L40.286,12.456 L40.286,14.584 L41.758,14.584 L41.758,18.816 C41.758,19.456 41.478,19.784 40.926,19.784 L40.166,19.784 L39.95,18.992 L40.662,19.032 C40.838,19.032 40.926,18.896 40.926,18.632 L40.926,18.112 L38.814,18.112 L38.814,19.8 L37.982,19.8 L37.982,14.584 L39.462,14.584 L39.462,12.456 Z M38.814,16.744 L38.814,17.408 L40.926,17.408 L40.926,16.744 L38.814,16.744 Z M40.926,16.04 L40.926,15.376 L38.814,15.376 L38.814,16.04 L40.926,16.04 Z M38.47,12.76 C38.71,13.152 38.942,13.584 39.166,14.064 L38.494,14.4 C38.27,13.92 38.03,13.48 37.774,13.096 L38.47,12.76 Z M41.278,12.672 L41.966,13.008 C41.774,13.488 41.534,13.952 41.23,14.4 L40.558,14.048 C40.862,13.584 41.102,13.128 41.278,12.672 Z M35.614,12.448 L36.414,12.616 C36.358,12.84 36.302,13.048 36.238,13.248 L37.566,13.248 L37.566,14.04 L35.966,14.04 C35.846,14.336 35.718,14.616 35.59,14.872 L37.43,14.872 L37.43,15.616 L36.694,15.616 L36.694,16.368 L37.702,16.368 L37.702,17.136 L36.694,17.136 L36.694,18.696 C37.022,18.568 37.35,18.416 37.67,18.224 L37.814,18.952 C37.262,19.24 36.63,19.48 35.918,19.672 L35.574,18.952 C35.774,18.88 35.878,18.768 35.878,18.624 L35.878,17.136 L34.87,17.136 L34.87,16.368 L35.878,16.368 L35.878,15.616 L35.494,15.616 L35.494,15.056 C35.414,15.2 35.334,15.336 35.254,15.464 L34.574,15.032 C35.07,14.224 35.414,13.36 35.614,12.448 Z" fill="#FFFFFF" fill-rule="nonzero" transform="translate(30.794000, 16.076000) rotate(-315.000000) translate(-30.794000, -16.076000) "></path>
            </g>
        </g>
    </g>
</svg>