<?xml version="1.0" encoding="UTF-8"?>
<svg width="50px" height="48px" viewBox="0 0 50 48" version="1.1" xmlns="http://www.w3.org/2000/svg" xmlns:xlink="http://www.w3.org/1999/xlink">
    <!-- Generator: Sketch 55.2 (78181) - https://sketchapp.com -->
    <title>征信_报告查询中_slice</title>
    <desc>Created with Sketch.</desc>
    <defs>
        <linearGradient x1="50%" y1="2.83548885%" x2="50%" y2="100.850367%" id="linearGradient-1">
            <stop stop-color="#8EDC86" offset="0.0950168919%"></stop>
            <stop stop-color="#6BD0AC" offset="100%"></stop>
        </linearGradient>
        <path d="M34.6263055,1.77635684e-15 L50,14.6740446 L50,47.6254616 L0.103784151,0 L34.6263055,0 Z" id="path-2"></path>
        <filter x="-18.0%" y="-10.5%" width="136.1%" height="142.0%" filterUnits="objectBoundingBox" id="filter-3">
            <feOffset dx="0" dy="6" in="SourceAlpha" result="shadowOffsetOuter1"></feOffset>
            <feGaussianBlur stdDeviation="2" in="shadowOffsetOuter1" result="shadowBlurOuter1"></feGaussianBlur>
            <feColorMatrix values="0 0 0 0 0   0 0 0 0 0   0 0 0 0 0  0 0 0 0.06 0" type="matrix" in="shadowBlurOuter1"></feColorMatrix>
        </filter>
    </defs>
    <g id="页面1" stroke="none" stroke-width="1" fill="none" fill-rule="evenodd">
        <g id="画板" transform="translate(-826.000000, -169.000000)">
            <g id="征信-报告查询中" transform="translate(826.000000, 169.000000)">
                <g id="形状结合备份-3">
                    <use fill="black" fill-opacity="1" filter="url(#filter-3)" xlink:href="#path-2"></use>
                    <use fill="url(#linearGradient-1)" fill-rule="evenodd" xlink:href="#path-2"></use>
                </g>
                <polygon id="路径" fill="#FFFFFF" fill-rule="nonzero" transform="translate(35.841427, 11.787632) rotate(-315.000000) translate(-35.841427, -11.787632) " points="35.7734268 9.17563226 33.5334268 9.17563226 33.5334268 8.44763226 38.1894268 8.44763226 38.1894268 9.17563226 36.5334268 9.17563226 36.5334268 11.1516323 38.0214268 11.1516323 38.0214268 11.8556323 36.5334268 11.8556323 36.5334268 14.3836323 38.3814268 14.3836323 38.3814268 15.1276323 33.3014268 15.1276323 33.3014268 14.3836323 34.0054268 14.3836323 34.0054268 10.3036323 34.7494268 10.3036323 34.7494268 14.3836323 35.7734268 14.3836323"></polygon>
                <path d="M35.3527321,6.01997223 L36.0167321,6.33197223 C35.6167321,7.21197223 34.9527321,8.00397223 34.0087321,8.70797223 L33.7767321,7.95597223 C34.4887321,7.40397223 35.0167321,6.75597223 35.3527321,6.01997223 Z" id="路径" fill="#FFFFFF" fill-rule="nonzero" transform="translate(34.896732, 7.363972) rotate(-315.000000) translate(-34.896732, -7.363972) "></path>
                <path d="M33.1543924,7.21258608 L33.8103924,7.51658608 C33.6263924,7.91658608 33.3943924,8.29258608 33.1063924,8.64458608 L33.1063924,12.5725861 L32.3703924,12.5725861 L32.3703924,9.42058608 C32.1303924,9.62858608 31.8743924,9.83658608 31.6023924,10.0365861 L31.3783924,9.30058608 C32.1783924,8.70858608 32.7703924,8.01258608 33.1543924,7.21258608 Z" id="路径" fill="#FFFFFF" fill-rule="nonzero" transform="translate(32.594392, 9.892586) rotate(-315.000000) translate(-32.594392, -9.892586) "></path>
                <path d="M38.3990255,13.9967802 C38.1910255,14.2687802 37.9750255,14.5407802 37.7350255,14.8127802 L37.4870255,13.9967802 C38.2230255,13.0687802 38.7750255,11.9807802 39.1350255,10.7487802 L39.8470255,11.0847802 C39.6630255,11.6767802 39.4310255,12.2527802 39.1430255,12.8047802 L39.1430255,18.2287802 L38.3990255,18.2287802 L38.3990255,13.9967802 Z" id="路径" fill="#FFFFFF" fill-rule="nonzero" transform="translate(38.667025, 14.488780) rotate(-315.000000) translate(-38.667025, -14.488780) "></path>
                <path d="M40.6323911,15.217093 L42.9763911,15.217093 C42.8723911,14.945093 42.7523911,14.681093 42.6163911,14.425093 L43.3443911,14.225093 C43.5123911,14.585093 43.6403911,14.913093 43.7283911,15.217093 L45.8883911,15.217093 L45.8883911,15.929093 L40.6323911,15.929093 L40.6323911,15.217093 Z" id="路径" fill="#FFFFFF" fill-rule="nonzero" transform="translate(43.260391, 15.077093) rotate(-315.000000) translate(-43.260391, -15.077093) "></path>
                <polygon id="路径" fill="#FFFFFF" fill-rule="nonzero" transform="translate(42.089422, 16.282003) rotate(-315.000000) translate(-42.089422, -16.282003) " points="40.1654223 15.942003 44.0134223 15.942003 44.0134223 16.622003 40.1654223 16.622003"></polygon>
                <polygon id="路径" fill="#FFFFFF" fill-rule="nonzero" transform="translate(41.288977, 17.082448) rotate(-315.000000) translate(-41.288977, -17.082448) " points="39.3649774 16.7384478 43.2129774 16.7384478 43.2129774 17.4264478 39.3649774 17.4264478"></polygon>
                <polygon id="路径" fill="#FFFFFF" fill-rule="nonzero" transform="translate(39.662632, 18.703137) rotate(-315.000000) translate(-39.662632, -18.703137) " points="41.7586318 17.2551366 41.7586318 20.1511366 41.0226318 20.1511366 41.0226318 19.7351366 38.3026318 19.7351366 38.3026318 20.1511366 37.5666318 20.1511366 37.5666318 17.2551366"></polygon>
                <polygon id="路径" fill="#7CD69A" fill-rule="nonzero" transform="translate(39.812538, 18.553230) rotate(-315.000000) translate(-39.812538, -18.553230) " points="38.4525384 19.0852299 41.1725384 19.0852299 41.1725384 18.0212299 38.4525384 18.0212299"></polygon>
                <path d="M20.2934498,6.9003814 L20.2934498,7.6523814 C20.0054498,7.7963814 19.7254498,7.9243814 19.4374498,8.0443814 L19.4374498,10.3323814 C19.4374498,10.8603814 19.1814498,11.1323814 18.6694498,11.1323814 L17.9174498,11.1323814 L17.7414498,10.4043814 C17.9734498,10.4363814 18.1894498,10.4523814 18.3974498,10.4523814 C18.5894498,10.4523814 18.6934498,10.3483814 18.6934498,10.1483814 L18.6934498,8.3403814 C18.3414498,8.4683814 17.9894498,8.5883814 17.6374498,8.7003814 L17.4454498,7.9483814 C17.8694498,7.8523814 18.2854498,7.7403814 18.6934498,7.5963814 L18.6934498,5.9083814 L17.5974498,5.9083814 L17.5974498,5.1803814 L18.6934498,5.1803814 L18.6934498,3.7963814 L19.4374498,3.7963814 L19.4374498,5.1803814 L20.2694498,5.1803814 L20.2694498,5.9083814 L19.4374498,5.9083814 L19.4374498,7.3083814 C19.7254498,7.1803814 20.0134498,7.0443814 20.2934498,6.9003814 Z" id="路径" fill="#FFFFFF" fill-rule="nonzero" transform="translate(18.869450, 7.464381) rotate(-315.000000) translate(-18.869450, -7.464381) "></path>
                <path d="M20.0928576,10.3147496 L20.0928576,13.8667496 L19.3728576,13.8667496 L19.3728576,6.76274965 L23.0608576,6.76274965 C23.0608576,7.70674965 23.0048576,8.33074965 22.9088576,8.64274965 C22.8048576,8.94674965 22.4848576,9.09874965 21.9488576,9.09874965 L21.3488576,9.09874965 L21.1408576,8.44274965 C21.2608576,8.44274965 21.4128576,8.45074965 21.6048576,8.45074965 C21.7888576,8.45074965 21.9328576,8.44274965 22.0288576,8.42674965 C22.1088576,8.40274965 22.1808576,8.34674965 22.2288576,8.26674965 C22.2848576,8.14674965 22.3168576,7.87474965 22.3328576,7.45074965 L20.0928576,7.45074965 L20.0928576,9.61874965 L23.1168576,9.61874965 L23.1168576,10.2747496 C22.9888576,11.0987496 22.7328576,11.8027496 22.3488576,12.3787496 C22.7168576,12.7147496 23.1488576,13.0187496 23.6608576,13.2907496 L23.1488576,13.8827496 C22.6688576,13.5787496 22.2608576,13.2667496 21.9168576,12.9307496 C21.5488576,13.3227496 21.1008576,13.6427496 20.5888576,13.8907496 L20.2208576,13.2267496 C20.6848576,13.0027496 21.0768576,12.7147496 21.3968576,12.3627496 C20.8848576,11.7307496 20.5728576,11.0507496 20.4448576,10.3147496 L20.0928576,10.3147496 Z" id="路径" fill="#FFFFFF" fill-rule="nonzero" transform="translate(21.516858, 10.326750) rotate(-315.000000) translate(-21.516858, -10.326750) "></path>
                <path d="M20.5317895,10.2745427 C20.6357895,10.8185427 20.8677895,11.3145427 21.2277895,11.7705427 C21.4917895,11.3385427 21.6837895,10.8345427 21.8117895,10.2745427 L20.5317895,10.2745427 Z" id="路径" fill="#7CD69A" fill-rule="nonzero" transform="translate(21.171789, 11.022543) rotate(-315.000000) translate(-21.171789, -11.022543) "></path>
                <polygon id="路径" fill="#FFFFFF" fill-rule="nonzero" transform="translate(24.427309, 16.088256) rotate(-315.000000) translate(-24.427309, -16.088256) " points="27.1073091 14.5722557 27.1073091 17.6042557 26.3393091 17.6042557 26.3393091 17.2202557 22.5153091 17.2202557 22.5153091 17.6042557 21.7473091 17.6042557 21.7473091 14.5722557"></polygon>
                <polygon id="路径" fill="#7CD69A" fill-rule="nonzero" transform="translate(24.560245, 15.955320) rotate(-315.000000) translate(-24.560245, -15.955320) " points="22.6482452 16.5633196 26.4722452 16.5633196 26.4722452 15.3473196 22.6482452 15.3473196"></polygon>
                <path d="M25.1978784,13.1877453 C24.9258784,13.5557453 24.6138784,13.8837453 24.2538784,14.1797453 L23.7978784,13.5797453 C24.5018784,13.0117453 24.9818784,12.3157453 25.2378784,11.4837453 L25.9898784,11.5797453 C25.8938784,11.8917453 25.7818784,12.1877453 25.6458784,12.4597453 L26.9898784,12.4597453 L26.9898784,11.3877453 L27.7498784,11.3877453 L27.7498784,12.4597453 L30.3018784,12.4597453 L30.3018784,13.1877453 L27.7498784,13.1877453 L27.7498784,14.2917453 L30.9098784,14.2917453 L30.9098784,15.0357453 L23.6298784,15.0357453 L23.6298784,14.2917453 L26.9898784,14.2917453 L26.9898784,13.1877453 L25.1978784,13.1877453 Z" id="路径" fill="#FFFFFF" fill-rule="nonzero" transform="translate(27.269878, 13.211745) rotate(-315.000000) translate(-27.269878, -13.211745) "></path>
                <polygon id="路径" fill="#FFFFFF" fill-rule="nonzero" transform="translate(30.842182, 20.551514) rotate(-315.000000) translate(-30.842182, -20.551514) " points="28.3941818 19.0395137 33.2901818 19.0395137 33.2901818 22.0635137 28.3941818 22.0635137"></polygon>
                <polygon id="路径" fill="#7CD69A" fill-rule="nonzero" transform="translate(30.426403, 20.967292) rotate(-315.000000) translate(-30.426403, -20.967292) " points="32.138403 21.2192925 32.138403 20.7152925 28.714403 20.7152925 28.714403 21.2192925"></polygon>
                <polygon id="路径" fill="#7CD69A" fill-rule="nonzero" transform="translate(31.246647, 20.147049) rotate(-315.000000) translate(-31.246647, -20.147049) " points="29.5346469 20.4150486 32.9586469 20.4150486 32.9586469 19.8790486 29.5346469 19.8790486"></polygon>
                <path d="M29.5765072,17.5552472 L32.5205072,17.5552472 L32.5205072,16.8832472 L33.2565072,16.8832472 L33.2565072,17.5552472 L36.2005072,17.5552472 L36.2005072,18.2592472 L33.9365072,18.2592472 C34.5285072,18.7392472 35.4005072,19.1312472 36.5445072,19.4192472 L36.2165072,20.1072472 C34.8405072,19.6352472 33.8565072,19.0192472 33.2565072,18.2672472 L33.2565072,19.6272472 L32.5205072,19.6272472 L32.5205072,18.2752472 C31.8965072,19.0112472 30.9205072,19.6272472 29.5925072,20.1072472 L29.1845072,19.4352472 C30.3605072,19.1152472 31.2485072,18.7232472 31.8565072,18.2592472 L29.5765072,18.2592472 L29.5765072,17.5552472 Z" id="路径" fill="#FFFFFF" fill-rule="nonzero" transform="translate(32.864507, 18.495247) rotate(-315.000000) translate(-32.864507, -18.495247) "></path>
                <polygon id="路径" fill="#FFFFFF" fill-rule="nonzero" transform="translate(29.179067, 22.197658) rotate(-315.000000) translate(-29.179067, -22.197658) " points="25.7190667 21.8496583 32.6390667 21.8496583 32.6390667 22.5456583 25.7190667 22.5456583"></polygon>
                <path d="M35.9001815,25.0208877 C35.7961815,25.1328877 35.6921815,25.2448877 35.5801815,25.3568877 L35.1081815,24.7488877 C35.7561815,24.1088877 36.1881815,23.3328877 36.4121815,22.4208877 L37.1801815,22.5328877 C37.1161815,22.7888877 37.0361815,23.0288877 36.9561815,23.2608877 L40.0281815,23.2608877 C40.0281815,26.2848877 39.9881815,28.1488877 39.9081815,28.8528877 C39.8281815,29.4688877 39.4361815,29.7808877 38.7481815,29.7808877 C38.5961815,29.7808877 38.3321815,29.7648877 37.9561815,29.7488877 L37.7721815,29.0688877 C38.1081815,29.0928877 38.4041815,29.1088877 38.6441815,29.1088877 C38.9481815,29.1088877 39.1321815,28.9088877 39.1801815,28.5168877 C39.2281815,28.0688877 39.2521815,26.5568877 39.2681815,23.9808877 L36.6281815,23.9808877 C36.4681815,24.2688877 36.2921815,24.5328877 36.0921815,24.7888877 L38.4601815,24.7888877 L38.4601815,28.5488877 L35.9001815,28.5488877 L35.9001815,25.0208877 Z" id="路径" fill="#FFFFFF" fill-rule="nonzero" transform="translate(37.568182, 26.100888) rotate(-315.000000) translate(-37.568182, -26.100888) "></path>
                <polygon id="路径" fill="#7CD69A" fill-rule="nonzero" transform="translate(36.354786, 26.782539) rotate(-315.000000) translate(-36.354786, -26.782539) " points="36.9107863 27.2505387 36.9107863 26.3145387 35.7987863 26.3145387 35.7987863 27.2505387"></polygon>
                <polygon id="路径" fill="#7CD69A" fill-rule="nonzero" transform="translate(37.452216, 25.685109) rotate(-315.000000) translate(-37.452216, -25.685109) " points="36.896216 26.1451089 38.008216 26.1451089 38.008216 25.2251089 36.896216 25.2251089"></polygon>
                <path d="M36.828285,21.0390166 C37.340285,21.4310166 37.780285,21.8230166 38.140285,22.2230166 L37.620285,22.7510166 C37.300285,22.3750166 36.860285,21.9750166 36.300285,21.5590166 L36.828285,21.0390166 Z" id="路径" fill="#FFFFFF" fill-rule="nonzero" transform="translate(37.220285, 21.895017) rotate(-315.000000) translate(-37.220285, -21.895017) "></path>
                <path d="M33.0582843,22.1652528 L34.9062843,22.1652528 L34.9062843,25.5332528 C35.1222843,25.3332528 35.3542843,25.1092528 35.6022843,24.8612528 L35.8102843,25.6612528 C35.3302843,26.1332528 34.8102843,26.5572528 34.2662843,26.9252528 L33.9782843,26.2452528 C34.1062843,26.1332528 34.1782843,25.9892528 34.1782843,25.8292528 L34.1782843,22.8932528 L33.0582843,22.8932528 L33.0582843,22.1652528 Z" id="路径" fill="#FFFFFF" fill-rule="nonzero" transform="translate(34.434284, 24.545253) rotate(-315.000000) translate(-34.434284, -24.545253) "></path>
                <polygon id="路径" fill="#FFFFFF" fill-rule="nonzero" transform="translate(42.271856, 30.883758) rotate(-315.000000) translate(-42.271856, -30.883758) " points="41.8758558 27.147758 42.6598558 27.147758 42.6598558 28.531758 45.5078558 28.531758 45.5078558 32.395758 44.7478558 32.395758 44.7478558 31.939758 42.6598558 31.939758 42.6598558 34.619758 41.8758558 34.619758 41.8758558 31.939758 39.7958558 31.939758 39.7958558 32.395758 39.0358558 32.395758 39.0358558 28.531758 41.8758558 28.531758"></polygon>
                <polygon id="路径" fill="#7CD69A" fill-rule="nonzero" transform="translate(41.714656, 29.410147) rotate(-315.000000) translate(-41.714656, -29.410147) " points="40.6746557 30.3701475 42.7546557 30.3701475 42.7546557 28.4501475 40.6746557 28.4501475"></polygon>
                <polygon id="路径" fill="#7CD69A" fill-rule="nonzero" transform="translate(43.742638, 31.438130) rotate(-315.000000) translate(-43.742638, -31.438130) " points="42.6986379 32.3981297 44.7866379 32.3981297 44.7866379 30.4781297 42.6986379 30.4781297"></polygon>
            </g>
        </g>
    </g>
</svg>