<?xml version="1.0" encoding="UTF-8"?>
<svg width="50px" height="48px" viewBox="0 0 50 48" version="1.1" xmlns="http://www.w3.org/2000/svg" xmlns:xlink="http://www.w3.org/1999/xlink">
    <!-- Generator: Sketch 55.2 (78181) - https://sketchapp.com -->
    <title>授权协议已结束_slice</title>
    <desc>Created with Sketch.</desc>
    <defs>
        <linearGradient x1="50%" y1="4.54024414%" x2="50%" y2="100.850367%" id="linearGradient-1">
            <stop stop-color="#FF866F" offset="0%"></stop>
            <stop stop-color="#FF4E4E" offset="100%"></stop>
        </linearGradient>
        <path d="M34.5225213,2.66453526e-14 L49.8962158,14.6740446 L49.8962158,47.6254616 L7.17648163e-13,2.48689958e-14 L34.5225213,2.48689958e-14 Z" id="path-2"></path>
        <filter x="-18.0%" y="-10.5%" width="136.1%" height="142.0%" filterUnits="objectBoundingBox" id="filter-3">
            <feOffset dx="0" dy="6" in="SourceAlpha" result="shadowOffsetOuter1"></feOffset>
            <feGaussianBlur stdDeviation="2" in="shadowOffsetOuter1" result="shadowBlurOuter1"></feGaussianBlur>
            <feColorMatrix values="0 0 0 0 0   0 0 0 0 0   0 0 0 0 0  0 0 0 0.06 0" type="matrix" in="shadowBlurOuter1"></feColorMatrix>
        </filter>
    </defs>
    <g id="页面1" stroke="none" stroke-width="1" fill="none" fill-rule="evenodd">
        <g id="画板" transform="translate(-323.000000, -1031.000000)">
            <g id="授权协议已结束" transform="translate(323.103784, 1031.000000)">
                <g id="形状结合备份-3">
                    <use fill="black" fill-opacity="1" filter="url(#filter-3)" xlink:href="#path-2"></use>
                    <use fill="url(#linearGradient-1)" fill-rule="evenodd" xlink:href="#path-2"></use>
                </g>
                <path d="M37.937413,10.0294901 L37.937413,11.6774901 L37.449413,11.6774901 L37.449413,12.0774901 C37.217413,12.6534901 36.841413,13.1654901 36.329413,13.5974901 C36.833413,13.8694901 37.433413,14.1014901 38.137413,14.2934901 L37.641413,15.0534901 C36.817413,14.7974901 36.129413,14.4934901 35.577413,14.1254901 C34.937413,14.4934901 34.153413,14.7974901 33.241413,15.0374901 L32.801413,14.2454901 C33.601413,14.0694901 34.289413,13.8454901 34.865413,13.5734901 C34.409413,13.1414901 34.081413,12.6614901 33.881413,12.1254901 L33.545413,12.1254901 L33.545413,11.6774901 L33.121413,11.6774901 L33.121413,10.0294901 L36.225413,10.0294901 C36.497413,9.56549012 36.721413,9.06949012 36.913413,8.54149012 L37.697413,8.83749012 C37.489413,9.30149012 37.281413,9.69349012 37.073413,10.0294901 L37.937413,10.0294901 Z" id="路径" fill="#FFFFFF" fill-rule="nonzero" transform="translate(35.469413, 11.797490) rotate(-315.000000) translate(-35.469413, -11.797490) "></path>
                <path d="M34.0678941,12.0005969 C34.2758941,12.3765969 34.5798941,12.7125969 34.9638941,13.0085969 C35.3798941,12.7125969 35.6998941,12.3765969 35.9318941,12.0005969 L34.0678941,12.0005969 Z" id="路径" fill="#F78A7A" fill-rule="nonzero" transform="translate(34.999894, 12.504597) rotate(-315.000000) translate(-34.999894, -12.504597) "></path>
                <polygon id="路径" fill="#F78C7B" fill-rule="nonzero" transform="translate(35.998329, 11.342113) rotate(-315.000000) translate(-35.998329, -11.342113) " points="34.3903289 11.6141134 37.6063289 11.6141134 37.6063289 11.0701134 34.3903289 11.0701134"></polygon>
                <path d="M37.2919252,9.35178204 C37.5159252,9.72778204 37.6839252,10.071782 37.7959252,10.383782 L37.1239252,10.639782 C36.9799252,10.271782 36.7959252,9.90378204 36.5879252,9.54378204 L37.2919252,9.35178204 Z" id="路径" fill="#FFFFFF" fill-rule="nonzero" transform="translate(37.191925, 9.995782) rotate(-315.000000) translate(-37.191925, -9.995782) "></path>
                <path d="M36.2890051,8.38514626 C36.5050051,8.75314626 36.6730051,9.08914626 36.7850051,9.39314626 L36.1130051,9.64914626 C35.9690051,9.28114626 35.7930051,8.92914626 35.5850051,8.57714626 L36.2890051,8.38514626 Z" id="路径" fill="#FFFFFF" fill-rule="nonzero" transform="translate(36.185005, 9.017146) rotate(-315.000000) translate(-36.185005, -9.017146) "></path>
                <path d="M40.0727376,8.72079301 L40.4647376,9.40079301 C39.3287376,9.60879301 37.8167376,9.72079301 35.9207376,9.72079301 L35.6727376,8.97679301 C37.4007376,8.97679301 38.8727376,8.88879301 40.0727376,8.72079301 Z" id="路径" fill="#FFFFFF" fill-rule="nonzero" transform="translate(38.068738, 9.220793) rotate(-315.000000) translate(-38.068738, -9.220793) "></path>
                <path d="M33.0724114,12.5446955 L32.3924114,12.5446955 L32.2084114,11.7526955 C32.4084114,11.7846955 32.6004114,11.8006955 32.7844114,11.8006955 C32.8964114,11.8006955 32.9604114,11.7366955 32.9604114,11.6246955 L32.9604114,9.96069546 L32.2884114,10.2006955 L32.0804114,9.37669546 C32.3764114,9.30469546 32.6724114,9.21669546 32.9604114,9.12069546 L32.9604114,7.41669546 L32.1604114,7.41669546 L32.1604114,6.60869546 L32.9604114,6.60869546 L32.9604114,5.24069546 L33.7844114,5.24069546 L33.7844114,6.60869546 L34.4404114,6.60869546 L34.4404114,7.41669546 L33.7844114,7.41669546 L33.7844114,8.77669546 C33.9844114,8.68069546 34.1844114,8.56869546 34.3844114,8.45669546 L34.3844114,9.29669546 C34.1844114,9.40069546 33.9844114,9.50469546 33.7844114,9.60069546 L33.7844114,11.8326955 C33.7844114,12.3046955 33.5444114,12.5446955 33.0724114,12.5446955 Z" id="路径" fill="#FFFFFF" fill-rule="nonzero" transform="translate(33.260411, 8.892695) rotate(-315.000000) translate(-33.260411, -8.892695) "></path>
                <path d="M39.5101185,14.5060005 L39.5101185,18.3620005 L38.6781185,18.3620005 L38.6781185,14.6500005 C38.4221185,15.3700005 38.1021185,16.0260005 37.7181185,16.6180005 L37.3421185,15.6580005 C37.9341185,14.9620005 38.3741185,14.1620005 38.6461185,13.2660005 L37.5181185,13.2660005 L37.5181185,12.4580005 L38.6781185,12.4580005 L38.6781185,10.9860005 L39.5101185,10.9860005 L39.5101185,12.4580005 L40.4781185,12.4580005 L40.4781185,13.2660005 L39.5101185,13.2660005 L39.5101185,13.5940005 C39.8941185,13.9460005 40.2781185,14.3460005 40.6621185,14.7780005 L40.1821185,15.5060005 C39.9261185,15.1060005 39.7021185,14.7700005 39.5101185,14.5060005 Z" id="路径" fill="#FFFFFF" fill-rule="nonzero" transform="translate(39.002119, 14.674001) rotate(-315.000000) translate(-39.002119, -14.674001) "></path>
                <path d="M40.8828013,18.2184966 C40.2348013,17.1144966 39.8508013,15.8984966 39.7228013,14.5704966 L39.4268013,14.5704966 L39.4268013,13.7624966 L43.1308013,13.7624966 L43.1308013,14.5544966 C42.9068013,15.9784966 42.4828013,17.2184966 41.8588013,18.2584966 C42.3548013,18.9464966 42.9628013,19.5624966 43.6988013,20.1064966 L43.1308013,20.7784966 C42.4348013,20.2184966 41.8508013,19.6104966 41.3788013,18.9704966 C40.8348013,19.6744966 40.1948013,20.2744966 39.4428013,20.7624966 L38.8988013,20.0824966 C39.6988013,19.5544966 40.3628013,18.9304966 40.8828013,18.2184966 Z" id="路径" fill="#FFFFFF" fill-rule="nonzero" transform="translate(41.298801, 17.270497) rotate(-315.000000) translate(-41.298801, -17.270497) "></path>
                <path d="M43.1661234,15.0192233 L41.3661234,15.0192233 C41.4621234,16.0752233 41.7421234,17.0432233 42.2141234,17.9152233 C42.6861234,17.0512233 43.0061234,16.0912233 43.1661234,15.0192233 Z" id="路径" fill="#FA7B70" fill-rule="nonzero" transform="translate(42.266123, 16.467223) rotate(-315.000000) translate(-42.266123, -16.467223) "></path>
                <path d="M23.2806084,9.07960838 C23.5046084,9.65560838 23.7126084,10.2716084 23.8886084,10.9276084 L23.2646084,11.2156084 C23.1126084,10.6396084 22.9526084,10.1276084 22.7926084,9.66360838 C22.7766084,11.0476084 22.7366084,11.9516084 22.6886084,12.3836084 C22.6086084,13.0236084 22.2086084,13.3516084 21.4966084,13.3516084 C21.3686084,13.3516084 21.1606084,13.3356084 20.8646084,13.3036084 L20.6566084,12.5436084 C20.9206084,12.5676084 21.1526084,12.5836084 21.3446084,12.5836084 C21.6566084,12.5836084 21.8406084,12.3836084 21.8966084,11.9916084 C21.9366084,11.6316084 21.9606084,10.3596084 21.9766084,8.17560838 L21.2086084,8.17560838 L21.2086084,8.18360838 C21.1766084,10.5836084 20.5446084,12.3356084 19.3046084,13.4396084 L18.6726084,12.8796084 C19.8006084,11.9036084 20.3766084,10.3436084 20.3926084,8.18360838 L20.3926084,8.17560838 L19.1286084,8.17560838 L19.1286084,7.35960838 L20.3926084,7.35960838 L20.3926084,6.07960838 L21.2086084,6.07960838 L21.2086084,7.35960838 L22.8086084,7.35960838 C22.8086084,8.05560838 22.8006084,8.67960838 22.8006084,9.23960838 L23.2806084,9.07960838 Z" id="路径" fill="#FFFFFF" fill-rule="nonzero" transform="translate(21.280608, 9.759608) rotate(-315.000000) translate(-21.280608, -9.759608) "></path>
                <path d="M19.4963906,7.36221314 L20.1523906,7.53021314 C19.9283906,8.49021314 19.6083906,9.21821314 19.1923906,9.73021314 L18.6243906,9.20221314 C19.0403906,8.68221314 19.3283906,8.06621314 19.4963906,7.36221314 Z" id="路径" fill="#FFFFFF" fill-rule="nonzero" transform="translate(19.388391, 8.546213) rotate(-315.000000) translate(-19.388391, -8.546213) "></path>
                <polygon id="路径" fill="#FFFFFF" fill-rule="nonzero" transform="translate(18.718053, 7.168769) rotate(-315.000000) translate(-18.718053, -7.168769) " points="17.4980534 5.24476913 18.3380534 5.24476913 18.3380534 3.49276913 19.1300534 3.49276913 19.1300534 5.24476913 19.9380534 5.24476913 19.9380534 6.02076913 19.1300534 6.02076913 19.1300534 10.8447691 18.3380534 10.8447691 18.3380534 6.02076913 17.4980534 6.02076913"></polygon>
                <path d="M28.255926,12.0482651 C28.735926,12.6962651 29.111926,13.2642651 29.367926,13.7522651 L28.711926,14.2082651 C28.439926,13.6962651 28.071926,13.1282651 27.623926,12.5042651 L28.255926,12.0482651 Z" id="路径" fill="#FFFFFF" fill-rule="nonzero" transform="translate(28.495926, 13.128265) rotate(-315.000000) translate(-28.495926, -13.128265) "></path>
                <path d="M27.9698503,11.8144382 L28.7618503,11.9824382 C28.5058503,13.8384382 27.9778503,15.3504382 27.1938503,16.5104382 C27.7938503,17.1984382 28.4818503,17.7344382 29.2578503,18.1264382 L28.7618503,18.8544382 C27.9778503,18.4224382 27.2898503,17.8624382 26.6898503,17.1744382 C26.0498503,17.8944382 25.2978503,18.4544382 24.4338503,18.8544382 L23.9778503,18.1344382 C24.8338503,17.7424382 25.5538503,17.1904382 26.1458503,16.4864382 C25.4098503,15.4464382 24.8258503,14.1664382 24.3858503,12.6624382 L25.0978503,12.2544382 C25.4658503,13.6624382 25.9778503,14.8464382 26.6418503,15.7984382 C27.3058503,14.7424382 27.7458503,13.4144382 27.9698503,11.8144382 Z" id="路径" fill="#FFFFFF" fill-rule="nonzero" transform="translate(26.617850, 15.334438) rotate(-315.000000) translate(-26.617850, -15.334438) "></path>
                <path d="M25.9910076,9.95958226 C26.4870076,10.3515823 26.9110076,10.7355823 27.2630076,11.1195823 L26.6870076,11.7035823 C26.3830076,11.3275823 25.9590076,10.9275823 25.4070076,10.5115823 L25.9910076,9.95958226 Z" id="路径" fill="#FFFFFF" fill-rule="nonzero" transform="translate(26.335008, 10.831582) rotate(-315.000000) translate(-26.335008, -10.831582) "></path>
                <path d="M22.1916343,11.0775342 L24.0876343,11.0775342 L24.0876343,14.2935342 L24.7196343,13.6855342 L24.9516343,14.5655342 C24.4636343,15.0295342 23.9436343,15.4535342 23.3916343,15.8295342 L23.0716343,15.0695342 C23.2156343,14.9575342 23.2956343,14.8215342 23.2956343,14.6455342 L23.2956343,11.8775342 L22.1916343,11.8775342 L22.1916343,11.0775342 Z" id="路径" fill="#FFFFFF" fill-rule="nonzero" transform="translate(23.571634, 13.453534) rotate(-315.000000) translate(-23.571634, -13.453534) "></path>
                <path d="M34.074946,19.9756029 L29.138946,19.9756029 L29.138946,22.1116029 C29.138946,22.3996029 29.282946,22.5436029 29.570946,22.5436029 L33.546946,22.5436029 C33.674946,22.5436029 33.794946,22.4956029 33.906946,22.3996029 C34.018946,22.2876029 34.090946,21.8156029 34.138946,20.9996029 L34.954946,21.2556029 C34.850946,22.2796029 34.714946,22.8796029 34.554946,23.0556029 C34.362946,23.2316029 34.098946,23.3276029 33.778946,23.3436029 L29.330946,23.3436029 C28.642946,23.3436029 28.306946,22.9836029 28.306946,22.2636029 L28.306946,18.1196029 L29.138946,18.1196029 L29.138946,19.1756029 L33.226946,19.1756029 L33.226946,17.3516029 L27.970946,17.3516029 L27.970946,16.5516029 L34.074946,16.5516029 L34.074946,19.9756029 Z" id="路径" fill="#FFFFFF" fill-rule="nonzero" transform="translate(31.462946, 19.947603) rotate(-315.000000) translate(-31.462946, -19.947603) "></path>
                <path d="M34.843247,24.8847414 L34.843247,25.6687414 C34.027247,25.9567414 33.107247,26.1967414 32.067247,26.3807414 L31.963247,25.5647414 C33.059247,25.3967414 34.019247,25.1727414 34.843247,24.8847414 Z" id="路径" fill="#FFFFFF" fill-rule="nonzero" transform="translate(33.403247, 25.632741) rotate(-315.000000) translate(-33.403247, -25.632741) "></path>
                <path d="M35.8074588,20.2343042 L36.5914588,20.5383042 C36.2154588,21.4743042 35.8314588,22.2423042 35.4394588,22.8423042 C35.7274588,22.8103042 36.0154588,22.7783042 36.3034588,22.7383042 C36.4394588,22.4743042 36.5834588,22.1943042 36.7434588,21.8983042 L37.4714588,22.1703042 C36.8154588,23.3783042 36.2554588,24.2663042 35.8074588,24.8423042 C36.3194588,24.7303042 36.8314588,24.5863042 37.3594588,24.4103042 L37.3594588,25.1543042 C36.4554588,25.4583042 35.6074588,25.6663042 34.8074588,25.7703042 L34.5834588,25.0183042 C34.7274588,24.9543042 34.8554588,24.8743042 34.9594588,24.7783042 C35.1994588,24.5383042 35.5034588,24.1063042 35.8714588,23.4903042 C35.4874588,23.5383042 35.0874588,23.5943042 34.6714588,23.6503042 L34.4714588,22.8903042 C34.5994588,22.8343042 34.7114588,22.7303042 34.8154588,22.5863042 C35.1994588,21.8743042 35.5274588,21.0903042 35.8074588,20.2343042 Z" id="路径" fill="#FFFFFF" fill-rule="nonzero" transform="translate(35.971459, 23.002304) rotate(-315.000000) translate(-35.971459, -23.002304) "></path>
                <polygon id="路径" fill="#FFFFFF" fill-rule="nonzero" transform="translate(39.207179, 24.846439) rotate(-315.000000) translate(-39.207179, -24.846439) " points="36.9711795 24.0144387 38.7871795 24.0144387 38.7871795 23.1344387 39.6271795 23.1344387 39.6271795 24.0144387 41.4431795 24.0144387 41.4431795 24.8144387 39.6271795 24.8144387 39.6271795 25.7584387 41.2111795 25.7584387 41.2111795 26.5584387 37.2351795 26.5584387 37.2351795 25.7584387 38.7871795 25.7584387 38.7871795 24.8144387 36.9711795 24.8144387"></polygon>
                <polygon id="路径" fill="#FFFFFF" fill-rule="nonzero" transform="translate(36.426836, 27.660724) rotate(-315.000000) translate(-36.426836, -27.660724) " points="38.2548356 25.9767237 38.2548356 29.3447237 37.4468356 29.3447237 37.4468356 29.0487237 35.4148356 29.0487237 35.4148356 29.3447237 34.5988356 29.3447237 34.5988356 25.9767237"></polygon>
                <polygon id="路径" fill="#FA7A6F" fill-rule="nonzero" transform="translate(36.534316, 27.558900) rotate(-315.000000) translate(-36.534316, -27.558900) " points="35.5183158 28.3109003 37.5503158 28.3109003 37.5503158 26.8069003 35.5183158 26.8069003"></polygon>
                <path d="M38.7971945,27.7212828 L41.8371945,27.7212828 L41.8371945,27.0092828 L42.6851945,27.0092828 L42.6851945,27.7212828 L45.7091945,27.7212828 L45.7091945,28.5292828 L42.6851945,28.5292828 L42.6851945,29.0972828 L45.1811945,29.0972828 L45.1811945,31.5612828 L43.3171945,31.5612828 C43.8771945,32.2812828 44.7811945,32.9212828 46.0211945,33.4812828 L45.4371945,34.2092828 C44.1571945,33.4412828 43.2451945,32.5932828 42.6851945,31.6572828 L42.6851945,34.3932828 L41.8371945,34.3932828 L41.8371945,31.6412828 C41.2451945,32.6812828 40.3011945,33.5372828 39.0131945,34.2092828 L38.5251945,33.4332828 C39.7251945,32.9372828 40.6131945,32.3132828 41.1971945,31.5612828 L39.3571945,31.5612828 L39.3571945,29.0972828 L41.8371945,29.0972828 L41.8371945,28.5292828 L38.7971945,28.5292828 L38.7971945,27.7212828 Z" id="路径" fill="#FFFFFF" fill-rule="nonzero" transform="translate(42.273194, 30.701283) rotate(-315.000000) translate(-42.273194, -30.701283) "></path>
                <polygon id="路径" fill="#FA796F" fill-rule="nonzero" transform="translate(43.407394, 31.320708) rotate(-315.000000) translate(-43.407394, -31.320708) " points="44.2353938 31.7847084 44.2353938 30.8567084 42.5793938 30.8567084 42.5793938 31.7847084"></polygon>
                <polygon id="路径" fill="#FA796F" fill-rule="nonzero" transform="translate(41.642455, 29.555770) rotate(-315.000000) translate(-41.642455, -29.555770) " points="42.4624552 30.0197698 42.4624552 29.0917698 40.8224552 29.0917698 40.8224552 30.0197698"></polygon>
            </g>
        </g>
    </g>
</svg>