<?xml version="1.0" encoding="UTF-8"?>
<svg width="47px" height="45px" viewBox="0 0 47 45" version="1.1" xmlns="http://www.w3.org/2000/svg" xmlns:xlink="http://www.w3.org/1999/xlink">
    <!-- Generator: Sketch 55.2 (78181) - https://sketchapp.com -->
    <title>初审否决_slice</title>
    <desc>Created with Sketch.</desc>
    <defs>
        <linearGradient x1="50%" y1="4.54024414%" x2="50%" y2="100.850367%" id="linearGradient-1">
            <stop stop-color="#FF866F" offset="0%"></stop>
            <stop stop-color="#FF4E4E" offset="100%"></stop>
        </linearGradient>
        <path d="M26.621859,-1.77635684e-15 L47,19.450741 L47,44.0660666 L0.832889008,-1.42108547e-14 L26.621859,0 Z" id="path-2"></path>
        <filter x="-19.5%" y="-11.3%" width="139.0%" height="145.4%" filterUnits="objectBoundingBox" id="filter-3">
            <feOffset dx="0" dy="6" in="SourceAlpha" result="shadowOffsetOuter1"></feOffset>
            <feGaussianBlur stdDeviation="2" in="shadowOffsetOuter1" result="shadowBlurOuter1"></feGaussianBlur>
            <feColorMatrix values="0 0 0 0 0   0 0 0 0 0   0 0 0 0 0  0 0 0 0.06 0" type="matrix" in="shadowBlurOuter1"></feColorMatrix>
        </filter>
    </defs>
    <g id="页面1" stroke="none" stroke-width="1" fill="none" fill-rule="evenodd">
        <g id="画板" transform="translate(-326.000000, -785.000000)">
            <g id="初审否决" transform="translate(326.000000, 785.000000)">
                <g id="形状结合备份-3">
                    <use fill="black" fill-opacity="1" filter="url(#filter-3)" xlink:href="#path-2"></use>
                    <use fill="url(#linearGradient-1)" fill-rule="evenodd" xlink:href="#path-2"></use>
                </g>
                <path d="M19.54,13.76 L18.436,13.76 L18.436,12.952 L22.54,12.952 C22.54,15.704 22.492,17.408 22.412,18.048 C22.316,19.152 21.876,19.712 21.092,19.712 C20.916,19.712 20.596,19.696 20.148,19.664 L19.94,18.904 C20.332,18.936 20.668,18.952 20.948,18.952 C21.324,18.952 21.54,18.512 21.604,17.648 C21.652,17.28 21.676,15.984 21.692,13.76 L20.364,13.76 L20.364,14.368 C20.332,16.864 19.644,18.696 18.284,19.856 L17.644,19.288 C18.884,18.264 19.516,16.624 19.54,14.368 L19.54,13.76 Z M16.452,16.872 C16.196,17.144 15.916,17.408 15.62,17.672 L15.364,16.824 C16.316,15.976 16.964,15.144 17.3,14.344 L15.556,14.344 L15.556,13.584 L16.508,13.584 C16.388,13.256 16.252,12.936 16.1,12.624 L16.908,12.408 C17.084,12.84 17.228,13.232 17.332,13.584 L18.116,13.584 L18.116,14.264 C17.932,14.816 17.644,15.36 17.26,15.904 C17.364,15.968 17.46,16.04 17.556,16.112 C17.796,15.92 18.028,15.656 18.252,15.32 L18.748,15.816 C18.54,16.104 18.308,16.336 18.06,16.52 C18.252,16.68 18.428,16.856 18.596,17.032 L18.156,17.728 C17.852,17.328 17.556,16.984 17.26,16.696 L17.26,19.824 L16.452,19.824 L16.452,16.872 Z M24.872,16.856 L24.872,17.528 L26.408,17.528 L26.408,16.856 L24.872,16.856 Z M26.408,18.288 L24.872,18.288 L24.872,18.704 L24.056,18.704 L24.056,14.672 L26.408,14.672 L26.408,14.016 L27.24,14.016 L27.24,14.672 L29.616,14.672 L29.616,18.68 L28.8,18.68 L28.8,18.288 L27.24,18.288 L27.24,19.864 L26.408,19.864 L26.408,18.288 Z M27.24,17.528 L28.8,17.528 L28.8,16.856 L27.24,16.856 L27.24,17.528 Z M28.8,16.128 L28.8,15.44 L27.24,15.44 L27.24,16.128 L28.8,16.128 Z M26.408,15.44 L24.872,15.44 L24.872,16.128 L26.408,16.128 L26.408,15.44 Z M30.224,12.952 L30.224,14.504 L29.408,14.504 L29.408,13.712 L24.16,13.712 L24.16,14.544 L23.344,14.544 L23.344,12.952 L26.312,12.952 C26.248,12.792 26.176,12.64 26.104,12.496 L26.992,12.352 C27.056,12.528 27.12,12.728 27.184,12.952 L30.224,12.952 Z M31.244,12.712 L37.796,12.712 L37.796,13.528 L35.26,13.528 C35.148,13.672 35.036,13.808 34.916,13.944 L34.916,16.528 L34.084,16.528 L34.084,14.712 C33.364,15.272 32.46,15.768 31.372,16.208 L30.844,15.52 C32.404,14.96 33.548,14.296 34.276,13.528 L31.244,13.528 L31.244,12.712 Z M37.244,16.72 L37.244,19.808 L36.396,19.808 L36.396,19.448 L32.62,19.448 L32.62,19.808 L31.772,19.808 L31.772,16.72 L37.244,16.72 Z M32.62,18.648 L36.396,18.648 L36.396,17.52 L32.62,17.52 L32.62,18.648 Z M35.772,14.048 C36.692,14.576 37.468,15.104 38.1,15.632 L37.492,16.24 C36.956,15.728 36.196,15.184 35.212,14.592 L35.772,14.048 Z M41.032,13.56 L42.552,13.56 L42.552,12.432 L43.36,12.432 L43.36,13.56 L45.16,13.56 L45.16,15.888 L45.816,15.888 L45.816,16.68 L43.616,16.68 C44.112,17.704 44.88,18.528 45.936,19.168 L45.384,19.808 C44.328,19.056 43.536,18.128 43.024,17.016 C42.608,18.28 41.832,19.224 40.688,19.832 L40.152,19.128 C41.224,18.616 41.936,17.8 42.288,16.68 L40.696,16.68 L40.696,15.888 L42.472,15.888 C42.52,15.552 42.552,15.2 42.552,14.832 L42.552,14.352 L41.032,14.352 L41.032,13.56 Z M43.36,14.352 L43.36,14.648 C43.36,15.088 43.328,15.504 43.28,15.888 L44.352,15.888 L44.352,14.352 L43.36,14.352 Z M39.256,12.632 C39.76,13.352 40.144,13.976 40.408,14.512 L39.72,14.992 C39.44,14.416 39.056,13.768 38.568,13.064 L39.256,12.632 Z M39.76,15.984 L40.496,16.272 C40.152,17.456 39.76,18.576 39.328,19.624 L38.536,19.28 C39.008,18.208 39.416,17.104 39.76,15.984 Z" fill="#FFFFFF" fill-rule="nonzero" transform="translate(30.650000, 16.108000) rotate(-315.000000) translate(-30.650000, -16.108000) "></path>
            </g>
        </g>
    </g>
</svg>