<?xml version="1.0" encoding="UTF-8"?>
<svg width="27px" height="27px" viewBox="0 0 27 27" version="1.1" xmlns="http://www.w3.org/2000/svg" xmlns:xlink="http://www.w3.org/1999/xlink">
    <!-- Generator: Sketch 55.2 (78181) - https://sketchapp.com -->
    <title>蓝2_slice</title>
    <desc>Created with Sketch.</desc>
    <g id="页面1" stroke="none" stroke-width="1" fill="none" fill-rule="evenodd">
        <g id="画板" transform="translate(-70.000000, -73.000000)">
            <g id="蓝2" transform="translate(70.000000, 73.000000)">
                <circle id="椭圆形备份-4" fill="#589EFF" opacity="0.800000012" cx="13.5" cy="13.5" r="13.5"></circle>
                <path d="M14.112,8 C15.2,8 16.112,8.304 16.816,8.944 C17.504,9.584 17.856,10.4 17.856,11.408 C17.856,12.4 17.472,13.296 16.736,14.112 C16.288,14.576 15.504,15.184 14.368,15.952 C13.136,16.768 12.4,17.488 12.16,18.112 L17.872,18.112 L17.872,19.648 L10,19.648 C10,18.512 10.368,17.52 11.136,16.656 C11.552,16.16 12.416,15.472 13.712,14.576 C14.48,14.032 15.024,13.6 15.344,13.264 C15.856,12.688 16.128,12.064 16.128,11.392 C16.128,10.752 15.952,10.272 15.6,9.952 C15.248,9.632 14.72,9.472 14.048,9.472 C13.328,9.472 12.784,9.712 12.416,10.208 C12.032,10.688 11.84,11.376 11.808,12.304 L10.064,12.304 C10.08,11.024 10.448,10 11.168,9.232 C11.904,8.4 12.896,8 14.112,8 Z" id="2" fill="#FFFFFF" fill-rule="nonzero"></path>
            </g>
        </g>
    </g>
</svg>