<?xml version="1.0" encoding="UTF-8"?>
<svg width="42px" height="40px" viewBox="0 0 42 40" version="1.1" xmlns="http://www.w3.org/2000/svg" xmlns:xlink="http://www.w3.org/1999/xlink">
    <!-- Generator: Sketch 57.1 (83088) - https://sketch.com -->
    <title>为归还_slice</title>
    <desc>Created with Sketch.</desc>
    <defs>
        <linearGradient x1="50%" y1="3.71383611%" x2="50%" y2="100.494001%" id="linearGradient-1">
            <stop stop-color="#FFB753" offset="0%"></stop>
            <stop stop-color="#FF973A" offset="100%"></stop>
        </linearGradient>
        <path d="M24.817,0 L41.999,16.363 L41.999,39.999 L0,0 L24.817,0 Z" id="path-2"></path>
        <filter x="-21.4%" y="-12.5%" width="142.9%" height="150.0%" filterUnits="objectBoundingBox" id="filter-3">
            <feOffset dx="0" dy="6" in="SourceAlpha" result="shadowOffsetOuter1"></feOffset>
            <feGaussianBlur stdDeviation="2" in="shadowOffsetOuter1" result="shadowBlurOuter1"></feGaussianBlur>
            <feColorMatrix values="0 0 0 0 0   0 0 0 0 0   0 0 0 0 0  0 0 0 0.06 0" type="matrix" in="shadowBlurOuter1"></feColorMatrix>
        </filter>
    </defs>
    <g id="页面-1" stroke="none" stroke-width="1" fill="none" fill-rule="evenodd">
        <g id="画板" transform="translate(-101.000000, -167.000000)">
            <g id="为归还" transform="translate(101.000000, 167.000000)">
                <g id="形状结合备份-3">
                    <use fill="black" fill-opacity="1" filter="url(#filter-3)" xlink:href="#path-2"></use>
                    <use fill="url(#linearGradient-1)" fill-rule="evenodd" xlink:href="#path-2"></use>
                </g>
                <path d="M18.5328889,10.9308932 L19.4868889,10.9308932 L19.4868889,12.0648932 L22.4748889,12.0648932 L22.4748889,12.9828932 L19.4868889,12.9828932 L19.4868889,14.2878932 L22.9518889,14.2878932 L22.9518889,15.2058932 L20.2428889,15.2058932 C20.8368889,16.2318932 21.8178889,17.1498932 23.1768889,17.9598932 L22.5108889,18.8058932 C21.0888889,17.7258932 20.0898889,16.5198932 19.5048889,15.2058932 L19.4868889,15.2058932 L19.4868889,19.2108932 L18.5328889,19.2108932 L18.5328889,15.2058932 L18.5238889,15.2058932 C17.8848889,16.6638932 16.8498889,17.8698932 15.4188889,18.8148932 L14.8788889,17.9238932 C16.1748889,17.2038932 17.1468889,16.3038932 17.7768889,15.2058932 L15.0678889,15.2058932 L15.0678889,14.2878932 L18.5328889,14.2878932 L18.5328889,12.9828932 L15.6078889,12.9828932 L15.6078889,12.0648932 L18.5328889,12.0648932 L18.5328889,10.9308932 Z M25.9848889,10.9038932 L26.9208889,10.9038932 L26.9208889,14.8548932 C26.8848889,16.8528932 26.1918889,18.3198932 24.8238889,19.2378932 L24.1128889,18.6168932 C25.3368889,17.8338932 25.9668889,16.5828932 25.9848889,14.8548932 L25.9848889,10.9038932 Z M24.1308889,11.7768932 L25.0668889,11.7768932 L25.0668889,16.2048932 L24.1308889,16.2048932 L24.1308889,11.7768932 Z M27.3438889,11.5158932 L31.8168889,11.5158932 L31.8168889,19.0128932 L30.8628889,19.0128932 L30.8628889,18.5718932 L27.1818889,18.5718932 L27.1818889,17.6538932 L30.8628889,17.6538932 L30.8628889,15.4308932 L27.5868889,15.4308932 L27.5868889,14.5308932 L30.8628889,14.5308932 L30.8628889,12.4338932 L27.3438889,12.4338932 L27.3438889,11.5158932 Z M33.7698889,10.9758932 C34.3638889,11.4438932 34.8678889,11.9118932 35.2818889,12.3798932 L34.6068889,13.0458932 C34.2648889,12.5958932 33.7698889,12.1098932 33.1218889,11.5878932 L33.7698889,10.9758932 Z M38.8908889,19.0848932 C38.4048889,19.0848932 37.8738889,19.0758932 37.3068889,19.0668932 C36.7308889,19.0578932 36.2628889,19.0038932 35.8848889,18.9138932 C35.5248889,18.8058932 35.2188889,18.5988932 34.9578889,18.2928932 C34.8408889,18.1398932 34.7328889,18.0678932 34.6248889,18.0678932 C34.4538889,18.0678932 34.1478889,18.4638932 33.6978889,19.2738932 L33.0048889,18.6348932 C33.4548889,17.9148932 33.8508889,17.4558932 34.2108889,17.2578932 L34.2108889,14.7918932 L33.0228889,14.7918932 L33.0228889,13.9278932 L35.0838889,13.9278932 L35.0838889,17.3568932 L35.1738889,17.4468932 C35.3718889,17.6808932 35.5788889,17.8608932 35.7858889,17.9778932 C36.0468889,18.1128932 36.4338889,18.1848932 36.9558889,18.2028932 C37.4688889,18.2118932 38.0718889,18.2208932 38.7558889,18.2208932 C39.2058889,18.2208932 39.6558889,18.2118932 40.1238889,18.2118932 C40.5828889,18.1938932 40.9338889,18.1758932 41.1768889,18.1578932 L40.9518889,19.0848932 L38.8908889,19.0848932 Z M35.5698889,11.2818932 L40.8528889,11.2818932 L40.8528889,12.1998932 L38.8638889,12.1998932 C38.7738889,12.4338932 38.6748889,12.6678932 38.5668889,12.8838932 L38.5668889,17.8788932 L37.6308889,17.8788932 L37.6308889,14.3508932 C37.1178889,14.9808932 36.5058889,15.5568932 35.8038889,16.0788932 L35.2098889,15.3048932 C36.4698889,14.4408932 37.3788889,13.4058932 37.9188889,12.1998932 L35.5698889,12.1998932 L35.5698889,11.2818932 Z M39.3408889,13.0458932 C40.1328889,13.9998932 40.7538889,14.8368932 41.1858889,15.5568932 L40.3848889,16.1058932 C39.9528889,15.3408932 39.3588889,14.4948932 38.6208889,13.5678932 L39.3408889,13.0458932 Z" id="未归还" fill="#FFFFFF" fill-rule="nonzero" transform="translate(28.032389, 15.088893) rotate(-315.000000) translate(-28.032389, -15.088893) "></path>
            </g>
        </g>
    </g>
</svg>