<?xml version="1.0" encoding="UTF-8"?>
<svg width="21px" height="22px" viewBox="0 0 21 22" version="1.1" xmlns="http://www.w3.org/2000/svg" xmlns:xlink="http://www.w3.org/1999/xlink">
    <!-- Generator: Sketch 55.2 (78181) - https://sketchapp.com -->
    <title>上传_slice</title>
    <desc>Created with Sketch.</desc>
    <g id="页面1" stroke="none" stroke-width="1" fill="none" fill-rule="evenodd">
        <g id="画板" transform="translate(-104.000000, -270.000000)" fill-rule="nonzero">
            <g id="上传" transform="translate(104.000000, 270.000000)">
                <path d="M13.2370593,13.9218912 L4.01113391,13.9218912 C3.23643788,13.9218912 3.23643788,15.1422051 4.01113391,15.1422051 L13.2370593,15.1422051 C13.9941486,15.1422051 13.9941486,13.9218912 13.2370593,13.9218912 L13.2370593,13.9218912 Z M13.2370593,17.1015824 L10.0150281,17.1015824 C9.24033207,17.1015824 9.24033207,18.3218963 10.0150281,18.3218963 L13.254666,18.3218963 C13.9941486,18.3218963 13.9941486,17.1015824 13.2370593,17.1015824 L13.2370593,17.1015824 Z M4.01113391,9.77969888 C3.23643788,9.77969888 3.23643788,11.0000128 4.01113391,11.0000128 L13.2370593,11.0000128 C14.0117553,11.0000128 14.0117553,9.77969888 13.2370593,9.77969888 L4.01113391,9.77969888 L4.01113391,9.77969888 Z M13.2370593,11.7390762 L4.01113391,11.7390762 C3.23643788,11.7390762 3.23643788,12.9593901 4.01113391,12.9593901 L13.2370593,12.9593901 C13.9941486,12.9593901 13.9941486,11.7390762 13.2370593,11.7390762 L13.2370593,11.7390762 L13.2370593,11.7390762 Z M4.18720119,5.89531936 L7.4268391,5.89531936 C8.20153513,5.89531936 8.20153513,4.67500544 7.4268391,4.67500544 L4.18720119,4.67500544 C3.41250516,4.67500544 3.41250516,5.89531936 4.18720119,5.89531936 L4.18720119,5.89531936 Z M4.18720119,7.87188416 L7.4268391,7.87188416 C8.20153513,7.87188416 8.20153513,6.65157024 7.4268391,6.65157024 L4.18720119,6.65157024 C3.41250516,6.65157024 3.41250516,7.87188416 4.18720119,7.87188416 L4.18720119,7.87188416 L4.18720119,7.87188416 Z M16.1773828,11.3093882 L16.1773828,20.5390864 L1.82789966,20.5390864 L1.82789966,1.4609392 L13.0257785,1.4609392 L13.0257785,5.55110091e-16 L0.331327797,5.55110091e-16 L0.331327797,22.0000256 L17.6739547,22.0000256 L17.6739547,11.3265757 L16.1773828,11.3093882 Z" id="形状" fill="#4D94FF"></path>
                <polygon id="形状" fill="#FF523C" points="13.9413284 4.88125568 13.9413284 10.0203242 17.0753259 10.0203242 17.0753259 4.8984432 20.5086379 4.8984432 15.4907204 -3.54383189e-13 10.4904097 4.88125568 13.9413284 4.88125568"></polygon>
            </g>
        </g>
    </g>
</svg>