<?xml version="1.0" encoding="UTF-8"?>
<svg width="19px" height="19px" viewBox="0 0 19 19" version="1.1" xmlns="http://www.w3.org/2000/svg" xmlns:xlink="http://www.w3.org/1999/xlink">
    <!-- Generator: Sketch 55.2 (78181) - https://sketchapp.com -->
    <title>图片删除角标_slice</title>
    <desc>Created with Sketch.</desc>
    <g id="页面1" stroke="none" stroke-width="1" fill="none" fill-rule="evenodd">
        <g id="画板">
            <g id="图片删除角标">
                <path d="M4,0 L19,0 L19,19 L0,19 L0,4 C-2.705415e-16,1.790861 1.790861,4.05812251e-16 4,0 Z" id="矩形" fill="#FF765C"></path>
                <path d="M9.60144535,3 C8.18126705,3 7.02863149,4.05207865 6.97958317,5.37291275 L3.66882144,5.37291275 C3.30097319,5.37291275 3,5.65208129 3,5.99790944 C3,6.34166027 3.29875016,6.62291937 3.6688356,6.62291937 L4.40678346,6.62291937 L4.40678346,13.6145836 C4.40678346,14.927082 5.35876551,16 6.5359394,16 L12.5331729,16 C13.7081237,16 14.6623288,14.9333404 14.6623288,13.6145836 L14.6623288,6.62708725 L15.3311644,6.62708725 C15.6990268,6.62708725 16,6.34790548 16,6.00207732 C16,5.6583265 15.7012498,5.37708063 15.3311644,5.37708063 L12.2188332,5.37708063 C12.1764681,4.05209188 11.0216095,3 9.60144535,3 L9.60144535,3 Z M8.23255257,5.37291275 C8.28160089,4.69583741 8.87241794,4.17084337 9.60366839,4.17084337 C10.3349188,4.17084337 10.9257359,4.69791474 10.9681009,5.37291275 L8.23255257,5.37291275 Z M6.53370221,14.8312472 C6.11679147,14.8312472 5.65751567,14.3312472 5.65751567,13.6145836 L5.65751567,6.62708725 L13.4071364,6.62708725 L13.4071364,13.6208288 C13.4071364,14.3354151 12.9478606,14.8375056 12.5309498,14.8375056 L6.53370221,14.8375056 L6.53370221,14.8312472 Z" id="形状" fill="#FFFFFF" fill-rule="nonzero"></path>
                <path d="M7.53034059,13 C7.8209474,13 8.06066771,12.7123092 8.06066771,12.3511186 L8.06066771,8.64889477 C8.06066771,8.28770415 7.82307609,8 7.53034059,8 C7.23970683,8 7,8.28770415 7,8.64889477 L7,12.3511186 C7,12.7102019 7.2333477,13 7.53034059,13 Z M9.45015089,13 C9.74077118,13 9.98047801,12.7123092 9.98047801,12.3511186 L9.98047801,8.64889477 C9.98047801,8.28770415 9.7428864,8 9.45015089,8 C9.15953061,8 8.9198103,8.28770415 8.9198103,8.64889477 L8.9198103,12.3511186 C8.9198103,12.7102019 9.15953061,13 9.45015089,13 L9.45015089,13 Z M11.4696594,13 C11.7602797,13 12,12.7123092 12,12.3511186 L12,8.64889477 C12,8.28770415 11.7624084,8 11.4696594,8 C11.1790391,8 10.9393323,8.28770415 10.9393323,8.64889477 L10.9393323,12.3511186 C10.9393323,12.7102019 11.1705513,13 11.4696594,13 Z" id="形状" fill="#FFFFFF" fill-rule="nonzero"></path>
            </g>
        </g>
    </g>
</svg>