<?xml version="1.0" encoding="UTF-8"?>
<svg width="49px" height="49px" viewBox="0 0 49 49" version="1.1" xmlns="http://www.w3.org/2000/svg" xmlns:xlink="http://www.w3.org/1999/xlink">
    <!-- Generator: Sketch 59.1 (86144) - https://sketch.com -->
    <title>分组备份 31@2x</title>
    <desc>Created with Sketch.</desc>
    <g id="页面-1" stroke="none" stroke-width="1" fill="none" fill-rule="evenodd">
        <g id="状态角标" transform="translate(-2044.000000, -298.000000)">
            <g id="分组备份-31" transform="translate(2043.000000, 285.000000)">
                <g id="编组-3" transform="translate(31.353553, 31.646447) rotate(45.000000) translate(-31.353553, -31.646447) translate(-3.646447, 23.146447)">
                    <polygon id="矩形" fill="#FF9600" points="16.0683698 1.06157248 53.835396 0.965338282 69.375151 16.5050933 0.362011246 16.7679311"></polygon>
                    <path d="M22.831,9.588 L24.559,9.588 L24.559,10.344 L22.831,10.344 L22.831,9.588 Z M24.559,11.199 L24.559,12.972 L25.495,12.972 L25.495,11.199 L27.25,11.199 L27.25,11.64 L28.168,11.64 L28.168,7.131 L25.495,7.131 L25.495,6.393 L24.559,6.393 L24.559,7.131 L21.913,7.131 L21.913,11.667 L22.831,11.667 L22.831,11.199 L24.559,11.199 Z M25.495,10.344 L25.495,9.588 L27.25,9.588 L27.25,10.344 L25.495,10.344 Z M27.25,8.769 L25.495,8.769 L25.495,7.995 L27.25,7.995 L27.25,8.769 Z M24.559,7.995 L24.559,8.769 L22.831,8.769 L22.831,7.995 L24.559,7.995 Z M28.852,5.196 L25.432,5.196 C25.36,4.944 25.288,4.719 25.216,4.521 L24.217,4.683 C24.298,4.845 24.379,5.016 24.451,5.196 L21.112,5.196 L21.112,6.987 L22.03,6.987 L22.03,6.051 L27.934,6.051 L27.934,6.942 L28.852,6.942 L28.852,5.196 Z M33.393,8.697 C33.591,9.021 33.816,9.426 34.086,9.903 L34.617,9.093 C34.203,8.553 33.789,8.058 33.393,7.626 L33.393,7.167 L34.356,7.167 L34.356,6.276 L33.393,6.276 L33.393,4.62 L32.484,4.62 L32.484,6.276 L31.341,6.276 L31.341,7.167 L32.448,7.167 C32.178,8.211 31.755,9.147 31.179,9.957 L31.575,10.929 C31.935,10.317 32.232,9.66 32.484,8.949 L32.484,12.936 L33.393,12.936 L33.393,8.697 Z M34.5,5.502 L34.5,6.357 L36.021,6.357 C35.535,7.185 35.13,7.707 34.815,7.905 C34.779,7.932 34.725,7.959 34.644,7.986 L34.833,8.742 L36.579,8.661 C35.904,9.345 35.085,9.849 34.122,10.182 L34.635,10.956 C36.372,10.308 37.686,9.093 38.586,7.302 L37.83,6.897 C37.65,7.239 37.461,7.563 37.245,7.869 C36.795,7.905 36.336,7.941 35.877,7.968 C36.201,7.608 36.57,7.077 36.984,6.357 L39.45,6.357 L39.45,5.502 L37.506,5.502 C37.398,5.169 37.29,4.863 37.173,4.593 L36.21,4.755 C36.345,4.98 36.471,5.232 36.588,5.502 L34.5,5.502 Z M37.425,11.244 C38.037,11.838 38.514,12.396 38.874,12.936 L39.558,12.252 C39.126,11.73 38.604,11.199 38.01,10.677 C38.55,10.092 39.027,9.408 39.441,8.634 L38.658,8.229 C37.632,10.155 36.075,11.46 33.996,12.135 L34.518,12.936 C35.616,12.549 36.588,11.982 37.425,11.244 Z M45.314,4.566 L45.314,6.105 L42.128,6.105 L42.128,10.497 L43.073,10.497 L43.073,10.002 L45.314,10.002 L45.314,13.008 L46.286,13.008 L46.286,10.002 L48.536,10.002 L48.536,10.497 L49.481,10.497 L49.481,6.105 L46.286,6.105 L46.286,4.566 L45.314,4.566 Z M43.073,9.084 L43.073,7.023 L45.314,7.023 L45.314,9.084 L43.073,9.084 Z M46.286,9.084 L46.286,7.023 L48.536,7.023 L48.536,9.084 L46.286,9.084 Z" id="审核中" fill="#FFFFFF" fill-rule="nonzero"></path>
                </g>
            </g>
        </g>
    </g>
</svg>