<?xml version="1.0" encoding="UTF-8"?>
<svg width="49px" height="49px" viewBox="0 0 49 49" version="1.1" xmlns="http://www.w3.org/2000/svg" xmlns:xlink="http://www.w3.org/1999/xlink">
    <!-- Generator: Sketch 59.1 (86144) - https://sketch.com -->
    <title>分组备份 29@2x</title>
    <desc>Created with Sketch.</desc>
    <g id="页面-1" stroke="none" stroke-width="1" fill="none" fill-rule="evenodd">
        <g id="状态角标" transform="translate(-2044.000000, -506.000000)">
            <g id="分组备份-29" transform="translate(2043.000000, 493.000000)">
                <g id="编组-3" transform="translate(31.353553, 31.646447) rotate(45.000000) translate(-31.353553, -31.646447) translate(-3.646447, 23.146447)">
                    <polygon id="矩形" fill="#FF9600" points="16.0683698 1.06157248 53.835396 0.965338282 69.375151 16.5050933 0.362011246 16.7679311"></polygon>
                    <path d="M28.294,12.882 C28.492,12.882 28.663,12.738 28.825,12.459 C28.987,12.189 29.122,11.631 29.248,10.785 L28.465,10.407 L28.411,10.866 C28.393,11.01 28.375,11.145 28.357,11.271 L28.3165,11.4732188 C28.276,11.647875 28.2355,11.739 28.195,11.739 C28.108375,11.739 28.0424219,11.6149688 28.0031699,11.3669063 L27.988,11.253 C27.934,10.929 27.907,10.173 27.907,9.003 L27.907,6.033 L25.999,6.033 L25.999,4.62 L25.054,4.62 L25.054,6.033 L24.01,6.033 L24.01,6.951 L25.054,6.951 L25.054,7.797 C25.054,8.049 25.036,8.301 25.018,8.553 C24.802,8.427 24.586,8.301 24.361,8.184 L23.839,8.94 C24.181,9.12 24.532,9.318 24.874,9.552 C24.622,10.749 24.109,11.676 23.317,12.333 L24.028,12.954 C24.829,12.279 25.387,11.352 25.702,10.173 C25.954,10.371 26.206,10.587 26.476,10.839 L26.998,10.056 C27.034,11.037 27.142,11.721 27.304,12.108 C27.52,12.612 27.844,12.873 28.294,12.882 Z M25.999,6.951 L26.98,6.951 L26.98,9.003 C26.98,9.363 26.98,9.696 26.998,10.011 C26.656,9.705 26.287,9.408 25.909,9.138 C25.963,8.724 25.99,8.274 25.999,7.797 L25.999,6.951 Z M22.012,12.855 C22.624,12.855 22.93,12.549 22.93,11.937 L22.93,9.489 C23.191,9.381 23.452,9.264 23.722,9.138 L23.722,8.202 C23.47,8.328 23.2,8.454 22.93,8.58 L22.93,7.14 L23.677,7.14 L23.677,6.231 L22.93,6.231 L22.93,4.638 L21.985,4.638 L21.985,6.231 L20.941,6.231 L20.941,7.14 L21.985,7.14 L21.985,8.94 C21.589,9.066 21.184,9.183 20.77,9.273 L21.004,10.173 C21.328,10.074 21.661,9.966 21.985,9.858 L21.985,11.694 C21.985,11.892 21.877,12 21.679,12 C21.427,12 21.175,11.982 20.905,11.946 L21.112,12.855 L22.012,12.855 Z M34.662,5.079 L34.662,6.006 L39.09,6.006 L39.09,5.079 L34.662,5.079 Z M34.446,7.311 L34.446,8.238 L37.137,8.238 L37.137,11.775 C37.137,11.955 37.011,12.045 36.768,12.045 C36.39,12.045 35.994,12.018 35.58,11.982 L35.787,12.9 L37.092,12.9 C37.758,12.9 38.091,12.603 38.091,12.009 L38.091,8.238 L39.477,8.238 L39.477,7.311 L34.446,7.311 Z M33.096,4.656 C32.682,5.475 32.052,6.186 31.206,6.789 L31.494,7.734 C32.655,6.933 33.474,6.042 33.951,5.061 L33.096,4.656 Z M33.519,6.726 C33.033,7.68 32.286,8.517 31.278,9.219 L31.566,10.146 C31.908,9.903 32.241,9.651 32.547,9.399 L32.547,12.936 L33.474,12.936 L33.474,8.472 C33.834,8.04 34.131,7.59 34.365,7.122 L33.519,6.726 Z M45.314,4.566 L45.314,6.105 L42.128,6.105 L42.128,10.497 L43.073,10.497 L43.073,10.002 L45.314,10.002 L45.314,13.008 L46.286,13.008 L46.286,10.002 L48.536,10.002 L48.536,10.497 L49.481,10.497 L49.481,6.105 L46.286,6.105 L46.286,4.566 L45.314,4.566 Z M43.073,9.084 L43.073,7.023 L45.314,7.023 L45.314,9.084 L43.073,9.084 Z M46.286,9.084 L46.286,7.023 L48.536,7.023 L48.536,9.084 L46.286,9.084 Z" id="执行中" fill="#FFFFFF" fill-rule="nonzero"></path>
                </g>
            </g>
        </g>
    </g>
</svg>