<?xml version="1.0" encoding="UTF-8"?>
<svg width="49px" height="49px" viewBox="0 0 49 49" version="1.1" xmlns="http://www.w3.org/2000/svg" xmlns:xlink="http://www.w3.org/1999/xlink">
    <!-- Generator: Sketch 59.1 (86144) - https://sketch.com -->
    <title>分组备份 30@2x</title>
    <desc>Created with Sketch.</desc>
    <g id="页面-1" stroke="none" stroke-width="1" fill="none" fill-rule="evenodd">
        <g id="状态角标" transform="translate(-2044.000000, -402.000000)">
            <g id="分组备份-30" transform="translate(2043.000000, 389.000000)">
                <g id="编组-3" transform="translate(31.353553, 31.646447) rotate(45.000000) translate(-31.353553, -31.646447) translate(-3.646447, 23.146447)">
                    <polygon id="矩形" fill="#64DC64" points="16.0683698 1.06157248 53.835396 0.965338282 69.375151 16.5050933 0.362011246 16.7679311"></polygon>
                    <path d="M22.579,4.539 C22.192,5.376 21.598,6.105 20.797,6.717 L21.076,7.617 C22.174,6.807 22.939,5.916 23.389,4.926 L22.579,4.539 Z M22.903,6.618 C22.453,7.608 21.778,8.472 20.878,9.201 L21.157,10.092 C21.463,9.849 21.76,9.597 22.039,9.336 L22.039,12.882 L22.948,12.882 L22.948,8.301 C23.254,7.887 23.506,7.446 23.704,6.996 L22.903,6.618 Z M25.945,4.593 L25.945,5.475 L24.046,5.475 L24.046,6.33 L25.945,6.33 L25.945,7.185 L23.722,7.185 L23.722,8.049 L29.14,8.049 L29.14,7.185 L26.854,7.185 L26.854,6.33 L28.771,6.33 L28.771,5.475 L26.854,5.475 L26.854,4.593 L25.945,4.593 Z M23.749,8.877 L23.749,9.75 L27.133,9.75 L27.133,11.568 C27.133,11.856 26.998,12.009 26.728,12.009 C26.368,12.009 25.981,11.991 25.567,11.955 L25.783,12.846 L27.061,12.846 C27.727,12.846 28.069,12.495 28.069,11.802 L28.069,9.75 L29.014,9.75 L29.014,8.877 L28.069,8.877 L28.069,8.31 L27.133,8.31 L27.133,8.877 L23.749,8.877 Z M24.964,9.93 L24.235,10.389 C24.703,10.884 25.081,11.334 25.36,11.739 L26.089,11.226 C25.828,10.848 25.45,10.416 24.964,9.93 Z M35.715,8.301 C35.967,9.084 36.273,9.786 36.633,10.416 C36.138,11.064 35.481,11.604 34.662,12.027 L34.6911516,11.7493382 C34.7459388,11.0862245 34.779,9.777 34.779,7.833 L33.06,7.833 L33.069,7.455 L33.069,7.455 L33.069,6.771 L35.166,6.771 L35.166,5.862 L33.879,5.862 C33.735,5.457 33.555,5.007 33.33,4.521 L32.421,4.773 C32.61,5.124 32.781,5.484 32.934,5.862 L31.359,5.862 L31.359,6.771 L32.196,6.771 L32.196,7.455 C32.178,9.678 31.836,11.289 31.152,12.288 L31.89,12.936 C32.52,11.982 32.898,10.569 33.024,8.697 L33.897,8.697 L33.8701869,10.3934734 C33.8552388,11.0344464 33.8371765,11.4361765 33.816,11.595 C33.762,11.865 33.6,12.009 33.321,12.009 C33.114,12.009 32.88,11.991 32.61,11.973 L32.826,12.774 L33.0996667,12.804 C33.261,12.82 33.381,12.828 33.465,12.828 C34.131,12.828 34.527,12.585 34.644,12.099 L35.157,12.909 C35.949,12.459 36.624,11.901 37.164,11.235 C37.704,11.973 38.343,12.549 39.09,12.972 L39.63,12.171 C38.892,11.766 38.253,11.199 37.704,10.461 C38.307,9.444 38.64,8.22 38.712,6.789 L39.288,6.789 L39.288,5.88 L36.84,5.88 C36.93,5.52 37.02,5.151 37.092,4.755 L36.174,4.593 C35.931,6.042 35.463,7.194 34.779,8.058 L35.337,8.769 C35.463,8.625 35.589,8.472 35.715,8.301 Z M36.534,6.789 L37.83,6.789 C37.776,7.851 37.542,8.778 37.146,9.579 C36.795,8.949 36.498,8.229 36.255,7.41 C36.345,7.221 36.444,7.014 36.534,6.789 Z M41.705,5.349 L41.705,6.159 L43.514,6.159 L43.514,6.69 L42.02,6.69 L42.02,7.473 L45.746,7.473 L45.746,6.69 L44.396,6.69 L44.396,6.159 L45.953,6.159 L45.953,5.349 L44.396,5.349 L44.396,4.611 L43.514,4.611 L43.514,5.349 L41.705,5.349 Z M42.317,7.959 L42.317,8.769 L45.467,8.769 L45.467,7.959 L42.317,7.959 Z M41.768,9.219 L41.768,10.029 L43.505,10.029 L43.505,11.847 C43.505,12.027 43.388,12.126 43.172,12.126 C42.974,12.126 42.767,12.108 42.551,12.072 L42.74,12.918 L43.469,12.918 C44.081,12.918 44.387,12.63 44.387,12.072 L44.387,10.029 L46.052,10.029 L46.052,9.219 L41.768,9.219 Z M42.344,10.317 C42.2,10.839 41.939,11.334 41.57,11.802 L42.263,12.243 C42.614,11.748 42.884,11.154 43.082,10.47 L42.344,10.317 Z M45.413,10.227 L44.684,10.47 C44.882,10.866 45.062,11.325 45.233,11.847 L45.953,11.523 C45.791,11.064 45.611,10.632 45.413,10.227 Z M46.682,4.647 C46.529,6.087 46.196,7.212 45.683,8.022 L46.394,8.535 C46.7,8.103 46.961,7.509 47.168,6.771 L48.779,6.771 C48.671,7.437 48.536,8.022 48.374,8.517 L49.238,8.76 C49.418,8.004 49.562,7.257 49.679,6.501 L49.679,5.934 L47.357,5.934 C47.429,5.583 47.483,5.205 47.537,4.791 L46.682,4.647 Z M47.312,7.374 L48.158,7.374 C48.158,7.968 48.131,8.526 48.077,9.03 C48.446,10.353 49.085,11.415 50.003,12.216 L49.382,12.936 C48.707,12.252 48.176,11.442 47.798,10.506 C47.51,11.496 46.898,12.315 45.953,12.981 L45.386,12.297 C46.214,11.703 46.754,10.992 47.006,10.146 C47.204,9.435 47.303,8.508 47.312,7.374 Z" id="待放款" fill="#FFFFFF" fill-rule="nonzero"></path>
                </g>
            </g>
        </g>
    </g>
</svg>