<?xml version="1.0" encoding="UTF-8"?>
<svg width="49px" height="49px" viewBox="0 0 49 49" version="1.1" xmlns="http://www.w3.org/2000/svg" xmlns:xlink="http://www.w3.org/1999/xlink">
    <!-- Generator: Sketch 59.1 (86144) - https://sketch.com -->
    <title>分组备份 57@2x</title>
    <desc>Created with Sketch.</desc>
    <g id="页面-1" stroke="none" stroke-width="1" fill="none" fill-rule="evenodd">
        <g id="状态角标" transform="translate(-4398.000000, -194.000000)">
            <g id="分组备份-57" transform="translate(4397.000000, 176.000000)">
                <g id="编组-3备份" transform="translate(33.828427, 34.171573) rotate(45.000000) translate(-33.828427, -34.171573) translate(-1.171573, 22.171573)">
                    <polygon id="矩形" fill="#FF9600" points="22.9791847 1.1507576 46.7340187 0.863961031 69.3614357 23.491378 0.362011246 23.7679311"></polygon>
                    <path d="M24.6177568,3.19622292 L24.6177568,10.2432229 L22.0437568,10.2432229 L22.0437568,11.1612229 L30.0897568,11.1612229 L30.0897568,10.2432229 L27.4977568,10.2432229 L27.4977568,3.19622292 L26.5527568,3.19622292 L26.5527568,10.2432229 L25.5627568,10.2432229 L25.5627568,3.19622292 L24.6177568,3.19622292 Z M29.0907568,4.89722292 C28.7127568,6.49922292 28.2807568,7.83122292 27.7767568,8.87522292 L28.6227568,9.17222292 C29.1447568,8.02022292 29.5767568,6.67022292 29.9187568,5.13122292 L29.0907568,4.89722292 Z M23.0067568,4.87022292 L22.2057568,5.14022292 C22.6737568,6.44522292 23.0517568,7.79522292 23.3577568,9.19922292 L24.2127568,8.99222292 C23.8617568,7.44422292 23.4567568,6.06722292 23.0067568,4.87022292 Z M33.5007568,3.09722292 C33.1407568,3.96122292 32.4387568,4.69022292 31.3947568,5.28422292 L31.9617568,6.03122292 C32.3037568,5.81522292 32.6277568,5.59022292 32.9247568,5.34722292 C33.2667568,5.62622292 33.6357568,5.88722292 34.0317568,6.13022292 C33.1137568,6.45422292 32.0697568,6.69722292 30.8997568,6.84122292 L31.3317568,7.72322292 C32.7537568,7.50722292 33.9957568,7.15622292 35.0667568,6.67922292 C36.1827568,7.20122292 37.4337568,7.53422292 38.8287568,7.69622292 L39.2517568,6.82322292 C38.0997568,6.71522292 37.0467568,6.49022292 36.1017568,6.14822292 C36.8397568,5.71622292 37.4697568,5.19422292 38.0007568,4.58222292 L38.0007568,3.82622292 L34.1757568,3.82622292 C34.2747568,3.64622292 34.3647568,3.44822292 34.4547568,3.24122292 L33.5007568,3.09722292 Z M35.0577568,5.69822292 C34.5177568,5.42822292 34.0137568,5.10422292 33.5457568,4.72622292 L33.5637568,4.70822292 L36.6057568,4.70822292 C36.1467568,5.08622292 35.6337568,5.41022292 35.0577568,5.69822292 Z M34.3737568,7.19222292 C34.3647568,7.49822292 34.3377568,7.78622292 34.2837568,8.06522292 L31.5297568,8.06522292 L31.5297568,8.91122292 L33.9957568,8.91122292 L33.8247568,9.19922292 L33.8247568,9.19922292 C33.3837568,9.80222292 32.4297568,10.3152229 30.9717568,10.7382229 L31.5927568,11.5032229 C33.2667568,10.9632229 34.3197568,10.2972229 34.7517568,9.49622292 C34.8597568,9.31622292 34.9497568,9.11822292 35.0217568,8.91122292 L37.3797568,8.91122292 C37.3617568,9.65822292 37.2897568,10.1172229 37.1727568,10.2972229 C37.0647568,10.4682229 36.8037568,10.5582229 36.3807568,10.5672229 L35.9741008,10.5521029 C35.7507568,10.5423829 35.4969568,10.5294229 35.2107568,10.5132229 L35.4447568,11.3592229 L35.9507728,11.3937829 C36.1870768,11.4067429 36.3987568,11.4132229 36.5877568,11.4132229 C37.2177568,11.4132229 37.6587568,11.2512229 37.9107568,10.9362229 C38.1627568,10.6212229 38.2977568,9.66722292 38.3157568,8.06522292 L35.2377568,8.06522292 C35.2737568,7.79522292 35.3007568,7.49822292 35.3007568,7.19222292 L34.3737568,7.19222292 Z M41.4477568,4.98722292 L40.6017568,5.29322292 C40.7727568,5.63522292 40.9257568,6.00422292 41.0517568,6.38222292 L39.9807568,6.38222292 L39.9807568,7.28222292 L44.5167568,7.28222292 L44.5167568,6.38222292 L43.5987568,6.38222292 C43.7697568,6.04922292 43.9317568,5.67122292 44.0757568,5.23922292 L43.2207568,4.94222292 C43.0677568,5.45522292 42.8877568,5.93222292 42.6807568,6.38222292 L41.9427568,6.38222292 C41.7897568,5.84222292 41.6277568,5.37422292 41.4477568,4.98722292 Z M44.8497568,3.42122292 L44.8497568,11.4492229 L45.7587568,11.4492229 L45.7587568,4.28522292 L47.0007568,4.28522292 C46.7127568,5.21222292 46.4247568,6.00422292 46.1277568,6.67022292 C46.8297568,7.48922292 47.1897568,8.15522292 47.1987568,8.66822292 L47.1864235,8.93822292 C47.1757568,9.09422292 47.1597568,9.20222292 47.1357568,9.26222292 C47.0817568,9.36122292 46.9827568,9.41522292 46.8387568,9.42422292 C46.5957568,9.42422292 46.2987568,9.39722292 45.9477568,9.36122292 L46.2447568,10.3512229 C47.0097568,10.3512229 47.5227568,10.2252229 47.7747568,9.98222292 C48.0087568,9.73922292 48.1347568,9.29822292 48.1347568,8.66822292 C48.1257568,8.14622292 47.7927568,7.48022292 47.1267568,6.67022292 C47.4507568,5.89622292 47.7567568,5.04122292 48.0357568,4.12322292 L48.0357568,3.42122292 L44.8497568,3.42122292 Z M40.1517568,3.92522292 L40.1517568,4.82522292 L44.4357568,4.82522292 L44.4357568,3.92522292 L42.6807568,3.92522292 C42.6087568,3.61922292 42.5367568,3.33122292 42.4647568,3.07922292 L41.5017568,3.24122292 C41.5917568,3.44822292 41.6727568,3.67322292 41.7537568,3.92522292 L40.1517568,3.92522292 Z M44.1837568,7.87622292 L40.4487568,7.87622292 L40.4487568,11.4492229 L41.3667568,11.4492229 L41.3667568,11.0082229 L43.2477568,11.0082229 L43.2477568,11.4492229 L44.1837568,11.4492229 L44.1837568,7.87622292 Z M41.3667568,10.1172229 L41.3667568,8.76722292 L43.2477568,8.76722292 L43.2477568,10.1172229 L41.3667568,10.1172229 Z M26.5617568,14.6362229 L26.5617568,15.3202229 C26.5347568,17.8582229 25.8237568,19.7032229 24.4287568,20.8552229 L25.1487568,21.4942229 C26.6787568,20.1892229 27.4527568,18.1282229 27.4887568,15.3202229 L27.4887568,14.6362229 L28.9827568,14.6362229 L28.9633137,16.6305481 C28.9458211,17.928998 28.921322,18.7222229 28.8837568,19.0102229 C28.8117568,19.9822229 28.5687568,20.4772229 28.1457568,20.4772229 C27.8307568,20.4772229 27.4527568,20.4592229 27.0117568,20.4232229 L27.2457568,21.2782229 L27.7510576,21.3111292 C27.9969756,21.3251917 28.1840068,21.3322229 28.3077568,21.3322229 C29.1407568,21.3322229 29.6285624,20.7702785 29.7711735,19.6615532 L29.8136564,19.2644497 C29.8910512,18.4259573 29.9367568,16.5755429 29.9367568,13.7272229 L25.3197568,13.7272229 L25.3197568,14.6362229 L26.5617568,14.6362229 Z M23.0877568,18.1372229 L23.0877568,21.4582229 L23.9967568,21.4582229 L23.9967568,17.9392229 C24.3297568,18.2632229 24.6627568,18.6502229 25.0047568,19.1002229 L25.4997568,18.3172229 C25.3107568,18.1192229 25.1127568,17.9212229 24.8967568,17.7412229 C25.1757568,17.5342229 25.4367568,17.2732229 25.6707568,16.9492229 L25.1127568,16.3912229 C24.8607568,16.7692229 24.5997568,17.0662229 24.3297568,17.2822229 C24.2217568,17.2012229 24.1137568,17.1202229 23.9967568,17.0482229 C24.4287568,16.4362229 24.7527568,15.8242229 24.9597568,15.2032229 L24.9597568,14.4382229 L24.0777568,14.4382229 C23.9607568,14.0422229 23.7987568,13.6012229 23.6007568,13.1152229 L22.6917568,13.3582229 C22.8627568,13.7092229 23.0157568,14.0692229 23.1507568,14.4382229 L22.0797568,14.4382229 L22.0797568,15.2932229 L24.0417568,15.2932229 C23.6637568,16.1932229 22.9347568,17.1292229 21.8637568,18.0832229 L22.1517568,19.0372229 C22.4847568,18.7402229 22.7997568,18.4432229 23.0877568,18.1372229 Z M32.8977568,18.1192229 L34.6257568,18.1192229 L34.6257568,18.8752229 L32.8977568,18.8752229 L32.8977568,18.1192229 Z M34.6257568,19.7302229 L34.6257568,21.5032229 L35.5617568,21.5032229 L35.5617568,19.7302229 L37.3167568,19.7302229 L37.3167568,20.1712229 L38.2347568,20.1712229 L38.2347568,15.6622229 L35.5617568,15.6622229 L35.5617568,14.9242229 L34.6257568,14.9242229 L34.6257568,15.6622229 L31.9797568,15.6622229 L31.9797568,20.1982229 L32.8977568,20.1982229 L32.8977568,19.7302229 L34.6257568,19.7302229 Z M35.5617568,18.8752229 L35.5617568,18.1192229 L37.3167568,18.1192229 L37.3167568,18.8752229 L35.5617568,18.8752229 Z M37.3167568,17.3002229 L35.5617568,17.3002229 L35.5617568,16.5262229 L37.3167568,16.5262229 L37.3167568,17.3002229 Z M34.6257568,16.5262229 L34.6257568,17.3002229 L32.8977568,17.3002229 L32.8977568,16.5262229 L34.6257568,16.5262229 Z M38.9187568,13.7272229 L35.4987568,13.7272229 C35.4267568,13.4752229 35.3547568,13.2502229 35.2827568,13.0522229 L34.2837568,13.2142229 C34.3647568,13.3762229 34.4457568,13.5472229 34.5177568,13.7272229 L31.1787568,13.7272229 L31.1787568,15.5182229 L32.0967568,15.5182229 L32.0967568,14.5822229 L38.0007568,14.5822229 L38.0007568,15.4732229 L38.9187568,15.4732229 L38.9187568,13.7272229 Z M43.5807568,13.0972229 L43.5807568,14.6362229 L40.3947568,14.6362229 L40.3947568,19.0282229 L41.3397568,19.0282229 L41.3397568,18.5332229 L43.5807568,18.5332229 L43.5807568,21.5392229 L44.5527568,21.5392229 L44.5527568,18.5332229 L46.8027568,18.5332229 L46.8027568,19.0282229 L47.7477568,19.0282229 L47.7477568,14.6362229 L44.5527568,14.6362229 L44.5527568,13.0972229 L43.5807568,13.0972229 Z M41.3397568,17.6152229 L41.3397568,15.5542229 L43.5807568,15.5542229 L43.5807568,17.6152229 L41.3397568,17.6152229 Z M44.5527568,17.6152229 L44.5527568,15.5542229 L46.8027568,15.5542229 L46.8027568,17.6152229 L44.5527568,17.6152229 Z" id="业务部初审中" fill="#FFFFFF" fill-rule="nonzero"></path>
                </g>
            </g>
        </g>
    </g>
</svg>