<?xml version="1.0" encoding="UTF-8"?>
<svg width="49px" height="49px" viewBox="0 0 49 49" version="1.1" xmlns="http://www.w3.org/2000/svg" xmlns:xlink="http://www.w3.org/1999/xlink">
    <!-- Generator: Sketch 59.1 (86144) - https://sketch.com -->
    <title>分组备份 73@2x</title>
    <desc>Created with Sketch.</desc>
    <g id="页面-1" stroke="none" stroke-width="1" fill="none" fill-rule="evenodd">
        <g id="状态角标" transform="translate(-4398.000000, -1933.000000)">
            <g id="分组备份-73" transform="translate(4397.000000, 1920.000000)">
                <g id="编组-3" transform="translate(31.353553, 31.646447) rotate(45.000000) translate(-31.353553, -31.646447) translate(-3.646447, 23.146447)">
                    <polygon id="矩形" fill="#98A7B5" points="16.0683698 1.06157248 53.835396 0.965338282 69.375151 16.5050933 0.362011246 16.7679311"></polygon>
                    <path d="M16.6267864,4.647 L16.6267864,5.889 L13.7377864,5.889 L13.7377864,11.163 L14.6647864,11.163 L14.6647864,10.641 L16.6267864,10.641 L16.6267864,12.891 L17.5807864,12.891 L17.5807864,10.641 L19.5067864,10.641 L19.5067864,11.1 L20.4337864,11.1 L20.4337864,5.889 L17.5807864,5.889 L17.5807864,4.647 L16.6267864,4.647 Z M14.6647864,9.759 L14.6647864,8.67 L16.6267864,8.67 L16.6267864,9.759 L14.6647864,9.759 Z M17.5807864,9.759 L17.5807864,8.67 L19.5067864,8.67 L19.5067864,9.759 L17.5807864,9.759 Z M14.6647864,7.833 L14.6647864,6.762 L16.6267864,6.762 L16.6267864,7.833 L14.6647864,7.833 Z M17.5807864,7.833 L17.5807864,6.762 L19.5067864,6.762 L19.5067864,7.833 L17.5807864,7.833 Z M26.9677864,4.611 L26.9677864,5.106 L24.8977864,5.106 L24.8977864,5.862 L26.9677864,5.862 L26.9677864,6.24 L25.2757864,6.24 L25.2757864,6.978 L26.9677864,6.978 L26.9677864,7.365 L24.6457864,7.365 L24.6457864,8.139 L30.2257864,8.139 L30.2257864,7.365 L27.8767864,7.365 L27.8767864,6.978 L29.6947864,6.978 L29.6947864,6.24 L27.8767864,6.24 L27.8767864,5.862 L30.0097864,5.862 L30.0097864,5.106 L27.8767864,5.106 L27.8767864,4.611 L26.9677864,4.611 Z M26.1487864,10.407 L28.7227864,10.407 L28.7227864,10.848 L26.1487864,10.848 L26.1487864,10.407 Z M28.7227864,9.705 L26.1487864,9.705 L26.1487864,9.255 L28.7227864,9.255 L28.7227864,9.705 Z M26.1487864,11.559 L28.7227864,11.559 L28.7227864,11.811 C28.7227864,12 28.6417864,12.099 28.4797864,12.099 L27.7687864,12.063 L27.9937864,12.882 L28.7407864,12.882 C29.3257864,12.882 29.6227864,12.585 29.6227864,12.009 L29.6227864,8.499 L25.2667864,8.499 L25.2667864,12.936 L26.1487864,12.936 L26.1487864,11.559 Z M23.1877864,4.674 L22.5217864,5.313 C23.1607864,5.781 23.6557864,6.213 23.9977864,6.627 L24.6457864,5.979 C24.2407864,5.547 23.7547864,5.106 23.1877864,4.674 Z M21.9097864,7.266 L21.9097864,8.166 L23.1067864,8.166 L23.1067864,11.343 C23.1067864,11.541 23.0257864,11.712 22.8727864,11.847 L23.2237864,12.693 C23.8177864,12.27 24.3847864,11.793 24.9247864,11.262 L24.6727864,10.272 L24.2321198,10.7253333 C24.1597864,10.798 24.0877864,10.869 24.0157864,10.938 L24.0157864,7.266 L21.9097864,7.266 Z M38.2087864,8.859 L38.2087864,5.007 L31.3417864,5.007 L31.3417864,5.907 L37.2547864,5.907 L37.2547864,7.959 L32.6557864,7.959 L32.6557864,6.771 L31.7197864,6.771 L31.7197864,11.433 C31.7197864,12.243 32.0977864,12.648 32.8717864,12.648 L37.8757864,12.648 C38.2357864,12.63 38.5327864,12.522 38.7487864,12.324 C38.9287864,12.126 39.0817864,11.451 39.1987864,10.299 L38.2807864,10.011 L38.2538807,10.4071475 C38.2007983,11.0827988 38.1264018,11.4793846 38.0197864,11.586 C37.8937864,11.694 37.7587864,11.748 37.6147864,11.748 L33.1417864,11.748 C32.8177864,11.748 32.6557864,11.586 32.6557864,11.262 L32.6557864,8.859 L38.2087864,8.859 Z M45.7597864,5.403 L45.7597864,10.947 L46.5697864,10.947 L46.5697864,5.403 L45.7597864,5.403 Z M47.1007864,12.864 C47.6767864,12.864 47.9737864,12.54 47.9737864,11.892 L47.9737864,4.647 L47.1277864,4.647 L47.1277864,11.676 C47.1277864,11.946 47.0107864,12.081 46.7947864,12.081 C46.4707864,12.081 46.1377864,12.063 45.7867864,12.036 L45.9847864,12.864 L47.1007864,12.864 Z M40.0267864,8.121 L40.0267864,8.976 L40.4497864,8.976 C40.4137864,10.299 40.2157864,11.406 39.8467864,12.297 L40.5127864,12.891 C40.9537864,11.874 41.1967864,10.569 41.2417864,8.976 L41.7637864,8.976 L41.7637864,11.829 C41.7637864,12.036 41.6647864,12.144 41.4757864,12.144 C41.3497864,12.144 41.2057864,12.126 41.0617864,12.108 L41.2777864,12.891 L41.7277864,12.891 C42.2677864,12.891 42.5467864,12.63 42.5467864,12.108 L42.5467864,8.976 L43.0327864,8.976 C43.0237864,10.308 42.8887864,11.424 42.6367864,12.306 L43.2937864,12.891 C43.6177864,11.883 43.7887864,10.578 43.8067864,8.976 L44.3197864,8.976 L44.3197864,11.865 C44.3197864,12.054 44.2477864,12.153 44.1037864,12.153 C43.9777864,12.153 43.8337864,12.135 43.6807864,12.117 L43.8967864,12.9 L44.3467864,12.9 C44.8597864,12.9 45.1207864,12.648 45.1207864,12.144 L45.1207864,8.976 L45.4987864,8.976 L45.4987864,8.121 L45.1207864,8.121 L45.1207864,4.899 L43.0327864,4.899 L43.0327864,8.121 L42.5467864,8.121 L42.5467864,4.899 L40.4587864,4.899 L40.4587864,8.121 L40.0267864,8.121 Z M44.3197864,8.121 L43.8067864,8.121 L43.8067864,5.691 L44.3197864,5.691 L44.3197864,8.121 Z M41.7637864,8.121 L41.2507864,8.121 L41.2507864,5.691 L41.7637864,5.691 L41.7637864,8.121 Z M49.1977864,4.89 L49.1977864,12.945 L50.1157864,12.945 L50.1157864,10.596 L50.4127864,11.496 C51.0247864,11.487 51.4567864,11.361 51.7087864,11.127 C51.8707864,10.947 51.9517864,10.632 51.9517864,10.2 C51.9067864,9.588 51.6457864,8.868 51.1597864,8.031 C51.4747864,7.185 51.7447864,6.384 51.9787864,5.628 L51.9787864,4.89 L49.1977864,4.89 Z M50.1157864,10.542 L50.1157864,5.772 L51.0337864,5.772 C50.8357864,6.483 50.5567864,7.284 50.2147864,8.175 C50.7367864,8.922 51.0067864,9.597 51.0067864,10.2 C51.0067864,10.344 50.9797864,10.443 50.9257864,10.497 C50.8717864,10.551 50.7637864,10.578 50.6107864,10.596 C50.4847864,10.596 50.3137864,10.578 50.1157864,10.542 Z M54.1747864,12.846 C54.7327864,12.846 55.0117864,12.54 55.0117864,11.928 L55.0117864,9.516 L56.9287864,9.516 L56.9287864,8.616 L55.0117864,8.616 L55.0117864,7.824 L56.0017864,7.824 L56.0017864,7.248 C56.2447864,7.446 56.5147864,7.626 56.8027864,7.788 L57.3427864,6.987 C56.2897864,6.384 55.5067864,5.628 54.9847864,4.728 L54.0667864,4.728 C53.4727864,5.664 52.6807864,6.42 51.6997864,7.014 L52.2397864,7.806 C52.4917864,7.644 52.7347864,7.473 52.9777864,7.284 L52.9777864,7.824 L54.0577864,7.824 L54.0577864,8.616 L52.0597864,8.616 L52.0597864,9.516 L54.0577864,9.516 L54.0577864,11.694 C54.0577864,11.892 53.9857864,11.991 53.8507864,11.991 C53.6077864,11.991 53.3557864,11.973 53.0947864,11.937 L53.3017864,12.846 L54.1747864,12.846 Z M53.3737864,6.951 C53.7877864,6.573 54.1657864,6.123 54.5257864,5.619 C54.8317864,6.105 55.2097864,6.555 55.6507864,6.951 L53.3737864,6.951 Z M56.0377864,9.957 L55.3087864,10.416 C55.7407864,11.136 56.0827864,11.793 56.3347864,12.378 L57.1177864,11.847 C56.8657864,11.307 56.5057864,10.677 56.0377864,9.957 Z M52.7887864,9.984 L53.5987864,10.38 C53.2477864,11.172 52.8337864,11.856 52.3657864,12.432 L51.5827864,11.874 C52.0507864,11.352 52.4467864,10.722 52.7887864,9.984 Z" id="申请已删除" fill="#FFFFFF" fill-rule="nonzero"></path>
                </g>
            </g>
        </g>
    </g>
</svg>