<?xml version="1.0" encoding="UTF-8"?>
<svg width="49px" height="49px" viewBox="0 0 49 49" version="1.1" xmlns="http://www.w3.org/2000/svg" xmlns:xlink="http://www.w3.org/1999/xlink">
    <!-- Generator: Sketch 59.1 (86144) - https://sketch.com -->
    <title>分组备份 60@2x</title>
    <desc>Created with Sketch.</desc>
    <g id="页面-1" stroke="none" stroke-width="1" fill="none" fill-rule="evenodd">
        <g id="状态角标" transform="translate(-4398.000000, -521.000000)">
            <g id="分组备份-60" transform="translate(4397.000000, 508.000000)">
                <g id="编组-3" transform="translate(31.353553, 31.646447) rotate(45.000000) translate(-31.353553, -31.646447) translate(-3.646447, 23.146447)">
                    <polygon id="矩形" fill="#FF9600" points="16.0683698 1.06157248 53.835396 0.965338282 69.375151 16.5050933 0.362011246 16.7679311"></polygon>
                    <path d="M23.9857864,6.564 L23.9857864,7.302 L24.8767864,7.302 L24.8767864,7.914 L23.8687864,7.914 L23.8687864,8.688 L26.7847864,8.688 L26.7847864,7.914 L25.7677864,7.914 L25.7677864,7.302 L26.6677864,7.302 L26.6677864,6.564 L25.7677864,6.564 L25.7677864,5.961 L24.8767864,5.961 L24.8767864,6.564 L23.9857864,6.564 Z M24.1027864,9.129 L24.1027864,11.586 L26.5417864,11.586 L26.5417864,9.129 L24.1027864,9.129 Z M25.7497864,10.83 L24.9037864,10.83 L24.9037864,9.885 L25.7497864,9.885 L25.7497864,10.83 Z M27.8827864,4.881 L22.7887864,4.881 L22.7887864,9.993 C22.7707864,10.929 22.5637864,11.694 22.1677864,12.306 L22.8607864,12.945 C23.3827864,12.171 23.6527864,11.172 23.6707864,9.93 L23.6707864,5.727 L26.9917864,5.727 L26.9917864,11.631 C26.9917864,11.928 26.8747864,12.081 26.6407864,12.081 C26.4067864,12.081 26.1457864,12.063 25.8757864,12.036 L26.0917864,12.891 L26.9107864,12.891 C27.5587864,12.891 27.8827864,12.576 27.8827864,11.955 L27.8827864,4.881 Z M21.0877864,4.674 L20.4307864,5.313 C21.0247864,5.781 21.4927864,6.213 21.8257864,6.627 L22.4647864,5.979 C22.0867864,5.547 21.6277864,5.106 21.0877864,4.674 Z M19.8097864,7.266 L19.8097864,8.166 L20.9797864,8.166 L20.9797864,11.208 C20.9797864,11.397 20.8987864,11.55 20.7367864,11.676 L21.0967864,12.513 C21.6187864,12.135 22.1137864,11.712 22.5817864,11.244 L22.3477864,10.317 L21.8797864,10.776 L21.8797864,10.776 L21.8797864,7.266 L19.8097864,7.266 Z M31.6227864,7.932 L31.6227864,11.379 L37.1847864,11.379 L37.1847864,7.932 L31.6227864,7.932 Z M36.2667864,10.551 L32.5407864,10.551 L32.5407864,10.065 L36.2667864,10.065 L36.2667864,10.551 Z M32.5407864,9.273 L32.5407864,8.76 L36.2667864,8.76 L36.2667864,9.273 L32.5407864,9.273 Z M30.6687864,5.322 L30.6687864,6.186 L33.1437864,6.186 C32.4687864,6.672 31.4967864,7.077 30.2187864,7.419 L30.7317864,8.247 C32.1627864,7.716 33.2337864,7.05 33.9447864,6.249 L33.9447864,7.671 L34.8627864,7.671 L34.8627864,6.249 C35.5377864,7.068 36.6267864,7.734 38.1297864,8.247 L38.5347864,7.401 C37.2927864,7.095 36.3477864,6.69 35.6817864,6.186 L38.1387864,6.186 L38.1387864,5.322 L34.8627864,5.322 L34.8627864,4.593 L33.9447864,4.593 L33.9447864,5.322 L30.6687864,5.322 Z M30.4887864,11.847 L30.4887864,12.702 L38.2917864,12.702 L38.2917864,11.847 L30.4887864,11.847 Z M44.2997864,4.566 L44.2997864,6.105 L41.1137864,6.105 L41.1137864,10.497 L42.0587864,10.497 L42.0587864,10.002 L44.2997864,10.002 L44.2997864,13.008 L45.2717864,13.008 L45.2717864,10.002 L47.5217864,10.002 L47.5217864,10.497 L48.4667864,10.497 L48.4667864,6.105 L45.2717864,6.105 L45.2717864,4.566 L44.2997864,4.566 Z M42.0587864,9.084 L42.0587864,7.023 L44.2997864,7.023 L44.2997864,9.084 L42.0587864,9.084 Z M45.2717864,9.084 L45.2717864,7.023 L47.5217864,7.023 L47.5217864,9.084 L45.2717864,9.084 Z" id="调查中" fill="#FFFFFF" fill-rule="nonzero"></path>
                </g>
            </g>
        </g>
    </g>
</svg>