<?xml version="1.0" encoding="UTF-8"?>
<svg width="49px" height="49px" viewBox="0 0 49 49" version="1.1" xmlns="http://www.w3.org/2000/svg" xmlns:xlink="http://www.w3.org/1999/xlink">
    <!-- Generator: Sketch 59.1 (86144) - https://sketch.com -->
    <title>分组备份 69@2x</title>
    <desc>Created with Sketch.</desc>
    <g id="页面-1" stroke="none" stroke-width="1" fill="none" fill-rule="evenodd">
        <g id="状态角标" transform="translate(-4398.000000, -1497.000000)">
            <g id="分组备份-69" transform="translate(4397.000000, 1484.000000)">
                <g id="编组-3" transform="translate(31.353553, 31.646447) rotate(45.000000) translate(-31.353553, -31.646447) translate(-3.646447, 23.146447)">
                    <polygon id="矩形" fill="#FF4831" points="16.0683698 1.06157248 53.835396 0.965338282 69.375151 16.5050933 0.362011246 16.7679311"></polygon>
                    <path d="M22.0807864,6.105 L22.0807864,6.789 C22.0537864,9.327 21.3427864,11.172 19.9477864,12.324 L20.6677864,12.963 C22.1977864,11.658 22.9717864,9.597 23.0077864,6.789 L23.0077864,6.105 L24.5017864,6.105 L24.4823433,8.09932514 C24.4648507,9.39777505 24.4403517,10.191 24.4027864,10.479 C24.3307864,11.451 24.0877864,11.946 23.6647864,11.946 C23.3497864,11.946 22.9717864,11.928 22.5307864,11.892 L22.7647864,12.747 L23.4105364,12.7875 C23.5882864,12.7965 23.7277864,12.801 23.8267864,12.801 C24.6597864,12.801 25.147592,12.2390556 25.2902031,11.1303302 L25.332686,10.7332268 C25.4100808,9.8947344 25.4557864,8.04432 25.4557864,5.196 L20.8387864,5.196 L20.8387864,6.105 L22.0807864,6.105 Z M18.6067864,9.606 L18.6067864,12.927 L19.5157864,12.927 L19.5157864,9.408 C19.8487864,9.732 20.1817864,10.119 20.5237864,10.569 L21.0187864,9.786 C20.8297864,9.588 20.6317864,9.39 20.4157864,9.21 C20.6947864,9.003 20.9557864,8.742 21.1897864,8.418 L20.6317864,7.86 C20.3797864,8.238 20.1187864,8.535 19.8487864,8.751 C19.7407864,8.67 19.6327864,8.589 19.5157864,8.517 C19.9477864,7.905 20.2717864,7.293 20.4787864,6.672 L20.4787864,5.907 L19.5967864,5.907 C19.4797864,5.511 19.3177864,5.07 19.1197864,4.584 L18.2107864,4.827 C18.3817864,5.178 18.5347864,5.538 18.6697864,5.907 L17.5987864,5.907 L17.5987864,6.762 L19.5607864,6.762 C19.1827864,7.662 18.4537864,8.598 17.3827864,9.552 L17.6707864,10.506 C18.0037864,10.209 18.3187864,9.912 18.6067864,9.606 Z M28.4167864,9.588 L30.1447864,9.588 L30.1447864,10.344 L28.4167864,10.344 L28.4167864,9.588 Z M30.1447864,11.199 L30.1447864,12.972 L31.0807864,12.972 L31.0807864,11.199 L32.8357864,11.199 L32.8357864,11.64 L33.7537864,11.64 L33.7537864,7.131 L31.0807864,7.131 L31.0807864,6.393 L30.1447864,6.393 L30.1447864,7.131 L27.4987864,7.131 L27.4987864,11.667 L28.4167864,11.667 L28.4167864,11.199 L30.1447864,11.199 Z M31.0807864,10.344 L31.0807864,9.588 L32.8357864,9.588 L32.8357864,10.344 L31.0807864,10.344 Z M32.8357864,8.769 L31.0807864,8.769 L31.0807864,7.995 L32.8357864,7.995 L32.8357864,8.769 Z M30.1447864,7.995 L30.1447864,8.769 L28.4167864,8.769 L28.4167864,7.995 L30.1447864,7.995 Z M34.4377864,5.196 L31.0177864,5.196 C30.9457864,4.944 30.8737864,4.719 30.8017864,4.521 L29.8027864,4.683 C29.8837864,4.845 29.9647864,5.016 30.0367864,5.196 L26.6977864,5.196 L26.6977864,6.987 L27.6157864,6.987 L27.6157864,6.051 L33.5197864,6.051 L33.5197864,6.942 L34.4377864,6.942 L34.4377864,5.196 Z M35.9227864,4.926 L35.9227864,5.844 L39.3337864,5.844 C38.5147864,6.708 37.2277864,7.455 35.4727864,8.085 L36.0667864,8.859 C37.2907864,8.364 38.3077864,7.806 39.1177864,7.176 L39.1177864,9.219 L40.0537864,9.219 L40.0537864,6.312 C40.1887864,6.159 40.3147864,6.006 40.4407864,5.844 L43.2937864,5.844 L43.2937864,4.926 L35.9227864,4.926 Z M42.6727864,9.435 L36.5167864,9.435 L36.5167864,12.909 L37.4707864,12.909 L37.4707864,12.504 L41.7187864,12.504 L41.7187864,12.909 L42.6727864,12.909 L42.6727864,9.435 Z M37.4707864,11.604 L37.4707864,10.335 L41.7187864,10.335 L41.7187864,11.604 L37.4707864,11.604 Z M41.0167864,6.429 L40.3867864,7.041 C41.4937864,7.707 42.3487864,8.319 42.9517864,8.895 L43.6357864,8.211 C42.9247864,7.617 42.0517864,7.023 41.0167864,6.429 Z M47.2717864,5.88 L47.2717864,6.771 L48.9817864,6.771 L48.9817864,7.311 C48.9817864,7.725 48.9457864,8.121 48.8917864,8.499 L46.8937864,8.499 L46.8937864,9.39 L48.6847864,9.39 C48.2887864,10.65 47.4877864,11.568 46.2817864,12.144 L46.8847864,12.936 C48.1717864,12.252 49.0447864,11.19 49.5127864,9.768 C50.0887864,11.019 50.9797864,12.063 52.1677864,12.909 L52.7887864,12.189 C51.6007864,11.469 50.7367864,10.542 50.1787864,9.39 L52.6537864,9.39 L52.6537864,8.499 L51.9157864,8.499 L51.9157864,5.88 L49.8907864,5.88 L49.8907864,4.611 L48.9817864,4.611 L48.9817864,5.88 L47.2717864,5.88 Z M49.8907864,6.771 L51.0067864,6.771 L51.0067864,8.499 L49.8007864,8.499 C49.8547864,8.067 49.8907864,7.599 49.8907864,7.104 L49.8907864,6.771 Z M45.2737864,4.836 L44.4997864,5.322 C45.0487864,6.114 45.4807864,6.843 45.7957864,7.491 L46.5697864,6.951 C46.2727864,6.348 45.8407864,5.646 45.2737864,4.836 Z M45.8407864,8.607 L46.6687864,8.931 C46.2817864,10.263 45.8407864,11.523 45.3547864,12.702 L44.4637864,12.315 C44.9947864,11.109 45.4537864,9.867 45.8407864,8.607 Z" id="初审否决" fill="#FFFFFF" fill-rule="nonzero"></path>
                </g>
            </g>
        </g>
    </g>
</svg>