<?xml version="1.0" encoding="UTF-8"?>
<svg width="49px" height="49px" viewBox="0 0 49 49" version="1.1" xmlns="http://www.w3.org/2000/svg" xmlns:xlink="http://www.w3.org/1999/xlink">
    <!-- Generator: Sketch 59.1 (86144) - https://sketch.com -->
    <title>分组备份 68@2x</title>
    <desc>Created with Sketch.</desc>
    <g id="页面-1" stroke="none" stroke-width="1" fill="none" fill-rule="evenodd">
        <g id="状态角标" transform="translate(-4398.000000, -1393.000000)">
            <g id="分组备份-68" transform="translate(4397.000000, 1375.000000)">
                <g id="编组-3备份" transform="translate(33.828427, 34.171573) rotate(45.000000) translate(-33.828427, -34.171573) translate(-1.171573, 22.171573)">
                    <polygon id="矩形" fill="#FF9600" points="22.9791847 1.1507576 46.7340187 0.863961031 69.3614357 23.491378 0.362011246 23.7679311"></polygon>
                    <path d="M34.5627568,5.82422292 L33.5907568,5.82422292 C33.8247568,5.44622292 34.0587568,5.00522292 34.2927568,4.48322292 L33.4107568,4.15022292 C33.1947568,4.74422292 32.9427568,5.30222292 32.6367568,5.82422292 L29.1447568,5.82422292 L29.1447568,7.67822292 L29.6217568,7.67822292 L29.6217568,8.18222292 L29.9997568,8.18222292 C30.2247568,8.78522292 30.5937568,9.32522292 31.1067568,9.81122292 C30.4587568,10.1172229 29.6847568,10.3692229 28.7847568,10.5672229 L29.2797568,11.4582229 C30.3057568,11.1882229 31.1877568,10.8462229 31.9077568,10.4322229 C32.5287568,10.8462229 33.3027568,11.1882229 34.2297568,11.4762229 L34.7877568,10.6212229 C33.9957568,10.4052229 33.3207568,10.1442229 32.7537568,9.83822292 C33.3297568,9.35222292 33.7527568,8.77622292 34.0137568,8.12822292 L34.0137568,7.67822292 L34.5627568,7.67822292 L34.5627568,5.82422292 Z M30.9267568,8.18222292 L33.0237568,8.18222292 C32.7627568,8.60522292 32.4027568,8.98322292 31.9347568,9.31622292 C31.5027568,8.98322292 31.1607568,8.60522292 30.9267568,8.18222292 Z M30.0357568,7.33622292 L30.0357568,6.72422292 L33.6537568,6.72422292 L33.6537568,7.33622292 L30.0357568,7.33622292 Z M31.8357568,4.28522292 L31.0437568,4.50122292 C31.2777568,4.90622292 31.4847568,5.32022292 31.6467568,5.73422292 L32.4027568,5.44622292 C32.2767568,5.09522292 32.0877568,4.70822292 31.8357568,4.28522292 Z M30.2607568,4.32122292 L29.4687568,4.53722292 C29.7027568,4.93322292 29.9007568,5.32922292 30.0627568,5.74322292 L30.8187568,5.45522292 C30.6927568,5.11322292 30.5037568,4.73522292 30.2607568,4.32122292 Z M34.0587568,3.13322292 C32.7087568,3.32222292 31.0527568,3.42122292 29.1087568,3.42122292 L29.3877568,4.25822292 C31.5207568,4.25822292 33.2217568,4.13222292 34.4997568,3.89822292 L34.0587568,3.13322292 Z M27.5067568,11.3682229 C28.0377568,11.3682229 28.3077568,11.0982229 28.3077568,10.5672229 L28.3077568,8.05622292 C28.5327568,7.94822292 28.7577568,7.83122292 28.9827568,7.71422292 L28.9827568,6.76922292 C28.7577568,6.89522292 28.5327568,7.02122292 28.3077568,7.12922292 L28.3077568,5.59922292 L29.0457568,5.59922292 L29.0457568,4.69022292 L28.3077568,4.69022292 L28.3077568,3.15122292 L27.3807568,3.15122292 L27.3807568,4.69022292 L26.4807568,4.69022292 L26.4807568,5.59922292 L27.3807568,5.59922292 L27.3807568,7.51622292 C27.0567568,7.62422292 26.7237568,7.72322292 26.3907568,7.80422292 L26.6247568,8.73122292 L27.3807568,8.46122292 L27.3807568,10.3332229 C27.3807568,10.4592229 27.3087568,10.5312229 27.1827568,10.5312229 C26.9757568,10.5312229 26.7597568,10.5132229 26.5347568,10.4772229 L26.7417568,11.3682229 L27.5067568,11.3682229 Z M36.3087568,6.84122292 L36.3087568,11.4852229 L37.2357568,11.4852229 L37.2357568,5.38322292 C37.5597568,4.77122292 37.8207568,4.13222292 38.0187568,3.45722292 L37.1367568,3.04322292 C36.7407568,4.42922292 36.1287568,5.63522292 35.3187568,6.66122292 L35.6337568,7.66922292 C35.8677568,7.39922292 36.0927568,7.12922292 36.3087568,6.84122292 Z M37.8117568,4.18622292 L37.8117568,5.06822292 L43.7427568,5.06822292 L43.7427568,4.18622292 L41.3217568,4.18622292 C41.2317568,3.86222292 41.0967568,3.50222292 40.9167568,3.11522292 L40.0167568,3.35822292 C40.1517568,3.62822292 40.2777568,3.89822292 40.3947568,4.18622292 L37.8117568,4.18622292 Z M38.6217568,5.54522292 L38.6217568,6.38222292 L42.9867568,6.38222292 L42.9867568,5.54522292 L38.6217568,5.54522292 Z M38.6217568,6.81422292 L38.6217568,7.66022292 L42.9867568,7.66022292 L42.9867568,6.81422292 L38.6217568,6.81422292 Z M43.1847568,8.15522292 L38.4147568,8.15522292 L38.4147568,11.4672229 L39.3327568,11.4672229 L39.3327568,11.0172229 L42.2757568,11.0172229 L42.2757568,11.4672229 L43.1847568,11.4672229 L43.1847568,8.15522292 Z M39.3327568,10.1262229 L39.3327568,9.02822292 L42.2757568,9.02822292 L42.2757568,10.1262229 L39.3327568,10.1262229 Z M20.6217568,16.5892229 L20.0817568,16.7692229 L20.0907568,14.6542229 L20.0907568,14.6542229 L18.2907568,14.6542229 L18.2907568,13.2142229 L17.3727568,13.2142229 L17.3727568,14.6542229 L15.9507568,14.6542229 L15.9507568,15.5722229 L17.3727568,15.5722229 C17.3547568,18.0112229 16.7067568,19.7662229 15.4377568,20.8642229 L16.1487568,21.4942229 C17.4831047,20.3062229 18.1916377,18.4512362 18.2822325,15.9292626 L18.2907568,15.5722229 L19.1547568,15.5722229 L19.1323289,17.7636634 C19.1157965,18.9005726 19.0941047,19.6010925 19.0647568,19.8652229 C19.0017568,20.3062229 18.7947568,20.5312229 18.4437568,20.5312229 C18.2277568,20.5312229 17.9667568,20.5132229 17.6697568,20.4862229 L17.9037568,21.3412229 L18.2040902,21.3712229 C18.3827568,21.3872229 18.5187568,21.3952229 18.6147568,21.3952229 C19.4157568,21.3952229 19.8657568,21.0262229 19.9557568,20.3062229 L19.9768342,20.0834816 C20.0212768,19.5394229 20.0571568,18.5956229 20.0727568,17.2462229 C20.2527568,17.7682229 20.4327568,18.3442229 20.6037568,18.9922229 L21.3057568,18.6682229 C21.1077568,17.9302229 20.8737568,17.2372229 20.6217568,16.5892229 Z M16.0227568,16.5622229 C15.8337568,17.3542229 15.5097568,18.0472229 15.0417568,18.6322229 L15.6807568,19.2262229 C16.1487568,18.6502229 16.5087568,17.8312229 16.7607568,16.7512229 L16.0227568,16.5622229 Z M12.8997568,15.1672229 L12.8997568,16.0402229 L13.8447568,16.0402229 L13.8447568,21.4672229 L14.7357568,21.4672229 L14.7357568,16.0402229 L15.6447568,16.0402229 L15.6447568,15.1672229 L14.7357568,15.1672229 L14.7357568,13.1962229 L13.8447568,13.1962229 L13.8447568,15.1672229 L12.8997568,15.1672229 Z M26.8587568,13.0792229 L26.1477568,13.5922229 C26.6517568,14.2942229 27.0657568,14.9332229 27.3717568,15.5092229 L28.1097568,14.9962229 C27.8217568,14.4472229 27.3987568,13.8082229 26.8587568,13.0792229 Z M28.9107568,13.5832229 C28.6587568,15.3832229 28.1637568,16.8772229 27.4167568,18.0652229 C26.6697568,16.9942229 26.0937568,15.6622229 25.6797568,14.0782229 L24.8787568,14.5372229 C25.3737568,16.2292229 26.0307568,17.6692229 26.8587568,18.8392229 C26.1927568,19.6312229 25.3827568,20.2522229 24.4197568,20.6932229 L24.9327568,21.5032229 C25.9047568,21.0532229 26.7507568,20.4232229 27.4707568,19.6132229 C28.1457568,20.3872229 28.9197568,21.0172229 29.8017568,21.5032229 L30.3597568,20.6842229 C29.4867568,20.2432229 28.7127568,19.6402229 28.0377568,18.8662229 C28.9197568,17.5612229 29.5137568,15.8602229 29.8017568,13.7722229 L28.9107568,13.5832229 Z M23.1957568,13.2052229 L22.5387568,13.8262229 C23.1597568,14.2942229 23.6367568,14.7442229 23.9787568,15.1672229 L24.6267568,14.5102229 C24.2307568,14.0782229 23.7537568,13.6462229 23.1957568,13.2052229 Z M21.9177568,15.7972229 L21.9177568,16.6972229 L23.1597568,16.6972229 L23.1597568,19.8112229 C23.1597568,20.0092229 23.0697568,20.1622229 22.9077568,20.2882229 L23.2677568,21.1432229 C23.8887568,20.7202229 24.4737568,20.2432229 25.0227568,19.7212229 L24.7617568,18.7312229 L24.0507568,19.4152229 L24.0507568,15.7972229 L21.9177568,15.7972229 Z M38.3607568,21.4132229 C38.5587568,21.4132229 38.7297568,21.2692229 38.8917568,20.9902229 C39.0537568,20.7202229 39.1887568,20.1622229 39.3147568,19.3162229 L38.5317568,18.9382229 L38.4777568,19.3972229 C38.4597568,19.5412229 38.4417568,19.6762229 38.4237568,19.8022229 L38.3832568,20.0044417 C38.3427568,20.1790979 38.3022568,20.2702229 38.2617568,20.2702229 C38.1751318,20.2702229 38.1091787,20.1461917 38.0699267,19.8981292 L38.0547568,19.7842229 C38.0007568,19.4602229 37.9737568,18.7042229 37.9737568,17.5342229 L37.9737568,14.5642229 L36.0657568,14.5642229 L36.0657568,13.1512229 L35.1207568,13.1512229 L35.1207568,14.5642229 L34.0767568,14.5642229 L34.0767568,15.4822229 L35.1207568,15.4822229 L35.1207568,16.3282229 C35.1207568,16.5802229 35.1027568,16.8322229 35.0847568,17.0842229 C34.8687568,16.9582229 34.6527568,16.8322229 34.4277568,16.7152229 L33.9057568,17.4712229 C34.2477568,17.6512229 34.5987568,17.8492229 34.9407568,18.0832229 C34.6887568,19.2802229 34.1757568,20.2072229 33.3837568,20.8642229 L34.0947568,21.4852229 C34.8957568,20.8102229 35.4537568,19.8832229 35.7687568,18.7042229 C36.0207568,18.9022229 36.2727568,19.1182229 36.5427568,19.3702229 L37.0647568,18.5872229 C37.1007568,19.5682229 37.2087568,20.2522229 37.3707568,20.6392229 C37.5867568,21.1432229 37.9107568,21.4042229 38.3607568,21.4132229 Z M36.0657568,15.4822229 L37.0467568,15.4822229 L37.0467568,17.5342229 C37.0467568,17.8942229 37.0467568,18.2272229 37.0647568,18.5422229 C36.7227568,18.2362229 36.3537568,17.9392229 35.9757568,17.6692229 C36.0297568,17.2552229 36.0567568,16.8052229 36.0657568,16.3282229 L36.0657568,15.4822229 Z M32.0787568,21.3862229 C32.6907568,21.3862229 32.9967568,21.0802229 32.9967568,20.4682229 L32.9967568,18.0202229 C33.2577568,17.9122229 33.5187568,17.7952229 33.7887568,17.6692229 L33.7887568,16.7332229 C33.5367568,16.8592229 33.2667568,16.9852229 32.9967568,17.1112229 L32.9967568,15.6712229 L33.7437568,15.6712229 L33.7437568,14.7622229 L32.9967568,14.7622229 L32.9967568,13.1692229 L32.0517568,13.1692229 L32.0517568,14.7622229 L31.0077568,14.7622229 L31.0077568,15.6712229 L32.0517568,15.6712229 L32.0517568,17.4712229 C31.6557568,17.5972229 31.2507568,17.7142229 30.8367568,17.8042229 L31.0707568,18.7042229 C31.3947568,18.6052229 31.7277568,18.4972229 32.0517568,18.3892229 L32.0517568,20.2252229 C32.0517568,20.4232229 31.9437568,20.5312229 31.7457568,20.5312229 C31.4937568,20.5312229 31.2417568,20.5132229 30.9717568,20.4772229 L31.1787568,21.3862229 L32.0787568,21.3862229 Z M43.3287568,13.6102229 L43.3287568,14.5372229 L47.7567568,14.5372229 L47.7567568,13.6102229 L43.3287568,13.6102229 Z M43.1127568,15.8422229 L43.1127568,16.7692229 L45.8037568,16.7692229 L45.8037568,20.3062229 C45.8037568,20.4862229 45.6777568,20.5762229 45.4347568,20.5762229 C45.0567568,20.5762229 44.6607568,20.5492229 44.2467568,20.5132229 L44.4537568,21.4312229 L45.7587568,21.4312229 C46.4247568,21.4312229 46.7577568,21.1342229 46.7577568,20.5402229 L46.7577568,16.7692229 L48.1437568,16.7692229 L48.1437568,15.8422229 L43.1127568,15.8422229 Z M41.7627568,13.1872229 C41.3487568,14.0062229 40.7187568,14.7172229 39.8727568,15.3202229 L40.1607568,16.2652229 C41.3217568,15.4642229 42.1407568,14.5732229 42.6177568,13.5922229 L41.7627568,13.1872229 Z M42.1857568,15.2572229 C41.6997568,16.2112229 40.9527568,17.0482229 39.9447568,17.7502229 L40.2327568,18.6772229 C40.5747568,18.4342229 40.9077568,18.1822229 41.2137568,17.9302229 L41.2137568,21.4672229 L42.1407568,21.4672229 L42.1407568,17.0032229 C42.5007568,16.5712229 42.7977568,16.1212229 43.0317568,15.6532229 L42.1857568,15.2572229 Z M52.5807568,13.0972229 L52.5807568,14.6362229 L49.3947568,14.6362229 L49.3947568,19.0282229 L50.3397568,19.0282229 L50.3397568,18.5332229 L52.5807568,18.5332229 L52.5807568,21.5392229 L53.5527568,21.5392229 L53.5527568,18.5332229 L55.8027568,18.5332229 L55.8027568,19.0282229 L56.7477568,19.0282229 L56.7477568,14.6362229 L53.5527568,14.6362229 L53.5527568,13.0972229 L52.5807568,13.0972229 Z M50.3397568,17.6152229 L50.3397568,15.5542229 L52.5807568,15.5542229 L52.5807568,17.6152229 L50.3397568,17.6152229 Z M53.5527568,17.6152229 L53.5527568,15.5542229 L55.8027568,15.5542229 L55.8027568,17.6152229 L53.5527568,17.6152229 Z" id="授信协议执行中" fill="#FFFFFF" fill-rule="nonzero"></path>
                </g>
            </g>
        </g>
    </g>
</svg>