<?xml version="1.0" encoding="UTF-8"?>
<svg width="49px" height="49px" viewBox="0 0 49 49" version="1.1" xmlns="http://www.w3.org/2000/svg" xmlns:xlink="http://www.w3.org/1999/xlink">
    <!-- Generator: Sketch 59.1 (86144) - https://sketch.com -->
    <title>分组备份 62@2x</title>
    <desc>Created with Sketch.</desc>
    <g id="页面-1" stroke="none" stroke-width="1" fill="none" fill-rule="evenodd">
        <g id="状态角标" transform="translate(-4398.000000, -739.000000)">
            <g id="分组备份-62" transform="translate(4397.000000, 726.000000)">
                <g id="编组-3" transform="translate(31.353553, 31.646447) rotate(45.000000) translate(-31.353553, -31.646447) translate(-3.646447, 23.146447)">
                    <polygon id="矩形" fill="#FF9600" points="16.0683698 1.06157248 53.835396 0.965338282 69.375151 16.5050933 0.362011246 16.7679311"></polygon>
                    <path d="M22.9507864,4.944 L22.9507864,5.826 L24.9577864,5.826 L24.9577864,8.949 L22.6897864,8.949 L22.6897864,9.84 L24.9577864,9.84 L24.9577864,12.945 L25.8757864,12.945 L25.8757864,9.84 L28.1797864,9.84 L28.1797864,8.949 L25.8757864,8.949 L25.8757864,5.826 L27.9007864,5.826 L27.9007864,4.944 L22.9507864,4.944 Z M26.9197864,6.132 C26.7307864,7.014 26.5147864,7.752 26.2627864,8.328 L27.0457864,8.607 C27.3247864,7.959 27.5587864,7.212 27.7387864,6.348 L26.9197864,6.132 Z M23.8327864,6.159 L23.0317864,6.429 C23.2927864,7.131 23.5087864,7.86 23.6707864,8.625 L24.4717864,8.427 C24.2827864,7.572 24.0667864,6.816 23.8327864,6.159 Z M21.0877864,4.665 L20.4217864,5.313 C21.0607864,5.781 21.5557864,6.222 21.8977864,6.636 L22.5457864,5.979 C22.1407864,5.547 21.6547864,5.106 21.0877864,4.665 Z M19.8097864,7.266 L19.8097864,8.166 L21.0427864,8.166 L21.0427864,11.361 C21.0427864,11.55 20.9617864,11.712 20.8087864,11.847 L21.1597864,12.693 C21.7897864,12.27 22.3747864,11.793 22.9327864,11.262 L22.6717864,10.272 C22.4197864,10.524 22.1767864,10.758 21.9517864,10.965 L21.9517864,7.266 L19.8097864,7.266 Z M32.2167864,9.588 L33.9447864,9.588 L33.9447864,10.344 L32.2167864,10.344 L32.2167864,9.588 Z M33.9447864,11.199 L33.9447864,12.972 L34.8807864,12.972 L34.8807864,11.199 L36.6357864,11.199 L36.6357864,11.64 L37.5537864,11.64 L37.5537864,7.131 L34.8807864,7.131 L34.8807864,6.393 L33.9447864,6.393 L33.9447864,7.131 L31.2987864,7.131 L31.2987864,11.667 L32.2167864,11.667 L32.2167864,11.199 L33.9447864,11.199 Z M34.8807864,10.344 L34.8807864,9.588 L36.6357864,9.588 L36.6357864,10.344 L34.8807864,10.344 Z M36.6357864,8.769 L34.8807864,8.769 L34.8807864,7.995 L36.6357864,7.995 L36.6357864,8.769 Z M33.9447864,7.995 L33.9447864,8.769 L32.2167864,8.769 L32.2167864,7.995 L33.9447864,7.995 Z M38.2377864,5.196 L34.8177864,5.196 C34.7457864,4.944 34.6737864,4.719 34.6017864,4.521 L33.6027864,4.683 C33.6837864,4.845 33.7647864,5.016 33.8367864,5.196 L30.4977864,5.196 L30.4977864,6.987 L31.4157864,6.987 L31.4157864,6.051 L37.3197864,6.051 L37.3197864,6.942 L38.2377864,6.942 L38.2377864,5.196 Z M44.2997864,4.566 L44.2997864,6.105 L41.1137864,6.105 L41.1137864,10.497 L42.0587864,10.497 L42.0587864,10.002 L44.2997864,10.002 L44.2997864,13.008 L45.2717864,13.008 L45.2717864,10.002 L47.5217864,10.002 L47.5217864,10.497 L48.4667864,10.497 L48.4667864,6.105 L45.2717864,6.105 L45.2717864,4.566 L44.2997864,4.566 Z M42.0587864,9.084 L42.0587864,7.023 L44.2997864,7.023 L44.2997864,9.084 L42.0587864,9.084 Z M45.2717864,9.084 L45.2717864,7.023 L47.5217864,7.023 L47.5217864,9.084 L45.2717864,9.084 Z" id="评审中" fill="#FFFFFF" fill-rule="nonzero"></path>
                </g>
            </g>
        </g>
    </g>
</svg>