<?xml version="1.0" encoding="UTF-8"?>
<svg width="49px" height="49px" viewBox="0 0 49 49" version="1.1" xmlns="http://www.w3.org/2000/svg" xmlns:xlink="http://www.w3.org/1999/xlink">
    <!-- Generator: Sketch 59.1 (86144) - https://sketch.com -->
    <title>分组备份 58@2x</title>
    <desc>Created with Sketch.</desc>
    <g id="页面-1" stroke="none" stroke-width="1" fill="none" fill-rule="evenodd">
        <g id="状态角标" transform="translate(-4398.000000, -303.000000)">
            <g id="分组备份-58" transform="translate(4397.000000, 285.000000)">
                <g id="编组-3备份" transform="translate(33.828427, 34.171573) rotate(45.000000) translate(-33.828427, -34.171573) translate(-1.171573, 22.171573)">
                    <polygon id="矩形" fill="#FF9600" points="22.9791847 1.1507576 46.7340187 0.863961031 69.3614357 23.491378 0.362011246 23.7679311"></polygon>
                    <path d="M31.8087568,4.47422292 L31.8087568,10.2252229 L30.7467568,10.2252229 L30.7467568,5.68922292 L29.8287568,5.68922292 L29.8287568,10.2252229 L29.0637568,10.2252229 L29.0637568,11.1432229 L34.7787568,11.1432229 L34.7787568,10.2252229 L32.7537568,10.2252229 L32.7537568,7.48022292 L34.3827568,7.48022292 L34.3827568,6.60722292 L32.7537568,6.60722292 L32.7537568,4.47422292 L34.5717568,4.47422292 L34.5717568,3.56522292 L29.3247568,3.56522292 L29.3247568,4.47422292 L31.8087568,4.47422292 Z M28.1187568,3.07022292 C27.7407568,3.89822292 27.1557568,4.60922292 26.3727568,5.22122292 L26.6607568,6.14822292 C27.7407568,5.33822292 28.4967568,4.44722292 28.9377568,3.45722292 L28.1187568,3.07022292 Z M28.4067568,5.41022292 C27.9747568,6.29222292 27.3267568,7.06622292 26.4537568,7.71422292 L26.7417568,8.62322292 C27.0207568,8.41622292 27.2817568,8.20922292 27.5337568,7.99322292 L27.5337568,11.4672229 L28.4517568,11.4672229 L28.4517568,7.03022292 C28.7667568,6.63422292 29.0277568,6.22022292 29.2257568,5.78822292 L28.4067568,5.41022292 Z M36.3087568,6.84122292 L36.3087568,11.4852229 L37.2357568,11.4852229 L37.2357568,5.38322292 C37.5597568,4.77122292 37.8207568,4.13222292 38.0187568,3.45722292 L37.1367568,3.04322292 C36.7407568,4.42922292 36.1287568,5.63522292 35.3187568,6.66122292 L35.6337568,7.66922292 C35.8677568,7.39922292 36.0927568,7.12922292 36.3087568,6.84122292 Z M37.8117568,4.18622292 L37.8117568,5.06822292 L43.7427568,5.06822292 L43.7427568,4.18622292 L41.3217568,4.18622292 C41.2317568,3.86222292 41.0967568,3.50222292 40.9167568,3.11522292 L40.0167568,3.35822292 C40.1517568,3.62822292 40.2777568,3.89822292 40.3947568,4.18622292 L37.8117568,4.18622292 Z M38.6217568,5.54522292 L38.6217568,6.38222292 L42.9867568,6.38222292 L42.9867568,5.54522292 L38.6217568,5.54522292 Z M38.6217568,6.81422292 L38.6217568,7.66022292 L42.9867568,7.66022292 L42.9867568,6.81422292 L38.6217568,6.81422292 Z M43.1847568,8.15522292 L38.4147568,8.15522292 L38.4147568,11.4672229 L39.3327568,11.4672229 L39.3327568,11.0172229 L42.2757568,11.0172229 L42.2757568,11.4672229 L43.1847568,11.4672229 L43.1847568,8.15522292 Z M39.3327568,10.1262229 L39.3327568,9.02822292 L42.2757568,9.02822292 L42.2757568,10.1262229 L39.3327568,10.1262229 Z M16.0857568,16.6162229 C15.7797568,16.7782229 15.4647568,16.9222229 15.1587568,17.0662229 L15.1587568,15.5902229 L16.0677568,15.5902229 L16.0677568,14.6992229 L15.1587568,14.6992229 L15.1587568,13.1692229 L14.2317568,13.1692229 L14.2317568,14.6992229 L13.0347568,14.6992229 L13.0347568,15.5902229 L14.2317568,15.5902229 L14.2317568,17.4262229 C13.7817568,17.5792229 13.3227568,17.7052229 12.8547568,17.8042229 L13.0887568,18.7312229 C13.4667568,18.6142229 13.8537568,18.4882229 14.2317568,18.3442229 L14.2317568,20.2792229 C14.2317568,20.4952229 14.1237568,20.6032229 13.9257568,20.6032229 C13.6917568,20.6032229 13.4487568,20.5762229 13.1877568,20.5402229 L13.4037568,21.4402229 L14.2587568,21.4402229 C14.8527568,21.4402229 15.1587568,21.1252229 15.1587568,20.5132229 L15.1587568,17.9752229 C15.4647568,17.8402229 15.7797568,17.6962229 16.0857568,17.5522229 L16.0857568,16.6162229 Z M17.3007568,17.4982229 L17.6427568,17.4982229 C17.7777568,18.3082229 18.1287568,19.0642229 18.6867568,19.7662229 C18.3447568,20.1262229 17.9217568,20.4322229 17.4177568,20.6752229 L17.8677568,21.5032229 C18.4257568,21.2332229 18.9117568,20.8912229 19.3257568,20.4682229 C19.7037568,20.8282229 20.1447568,21.1702229 20.6577568,21.4942229 L21.2877568,20.7652229 C20.7387568,20.4682229 20.2617568,20.1442229 19.8567568,19.7932229 C20.2797568,19.1452229 20.5587568,18.3622229 20.6937568,17.4532229 L20.6937568,16.6432229 L17.3007568,16.6432229 L17.3007568,14.2762229 L19.7397568,14.2762229 C19.7217568,14.7262229 19.6767568,15.0052229 19.6227568,15.1222229 C19.5687568,15.2122229 19.4877568,15.2662229 19.3977568,15.2932229 C19.2897568,15.3112229 19.1367568,15.3202229 18.9297568,15.3202229 L18.4167568,15.3112229 L18.4167568,15.3112229 L18.6687568,16.1122229 L19.3527568,16.1122229 C19.9647568,16.1122229 20.3337568,15.9412229 20.4597568,15.5992229 C20.5767568,15.2392229 20.6397568,14.5102229 20.6397568,13.4302229 L16.4097568,13.4302229 L16.4097568,21.4762229 L17.3007568,21.4762229 L17.3007568,17.4982229 Z M18.4707568,17.4982229 L19.8117568,17.4982229 C19.6857568,18.0922229 19.4787568,18.6232229 19.1997568,19.0912229 C18.8307568,18.6052229 18.5877568,18.0742229 18.4707568,17.4982229 Z M29.1447568,18.0112229 L23.0427568,18.0112229 L23.0427568,21.4672229 L23.9967568,21.4672229 L23.9967568,21.0442229 L28.1907568,21.0442229 L28.1907568,21.4672229 L29.1447568,21.4672229 L29.1447568,18.0112229 Z M23.9967568,20.1622229 L23.9967568,18.8932229 L28.1907568,18.8932229 L28.1907568,20.1622229 L23.9967568,20.1622229 Z M23.7537568,15.2032229 L25.7067568,15.2032229 L25.7067568,16.3642229 L21.9537568,16.3642229 L21.9537568,17.2822229 L30.1797568,17.2822229 L30.1797568,16.3642229 L26.6517568,16.3642229 L26.6517568,15.2032229 L29.4867568,15.2032229 L29.4867568,14.3032229 L26.6517568,14.3032229 L26.6517568,13.1332229 L25.7067568,13.1332229 L25.7067568,14.3032229 L24.3027568,14.3032229 C24.4467568,13.9972229 24.5727568,13.6822229 24.6717568,13.3402229 L23.7357568,13.2322229 C23.4567568,14.1502229 22.9257568,14.9332229 22.1337568,15.5722229 L22.6917568,16.3102229 C23.0877568,15.9772229 23.4477568,15.6082229 23.7537568,15.2032229 Z M35.0667568,15.0952229 L35.0667568,15.8332229 L35.9577568,15.8332229 L35.9577568,16.4452229 L34.9497568,16.4452229 L34.9497568,17.2192229 L37.8657568,17.2192229 L37.8657568,16.4452229 L36.8487568,16.4452229 L36.8487568,15.8332229 L37.7487568,15.8332229 L37.7487568,15.0952229 L36.8487568,15.0952229 L36.8487568,14.4922229 L35.9577568,14.4922229 L35.9577568,15.0952229 L35.0667568,15.0952229 Z M35.1837568,17.6602229 L35.1837568,20.1172229 L37.6227568,20.1172229 L37.6227568,17.6602229 L35.1837568,17.6602229 Z M36.8307568,19.3612229 L35.9847568,19.3612229 L35.9847568,18.4162229 L36.8307568,18.4162229 L36.8307568,19.3612229 Z M38.9637568,13.4122229 L33.8697568,13.4122229 L33.8697568,18.5242229 C33.8517568,19.4602229 33.6447568,20.2252229 33.2487568,20.8372229 L33.9417568,21.4762229 C34.4637568,20.7022229 34.7337568,19.7032229 34.7517568,18.4612229 L34.7517568,14.2582229 L38.0727568,14.2582229 L38.0727568,20.1622229 C38.0727568,20.4592229 37.9557568,20.6122229 37.7217568,20.6122229 C37.4877568,20.6122229 37.2267568,20.5942229 36.9567568,20.5672229 L37.1727568,21.4222229 L37.9917568,21.4222229 C38.6397568,21.4222229 38.9637568,21.1072229 38.9637568,20.4862229 L38.9637568,13.4122229 Z M32.1687568,13.2052229 L31.5117568,13.8442229 C32.1057568,14.3122229 32.5737568,14.7442229 32.9067568,15.1582229 L33.5457568,14.5102229 C33.1677568,14.0782229 32.7087568,13.6372229 32.1687568,13.2052229 Z M30.8907568,15.7972229 L30.8907568,16.6972229 L32.0607568,16.6972229 L32.0607568,19.7392229 C32.0607568,19.9282229 31.9797568,20.0812229 31.8177568,20.2072229 L32.1777568,21.0442229 C32.6997568,20.6662229 33.1947568,20.2432229 33.6627568,19.7752229 L33.4287568,18.8482229 L32.9607568,19.3072229 L32.9607568,19.3072229 L32.9607568,15.7972229 L30.8907568,15.7972229 Z M41.3037568,16.4632229 L41.3037568,19.9102229 L46.8657568,19.9102229 L46.8657568,16.4632229 L41.3037568,16.4632229 Z M45.9477568,19.0822229 L42.2217568,19.0822229 L42.2217568,18.5962229 L45.9477568,18.5962229 L45.9477568,19.0822229 Z M42.2217568,17.8042229 L42.2217568,17.2912229 L45.9477568,17.2912229 L45.9477568,17.8042229 L42.2217568,17.8042229 Z M40.3497568,13.8532229 L40.3497568,14.7172229 L42.8247568,14.7172229 C42.1497568,15.2032229 41.1777568,15.6082229 39.8997568,15.9502229 L40.4127568,16.7782229 C41.8437568,16.2472229 42.9147568,15.5812229 43.6257568,14.7802229 L43.6257568,16.2022229 L44.5437568,16.2022229 L44.5437568,14.7802229 C45.2187568,15.5992229 46.3077568,16.2652229 47.8107568,16.7782229 L48.2157568,15.9322229 C46.9737568,15.6262229 46.0287568,15.2212229 45.3627568,14.7172229 L47.8197568,14.7172229 L47.8197568,13.8532229 L44.5437568,13.8532229 L44.5437568,13.1242229 L43.6257568,13.1242229 L43.6257568,13.8532229 L40.3497568,13.8532229 Z M40.1697568,20.3782229 L40.1697568,21.2332229 L47.9727568,21.2332229 L47.9727568,20.3782229 L40.1697568,20.3782229 Z M52.5807568,13.0972229 L52.5807568,14.6362229 L49.3947568,14.6362229 L49.3947568,19.0282229 L50.3397568,19.0282229 L50.3397568,18.5332229 L52.5807568,18.5332229 L52.5807568,21.5392229 L53.5527568,21.5392229 L53.5527568,18.5332229 L55.8027568,18.5332229 L55.8027568,19.0282229 L56.7477568,19.0282229 L56.7477568,14.6362229 L53.5527568,14.6362229 L53.5527568,13.0972229 L52.5807568,13.0972229 Z M50.3397568,17.6152229 L50.3397568,15.5542229 L52.5807568,15.5542229 L52.5807568,17.6152229 L50.3397568,17.6152229 Z M53.5527568,17.6152229 L53.5527568,15.5542229 L55.8027568,15.5542229 L55.8027568,17.6152229 L53.5527568,17.6152229 Z" id="征信报告调查中" fill="#FFFFFF" fill-rule="nonzero"></path>
                </g>
            </g>
        </g>
    </g>
</svg>