<?xml version="1.0" encoding="UTF-8"?>
<svg width="49px" height="49px" viewBox="0 0 49 49" version="1.1" xmlns="http://www.w3.org/2000/svg" xmlns:xlink="http://www.w3.org/1999/xlink">
    <!-- Generator: Sketch 59.1 (86144) - https://sketch.com -->
    <title>分组备份 59@2x</title>
    <desc>Created with Sketch.</desc>
    <g id="页面-1" stroke="none" stroke-width="1" fill="none" fill-rule="evenodd">
        <g id="状态角标" transform="translate(-4398.000000, -412.000000)">
            <g id="分组备份-59" transform="translate(4397.000000, 399.000000)">
                <g id="编组-3" transform="translate(31.353553, 31.646447) rotate(45.000000) translate(-31.353553, -31.646447) translate(-3.646447, 23.146447)">
                    <polygon id="矩形" fill="#FF9600" points="16.0683698 1.06157248 53.835396 0.965338282 69.375151 16.5050933 0.362011246 16.7679311"></polygon>
                    <path d="M15.7087864,6.366 L15.0247864,7.023 C15.8437864,7.644 16.5907864,8.256 17.2657864,8.859 C16.5817864,9.561 15.7717864,10.11 14.8537864,10.488 L15.4027864,11.334 C16.3747864,10.92 17.2387864,10.317 17.9947864,9.534 C18.6157864,10.119 19.1647864,10.695 19.6327864,11.271 L20.3617864,10.533 C19.8307864,9.957 19.2457864,9.381 18.6157864,8.796 C19.1107864,8.148 19.5427864,7.392 19.9207864,6.537 L19.0657864,6.087 C18.7327864,6.852 18.3367864,7.536 17.8867864,8.139 C17.2207864,7.554 16.4917864,6.96 15.7087864,6.366 Z M13.5037864,4.944 L13.5037864,12.585 L21.0367864,12.585 L21.0367864,11.685 L14.4127864,11.685 L14.4127864,5.844 L20.7577864,5.844 L20.7577864,4.944 L13.5037864,4.944 Z M24.4297864,5.736 L24.4297864,6.618 L27.5257864,6.618 L27.5552185,7.4725679 C27.5901815,8.29360494 27.6420334,9.01375309 27.7134408,9.63034568 L27.7507864,9.93 C27.7777864,10.182 27.8137864,10.416 27.8677864,10.65 C27.4177864,11.316 26.8687864,11.82 26.2387864,12.18 L26.8147864,12.936 C27.3097864,12.63 27.7597864,12.234 28.1647864,11.739 C28.2187864,11.883 28.2727864,12.027 28.3447864,12.171 C28.5967864,12.639 28.8757864,12.882 29.1817864,12.882 C29.6137864,12.882 30.0007864,12.333 30.3247864,11.244 L29.6227864,10.668 L29.5492625,11.0172754 C29.4166918,11.6050118 29.2960172,11.9037692 29.1817864,11.919 C29.0287864,11.874 28.8847864,11.523 28.7587864,10.875 C29.2717864,9.984 29.6767864,8.868 29.9827864,7.536 L29.1727864,7.185 C29.0197864,7.986 28.8127864,8.706 28.5517864,9.336 C28.4887864,8.58 28.4527864,7.68 28.4347864,6.618 L30.2167864,6.618 L30.2167864,5.736 L29.8477864,5.736 L29.7184114,5.2365 C29.6767864,5.079 29.6362864,4.9305 29.5957864,4.791 L28.7677864,4.926 C28.8757864,5.178 28.9747864,5.448 29.0647864,5.736 L28.4257864,5.736 C28.4167864,5.376 28.4167864,5.007 28.4167864,4.629 L27.4987864,4.629 C27.4987864,5.007 27.4987864,5.376 27.5077864,5.736 L24.4297864,5.736 Z M24.7627864,7.311 L24.7627864,9.984 L27.1747864,9.984 L27.1747864,7.311 L24.7627864,7.311 Z M26.3647864,9.219 L25.5637864,9.219 L25.5637864,8.076 L26.3647864,8.076 L26.3647864,9.219 Z M27.1747864,10.344 C26.1847864,10.713 25.1677864,10.974 24.1237864,11.136 L24.3577864,12.036 C25.3567864,11.802 26.2927864,11.523 27.1747864,11.19 L27.1747864,10.344 Z M22.0357864,6.906 L22.0357864,7.806 L22.8187864,7.806 L22.8187864,10.506 C22.5307864,10.596 22.2427864,10.668 21.9457864,10.731 L22.1797864,11.685 C22.9897864,11.424 23.7547864,11.109 24.4747864,10.74 L24.4747864,9.795 C24.2407864,9.921 23.9977864,10.038 23.7457864,10.155 L23.7457864,7.806 L24.4927864,7.806 L24.4927864,6.906 L23.7457864,6.906 L23.7457864,4.647 L22.8187864,4.647 L22.8187864,6.906 L22.0357864,6.906 Z M35.5807864,6.105 L35.5807864,6.789 C35.5537864,9.327 34.8427864,11.172 33.4477864,12.324 L34.1677864,12.963 C35.6977864,11.658 36.4717864,9.597 36.5077864,6.789 L36.5077864,6.105 L38.0017864,6.105 L37.9823433,8.09932514 C37.9648507,9.39777505 37.9403517,10.191 37.9027864,10.479 C37.8307864,11.451 37.5877864,11.946 37.1647864,11.946 C36.8497864,11.946 36.4717864,11.928 36.0307864,11.892 L36.2647864,12.747 L36.9105364,12.7875 C37.0882864,12.7965 37.2277864,12.801 37.3267864,12.801 C38.1597864,12.801 38.647592,12.2390556 38.7902031,11.1303302 L38.832686,10.7332268 C38.9100808,9.8947344 38.9557864,8.04432 38.9557864,5.196 L34.3387864,5.196 L34.3387864,6.105 L35.5807864,6.105 Z M32.1067864,9.606 L32.1067864,12.927 L33.0157864,12.927 L33.0157864,9.408 C33.3487864,9.732 33.6817864,10.119 34.0237864,10.569 L34.5187864,9.786 C34.3297864,9.588 34.1317864,9.39 33.9157864,9.21 C34.1947864,9.003 34.4557864,8.742 34.6897864,8.418 L34.1317864,7.86 C33.8797864,8.238 33.6187864,8.535 33.3487864,8.751 C33.2407864,8.67 33.1327864,8.589 33.0157864,8.517 C33.4477864,7.905 33.7717864,7.293 33.9787864,6.672 L33.9787864,5.907 L33.0967864,5.907 C32.9797864,5.511 32.8177864,5.07 32.6197864,4.584 L31.7107864,4.827 C31.8817864,5.178 32.0347864,5.538 32.1697864,5.907 L31.0987864,5.907 L31.0987864,6.762 L33.0607864,6.762 C32.6827864,7.662 31.9537864,8.598 30.8827864,9.552 L31.1707864,10.506 C31.5037864,10.209 31.8187864,9.912 32.1067864,9.606 Z M41.9167864,9.588 L43.6447864,9.588 L43.6447864,10.344 L41.9167864,10.344 L41.9167864,9.588 Z M43.6447864,11.199 L43.6447864,12.972 L44.5807864,12.972 L44.5807864,11.199 L46.3357864,11.199 L46.3357864,11.64 L47.2537864,11.64 L47.2537864,7.131 L44.5807864,7.131 L44.5807864,6.393 L43.6447864,6.393 L43.6447864,7.131 L40.9987864,7.131 L40.9987864,11.667 L41.9167864,11.667 L41.9167864,11.199 L43.6447864,11.199 Z M44.5807864,10.344 L44.5807864,9.588 L46.3357864,9.588 L46.3357864,10.344 L44.5807864,10.344 Z M46.3357864,8.769 L44.5807864,8.769 L44.5807864,7.995 L46.3357864,7.995 L46.3357864,8.769 Z M43.6447864,7.995 L43.6447864,8.769 L41.9167864,8.769 L41.9167864,7.995 L43.6447864,7.995 Z M47.9377864,5.196 L44.5177864,5.196 C44.4457864,4.944 44.3737864,4.719 44.3017864,4.521 L43.3027864,4.683 C43.3837864,4.845 43.4647864,5.016 43.5367864,5.196 L40.1977864,5.196 L40.1977864,6.987 L41.1157864,6.987 L41.1157864,6.051 L47.0197864,6.051 L47.0197864,6.942 L47.9377864,6.942 L47.9377864,5.196 Z M52.5997864,4.566 L52.5997864,6.105 L49.4137864,6.105 L49.4137864,10.497 L50.3587864,10.497 L50.3587864,10.002 L52.5997864,10.002 L52.5997864,13.008 L53.5717864,13.008 L53.5717864,10.002 L55.8217864,10.002 L55.8217864,10.497 L56.7667864,10.497 L56.7667864,6.105 L53.5717864,6.105 L53.5717864,4.566 L52.5997864,4.566 Z M50.3587864,9.084 L50.3587864,7.023 L52.5997864,7.023 L52.5997864,9.084 L50.3587864,9.084 Z M53.5717864,9.084 L53.5717864,7.023 L55.8217864,7.023 L55.8217864,9.084 L53.5717864,9.084 Z" id="区域初审中" fill="#FFFFFF" fill-rule="nonzero"></path>
                </g>
            </g>
        </g>
    </g>
</svg>