<?xml version="1.0" encoding="UTF-8"?>
<svg width="49px" height="49px" viewBox="0 0 49 49" version="1.1" xmlns="http://www.w3.org/2000/svg" xmlns:xlink="http://www.w3.org/1999/xlink">
    <!-- Generator: Sketch 59.1 (86144) - https://sketch.com -->
    <title>分组备份 61@2x</title>
    <desc>Created with Sketch.</desc>
    <g id="页面-1" stroke="none" stroke-width="1" fill="none" fill-rule="evenodd">
        <g id="状态角标" transform="translate(-4398.000000, -630.000000)">
            <g id="分组备份-61" transform="translate(4397.000000, 612.000000)">
                <g id="编组-3备份" transform="translate(33.828427, 34.171573) rotate(45.000000) translate(-33.828427, -34.171573) translate(-1.171573, 22.171573)">
                    <polygon id="矩形" fill="#FF9600" points="22.9791847 1.1507576 46.7340187 0.863961031 69.3614357 23.491378 0.362011246 23.7679311"></polygon>
                    <path d="M30.5667568,5.09522292 L30.5667568,5.83322292 L31.4577568,5.83322292 L31.4577568,6.44522292 L30.4497568,6.44522292 L30.4497568,7.21922292 L33.3657568,7.21922292 L33.3657568,6.44522292 L32.3487568,6.44522292 L32.3487568,5.83322292 L33.2487568,5.83322292 L33.2487568,5.09522292 L32.3487568,5.09522292 L32.3487568,4.49222292 L31.4577568,4.49222292 L31.4577568,5.09522292 L30.5667568,5.09522292 Z M30.6837568,7.66022292 L30.6837568,10.1172229 L33.1227568,10.1172229 L33.1227568,7.66022292 L30.6837568,7.66022292 Z M32.3307568,9.36122292 L31.4847568,9.36122292 L31.4847568,8.41622292 L32.3307568,8.41622292 L32.3307568,9.36122292 Z M34.4637568,3.41222292 L29.3697568,3.41222292 L29.3697568,8.52422292 C29.3517568,9.46022292 29.1447568,10.2252229 28.7487568,10.8372229 L29.4417568,11.4762229 C29.9637568,10.7022229 30.2337568,9.70322292 30.2517568,8.46122292 L30.2517568,4.25822292 L33.5727568,4.25822292 L33.5727568,10.1622229 C33.5727568,10.4592229 33.4557568,10.6122229 33.2217568,10.6122229 C32.9877568,10.6122229 32.7267568,10.5942229 32.4567568,10.5672229 L32.6727568,11.4222229 L33.4917568,11.4222229 C34.1397568,11.4222229 34.4637568,11.1072229 34.4637568,10.4862229 L34.4637568,3.41222292 Z M27.6687568,3.20522292 L27.0117568,3.84422292 C27.6057568,4.31222292 28.0737568,4.74422292 28.4067568,5.15822292 L29.0457568,4.51022292 C28.6677568,4.07822292 28.2087568,3.63722292 27.6687568,3.20522292 Z M26.3907568,5.79722292 L26.3907568,6.69722292 L27.5607568,6.69722292 L27.5607568,9.73922292 C27.5607568,9.92822292 27.4797568,10.0812229 27.3177568,10.2072229 L27.6777568,11.0442229 C28.1997568,10.6662229 28.6947568,10.2432229 29.1627568,9.77522292 L28.9287568,8.84822292 L28.4607568,9.30722292 L28.4607568,9.30722292 L28.4607568,5.79722292 L26.3907568,5.79722292 Z M36.8037568,6.46322292 L36.8037568,9.91022292 L42.3657568,9.91022292 L42.3657568,6.46322292 L36.8037568,6.46322292 Z M41.4477568,9.08222292 L37.7217568,9.08222292 L37.7217568,8.59622292 L41.4477568,8.59622292 L41.4477568,9.08222292 Z M37.7217568,7.80422292 L37.7217568,7.29122292 L41.4477568,7.29122292 L41.4477568,7.80422292 L37.7217568,7.80422292 Z M35.8497568,3.85322292 L35.8497568,4.71722292 L38.3247568,4.71722292 C37.6497568,5.20322292 36.6777568,5.60822292 35.3997568,5.95022292 L35.9127568,6.77822292 C37.3437568,6.24722292 38.4147568,5.58122292 39.1257568,4.78022292 L39.1257568,6.20222292 L40.0437568,6.20222292 L40.0437568,4.78022292 C40.7187568,5.59922292 41.8077568,6.26522292 43.3107568,6.77822292 L43.7157568,5.93222292 C42.4737568,5.62622292 41.5287568,5.22122292 40.8627568,4.71722292 L43.3197568,4.71722292 L43.3197568,3.85322292 L40.0437568,3.85322292 L40.0437568,3.12422292 L39.1257568,3.12422292 L39.1257568,3.85322292 L35.8497568,3.85322292 Z M35.6697568,10.3782229 L35.6697568,11.2332229 L43.4727568,11.2332229 L43.4727568,10.3782229 L35.6697568,10.3782229 Z M20.1897568,14.8972229 L19.5057568,15.5542229 C20.3247568,16.1752229 21.0717568,16.7872229 21.7467568,17.3902229 C21.0627568,18.0922229 20.2527568,18.6412229 19.3347568,19.0192229 L19.8837568,19.8652229 C20.8557568,19.4512229 21.7197568,18.8482229 22.4757568,18.0652229 C23.0967568,18.6502229 23.6457568,19.2262229 24.1137568,19.8022229 L24.8427568,19.0642229 C24.3117568,18.4882229 23.7267568,17.9122229 23.0967568,17.3272229 C23.5917568,16.6792229 24.0237568,15.9232229 24.4017568,15.0682229 L23.5467568,14.6182229 C23.2137568,15.3832229 22.8177568,16.0672229 22.3677568,16.6702229 C21.7017568,16.0852229 20.9727568,15.4912229 20.1897568,14.8972229 Z M17.9847568,13.4752229 L17.9847568,21.1162229 L25.5177568,21.1162229 L25.5177568,20.2162229 L18.8937568,20.2162229 L18.8937568,14.3752229 L25.2387568,14.3752229 L25.2387568,13.4752229 L17.9847568,13.4752229 Z M28.9107568,14.2672229 L28.9107568,15.1492229 L32.0067568,15.1492229 L32.0361889,16.0037908 C32.0711519,16.8248279 32.1230037,17.544976 32.1944111,18.1615686 L32.2317568,18.4612229 C32.2587568,18.7132229 32.2947568,18.9472229 32.3487568,19.1812229 C31.8987568,19.8472229 31.3497568,20.3512229 30.7197568,20.7112229 L31.2957568,21.4672229 C31.7907568,21.1612229 32.2407568,20.7652229 32.6457568,20.2702229 C32.6997568,20.4142229 32.7537568,20.5582229 32.8257568,20.7022229 C33.0777568,21.1702229 33.3567568,21.4132229 33.6627568,21.4132229 C34.0947568,21.4132229 34.4817568,20.8642229 34.8057568,19.7752229 L34.1037568,19.1992229 L34.0302329,19.5484983 C33.8976622,20.1362348 33.7769876,20.4349922 33.6627568,20.4502229 C33.5097568,20.4052229 33.3657568,20.0542229 33.2397568,19.4062229 C33.7527568,18.5152229 34.1577568,17.3992229 34.4637568,16.0672229 L33.6537568,15.7162229 C33.5007568,16.5172229 33.2937568,17.2372229 33.0327568,17.8672229 C32.9697568,17.1112229 32.9337568,16.2112229 32.9157568,15.1492229 L34.6977568,15.1492229 L34.6977568,14.2672229 L34.3287568,14.2672229 L34.1993818,13.7677229 C34.1577568,13.6102229 34.1172568,13.4617229 34.0767568,13.3222229 L33.2487568,13.4572229 C33.3567568,13.7092229 33.4557568,13.9792229 33.5457568,14.2672229 L32.9067568,14.2672229 C32.8977568,13.9072229 32.8977568,13.5382229 32.8977568,13.1602229 L31.9797568,13.1602229 C31.9797568,13.5382229 31.9797568,13.9072229 31.9887568,14.2672229 L28.9107568,14.2672229 Z M29.2437568,15.8422229 L29.2437568,18.5152229 L31.6557568,18.5152229 L31.6557568,15.8422229 L29.2437568,15.8422229 Z M30.8457568,17.7502229 L30.0447568,17.7502229 L30.0447568,16.6072229 L30.8457568,16.6072229 L30.8457568,17.7502229 Z M31.6557568,18.8752229 C30.6657568,19.2442229 29.6487568,19.5052229 28.6047568,19.6672229 L28.8387568,20.5672229 C29.8377568,20.3332229 30.7737568,20.0542229 31.6557568,19.7212229 L31.6557568,18.8752229 Z M26.5167568,15.4372229 L26.5167568,16.3372229 L27.2997568,16.3372229 L27.2997568,19.0372229 C27.0117568,19.1272229 26.7237568,19.1992229 26.4267568,19.2622229 L26.6607568,20.2162229 C27.4707568,19.9552229 28.2357568,19.6402229 28.9557568,19.2712229 L28.9557568,18.3262229 C28.7217568,18.4522229 28.4787568,18.5692229 28.2267568,18.6862229 L28.2267568,16.3372229 L28.9737568,16.3372229 L28.9737568,15.4372229 L28.2267568,15.4372229 L28.2267568,13.1782229 L27.2997568,13.1782229 L27.2997568,15.4372229 L26.5167568,15.4372229 Z M37.3977568,18.1192229 L39.1257568,18.1192229 L39.1257568,18.8752229 L37.3977568,18.8752229 L37.3977568,18.1192229 Z M39.1257568,19.7302229 L39.1257568,21.5032229 L40.0617568,21.5032229 L40.0617568,19.7302229 L41.8167568,19.7302229 L41.8167568,20.1712229 L42.7347568,20.1712229 L42.7347568,15.6622229 L40.0617568,15.6622229 L40.0617568,14.9242229 L39.1257568,14.9242229 L39.1257568,15.6622229 L36.4797568,15.6622229 L36.4797568,20.1982229 L37.3977568,20.1982229 L37.3977568,19.7302229 L39.1257568,19.7302229 Z M40.0617568,18.8752229 L40.0617568,18.1192229 L41.8167568,18.1192229 L41.8167568,18.8752229 L40.0617568,18.8752229 Z M41.8167568,17.3002229 L40.0617568,17.3002229 L40.0617568,16.5262229 L41.8167568,16.5262229 L41.8167568,17.3002229 Z M39.1257568,16.5262229 L39.1257568,17.3002229 L37.3977568,17.3002229 L37.3977568,16.5262229 L39.1257568,16.5262229 Z M43.4187568,13.7272229 L39.9987568,13.7272229 C39.9267568,13.4752229 39.8547568,13.2502229 39.7827568,13.0522229 L38.7837568,13.2142229 C38.8647568,13.3762229 38.9457568,13.5472229 39.0177568,13.7272229 L35.6787568,13.7272229 L35.6787568,15.5182229 L36.5967568,15.5182229 L36.5967568,14.5822229 L42.5007568,14.5822229 L42.5007568,15.4732229 L43.4187568,15.4732229 L43.4187568,13.7272229 Z M46.5597568,21.4672229 L46.5597568,17.2282229 L46.8114688,17.6553269 C46.9449568,17.8877429 47.0907568,18.1480229 47.2527568,18.4342229 L47.7837568,17.6242229 C47.3697568,17.0842229 46.9557568,16.5892229 46.5597568,16.1572229 L46.5597568,15.6982229 L47.5227568,15.6982229 L47.5227568,14.8072229 L46.5597568,14.8072229 L46.5597568,13.1512229 L45.6507568,13.1512229 L45.6507568,14.8072229 L44.5077568,14.8072229 L44.5077568,15.6982229 L45.6147568,15.6982229 C45.3447568,16.7422229 44.9217568,17.6782229 44.3457568,18.4882229 L44.7417568,19.4602229 C45.1017568,18.8482229 45.3987568,18.1912229 45.6507568,17.4802229 L45.6507568,21.4672229 L46.5597568,21.4672229 Z M47.6667568,14.0332229 L47.6667568,14.8882229 L49.1877568,14.8882229 L48.9515485,15.2766396 C48.607486,15.8207646 48.3098297,16.1910771 48.0623766,16.3799833 L47.9817568,16.4362229 C47.9457568,16.4632229 47.8917568,16.4902229 47.8107568,16.5172229 L47.9997568,17.2732229 L49.7457568,17.1922229 C49.0707568,17.8762229 48.2517568,18.3802229 47.2887568,18.7132229 L47.8017568,19.4872229 C49.5387568,18.8392229 50.8527568,17.6242229 51.7527568,15.8332229 L50.9967568,15.4282229 C50.8167568,15.7702229 50.6277568,16.0942229 50.4117568,16.4002229 C49.9617568,16.4362229 49.5027568,16.4722229 49.0437568,16.4992229 C49.3677568,16.1392229 49.7367568,15.6082229 50.1507568,14.8882229 L52.6167568,14.8882229 L52.6167568,14.0332229 L50.6727568,14.0332229 C50.5647568,13.7002229 50.4567568,13.3942229 50.3397568,13.1242229 L49.3767568,13.2862229 C49.5117568,13.5112229 49.6377568,13.7632229 49.7547568,14.0332229 L47.6667568,14.0332229 Z M50.5917568,19.7752229 C49.7547568,20.5132229 48.7827568,21.0802229 47.6847568,21.4672229 L47.1627568,20.6662229 C49.2417568,19.9912229 50.7987568,18.6862229 51.8247568,16.7602229 L52.6077568,17.1652229 C52.1937568,17.9392229 51.7167568,18.6232229 51.1767568,19.2082229 C51.7707568,19.7302229 52.2927568,20.2612229 52.7247568,20.7832229 L52.0407568,21.4672229 C51.6807568,20.9272229 51.2037568,20.3692229 50.5917568,19.7752229 Z" id="调查区域审核" fill="#FFFFFF" fill-rule="nonzero"></path>
                </g>
            </g>
        </g>
    </g>
</svg>