<?xml version="1.0" encoding="UTF-8"?>
<svg width="49px" height="49px" viewBox="0 0 49 49" version="1.1" xmlns="http://www.w3.org/2000/svg" xmlns:xlink="http://www.w3.org/1999/xlink">
    <!-- Generator: Sketch 59.1 (86144) - https://sketch.com -->
    <title>分组备份 64@2x</title>
    <desc>Created with Sketch.</desc>
    <g id="页面-1" stroke="none" stroke-width="1" fill="none" fill-rule="evenodd">
        <g id="状态角标" transform="translate(-4398.000000, -957.000000)">
            <g id="分组备份-64" transform="translate(4397.000000, 944.000000)">
                <g id="编组-3" transform="translate(31.353553, 31.646447) rotate(45.000000) translate(-31.353553, -31.646447) translate(-3.646447, 23.146447)">
                    <polygon id="矩形" fill="#4D94FF" points="16.0683698 1.06157248 53.835396 0.965338282 69.375151 16.5050933 0.362011246 16.7679311"></polygon>
                    <path d="M24.941,4.647 L24.941,5.889 L22.052,5.889 L22.052,11.163 L22.979,11.163 L22.979,10.641 L24.941,10.641 L24.941,12.891 L25.895,12.891 L25.895,10.641 L27.821,10.641 L27.821,11.1 L28.748,11.1 L28.748,5.889 L25.895,5.889 L25.895,4.647 L24.941,4.647 Z M22.979,9.759 L22.979,8.67 L24.941,8.67 L24.941,9.759 L22.979,9.759 Z M25.895,9.759 L25.895,8.67 L27.821,8.67 L27.821,9.759 L25.895,9.759 Z M22.979,7.833 L22.979,6.762 L24.941,6.762 L24.941,7.833 L22.979,7.833 Z M25.895,7.833 L25.895,6.762 L27.821,6.762 L27.821,7.833 L25.895,7.833 Z M36.682,4.611 L36.682,5.106 L34.612,5.106 L34.612,5.862 L36.682,5.862 L36.682,6.24 L34.99,6.24 L34.99,6.978 L36.682,6.978 L36.682,7.365 L34.36,7.365 L34.36,8.139 L39.94,8.139 L39.94,7.365 L37.591,7.365 L37.591,6.978 L39.409,6.978 L39.409,6.24 L37.591,6.24 L37.591,5.862 L39.724,5.862 L39.724,5.106 L37.591,5.106 L37.591,4.611 L36.682,4.611 Z M35.863,10.407 L38.437,10.407 L38.437,10.848 L35.863,10.848 L35.863,10.407 Z M38.437,9.705 L35.863,9.705 L35.863,9.255 L38.437,9.255 L38.437,9.705 Z M35.863,11.559 L38.437,11.559 L38.437,11.811 C38.437,12 38.356,12.099 38.194,12.099 L37.483,12.063 L37.708,12.882 L38.455,12.882 C39.04,12.882 39.337,12.585 39.337,12.009 L39.337,8.499 L34.981,8.499 L34.981,12.936 L35.863,12.936 L35.863,11.559 Z M32.902,4.674 L32.236,5.313 C32.875,5.781 33.37,6.213 33.712,6.627 L34.36,5.979 C33.955,5.547 33.469,5.106 32.902,4.674 Z M31.624,7.266 L31.624,8.166 L32.821,8.166 L32.821,11.343 C32.821,11.541 32.74,11.712 32.587,11.847 L32.938,12.693 C33.532,12.27 34.099,11.793 34.639,11.262 L34.387,10.272 L33.9463333,10.7253333 C33.874,10.798 33.802,10.869 33.73,10.938 L33.73,7.266 L31.624,7.266 Z M45.714,4.566 L45.714,6.105 L42.528,6.105 L42.528,10.497 L43.473,10.497 L43.473,10.002 L45.714,10.002 L45.714,13.008 L46.686,13.008 L46.686,10.002 L48.936,10.002 L48.936,10.497 L49.881,10.497 L49.881,6.105 L46.686,6.105 L46.686,4.566 L45.714,4.566 Z M43.473,9.084 L43.473,7.023 L45.714,7.023 L45.714,9.084 L43.473,9.084 Z M46.686,9.084 L46.686,7.023 L48.936,7.023 L48.936,9.084 L46.686,9.084 Z" id="申请中" fill="#FFFFFF" fill-rule="nonzero"></path>
                </g>
            </g>
        </g>
    </g>
</svg>