<?xml version="1.0" encoding="UTF-8"?>
<svg width="49px" height="49px" viewBox="0 0 49 49" version="1.1" xmlns="http://www.w3.org/2000/svg" xmlns:xlink="http://www.w3.org/1999/xlink">
    <!-- Generator: Sketch 59.1 (86144) - https://sketch.com -->
    <title>分组备份 66@2x</title>
    <desc>Created with Sketch.</desc>
    <g id="页面-1" stroke="none" stroke-width="1" fill="none" fill-rule="evenodd">
        <g id="状态角标" transform="translate(-4398.000000, -1175.000000)">
            <g id="分组备份-66" transform="translate(4397.000000, 1162.000000)">
                <g id="编组-3" transform="translate(31.353553, 31.646447) rotate(45.000000) translate(-31.353553, -31.646447) translate(-3.646447, 23.146447)">
                    <polygon id="矩形" fill="#FF9600" points="16.0683698 1.06157248 53.835396 0.965338282 69.375151 16.5050933 0.362011246 16.7679311"></polygon>
                    <path d="M16.7437864,4.584 C15.6997864,5.772 14.3947864,6.771 12.8197864,7.572 L13.3237864,8.49 C13.8097864,8.22 14.2687864,7.932 14.7007864,7.635 L14.7007864,8.265 L19.4707864,8.265 L19.4707864,7.644 C19.8847864,7.941 20.3347864,8.22 20.8117864,8.472 L21.3247864,7.563 C19.8487864,6.843 18.5527864,5.844 17.4277864,4.584 L16.7437864,4.584 Z M15.0877864,7.356 C15.8527864,6.78 16.5187864,6.141 17.0857864,5.439 C17.6707864,6.15 18.3367864,6.789 19.0747864,7.356 L15.0877864,7.356 Z M20.0557864,9.147 L14.1157864,9.147 L14.1157864,12.927 L15.0247864,12.927 L15.0247864,12.468 L19.1467864,12.468 L19.1467864,12.927 L20.0557864,12.927 L20.0557864,9.147 Z M15.0247864,11.577 L15.0247864,10.029 L19.1467864,10.029 L19.1467864,11.577 L15.0247864,11.577 Z M28.8937864,12.909 C29.5057864,12.909 29.8117864,12.549 29.8117864,11.847 L29.8117864,4.881 L22.3597864,4.881 L22.3597864,12.936 L23.3047864,12.936 L23.3047864,5.799 L28.8667864,5.799 L28.8667864,11.631 C28.8667864,11.883 28.7677864,12.009 28.5877864,12.009 L27.4627864,11.964 L27.7237864,12.909 L28.8937864,12.909 Z M23.7997864,6.573 L23.7997864,7.446 L28.3717864,7.446 L28.3717864,6.573 L23.7997864,6.573 Z M24.2497864,8.193 L24.2497864,11.262 L27.9307864,11.262 L27.9307864,8.193 L24.2497864,8.193 Z M27.0217864,10.425 L25.1587864,10.425 L25.1587864,9.03 L27.0217864,9.03 L27.0217864,10.425 Z M37.0297864,9.786 C36.7867864,10.578 36.5077864,11.253 36.2017864,11.82 L31.2607864,11.82 L31.2607864,12.693 L38.9287864,12.693 L38.9287864,11.82 L37.2097864,11.82 C37.4977864,11.289 37.7497864,10.695 37.9567864,10.047 L37.0297864,9.786 Z M33.0247864,9.858 L32.1697864,10.137 C32.4487864,10.641 32.6737864,11.163 32.8537864,11.703 L33.6997864,11.496 C33.5017864,10.884 33.2767864,10.335 33.0247864,9.858 Z M35.1037864,9.678 L34.2397864,9.957 C34.4737864,10.488 34.6627864,11.037 34.8157864,11.613 L35.6527864,11.406 C35.4907864,10.758 35.3107864,10.182 35.1037864,9.678 Z M32.7187864,8.931 L32.7187864,9.579 L37.4617864,9.579 L37.4617864,8.949 C37.8667864,9.129 38.2987864,9.3 38.7667864,9.462 L39.2257864,8.652 C37.7677864,8.202 36.4897864,7.581 35.3737864,6.798 L34.7977864,6.798 C33.7717864,7.527 32.4937864,8.139 30.9457864,8.634 L31.4047864,9.453 C31.8727864,9.291 32.3047864,9.111 32.7187864,8.931 Z M37.0747864,8.769 L33.0787864,8.769 C33.8527864,8.4 34.5187864,7.995 35.0857864,7.554 C35.6707864,8.004 36.3367864,8.409 37.0747864,8.769 Z M32.5387864,6.123 L33.0967864,6.123 C33.2317864,6.447 33.3487864,6.789 33.4567864,7.14 L34.3027864,6.825 C34.2307864,6.609 34.1317864,6.375 34.0237864,6.123 L35.0767864,6.123 L35.0767864,5.295 L32.8897864,5.295 C32.9437864,5.133 33.0067864,4.962 33.0607864,4.782 L32.1517864,4.584 C31.9267864,5.358 31.5397864,6.096 30.9817864,6.789 L31.8007864,7.302 C32.0707864,6.942 32.3227864,6.555 32.5387864,6.123 Z M36.3097864,6.123 L36.9757864,6.123 C37.1557864,6.483 37.3267864,6.852 37.4707864,7.23 L38.3257864,6.897 C38.2177864,6.654 38.0917864,6.393 37.9387864,6.123 L39.1357864,6.123 L39.1357864,5.295 L36.6607864,5.295 C36.7147864,5.133 36.7687864,4.962 36.8227864,4.782 L35.9317864,4.584 C35.7517864,5.232 35.4547864,5.844 35.0407864,6.411 L35.8327864,6.924 C36.0037864,6.672 36.1657864,6.411 36.3097864,6.123 Z M42.9967864,5.034 L42.9967864,5.943 L45.5527864,5.943 L45.5527864,11.703 C45.5527864,11.919 45.4447864,12.036 45.2287864,12.036 C44.8777864,12.036 44.5177864,12.009 44.1397864,11.973 L44.3467864,12.891 L45.5527864,12.891 C46.1827864,12.891 46.5067864,12.567 46.5067864,11.937 L46.5067864,5.943 L48.2977864,5.943 L48.2977864,5.034 L42.9967864,5.034 Z M41.1877864,4.665 L40.5217864,5.313 C41.1607864,5.781 41.6557864,6.222 41.9977864,6.636 L42.6457864,5.979 C42.2407864,5.547 41.7547864,5.106 41.1877864,4.665 Z M39.9367864,7.266 L39.9367864,8.166 L41.1697864,8.166 L41.1697864,11.361 C41.1697864,11.55 41.0887864,11.712 40.9267864,11.847 L41.2867864,12.693 C41.9797864,12.27 42.6367864,11.793 43.2487864,11.253 L42.9967864,10.272 C42.6727864,10.569 42.3667864,10.83 42.0787864,11.064 L42.0787864,7.266 L39.9367864,7.266 Z M52.5997864,4.566 L52.5997864,6.105 L49.4137864,6.105 L49.4137864,10.497 L50.3587864,10.497 L50.3587864,10.002 L52.5997864,10.002 L52.5997864,13.008 L53.5717864,13.008 L53.5717864,10.002 L55.8217864,10.002 L55.8217864,10.497 L56.7667864,10.497 L56.7667864,6.105 L53.5717864,6.105 L53.5717864,4.566 L52.5997864,4.566 Z M50.3587864,9.084 L50.3587864,7.023 L52.5997864,7.023 L52.5997864,9.084 L50.3587864,9.084 Z M53.5717864,9.084 L53.5717864,7.023 L55.8217864,7.023 L55.8217864,9.084 L53.5717864,9.084 Z" id="合同签订中" fill="#FFFFFF" fill-rule="nonzero"></path>
                </g>
            </g>
        </g>
    </g>
</svg>