<?xml version="1.0" encoding="UTF-8"?>
<svg width="49px" height="49px" viewBox="0 0 49 49" version="1.1" xmlns="http://www.w3.org/2000/svg" xmlns:xlink="http://www.w3.org/1999/xlink">
    <!-- Generator: Sketch 59.1 (86144) - https://sketch.com -->
    <title>分组备份 63@2x</title>
    <desc>Created with Sketch.</desc>
    <g id="页面-1" stroke="none" stroke-width="1" fill="none" fill-rule="evenodd">
        <g id="状态角标" transform="translate(-4398.000000, -848.000000)">
            <g id="分组备份-63" transform="translate(4397.000000, 830.000000)">
                <g id="编组-3备份" transform="translate(33.828427, 34.171573) rotate(45.000000) translate(-33.828427, -34.171573) translate(-1.171573, 22.171573)">
                    <polygon id="矩形" fill="#FF9600" points="22.9791847 1.1507576 46.7340187 0.863961031 69.3614357 23.491378 0.362011246 23.7679311"></polygon>
                    <path d="M24.5547568,6.72422292 C24.8337568,7.71422292 25.4007568,8.61422292 26.2467568,9.42422292 C25.5087568,9.93722292 24.6087568,10.3692229 23.5377568,10.7292229 L24.0507568,11.5302229 C25.2117568,11.1342229 26.1927568,10.6302229 26.9847568,10.0362229 C27.7137568,10.5852229 28.6227568,11.0802229 29.7027568,11.5302229 L30.2247568,10.6932229 C29.2347568,10.3332229 28.3797568,9.91022292 27.6777568,9.44222292 C28.4877568,8.66822292 29.0367568,7.74122292 29.3247568,6.67022292 L29.3247568,5.84222292 L23.9877568,5.84222292 L23.9877568,4.59122292 C26.0667568,4.53722292 27.9477568,4.33022292 29.6217568,3.98822292 L29.1807568,3.18722292 C27.3897568,3.54722292 25.3467568,3.73622292 23.0517568,3.77222292 L23.0517568,6.49922292 C22.9977568,8.31722292 22.6197568,9.73922292 21.9177568,10.7652229 L22.5927568,11.4762229 C23.4207568,10.2882229 23.8887568,8.70422292 23.9787568,6.72422292 L24.5547568,6.72422292 Z M26.9307568,8.87522292 C26.2017568,8.24522292 25.7067568,7.52522292 25.4547568,6.72422292 L28.3887568,6.72422292 C28.1007568,7.52522292 27.6147568,8.24522292 26.9307568,8.87522292 Z M34.4727568,3.59222292 L34.4727568,5.52722292 L36.1287568,5.52722292 L36.1287568,5.88722292 L34.0497568,5.88722292 L34.0497568,6.67922292 L39.1077568,6.67922292 L39.1077568,5.88722292 L37.0287568,5.88722292 L37.0287568,5.52722292 L38.7027568,5.52722292 L38.7027568,3.59222292 L37.0287568,3.59222292 L37.0287568,3.13322292 L36.1287568,3.13322292 L36.1287568,3.59222292 L34.4727568,3.59222292 Z M37.8837568,4.80722292 L37.0287568,4.80722292 L37.0287568,4.31222292 L37.8837568,4.31222292 L37.8837568,4.80722292 Z M36.1287568,4.80722292 L35.2917568,4.80722292 L35.2917568,4.31222292 L36.1287568,4.31222292 L36.1287568,4.80722292 Z M38.6217568,7.03922292 L34.4637568,7.03922292 L34.4637568,9.86522292 L35.3367568,9.86522292 L35.3367568,7.81322292 L37.7487568,7.81322292 L37.7487568,9.86522292 L38.6217568,9.86522292 L38.6217568,7.03922292 Z M37.2807568,9.78422292 L36.8127568,10.4682229 C37.4607568,10.7202229 38.0907568,11.0622229 38.6937568,11.5122229 L39.2067568,10.7292229 C38.6307568,10.3512229 37.9827568,10.0362229 37.2807568,9.78422292 Z M36.0567568,8.04722292 L36.0567568,8.92922292 C36.0207568,9.38822292 35.8587568,9.76622292 35.5617568,10.0542229 C35.2557568,10.3242229 34.6617568,10.5402229 33.7977568,10.7202229 L34.3017568,11.5122229 C35.2107568,11.3052229 35.8677568,11.0082229 36.2727568,10.6122229 C36.6867568,10.1892229 36.9207568,9.63122292 36.9567568,8.92922292 L36.9567568,8.04722292 L36.0567568,8.04722292 Z M32.3307568,5.43722292 L33.1677568,5.43722292 C33.0417568,5.69822292 32.9067568,5.92322292 32.7627568,6.12122292 L33.4377568,6.66122292 C33.6897568,6.30122292 33.9327568,5.84222292 34.1577568,5.30222292 L34.1577568,4.57322292 L32.5917568,4.57322292 C32.6817568,4.19522292 32.7627568,3.78122292 32.8347568,3.34922292 L31.9167568,3.19622292 C31.7277568,4.58222292 31.3587568,5.68022292 30.8187568,6.50822292 L31.4037568,7.22822292 C31.7727568,6.74222292 32.0787568,6.13922292 32.3307568,5.43722292 Z M32.0697568,6.48122292 L32.0697568,10.0632229 C32.0697568,10.2792229 31.9887568,10.4322229 31.8267568,10.5402229 L32.1957568,11.3232229 C32.9337568,11.0352229 33.5727568,10.6752229 34.1307568,10.2432229 L33.9597568,9.37922292 C33.6357568,9.68522292 33.3027568,9.93722292 32.9697568,10.1352229 L32.9697568,6.48122292 L32.0697568,6.48122292 Z M40.8177568,3.21422292 L40.1787568,3.81722292 C40.8267568,4.33922292 41.3307568,4.83422292 41.6817568,5.28422292 L42.3387568,4.63622292 C41.9247568,4.16822292 41.4117568,3.69122292 40.8177568,3.21422292 Z M45.9477568,11.3232229 L48.0087568,11.3232229 L48.2337568,10.3962229 L47.7882568,10.4232229 C47.6127568,10.4322229 47.4102568,10.4412229 47.1807568,10.4502229 L45.8127568,10.4592229 L45.8127568,10.4592229 L44.8317568,10.4535979 C44.5280068,10.4502229 44.2467568,10.4457229 43.9857568,10.4412229 C43.4547568,10.4232229 43.0587568,10.3512229 42.7977568,10.2162229 C42.5817568,10.0992229 42.3747568,9.91922292 42.1677568,9.68522292 L42.0687568,9.58622292 L42.0687568,6.16622292 L40.0077568,6.16622292 L40.0077568,7.03022292 L41.1957568,7.03022292 L41.1957568,9.49622292 C40.8357568,9.69422292 40.4397568,10.1532229 39.9897568,10.8732229 L40.6827568,11.5122229 C41.1327568,10.7022229 41.4387568,10.3062229 41.6187568,10.3062229 C41.7177568,10.3062229 41.8257568,10.3782229 41.9517568,10.5312229 C42.2217568,10.8372229 42.5367568,11.0442229 42.8967568,11.1522229 C43.2747568,11.2422229 43.7517568,11.2962229 44.3367568,11.3052229 L45.56821,11.321676 C45.6974443,11.3226604 45.8240068,11.3232229 45.9477568,11.3232229 Z M44.3547568,4.16822292 L43.8777568,4.63622292 C44.2197568,4.82522292 44.5257568,5.01422292 44.8047568,5.19422292 L42.8067568,5.19422292 L42.8067568,10.0812229 L43.6887568,10.0812229 L43.6887568,8.61422292 L44.8587568,8.61422292 L44.8587568,10.0722229 L45.7227568,10.0722229 L45.7227568,8.61422292 L46.9287568,8.61422292 L46.9287568,8.99222292 C46.9287568,9.18122292 46.8297568,9.28022292 46.6317568,9.28022292 L46.0107568,9.25322292 L46.2177568,10.0272229 L46.8927568,10.0272229 C47.5047568,10.0272229 47.8107568,9.73922292 47.8107568,9.18122292 L47.8107568,5.19422292 L45.9927568,5.19422292 L45.9747568,5.17622292 C46.5687568,4.86122292 47.1177568,4.48322292 47.6307568,4.05122292 L47.6307568,3.39422292 L42.6537568,3.39422292 L42.6537568,4.16822292 L44.3547568,4.16822292 Z M45.4077568,4.74422292 C45.1557568,4.55522292 44.8677568,4.36622292 44.5617568,4.16822292 L46.3617568,4.16822292 C46.0647568,4.37522292 45.7497568,4.56422292 45.4077568,4.74422292 Z M43.6887568,7.29122292 L44.8587568,7.29122292 L44.8587568,7.85822292 L43.6887568,7.85822292 L43.6887568,7.29122292 Z M45.7227568,7.29122292 L46.9287568,7.29122292 L46.9287568,7.85822292 L45.7227568,7.85822292 L45.7227568,7.29122292 Z M46.9287568,6.53522292 L45.7227568,6.53522292 L45.7227568,5.96822292 L46.9287568,5.96822292 L46.9287568,6.53522292 Z M44.8587568,6.53522292 L43.6887568,6.53522292 L43.6887568,5.96822292 L44.8587568,5.96822292 L44.8587568,6.53522292 Z M20.9277568,13.9972229 L17.6067568,13.9972229 L17.6067568,21.0712229 L18.5157568,21.0712229 L18.5157568,20.5762229 L20.0097568,20.5762229 L20.0097568,21.0712229 L20.9277568,21.0712229 L20.9277568,13.9972229 Z M18.5157568,19.7032229 L18.5157568,14.8702229 L20.0097568,14.8702229 L20.0097568,19.7032229 L18.5157568,19.7032229 Z M14.4477568,15.1402229 L15.0507568,15.1402229 C15.0327568,15.6622229 15.0057568,16.1572229 14.9607568,16.6072229 L13.0887568,16.6072229 L13.0887568,17.4982229 L14.8167568,17.4982229 L14.7087568,17.9752229 C14.4207568,18.9652229 13.8177568,19.8022229 12.8907568,20.4952229 L13.5027568,21.2512229 C14.4117568,20.6032229 15.0507568,19.8202229 15.4287568,18.9112229 C15.7887568,19.3432229 16.2297568,19.9462229 16.7607568,20.7292229 L17.3367568,19.8562229 C16.7787568,19.1902229 16.2297568,18.5782229 15.6897568,18.0382229 L15.7977568,17.4982229 L17.2917568,17.4982229 L17.2917568,16.6072229 L15.9237568,16.6072229 C15.9687568,16.1482229 15.9957568,15.6622229 16.0047568,15.1402229 L17.2017568,15.1402229 L17.2017568,14.2492229 L14.8167568,14.2492229 C14.9157568,13.9612229 15.0057568,13.6552229 15.0957568,13.3402229 L14.1687568,13.1332229 C13.9347568,14.0782229 13.5207568,14.9692229 12.9447568,15.8152229 L13.7727568,16.3372229 C14.0247568,15.9682229 14.2497568,15.5722229 14.4477568,15.1402229 Z M25.1037568,13.0972229 L25.1037568,14.5822229 L22.5567568,14.5822229 L22.5567568,15.4822229 L25.1037568,15.4822229 L25.1037568,16.9942229 L22.0347568,16.9942229 L22.0347568,17.9032229 L25.1037568,17.9032229 L25.1037568,21.4852229 L26.0487568,21.4852229 L26.0487568,17.9032229 L28.8477568,17.9032229 L28.8368929,18.3064328 C28.8122894,18.9928087 28.7619107,19.3882229 28.6857568,19.4872229 C28.5867568,19.6042229 28.4337568,19.6672229 28.2357568,19.6852229 L27.2457568,19.6762229 L27.2457568,19.6762229 L27.4977568,20.5582229 L28.0737568,20.5582229 C28.2987568,20.5492229 28.5237568,20.5222229 28.7487568,20.4772229 C29.0007568,20.4232229 29.1897568,20.3242229 29.3067568,20.1982229 C29.6127568,19.8922229 29.7657568,18.8212229 29.7747568,16.9942229 L28.5237568,16.9942229 L28.6947568,15.0322229 L28.6947568,14.5822229 L26.0487568,14.5822229 L26.0487568,13.0972229 L25.1037568,13.0972229 Z M26.0487568,16.9942229 L26.0487568,15.4822229 L27.7497568,15.4822229 L27.6147568,16.9942229 L26.0487568,16.9942229 Z M28.2717568,13.1152229 L27.7947568,13.8262229 C28.3887568,14.1052229 28.9827568,14.4922229 29.5587568,14.9782229 L30.0627568,14.1952229 C29.5227568,13.7812229 28.9197568,13.4212229 28.2717568,13.1152229 Z M32.0787568,13.4032229 L32.0787568,14.2492229 L36.4887568,14.2492229 L36.4887568,14.8792229 L32.3847568,14.8792229 L32.3847568,15.6892229 L36.4887568,15.6892229 L36.4887568,16.3102229 L31.1787568,16.3102229 L31.1787568,17.1652229 L34.5447568,17.1652229 L34.5447568,18.1552229 C33.5547568,19.0012229 32.3937568,19.7212229 31.0437568,20.3332229 L31.4217568,21.2062229 C32.6187568,20.5852229 33.6627568,19.8922229 34.5447568,19.1182229 L34.5447568,20.2972229 C34.5447568,20.5312229 34.4727568,20.6572229 34.3377568,20.6572229 C34.0317568,20.6572229 33.7167568,20.6302229 33.3927568,20.5942229 L33.5997568,21.4762229 L34.6527568,21.4762229 C35.2017568,21.4762229 35.4807568,21.1522229 35.4807568,20.5222229 L35.4807568,19.0822229 C36.2547568,19.9192229 37.2717568,20.6302229 38.5317568,21.2242229 L39.0087568,20.3962229 C38.1267568,20.0182229 37.3527568,19.5952229 36.6867568,19.1092229 C37.2807568,18.7852229 37.8117568,18.3262229 38.2797568,17.7502229 L37.5687568,17.1652229 L38.9637568,17.1652229 L38.9637568,16.3102229 L37.4427568,16.3102229 L37.4427568,13.4032229 L32.0787568,13.4032229 Z M32.3037568,17.3002229 L31.6827568,17.8942229 C32.2587568,18.2902229 32.6997568,18.6502229 33.0147568,18.9922229 L33.6267568,18.3802229 C33.2667568,18.0202229 32.8257568,17.6602229 32.3037568,17.3002229 Z M37.5507568,17.1652229 C37.1277568,17.7772229 36.6237568,18.2542229 36.0477568,18.5962229 C35.8407568,18.4162229 35.6517568,18.2362229 35.4807568,18.0472229 L35.4807568,17.1652229 L37.5507568,17.1652229 Z M43.5357568,15.3202229 C42.9417568,17.5882229 41.7087568,19.3252229 39.8457568,20.5492229 L40.4217568,21.3592229 C42.2217568,20.1892229 43.4187568,18.5332229 44.0307568,16.4002229 L44.0577568,16.4812229 C45.0207568,18.8932229 46.1997568,20.5222229 47.5947568,21.3502229 L48.1797568,20.6032229 C46.8297568,19.7392229 45.7317568,18.2632229 44.8767568,16.1752229 C44.2827568,14.6722229 43.6167568,13.6552229 42.8787568,13.1332229 L42.0957568,13.6372229 C42.6537568,14.0332229 43.1307568,14.5912229 43.5357568,15.3202229 Z M52.5807568,13.0972229 L52.5807568,14.6362229 L49.3947568,14.6362229 L49.3947568,19.0282229 L50.3397568,19.0282229 L50.3397568,18.5332229 L52.5807568,18.5332229 L52.5807568,21.5392229 L53.5527568,21.5392229 L53.5527568,18.5332229 L55.8027568,18.5332229 L55.8027568,19.0282229 L56.7477568,19.0282229 L56.7477568,14.6362229 L53.5527568,14.6362229 L53.5527568,13.0972229 L52.5807568,13.0972229 Z M50.3397568,17.6152229 L50.3397568,15.5542229 L52.5807568,15.5542229 L52.5807568,17.6152229 L50.3397568,17.6152229 Z M53.5527568,17.6152229 L53.5527568,15.5542229 L55.8027568,15.5542229 L55.8027568,17.6152229 L53.5527568,17.6152229 Z" id="反馈通知书录入中" fill="#FFFFFF" fill-rule="nonzero"></path>
                </g>
            </g>
        </g>
    </g>
</svg>