<?xml version="1.0" encoding="UTF-8"?>
<svg width="49px" height="49px" viewBox="0 0 49 49" version="1.1" xmlns="http://www.w3.org/2000/svg" xmlns:xlink="http://www.w3.org/1999/xlink">
    <!-- Generator: Sketch 59.1 (86144) - https://sketch.com -->
    <title>分组备份 70@2x</title>
    <desc>Created with Sketch.</desc>
    <g id="页面-1" stroke="none" stroke-width="1" fill="none" fill-rule="evenodd">
        <g id="状态角标" transform="translate(-4398.000000, -1606.000000)">
            <g id="分组备份-70" transform="translate(4397.000000, 1593.000000)">
                <g id="编组-3" transform="translate(31.353553, 31.646447) rotate(45.000000) translate(-31.353553, -31.646447) translate(-3.646447, 23.146447)">
                    <polygon id="矩形" fill="#FF4831" points="16.0683698 1.06157248 53.835396 0.965338282 69.375151 16.5050933 0.362011246 16.7679311"></polygon>
                    <path d="M19.4167864,9.588 L21.1447864,9.588 L21.1447864,10.344 L19.4167864,10.344 L19.4167864,9.588 Z M21.1447864,11.199 L21.1447864,12.972 L22.0807864,12.972 L22.0807864,11.199 L23.8357864,11.199 L23.8357864,11.64 L24.7537864,11.64 L24.7537864,7.131 L22.0807864,7.131 L22.0807864,6.393 L21.1447864,6.393 L21.1447864,7.131 L18.4987864,7.131 L18.4987864,11.667 L19.4167864,11.667 L19.4167864,11.199 L21.1447864,11.199 Z M22.0807864,10.344 L22.0807864,9.588 L23.8357864,9.588 L23.8357864,10.344 L22.0807864,10.344 Z M23.8357864,8.769 L22.0807864,8.769 L22.0807864,7.995 L23.8357864,7.995 L23.8357864,8.769 Z M21.1447864,7.995 L21.1447864,8.769 L19.4167864,8.769 L19.4167864,7.995 L21.1447864,7.995 Z M25.4377864,5.196 L22.0177864,5.196 C21.9457864,4.944 21.8737864,4.719 21.8017864,4.521 L20.8027864,4.683 C20.8837864,4.845 20.9647864,5.016 21.0367864,5.196 L17.6977864,5.196 L17.6977864,6.987 L18.6157864,6.987 L18.6157864,6.051 L24.5197864,6.051 L24.5197864,6.942 L25.4377864,6.942 L25.4377864,5.196 Z M29.1457864,8.445 C28.9027864,8.544 28.6597864,8.643 28.4167864,8.733 L28.4167864,7.077 L29.2087864,7.077 L29.2087864,6.168 L28.4167864,6.168 L28.4167864,4.611 L27.4987864,4.611 L27.4987864,6.168 L26.5897864,6.168 L26.5897864,7.077 L27.4987864,7.077 L27.4987864,9.021 C27.1567864,9.111 26.8147864,9.183 26.4727864,9.246 L26.6977864,10.146 C26.9677864,10.074 27.2287864,10.002 27.4987864,9.921 L27.4987864,11.703 C27.4987864,11.919 27.3907864,12.027 27.1927864,12.027 C26.9857864,12.027 26.7697864,12 26.5537864,11.964 L26.7517864,12.882 L27.5167864,12.882 C28.1107864,12.882 28.4167864,12.567 28.4167864,11.946 L28.4167864,9.615 C28.6597864,9.525 28.9027864,9.426 29.1457864,9.327 L29.1457864,8.445 Z M30.3877864,8.103 L31.4947864,8.103 L31.4947864,7.185 L30.3877864,7.185 L30.3877864,4.656 L29.4607864,4.656 L29.4607864,11.442 C29.4607864,11.721 29.3257864,11.901 29.0647864,11.982 L29.2987864,12.855 C30.1447864,12.657 30.9007864,12.432 31.5667864,12.162 L31.3957864,11.298 C31.0897864,11.442 30.7477864,11.568 30.3877864,11.676 L30.3877864,8.103 Z M33.5197864,12.846 C33.8617864,12.846 34.1227864,12.747 34.2847864,12.558 C34.4647864,12.36 34.5907864,11.73 34.6627864,10.677 L33.8077864,10.407 L33.7904356,10.7882322 C33.760555,11.3135455 33.7136955,11.6301818 33.6547864,11.748 C33.5827864,11.883 33.4837864,11.955 33.3487864,11.955 L32.9977864,11.955 C32.8177864,11.955 32.7277864,11.856 32.7277864,11.658 L32.7277864,8.058 C33.3217864,7.86 33.9517864,7.59 34.6177864,7.239 L34.0777864,6.465 C33.6457864,6.735 33.1957864,6.951 32.7277864,7.131 L32.7277864,4.638 L31.8007864,4.638 L31.8007864,11.865 C31.8007864,12.513 32.0977864,12.846 32.7097864,12.846 L33.5197864,12.846 Z M35.9227864,4.926 L35.9227864,5.844 L39.3337864,5.844 C38.5147864,6.708 37.2277864,7.455 35.4727864,8.085 L36.0667864,8.859 C37.2907864,8.364 38.3077864,7.806 39.1177864,7.176 L39.1177864,9.219 L40.0537864,9.219 L40.0537864,6.312 C40.1887864,6.159 40.3147864,6.006 40.4407864,5.844 L43.2937864,5.844 L43.2937864,4.926 L35.9227864,4.926 Z M42.6727864,9.435 L36.5167864,9.435 L36.5167864,12.909 L37.4707864,12.909 L37.4707864,12.504 L41.7187864,12.504 L41.7187864,12.909 L42.6727864,12.909 L42.6727864,9.435 Z M37.4707864,11.604 L37.4707864,10.335 L41.7187864,10.335 L41.7187864,11.604 L37.4707864,11.604 Z M41.0167864,6.429 L40.3867864,7.041 C41.4937864,7.707 42.3487864,8.319 42.9517864,8.895 L43.6357864,8.211 C42.9247864,7.617 42.0517864,7.023 41.0167864,6.429 Z M47.2717864,5.88 L47.2717864,6.771 L48.9817864,6.771 L48.9817864,7.311 C48.9817864,7.725 48.9457864,8.121 48.8917864,8.499 L46.8937864,8.499 L46.8937864,9.39 L48.6847864,9.39 C48.2887864,10.65 47.4877864,11.568 46.2817864,12.144 L46.8847864,12.936 C48.1717864,12.252 49.0447864,11.19 49.5127864,9.768 C50.0887864,11.019 50.9797864,12.063 52.1677864,12.909 L52.7887864,12.189 C51.6007864,11.469 50.7367864,10.542 50.1787864,9.39 L52.6537864,9.39 L52.6537864,8.499 L51.9157864,8.499 L51.9157864,5.88 L49.8907864,5.88 L49.8907864,4.611 L48.9817864,4.611 L48.9817864,5.88 L47.2717864,5.88 Z M49.8907864,6.771 L51.0067864,6.771 L51.0067864,8.499 L49.8007864,8.499 C49.8547864,8.067 49.8907864,7.599 49.8907864,7.104 L49.8907864,6.771 Z M45.2737864,4.836 L44.4997864,5.322 C45.0487864,6.114 45.4807864,6.843 45.7957864,7.491 L46.5697864,6.951 C46.2727864,6.348 45.8407864,5.646 45.2737864,4.836 Z M45.8407864,8.607 L46.6687864,8.931 C46.2817864,10.263 45.8407864,11.523 45.3547864,12.702 L44.4637864,12.315 C44.9947864,11.109 45.4537864,9.867 45.8407864,8.607 Z" id="审批否决" fill="#FFFFFF" fill-rule="nonzero"></path>
                </g>
            </g>
        </g>
    </g>
</svg>