<?xml version="1.0" encoding="UTF-8"?>
<svg width="49px" height="49px" viewBox="0 0 49 49" version="1.1" xmlns="http://www.w3.org/2000/svg" xmlns:xlink="http://www.w3.org/1999/xlink">
    <!-- Generator: Sketch 59.1 (86144) - https://sketch.com -->
    <title>分组备份 67@2x</title>
    <desc>Created with Sketch.</desc>
    <g id="页面-1" stroke="none" stroke-width="1" fill="none" fill-rule="evenodd">
        <g id="状态角标" transform="translate(-4398.000000, -1284.000000)">
            <g id="分组备份-67" transform="translate(4397.000000, 1271.000000)">
                <g id="编组-3" transform="translate(31.353553, 31.646447) rotate(45.000000) translate(-31.353553, -31.646447) translate(-3.646447, 23.146447)">
                    <polygon id="矩形" fill="#FF9600" points="16.0683698 1.06157248 53.835396 0.965338282 69.375151 16.5050933 0.362011246 16.7679311"></polygon>
                    <path d="M16.7437864,4.584 C15.6997864,5.772 14.3947864,6.771 12.8197864,7.572 L13.3237864,8.49 C13.8097864,8.22 14.2687864,7.932 14.7007864,7.635 L14.7007864,8.265 L19.4707864,8.265 L19.4707864,7.644 C19.8847864,7.941 20.3347864,8.22 20.8117864,8.472 L21.3247864,7.563 C19.8487864,6.843 18.5527864,5.844 17.4277864,4.584 L16.7437864,4.584 Z M15.0877864,7.356 C15.8527864,6.78 16.5187864,6.141 17.0857864,5.439 C17.6707864,6.15 18.3367864,6.789 19.0747864,7.356 L15.0877864,7.356 Z M20.0557864,9.147 L14.1157864,9.147 L14.1157864,12.927 L15.0247864,12.927 L15.0247864,12.468 L19.1467864,12.468 L19.1467864,12.927 L20.0557864,12.927 L20.0557864,9.147 Z M15.0247864,11.577 L15.0247864,10.029 L19.1467864,10.029 L19.1467864,11.577 L15.0247864,11.577 Z M28.8937864,12.909 C29.5057864,12.909 29.8117864,12.549 29.8117864,11.847 L29.8117864,4.881 L22.3597864,4.881 L22.3597864,12.936 L23.3047864,12.936 L23.3047864,5.799 L28.8667864,5.799 L28.8667864,11.631 C28.8667864,11.883 28.7677864,12.009 28.5877864,12.009 L27.4627864,11.964 L27.7237864,12.909 L28.8937864,12.909 Z M23.7997864,6.573 L23.7997864,7.446 L28.3717864,7.446 L28.3717864,6.573 L23.7997864,6.573 Z M24.2497864,8.193 L24.2497864,11.262 L27.9307864,11.262 L27.9307864,8.193 L24.2497864,8.193 Z M27.0217864,10.425 L25.1587864,10.425 L25.1587864,9.03 L27.0217864,9.03 L27.0217864,10.425 Z M32.9167864,9.588 L34.6447864,9.588 L34.6447864,10.344 L32.9167864,10.344 L32.9167864,9.588 Z M34.6447864,11.199 L34.6447864,12.972 L35.5807864,12.972 L35.5807864,11.199 L37.3357864,11.199 L37.3357864,11.64 L38.2537864,11.64 L38.2537864,7.131 L35.5807864,7.131 L35.5807864,6.393 L34.6447864,6.393 L34.6447864,7.131 L31.9987864,7.131 L31.9987864,11.667 L32.9167864,11.667 L32.9167864,11.199 L34.6447864,11.199 Z M35.5807864,10.344 L35.5807864,9.588 L37.3357864,9.588 L37.3357864,10.344 L35.5807864,10.344 Z M37.3357864,8.769 L35.5807864,8.769 L35.5807864,7.995 L37.3357864,7.995 L37.3357864,8.769 Z M34.6447864,7.995 L34.6447864,8.769 L32.9167864,8.769 L32.9167864,7.995 L34.6447864,7.995 Z M38.9377864,5.196 L35.5177864,5.196 C35.4457864,4.944 35.3737864,4.719 35.3017864,4.521 L34.3027864,4.683 C34.3837864,4.845 34.4647864,5.016 34.5367864,5.196 L31.1977864,5.196 L31.1977864,6.987 L32.1157864,6.987 L32.1157864,6.051 L38.0197864,6.051 L38.0197864,6.942 L38.9377864,6.942 L38.9377864,5.196 Z M42.0787864,12.936 L42.0787864,8.697 L42.3304984,9.124104 C42.4639864,9.35652 42.6097864,9.6168 42.7717864,9.903 L43.3027864,9.093 C42.8887864,8.553 42.4747864,8.058 42.0787864,7.626 L42.0787864,7.167 L43.0417864,7.167 L43.0417864,6.276 L42.0787864,6.276 L42.0787864,4.62 L41.1697864,4.62 L41.1697864,6.276 L40.0267864,6.276 L40.0267864,7.167 L41.1337864,7.167 C40.8637864,8.211 40.4407864,9.147 39.8647864,9.957 L40.2607864,10.929 C40.6207864,10.317 40.9177864,9.66 41.1697864,8.949 L41.1697864,12.936 L42.0787864,12.936 Z M43.1857864,5.502 L43.1857864,6.357 L44.7067864,6.357 C44.2612864,7.116 43.8838489,7.617875 43.5814062,7.84876042 L43.5007864,7.905 C43.4647864,7.932 43.4107864,7.959 43.3297864,7.986 L43.5187864,8.742 L45.2647864,8.661 C44.5897864,9.345 43.7707864,9.849 42.8077864,10.182 L43.3207864,10.956 C45.0577864,10.308 46.3717864,9.093 47.2717864,7.302 L46.5157864,6.897 C46.3357864,7.239 46.1467864,7.563 45.9307864,7.869 C45.4807864,7.905 45.0217864,7.941 44.5627864,7.968 C44.8867864,7.608 45.2557864,7.077 45.6697864,6.357 L48.1357864,6.357 L48.1357864,5.502 L46.1917864,5.502 C46.0837864,5.169 45.9757864,4.863 45.8587864,4.593 L44.8957864,4.755 C45.0307864,4.98 45.1567864,5.232 45.2737864,5.502 L43.1857864,5.502 Z M46.1107864,11.244 C46.7227864,11.838 47.1997864,12.396 47.5597864,12.936 L48.2437864,12.252 C47.8117864,11.73 47.2897864,11.199 46.6957864,10.677 C47.2357864,10.092 47.7127864,9.408 48.1267864,8.634 L47.3437864,8.229 C46.3177864,10.155 44.7607864,11.46 42.6817864,12.135 L43.2037864,12.936 C44.3017864,12.549 45.2737864,11.982 46.1107864,11.244 Z M52.5997864,4.566 L52.5997864,6.105 L49.4137864,6.105 L49.4137864,10.497 L50.3587864,10.497 L50.3587864,10.002 L52.5997864,10.002 L52.5997864,13.008 L53.5717864,13.008 L53.5717864,10.002 L55.8217864,10.002 L55.8217864,10.497 L56.7667864,10.497 L56.7667864,6.105 L53.5717864,6.105 L53.5717864,4.566 L52.5997864,4.566 Z M50.3587864,9.084 L50.3587864,7.023 L52.5997864,7.023 L52.5997864,9.084 L50.3587864,9.084 Z M53.5717864,9.084 L53.5717864,7.023 L55.8217864,7.023 L55.8217864,9.084 L53.5717864,9.084 Z" id="合同审核中" fill="#FFFFFF" fill-rule="nonzero"></path>
                </g>
            </g>
        </g>
    </g>
</svg>