<?xml version="1.0" encoding="UTF-8"?>
<svg width="49px" height="49px" viewBox="0 0 49 49" version="1.1" xmlns="http://www.w3.org/2000/svg" xmlns:xlink="http://www.w3.org/1999/xlink">
    <!-- Generator: Sketch 59.1 (86144) - https://sketch.com -->
    <title>分组备份 72@2x</title>
    <desc>Created with Sketch.</desc>
    <g id="页面-1" stroke="none" stroke-width="1" fill="none" fill-rule="evenodd">
        <g id="状态角标" transform="translate(-4398.000000, -1824.000000)">
            <g id="分组备份-72" transform="translate(4397.000000, 1811.000000)">
                <g id="编组-3" transform="translate(31.353553, 31.646447) rotate(45.000000) translate(-31.353553, -31.646447) translate(-3.646447, 23.146447)">
                    <polygon id="矩形" fill="#98A7B5" points="16.0683698 1.06157248 53.835396 0.965338282 69.375151 16.5050933 0.362011246 16.7679311"></polygon>
                    <path d="M27.1087864,8.859 L27.1087864,5.007 L20.2417864,5.007 L20.2417864,5.907 L26.1547864,5.907 L26.1547864,7.959 L21.5557864,7.959 L21.5557864,6.771 L20.6197864,6.771 L20.6197864,11.433 C20.6197864,12.243 20.9977864,12.648 21.7717864,12.648 L26.7757864,12.648 C27.1357864,12.63 27.4327864,12.522 27.6487864,12.324 C27.8287864,12.126 27.9817864,11.451 28.0987864,10.299 L27.1807864,10.011 L27.1538807,10.4071475 C27.1007983,11.0827988 27.0264018,11.4793846 26.9197864,11.586 C26.7937864,11.694 26.6587864,11.748 26.5147864,11.748 L22.0417864,11.748 C21.7177864,11.748 21.5557864,11.586 21.5557864,11.262 L21.5557864,8.859 L27.1087864,8.859 Z M33.6207864,10.164 L34.7907864,10.164 L34.7907864,10.686 L33.6207864,10.686 L33.6207864,10.164 Z M34.7907864,9.48 L33.6207864,9.48 L33.6207864,8.967 L34.7907864,8.967 L34.7907864,9.48 Z M33.6207864,11.37 L34.7907864,11.37 L34.7907864,11.829 C34.7907864,11.982 34.6827864,12.063 34.4757864,12.063 L33.9987864,12.027 L34.2057864,12.828 L34.7277864,12.828 C35.3037864,12.828 35.6007864,12.549 35.6007864,12.009 L35.6007864,8.346 L35.9067864,8.724 C35.9787864,8.616 36.0417864,8.499 36.1137864,8.382 C36.2757864,9.174 36.4737864,9.885 36.6987864,10.506 C36.4287864,11.154 36.0687864,11.685 35.6187864,12.099 L36.0957864,12.864 C36.4917864,12.486 36.8337864,12.027 37.1217864,11.487 C37.4007864,12.045 37.7157864,12.504 38.0667864,12.855 L38.5977864,12.081 C38.2017864,11.703 37.8507864,11.181 37.5447864,10.524 C37.9047864,9.489 38.1117864,8.238 38.1477864,6.771 L38.4087864,6.771 L38.4087864,5.898 L37.0137864,5.898 C37.0947864,5.511 37.1667864,5.097 37.2297864,4.665 L36.3927864,4.521 C36.2577864,5.655 36.0327864,6.618 35.7087864,7.41 C35.5557864,7.023 35.3757864,6.654 35.1777864,6.294 L34.5297864,6.51 C34.6107864,6.663 34.6917864,6.834 34.7817864,7.023 L33.7557864,7.176 C33.9357864,6.87 34.1247864,6.546 34.3047864,6.204 L35.9247864,6.204 L35.9247864,5.358 L34.6737864,5.358 C34.5927864,5.061 34.5117864,4.791 34.4307864,4.548 L33.5127864,4.692 C33.6117864,4.89 33.7107864,5.115 33.8007864,5.358 L32.5767864,5.358 L32.5767864,6.204 L33.4227864,6.204 C33.2787864,6.51 33.1527864,6.744 33.0627864,6.906 C32.9277864,7.113 32.7747864,7.23 32.6037864,7.248 L32.7117864,7.977 C33.7377864,7.878 34.5117864,7.77 35.0337864,7.644 L35.1237864,7.896 L35.1237864,7.896 L35.5917864,7.68 L35.3847864,8.085 L35.3847864,8.085 L35.5017864,8.229 L32.8107864,8.229 L32.8107864,12.864 L33.6207864,12.864 L33.6207864,11.37 Z M36.6357864,7.23 C36.6897864,7.086 36.7347864,6.933 36.7887864,6.771 L37.3737864,6.771 C37.3467864,7.707 37.2477864,8.544 37.0857864,9.282 C36.9057864,8.67 36.7527864,7.986 36.6357864,7.23 Z M31.1367864,12.837 C31.6947864,12.837 31.9827864,12.522 31.9827864,11.901 L31.9827864,9.426 L32.5317864,9.102 L32.5317864,9.102 L32.5317864,8.148 C32.3517864,8.265 32.1627864,8.373 31.9827864,8.481 L31.9827864,7.059 L32.5227864,7.059 L32.5227864,6.168 L31.9827864,6.168 L31.9827864,4.62 L31.0917864,4.62 L31.0917864,6.168 L30.3177864,6.168 L30.3177864,7.059 L31.0917864,7.059 L31.0917864,8.904 C30.7857864,9.03 30.4707864,9.129 30.1467864,9.21 L30.3897864,10.164 C30.6237864,10.074 30.8577864,9.975 31.0917864,9.867 L31.0917864,11.667 C31.0917864,11.91 31.0017864,12.036 30.8307864,12.036 C30.6507864,12.036 30.4617864,12.009 30.2637864,11.973 L30.4617864,12.837 L31.1367864,12.837 Z M46.0367864,4.638 L46.0367864,7.032 L44.3717864,7.032 L44.3717864,12.9 L45.3077864,12.9 L45.3077864,11.001 L47.6837864,11.001 L47.6837864,11.586 C47.6837864,11.883 47.5847864,12.036 47.3867864,12.036 L46.5857864,11.991 L46.8287864,12.882 L47.6837864,12.882 C48.3047864,12.882 48.6197864,12.513 48.6197864,11.793 L48.6197864,7.032 L46.9637864,7.032 L46.9637864,4.638 L46.0367864,4.638 Z M45.3077864,9.462 L47.6837864,9.462 L47.6837864,10.209 L45.3077864,10.209 L45.3077864,9.462 Z M47.6837864,8.67 L45.3077864,8.67 L45.3077864,7.923 L47.6837864,7.923 L47.6837864,8.67 Z M44.9207864,4.98 L44.1377864,5.358 C44.4257864,5.79 44.6957864,6.285 44.9477864,6.825 L45.7037864,6.447 C45.4517864,5.907 45.1907864,5.421 44.9207864,4.98 Z M48.0797864,4.881 C47.8817864,5.394 47.6117864,5.907 47.2697864,6.429 L48.0257864,6.825 C48.3677864,6.321 48.6377864,5.799 48.8537864,5.259 L48.0797864,4.881 Z M41.7077864,4.629 L42.6077864,4.818 C42.5447864,5.07 42.4817864,5.304 42.4097864,5.529 L43.9037864,5.529 L43.9037864,6.42 L42.1037864,6.42 C41.9687864,6.753 41.8247864,7.068 41.6807864,7.356 L43.7507864,7.356 L43.7507864,8.193 L42.9227864,8.193 L42.9227864,9.039 L44.0567864,9.039 L44.0567864,9.903 L42.9227864,9.903 L42.9227864,11.658 C43.2917864,11.514 43.6607864,11.343 44.0207864,11.127 L44.1827864,11.946 C43.5617864,12.27 42.8507864,12.54 42.0497864,12.756 L41.6627864,11.946 C41.8877864,11.865 42.0047864,11.739 42.0047864,11.577 L42.0047864,9.903 L40.8707864,9.903 L40.8707864,9.039 L42.0047864,9.039 L42.0047864,8.193 L41.5727864,8.193 L41.5727864,7.563 C41.4827864,7.725 41.3927864,7.878 41.3027864,8.022 L40.5377864,7.536 C41.0957864,6.627 41.4827864,5.655 41.7077864,4.629 Z" id="已撤销" fill="#FFFFFF" fill-rule="nonzero"></path>
                </g>
            </g>
        </g>
    </g>
</svg>